<svg width="2048" height="2048" viewBox="0 0 512 512" version="1.1" xmlns="http://www.w3.org/2000/svg"  style="background:transparent"><path fill="rgb(153,102,102)" stroke="rgb(153,102,102)" stroke-width="0" opacity="1" d="M 242 45 L 255.5 47 L 267.5 47 L 284 45 L 284 47 Q 289.3 45.8 288.5 49 L 291.5 49 L 295.5 51 L 297.5 51 L 303.5 52 L 309.5 49 L 320.5 52 L 325 55.5 Q 324.1 58.5 328.5 57 L 333.5 59 L 335.5 59 L 343.5 61 Q 354.2 69.3 368.5 74 Q 388 90.8 412 102 Q 411.9 106.9 415.5 109 Q 421.1 108.9 423 112.5 Q 421.8 120.8 427.5 122 L 431 124.5 L 436.5 133 L 440 135.5 L 447 152.5 L 458.5 171 L 460 172.5 L 462 174.5 L 462 179.5 L 465 187.5 L 465 189.5 L 466.5 199 L 469.5 198 L 471 199.5 L 471 204.5 L 474 213.5 Q 471.2 215.2 472 220.5 L 472 222.5 L 476 239 L 478 239.5 L 478 246.5 L 476 255.5 L 476 267.5 L 478 282 L 476 282.5 L 478 283.5 L 476 284 L 473 293.5 L 473 295.5 L 471 305.5 L 474 309.5 L 469 325 Q 464.5 323.3 466 328.5 L 464 332.5 L 464 334.5 L 462 343.5 L 444 375.5 Q 443 384 438.5 389 L 434 390 L 431 396.5 L 425.5 402 L 424 403.5 L 419.5 412 L 413 415.5 L 412 421 Q 402.9 421.6 399 428.5 L 397.5 430 L 390 435.5 L 387.5 440 L 376.5 444 L 343.5 462 L 334.5 465 L 332.5 465 L 325 466 L 322.5 470 L 308 474 L 307.5 472 L 305.5 473 L 302.5 472 L 288 475 L 287.5 478 L 276.5 478 L 267.5 476 L 255.5 476 Q 246.9 479.1 235 478 L 233.5 475 L 223.5 473 L 215.5 473 L 212.5 474 L 196 468 Q 197.3 465 193.5 466 L 189.5 464 L 187.5 464 L 179.5 462 Q 168.8 453.7 154.5 449 Q 134.4 432.1 110 419.5 L 107.5 414 L 102 411.5 Q 90.4 387.6 74 368.5 L 60 340.5 L 59 333.5 L 52 318.5 L 49 307.5 L 50 300.5 L 45 285.5 L 47 276.5 L 47 246.5 L 45 235 Q 47.7 236.1 47 233.5 L 49 231.5 Q 48.3 224.8 51 221.5 L 50 220.5 L 50 209.5 L 54 198 Q 58.9 199.8 57 193.5 L 61 179.5 Q 69.3 168.8 74 154.5 L 96.5 123 Q 99.1 123.8 98 120.5 L 102.5 112 L 110 107.5 L 113.5 101 Q 120.1 100.6 123 96.5 L 124.5 95 L 154.5 74 Q 168.8 69.3 179.5 61 L 196.5 57 Q 197.8 59.3 199 56.5 L 200 53 L 213.5 49 L 219.5 52 L 226.5 50 L 228.5 50 L 233.5 50 L 235.5 48 L 242 47 L 242 45 Z M 237 118 L 232 119 L 223 127 L 213 129 L 208 137 L 201 140 L 198 146 L 194 148 Q 188 151 187 159 L 180 166 L 177 181 Q 171 185 168 194 L 169 201 Q 171 205 177 205 L 180 215 Q 188 219 191 229 L 196 232 L 199 239 L 207 244 L 210 252 L 217 255 L 220 263 L 225 265 Q 229 267 229 273 Q 231 276 236 276 L 238 280 Q 240 288 236 291 L 235 292 L 230 297 L 228 307 L 224 310 L 219 316 L 216 326 L 214 327 L 210 331 L 207 340 L 200 343 L 196 358 L 191 360 L 188 370 L 180 378 L 178 388 L 173 391 L 169 397 L 170 402 L 180 405 L 345 405 L 351 403 L 354 398 L 352 394 L 351 392 L 346 388 L 343 378 L 336 371 L 334 364 L 329 359 L 325 356 L 323 345 L 316 340 L 313 331 L 310 328 L 306 325 L 303 314 L 299 310 L 295 307 Q 295 300 292 297 L 291 295 L 285 289 L 286 278 L 293 274 L 296 268 L 302 264 L 305 258 L 311 254 Q 315 252 315 246 L 322 242 L 325 235 L 330 232 L 344 214 L 346 207 L 353 203 L 355 199 L 354 190 L 347 183 L 343 166 Q 336 162 334 153 L 328 148 L 324 143 Q 322 138 317 138 L 313 132 L 309 128 L 301 127 L 291 119 L 285 118 L 237 118 Z " /><path fill="rgb(153,102,102)" stroke="rgb(153,102,102)" stroke-width="0" opacity="1" d="M 284.5 196 L 288 197 Q 290.2 200.6 289 209.5 L 287 214.5 L 279 224.5 L 279 236.5 L 276.5 239 L 271 236.5 L 272 213.5 L 271 207.5 L 284.5 196 Z " /><path fill="rgb(153,102,102)" stroke="rgb(153,102,102)" stroke-width="0" opacity="1" d="M 237.5 199 Q 246.1 200.9 251 206.5 L 252 212.5 L 251 219.5 L 252 220.5 L 252 234.5 Q 251.3 237.8 246.5 237 L 244 233.5 L 243 221.5 L 235 212.5 L 234 203.5 L 237.5 199 Z " /><path fill="rgb(153,102,102)" stroke="rgb(153,102,102)" stroke-width="0" opacity="1" d="M 322.5 201 Q 327 200 328 202.5 Q 329 208 325.5 209 L 320 212.5 L 318 218 L 311 222.5 L 307.5 229 L 302 231 Q 301.4 238.3 296.5 242 L 294 237.5 L 297.5 231 Q 300.8 232.1 300 229.5 L 306 212.5 L 309 208 L 322.5 201 Z " /><path fill="rgb(153,102,102)" stroke="rgb(153,102,102)" stroke-width="0" opacity="1" d="M 197.5 202 Q 209.5 202.5 215 209.5 L 218 214.5 L 221 226.5 L 224.5 231 L 228 233.5 L 229 238.5 L 228 242 L 223 238.5 L 221 231 Q 216.1 231.1 214 227.5 L 209.5 220 L 205 218 L 202 211 L 195 207.5 Q 194.3 202.8 197.5 202 Z " /><path fill="rgb(153,102,102)" stroke="rgb(153,102,102)" stroke-width="0" opacity="1" d="M 261.5 298 L 267 302.5 Q 267.5 310 272.5 313 L 278 315 L 280 326.5 L 287 333.5 L 290 342.5 L 292.5 345 L 297 348.5 L 299 357.5 L 303.5 363 L 308 365.5 L 312.5 375 L 316 377.5 Q 317 382 314.5 383 L 223.5 382 L 222.5 383 L 207 383 L 206 378.5 L 207 376 L 212 374 L 216.5 364 L 222 362 L 226 346 L 233 341.5 L 235 334.5 L 243 325.5 L 244 317.5 L 246.5 314 L 253 310.5 L 256 300 L 261.5 298 Z " /><path fill="rgb(153,153,102)" stroke="rgb(153,153,102)" stroke-width="0" opacity="1" d="M 235.5 44 L 242 45 Q 243.3 48 239.5 47 L 227.5 51 L 225.5 51 L 217.5 52 L 214 49.5 L 227.5 45 Q 233.8 46.8 235.5 44 Z " /><path fill="rgb(153,153,102)" stroke="rgb(153,153,102)" stroke-width="0" opacity="1" d="M 285.5 44 L 295.5 45 L 309 49.5 L 302.5 52 L 296.5 50 L 294.5 50 L 288 49 L 288 47 Q 283.2 48.9 284 45.5 L 285.5 44 Z " /><path fill="rgb(153,153,102)" stroke="rgb(153,153,102)" stroke-width="0" opacity="1" d="M 198.5 54 L 200 54.5 L 197.5 58 L 195.5 57 L 188.5 59 L 188.5 58 L 198.5 54 Z " /><path fill="rgb(153,153,102)" stroke="rgb(153,153,102)" stroke-width="0" opacity="1" d="M 324.5 54 L 332 57.5 L 329.5 58 L 325 57 L 324.5 54 Z " /><path fill="rgb(153,153,102)" stroke="rgb(153,153,102)" stroke-width="0" opacity="1" d="M 111.5 102 L 112 104.5 L 107.5 110 L 102.5 112 L 111.5 102 Z " /><path fill="rgb(153,153,102)" stroke="rgb(153,153,102)" stroke-width="0" opacity="1" d="M 412.5 103 L 420 109.5 L 417.5 110 L 413 106.5 L 412.5 103 Z " /><path fill="rgb(153,153,102)" stroke="rgb(153,153,102)" stroke-width="0" opacity="1" d="M 423.5 113 L 438 132.5 L 436.5 133 L 428.5 122 L 423 117.5 L 423.5 113 Z " /><path fill="rgb(153,153,102)" stroke="rgb(153,153,102)" stroke-width="0" opacity="1" d="M 236.5 118 L 284.5 118 L 290.5 119 L 300.5 127 L 308.5 128 L 313 131.5 L 316.5 138 Q 322.1 138.5 324 142.5 L 327.5 148 L 334 152.5 Q 335.8 161.8 343 165.5 L 347 182.5 L 354 189.5 L 355 198.5 L 352.5 203 L 346 206.5 L 344 213.5 L 329.5 232 L 325 234.5 L 321.5 242 L 315 245.5 Q 314.9 251.9 310.5 254 L 305 257.5 L 301.5 264 L 296 267.5 L 292.5 274 L 286 277.5 L 285 288.5 L 290.5 295 L 292 296.5 Q 295.3 299.7 295 306.5 L 298.5 310 L 303 313.5 L 306 324.5 L 309.5 328 L 313 330.5 L 316 340 L 323 344.5 L 325 355.5 L 328.5 359 L 334 363.5 L 336 370.5 L 343 377.5 L 346 387.5 L 350.5 392 L 352 393.5 L 354 397.5 L 350.5 403 L 344.5 405 L 179.5 405 L 170 402 L 169 396.5 L 172.5 391 L 178 387.5 L 180 377.5 L 188 369.5 L 191 360 L 196 358 L 200 343 L 207 340 L 210 330.5 L 213.5 327 L 216 325.5 L 219 315.5 L 223.5 310 L 228 306.5 L 230 296.5 L 234.5 292 L 236 290.5 Q 240.3 288.3 238 279.5 L 236 276 Q 231.1 276.1 229 272.5 Q 228.6 267 224.5 265 L 220 262.5 L 216.5 255 L 210 251.5 L 206.5 244 L 199 238.5 L 195.5 232 L 191 228.5 Q 187.6 219.4 180 214.5 L 177 205 Q 171.4 204.9 169 200.5 L 168 193.5 Q 170.5 185 177 180.5 L 180 165.5 L 187 158.5 Q 188.1 151.1 193.5 148 L 198 145.5 L 200.5 140 L 208 136.5 L 212.5 129 L 222.5 127 L 231.5 119 L 236.5 118 Z M 247 121 L 235 123 L 229 129 L 215 132 L 211 138 L 202 143 L 199 150 L 196 151 Q 191 154 190 162 L 182 172 L 179 187 L 176 189 L 171 196 L 172 199 Q 173 203 178 202 L 182 211 L 186 213 L 191 222 L 199 230 L 203 238 L 209 241 L 212 249 L 220 253 L 223 261 L 229 263 L 232 271 L 240 274 L 241 277 L 240 293 Q 233 299 230 310 L 223 317 L 219 329 L 217 330 Q 211 333 210 341 L 203 348 L 200 359 L 196 362 L 193 365 L 188 377 L 187 378 L 183 382 L 179 392 L 175 394 L 174 398 L 182 402 L 341 402 L 347 399 L 347 396 L 340 382 L 337 379 L 330 366 L 329 364 L 323 359 L 320 349 Q 313 344 311 335 L 307 331 L 303 328 Q 302 320 298 316 L 297 314 L 294 312 L 290 302 L 284 296 L 281 288 L 283 275 L 291 271 L 293 265 L 300 261 L 302 256 Q 303 251 308 252 L 313 244 L 318 240 L 324 230 L 329 226 L 334 217 L 338 214 Q 342 211 343 205 L 350 201 L 352 197 L 351 193 L 347 189 L 343 185 Q 344 176 341 172 Q 333 166 331 155 L 324 150 L 321 143 L 315 140 L 311 135 Q 307 129 297 130 L 286 122 L 247 121 Z " /><path fill="rgb(153,153,102)" stroke="rgb(153,153,102)" stroke-width="0" opacity="1" d="M 97.5 121 L 98 123 L 95.5 124 L 97.5 121 Z " /><path fill="rgb(153,153,102)" stroke="rgb(153,153,102)" stroke-width="0" opacity="1" d="M 456.5 166 L 463 173.5 L 469 189.5 L 470 197.5 L 468.5 199 L 466 198.5 L 464 188.5 L 465 186.5 L 460 171 L 456 168.5 L 456.5 166 Z " /><path fill="rgb(153,153,102)" stroke="rgb(153,153,102)" stroke-width="0" opacity="1" d="M 283.5 192 Q 289.3 191.2 291 194.5 L 292 196.5 L 292 209.5 L 290 218.5 L 287.5 221 L 283 224.5 Q 280.2 228.7 282 237.5 L 279.5 241 L 272.5 242 L 269 245.5 L 268 257 Q 265 259 257.5 258 L 255 255.5 L 254 245.5 L 251.5 242 L 244.5 241 L 242 238.5 L 241 226.5 L 235.5 220 L 234 218.5 L 231 209.5 L 230 196.5 Q 232.3 191.8 241.5 194 L 255.5 204 L 266.5 204 L 278.5 194 L 283.5 192 Z M 285 196 L 271 208 L 272 214 L 271 237 L 277 239 L 279 237 L 279 225 L 287 215 L 289 210 Q 290 201 288 197 L 285 196 Z M 238 199 L 234 204 L 235 213 L 243 222 L 244 234 L 247 237 Q 251 238 252 235 L 252 221 L 251 220 L 252 213 L 251 207 Q 246 201 238 199 Z " /><path fill="rgb(153,153,102)" stroke="rgb(153,153,102)" stroke-width="0" opacity="1" d="M 56.5 194 L 57 198 Q 54.3 199.1 55 196.5 L 56.5 194 Z " /><path fill="rgb(153,153,102)" stroke="rgb(153,153,102)" stroke-width="0" opacity="1" d="M 324.5 195 L 332 196 L 331 208.5 L 328.5 211 L 322 215.5 L 318.5 222 L 314 224.5 L 296.5 249 L 293 250 L 291 257.5 L 288.5 260 Q 282.4 261.3 283 258.5 L 282 252.5 L 284 244 L 290 242 L 293 229.5 L 300 221.5 Q 303.7 217.2 303 208.5 L 306.5 204 L 324.5 195 Z M 323 201 L 309 208 L 306 213 L 300 230 Q 301 232 298 231 L 294 238 L 297 242 Q 301 238 302 231 L 308 229 L 311 223 L 318 218 L 320 213 L 326 209 Q 329 208 328 203 Q 327 200 323 201 Z " /><path fill="rgb(153,153,102)" stroke="rgb(153,153,102)" stroke-width="0" opacity="1" d="M 196.5 198 Q 211 199 219 206.5 L 221 217.5 L 229 227.5 L 231 231.5 L 232 239.5 L 235.5 243 L 239 244 L 241 257.5 L 240 260 Q 233.7 261.5 232 257.5 L 230 250 L 224 246.5 L 215.5 234 L 213 232.5 L 207.5 223 L 202 219.5 Q 201.6 214 197.5 212 L 192 209.5 Q 190 201 194.5 199 L 196.5 198 Z M 198 202 Q 194 203 195 208 L 202 211 L 205 218 L 210 220 L 214 228 Q 216 231 221 231 L 223 239 L 228 242 L 229 239 L 228 234 L 225 231 L 221 227 L 218 215 L 215 210 Q 209 203 198 202 Z " /><path fill="rgb(153,153,102)" stroke="rgb(153,153,102)" stroke-width="0" opacity="1" d="M 49.5 214 L 51 221.5 Q 48.3 224.8 49 231.5 L 46.5 235 L 46 228.5 L 49.5 214 Z " /><path fill="rgb(153,153,102)" stroke="rgb(153,153,102)" stroke-width="0" opacity="1" d="M 473.5 214 L 478 227.5 L 479 237.5 L 476 239 L 472 222.5 L 472 220.5 L 473.5 214 Z " /><path fill="rgb(153,153,102)" stroke="rgb(153,153,102)" stroke-width="0" opacity="1" d="M 244.5 262 Q 250 261 251 264.5 Q 251.8 270.3 247.5 271 L 243 269.5 L 242 265.5 L 244.5 262 Z " /><path fill="rgb(153,153,102)" stroke="rgb(153,153,102)" stroke-width="0" opacity="1" d="M 274.5 262 Q 279 261 280 263.5 L 281 267.5 L 278.5 271 Q 272.8 271.8 272 267.5 Q 271.3 262.8 274.5 262 Z " /><path fill="rgb(153,153,102)" stroke="rgb(153,153,102)" stroke-width="0" opacity="1" d="M 476 284 L 479 285.5 L 478 295.5 L 473.5 309 L 471 304.5 L 474 294.5 L 474 292.5 L 476 284 Z " /><path fill="rgb(153,153,102)" stroke="rgb(153,153,102)" stroke-width="0" opacity="1" d="M 46.5 291 L 50 300.5 L 50 306.5 L 49 306.5 L 46.5 291 Z " /><path fill="rgb(153,153,102)" stroke="rgb(153,153,102)" stroke-width="0" opacity="1" d="M 257.5 293 Q 266.2 291.8 269 296.5 L 271 304.5 L 274.5 310 L 280 313.5 L 284 324 L 287 325.5 L 294.5 341 L 300 345.5 L 303 356.5 Q 311.6 361.8 314 372 L 320 375.5 L 321 382.5 L 317.5 389 L 311.5 390 L 310.5 389 L 213.5 389 L 208.5 390 L 204 387.5 Q 201.3 384.2 202 377.5 L 205.5 373 L 210 371 Q 211.5 361 220 356.5 L 222 346.5 L 225.5 342 L 231 337.5 Q 232 328.5 237.5 324 L 239 322.5 L 245.5 311 L 250 308.5 L 252 299.5 L 255.5 294 L 257.5 293 Z M 262 298 L 256 300 L 253 311 L 247 314 L 244 318 L 243 326 L 235 335 L 233 342 L 226 346 L 222 362 L 217 364 L 212 374 L 207 376 L 206 379 L 207 383 L 223 383 L 224 382 L 315 383 Q 317 382 316 378 L 313 375 L 308 366 L 304 363 L 299 358 L 297 349 L 293 345 L 290 343 L 287 334 L 280 327 L 278 315 L 273 313 Q 268 310 267 303 L 262 298 Z " /><path fill="rgb(153,153,102)" stroke="rgb(153,153,102)" stroke-width="0" opacity="1" d="M 466 325 Q 468.7 323.9 468 326.5 L 464.5 333 L 465 331.5 L 466 325 Z " /><path fill="rgb(153,153,102)" stroke="rgb(153,153,102)" stroke-width="0" opacity="1" d="M 437.5 389 L 438 390.5 L 431 401.5 L 419.5 414 L 414 418.5 L 409.5 424 Q 401.2 432.7 389.5 438 L 390 436.5 L 393.5 432 L 399 430 L 404.5 423 L 412 421 Q 411.6 415.3 415.5 413 L 422 409.5 L 424 402 L 431 396.5 L 434 390 L 437.5 389 Z " /><path fill="rgb(153,153,102)" stroke="rgb(153,153,102)" stroke-width="0" opacity="1" d="M 104.5 413 L 109 415.5 L 110 418.5 L 104.5 413 Z " /><path fill="rgb(153,153,102)" stroke="rgb(153,153,102)" stroke-width="0" opacity="1" d="M 325 466 L 329 466.5 L 324.5 469 L 325 467.5 L 325 466 Z " /><path fill="rgb(153,153,102)" stroke="rgb(153,153,102)" stroke-width="0" opacity="1" d="M 302.5 472 L 306.5 473 L 308 472.5 L 306.5 474 L 295.5 478 L 285.5 479 L 285.5 478 Q 289.7 479.1 288 475 L 291.5 475 L 302.5 472 Z " /><path fill="rgb(153,153,102)" stroke="rgb(153,153,102)" stroke-width="0" opacity="1" d="M 215.5 473 L 229.5 474 L 235 476.5 Q 234.2 479.1 237.5 478 L 237.5 479 L 227.5 478 L 217.5 475 L 215.5 473 Z " /><path fill="rgb(216,214,213)" stroke="rgb(216,214,213)" stroke-width="0" opacity="1" d="M 246.5 121 L 285.5 122 L 296.5 130 Q 307 129 311 134.5 L 314.5 140 L 321 143 L 324 150 L 331 154.5 Q 333 166 341 171.5 Q 343.7 176.3 343 184.5 L 346.5 189 L 351 192.5 L 352 196.5 L 349.5 201 L 343 204.5 Q 342.1 211.1 337.5 214 L 334 216.5 L 328.5 226 L 324 229.5 L 317.5 240 L 313 243.5 L 307.5 252 Q 302.5 251.5 302 255.5 L 299.5 261 L 293 264.5 L 291 271 L 283 274.5 L 281 287.5 L 284 295.5 L 290 301.5 L 294 311.5 L 296.5 314 L 298 315.5 Q 302.4 319.6 303 327.5 L 306.5 331 L 311 334.5 Q 312.9 344.1 320 348.5 L 323 358.5 L 328.5 364 L 330 365.5 L 336.5 379 L 340 381.5 L 347 395.5 L 347 398.5 L 340.5 402 L 181.5 402 L 174 397.5 L 175 394 L 179 391.5 L 183 381.5 L 186.5 378 L 188 376.5 L 193 364.5 L 195.5 362 L 200 358.5 L 203 347.5 L 210 340.5 Q 211.1 333.1 216.5 330 L 219 328.5 L 223 316.5 L 230 309.5 Q 232.6 298.6 240 292.5 L 241 276.5 L 240 274 L 232 271 L 228.5 263 L 223 261 L 220 253 L 212 248.5 L 208.5 241 L 203 237.5 L 199 229.5 L 191 221.5 L 185.5 213 L 182 210.5 L 177.5 202 Q 172.5 202.5 172 198.5 L 171 195.5 L 175.5 189 L 179 186.5 L 182 171.5 L 190 161.5 Q 190.5 154 195.5 151 L 199 150 L 202 143 L 211 137.5 L 214.5 132 L 228.5 129 L 234.5 123 L 246.5 121 Z M 284 192 L 279 194 L 267 204 L 256 204 L 242 194 Q 232 192 230 197 L 231 210 L 234 219 L 236 220 L 241 227 L 242 239 L 245 241 L 252 242 L 254 246 L 255 256 L 258 258 Q 265 259 268 257 L 269 246 L 273 242 L 280 241 L 282 238 Q 280 229 283 225 L 288 221 L 290 219 L 292 210 L 292 197 L 291 195 Q 289 191 284 192 Z M 325 195 L 307 204 L 303 209 Q 304 217 300 222 L 293 230 L 290 242 L 284 244 L 282 253 L 283 259 Q 282 261 289 260 L 291 258 L 293 250 L 297 249 L 314 225 L 319 222 L 322 216 L 329 211 L 331 209 L 332 196 L 325 195 Z M 197 198 L 195 199 Q 190 201 192 210 L 198 212 Q 202 214 202 220 L 208 223 L 213 233 L 216 234 L 224 247 L 230 250 L 232 258 Q 234 262 240 260 L 241 258 L 239 244 L 236 243 L 232 240 L 231 232 L 229 228 L 221 218 L 219 207 Q 211 199 197 198 Z M 245 262 L 242 266 L 243 270 L 248 271 Q 252 270 251 265 Q 250 261 245 262 Z M 275 262 Q 271 263 272 268 Q 273 272 279 271 L 281 268 L 280 264 Q 279 261 275 262 Z M 258 293 L 256 294 L 252 300 L 250 309 L 246 311 L 239 323 L 238 324 Q 232 328 231 338 L 226 342 L 222 347 L 220 357 Q 212 361 210 371 L 206 373 L 202 378 Q 201 384 204 388 L 209 390 L 214 389 L 311 389 L 312 390 L 318 389 L 321 383 L 320 376 L 314 372 Q 312 362 303 357 L 300 346 L 295 341 L 287 326 L 284 324 L 280 314 L 275 310 L 271 305 L 269 297 Q 266 292 258 293 Z " /></svg>