<svg width="2048" height="2048" viewBox="0 0 512 512" version="1.1" xmlns="http://www.w3.org/2000/svg"  style="background:transparent"><path fill="rgb(102,153,102)" stroke="rgb(102,153,102)" stroke-width="0" opacity="1" d="M 216.5 10 L 214.5 13 L 205.5 15 L 205.5 14 L 216.5 10 Z " /><path fill="rgb(102,153,102)" stroke="rgb(102,153,102)" stroke-width="0" opacity="1" d="M 272.5 10 L 284 14.5 L 280.5 15 L 274.5 13 L 272.5 10 Z " /><path fill="rgb(102,153,102)" stroke="rgb(102,153,102)" stroke-width="0" opacity="1" d="M 198.5 17 L 195.5 21 L 190.5 23 L 190.5 22 L 198.5 17 Z " /><path fill="rgb(102,153,102)" stroke="rgb(102,153,102)" stroke-width="0" opacity="1" d="M 290.5 17 L 299 22.5 L 297.5 23 Q 292 21.2 290.5 17 Z " /><path fill="rgb(102,153,102)" stroke="rgb(102,153,102)" stroke-width="0" opacity="1" d="M 185.5 25 L 184 27.5 L 182.5 30 L 180.5 31 L 185.5 25 Z " /><path fill="rgb(102,153,102)" stroke="rgb(102,153,102)" stroke-width="0" opacity="1" d="M 303.5 25 L 308.5 31 L 305 28.5 L 303.5 25 Z " /><path fill="rgb(102,153,102)" stroke="rgb(102,153,102)" stroke-width="0" opacity="1" d="M 175.5 34 L 175 35.5 L 172.5 39 L 170.5 40 L 171.5 38 L 174 36.5 L 175.5 34 Z " /><path fill="rgb(102,153,102)" stroke="rgb(102,153,102)" stroke-width="0" opacity="1" d="M 313.5 34 L 316.5 38 L 319 39.5 L 317.5 39 L 314 36.5 L 313.5 34 Z " /><path fill="rgb(102,153,102)" stroke="rgb(102,153,102)" stroke-width="0" opacity="1" d="M 158.5 54 L 159 55.5 L 154.5 62 L 156 59.5 L 158.5 54 Z " /><path fill="rgb(102,153,102)" stroke="rgb(102,153,102)" stroke-width="0" opacity="1" d="M 330.5 54 L 335 61.5 L 332 59.5 L 330.5 54 Z " /><path fill="rgb(102,153,102)" stroke="rgb(102,153,102)" stroke-width="0" opacity="1" d="M 150.5 69 L 151 70.5 L 145.5 79 L 146 77.5 L 150.5 69 Z " /><path fill="rgb(102,153,102)" stroke="rgb(102,153,102)" stroke-width="0" opacity="1" d="M 338.5 69 L 344 78.5 L 342 77.5 L 338.5 69 Z " /><path fill="rgb(102,153,102)" stroke="rgb(102,153,102)" stroke-width="0" opacity="1" d="M 140.5 96 L 141 102.5 L 146 111 L 152 115.5 L 163 129.5 L 159 126.5 L 155.5 121 L 152 118.5 L 149 113 L 142 107.5 Q 138.5 103.6 140.5 96 Z " /><path fill="rgb(102,153,102)" stroke="rgb(102,153,102)" stroke-width="0" opacity="1" d="M 348.5 96 L 349 103.5 L 341.5 113 L 339 114.5 L 334.5 121 L 331 123.5 L 326.5 130 L 329 126.5 L 330 123.5 L 347 104.5 L 348.5 96 Z " /><path fill="rgb(102,153,102)" stroke="rgb(102,153,102)" stroke-width="0" opacity="1" d="M 268.5 97 L 274 97.5 Q 264.3 97.8 259.5 103 L 259 101.5 L 268.5 97 Z " /><path fill="rgb(102,153,102)" stroke="rgb(102,153,102)" stroke-width="0" opacity="1" d="M 325.5 99 L 327 102.5 L 326 102.5 L 325.5 99 Z " /><path fill="rgb(102,153,102)" stroke="rgb(102,153,102)" stroke-width="0" opacity="1" d="M 311.5 100 L 315 100.5 L 308.5 103 L 309.5 101 L 311.5 100 Z " /><path fill="rgb(102,153,102)" stroke="rgb(102,153,102)" stroke-width="0" opacity="1" d="M 166.5 102 L 169 102.5 L 166 103 L 165.5 106 L 165 103.5 L 166.5 102 Z " /><path fill="rgb(102,153,102)" stroke="rgb(102,153,102)" stroke-width="0" opacity="1" d="M 237.5 109 L 238 114.5 L 237 115.5 L 236.5 139 L 236 114.5 L 237.5 109 Z " /><path fill="rgb(102,153,102)" stroke="rgb(102,153,102)" stroke-width="0" opacity="1" d="M 251.5 109 L 253 113.5 L 253 138.5 L 252 138.5 L 252 115.5 L 251.5 109 Z " /><path fill="rgb(102,153,102)" stroke="rgb(102,153,102)" stroke-width="0" opacity="1" d="M 193.5 118 Q 198.3 120.1 199 126.5 L 198 126.5 L 193.5 118 Z " /><path fill="rgb(102,153,102)" stroke="rgb(102,153,102)" stroke-width="0" opacity="1" d="M 295.5 118 L 293 121.5 L 290.5 127 L 290 125.5 L 295.5 118 Z " /><path fill="rgb(102,153,102)" stroke="rgb(102,153,102)" stroke-width="0" opacity="1" d="M 164.5 130 L 167 133.5 L 166 133.5 L 164.5 130 Z " /><path fill="rgb(102,153,102)" stroke="rgb(102,153,102)" stroke-width="0" opacity="1" d="M 324.5 130 L 323 132.5 L 322.5 134 L 322 132.5 L 324.5 130 Z " /><path fill="rgb(102,153,102)" stroke="rgb(102,153,102)" stroke-width="0" opacity="1" d="M 188.5 134 L 192 136.5 L 189.5 135 L 188.5 134 Z " /><path fill="rgb(102,153,102)" stroke="rgb(102,153,102)" stroke-width="0" opacity="1" d="M 299.5 134 L 301 134.5 L 297.5 137 L 299.5 134 Z " /><path fill="rgb(102,153,102)" stroke="rgb(102,153,102)" stroke-width="0" opacity="1" d="M 168.5 136 L 174 140.5 L 178.5 147 L 181 148.5 L 182 150.5 L 177.5 147 L 176 145.5 L 171.5 139 L 168.5 136 Z " /><path fill="rgb(102,153,102)" stroke="rgb(102,153,102)" stroke-width="0" opacity="1" d="M 320.5 136 L 318.5 139 L 316 140.5 L 313 147 L 307.5 151 L 308 149.5 L 309.5 147 L 314 143.5 L 317.5 138 L 320.5 136 Z " /><path fill="rgb(102,153,102)" stroke="rgb(102,153,102)" stroke-width="0" opacity="1" d="M 237.5 146 L 238 154.5 L 237 154.5 L 237.5 146 Z " /><path fill="rgb(102,153,102)" stroke="rgb(102,153,102)" stroke-width="0" opacity="1" d="M 251.5 146 L 252 154.5 L 251 154.5 L 251.5 146 Z " /><path fill="rgb(102,153,102)" stroke="rgb(102,153,102)" stroke-width="0" opacity="1" d="M 232.5 152 L 235.5 156 Q 238.5 155.1 237 159.5 L 235 158.5 L 232.5 152 Z " /><path fill="rgb(102,153,102)" stroke="rgb(102,153,102)" stroke-width="0" opacity="1" d="M 256.5 152 L 256 153.5 L 252.5 160 L 252 156 L 255 154.5 L 256.5 152 Z " /><path fill="rgb(102,153,102)" stroke="rgb(102,153,102)" stroke-width="0" opacity="1" d="M 281.5 182 L 277.5 187 L 275 188.5 L 274.5 190 L 274 188.5 L 281.5 182 Z " /><path fill="rgb(102,153,102)" stroke="rgb(102,153,102)" stroke-width="0" opacity="1" d="M 268.5 197 Q 268.5 204.5 273 207.5 L 268 203.5 L 268.5 197 Z " /><path fill="rgb(102,153,102)" stroke="rgb(102,153,102)" stroke-width="0" opacity="1" d="M 242.5 210 L 246 210.5 L 241 212.5 L 234.5 223 L 234 220.5 L 242.5 210 Z " /><path fill="rgb(102,153,102)" stroke="rgb(102,153,102)" stroke-width="0" opacity="1" d="M 274.5 211 L 279 216.5 L 277.5 216 L 275 214.5 L 274.5 211 Z " /><path fill="rgb(102,153,102)" stroke="rgb(102,153,102)" stroke-width="0" opacity="1" d="M 256.5 227 L 262 232.5 L 266 242 L 269 243.5 L 270 245.5 L 268 244.5 L 266.5 243 L 256.5 227 Z " /><path fill="rgb(102,153,102)" stroke="rgb(102,153,102)" stroke-width="0" opacity="1" d="M 198.5 235 L 199 237.5 L 194 241.5 L 198.5 235 Z " /><path fill="rgb(102,153,102)" stroke="rgb(102,153,102)" stroke-width="0" opacity="1" d="M 291.5 238 L 296 243.5 L 291 239.5 L 291.5 238 Z " /><path fill="rgb(102,153,102)" stroke="rgb(102,153,102)" stroke-width="0" opacity="1" d="M 297.5 246 L 305 257.5 L 299 252.5 L 297.5 246 Z " /><path fill="rgb(102,153,102)" stroke="rgb(102,153,102)" stroke-width="0" opacity="1" d="M 182.5 261 L 183 262.5 L 177.5 269 L 180 265.5 L 182.5 261 Z " /><path fill="rgb(102,153,102)" stroke="rgb(102,153,102)" stroke-width="0" opacity="1" d="M 306.5 262 L 311 267.5 L 307 264.5 L 306.5 262 Z " /><path fill="rgb(102,153,102)" stroke="rgb(102,153,102)" stroke-width="0" opacity="1" d="M 281.5 266 L 287 274.5 L 286 274.5 L 281.5 266 Z " /><path fill="rgb(102,153,102)" stroke="rgb(102,153,102)" stroke-width="0" opacity="1" d="M 206.5 267 L 205 269.5 L 203.5 272 L 204 270.5 L 206.5 267 Z " /><path fill="rgb(102,153,102)" stroke="rgb(102,153,102)" stroke-width="0" opacity="1" d="M 173.5 276 L 174 277.5 L 169 281.5 L 173.5 276 Z " /><path fill="rgb(102,153,102)" stroke="rgb(102,153,102)" stroke-width="0" opacity="1" d="M 288.5 278 L 294 282.5 L 296 289.5 L 295 289.5 Q 293.6 281.2 288.5 278 Z " /><path fill="rgb(102,153,102)" stroke="rgb(102,153,102)" stroke-width="0" opacity="1" d="M 198.5 280 L 196 283.5 L 193.5 289 L 193 287.5 L 196.5 281 L 198.5 280 Z " /><path fill="rgb(102,153,102)" stroke="rgb(102,153,102)" stroke-width="0" opacity="1" d="M 322.5 287 L 337 308.5 L 330 302.5 Q 329.5 294 323 291.5 L 322.5 287 Z " /><path fill="rgb(102,153,102)" stroke="rgb(102,153,102)" stroke-width="0" opacity="1" d="M 192.5 290 L 191 292.5 L 183.5 305 L 180 307.5 L 179.5 309 L 179 307.5 L 180 305 L 184 302.5 Q 186.5 294.5 192.5 290 Z " /><path fill="rgb(102,153,102)" stroke="rgb(102,153,102)" stroke-width="0" opacity="1" d="M 157.5 301 L 158 302.5 L 154 305.5 L 157.5 301 Z " /><path fill="rgb(102,153,102)" stroke="rgb(102,153,102)" stroke-width="0" opacity="1" d="M 309.5 308 L 310 311.5 L 309 314 L 302.5 315 L 302.5 314 Q 307.6 314.6 309 311.5 L 309.5 308 Z " /><path fill="rgb(102,153,102)" stroke="rgb(102,153,102)" stroke-width="0" opacity="1" d="M 179.5 311 L 181.5 314 L 187.5 313 L 297 313 L 296.5 315 Q 294.8 312.2 288.5 314 Q 286.7 316.8 280.5 315 L 279.5 314 L 209.5 314 L 202.5 315 L 201.5 314 L 187.5 314 L 181.5 315 Q 177.9 313.9 179.5 311 Z " /><path fill="rgb(102,153,102)" stroke="rgb(102,153,102)" stroke-width="0" opacity="1" d="M 149.5 314 L 150 315.5 L 144.5 320 L 149.5 314 Z " /><path fill="rgb(102,153,102)" stroke="rgb(102,153,102)" stroke-width="0" opacity="1" d="M 142.5 325 L 143 331.5 L 142 331.5 L 142.5 325 Z " /><path fill="rgb(102,153,102)" stroke="rgb(102,153,102)" stroke-width="0" opacity="1" d="M 143.5 333 L 146 336.5 L 143 334.5 L 143.5 333 Z " /><path fill="rgb(153,102,153)" stroke="rgb(153,102,153)" stroke-width="0" opacity="1" d="M 234.5 7 L 254.5 7 L 259 8.5 L 230.5 9 L 230.5 8 L 234.5 7 Z " /><path fill="rgb(153,102,153)" stroke="rgb(153,102,153)" stroke-width="0" opacity="1" d="M 223.5 8 L 229 8.5 L 220.5 10 L 212.5 16 Q 203.9 15.1 200 18 L 197.5 22 L 186 27.5 L 182.5 32 L 176 36.5 L 172.5 41 L 169 43.5 Q 167.3 50.8 161 53.5 L 159 60.5 L 153 66.5 L 151 75.5 Q 145 81.5 143 91.5 L 143 102.5 L 159 120.5 L 163.5 128 L 168 131.5 L 170.5 136 L 175 139.5 L 179.5 146 L 183 148.5 L 184 152.5 L 211.5 184 L 215 186.5 L 219.5 194 L 222 195.5 L 223 199.5 L 215 214.5 L 210 219.5 L 207 227.5 L 201 233.5 Q 200.6 240.1 196.5 243 L 194 244.5 Q 192.4 253.4 186 257.5 L 183 266.5 L 177 272.5 L 174 280.5 L 161 297.5 L 158 306.5 Q 151.8 310.8 149.5 319 L 145 322.5 L 144 326.5 L 147.5 335 L 150.5 336 L 338.5 336 L 343 333.5 L 344 323.5 L 341.5 320 L 338 317.5 Q 337.1 310 331 307.5 L 328 299.5 L 322 293.5 L 319 283.5 L 314 278.5 L 301.5 257 L 298 254.5 L 295 246.5 L 289 238.5 L 288 233.5 L 282 227.5 L 280 221.5 L 266 204.5 L 266 197.5 L 267 195 L 272 191.5 Q 272.5 186 276.5 184 L 281 180.5 L 305 152.5 L 308.5 146 L 313 142.5 L 317.5 136 L 320 134.5 L 324.5 128 L 327 126.5 L 330 120.5 L 345 104.5 L 346 93.5 L 343 82.5 L 338 75.5 L 336 66.5 L 330 60.5 L 328 53.5 L 317.5 41 L 313 37.5 L 309.5 33 L 303 28.5 L 301.5 26 L 291.5 22 L 289 19.5 L 287.5 18 Q 284.2 14.8 276.5 16 L 268.5 10 L 260 8.5 L 265.5 8 L 270.5 9 L 276.5 14 L 286.5 15 L 305 27.5 L 306.5 30 L 313 33.5 L 316.5 39 L 321 41.5 L 324.5 48 L 329 51.5 L 332 59.5 L 337 64.5 L 338 70.5 L 345 81.5 L 348 94.5 L 348 102.5 L 325.5 130 L 322 132.5 Q 322.5 137.5 318.5 138 L 315 140.5 L 310.5 147 L 308 148.5 L 302.5 158 L 300 159.5 L 292.5 169 L 291 170.5 L 278.5 185 L 274 188.5 Q 273.2 195.2 268 197.5 L 268 203.5 L 273 208.5 L 276.5 216 L 281 219.5 Q 282.7 226.8 288 230.5 L 291 239.5 L 297 245.5 L 299 252.5 L 305 258.5 Q 306.5 267 313 270.5 L 315 277.5 L 322 285.5 L 323 291.5 Q 329.5 294 330 302.5 L 337 309.5 L 340 318 L 345 321.5 L 346 332.5 L 342.5 337 L 339.5 338 L 150.5 338 L 144 334.5 L 143 322.5 L 145.5 319 L 150 315.5 Q 151.6 306.6 158 302.5 L 160 295.5 L 174 277.5 L 176 270.5 L 182 264.5 L 186.5 254 L 189 252.5 L 193 242 L 199 237.5 L 200 231.5 L 214 212.5 L 221 197.5 L 212.5 186 L 208 184 Q 207.4 178.6 202.5 176 L 201 174.5 L 198 169 L 192 164.5 L 187.5 158 L 185 156.5 L 179.5 147 L 175 143.5 L 171.5 138 L 167 134.5 L 164.5 130 L 160 126.5 L 159 123.5 L 147.5 111 L 146 109.5 Q 138.9 105.6 141 92.5 Q 143.2 78.7 151 70.5 L 152 64.5 L 157 59.5 Q 158.2 51.7 163.5 48 L 166 46.5 L 169.5 40 L 175 36.5 L 177.5 32 L 184 28.5 L 187.5 24 Q 197.3 21.8 202.5 15 L 212.5 14 L 218.5 9 L 223.5 8 Z " /><path fill="rgb(153,102,153)" stroke="rgb(153,102,153)" stroke-width="0" opacity="1" d="M 269.5 95 Q 277 95 280 99.5 L 281 107.5 Q 278.8 117.3 272 122.5 L 270 132.5 L 264.5 139 L 264 136.5 Q 271.1 129.6 273 117.5 L 279 109.5 L 279 100.5 Q 276.5 96 268.5 97 L 259 101.5 L 256.5 105 L 252 107 L 251 114.5 L 252 115.5 L 252 145.5 L 251 146.5 L 251 154.5 L 252.5 160 L 261 147.5 L 263.5 140 L 264 142.5 L 252.5 166 L 250 162.5 L 250 108.5 L 252.5 105 L 256 104 L 258 99 L 269.5 95 Z " /><path fill="rgb(153,102,153)" stroke="rgb(153,102,153)" stroke-width="0" opacity="1" d="M 211.5 97 L 224.5 98 Q 229.8 104 238 106 L 239 108.5 L 239 162.5 L 236.5 166 L 227 148.5 L 225 140.5 L 226 140.5 L 228 147.5 L 236.5 160 Q 238.9 154.9 238 146.5 L 237 145.5 L 237 115.5 L 238 109.5 L 237 107 L 221.5 99 L 213.5 98 L 209 100.5 L 210 109.5 L 215 116.5 L 225 138.5 L 224 138.5 L 219 132.5 L 217 122.5 L 211 115.5 L 206 100.5 L 211.5 97 Z " /><path fill="rgb(153,102,153)" stroke="rgb(153,102,153)" stroke-width="0" opacity="1" d="M 321.5 97 Q 327.1 96.9 329 100.5 L 323.5 110 L 320 112.5 L 318 118 L 312 121.5 L 307.5 128 L 304 130.5 L 300.5 137 L 297 139.5 L 276.5 166 L 272 168.5 L 268.5 175 L 266 175 L 266 168.5 L 272.5 159 L 273 164 Q 278.5 164.8 280 159.5 L 291.5 144 L 295 141.5 L 299.5 135 L 301 133.5 L 306.5 126 L 310 123.5 L 310 121.5 L 314.5 117 L 317 115.5 L 318 112.5 L 326 104.5 L 327 100.5 Q 325.3 97.3 318.5 99 L 311.5 100 L 299 108.5 L 297 116.5 L 291 122.5 L 290 129.5 L 283 138.5 L 280 148.5 Q 274.8 151.3 273.5 158 L 273 155.5 L 279 146.5 L 282 137.5 Q 288.5 130.5 291 119.5 L 295 115.5 L 299 105 Q 305.3 104 308.5 99 L 321.5 97 Z " /><path fill="rgb(153,102,153)" stroke="rgb(153,102,153)" stroke-width="0" opacity="1" d="M 164.5 99 L 176.5 100 L 178.5 100 L 181.5 100 L 191 107.5 L 224 172.5 L 223 175 Q 219.2 175.8 218 172.5 L 215.5 167 L 210 163.5 L 189.5 137 L 187 135.5 L 182.5 128 L 178 124.5 L 174.5 119 L 171 118 L 167.5 111 L 163 107.5 L 162 102.5 L 164.5 99 Z M 167 102 L 165 104 L 166 108 L 172 116 L 175 117 L 179 122 L 179 124 L 183 126 L 188 134 L 190 135 L 194 142 L 198 144 L 201 150 L 206 153 L 210 161 Q 211 165 216 164 L 215 156 Q 208 150 206 139 L 201 134 L 198 123 Q 191 119 190 109 L 188 106 L 180 103 L 167 102 Z M 220 167 L 220 172 L 221 172 L 220 167 Z " /><path fill="rgb(153,102,153)" stroke="rgb(153,102,153)" stroke-width="0" opacity="1" d="M 242.5 208 Q 248.3 207.3 249 211.5 L 252.5 217 L 255 218.5 Q 257.2 226.3 263 230.5 L 267 240 Q 269.7 238.9 269 241.5 L 271 243.5 L 273 251.5 Q 280.1 256.2 282 265 L 286 267.5 L 290 278 L 296 282.5 L 298 289.5 Q 304.4 294.9 306 304 L 311 307.5 L 312 309.5 L 311 314.5 L 308.5 317 L 306.5 318 L 190.5 318 L 187.5 317 L 181.5 318 L 179 317 Q 176.3 314.4 177 307.5 L 192 287.5 L 196.5 279 L 200 276.5 L 203 267.5 L 207 263.5 Q 208.2 255.2 213.5 251 L 216 249.5 L 218 243.5 L 223 238.5 L 226 230.5 Q 232.2 226.2 234 217.5 L 242.5 208 Z M 243 210 L 234 221 L 233 226 Q 226 231 224 241 L 222 242 L 217 252 L 211 258 L 209 265 L 204 270 L 201 278 L 197 281 L 193 290 Q 187 294 184 303 L 180 305 L 179 308 Q 178 314 182 315 L 188 314 L 202 314 L 203 315 L 210 314 L 280 314 L 281 315 L 296 314 L 298 314 L 303 315 L 309 314 L 310 309 L 306 305 L 302 298 L 297 293 L 294 283 L 292 281 L 288 278 L 285 270 Q 279 266 277 258 L 272 253 L 269 244 L 266 242 L 262 233 L 256 227 L 254 221 L 248 213 Q 247 209 243 210 Z " /><path fill="rgb(232,232,232)" stroke="rgb(232,232,232)" stroke-width="0" opacity="1" d="M 229.5 8 L 230.5 9 L 258.5 9 L 260.5 9 L 268.5 10 L 276.5 16 Q 285.1 15.1 289 18 L 291.5 22 L 303 27.5 L 306.5 32 L 313 36.5 L 316.5 41 L 320 43.5 Q 321.8 50.8 328 53.5 L 330 60.5 L 336 66.5 L 338 75.5 L 343 82.5 L 345 88.5 L 346 102.5 L 330 120.5 L 325.5 128 L 321 131.5 L 318.5 136 L 314 139.5 L 309.5 146 L 306 148.5 L 305 152.5 L 277.5 184 L 273 187.5 Q 272.6 193.1 268.5 195 L 267 196.5 Q 264.3 198.3 266 204.5 L 272 210.5 Q 274 218 280 221.5 L 282 227.5 L 288 233.5 L 291 242.5 L 295 246.5 Q 295.9 253.6 300.5 257 L 303 258.5 L 314 278.5 L 319 283.5 L 322 293.5 L 328 299.5 L 331 307.5 L 337 313.5 L 340.5 320 L 343 321.5 L 344 331.5 L 341.5 335 L 338.5 336 L 150.5 336 L 146 333.5 L 144 326.5 Q 144.5 321 148.5 319 L 151 317.5 Q 152.3 309.8 158 306.5 L 161 297.5 L 174 280.5 L 177 272.5 L 183 266.5 L 186 257.5 L 191 252.5 L 195.5 243 L 199 240.5 L 201 233.5 L 207 227.5 Q 208.6 218.6 215 214.5 L 222 202.5 L 223 197.5 L 220.5 194 L 217 191.5 L 212.5 184 L 208 180.5 L 184 152.5 L 180.5 146 L 176 142.5 L 171.5 136 L 169 134.5 L 164.5 128 L 162 126.5 L 159 120.5 L 144 104.5 Q 141.2 100.3 143 91.5 Q 145 81.5 151 75.5 L 153 66.5 L 159 60.5 L 161 53.5 L 171.5 41 L 176 37.5 L 179.5 33 L 186 28.5 L 187.5 26 L 197.5 22 L 200 19.5 L 201.5 18 Q 204.8 14.8 212.5 16 L 220.5 10 L 229.5 8 Z M 270 95 L 258 99 L 256 104 L 253 105 L 250 109 L 250 163 L 253 166 L 262 149 L 265 138 L 270 133 L 272 123 Q 279 117 281 108 L 280 100 Q 277 95 270 95 Z M 212 97 L 206 101 L 210 114 L 216 121 L 219 133 L 224 138 L 227 149 L 237 166 L 239 163 L 239 109 L 238 106 Q 230 104 225 98 L 212 97 Z M 322 97 L 309 99 Q 305 104 299 105 L 295 116 L 291 120 Q 289 131 282 138 L 279 147 L 273 156 L 272 161 L 266 169 L 266 175 L 269 175 L 272 169 L 277 166 L 297 140 L 301 137 L 304 131 L 308 128 L 312 122 L 318 118 L 320 113 L 324 110 L 329 101 Q 327 97 322 97 Z M 165 99 L 162 103 L 163 108 L 168 111 L 171 118 L 175 119 L 178 125 L 183 128 L 187 136 L 190 137 L 210 164 L 216 167 L 218 173 Q 219 176 223 175 L 224 173 L 191 108 L 182 100 L 179 100 L 177 100 L 165 99 Z M 243 208 L 234 218 Q 232 226 226 231 L 223 239 L 218 244 L 216 250 L 214 251 Q 208 255 207 264 L 203 268 L 200 277 L 197 279 L 192 288 L 177 308 Q 176 314 179 317 L 182 318 L 188 317 L 191 318 L 307 318 L 309 317 L 311 315 L 312 310 L 311 308 L 306 304 Q 304 295 298 290 L 296 283 L 290 278 L 286 268 L 282 265 Q 280 256 273 252 L 271 244 L 269 242 Q 270 239 267 240 L 263 231 Q 257 226 255 219 L 253 217 L 249 212 Q 248 207 243 208 Z " /></svg>