<svg width="2048" height="2048" viewBox="0 0 512 512" version="1.1" xmlns="http://www.w3.org/2000/svg"  style="background:transparent"><path fill="rgb(153,102,102)" stroke="rgb(153,102,102)" stroke-width="0" opacity="1" d="M 276.5 35 L 282 35.5 L 281.5 37 L 284.5 38 L 286.5 38 L 291.5 40 L 305.5 41 L 312.5 40 L 323.5 44 L 326.5 47 L 340.5 50 L 356.5 59 L 361.5 60 L 378.5 71 L 393 84.5 L 397.5 90 L 424 114.5 L 449 144.5 L 454 154.5 L 454 159.5 L 456 163 L 459 164.5 L 463 172.5 L 466 188 Q 468.7 186.9 468 189.5 L 471 194.5 L 474 205.5 L 473 209.5 L 476 225 Q 479 223.8 478 227.5 L 476 236.5 L 476 266.5 L 478 280 Q 475 278.8 476 282.5 L 474 285.5 L 472 295.5 L 472 297.5 Q 470.2 306.3 474 309.5 L 471 320.5 L 467.5 325 L 465 326.5 L 463 340.5 L 458 351 L 455 352.5 L 454 358.5 Q 451.6 367.1 445.5 372 Q 442.9 371.2 444 374.5 L 429.5 392 L 421 399.5 L 419.5 402 L 412 408.5 L 409.5 412 L 402 418.5 L 400.5 420 L 387.5 434 L 368.5 449 L 340.5 463 L 324 466 L 322.5 469 L 305.5 474 L 303.5 474 Q 298.2 473.2 296.5 476 L 294.5 476 L 285.5 478 L 276.5 476 L 246.5 476 L 235 478 Q 236.3 474.7 231.5 476 L 227.5 474 L 225.5 474 L 222.5 473 L 220.5 473 L 214.5 474 L 204.5 471 L 194.5 465 L 182.5 463 L 154.5 449 L 131 429.5 L 125.5 423 L 108 407.5 L 105.5 404 L 100 399.5 L 74 368.5 L 69 358.5 L 68 352.5 Q 62.3 348.2 60 340.5 L 57 325 Q 54.3 326.1 55 323.5 Q 50.4 318.1 50 308.5 L 51 307.5 L 51 294.5 L 47 280 Q 43.7 281.3 45 276.5 Q 48.7 264.2 47 246.5 L 45 231 L 48.5 229 L 49 226.5 L 51 217.5 L 51 215.5 L 52 204.5 L 49 203.5 L 53.5 191 L 58 189.5 L 57 187.5 L 59 187 L 58 184.5 L 60 176.5 L 60 174.5 L 63 165.5 L 69 157.5 L 69 155.5 L 74 144.5 Q 79.3 141.3 81 134.5 L 94.5 120 L 99 116.5 L 101 112.5 L 122.5 90 L 130 84.5 L 132.5 81 L 140 75.5 L 141.5 74 L 154.5 64 L 182.5 50 L 199 47 Q 197.3 42.9 201.5 44 L 214.5 39 Q 216.2 41.8 221.5 41 L 234 39 Q 232.7 35.3 238.5 37 L 239.5 36 L 248.5 36 L 249.5 37 L 263.5 37 L 276.5 35 Z M 238 108 L 224 112 Q 219 117 211 119 L 193 136 Q 194 138 191 137 L 185 149 L 181 151 Q 178 164 170 173 L 169 178 L 169 195 L 170 198 L 176 202 L 181 210 L 185 212 L 190 220 L 196 224 L 200 232 L 204 234 L 210 242 L 211 246 L 207 248 Q 193 246 186 251 L 178 261 Q 180 267 177 269 L 177 375 L 179 387 Q 183 393 192 395 L 332 395 L 342 390 L 345 385 L 346 380 L 346 331 L 345 330 L 345 322 L 346 321 L 346 304 L 345 303 L 345 295 L 346 294 L 346 269 Q 343 267 345 261 L 343 257 L 334 249 L 317 248 L 312 246 Q 312 240 316 239 L 318 237 L 324 231 L 324 229 L 331 223 L 335 216 L 340 212 L 344 206 L 349 202 L 353 198 L 355 188 L 353 174 L 341 150 L 339 148 L 334 140 L 318 124 L 316 123 L 300 112 L 288 108 L 238 108 Z " /><path fill="rgb(153,102,102)" stroke="rgb(153,102,102)" stroke-width="0" opacity="1" d="M 280.5 193 Q 285.3 192.3 286 195.5 L 276.5 214 Q 272.3 208.7 274 197.5 L 280.5 193 Z " /><path fill="rgb(153,102,102)" stroke="rgb(153,102,102)" stroke-width="0" opacity="1" d="M 320.5 194 L 324 196.5 Q 320.5 203.8 313 205 Q 312.3 199 315 196 L 320.5 194 Z " /><path fill="rgb(153,102,102)" stroke="rgb(153,102,102)" stroke-width="0" opacity="1" d="M 242.5 195 L 248 197.5 L 249 201.5 Q 246.2 203.3 248 209.5 L 246.5 211 Q 243.9 211.8 245 208.5 L 239 197.5 L 242.5 195 Z " /><path fill="rgb(153,102,102)" stroke="rgb(153,102,102)" stroke-width="0" opacity="1" d="M 203.5 196 L 207 197 Q 208.9 201.8 205.5 201 L 202 197.5 L 203.5 196 Z " /><path fill="rgb(153,102,102)" stroke="rgb(153,102,102)" stroke-width="0" opacity="1" d="M 266.5 313 L 269 314 L 268 320.5 L 257.5 332 L 243 341 Q 241.9 347.6 236.5 351 L 233.5 352 L 232 347.5 L 234 344 L 243 338.5 L 257.5 318 L 266.5 313 Z " /><path fill="rgb(153,102,102)" stroke="rgb(153,102,102)" stroke-width="0" opacity="1" d="M 277 342 Q 284.3 342.6 288 347.5 L 289 354 L 284 353 L 282 349.5 Q 277.6 347.1 277 342 Z " /><path fill="rgb(153,153,102)" stroke="rgb(153,153,102)" stroke-width="0" opacity="1" d="M 285.5 34 L 295.5 35 L 309 39.5 Q 305.6 42.1 298.5 41 L 291.5 40 L 285.5 37 L 283.5 37 L 281 36.5 L 285.5 34 Z " /><path fill="rgb(153,153,102)" stroke="rgb(153,153,102)" stroke-width="0" opacity="1" d="M 235.5 35 L 239 36.5 L 234 37 Q 235.3 40.7 229.5 39 L 217.5 41 L 215 39.5 L 235.5 35 Z " /><path fill="rgb(153,153,102)" stroke="rgb(153,153,102)" stroke-width="0" opacity="1" d="M 237.5 108 L 287.5 108 L 299.5 112 L 316 122.5 L 317.5 124 L 334 139.5 L 338.5 148 L 341 149.5 L 353 173.5 L 355 187.5 L 353 197.5 L 348.5 202 L 344 205.5 L 339.5 212 L 335 215.5 L 330.5 223 L 324 228.5 L 324 230.5 L 317.5 237 L 316 238.5 Q 312.4 240.3 312 245.5 L 316.5 248 L 333.5 249 L 343 256.5 L 345 260.5 Q 343.2 266.8 346 268.5 L 346 293.5 L 345 294.5 L 345 302.5 L 346 303.5 L 346 320.5 L 345 321.5 L 345 329.5 L 346 330.5 L 346 379.5 L 345 384.5 L 341.5 390 L 331.5 395 L 191.5 395 Q 183.2 392.9 179 386.5 L 177 374.5 L 177 268.5 Q 179.8 266.8 178 260.5 L 185.5 251 Q 192.7 246.2 206.5 248 L 211 245.5 L 210 241.5 L 203.5 234 L 200 231.5 L 196 224 L 190 219.5 L 184.5 212 L 181 209.5 L 175.5 202 L 170 197.5 L 169 194.5 L 169 177.5 L 170 172.5 Q 177.7 163.5 181 151 L 184.5 149 L 191 137 Q 193.7 138.1 193 135.5 L 210.5 119 Q 218.7 117.2 223.5 112 L 237.5 108 Z M 247 111 L 232 115 Q 216 122 205 132 L 193 145 L 191 150 L 183 160 L 173 182 L 173 190 L 179 198 L 188 205 L 191 211 L 204 225 L 209 228 L 214 237 L 222 241 Q 223 247 220 249 L 214 251 Q 200 249 193 253 L 183 263 L 181 270 L 181 375 L 184 383 L 193 391 L 196 392 L 328 392 L 331 391 Q 339 386 342 375 L 342 270 L 340 263 L 329 252 L 310 251 L 304 249 Q 300 248 301 243 L 307 239 Q 311 237 311 232 L 316 228 L 322 221 L 326 217 L 335 207 L 337 205 L 350 190 L 349 180 L 338 156 L 322 136 L 307 123 L 285 112 L 279 111 L 247 111 Z " /><path fill="rgb(153,153,102)" stroke="rgb(153,153,102)" stroke-width="0" opacity="1" d="M 454.5 157 L 458 162.5 L 456 163 L 454 159.5 L 454.5 157 Z " /><path fill="rgb(153,153,102)" stroke="rgb(153,153,102)" stroke-width="0" opacity="1" d="M 67.5 159 L 68 160.5 L 65 162.5 L 67.5 159 Z " /><path fill="rgb(153,153,102)" stroke="rgb(153,153,102)" stroke-width="0" opacity="1" d="M 59.5 176 L 60 178.5 L 58 184.5 L 59 187 L 57 187.5 L 58 189.5 L 53.5 191 L 54 189.5 L 59.5 176 Z " /><path fill="rgb(153,153,102)" stroke="rgb(153,153,102)" stroke-width="0" opacity="1" d="M 282.5 184 Q 289.5 182.5 291 186.5 Q 294.1 190.9 293 199.5 Q 291.1 210.1 284 215.5 L 281 229.5 L 278.5 233 L 274.5 234 L 271.5 233 Q 265.3 232.2 262.5 228 L 260.5 228 L 257.5 231 L 255.5 233 L 246.5 234 L 243 231.5 L 239 214.5 Q 231.5 208 230 195.5 L 233.5 187 L 238.5 186 L 254 194 L 258 201.5 L 258 205 Q 261 204 260 207 L 263 207 Q 265.5 194.3 275.5 188 L 282.5 184 Z M 281 193 L 274 198 Q 272 209 277 214 L 286 196 Q 285 192 281 193 Z M 243 195 L 239 198 L 245 209 Q 244 212 247 211 L 248 210 Q 246 203 249 202 L 248 198 L 243 195 Z " /><path fill="rgb(153,153,102)" stroke="rgb(153,153,102)" stroke-width="0" opacity="1" d="M 324.5 187 L 330 188 L 332 197.5 L 328.5 202 L 324 203 L 318.5 213 L 314 215.5 L 309.5 224 L 304 227.5 L 297.5 237 L 293.5 238 L 292 237.5 Q 292 244 288.5 247 L 284 245.5 Q 282.8 239.3 286.5 238 L 289.5 237 L 291 237.5 L 293 219.5 L 298 213.5 L 301 203.5 L 306.5 196 Q 313.5 189.5 324.5 187 Z M 321 194 L 315 196 Q 312 199 313 205 Q 321 204 324 197 L 321 194 Z " /><path fill="rgb(153,153,102)" stroke="rgb(153,153,102)" stroke-width="0" opacity="1" d="M 195.5 190 L 208.5 191 L 220 200.5 L 223 210.5 L 230 220.5 L 231 231.5 L 234.5 238 L 239 240.5 Q 240.3 245.8 237.5 247 Q 232.8 247.8 232 244.5 Q 232.6 239.4 229.5 238 Q 224.4 238.6 223 235.5 L 216.5 225 L 211 221.5 L 206.5 213 L 202 209.5 L 198.5 203 L 192 199.5 Q 190.5 191.5 195.5 190 Z M 204 196 L 202 198 L 206 201 Q 209 202 207 197 L 204 196 Z " /><path fill="rgb(153,153,102)" stroke="rgb(153,153,102)" stroke-width="0" opacity="1" d="M 49.5 204 L 52 204.5 Q 53 212.5 50 216.5 L 50 218.5 Q 50.8 224.8 48 227.5 L 48.5 229 L 45 231 L 44 224.5 L 49.5 204 Z " /><path fill="rgb(153,153,102)" stroke="rgb(153,153,102)" stroke-width="0" opacity="1" d="M 473.5 206 L 477 218.5 L 477 224.5 L 476 224.5 L 473.5 206 Z " /><path fill="rgb(153,153,102)" stroke="rgb(153,153,102)" stroke-width="0" opacity="1" d="M 215.5 274 Q 221.3 273.3 222 277.5 L 223.5 280 L 230 284.5 L 231 288.5 L 230 291 L 224.5 292 L 217 285.5 L 215 282.5 L 213 276.5 L 215.5 274 Z " /><path fill="rgb(153,153,102)" stroke="rgb(153,153,102)" stroke-width="0" opacity="1" d="M 302.5 275 Q 307 274 308 276.5 L 306 282 Q 303.3 280.9 304 283.5 L 299.5 291 L 293.5 292 L 290 289.5 Q 289.9 281.4 295.5 279 L 302.5 275 Z " /><path fill="rgb(153,153,102)" stroke="rgb(153,153,102)" stroke-width="0" opacity="1" d="M 45 280 Q 48 278.8 47 282.5 Q 52.6 291.4 51 307.5 L 49 308.5 L 45 295.5 L 44 285.5 L 45 280 Z " /><path fill="rgb(153,153,102)" stroke="rgb(153,153,102)" stroke-width="0" opacity="1" d="M 476 280 Q 479.7 278.6 478 284.5 L 479 288.5 L 473.5 309 Q 470.3 305.7 472 297.5 L 473 294.5 L 473 289.5 L 476 280 Z " /><path fill="rgb(153,153,102)" stroke="rgb(153,153,102)" stroke-width="0" opacity="1" d="M 274.5 301 Q 280 300 281 303.5 L 281 309.5 L 271 325.5 L 270 332 L 263 334 L 258.5 340 Q 251.3 340.9 249 346.5 L 245.5 351 L 241 354.5 L 236.5 360 Q 226.4 363.4 219.5 370 L 215.5 370 L 213 364.5 Q 220.3 357.3 224 346.5 L 236.5 334 L 241 330.5 Q 243 323 249 319.5 L 250 313 Q 243.1 312.7 239 308.5 L 238 305.5 L 239 303 L 247.5 302 Q 252 305.3 252 312 L 256.5 312 L 265.5 305 L 274.5 301 Z M 267 313 L 258 318 L 243 339 L 234 344 L 232 348 L 234 352 L 237 351 Q 242 348 243 341 L 258 332 L 268 321 L 269 314 L 267 313 Z " /><path fill="rgb(153,153,102)" stroke="rgb(153,153,102)" stroke-width="0" opacity="1" d="M 468.5 324 L 468 325.5 L 464.5 335 L 464 331.5 L 466.5 325 L 468.5 324 Z " /><path fill="rgb(153,153,102)" stroke="rgb(153,153,102)" stroke-width="0" opacity="1" d="M 271 332 Q 278 330.8 281.5 334 L 295 346.5 L 306 363.5 L 306 368 L 300.5 369 L 284.5 362 L 280 357.5 L 277.5 354 L 271 350 L 269 344.5 L 271 332 Z M 277 342 Q 278 347 282 350 L 284 353 L 289 354 L 288 348 Q 284 343 277 342 Z " /><path fill="rgb(153,153,102)" stroke="rgb(153,153,102)" stroke-width="0" opacity="1" d="M 326.5 465 L 330 465.5 L 324.5 468 L 324 466 L 326.5 465 Z " /><path fill="rgb(153,153,102)" stroke="rgb(153,153,102)" stroke-width="0" opacity="1" d="M 216.5 473 L 221.5 474 L 223.5 474 L 226.5 475 L 228.5 474 L 235 476.5 L 228.5 477 L 216.5 474 L 216.5 473 Z " /><path fill="rgb(153,153,102)" stroke="rgb(153,153,102)" stroke-width="0" opacity="1" d="M 304.5 473 L 303.5 475 L 298.5 476 L 299.5 474 L 304.5 473 Z " /><path fill="rgb(153,153,102)" stroke="rgb(153,153,102)" stroke-width="0" opacity="1" d="M 295.5 475 L 294.5 477 L 292 476.5 L 295.5 475 Z " /><path fill="rgb(220,219,217)" stroke="rgb(220,219,217)" stroke-width="0" opacity="1" d="M 246.5 111 L 278.5 111 L 284.5 112 L 306.5 123 L 322 135.5 L 338 155.5 L 349 179.5 L 350 189.5 L 336.5 205 L 335 206.5 L 325.5 217 L 322 220.5 L 315.5 228 L 311 231.5 Q 310.6 237.1 306.5 239 L 301 242.5 Q 300.4 247.6 303.5 249 L 309.5 251 L 328.5 252 L 340 262.5 L 342 269.5 L 342 374.5 Q 339.4 385.9 330.5 391 L 327.5 392 L 195.5 392 L 192.5 391 L 184 382.5 L 181 374.5 L 181 269.5 L 183 262.5 L 192.5 253 Q 200.4 249.4 213.5 251 L 220 249 Q 222.8 246.7 222 241 L 214 236.5 L 208.5 228 L 204 224.5 L 191 210.5 L 188 205 L 179 197.5 L 173 189.5 L 173 181.5 L 183 159.5 L 191 149.5 L 193 144.5 L 204.5 132 Q 216.2 121.7 231.5 115 L 246.5 111 Z M 283 184 L 276 188 Q 266 194 263 207 L 260 207 Q 261 204 258 205 L 258 202 L 254 194 L 239 186 L 234 187 L 230 196 Q 232 208 239 215 L 243 232 L 247 234 L 256 233 L 258 231 L 261 228 L 263 228 Q 265 232 272 233 L 275 234 L 279 233 L 281 230 L 284 216 Q 291 210 293 200 Q 294 191 291 187 Q 290 183 283 184 Z M 325 187 Q 313 189 307 196 L 301 204 L 298 214 L 293 220 L 291 238 L 290 237 L 287 238 Q 283 239 284 246 L 289 247 Q 292 244 292 238 L 294 238 L 298 237 L 304 228 L 310 224 L 314 216 L 319 213 L 324 203 L 329 202 L 332 198 L 330 188 L 325 187 Z M 196 190 Q 191 192 192 200 L 199 203 L 202 210 L 207 213 L 211 222 L 217 225 L 223 236 Q 224 239 230 238 Q 233 239 232 245 Q 233 248 238 247 Q 240 246 239 241 L 235 238 L 231 232 L 230 221 L 223 211 L 220 201 L 209 191 L 196 190 Z M 216 274 L 213 277 L 215 283 L 217 286 L 225 292 L 230 291 L 231 289 L 230 285 L 224 280 L 222 278 Q 221 273 216 274 Z M 303 275 L 296 279 Q 290 281 290 290 L 294 292 L 300 291 L 304 284 Q 303 281 306 282 L 308 277 Q 307 274 303 275 Z M 275 301 L 266 305 L 257 312 L 252 312 Q 252 305 248 302 L 239 303 L 238 306 L 239 309 Q 243 313 250 313 L 249 320 Q 243 323 241 331 L 237 334 L 224 347 Q 220 357 213 365 L 216 370 L 220 370 Q 226 363 237 360 L 241 355 L 246 351 L 249 347 Q 251 341 259 340 L 263 334 L 270 332 L 271 326 L 281 310 L 281 304 Q 280 300 275 301 Z M 271 332 L 269 345 L 271 350 L 278 354 L 280 358 L 285 362 L 301 369 L 306 368 L 306 364 L 295 347 L 282 334 Q 278 331 271 332 Z " /></svg>