<svg width="2048" height="2048" viewBox="0 0 512 512" version="1.1" xmlns="http://www.w3.org/2000/svg"  style="background:transparent"><path fill="rgb(253,61,1)" stroke="rgb(253,61,1)" stroke-width="0" opacity="1" d="M 240 0 L 272.5 0 L 273 2.5 L 277.5 5 L 288.5 7 L 312.5 8 L 324.5 14 L 336.5 15 L 348.5 22 Q 357.4 21.9 362 25 L 363.5 28 L 374.5 31 L 379.5 36 L 388.5 39 L 391 41.5 L 392.5 44 L 398.5 46 Q 403.2 53.1 412 55 L 415.5 60 L 422 64.5 L 424.5 68 L 429 70.5 L 431.5 75 L 437 78.5 L 439.5 83 L 444 85.5 L 447.5 91 L 452 94.5 Q 451.5 99.5 455.5 100 L 458 101.5 L 461 108.5 L 467 114.5 Q 466.9 120.1 470.5 122 L 474 124.5 L 476 132.5 L 482 138.5 L 483 145.5 L 490 155.5 L 491 164.5 L 498 176.5 L 499 188.5 L 505 200.5 L 506 224.5 L 508 236.5 L 510.5 240 L 512 240.5 L 512 273 L 509 274.5 L 506 288.5 L 505 312.5 L 499 324.5 L 498 336.5 L 491 348.5 L 490 357.5 L 484 364.5 L 482 374.5 L 476 380.5 Q 476 388 471.5 391 L 468 393.5 L 467 398.5 Q 459.8 403.8 456.5 413 L 452 416.5 Q 452.5 421.5 448.5 422 L 445 424.5 L 442.5 429 L 438 431 L 434.5 437 L 431 438 L 427.5 444 L 422 447.5 L 418.5 452 Q 413.5 451.5 413 455.5 L 411.5 458 L 404.5 461 L 398.5 467 Q 392.9 466.9 391 470.5 L 388.5 474 L 380.5 476 L 374.5 482 L 364.5 484 L 362 486.5 L 360.5 488 L 357.5 490 L 348.5 491 L 336.5 498 L 329.5 498 L 321.5 500 Q 318.8 504.3 312.5 505 L 288.5 506 L 277.5 508 L 273 510.5 L 272.5 512 L 240 512 L 238.5 509 L 224.5 506 L 200.5 505 L 188.5 499 L 176.5 498 L 164.5 491 L 155.5 490 Q 150.6 482.4 138.5 482 L 132.5 476 Q 125 476 122 471.5 L 119.5 468 L 114.5 467 Q 109.2 459.8 100 456.5 L 96.5 452 Q 91.5 452.5 91 448.5 L 88.5 445 L 84 442.5 L 81.5 438 L 76 434.5 L 73.5 430 L 69 427.5 L 65.5 422 L 61 418.5 L 57.5 413 L 55 411.5 L 52 404.5 L 46 398.5 L 42.5 391 L 39 388.5 Q 37.7 378.8 31 374.5 L 28 363.5 L 23 357.5 L 22 348.5 L 15 336.5 L 14 324.5 L 8 312.5 L 7 288.5 L 5 277.5 L 2.5 273 L 0 272.5 L 0 240 L 4 238.5 L 7 224.5 L 8 200.5 L 14 188.5 L 15 176.5 L 22 164.5 L 23 155.5 Q 30.6 150.6 31 138.5 L 36 133.5 L 39 124.5 L 41.5 122 L 44 120.5 L 46 114.5 Q 53.2 109.2 56.5 100 L 61 96.5 Q 60.5 91.5 64.5 91 L 68 88.5 L 70.5 84 L 75 81.5 L 78.5 76 L 83 73.5 L 85.5 69 L 91 65.5 L 94.5 61 Q 99.5 61.5 100 57.5 L 101.5 55 L 108.5 52 L 114.5 46 L 122 42.5 L 124.5 39 Q 134.3 37.7 138.5 31 L 149.5 28 L 155.5 23 L 164.5 22 L 176.5 15 L 188.5 14 L 200.5 8 L 224.5 7 L 235.5 5 L 240 2.5 L 240 0 Z M 256 15 L 241 17 L 210 18 L 200 23 L 179 26 L 170 32 L 160 34 L 152 40 L 144 42 L 139 47 L 129 50 L 127 52 Q 125 56 120 56 L 116 61 L 109 64 L 106 68 L 94 78 L 68 105 L 67 106 L 62 115 L 60 116 Q 55 118 55 124 L 50 127 L 47 139 L 42 144 L 39 155 L 34 160 Q 33 172 26 179 L 23 200 L 18 210 L 17 239 L 16 240 L 16 274 L 17 275 L 18 304 L 23 314 L 26 335 Q 33 341 34 354 L 40 362 L 42 371 L 45 372 L 50 385 L 52 386 L 57 395 L 60 396 L 65 406 L 68 407 L 80 422 L 82 423 L 88 431 L 109 449 L 115 451 L 116 454 Q 118 458 124 458 L 127 463 L 139 466 L 144 471 L 156 475 L 160 479 L 170 481 L 179 487 L 200 490 L 210 495 L 255 497 L 256 498 L 304 495 L 314 490 L 335 487 L 344 481 L 354 479 Q 359 472 371 471 L 372 469 L 385 463 L 386 462 Q 388 457 394 457 L 396 454 L 405 449 L 414 441 L 415 439 L 423 433 L 426 429 L 430 426 L 449 405 L 451 399 L 454 397 Q 458 395 458 390 L 463 386 L 467 374 L 470 372 L 472 369 L 475 358 L 480 352 L 481 344 L 487 335 L 490 314 L 495 304 L 497 259 L 498 258 L 495 210 L 490 200 L 487 179 Q 480 172 479 160 L 473 152 L 471 143 L 469 141 L 466 139 L 465 132 L 463 129 L 462 127 Q 457 125 457 120 L 453 116 L 449 109 L 441 101 L 440 99 L 433 91 L 425 84 L 423 80 L 420 78 Q 417 79 418 76 L 409 68 L 407 67 L 399 62 L 396 59 L 390 55 L 386 50 L 374 46 L 372 44 L 369 41 L 358 38 L 354 34 L 344 32 L 335 26 L 314 23 L 304 18 L 256 15 Z " /><path fill="rgb(253,61,1)" stroke="rgb(253,61,1)" stroke-width="0" opacity="1" d="M 246.5 108 L 272.5 109 L 281.5 113 L 297.5 114 L 306 117 Q 304.9 119.7 307.5 119 L 310.5 121 L 318.5 122 Q 323.6 128.4 333.5 130 L 347 140.5 L 348.5 143 L 351.5 144 L 369 161.5 L 371.5 166 L 375 168.5 Q 377 176 383 179.5 L 385 187.5 L 391 194.5 Q 391.1 202.7 394 207 Q 396.7 205.9 396 208.5 L 399 215.5 L 400 231.5 L 404 241.5 L 405 264.5 L 404 271.5 L 400 281.5 L 398 301.5 L 392 310.5 L 391 318.5 Q 384.6 323.6 383 333.5 L 372.5 347 L 370 348.5 L 369 351.5 L 351.5 369 L 347 371.5 L 344.5 375 Q 337 377 333.5 383 L 324.5 386 L 320.5 390 L 310.5 392 L 301.5 398 L 281.5 400 L 271.5 404 L 264.5 405 L 248.5 405 Q 246.8 402.2 240.5 404 L 231.5 400 L 214.5 399 L 207 396 Q 208.1 393.3 205.5 394 L 202.5 392 L 192.5 390 L 187.5 385 L 179.5 383 Q 174.9 376.6 167 373.5 L 164.5 370 L 161.5 369 L 144 351.5 L 141.5 347 L 137 343.5 L 136 339.5 L 130 333.5 Q 128.4 323.6 122 318.5 Q 121.9 310.3 119 306 Q 116.3 307.1 117 304.5 L 114 297.5 L 113 281.5 L 109 272.5 L 108 246.5 L 113 230.5 L 114 215.5 L 117 207 Q 119.7 208.1 119 205.5 L 121 202.5 L 122 194.5 Q 129 190 130 179.5 L 140.5 166 L 143 164.5 L 144 161.5 L 161.5 144 L 166 141.5 L 168.5 138 Q 176 136 179.5 130 L 187.5 128 L 192.5 123 L 202.5 121 L 211.5 115 L 231.5 113 L 246.5 108 Z M 252 124 L 251 125 L 224 126 L 217 131 L 203 133 L 198 135 L 196 138 Q 194 141 188 141 Q 183 147 176 150 L 173 154 L 169 156 L 164 162 L 159 165 L 155 172 L 152 174 L 142 187 L 140 194 L 137 196 L 133 203 L 131 217 L 126 224 L 125 250 L 124 251 L 126 290 L 131 297 L 135 315 L 137 316 Q 141 318 141 326 Q 147 330 150 338 L 153 339 L 157 347 L 163 350 L 164 354 L 172 358 L 173 361 L 188 372 L 195 374 L 196 377 L 202 380 L 209 380 L 219 383 Q 221 387 228 388 L 247 388 L 248 389 L 286 388 L 298 382 L 315 379 L 321 373 L 326 372 L 347 356 L 350 350 L 354 349 L 364 337 L 366 332 L 370 329 L 372 327 L 373 321 L 379 315 L 382 298 L 387 290 Q 390 279 388 264 L 389 263 L 388 228 Q 387 220 382 217 L 379 199 L 376 196 Q 371 194 372 188 L 363 176 L 361 174 L 356 167 L 352 164 L 348 159 L 342 155 L 338 150 Q 330 148 326 141 L 319 139 L 317 137 L 311 133 L 297 131 L 290 126 L 252 124 Z " /><path fill="rgb(253,61,1)" stroke="rgb(253,61,1)" stroke-width="0" opacity="1" d="M 202.5 160 L 220 160.5 L 202.5 161 L 200 162 L 198.5 168 L 198 164.5 L 200.5 161 L 202.5 160 Z " /><path fill="rgb(253,61,1)" stroke="rgb(253,61,1)" stroke-width="0" opacity="1" d="M 300.5 160 Q 310.6 157.9 314 162.5 L 312.5 162 L 300.5 161 L 300.5 160 Z " /><path fill="rgb(253,61,1)" stroke="rgb(253,61,1)" stroke-width="0" opacity="1" d="M 254.5 169 L 261 170 L 262 172.5 L 262 220.5 L 261 221.5 L 261 240.5 L 263 250 L 267 252.5 L 268 255.5 Q 265.2 257.3 267 263.5 L 264.5 267 L 252.5 268 L 247 265.5 L 245 255.5 L 248.5 250 Q 251.1 250.8 250 247.5 Q 253.8 238.8 252 224.5 L 251 223.5 L 251 172.5 L 252 170 L 254.5 169 Z " /><path fill="rgb(253,61,1)" stroke="rgb(253,61,1)" stroke-width="0" opacity="1" d="M 276 193 L 282.5 193 L 283 194.5 L 284 195.5 L 284 218.5 L 281.5 223 Q 277 224 276 221.5 L 275 218.5 L 275 195.5 L 276 193 Z " /><path fill="rgb(253,61,1)" stroke="rgb(253,61,1)" stroke-width="0" opacity="1" d="M 232.5 196 L 234.5 196 L 237 198.5 L 238 201.5 L 238 223.5 L 235.5 228 Q 231 229 230 226.5 L 229 223.5 L 229 201.5 L 232.5 196 Z " /><path fill="rgb(238,168,102)" stroke="rgb(238,168,102)" stroke-width="0" opacity="1" d="M 253.5 159 Q 260.5 158 263.5 161 L 310.5 161 L 314 163.5 L 313 225.5 L 312 228 L 306 230 L 304.5 241 L 302 227 Q 295.6 229.3 298 221.5 L 296 221.5 L 294 219.5 L 294 213.5 L 292 198.5 L 289.5 193 L 287 200.5 L 287 226.5 L 283.5 232 L 277.5 233 L 273 229.5 Q 270.1 215.9 272 197.5 L 268 178.5 L 269 172.5 L 268 170 Q 265.3 168.9 266 171.5 L 265 172.5 L 265 193.5 L 264 194.5 L 264 234.5 L 263 240.5 L 265.5 244 L 270 246.5 L 271 257.5 L 270 258.5 L 270 267.5 L 267.5 271 Q 261.4 269.8 262 272.5 L 255.5 276 L 251 272.5 Q 251.6 269.8 245.5 271 L 243 268.5 L 242 247.5 L 243 245 L 249 242.5 L 250 235.5 L 249 234.5 L 248 172.5 L 247 170 Q 244.3 168.9 245 171.5 L 244 172.5 L 244 187.5 L 242 193.5 L 242 203.5 L 241 204.5 L 241 226.5 L 237.5 233 L 233.5 232 L 229.5 233 L 226 227.5 L 226 204.5 Q 223.3 202.7 225 196.5 L 223.5 195 L 221 200.5 L 220 219.5 L 219 222 L 214 223 Q 215.3 228.1 212 229.5 Q 214.5 231 211 232.5 L 209 240.5 L 210 243 L 212 243.5 L 210.5 244 L 208 241.5 Q 209.1 233.3 207 230 L 200 226.5 L 199 164.5 L 200 162 L 202.5 161 L 249.5 161 L 253.5 159 Z M 255 162 L 253 164 Q 252 166 256 165 L 258 165 Q 261 166 260 164 Q 259 161 255 162 Z M 255 169 L 252 170 L 251 173 L 251 224 L 252 225 Q 254 239 250 248 Q 251 251 249 250 L 245 256 L 247 266 L 253 268 L 265 267 L 267 264 Q 265 257 268 256 L 267 253 L 263 250 L 261 241 L 261 222 L 262 221 L 262 173 L 261 170 L 255 169 Z M 276 193 L 275 196 L 275 219 L 276 222 Q 277 224 282 223 L 284 219 L 284 196 L 283 195 L 283 193 L 276 193 Z M 233 196 L 229 202 L 229 224 L 230 227 Q 231 229 236 228 L 238 224 L 238 202 L 237 199 L 235 196 L 233 196 Z M 307 219 L 305 223 L 307 227 L 311 226 L 310 221 L 307 219 Z M 203 221 L 203 226 L 207 227 L 207 226 L 207 224 Q 208 219 203 221 Z " /><path fill="rgb(238,168,102)" stroke="rgb(238,168,102)" stroke-width="0" opacity="1" d="M 213.5 244 L 216 245.5 L 217 248.5 L 215 247.5 L 213.5 244 Z " /><path fill="rgb(247,206,153)" stroke="rgb(247,206,153)" stroke-width="0" opacity="1" d="M 254.5 162 Q 259 161 260 163.5 Q 260.8 166.1 257.5 165 L 255.5 165 Q 252.2 166.1 253 163.5 L 254.5 162 Z " /><path fill="rgb(247,206,153)" stroke="rgb(247,206,153)" stroke-width="0" opacity="1" d="M 245 170 Q 247.7 168.9 247 171.5 L 248 172.5 L 248 193.5 L 249 194.5 L 249 234.5 L 250 240.5 L 247.5 244 L 243 245 Q 240.8 248.6 242 257.5 L 243 258.5 L 243 268.5 L 245.5 271 Q 251.6 269.8 251 272.5 L 257.5 276 L 262 272.5 Q 261.4 269.8 267.5 271 L 270 267.5 L 271 248.5 L 268.5 245 L 264 242.5 L 263 235.5 L 264 234.5 L 265 172.5 L 266 170 Q 268.7 168.9 268 171.5 L 269 177.5 L 269 179.5 L 269 187.5 L 272 197.5 L 272 223.5 L 273 229.5 L 275.5 232 L 281.5 233 L 286 229.5 L 287 226.5 L 287 200.5 L 289.5 193 L 292 198.5 L 294 220 Q 296.7 218.9 296 221.5 L 298 221.5 L 298 227 Q 302.8 225.1 302 228.5 L 304 241.5 L 298 245.5 L 294.5 251 L 290 253.5 L 287.5 258 Q 281.5 256.5 280 259.5 L 281 273 L 276.5 274 L 273.5 272 Q 270.7 273.3 273 274.5 L 274 278.5 Q 271.9 282.1 267 282 L 264.5 289 L 260 291.5 L 256.5 297 L 251.5 290 L 247 287.5 L 246 282 Q 241.1 282.1 239 278.5 L 241 273.5 Q 239.7 270.7 238.5 273 L 234.5 274 Q 230.8 272.8 232 266.5 L 233 262.5 L 232 258 L 227.5 259 L 224 256.5 L 221.5 252 L 217 249.5 L 214.5 244 L 210 243 L 209 240.5 L 212 231.5 L 211 230.5 L 214 227.5 Q 212.1 222.1 215.5 223 L 219 222 L 220 219.5 L 221 200.5 L 223.5 195 L 225 196.5 Q 223.3 202.7 226 204.5 L 226 227.5 L 229.5 233 L 233.5 232 L 237.5 233 L 241 226.5 L 241 204.5 L 242 203.5 L 242 193.5 L 244 187.5 L 244 172.5 L 245 170 Z M 244 225 L 244 240 L 248 241 L 249 239 L 246 230 Q 248 224 244 225 Z M 266 236 L 264 240 L 268 241 Q 270 240 268 239 Q 269 235 266 236 Z M 236 244 L 236 247 L 240 249 L 241 246 L 236 244 Z M 272 245 L 274 249 Q 277 250 276 247 L 272 245 Z " /><path fill="rgb(247,206,153)" stroke="rgb(247,206,153)" stroke-width="0" opacity="1" d="M 306.5 219 L 310 220.5 L 311 226 L 306.5 227 L 304 221.5 L 306.5 219 Z " /><path fill="rgb(247,206,153)" stroke="rgb(247,206,153)" stroke-width="0" opacity="1" d="M 203 221 Q 208.2 218.9 207 223.5 L 207 225.5 L 206.5 227 L 203 226 L 203 221 Z " /></svg>