<svg width="2048" height="2048" viewBox="0 0 512 512" version="1.1" xmlns="http://www.w3.org/2000/svg"  style="background:transparent"><path fill="rgb(0,0,255)" stroke="rgb(0,0,255)" stroke-width="0" opacity="1" d="M 233.5 124 L 235.5 124 L 250.5 125 L 252.5 125 L 281.5 124 L 283.5 125 L 286.5 124 L 287.5 125 L 301.5 125 L 307.5 127 L 317 135.5 L 319 139 L 321 139 L 321 141 L 323 141 L 323 143.5 Q 330.9 153.1 330 171.5 L 321.5 201 L 320 200.5 L 316.5 205 L 307.5 211 L 298.5 213 L 232.5 213 L 229.5 212 Q 223.5 213 221.5 210 L 220 210.5 Q 220.8 207.9 217.5 209 L 206 200.5 L 200 184.5 L 199 161.5 L 200 160.5 L 200 151.5 L 205 139 L 207 139 L 209 135.5 L 210.5 133 Q 212 135.5 213.5 132 L 224.5 126 L 233.5 124 Z M 239 142 L 233 143 L 223 149 Q 216 154 214 164 L 215 174 L 221 185 Q 227 192 238 195 L 252 193 L 283 193 L 284 194 Q 298 196 304 190 Q 312 183 314 171 Q 314 157 308 150 L 298 143 L 245 143 L 239 142 Z " /><path fill="rgb(0,0,255)" stroke="rgb(0,0,255)" stroke-width="0" opacity="1" d="M 136.5 178 L 139.5 179 L 143.5 178 L 145.5 178 L 152.5 180 Q 154 177.5 155.5 181 L 160 182.5 L 162 187 Q 164.7 185.9 164 188.5 L 176.5 203 L 184 208.5 Q 187.9 219.1 195.5 226 L 204.5 227 L 213.5 223 L 217.5 223 L 231.5 227 L 299.5 227 L 320.5 222 L 341.5 221 L 342.5 222 L 374.5 222 L 375.5 223 L 377.5 222 L 382.5 224 L 386.5 224 L 393 230.5 L 396 240.5 L 396 272.5 L 392 285 L 386.5 289 L 385.5 288 L 381.5 290 L 376.5 291 L 374.5 291 L 343.5 291 L 341.5 292 L 310.5 286 L 246.5 286 L 213.5 292 L 202.5 286 L 197.5 286 L 190 292.5 Q 187.9 301.9 181.5 307 L 168 318.5 L 158.5 332 L 153.5 334 L 151.5 334 L 145.5 335 L 143.5 334 L 140.5 335 L 137.5 334 L 135.5 334 Q 129.2 333.4 127 328.5 L 119.5 317 L 116 314.5 L 113.5 311 Q 105.2 308.9 101 302.5 L 98 287.5 L 97 241.5 L 98 240.5 L 98 225.5 L 100 212.5 L 106.5 205 Q 113.1 204.1 116 199.5 L 117.5 197 L 121 194.5 L 130.5 181 L 136.5 178 Z M 146 198 L 134 200 Q 124 204 118 212 Q 119 214 116 213 L 108 227 L 104 239 L 102 252 L 102 262 L 104 275 Q 108 289 116 300 L 126 309 L 134 313 L 146 315 L 155 314 L 163 309 L 166 307 L 180 288 Q 186 280 196 277 Q 206 276 213 279 L 235 278 L 236 277 L 325 277 L 326 278 L 341 278 L 342 279 L 366 279 L 380 277 L 383 275 L 388 269 L 390 260 Q 390 248 386 242 L 381 237 L 366 234 L 333 234 L 332 235 L 308 235 L 307 236 L 224 236 L 223 235 L 210 235 L 209 236 Q 192 238 186 231 L 166 206 L 155 199 L 146 198 Z " /><path fill="rgb(0,0,255)" stroke="rgb(0,0,255)" stroke-width="0" opacity="1" d="M 250.5 300 L 252.5 301 L 253.5 300 L 266.5 300 L 268.5 301 L 270.5 300 L 271.5 301 L 316.5 301 Q 327.7 302.3 333 309.5 L 335 312.5 L 335 319.5 L 338 331.5 L 339 352.5 L 337 367.5 L 330 381 L 324 384 L 323.5 386 L 321.5 386 L 316.5 388 L 312.5 388 Q 306.2 386.3 304.5 389 L 303.5 388 L 288.5 388 L 287.5 389 L 251.5 389 L 249.5 389 L 245.5 388 L 243.5 388 L 240.5 389 L 236.5 387 Q 225.6 386.4 221 379.5 L 220 376 Q 217 377.3 218 373.5 Q 210.4 360.6 213 337.5 Q 217.5 328 218 314.5 L 224.5 306 L 237.5 301 L 249.5 301 L 250.5 300 Z M 256 318 Q 243 320 235 326 Q 228 331 226 341 Q 224 353 229 360 L 235 365 L 250 370 L 274 370 L 275 369 Q 281 367 283 370 Q 307 373 322 365 Q 327 360 329 352 L 329 342 L 324 329 L 321 325 L 312 321 L 300 319 L 289 319 L 288 320 L 270 320 Q 265 317 256 318 Z " /><path fill="rgb(182,182,182)" stroke="rgb(182,182,182)" stroke-width="0" opacity="1" d="M 238.5 142 L 244.5 143 L 297.5 143 L 308 149.5 Q 314.4 156.6 314 170.5 Q 311.9 183.4 303.5 190 Q 297.5 196 283.5 194 L 282.5 193 L 251.5 193 L 237.5 195 Q 226.6 192.4 221 184.5 L 215 173.5 L 214 163.5 Q 216.1 154.1 222.5 149 L 232.5 143 L 238.5 142 Z " /><path fill="rgb(182,182,182)" stroke="rgb(182,182,182)" stroke-width="0" opacity="1" d="M 145.5 198 L 154.5 199 L 166 206 L 185.5 231 Q 192.3 238.2 208.5 236 L 209.5 235 L 222.5 235 L 223.5 236 L 306.5 236 L 307.5 235 L 331.5 235 L 332.5 234 L 365.5 234 L 380.5 237 L 386 241.5 Q 390.4 248.1 390 259.5 L 388 268.5 L 382.5 275 L 379.5 277 L 365.5 279 L 341.5 279 L 340.5 278 L 325.5 278 L 324.5 277 L 235.5 277 L 234.5 278 L 212.5 279 Q 206.1 275.9 195.5 277 Q 185.6 280.1 180 287.5 L 166 307 L 162.5 309 L 154.5 314 L 145.5 315 L 133.5 313 L 125.5 309 L 116 299.5 Q 107.6 289.4 104 274.5 L 102 261.5 L 102 251.5 L 104 238.5 L 108 226.5 L 116 213 Q 118.7 214.1 118 211.5 Q 123.8 203.8 133.5 200 L 145.5 198 Z " /><path fill="rgb(182,182,182)" stroke="rgb(182,182,182)" stroke-width="0" opacity="1" d="M 255.5 318 Q 264.5 317 269.5 320 L 287.5 320 L 288.5 319 L 299.5 319 L 311.5 321 L 320.5 325 L 324 328.5 L 329 341.5 L 329 351.5 Q 327.1 360.1 321.5 365 Q 307 372.5 282.5 370 Q 280.8 367.3 274.5 369 L 273.5 370 L 249.5 370 L 234.5 365 L 229 359.5 Q 224.2 353.3 226 340.5 Q 227.8 330.8 234.5 326 Q 243.3 320.3 255.5 318 Z " /></svg>