<svg width="2048" height="2048" viewBox="0 0 512 512" version="1.1" xmlns="http://www.w3.org/2000/svg"  style="background:transparent"><path fill="rgb(0,102,204)" stroke="rgb(0,102,204)" stroke-width="0" opacity="1" d="M 253.5 131 Q 260.5 129.5 262 133.5 Q 262.5 139.1 266.5 141 L 271 144.5 L 275 154.5 L 281 160.5 L 285.5 170 L 292 175.5 L 294 182.5 Q 302.2 188.1 304 199 L 311 203.5 L 314 211.5 L 319 216.5 L 324 227.5 L 327.5 231 L 331 233.5 L 336.5 244 L 339 245.5 L 344 257.5 L 346.5 260 L 351 262 Q 354 266.3 353 275.5 L 349.5 282 L 344 285.5 Q 342.8 295.3 336.5 300 L 335 301.5 L 328.5 312 L 324 315.5 L 321 323.5 L 314 331.5 L 311 339.5 L 308.5 342 L 304.5 344 L 301 343 L 299 336.5 L 300 334 L 311 327.5 Q 310.3 321.3 313.5 319 L 319 317 Q 321.6 313.8 321 306.5 L 326.5 301 L 330 300 Q 330.6 292.3 335.5 288 L 340 287 L 341 276.5 Q 345 275.5 344 269.5 L 341 266.5 Q 341.9 259.7 340 257 L 333 252.5 L 330 243 Q 323.9 242.2 321 236.5 Q 321.6 229.2 319 226 Q 313.5 226.8 312 221.5 L 309.5 214 L 305 212 Q 306.1 209.3 303.5 210 L 301 207.5 L 300 200.5 L 293 193.5 Q 292.8 185.2 287.5 182 L 282 180 L 279 169.5 L 271 160.5 Q 272.3 154.3 268.5 153 L 262 148.5 L 258.5 142 Q 253 141 252 144.5 Q 251.6 150.1 247.5 152 L 242 155.5 L 242 160.5 L 234 169.5 L 231 180 Q 225.1 180.9 222 185.5 L 221 192.5 L 213 200.5 L 212 207.5 L 209.5 210 L 206.5 212 L 202 215.5 Q 202.1 223.6 196.5 226 Q 193.2 224.9 194 227.5 Q 191.2 230.2 192 236.5 L 186.5 242 L 183 243 Q 182.4 250.7 177.5 255 L 173 257 L 172 266.5 Q 168 267.5 169 273.5 L 172 276.5 L 173 287 Q 177.9 286.9 180 290.5 L 183 300 Q 189.1 300.9 192 306.5 Q 191.4 313.8 194 317 L 201 320.5 L 202 327.5 L 204.5 330 L 213 334 L 214 336.5 L 212 343 L 207.5 344 L 202 339.5 L 199 331.5 L 194 326.5 L 189 315.5 L 185.5 312 L 182 309.5 L 178 300 L 173 296.5 L 170 287.5 L 166.5 283 L 162 280.5 Q 158.9 276.1 160 267.5 L 162 262 L 169 257.5 Q 170.4 248.9 175.5 244 L 178 242.5 L 184.5 231 L 189 227.5 L 192 219.5 L 199 211.5 L 202 203.5 L 204.5 201 L 209 199 L 213 188.5 L 219 182.5 Q 220 173.5 226.5 170 L 229 168.5 L 232 160.5 L 238 154.5 L 242 144.5 L 245.5 141 L 250 137.5 L 253.5 131 Z " /><path fill="rgb(0,102,204)" stroke="rgb(0,102,204)" stroke-width="0" opacity="1" d="M 212.5 353 L 227.5 359 L 231 362.5 L 234 375 L 240 379.5 Q 243 381.5 242 387.5 L 244.5 390 L 251 394.5 L 254.5 401 L 256.5 402 L 260 399.5 L 265.5 391 L 271 387.5 L 271 382.5 L 277.5 375 Q 280.1 375.8 279 372.5 Q 281.7 370.2 281 364.5 L 285.5 359 L 299.5 353 L 300 354.5 Q 292.8 357.9 292 367.5 L 286.5 373 L 284 374.5 L 281 382.5 L 275 388.5 L 271 398.5 L 267.5 402 L 263 405.5 L 259.5 412 Q 252.5 413.5 251 409.5 Q 250.6 404 246.5 402 L 242 398.5 L 238 388.5 L 232 382.5 L 227.5 373 L 221 367.5 L 220 362.5 L 212.5 353 Z " /><path fill="rgb(15,156,254)" stroke="rgb(15,156,254)" stroke-width="0" opacity="1" d="M 254.5 142 Q 260 141 261 144.5 Q 261.5 150.1 265.5 152 L 271 155.5 L 271 160.5 L 279 169.5 L 282 180 Q 287.9 180.9 291 185.5 L 293 193.5 L 300 200.5 L 301 207.5 L 303.5 210 L 306.5 212 L 311 215.5 Q 310.9 223.6 316.5 226 Q 319.8 224.9 319 227.5 Q 321.8 230.2 321 236.5 L 326.5 242 L 330 243 Q 330.6 250.7 335.5 255 L 340 257 Q 341.9 259.7 341 266.5 Q 345 267.5 344 273.5 L 341 276.5 L 340 287 Q 335.1 286.9 333 290.5 L 330 300 Q 323.9 300.9 321 306.5 Q 321.6 313.8 319 317 L 316.5 317 L 312 320.5 L 311 327.5 L 308.5 330 L 300 334 L 299 336.5 L 301 343 L 305 344.5 L 301 353 L 285.5 359 L 282 362.5 L 279 375 L 273 379.5 Q 270 381.5 271 387.5 L 268.5 390 L 262 394.5 L 258.5 401 L 256.5 402 L 252 398.5 Q 251.6 393 247.5 391 L 242 387.5 L 242 382.5 L 235.5 375 Q 232.9 375.8 234 372.5 Q 231.3 370.2 232 364.5 L 227.5 359 L 212 353 L 208 344.5 L 212 343 L 214 336.5 L 213 334 L 202 327.5 Q 202.7 321.3 199.5 319 L 194 317 Q 191.4 313.8 192 306.5 L 186.5 301 L 183 300 Q 182.4 292.3 177.5 288 L 173 287 L 172 276.5 Q 168 275.5 169 269.5 L 172 266.5 L 173 257 L 180 252.5 L 183 243 Q 189.1 242.2 192 236.5 Q 191.4 229.2 194 226 Q 199.5 226.8 201 221.5 Q 200.6 215.1 204.5 213 L 208 212 Q 206.9 209.3 209.5 210 L 212 207.5 L 213 200.5 L 221 192.5 Q 220.4 184.4 225.5 182 L 231 180 L 234 169.5 L 242 160.5 Q 240.8 154.3 244.5 153 L 251 148.5 L 254.5 142 Z M 254 209 L 249 215 L 249 223 L 250 224 L 249 232 L 245 234 L 239 228 L 232 223 L 223 224 L 221 232 L 221 244 L 222 245 L 221 249 Q 219 261 226 265 L 232 265 L 238 262 L 241 257 Q 242 253 248 254 L 250 258 L 248 282 L 220 311 Q 217 313 218 320 Q 221 324 230 324 L 231 328 L 225 333 L 218 343 L 219 350 Q 221 354 230 353 L 234 348 L 242 342 L 244 338 L 255 330 L 259 330 L 266 334 L 271 342 L 276 344 L 281 352 L 284 353 L 292 352 L 295 348 L 295 343 L 290 334 L 286 332 L 282 326 L 284 324 L 291 323 L 295 320 Q 296 312 292 310 L 266 283 L 264 279 L 264 264 L 263 263 Q 262 256 266 254 L 271 255 L 274 261 L 282 265 L 288 265 L 292 259 L 292 249 L 291 248 L 292 244 Q 293 231 290 224 L 288 223 L 282 223 L 276 226 L 274 229 L 269 234 L 267 234 L 263 228 L 264 223 L 263 213 Q 262 208 254 209 Z " /><path fill="rgb(15,156,254)" stroke="rgb(15,156,254)" stroke-width="0" opacity="1" d="M 253.5 302 L 259.5 302 L 266 306.5 L 266 310 L 257.5 310 L 255.5 310 L 247 310 L 247 306.5 L 253.5 302 Z " /><path fill="rgb(15,156,254)" stroke="rgb(15,156,254)" stroke-width="0" opacity="1" d="M 237.5 316 L 239 317.5 L 236 319 L 237.5 316 Z " /><path fill="rgb(15,156,254)" stroke="rgb(15,156,254)" stroke-width="0" opacity="1" d="M 273 316 Q 279 314 277 320 L 273 317.5 L 273 316 Z " /><path fill="rgb(202,224,242)" stroke="rgb(202,224,242)" stroke-width="0" opacity="1" d="M 255.5 58 L 260.5 59 L 270 68.5 L 273 75.5 Q 281.8 80.3 284 90 L 291 95.5 L 294 106.5 L 289.5 111 L 227.5 111 L 223 108.5 L 222 104.5 L 228 96.5 L 232 84.5 Q 239.4 79.9 242 70.5 L 253.5 59 L 255.5 58 Z " /><path fill="rgb(202,224,242)" stroke="rgb(202,224,242)" stroke-width="0" opacity="1" d="M 253.5 209 Q 261.5 207.5 263 212.5 L 264 222.5 L 263 227.5 L 266.5 234 L 268.5 234 L 274 228.5 L 275.5 226 L 281.5 223 L 287.5 223 L 290 224 Q 293.2 231 292 243.5 L 291 247.5 L 292 248.5 L 292 258.5 L 287.5 265 L 281.5 265 L 274 260.5 L 270.5 255 L 265.5 254 Q 262 256 263 262.5 L 264 263.5 L 264 278.5 L 266 282.5 L 292 309.5 Q 295.9 312.1 295 319.5 L 290.5 323 L 283.5 324 L 282 325.5 L 285.5 332 L 290 334 L 295 342.5 L 295 347.5 L 291.5 352 L 283.5 353 L 281 352 L 275.5 344 L 271 341.5 L 265.5 334 L 258.5 330 L 254.5 330 L 244 337.5 L 242 342 L 234 347.5 L 229.5 353 Q 221.2 354.3 219 349.5 L 218 342.5 L 224.5 333 L 231 327.5 L 229.5 324 Q 221.3 324.3 218 319.5 Q 217.2 313.2 220 310.5 L 248 281.5 L 250 257.5 L 247.5 254 Q 242.4 253.4 241 256.5 L 237.5 262 L 231.5 265 L 225.5 265 Q 219 261 221 248.5 L 222 244.5 L 221 243.5 L 221 231.5 L 223 224 L 231.5 223 L 239 227.5 L 244.5 234 L 249 231.5 L 250 223.5 L 249 222.5 L 249 214.5 L 253.5 209 Z M 254 302 L 247 307 L 247 310 L 256 310 L 258 310 L 266 310 L 266 307 L 260 302 L 254 302 Z M 238 316 L 236 319 L 239 318 L 238 316 Z M 273 316 L 273 318 L 277 320 Q 279 314 273 316 Z " /></svg>