<svg width="2048" height="2048" viewBox="0 0 512 512" version="1.1" xmlns="http://www.w3.org/2000/svg"  style="background:transparent"><path fill="rgb(83,193,35)" stroke="rgb(83,193,35)" stroke-width="0" opacity="1" d="M 56.5 138 L 77.5 138 L 79 139.5 L 79 151.5 L 78 152.5 L 78 209.5 L 80.5 214 L 83 205.5 L 85 203.5 L 86 156.5 L 85 155.5 L 85 138 L 138.5 138 L 141 140.5 Q 144.1 144.9 143 153.5 L 142 157 L 138.5 158 L 124 158 L 124.5 161 L 138.5 161 Q 137.9 163.8 141 163 L 141.5 159 L 142 177.5 L 143.5 179 L 145 178.5 Q 143.9 203.1 151 219.5 L 151 240.5 L 150 241.5 L 149 257.5 L 151 265.5 L 151 294.5 L 148 301.5 L 148 312.5 L 146 318.5 L 145 339.5 L 143 345.5 L 142 356.5 L 143 357.5 L 143 368.5 L 138.5 375 L 122.5 376 L 120.5 376 L 117.5 375 L 116 375.5 L 115 363.5 L 117.5 357 L 121.5 368 L 126 356.5 L 126 344.5 L 128 342.5 Q 127.5 333 132 328.5 L 132 323.5 L 131 322.5 L 131 312.5 L 129.5 310 L 128 311.5 L 127 320 Q 120.6 322.3 123 314.5 L 126 308.5 L 129 294.5 L 131 292.5 L 131 280.5 L 126.5 279 L 125 280.5 L 124 288 L 119 290.5 L 118.5 292 L 118 284.5 L 120 282.5 Q 119.1 273.6 123 269.5 L 123 262.5 L 122 260 Q 118.7 258.7 120 263.5 L 117 269.5 L 116 278.5 L 114 280.5 Q 114.7 288.7 111 292.5 L 111 304.5 Q 106.8 310.3 108 321.5 L 110.5 325 L 114 324 L 115.5 315 L 117 317.5 L 114 330.5 L 114 339.5 L 119 346.5 L 119 352.5 L 117.5 355 L 117 352 Q 113.7 350.7 115 355.5 L 113.5 360 L 112 358.5 L 112 352.5 L 107.5 341 L 104.5 352 L 104 350 Q 100.3 348.6 102 354.5 L 105 355.5 L 106 373.5 L 104.5 375 L 91.5 376 Q 88.1 372.4 89 364.5 Q 92 359.5 91 350.5 L 88.5 346 L 84 349 L 83 357.5 L 86 371.5 L 85 376 L 74 376 L 74 358.5 L 77 352.5 L 74 348.5 L 78.5 336 L 81 337.5 L 82 324.5 L 80 316.5 L 82.5 315 L 84 316.5 L 85 325 Q 87.7 326.1 87 323.5 L 88 322.5 L 88 311.5 L 85 307.5 L 85 300.5 L 83 297.5 L 82 287.5 L 80 282.5 L 80 274.5 L 77.5 269 L 75 275.5 L 75 310.5 L 70.5 319 Q 67.5 317.5 69 311.5 L 66 306.5 L 66 300.5 L 63 297.5 Q 63.9 292.1 61.5 290 L 60 291.5 L 60 301.5 L 62 304.5 Q 60.7 314.3 65 318.5 L 65 329.5 L 67 332.5 L 68 343.5 L 70 346.5 L 71 374.5 Q 69.5 377.5 63.5 376 L 60.5 375 L 58.5 376 L 53 371.5 L 51 364.5 Q 53.9 359.9 53 351.5 L 50 341.5 L 50 329.5 L 47 314.5 L 47 304.5 L 45 299.5 L 45 213.5 L 48 206.5 L 48 192.5 L 50 187.5 L 51.5 168 L 53.5 171 L 55 164.5 L 54.5 163 L 71 162.5 L 68 161.5 L 75 161 L 75 158 L 68.5 158 L 65.5 157 L 60.5 158 L 55.5 156 L 54.5 158 Q 50.8 153.8 52 144.5 L 56.5 138 Z M 119 157 L 111 159 L 112 164 L 118 166 L 118 165 L 122 162 Q 124 155 119 157 Z M 88 158 L 88 160 L 91 161 L 96 160 L 103 161 L 103 158 L 88 158 Z M 113 167 L 110 173 L 111 180 L 111 242 L 112 243 L 112 244 L 117 244 L 118 242 L 118 184 Q 122 180 120 171 L 120 169 L 120 167 L 118 171 L 119 172 L 117 169 L 113 167 Z M 93 208 L 92 211 L 92 240 L 95 248 L 94 264 L 92 270 L 92 340 L 95 351 Q 93 357 100 355 L 101 354 L 102 341 L 104 337 L 104 269 L 102 265 L 102 251 L 101 248 L 104 240 L 104 211 L 103 210 L 103 208 L 93 208 Z M 69 350 L 67 354 L 68 356 L 69 356 L 69 350 Z " /><path fill="rgb(83,193,35)" stroke="rgb(83,193,35)" stroke-width="0" opacity="1" d="M 40.5 139 L 41 149.5 L 37.5 154 Q 29.3 155.1 26 153 L 25 162.5 L 26 163.5 L 26 349.5 L 25 355.5 L 26 360 L 34.5 359 L 36.5 360 L 38 359.5 L 39 373 L 23.5 373 L 23 371.5 L 22 370.5 L 22 142.5 L 23 140 L 39.5 140 L 40.5 139 Z " /><path fill="rgb(83,193,35)" stroke="rgb(83,193,35)" stroke-width="0" opacity="1" d="M 154 140 L 484.5 140 L 485 143.5 L 486 144.5 L 486 368.5 L 483.5 373 L 156.5 373 L 155.5 374 L 155 363.5 L 158.5 359 L 479.5 359 L 480.5 360 L 482 358.5 L 482 154.5 Q 480.8 151.8 479.5 154 L 158.5 154 L 156.5 153 L 155 153.5 Q 156.4 143.9 154 140 Z " /><path fill="rgb(153,102,102)" stroke="rgb(153,102,102)" stroke-width="0" opacity="1" d="M 90.5 66 Q 106.6 63.4 112 71.5 L 114.5 75 L 116 76.5 L 124 87.5 L 128 96.5 L 138 129.5 L 137 129.5 L 133.5 122 L 133 128 L 60.5 128 L 59.5 127 L 57.5 130 L 57 128.5 L 67 96.5 L 79 75 L 82.5 73 L 84 70 L 90.5 66 Z M 99 74 L 98 75 L 95 75 L 95 80 L 99 81 L 102 80 L 103 80 L 103 75 L 99 74 Z M 76 86 L 74 90 L 76 92 L 77 90 L 76 86 Z M 73 94 L 70 95 L 70 101 L 73 101 L 74 99 Q 76 93 73 94 Z " /><path fill="rgb(153,102,102)" stroke="rgb(153,102,102)" stroke-width="0" opacity="1" d="M 58.5 135 L 134.5 135 L 137.5 136 L 139 135.5 L 137.5 137 L 134.5 138 L 133.5 137 L 56 136.5 L 58.5 135 Z " /><path fill="rgb(153,102,102)" stroke="rgb(153,102,102)" stroke-width="0" opacity="1" d="M 118.5 157 Q 124.2 155.2 122 161.5 L 118 164.5 L 117.5 166 L 112 164 L 111 159 L 118.5 157 Z " /><path fill="rgb(153,102,102)" stroke="rgb(153,102,102)" stroke-width="0" opacity="1" d="M 119.5 167 L 120 168.5 L 120 170.5 Q 121.9 179.4 118.5 183 L 118 172.5 L 118 170.5 L 119.5 167 Z " /><path fill="rgb(153,102,102)" stroke="rgb(153,102,102)" stroke-width="0" opacity="1" d="M 68.5 350 L 69 355.5 L 68 355.5 L 67 353.5 L 68.5 350 Z " /><path fill="rgb(153,102,102)" stroke="rgb(153,102,102)" stroke-width="0" opacity="1" d="M 75.5 350 L 77 354.5 L 75 355.5 L 75.5 350 Z " /><path fill="rgb(153,102,102)" stroke="rgb(153,102,102)" stroke-width="0" opacity="1" d="M 102 350 Q 104.7 348.9 104 351.5 L 105 354.5 Q 103.5 357.5 102 354.5 L 102 350 Z " /><path fill="rgb(153,102,102)" stroke="rgb(153,102,102)" stroke-width="0" opacity="1" d="M 57.5 375 L 59.5 376 L 62.5 375 L 72.5 377 L 73.5 376 L 85.5 376 L 88.5 381 L 91.5 376 L 105 375 L 106 378.5 L 105 378.5 L 103.5 377 L 102.5 378 L 93.5 378 L 91 377 L 90 383.5 L 91.5 385 L 104.5 385 L 106.5 381 L 108.5 385 L 113 382.5 L 115 376 L 117.5 375 L 118.5 376 L 135.5 376 L 137.5 376 Q 141.3 375 140 378 L 135.5 377 L 134.5 378 L 118.5 378 L 116.5 377 L 114 381.5 L 116.5 385 L 135.5 385 L 136.5 386 L 138 385.5 L 135 398.5 L 125 425.5 L 109.5 448 L 100.5 452 L 93.5 452 Q 87 450.5 84 445.5 L 80 439 L 77 437.5 L 66 416.5 L 57 383.5 L 58 383.5 L 59.5 386 L 60.5 385 L 85.5 385 L 87 383.5 L 86 377 L 83.5 378 L 58.5 378 L 56.5 377 L 55 377.5 L 57.5 375 Z M 128 401 L 128 409 L 130 408 Q 132 400 128 401 Z M 125 412 L 123 414 Q 121 420 126 418 L 126 413 L 125 412 Z M 120 421 L 119 426 Q 121 429 122 426 Q 124 420 120 421 Z " /><path fill="rgb(153,102,153)" stroke="rgb(153,102,153)" stroke-width="0" opacity="1" d="M 93.5 58 L 101.5 58 Q 103.2 60.8 108.5 60 L 113 63.5 L 117.5 71 L 119 72.5 L 130 93.5 L 139 123.5 L 141 136.5 L 140 136.5 L 135 115.5 L 124 85.5 L 107.5 66 L 100.5 64 L 92.5 64 Q 84.6 66.1 81 72.5 L 79.5 74 L 71 86.5 Q 70.7 92.7 67 95.5 L 58 122.5 L 56 135.5 L 54.5 137 L 54 134.5 L 58 115.5 L 66 91.5 L 76 71.5 L 83.5 62 L 93.5 58 Z " /><path fill="rgb(153,102,153)" stroke="rgb(153,102,153)" stroke-width="0" opacity="1" d="M 53.5 375 L 56 378.5 L 59 396.5 L 70 426.5 L 77 438.5 L 86.5 450 L 97.5 455 L 105.5 450 L 108.5 450 L 112 446.5 L 123 430.5 L 129 417.5 L 138 388.5 L 139 378.5 L 141.5 375 L 142 377.5 L 138 396.5 L 130 421.5 L 122 438.5 L 113.5 451 L 105.5 455 L 100.5 460 L 93.5 460 L 90 457.5 L 88.5 455 L 79 447.5 L 73 438.5 L 64 418.5 L 55 387.5 L 55 380.5 Q 52 378.7 53.5 375 Z " /><path fill="rgb(153,102,153)" stroke="rgb(153,102,153)" stroke-width="0" opacity="1" d="M 106.5 375 L 110.5 382 L 113.5 375 L 114 379.5 L 110.5 384 L 107 382.5 L 106.5 375 Z " /><path fill="rgb(153,185,101)" stroke="rgb(153,185,101)" stroke-width="0" opacity="1" d="M 92.5 64 L 100.5 64 L 107.5 66 L 116 74.5 L 114.5 75 L 108.5 68 Q 102.4 64.1 90.5 66 L 84 70 L 82.5 73 L 81 72.5 Q 84.6 66.1 92.5 64 Z " /><path fill="rgb(153,185,101)" stroke="rgb(153,185,101)" stroke-width="0" opacity="1" d="M 79.5 74 L 81 74.5 L 79 75 L 77.5 78 L 78 76.5 L 79.5 74 Z " /><path fill="rgb(153,185,101)" stroke="rgb(153,185,101)" stroke-width="0" opacity="1" d="M 119.5 81 L 124 86.5 L 120 83.5 L 119.5 81 Z " /><path fill="rgb(153,185,101)" stroke="rgb(153,185,101)" stroke-width="0" opacity="1" d="M 129.5 101 L 131 104.5 L 130 104.5 L 129.5 101 Z " /><path fill="rgb(153,185,101)" stroke="rgb(153,185,101)" stroke-width="0" opacity="1" d="M 139.5 135 L 140 137 L 143 138.5 L 145.5 142 L 149.5 143 L 153.5 140 Q 157.1 143.9 155 153.5 L 154 153.5 L 152.5 150 L 147 151 L 145 163.5 L 146 163.5 L 146.5 161 L 150 184.5 L 151 204.5 L 153 212.5 L 153 301.5 L 151 310.5 L 150 330.5 L 147.5 347 L 146 346.5 L 147 353.5 L 146 353.5 L 145.5 352 L 145 354.5 L 148.5 362 L 152.5 363 L 157.5 357 L 158 359.5 L 155 363.5 L 154.5 374 L 152.5 370 L 150.5 371 L 148.5 371 Q 144.1 369.5 145 372.5 L 141 375 L 140.5 377 L 137 375.5 L 141 372.5 Q 144.8 367.8 143 357.5 L 142 355.5 L 145 339.5 L 146 318.5 L 148 312.5 L 148 301.5 L 151 294.5 L 151 265.5 L 149 254.5 L 151 240.5 L 151 219.5 L 146 201.5 L 144.5 178 Q 143.3 180.3 142 177.5 L 141.5 159 L 141 163 Q 137.9 163.8 138.5 161 L 124.5 161 L 124 158 L 138.5 158 L 142 157 Q 143.8 153.2 143 145.5 L 138.5 138 L 137 137.5 L 139 137 L 139.5 135 Z " /><path fill="rgb(153,185,101)" stroke="rgb(153,185,101)" stroke-width="0" opacity="1" d="M 55.5 136 L 56.5 137 L 134 137.5 L 85 138 L 86 184.5 L 85 185.5 L 85 203.5 L 83 205.5 L 80.5 214 L 78 209.5 L 78 152.5 L 79 151.5 L 79 139.5 L 77.5 138 L 56.5 138 Q 50.4 141.4 52 152.5 L 54.5 158 L 55.5 156 L 64.5 158 L 67.5 157 L 75 158 L 75 161 L 68.5 161 L 68.5 162 L 71 162.5 L 54 163.5 L 54 165.5 L 53.5 171 L 51.5 168 L 50 187.5 L 48 192.5 L 48 206.5 L 45 213.5 L 45 299.5 L 47 304.5 L 47 314.5 L 50 329.5 L 50 341.5 L 53 351.5 L 53 358.5 L 51 365.5 Q 52 372.5 57 375.5 Q 55.3 378.8 53.5 375 L 51 373.5 L 49.5 372 L 46.5 370 L 41 372.5 L 40.5 374 L 39 372.5 L 38 357.5 L 39 357.5 L 40 362 L 47.5 362 L 48 360.5 L 50 351 Q 46.3 352.4 48 346.5 L 44 319.5 L 44 309.5 L 45 306.5 L 43 306.5 L 42 286.5 L 41 285.5 L 41 227.5 L 42 226.5 L 43 207 Q 45.7 208.1 45 205.5 L 44 204.5 L 44 193.5 L 46 185.5 L 47 168.5 L 49 162.5 L 49 152.5 L 43.5 150 L 40.5 154 L 39 155.5 L 38 155.5 L 41 149.5 L 41.5 139 L 43.5 143 L 45.5 142 L 47.5 142 L 52 139.5 L 53.5 137 L 55.5 136 Z M 81 157 L 79 167 L 79 197 L 80 198 Q 78 203 82 202 L 84 199 L 84 167 L 82 163 L 83 160 L 82 160 L 81 157 Z " /><path fill="rgb(153,185,101)" stroke="rgb(153,185,101)" stroke-width="0" opacity="1" d="M 88 158 L 102.5 158 L 103 161 L 95.5 160 L 90.5 161 L 88 160 L 88 158 Z " /><path fill="rgb(153,185,101)" stroke="rgb(153,185,101)" stroke-width="0" opacity="1" d="M 112.5 167 L 117 168.5 L 118 171.5 L 118 241.5 L 117 244 L 112 244 L 112 242.5 L 111 241.5 L 111 179.5 L 110 172.5 L 112.5 167 Z M 112 172 L 112 183 L 115 193 L 115 197 L 112 203 L 112 235 L 113 238 L 116 239 L 117 234 L 117 210 L 116 209 L 116 182 L 117 181 L 116 175 Q 117 170 112 172 Z " /><path fill="rgb(153,185,101)" stroke="rgb(153,185,101)" stroke-width="0" opacity="1" d="M 93 208 L 102.5 208 L 103 209.5 L 104 210.5 L 104 239.5 L 101 247.5 L 102 250.5 L 102 264.5 L 104 268.5 L 104 336.5 L 102 340.5 L 101 353.5 L 99.5 355 Q 92.8 357.3 95 350.5 L 92 339.5 L 92 269.5 L 94 263.5 L 95 247.5 L 92 239.5 L 92 210.5 L 93 208 Z M 97 212 L 94 213 L 93 216 L 93 230 L 96 241 L 96 261 L 95 262 L 95 272 L 93 278 L 93 328 L 95 334 L 96 350 L 99 351 L 100 350 L 101 332 L 103 327 L 103 283 L 101 275 L 101 262 L 100 261 Q 98 241 103 230 Q 104 219 102 213 L 97 212 Z " /><path fill="rgb(153,185,101)" stroke="rgb(153,185,101)" stroke-width="0" opacity="1" d="M 160.5 208 L 163 223.5 L 162 223.5 Q 158.8 217.3 160.5 208 Z " /><path fill="rgb(153,185,101)" stroke="rgb(153,185,101)" stroke-width="0" opacity="1" d="M 33.5 212 L 34 222.5 L 33 222.5 L 33.5 212 Z " /><path fill="rgb(153,185,101)" stroke="rgb(153,185,101)" stroke-width="0" opacity="1" d="M 163.5 226 L 170 238.5 L 176 245.5 L 179 252.5 L 179 261.5 L 177 268.5 L 173.5 273 Q 170.9 272.2 172 275.5 L 168.5 282 L 167 283.5 L 163 292.5 L 162.5 310 L 161 293.5 L 165 283.5 L 169 279.5 Q 170.3 272.3 175 268.5 Q 178.3 262.8 177 252.5 L 171.5 241 L 169 239.5 Q 167.7 232.3 163 228.5 L 163.5 226 Z " /><path fill="rgb(153,185,101)" stroke="rgb(153,185,101)" stroke-width="0" opacity="1" d="M 120 260 Q 122.7 258.9 122 261.5 Q 124.8 263.3 123 269.5 Q 119.1 273.6 120 282.5 L 118 284.5 L 118 291.5 L 119 291.5 L 120.5 289 L 124 288 L 125 280.5 L 126.5 279 L 131 280.5 L 131 292.5 L 128 297.5 L 126 308.5 L 123 314.5 L 123 320 Q 129 322.3 127 315.5 L 129.5 310 L 131 312.5 L 132 328.5 Q 127.5 333 128 342.5 L 126 344.5 L 126 356.5 L 121.5 368 L 117.5 357 Q 113.6 362.6 115 373.5 L 116 375.5 L 114.5 378 L 113.5 375 L 112.5 377 L 110.5 370 L 107.5 376 L 106 375.5 L 105.5 377 L 105 374.5 L 106 373.5 L 106 360.5 L 105 359.5 L 105 350.5 L 107.5 341 L 112 352.5 L 112 358.5 L 113.5 360 L 115 352 Q 118 350.8 117 354.5 L 118 354.5 L 119 346.5 Q 112.1 342.9 114 330.5 L 117 317.5 L 115.5 315 L 114 324 L 110.5 325 Q 106.1 321.9 108 312.5 Q 112.6 305.6 111 292.5 L 113 289.5 L 114 280.5 L 116 278.5 L 116 273.5 L 119 267.5 L 120 260 Z M 124 292 L 121 293 L 120 296 Q 119 302 122 304 Q 121 306 124 305 L 126 299 L 126 292 L 124 292 Z M 114 299 L 112 301 L 112 312 L 111 313 L 112 316 L 118 309 Q 118 301 114 299 Z M 119 323 Q 115 329 117 340 Q 119 343 120 340 L 119 323 Z M 122 351 L 120 353 L 120 360 L 122 360 L 123 358 Q 124 350 122 351 Z M 108 353 L 107 360 L 109 360 Q 110 355 108 353 Z " /><path fill="rgb(153,185,101)" stroke="rgb(153,185,101)" stroke-width="0" opacity="1" d="M 77.5 269 L 80 274.5 L 80 282.5 L 82 287.5 L 83 297.5 L 85 300.5 L 85 307.5 L 88 311.5 L 88 322.5 L 87 325 Q 84.3 326.1 85 323.5 L 84 316.5 L 82.5 315 L 80 316.5 Q 82.9 323.1 82 333.5 L 80.5 338 Q 78.8 334.3 77 337.5 L 74 348.5 L 75 349.5 L 75 357.5 L 74 358.5 L 74 375.5 L 72.5 377 L 70 375.5 L 71 374.5 L 71 363.5 L 70 362.5 L 70 346.5 L 68 343.5 L 67 332.5 L 65 329.5 L 65 318.5 L 62 312.5 Q 63.6 304.4 60 301.5 L 60 291.5 L 62 290.5 L 63 297.5 L 66 300.5 L 66 306.5 L 69 311.5 Q 67.5 317.5 70.5 319 L 75 310.5 L 75 275.5 L 77.5 269 Z M 78 280 L 76 286 Q 74 292 77 294 L 76 331 L 79 330 L 79 320 L 78 319 L 79 310 L 81 308 L 81 310 L 84 311 L 84 304 L 82 301 Q 82 293 79 289 L 79 283 L 78 280 Z M 67 313 L 66 322 L 68 325 Q 67 333 70 338 L 72 329 L 71 326 L 70 324 Q 66 322 68 315 L 67 313 Z M 86 314 L 85 319 L 86 319 L 86 314 Z M 73 345 L 71 348 L 71 360 L 73 362 L 74 356 L 73 345 Z " /><path fill="rgb(153,185,101)" stroke="rgb(153,185,101)" stroke-width="0" opacity="1" d="M 33.5 281 L 35 301.5 L 34 301.5 L 33.5 281 Z " /><path fill="rgb(153,185,101)" stroke="rgb(153,185,101)" stroke-width="0" opacity="1" d="M 88.5 346 Q 92.4 349.6 91 358.5 Q 88.3 362.8 89 370.5 L 91 376.5 L 89.5 379 L 88.5 377 L 87.5 379 Q 84.4 377.6 85 372.5 L 86 367.5 L 83 357.5 L 83 352.5 L 84 349 L 88.5 346 Z " /><path fill="rgb(153,185,101)" stroke="rgb(153,185,101)" stroke-width="0" opacity="1" d="M 112.5 382 L 110.5 385 L 107 383.5 L 108.5 384 L 112.5 382 Z " /><path fill="rgb(153,185,101)" stroke="rgb(153,185,101)" stroke-width="0" opacity="1" d="M 123.5 428 L 123 429.5 L 118.5 436 L 120 433.5 L 123.5 428 Z " /><path fill="rgb(153,185,101)" stroke="rgb(153,185,101)" stroke-width="0" opacity="1" d="M 73.5 431 L 77 436.5 L 75 435.5 L 73.5 431 Z " /><path fill="rgb(153,185,101)" stroke="rgb(153,185,101)" stroke-width="0" opacity="1" d="M 117.5 437 L 117 438.5 L 108.5 450 L 106 449.5 L 111 446.5 L 117.5 437 Z " /><path fill="rgb(153,185,101)" stroke="rgb(153,185,101)" stroke-width="0" opacity="1" d="M 77.5 438 L 80 439 L 88 449.5 L 86.5 450 L 77.5 438 Z " /><path fill="rgb(153,185,101)" stroke="rgb(153,185,101)" stroke-width="0" opacity="1" d="M 89.5 450 Q 92.8 453.2 100.5 452 L 104.5 450 L 104.5 451 L 95.5 455 Q 90.5 453.5 89.5 450 Z " /><path fill="rgb(215,236,208)" stroke="rgb(215,236,208)" stroke-width="0" opacity="1" d="M 86.5 22 L 88.5 23 L 107.5 23 L 109.5 22 Q 112.5 23.5 111 29.5 L 113.5 33 L 117.5 32 L 121.5 43 L 124 42 L 125 51.5 L 126.5 53 L 128.5 52 L 131 63 Q 136.6 60.8 135 66.5 L 141 84.5 L 141 89.5 L 146 103.5 L 147 111.5 L 149 114.5 L 149 119.5 L 152 125.5 L 152 132.5 L 152 134.5 L 153 140.5 L 149.5 143 L 143 139.5 L 140 133.5 L 139 123.5 L 130 93.5 L 119 71 L 116 69.5 L 111.5 62 L 101.5 58 L 93.5 58 L 86.5 60 L 82 63.5 L 76 71.5 L 66 91.5 L 58 115.5 L 55 127.5 L 55 133.5 L 49.5 142 L 46.5 143 L 44.5 142 Q 43.3 144.3 42 141.5 L 41 137.5 L 44 131.5 L 44 125.5 L 47 120.5 L 47 104.5 L 49 101.5 L 50 93.5 L 52 90.5 Q 51.4 82.9 55 79.5 L 55 74.5 L 56.5 73 L 60 71.5 L 64 52 L 66.5 53 L 70.5 42 L 74.5 43 L 78.5 32 L 82.5 33 L 85 29.5 Q 83.5 23.5 86.5 22 Z " /><path fill="rgb(215,236,208)" stroke="rgb(215,236,208)" stroke-width="0" opacity="1" d="M 43.5 150 L 49 152.5 L 49 162.5 L 46 176.5 Q 46.9 186.9 44 193.5 L 44 206.5 L 41 227.5 L 41 285.5 L 42 286.5 L 44 319.5 L 46 328.5 L 47 345.5 L 49 351.5 L 49 359.5 L 48 362 L 40.5 362 L 40 360.5 Q 37.3 358.2 38 352.5 L 36 350.5 L 36 315.5 L 34 302.5 L 35 301.5 L 35 291.5 L 33 280.5 L 33 223.5 L 34 222.5 L 34 212.5 Q 31.3 210.8 33 204.5 L 36 197.5 L 36 173.5 L 38 170.5 L 39 158.5 L 38 156.5 L 39 154 L 42 152.5 L 43.5 150 Z " /><path fill="rgb(215,236,208)" stroke="rgb(215,236,208)" stroke-width="0" opacity="1" d="M 151.5 150 L 154 151.5 L 155 159.5 L 158 165.5 L 158 179.5 L 160 183.5 L 160 216.5 L 163 224.5 L 163 228.5 L 170.5 241 L 173 242.5 L 177 252.5 L 177 262.5 L 169 279.5 L 164 285.5 L 161 293.5 L 161 302.5 L 163 310.5 L 163 318.5 L 160 324.5 L 160 339.5 L 158 342.5 L 157 353.5 L 158 356.5 L 152.5 363 L 147 360.5 L 146 354.5 L 148 346.5 L 150 319.5 L 153 301.5 L 153 212.5 L 150 196.5 L 150 184.5 L 147 168.5 L 146 153.5 L 147 151 L 151.5 150 Z " /><path fill="rgb(215,236,208)" stroke="rgb(215,236,208)" stroke-width="0" opacity="1" d="M 80.5 157 L 84 166.5 L 84 198.5 L 81.5 202 Q 78.1 202.9 80 197.5 L 79 196.5 L 79 166.5 L 80.5 157 Z " /><path fill="rgb(215,236,208)" stroke="rgb(215,236,208)" stroke-width="0" opacity="1" d="M 112 172 Q 117.2 169.9 116 174.5 L 117 180.5 L 116 181.5 L 116 208.5 L 117 209.5 L 117 233.5 L 116 239 L 113 237.5 L 112 234.5 L 112 202.5 L 115 196.5 L 115 192.5 L 112 182.5 L 112 172 Z " /><path fill="rgb(215,236,208)" stroke="rgb(215,236,208)" stroke-width="0" opacity="1" d="M 96.5 212 L 102 213 Q 104.3 218.5 103 229.5 Q 97.9 241.4 100 260.5 L 101 261.5 L 101 274.5 L 103 282.5 L 103 326.5 L 101 331.5 L 100 349.5 L 98.5 351 L 96 349.5 L 95 333.5 L 93 327.5 L 93 277.5 L 95 271.5 L 95 261.5 L 96 260.5 L 96 240.5 L 93 229.5 L 93 215.5 L 94 213 L 96.5 212 Z " /><path fill="rgb(215,236,208)" stroke="rgb(215,236,208)" stroke-width="0" opacity="1" d="M 77.5 280 L 79 282.5 L 79 288.5 Q 82.2 292.8 82 300.5 L 84 303.5 L 84 311 L 81 309.5 L 80.5 308 L 79 309.5 L 78 318.5 L 79 319.5 L 79 329.5 L 76 331 L 77 293.5 Q 74.3 291.8 76 285.5 L 77.5 280 Z " /><path fill="rgb(215,236,208)" stroke="rgb(215,236,208)" stroke-width="0" opacity="1" d="M 123.5 292 L 126 292 L 126 298.5 L 124 305 Q 121.3 306.1 122 303.5 Q 118.5 302 120 295.5 L 121 293 L 123.5 292 Z " /><path fill="rgb(215,236,208)" stroke="rgb(215,236,208)" stroke-width="0" opacity="1" d="M 113.5 299 Q 118.3 301.3 118 308.5 L 111.5 316 L 111 312.5 L 112 311.5 L 112 300.5 L 113.5 299 Z " /><path fill="rgb(215,236,208)" stroke="rgb(215,236,208)" stroke-width="0" opacity="1" d="M 66.5 313 L 68 314.5 Q 66 322 69.5 324 L 71 325.5 L 72 328.5 L 69.5 338 Q 67.1 332.9 68 324.5 L 66 321.5 L 66.5 313 Z " /><path fill="rgb(215,236,208)" stroke="rgb(215,236,208)" stroke-width="0" opacity="1" d="M 85.5 314 L 86 318.5 L 85 318.5 L 85.5 314 Z " /><path fill="rgb(215,236,208)" stroke="rgb(215,236,208)" stroke-width="0" opacity="1" d="M 118.5 323 L 120 339.5 Q 118.5 342.5 117 339.5 Q 115.5 329 118.5 323 Z " /><path fill="rgb(215,236,208)" stroke="rgb(215,236,208)" stroke-width="0" opacity="1" d="M 72.5 345 L 74 355.5 L 72.5 362 L 71 359.5 L 71 347.5 L 72.5 345 Z " /><path fill="rgb(215,236,208)" stroke="rgb(215,236,208)" stroke-width="0" opacity="1" d="M 121.5 351 Q 124.5 350.5 123 357.5 L 122 360 L 120 359.5 L 120 352.5 L 121.5 351 Z " /><path fill="rgb(215,236,208)" stroke="rgb(215,236,208)" stroke-width="0" opacity="1" d="M 107.5 353 Q 110.5 354.6 109 360 L 107 359.5 L 107.5 353 Z " /><path fill="rgb(215,236,208)" stroke="rgb(215,236,208)" stroke-width="0" opacity="1" d="M 46.5 370 L 51 372 L 55 380.5 L 55 387.5 L 58 399.5 L 68 428.5 L 79 447.5 L 84.5 453 L 90 456.5 L 91.5 459 L 100.5 460 L 105.5 455 Q 112.1 454.1 115 449.5 L 130 421.5 L 138 396.5 L 141 378.5 L 145 371 L 149.5 370 L 151.5 371 L 153 370.5 L 155 375.5 L 152 381.5 L 152 397.5 L 149 403.5 L 149 408.5 L 147 411.5 L 146 419.5 L 144 422.5 L 144 426.5 L 141 433.5 L 141 438.5 L 138 444.5 L 138 449.5 Q 134.5 453.1 135 460 Q 129.8 457.9 131 462.5 L 127 479.5 L 125.5 481 L 118.5 480 L 114.5 491 L 107 490 L 105 501 Q 101.3 502.5 102 499.5 L 100 490 L 82.5 490 L 81.5 491 L 77.5 480 L 72 481 L 71 471.5 L 69.5 470 L 67.5 471 L 62 450 L 59.5 451 L 55 438.5 L 55 433.5 L 50 419.5 L 49 411.5 L 47 408.5 L 47 403.5 L 44 397.5 L 44 381.5 L 41 372.5 L 46.5 370 Z " /><path fill="rgb(215,236,208)" stroke="rgb(215,236,208)" stroke-width="0" opacity="1" d="M 110.5 370 Q 113.3 372.7 112 379.5 L 110.5 382 L 107 376.5 L 110.5 370 Z " /></svg>