<svg width="2048" height="2048" viewBox="0 0 512 512" version="1.1" xmlns="http://www.w3.org/2000/svg"  style="background:transparent"><path fill="rgb(102,153,102)" stroke="rgb(102,153,102)" stroke-width="0" opacity="1" d="M 190.5 172 L 196 176.5 L 199 184.5 Q 197.2 193.3 200 197.5 L 199 198.5 L 199 210.5 L 200 211.5 L 200 222.5 L 197 230 Q 194.8 233 187.5 232 L 184 229.5 Q 179.4 223.7 181 211.5 L 182 210.5 L 182 198.5 L 181 196.5 L 182 195.5 L 182 184.5 Q 183.2 176.7 188.5 173 L 190.5 172 Z M 191 186 L 187 191 L 187 212 L 186 213 L 187 224 L 192 226 L 195 221 L 194 192 L 191 186 Z " /><path fill="rgb(102,153,102)" stroke="rgb(102,153,102)" stroke-width="0" opacity="1" d="M 244.5 224 Q 257.5 222.5 262 229.5 Q 265.6 232.9 265 240.5 L 261.5 246 L 257.5 248 L 247.5 249 L 246.5 248 L 238.5 248 L 234 246 Q 230.7 243.2 232 234.5 L 238.5 226 L 244.5 224 Z M 245 232 L 242 233 Q 237 234 238 241 L 244 244 Q 255 246 259 241 L 258 236 Q 255 230 245 232 Z " /><path fill="rgb(102,153,102)" stroke="rgb(102,153,102)" stroke-width="0" opacity="1" d="M 187.5 248 Q 196.5 246.5 198 252.5 L 203 271.5 Q 208.7 277.3 211 286.5 L 212 295.5 L 211 296.5 L 211 311.5 L 212 312.5 L 212 320.5 L 208.5 327 L 199.5 330 L 188.5 330 L 183 325.5 L 182 323.5 L 182 266.5 L 181 265.5 L 181 257.5 L 185.5 249 L 187.5 248 Z M 190 254 L 186 259 L 187 275 L 188 276 L 188 309 L 187 310 L 187 322 L 191 325 Q 198 326 201 323 L 203 318 L 201 311 L 201 290 L 196 276 L 194 257 L 190 254 Z " /><path fill="rgb(102,153,102)" stroke="rgb(102,153,102)" stroke-width="0" opacity="1" d="M 304.5 264 Q 311.8 263.8 314 268.5 L 315 276.5 L 309.5 284 L 305.5 285 L 298 279.5 L 297 271.5 L 300.5 266 L 304.5 264 Z M 306 270 L 303 271 Q 302 277 306 278 L 310 275 L 309 271 L 306 270 Z " /><path fill="rgb(102,153,102)" stroke="rgb(102,153,102)" stroke-width="0" opacity="1" d="M 240.5 265 Q 255.9 263 263 268 L 265 272.5 L 265 322.5 L 261.5 328 L 257.5 330 L 245.5 331 L 238.5 330 L 233 325.5 L 232 322.5 L 232 272.5 L 235.5 267 L 240.5 265 Z M 247 269 L 240 271 L 237 275 L 237 285 L 238 286 L 238 311 L 237 312 L 238 323 L 243 326 L 255 326 L 257 325 L 260 320 L 259 313 L 259 283 L 260 282 L 259 274 L 255 270 L 247 269 Z " /><path fill="rgb(102,153,102)" stroke="rgb(102,153,102)" stroke-width="0" opacity="1" d="M 304.5 295 Q 310.9 295.1 313 299.5 L 315 304.5 L 315 323.5 L 310.5 329 L 303.5 330 L 298 325.5 L 297 323.5 L 297 304.5 L 302.5 296 L 304.5 295 Z M 305 303 L 301 312 Q 300 320 303 324 L 306 325 L 309 324 L 311 320 Q 312 310 309 305 L 305 303 Z " /><path fill="rgb(102,153,102)" stroke="rgb(102,153,102)" stroke-width="0" opacity="1" d="M 188.5 347 L 206.5 347 L 213 351.5 L 214 357.5 L 210.5 362 L 205.5 364 L 188.5 364 L 177.5 361 L 173 357.5 L 172 354.5 L 179.5 349 L 188.5 347 Z M 191 352 L 185 356 L 190 359 L 196 360 L 206 359 L 208 355 L 205 352 L 191 352 Z " /><path fill="rgb(102,153,102)" stroke="rgb(102,153,102)" stroke-width="0" opacity="1" d="M 239.5 347 L 256.5 347 L 263 351.5 L 264 357.5 L 259.5 363 L 256.5 364 L 239.5 364 L 234 360.5 L 233 352.5 L 236.5 348 L 239.5 347 Z M 244 351 L 238 355 L 239 359 L 243 360 L 255 360 L 257 359 L 259 356 L 258 354 Q 254 349 244 351 Z " /><path fill="rgb(102,153,102)" stroke="rgb(102,153,102)" stroke-width="0" opacity="1" d="M 288.5 347 L 314.5 348 L 324 353.5 Q 325 359 321.5 360 Q 309.9 365.9 290.5 364 L 284 361 L 282 354.5 L 286.5 348 L 288.5 347 Z M 296 351 L 289 353 L 288 356 L 289 358 L 296 360 L 310 358 L 311 355 L 306 352 L 296 351 Z " /><path fill="rgb(153,102,153)" stroke="rgb(153,102,153)" stroke-width="0" opacity="1" d="M 187.5 168 Q 196.8 166.7 199 172.5 L 202 186.5 L 202 225.5 L 196.5 234 L 189.5 236 Q 183 234.5 180 229.5 L 179 226.5 L 179 184.5 L 182 172.5 L 185.5 169 L 187.5 168 Z M 190 172 L 188 173 L 183 181 L 181 193 L 181 204 L 182 205 L 181 210 Q 179 222 183 229 L 188 232 L 196 231 L 200 223 L 200 210 L 199 209 L 200 204 L 199 185 L 196 177 L 192 172 L 190 172 Z " /><path fill="rgb(153,102,153)" stroke="rgb(153,102,153)" stroke-width="0" opacity="1" d="M 241.5 218 L 255.5 218 L 262 222.5 Q 268.8 228.7 267 243.5 L 262.5 249 L 253.5 251 L 242.5 251 L 236.5 250 L 231 246.5 Q 227.7 242.8 229 234.5 Q 231.1 224.1 238.5 219 L 241.5 218 Z M 244 224 L 237 227 L 232 235 Q 231 243 234 246 L 246 249 L 261 247 L 265 241 Q 266 233 262 230 Q 257 222 244 224 Z " /><path fill="rgb(153,102,153)" stroke="rgb(153,102,153)" stroke-width="0" opacity="1" d="M 188.5 244 Q 196.8 243.2 199 248.5 L 201 251.5 L 203 262.5 Q 210.6 270.4 214 282.5 L 215 287.5 L 215 323.5 L 211.5 329 L 207.5 331 L 191.5 333 Q 183.3 332.3 180 326.5 L 179 323.5 L 179 253.5 L 184.5 246 L 188.5 244 Z M 188 248 L 186 249 L 181 258 L 181 268 L 182 269 L 182 324 L 183 326 L 189 330 Q 201 331 209 327 L 212 322 L 212 311 L 211 310 L 211 301 L 212 300 L 212 292 L 210 283 L 203 271 L 198 253 Q 197 247 188 248 Z " /><path fill="rgb(153,102,153)" stroke="rgb(153,102,153)" stroke-width="0" opacity="1" d="M 302.5 262 Q 313.3 260.2 316 266.5 L 318 275.5 L 311 290.5 Q 320.7 300.3 318 322.5 L 312.5 331 L 301.5 332 L 296 327.5 Q 292.7 320.3 294 308.5 L 296 298.5 L 301 289.5 L 295 279.5 L 295 268.5 L 299.5 263 L 302.5 262 Z M 305 264 L 302 265 L 297 271 L 298 280 L 305 285 L 310 284 L 315 277 L 314 269 Q 312 264 305 264 Z M 304 295 L 297 304 L 297 314 L 296 315 L 298 326 L 304 330 Q 310 331 313 328 L 315 324 Q 313 317 316 316 L 315 304 L 313 300 Q 312 294 304 295 Z " /><path fill="rgb(153,102,153)" stroke="rgb(153,102,153)" stroke-width="0" opacity="1" d="M 238.5 263 L 258.5 263 L 266 267.5 Q 269.2 274.3 268 285.5 L 267 286.5 L 267 309.5 L 268 310.5 L 268 321.5 Q 267.1 328.1 262.5 331 Q 254.2 334.7 240.5 333 Q 233.9 332.1 231 327.5 L 230 325.5 L 230 283.5 L 229 282.5 L 229 273.5 L 233.5 265 L 238.5 263 Z M 241 265 L 236 267 L 232 272 L 232 323 L 233 326 L 239 330 L 245 331 L 252 331 L 261 329 L 265 323 L 265 273 L 263 269 L 257 265 L 241 265 Z " /><path fill="rgb(153,102,153)" stroke="rgb(153,102,153)" stroke-width="0" opacity="1" d="M 288.5 344 L 320.5 346 L 329 351.5 L 330 356.5 L 325.5 362 L 312.5 366 L 287.5 366 L 281 360.5 L 280 351.5 L 283.5 346 L 288.5 344 Z M 288 347 L 282 355 L 283 360 L 291 364 Q 310 366 322 360 Q 325 359 324 354 L 316 348 L 288 347 Z " /><path fill="rgb(153,102,153)" stroke="rgb(153,102,153)" stroke-width="0" opacity="1" d="M 182.5 345 L 209.5 345 L 214 347 L 217 356.5 L 213.5 363 L 208.5 366 L 184.5 366 L 173.5 363 L 168 359.5 L 167 352.5 L 170.5 348 L 182.5 345 Z M 188 347 L 177 350 L 172 355 L 172 357 L 180 362 L 189 364 L 206 364 L 211 362 Q 216 361 214 353 L 208 347 L 188 347 Z " /><path fill="rgb(153,102,153)" stroke="rgb(153,102,153)" stroke-width="0" opacity="1" d="M 237.5 345 L 258.5 345 L 265 349.5 L 266 359.5 L 262.5 364 Q 255.8 368.3 243.5 367 L 235.5 365 L 231 360.5 L 230 352.5 L 233.5 347 L 237.5 345 Z M 240 347 L 237 348 L 232 355 L 233 360 L 240 364 L 257 364 L 264 359 L 263 352 L 258 347 L 240 347 Z " /><path fill="rgb(153,102,153)" stroke="rgb(153,102,153)" stroke-width="0" opacity="1" d="M 359.5 369 L 366 369 L 366 372.5 L 361.5 380 Q 358.3 383 352 382 L 353 379.5 L 353 377.5 L 353 374.5 L 356 370 L 359.5 369 Z " /><path fill="rgb(153,153,102)" stroke="rgb(153,153,102)" stroke-width="0" opacity="1" d="M 181.5 198 L 182 203.5 L 181 203.5 L 181.5 198 Z " /><path fill="rgb(153,153,102)" stroke="rgb(153,153,102)" stroke-width="0" opacity="1" d="M 199.5 198 L 200 203.5 L 199 203.5 L 199.5 198 Z " /><path fill="rgb(241,241,241)" stroke="rgb(241,241,241)" stroke-width="0" opacity="1" d="M 140.5 147 L 355.5 147 L 364 152.5 L 366 157.5 L 366 369 L 356 370 L 352 378.5 L 352 380.5 L 351.5 382 L 138.5 382 L 132 376.5 L 131 374.5 L 131 155.5 L 134.5 150 L 140.5 147 Z M 188 168 L 186 169 L 182 173 L 179 185 L 179 227 L 180 230 Q 183 234 190 236 L 197 234 L 202 226 L 202 187 L 199 173 Q 197 167 188 168 Z M 242 218 L 239 219 Q 231 224 229 235 Q 228 243 231 247 L 237 250 L 243 251 L 254 251 L 263 249 L 267 244 Q 269 229 262 223 L 256 218 L 242 218 Z M 189 244 L 185 246 L 179 254 L 179 324 L 180 327 Q 183 332 192 333 L 208 331 L 212 329 L 215 324 L 215 288 L 214 283 Q 211 270 203 263 L 201 252 L 199 249 Q 197 243 189 244 Z M 303 262 L 300 263 L 295 269 L 295 280 L 301 290 L 296 299 L 294 309 Q 293 320 296 328 L 302 332 L 313 331 L 318 323 Q 321 300 311 291 L 318 276 L 316 267 Q 313 260 303 262 Z M 239 263 L 234 265 L 229 274 L 229 283 L 230 284 L 230 326 L 231 328 Q 234 332 241 333 Q 254 335 263 331 Q 267 328 268 322 L 268 311 L 267 310 L 267 287 L 268 286 Q 269 274 266 268 L 259 263 L 239 263 Z M 289 344 L 284 346 L 280 352 L 281 361 L 288 366 L 313 366 L 326 362 L 330 357 L 329 352 L 321 346 L 289 344 Z M 183 345 L 171 348 L 167 353 L 168 360 L 174 363 L 185 366 L 209 366 L 214 363 L 217 357 L 214 347 L 210 345 L 183 345 Z M 238 345 L 234 347 L 230 353 L 231 361 L 236 365 L 244 367 Q 256 368 263 364 L 266 360 L 265 350 L 259 345 L 238 345 Z " /></svg>