<svg width="2048" height="2048" viewBox="0 0 512 512" version="1.1" xmlns="http://www.w3.org/2000/svg"  style="background:transparent"><path fill="rgb(0,0,255)" stroke="rgb(0,0,255)" stroke-width="0" opacity="1" d="M 254.5 184 Q 264.6 182.4 267 188.5 Q 268 195 263.5 196 L 257.5 197 L 251 193.5 L 250 189.5 L 254.5 184 Z " /><path fill="rgb(0,0,255)" stroke="rgb(0,0,255)" stroke-width="0" opacity="1" d="M 287.5 185 L 294 189.5 L 292.5 194 L 284.5 195 L 281 192.5 L 282 187 L 287.5 185 Z " /><path fill="rgb(0,0,255)" stroke="rgb(0,0,255)" stroke-width="0" opacity="1" d="M 302.5 212 Q 310 211 311 216.5 L 312 223.5 L 307.5 229 L 305.5 230 L 289.5 230 L 282 235.5 L 280 241.5 Q 281.8 252.2 279 258.5 L 263.5 279 L 254 284 L 252 287.5 L 252 292.5 L 260 298 Q 259 301 262 300 L 262 302.5 L 263 307.5 L 260.5 311 L 250 316.5 L 247 325.5 L 243.5 329 L 234.5 331 L 233.5 330 L 221.5 330 L 214 336.5 L 211 342 L 204.5 343 L 200 335.5 L 199 283.5 L 201 275.5 L 205.5 270 Q 210.8 268.8 212 271.5 L 214 274.5 L 217 288.5 L 220.5 294 L 225.5 295 L 228 294 Q 232.8 286.5 231 271.5 L 225.5 266 Q 219.1 265.9 217 261.5 Q 216 253.5 220.5 251 L 231.5 246 L 236 241.5 L 238 238.5 L 247 230.5 L 253.5 219 L 260.5 216 L 276.5 214 L 289.5 217 Q 297.6 216.1 302.5 212 Z M 265 224 L 261 226 L 258 230 L 258 249 L 259 251 L 264 254 L 268 253 L 272 247 L 272 240 Q 276 234 275 225 Q 272 223 265 224 Z M 244 257 L 239 261 Q 242 269 241 280 L 255 274 L 258 270 L 258 264 L 255 258 Q 251 256 244 257 Z M 209 296 L 208 310 L 207 311 Q 205 321 210 325 L 223 321 L 233 324 Q 239 325 240 322 L 239 316 L 219 305 L 209 296 Z " /><path fill="rgb(245,245,245)" stroke="rgb(245,245,245)" stroke-width="0" opacity="1" d="M 156.5 147 L 339.5 147 L 354.5 150 L 362 155.5 L 366 172.5 L 366 354.5 Q 363.3 369.8 352.5 377 L 342.5 382 L 153.5 382 Q 142.6 379.9 137 372.5 L 131 359.5 L 131 170.5 Q 133.8 158.8 142.5 153 Q 147.6 148.1 156.5 147 Z M 255 184 L 250 190 L 251 194 L 258 197 L 264 196 Q 268 195 267 189 Q 265 182 255 184 Z M 288 185 L 282 187 L 281 193 L 285 195 L 293 194 L 294 190 L 288 185 Z M 303 212 Q 298 216 290 217 L 277 214 L 261 216 L 254 219 L 247 231 L 238 239 L 236 242 L 232 246 L 221 251 Q 216 254 217 262 Q 219 266 226 266 L 231 272 Q 233 287 228 294 L 226 295 L 221 294 L 217 289 L 214 275 L 212 272 Q 211 269 206 270 L 201 276 L 199 284 L 200 336 L 205 343 L 211 342 L 214 337 L 222 330 L 234 330 L 235 331 L 244 329 L 247 326 L 250 317 L 261 311 L 263 308 L 262 303 L 262 300 Q 259 301 260 298 L 252 293 L 252 288 L 254 284 L 264 279 L 279 259 Q 282 252 280 242 L 282 236 L 290 230 L 306 230 L 308 229 L 312 224 L 311 217 Q 310 211 303 212 Z " /></svg>