<svg width="2048" height="2048" viewBox="0 0 512 512" version="1.1" xmlns="http://www.w3.org/2000/svg"  style="background:transparent"><path fill="rgb(0,0,255)" stroke="rgb(0,0,255)" stroke-width="0" opacity="1" d="M 253.5 199 Q 262.9 197.7 265 203.5 Q 268 208.5 267 217.5 L 266 218.5 L 266 240.5 L 269.5 246 L 273.5 248 L 322.5 248 L 329 252.5 L 331 256.5 L 331 272.5 L 327.5 279 Q 322.9 282.4 314.5 282 L 313.5 281 L 276.5 281 Q 269.9 281.9 267 286.5 L 266 289.5 L 266 311.5 L 267 312.5 L 267 320.5 L 262.5 329 L 255.5 331 L 248 326.5 Q 245 321.5 246 312.5 L 247 311.5 L 247 289.5 L 242.5 283 L 236.5 281 L 199.5 281 L 194.5 282 L 188.5 281 L 184 277.5 L 182 272.5 L 182 256.5 L 187.5 249 L 190.5 248 L 239.5 248 L 244 246 L 247 240.5 L 247 218.5 L 246 217.5 L 246 209.5 Q 246.9 202.9 251.5 200 L 253.5 199 Z M 255 205 L 252 208 L 251 213 L 252 215 L 252 232 L 253 233 L 252 246 L 250 250 L 243 254 L 201 254 L 200 253 Q 193 252 190 255 L 187 259 L 187 271 L 188 273 L 193 276 L 205 276 L 206 275 L 211 276 L 215 275 L 236 275 L 247 277 L 251 282 L 253 293 L 252 316 L 251 317 L 252 322 Q 253 326 258 325 Q 262 323 262 318 L 260 308 Q 258 291 262 282 L 269 276 L 277 276 L 278 275 L 299 275 L 300 276 L 304 275 L 309 276 L 321 276 L 323 275 L 326 271 Q 328 259 324 255 L 319 253 L 313 254 L 271 254 L 266 252 L 261 246 L 260 241 Q 258 224 262 214 L 260 207 Q 259 204 255 205 Z " /><path fill="rgb(249,249,249)" stroke="rgb(249,249,249)" stroke-width="0" opacity="1" d="M 140.5 147 L 372.5 147 L 380 151.5 L 382 155.5 L 382 374.5 L 376.5 381 L 374.5 382 L 138.5 382 L 132 376.5 L 131 374.5 L 131 155.5 L 134.5 150 L 140.5 147 Z M 254 199 L 252 200 Q 247 203 246 210 L 246 218 L 247 219 L 247 241 L 244 246 L 240 248 L 191 248 L 188 249 L 182 257 L 182 273 L 184 278 L 189 281 L 195 282 L 200 281 L 237 281 L 243 283 L 247 290 L 247 312 L 246 313 Q 245 322 248 327 L 256 331 L 263 329 L 267 321 L 267 313 L 266 312 L 266 290 L 267 287 Q 270 282 277 281 L 314 281 L 315 282 Q 323 282 328 279 L 331 273 L 331 257 L 329 253 L 323 248 L 274 248 L 270 246 L 266 241 L 266 219 L 267 218 Q 268 209 265 204 Q 263 198 254 199 Z " /></svg>