<svg width="2048" height="2048" viewBox="0 0 512 512" version="1.1" xmlns="http://www.w3.org/2000/svg"  style="background:transparent"><path fill="rgb(6,154,255)" stroke="rgb(6,154,255)" stroke-width="0" opacity="1" d="M 217.5 24 L 223.5 25 L 289.5 25 L 295.5 24 L 302.5 28 L 319.5 31 L 325.5 34 L 335.5 34 L 379.5 56 L 391 63.5 L 394 69 L 403 76.5 L 405.5 80 L 419.5 86 L 426 92.5 L 434 107.5 L 444 119 L 450 122 L 452 125.5 L 460 138.5 L 479 178.5 Q 476.3 180.3 478 186.5 L 482 194.5 L 484 207.5 L 489 217.5 L 489 222.5 L 488 223.5 L 488 289.5 L 489 295.5 L 484 305.5 Q 483.7 318.7 478 326.5 L 478 333.5 L 479 335.5 L 460 374.5 L 450 391 L 444 394 L 435.5 404 L 434 405.5 L 431 410 L 423 415.5 L 416.5 423 L 414 424.5 L 410 431 L 404 434 L 395.5 444 L 394 445.5 L 389.5 451 L 335.5 479 L 325.5 479 L 319.5 482 L 305.5 484 L 295.5 489 L 290.5 489 L 289.5 488 L 223.5 488 L 217.5 489 L 207.5 484 L 193.5 482 L 187.5 479 L 177.5 479 L 138.5 460 L 122 449.5 L 119 444 L 109 435.5 L 107.5 434 L 103 431 L 97.5 423 L 92 420 L 88.5 414 L 82 410 L 79 404 L 69 395.5 L 67.5 394 L 63 391 L 53 374.5 L 35 338.5 L 34 332.5 L 35 325.5 L 31 311.5 L 28 292.5 L 24 285.5 L 24 280.5 L 25 279.5 L 25 223.5 L 24 217.5 L 29 206.5 L 32 191.5 L 35 186.5 L 35 179.5 L 34 177.5 L 61 124 L 64.5 122 L 69 119 L 77.5 109 L 79 107.5 L 82 103 L 90 97.5 L 93.5 92 L 99 88.5 L 103 82 L 109 79 L 117.5 69 L 119 67.5 L 124.5 61 L 177.5 34 L 187.5 34 L 193.5 31 L 210.5 28 L 217.5 24 Z M 255 119 L 253 120 L 243 132 Q 241 142 234 147 L 229 159 L 223 165 L 220 174 Q 212 179 210 191 L 204 197 L 199 209 L 194 214 L 189 226 L 184 231 Q 181 243 172 251 L 169 260 L 163 266 L 159 277 L 153 283 L 150 292 L 143 300 L 139 310 Q 131 315 129 326 L 130 332 L 137 337 Q 143 339 145 336 L 369 336 L 370 337 L 379 336 L 384 329 Q 383 320 379 315 L 374 310 Q 371 297 362 290 L 360 283 L 355 278 L 350 266 L 344 260 L 339 248 Q 332 241 329 231 L 324 226 L 319 214 L 314 209 Q 311 197 303 191 L 300 182 L 293 174 L 290 165 L 284 159 L 279 147 L 274 142 L 270 132 L 263 123 L 259 119 L 255 119 Z M 138 351 L 133 353 L 129 359 L 130 370 Q 133 374 140 375 L 374 375 L 380 373 L 384 368 L 383 356 L 376 351 L 138 351 Z " /><path fill="rgb(6,154,255)" stroke="rgb(6,154,255)" stroke-width="0" opacity="1" d="M 254.5 168 L 258.5 168 L 264 173.5 L 276.5 194 L 278 195.5 Q 282.7 200.3 284 208.5 L 290 214.5 Q 291.4 223.1 296.5 228 L 298 229.5 Q 302.2 233.3 303 240.5 L 310 248.5 L 314 258.5 L 319 263.5 L 324 275.5 L 329 280.5 Q 331.5 291 339 296.5 L 340 307.5 L 335.5 311 L 177.5 311 L 173 307.5 L 172 303.5 L 174 296.5 L 179 291.5 Q 181.6 281.1 189 275.5 Q 191.2 264.2 199 258.5 L 204 246.5 L 210 240.5 L 215 228 L 218 226.5 L 223 214.5 L 230 206.5 Q 231.4 197.9 236.5 193 L 238 191.5 L 245 178 Q 247.7 179.1 247 176.5 L 254.5 168 Z M 252 233 L 247 235 Q 244 241 237 243 L 234 246 L 231 254 Q 229 268 235 274 L 243 281 L 256 285 L 271 281 L 275 276 L 278 274 L 282 266 Q 284 252 279 246 L 265 234 L 252 233 Z " /><path fill="rgb(223,240,255)" stroke="rgb(223,240,255)" stroke-width="0" opacity="1" d="M 254.5 119 L 258.5 119 L 263 122.5 L 270 131.5 L 274 141.5 L 279 146.5 L 284 158.5 L 290 164.5 L 293 173.5 L 300 181.5 L 303 190.5 Q 311.1 196.9 314 208.5 L 319 213.5 L 324 225.5 L 329 230.5 Q 331.6 241.4 339 247.5 L 344 259.5 L 350 265.5 L 355 277.5 L 360 282.5 L 362 289.5 Q 370.5 297 374 309.5 L 379 314.5 Q 383.3 319.7 384 328.5 L 378.5 336 L 369.5 337 L 368.5 336 L 144.5 336 Q 142.7 338.8 136.5 337 L 130 331.5 L 129 325.5 Q 131.5 315 139 309.5 L 143 299.5 L 150 291.5 L 153 282.5 L 159 276.5 L 163 265.5 L 169 259.5 L 172 250.5 Q 180.8 243.3 184 230.5 L 189 225.5 L 194 213.5 L 199 208.5 L 204 196.5 L 210 190.5 Q 212.1 179.1 220 173.5 L 223 164.5 L 229 158.5 L 234 146.5 Q 241.1 141.6 243 131.5 L 252.5 120 L 254.5 119 Z M 255 168 L 247 177 Q 248 179 245 178 L 238 192 L 237 193 Q 231 198 230 207 L 223 215 L 218 227 L 215 228 L 210 241 L 204 247 L 199 259 Q 191 264 189 276 Q 182 281 179 292 L 174 297 L 172 304 L 173 308 L 178 311 L 336 311 L 340 308 L 339 297 Q 331 291 329 281 L 324 276 L 319 264 L 314 259 L 310 249 L 303 241 Q 302 233 298 230 L 297 228 Q 291 223 290 215 L 284 209 Q 283 200 278 196 L 277 194 L 264 174 L 259 168 L 255 168 Z " /><path fill="rgb(223,240,255)" stroke="rgb(223,240,255)" stroke-width="0" opacity="1" d="M 251.5 233 L 264.5 234 L 279 245.5 Q 283.6 252.4 282 265.5 L 278 274 L 275 275.5 L 270.5 281 L 255.5 285 L 242.5 281 L 235 273.5 Q 229 267.5 231 253.5 L 234 245.5 L 236.5 243 Q 243.8 241.3 246.5 235 L 251.5 233 Z " /><path fill="rgb(223,240,255)" stroke="rgb(223,240,255)" stroke-width="0" opacity="1" d="M 137.5 351 L 375.5 351 L 383 355.5 L 384 367.5 L 379.5 373 L 373.5 375 L 139.5 375 Q 132.9 374.1 130 369.5 L 129 358.5 L 132.5 353 L 137.5 351 Z " /></svg>