<svg width="2048" height="2048" viewBox="0 0 512 512" version="1.1" xmlns="http://www.w3.org/2000/svg"  style="background:transparent"><path fill="rgb(0,102,255)" stroke="rgb(0,102,255)" stroke-width="0" opacity="1" d="M 232 331 L 236 332.5 Q 237.2 337.1 232 335 L 232 331 Z " /><path fill="rgb(0,102,255)" stroke="rgb(0,102,255)" stroke-width="0" opacity="1" d="M 278.5 331 Q 283.1 329.8 281 335 Q 275.8 337.1 277 332.5 L 278.5 331 Z " /><path fill="rgb(4,154,255)" stroke="rgb(4,154,255)" stroke-width="0" opacity="1" d="M 217.5 24 L 223.5 25 L 289.5 25 L 295.5 24 L 302.5 28 L 319.5 31 L 325.5 34 L 335.5 34 L 379.5 56 L 391 63.5 L 394 69 L 403 76.5 L 405.5 80 L 419.5 86 L 426 92.5 L 434 107.5 L 444 119 L 450 122 L 452 125.5 L 460 138.5 L 479 178.5 Q 476.3 180.3 478 186.5 L 482 194.5 L 484 207.5 L 489 217.5 L 489 222.5 L 488 223.5 L 488 289.5 L 489 295.5 L 484 305.5 Q 483.7 318.7 478 326.5 L 478 333.5 L 479 335.5 L 460 374.5 L 450 391 L 444 394 L 435.5 404 L 434 405.5 L 431 410 L 423 415.5 L 416.5 423 L 414 424.5 L 410 431 L 404 434 L 395.5 444 L 394 445.5 L 389.5 451 L 335.5 479 L 325.5 479 L 319.5 482 L 305.5 484 L 295.5 489 L 290.5 489 L 289.5 488 L 223.5 488 L 217.5 489 L 207.5 484 L 193.5 482 L 187.5 479 L 177.5 479 L 138.5 460 L 122 449.5 L 119 444 L 109 435.5 L 107.5 434 L 103 431 L 97.5 423 L 92 420 L 88.5 414 L 82 410 L 79 404 L 69 395.5 L 67.5 394 L 63 391 L 53 374.5 L 35 338.5 L 34 332.5 L 35 325.5 L 31 311.5 L 28 292.5 L 24 285.5 L 24 280.5 L 25 279.5 L 25 223.5 L 24 217.5 L 29 206.5 L 32 191.5 L 35 186.5 L 35 179.5 L 34 177.5 L 61 124 L 64.5 122 L 69 119 L 77.5 109 L 79 107.5 L 82 103 L 90 97.5 L 93.5 92 L 99 88.5 L 103 82 L 109 79 L 117.5 69 L 119 67.5 L 124.5 61 L 177.5 34 L 187.5 34 L 193.5 31 L 210.5 28 L 217.5 24 Z M 253 134 L 212 143 Q 205 150 195 152 Q 190 159 182 162 L 178 167 L 176 168 L 162 183 Q 160 191 153 196 L 150 207 L 144 217 Q 143 229 138 238 L 134 240 L 127 249 L 128 258 L 135 263 L 140 269 L 144 287 L 149 295 L 154 310 L 166 325 L 167 327 L 193 350 Q 204 353 211 360 L 237 366 L 244 376 Q 248 380 255 382 Q 262 383 266 379 L 271 372 L 279 365 L 303 360 Q 309 353 320 351 L 346 327 L 348 325 L 361 306 L 364 295 L 370 284 L 373 269 L 380 263 L 386 255 L 385 246 L 377 239 L 372 233 L 370 220 L 364 210 L 360 196 L 343 174 L 337 168 L 335 166 L 319 152 Q 308 150 302 143 L 277 138 L 269 135 L 253 134 Z " /><path fill="rgb(4,154,255)" stroke="rgb(4,154,255)" stroke-width="0" opacity="1" d="M 247.5 158 L 265.5 158 L 289.5 162 L 313 175.5 L 315.5 179 L 324 185.5 L 327.5 190 L 331 192.5 L 336.5 202 L 338 203.5 Q 342.7 207.8 343 216.5 L 349 225.5 L 349 232.5 L 345.5 238 L 340.5 240 L 172.5 240 L 165 235.5 L 164 225.5 L 170 216.5 Q 171 207.2 175 202 L 178 200.5 L 184.5 190 L 189 186.5 L 194.5 180 L 200 176.5 L 202.5 173 Q 213.5 170 220.5 163 L 247.5 158 Z " /><path fill="rgb(4,154,255)" stroke="rgb(4,154,255)" stroke-width="0" opacity="1" d="M 172.5 263 L 236.5 263 L 241 266.5 L 243 271.5 L 243 330.5 L 244 334.5 Q 243.4 340.9 238.5 343 L 231.5 343 L 220.5 340 L 212.5 334 L 201 328.5 L 197.5 324 L 189 317.5 L 185.5 313 L 182 310.5 L 176.5 301 L 175 299.5 Q 170.3 295.2 170 286.5 L 164 277.5 L 164 270.5 L 166 266 L 172.5 263 Z M 232 331 L 232 335 Q 237 337 236 333 L 232 331 Z " /><path fill="rgb(4,154,255)" stroke="rgb(4,154,255)" stroke-width="0" opacity="1" d="M 276.5 263 L 340.5 263 L 347 266 Q 350 269.3 349 277.5 L 344 284.5 Q 342.4 294.8 338 301 L 335 302.5 L 328.5 313 L 324 316.5 L 318.5 323 L 312 327.5 L 310.5 330 Q 299.5 333 292.5 340 L 281.5 343 L 274.5 343 Q 268.6 340.4 269 331.5 L 270 330.5 L 270 271.5 L 274.5 264 L 276.5 263 Z M 279 331 L 277 333 Q 276 337 281 335 Q 283 330 279 331 Z " /><path fill="rgb(222,240,255)" stroke="rgb(222,240,255)" stroke-width="0" opacity="1" d="M 252.5 134 L 268.5 135 L 276.5 138 L 301.5 143 Q 307.7 149.8 318.5 152 L 335 165.5 L 336.5 168 L 343 173.5 L 360 195.5 L 364 209.5 L 370 219.5 L 372 232.5 L 376.5 239 L 385 245.5 L 386 254.5 L 379.5 263 L 373 268.5 L 370 283.5 L 364 294.5 L 361 305.5 L 347.5 325 L 346 326.5 L 319.5 351 Q 308.7 353.2 302.5 360 L 278.5 365 L 271 371.5 L 265.5 379 Q 262.1 382.6 254.5 382 Q 247.5 380.4 244 375.5 L 236.5 366 L 210.5 360 Q 203.5 353 192.5 350 L 167 326.5 L 165.5 325 L 154 309.5 L 149 294.5 L 144 286.5 L 140 268.5 L 134.5 263 L 128 257.5 L 127 248.5 L 133.5 240 L 138 237.5 Q 143.2 229.2 144 216.5 L 150 206.5 L 153 195.5 Q 159.7 191.2 162 182.5 L 175.5 168 L 178 166.5 L 181.5 162 Q 189.9 158.9 194.5 152 Q 205.3 149.8 211.5 143 L 252.5 134 Z M 248 158 L 221 163 Q 214 170 203 173 L 200 177 L 195 180 L 189 187 L 185 190 L 178 201 L 175 202 Q 171 207 170 217 L 164 226 L 165 236 L 173 240 L 341 240 L 346 238 L 349 233 L 349 226 L 343 217 Q 343 208 338 204 L 337 202 L 331 193 L 328 190 L 324 186 L 316 179 L 313 176 L 290 162 L 266 158 L 248 158 Z M 173 263 L 166 266 L 164 271 L 164 278 L 170 287 Q 170 295 175 300 L 177 301 L 182 311 L 186 313 L 189 318 L 198 324 L 201 329 L 213 334 L 221 340 L 232 343 L 239 343 Q 243 341 244 335 L 243 331 L 243 272 L 241 267 L 237 263 L 173 263 Z M 277 263 L 275 264 L 270 272 L 270 331 L 269 332 Q 269 340 275 343 L 282 343 L 293 340 Q 300 333 311 330 L 312 328 L 319 323 L 324 317 L 329 313 L 335 303 L 338 301 Q 342 295 344 285 L 349 278 Q 350 269 347 266 L 341 263 L 277 263 Z " /></svg>