<svg width="2048" height="2048" viewBox="0 0 512 512" version="1.1" xmlns="http://www.w3.org/2000/svg"  style="background:transparent"><path fill="rgb(2,153,255)" stroke="rgb(2,153,255)" stroke-width="0" opacity="1" d="M 217.5 24 L 223.5 25 L 289.5 25 L 295.5 24 L 302.5 28 L 319.5 31 L 325.5 34 L 335.5 34 L 379.5 56 L 391 63.5 L 394 69 L 403 76.5 L 405.5 80 L 419.5 86 L 426 92.5 L 434 107.5 L 444 119 L 450 122 L 452 125.5 L 460 138.5 L 479 178.5 Q 476.3 180.3 478 186.5 L 482 194.5 L 484 207.5 L 489 217.5 L 489 222.5 L 488 223.5 L 488 289.5 L 489 295.5 L 484 305.5 Q 483.7 318.7 478 326.5 L 478 333.5 L 479 335.5 L 460 374.5 L 450 391 L 444 394 L 435.5 404 L 434 405.5 L 431 410 L 423 415.5 L 416.5 423 L 414 424.5 L 410 431 L 404 434 L 395.5 444 L 394 445.5 L 389.5 451 L 335.5 479 L 325.5 479 L 319.5 482 L 305.5 484 L 295.5 489 L 290.5 489 L 289.5 488 L 223.5 488 L 217.5 489 L 207.5 484 L 193.5 482 L 187.5 479 L 177.5 479 L 138.5 460 L 122 449.5 L 119 444 L 109 435.5 L 107.5 434 L 103 431 L 97.5 423 L 92 420 L 88.5 414 L 82 410 L 79 404 L 69 395.5 L 67.5 394 L 63 391 L 53 374.5 L 35 338.5 L 34 332.5 L 35 325.5 L 31 311.5 L 28 292.5 L 24 285.5 L 24 280.5 L 25 279.5 L 25 223.5 L 24 217.5 L 29 206.5 L 32 191.5 L 35 186.5 L 35 179.5 L 34 177.5 L 61 124 L 64.5 122 L 69 119 L 77.5 109 L 79 107.5 L 82 103 L 90 97.5 L 93.5 92 L 99 88.5 L 103 82 L 109 79 L 117.5 69 L 119 67.5 L 124.5 61 L 177.5 34 L 187.5 34 L 193.5 31 L 210.5 28 L 217.5 24 Z M 250 118 L 233 122 L 221 132 L 212 142 L 204 163 L 204 176 L 213 199 L 219 202 L 221 207 L 241 219 L 251 221 L 270 220 L 289 210 L 292 206 L 299 200 L 309 175 L 308 159 Q 303 152 301 142 L 294 134 L 278 121 L 264 118 L 250 118 Z M 171 272 L 163 274 L 146 284 L 133 299 L 128 318 L 128 331 L 131 345 Q 133 353 140 357 L 140 359 L 154 370 L 173 375 L 186 375 L 203 371 L 217 360 L 228 343 L 231 333 L 230 311 Q 229 304 224 302 L 221 294 L 217 290 L 213 286 L 210 282 L 202 279 Q 199 274 193 273 L 171 272 Z M 327 272 L 318 274 Q 313 280 304 282 L 300 287 L 296 290 L 285 306 L 282 317 L 283 338 L 294 358 L 309 370 L 328 375 L 341 375 L 355 372 L 360 370 L 370 362 L 381 348 L 385 331 L 385 318 L 383 307 L 378 297 L 377 295 L 370 287 L 367 283 L 348 273 L 327 272 Z " /><path fill="rgb(239,248,255)" stroke="rgb(239,248,255)" stroke-width="0" opacity="1" d="M 249.5 118 L 263.5 118 L 277.5 121 L 294 133.5 L 301 141.5 Q 302.6 151.9 308 158.5 L 309 174.5 L 298.5 200 L 292 205.5 L 288.5 210 L 269.5 220 L 250.5 221 L 240.5 219 L 221 206.5 L 219 202 L 213 198.5 L 204 175.5 L 204 162.5 L 212 141.5 L 220.5 132 L 232.5 122 L 249.5 118 Z " /><path fill="rgb(239,248,255)" stroke="rgb(239,248,255)" stroke-width="0" opacity="1" d="M 170.5 272 L 192.5 273 Q 198.6 274.4 201.5 279 L 209.5 282 L 213 285.5 L 216.5 290 L 221 293.5 L 224 301.5 Q 228.6 304.4 230 310.5 L 231 332.5 L 228 342.5 L 216.5 360 L 202.5 371 L 185.5 375 L 172.5 375 L 153.5 370 L 140 358.5 L 140 356.5 Q 133.2 352.7 131 344.5 L 128 330.5 L 128 317.5 L 133 298.5 L 145.5 284 L 162.5 274 L 170.5 272 Z " /><path fill="rgb(239,248,255)" stroke="rgb(239,248,255)" stroke-width="0" opacity="1" d="M 326.5 272 L 347.5 273 L 366.5 283 L 370 286.5 L 376.5 295 L 378 296.5 L 383 306.5 L 385 317.5 L 385 330.5 L 381 347.5 L 369.5 362 L 359.5 370 L 354.5 372 L 340.5 375 L 327.5 375 L 308.5 370 L 294 357.5 L 283 337.5 L 282 316.5 L 285 305.5 L 295.5 290 L 300 286.5 L 303.5 282 Q 312.5 280 317.5 274 L 326.5 272 Z " /></svg>