<svg width="2048" height="2048" viewBox="0 0 512 512" version="1.1" xmlns="http://www.w3.org/2000/svg"  style="background:transparent"><path fill="rgb(0,102,255)" stroke="rgb(0,102,255)" stroke-width="0" opacity="1" d="M 240 366 Q 244 364.6 242 371.5 L 240 370.5 L 240 366 Z " /><path fill="rgb(5,154,255)" stroke="rgb(5,154,255)" stroke-width="0" opacity="1" d="M 217.5 24 L 223.5 25 L 289.5 25 L 295.5 24 L 302.5 28 L 319.5 31 L 325.5 34 L 335.5 34 L 379.5 56 L 391 63.5 L 394 69 L 403 76.5 L 405.5 80 L 419.5 86 L 426 92.5 L 434 107.5 L 444 119 L 450 122 L 452 125.5 L 460 138.5 L 479 178.5 Q 476.3 180.3 478 186.5 L 482 194.5 L 484 207.5 L 489 217.5 L 489 222.5 L 488 223.5 L 488 289.5 L 489 295.5 L 484 305.5 Q 483.7 318.7 478 326.5 L 478 333.5 L 479 335.5 L 460 374.5 L 450 391 L 444 394 L 435.5 404 L 434 405.5 L 431 410 L 423 415.5 L 416.5 423 L 414 424.5 L 410 431 L 404 434 L 395.5 444 L 394 445.5 L 389.5 451 L 335.5 479 L 325.5 479 L 319.5 482 L 305.5 484 L 295.5 489 L 290.5 489 L 289.5 488 L 223.5 488 L 217.5 489 L 207.5 484 L 193.5 482 L 187.5 479 L 177.5 479 L 138.5 460 L 122 449.5 L 119 444 L 109 435.5 L 107.5 434 L 103 431 L 97.5 423 L 92 420 L 88.5 414 L 82 410 L 79 404 L 69 395.5 L 67.5 394 L 63 391 L 53 374.5 L 35 338.5 L 34 332.5 L 35 325.5 L 31 311.5 L 28 292.5 L 24 285.5 L 24 280.5 L 25 279.5 L 25 223.5 L 24 217.5 L 29 206.5 L 32 191.5 L 35 186.5 L 35 179.5 L 34 177.5 L 61 124 L 64.5 122 L 69 119 L 77.5 109 L 79 107.5 L 82 103 L 90 97.5 L 93.5 92 L 99 88.5 L 103 82 L 109 79 L 117.5 69 L 119 67.5 L 124.5 61 L 177.5 34 L 187.5 34 L 193.5 31 L 210.5 28 L 217.5 24 Z M 243 128 L 237 130 L 230 130 L 215 133 Q 206 141 193 143 Q 187 151 177 154 L 175 157 L 167 163 L 162 170 L 156 175 L 149 187 L 143 193 Q 141 206 133 215 L 130 230 L 130 237 L 128 243 L 128 248 L 132 255 L 140 258 L 147 256 L 153 248 L 154 236 Q 160 226 162 213 L 170 202 L 172 196 L 178 191 L 181 186 L 190 179 L 191 177 L 196 172 L 202 170 L 213 162 Q 226 160 236 154 L 248 153 L 257 145 L 267 151 L 297 162 L 309 161 L 311 159 L 316 147 L 314 142 L 299 133 L 279 129 Q 265 130 259 137 L 250 129 L 243 128 Z M 328 153 L 326 154 L 319 165 Q 318 173 322 178 L 328 181 L 334 190 L 337 191 L 342 199 L 346 201 Q 353 202 356 199 L 364 188 L 364 185 L 359 177 L 357 175 L 351 168 L 345 162 L 340 157 Q 337 152 328 153 Z M 365 203 L 362 207 L 355 212 L 352 216 Q 353 227 359 235 L 360 247 L 362 252 Q 365 257 373 258 L 380 256 L 385 248 L 382 223 L 378 211 Q 375 203 365 203 Z M 251 204 L 228 213 L 222 220 L 219 222 L 213 228 L 204 251 L 204 264 L 213 286 L 220 291 L 224 298 L 251 309 L 268 308 L 274 304 L 288 299 L 292 292 L 298 289 L 302 282 L 309 263 L 308 247 L 298 224 L 292 221 L 289 215 L 264 204 L 251 204 Z M 369 272 L 363 274 L 354 285 L 355 291 L 360 297 Q 362 301 368 301 L 377 300 Q 382 296 383 288 L 381 278 L 378 274 L 369 272 Z M 345 313 L 340 320 L 335 322 L 333 326 L 334 331 L 340 339 L 346 343 L 350 343 L 356 340 L 363 330 L 362 323 L 353 314 L 345 313 Z M 183 334 L 175 339 Q 169 341 170 350 L 175 353 L 180 352 L 184 344 L 189 339 L 188 336 Q 189 333 183 334 Z M 314 343 L 308 346 L 300 355 L 300 360 L 303 369 L 307 372 Q 317 374 322 370 L 329 361 L 329 356 L 325 352 L 321 347 Q 320 342 314 343 Z M 226 358 L 223 359 Q 219 364 217 373 L 218 378 L 227 377 L 231 371 Q 232 362 229 359 L 226 358 Z M 266 360 L 262 362 Q 254 365 256 378 L 266 385 Q 274 386 279 383 L 283 378 Q 284 369 281 365 Q 278 358 266 360 Z M 240 366 L 240 371 L 242 372 Q 244 365 240 366 Z " /><path fill="rgb(223,240,255)" stroke="rgb(223,240,255)" stroke-width="0" opacity="1" d="M 242.5 128 L 249.5 129 L 258.5 137 Q 265.3 129.8 278.5 129 L 298.5 133 L 314 142 L 316 146.5 L 311 158.5 L 308.5 161 L 296.5 162 L 266.5 151 L 256.5 145 L 247.5 153 L 235.5 154 Q 226.3 160.3 212.5 162 L 201.5 170 L 195.5 172 L 191 176.5 L 189.5 179 L 181 185.5 L 177.5 191 L 172 195.5 L 170 201.5 L 162 212.5 Q 160.3 226.3 154 235.5 L 153 247.5 L 146.5 256 L 139.5 258 L 132 255 L 128 247.5 L 128 242.5 L 130 236.5 L 130 229.5 L 133 214.5 Q 140.6 206.1 143 192.5 L 149 186.5 L 155.5 175 L 162 169.5 L 166.5 163 L 175 156.5 L 176.5 154 Q 186.8 150.7 192.5 143 Q 206.2 140.7 214.5 133 L 229.5 130 L 236.5 130 L 242.5 128 Z " /><path fill="rgb(223,240,255)" stroke="rgb(223,240,255)" stroke-width="0" opacity="1" d="M 327.5 153 Q 336.9 151.6 340 156.5 L 344.5 162 L 351 167.5 L 356.5 175 L 359 176.5 L 364 184.5 L 364 187.5 L 355.5 199 Q 352.5 202 345.5 201 L 342 198.5 L 336.5 191 L 334 189.5 L 327.5 181 L 322 177.5 Q 318.1 173.4 319 164.5 L 325.5 154 L 327.5 153 Z " /><path fill="rgb(223,240,255)" stroke="rgb(223,240,255)" stroke-width="0" opacity="1" d="M 364.5 203 Q 375.2 202.8 378 210.5 L 382 222.5 L 385 247.5 L 379.5 256 L 372.5 258 Q 365.1 256.9 362 251.5 L 360 246.5 L 359 234.5 Q 353 227.5 352 215.5 L 354.5 212 L 362 206.5 L 364.5 203 Z " /><path fill="rgb(223,240,255)" stroke="rgb(223,240,255)" stroke-width="0" opacity="1" d="M 250.5 204 L 263.5 204 L 289 215 L 292 221 L 298 224 L 308 246.5 L 309 262.5 L 302 281.5 L 297.5 289 L 292 292 L 287.5 299 L 273.5 304 L 267.5 308 L 250.5 309 L 224 298 L 219.5 291 L 213 285.5 L 204 263.5 L 204 250.5 L 213 227.5 L 218.5 222 L 222 219.5 L 227.5 213 L 250.5 204 Z " /><path fill="rgb(223,240,255)" stroke="rgb(223,240,255)" stroke-width="0" opacity="1" d="M 368.5 272 L 377.5 274 L 381 277.5 L 383 287.5 Q 382.1 296.1 376.5 300 L 367.5 301 Q 362 300.6 360 296.5 L 355 290.5 L 354 284.5 L 362.5 274 L 368.5 272 Z " /><path fill="rgb(223,240,255)" stroke="rgb(223,240,255)" stroke-width="0" opacity="1" d="M 344.5 313 L 352.5 314 L 362 322.5 L 363 329.5 L 355.5 340 L 349.5 343 L 345.5 343 L 340 338.5 L 334 330.5 L 333 325.5 L 335 322 L 340 320 L 344.5 313 Z " /><path fill="rgb(223,240,255)" stroke="rgb(223,240,255)" stroke-width="0" opacity="1" d="M 182.5 334 Q 188.6 332.8 188 335.5 L 189 338.5 L 184 343.5 L 179.5 352 L 174.5 353 L 170 349.5 Q 168.9 340.9 174.5 339 L 182.5 334 Z " /><path fill="rgb(223,240,255)" stroke="rgb(223,240,255)" stroke-width="0" opacity="1" d="M 313.5 343 Q 320 342 321 346.5 L 324.5 352 L 329 355.5 L 329 360.5 L 321.5 370 Q 316.8 373.8 306.5 372 L 303 368.5 L 300 359.5 L 300 354.5 L 307.5 346 L 313.5 343 Z " /><path fill="rgb(223,240,255)" stroke="rgb(223,240,255)" stroke-width="0" opacity="1" d="M 225.5 358 L 229 359 Q 232 362.3 231 370.5 L 226.5 377 L 218 378 L 217 372.5 Q 218.6 363.9 223 359 L 225.5 358 Z " /><path fill="rgb(223,240,255)" stroke="rgb(223,240,255)" stroke-width="0" opacity="1" d="M 265.5 360 Q 277.8 357.8 281 364.5 Q 283.7 369.3 283 377.5 L 278.5 383 Q 273.7 385.7 265.5 385 L 256 377.5 Q 253.9 364.9 261.5 362 L 265.5 360 Z " /></svg>