<svg width="2048" height="2048" viewBox="0 0 512 512" version="1.1" xmlns="http://www.w3.org/2000/svg"  style="background:transparent"><path fill="rgb(0,102,255)" stroke="rgb(0,102,255)" stroke-width="0" opacity="1" d="M 232.5 230 L 235 231.5 Q 236.8 236.8 231.5 235 L 230 232.5 L 232.5 230 Z " /><path fill="rgb(0,102,255)" stroke="rgb(0,102,255)" stroke-width="0" opacity="1" d="M 279.5 230 L 283 232.5 L 281.5 235 Q 276.3 236.8 278 231.5 L 279.5 230 Z " /><path fill="rgb(0,102,255)" stroke="rgb(0,102,255)" stroke-width="0" opacity="1" d="M 231.5 278 Q 236.8 276.3 235 281.5 L 232.5 283 L 230 279.5 L 231.5 278 Z " /><path fill="rgb(0,102,255)" stroke="rgb(0,102,255)" stroke-width="0" opacity="1" d="M 278 278 L 283 279.5 L 280.5 283 L 278 281.5 L 278 278 Z " /><path fill="rgb(2,153,255)" stroke="rgb(2,153,255)" stroke-width="0" opacity="1" d="M 217.5 24 L 223.5 25 L 289.5 25 L 295.5 24 L 302.5 28 L 319.5 31 L 325.5 34 L 335.5 34 L 379.5 56 L 391 63.5 L 394 69 L 403 76.5 L 405.5 80 L 419.5 86 L 426 92.5 L 434 107.5 L 444 119 L 450 122 L 452 125.5 L 460 138.5 L 479 178.5 Q 476.3 180.3 478 186.5 L 482 194.5 L 484 207.5 L 489 217.5 L 489 222.5 L 488 223.5 L 488 289.5 L 489 295.5 L 484 305.5 Q 483.7 318.7 478 326.5 L 478 333.5 L 479 335.5 L 460 374.5 L 450 391 L 444 394 L 435.5 404 L 434 405.5 L 431 410 L 423 415.5 L 416.5 423 L 414 424.5 L 410 431 L 404 434 L 395.5 444 L 394 445.5 L 389.5 451 L 335.5 479 L 325.5 479 L 319.5 482 L 305.5 484 L 295.5 489 L 290.5 489 L 289.5 488 L 223.5 488 L 217.5 489 L 207.5 484 L 193.5 482 L 187.5 479 L 177.5 479 L 138.5 460 L 122 449.5 L 119 444 L 109 435.5 L 107.5 434 L 103 431 L 97.5 423 L 92 420 L 88.5 414 L 82 410 L 79 404 L 69 395.5 L 67.5 394 L 63 391 L 53 374.5 L 35 338.5 L 34 332.5 L 35 325.5 L 31 311.5 L 28 292.5 L 24 285.5 L 24 280.5 L 25 279.5 L 25 223.5 L 24 217.5 L 29 206.5 L 32 191.5 L 35 186.5 L 35 179.5 L 34 177.5 L 61 124 L 64.5 122 L 69 119 L 77.5 109 L 79 107.5 L 82 103 L 90 97.5 L 93.5 92 L 99 88.5 L 103 82 L 109 79 L 117.5 69 L 119 67.5 L 124.5 61 L 177.5 34 L 187.5 34 L 193.5 31 L 210.5 28 L 217.5 24 Z M 255 126 L 244 132 L 242 136 L 242 237 L 241 239 L 237 242 L 150 242 L 149 241 L 148 242 L 136 242 L 132 244 L 126 255 L 126 259 L 132 269 Q 136 273 148 271 L 150 271 L 237 271 L 239 272 L 242 277 L 242 378 L 244 381 L 255 387 L 259 387 L 266 383 L 271 378 L 271 277 L 272 275 L 277 271 L 378 271 L 387 259 L 387 255 L 383 248 L 378 242 L 277 242 L 275 241 L 271 237 L 271 136 L 269 132 L 259 126 L 255 126 Z M 233 230 L 230 233 L 232 235 Q 237 237 235 232 L 233 230 Z M 280 230 L 278 232 Q 276 237 282 235 L 283 233 L 280 230 Z M 232 278 L 230 280 L 233 283 L 235 282 Q 237 276 232 278 Z M 278 278 L 278 282 L 281 283 L 283 280 L 278 278 Z " /><path fill="rgb(215,236,255)" stroke="rgb(215,236,255)" stroke-width="0" opacity="1" d="M 254.5 126 L 258.5 126 L 269 132 L 271 135.5 L 271 236.5 L 274.5 241 L 276.5 242 L 377.5 242 L 383 247.5 L 387 254.5 L 387 258.5 L 377.5 271 L 276.5 271 L 272 274.5 L 271 276.5 L 271 377.5 L 265.5 383 L 258.5 387 L 254.5 387 L 244 381 L 242 377.5 L 242 276.5 L 238.5 272 L 236.5 271 L 149.5 271 L 147.5 271 Q 136 273 132 269 L 126 258.5 L 126 254.5 L 132 244 L 135.5 242 L 147.5 242 L 148.5 241 L 149.5 242 L 236.5 242 L 241 238.5 L 242 236.5 L 242 135.5 L 244 132 L 254.5 126 Z " /></svg>