<svg width="2048" height="2048" viewBox="0 0 512 512" version="1.1" xmlns="http://www.w3.org/2000/svg"  style="background:transparent"><path fill="rgb(3,153,255)" stroke="rgb(3,153,255)" stroke-width="0" opacity="1" d="M 217.5 24 L 223.5 25 L 289.5 25 L 295.5 24 L 302.5 28 L 319.5 31 L 325.5 34 L 335.5 34 L 379.5 56 L 391 63.5 L 394 69 L 403 76.5 L 405.5 80 L 419.5 86 L 426 92.5 L 434 107.5 L 444 119 L 450 122 L 452 125.5 L 460 138.5 L 479 178.5 Q 476.3 180.3 478 186.5 L 482 194.5 L 484 207.5 L 489 217.5 L 489 222.5 L 488 223.5 L 488 289.5 L 489 295.5 L 484 305.5 Q 483.7 318.7 478 326.5 L 478 333.5 L 479 335.5 L 460 374.5 L 450 391 L 444 394 L 435.5 404 L 434 405.5 L 431 410 L 423 415.5 L 416.5 423 L 414 424.5 L 410 431 L 404 434 L 395.5 444 L 394 445.5 L 389.5 451 L 335.5 479 L 325.5 479 L 319.5 482 L 305.5 484 L 295.5 489 L 290.5 489 L 289.5 488 L 223.5 488 L 217.5 489 L 207.5 484 L 193.5 482 L 187.5 479 L 177.5 479 L 138.5 460 L 122 449.5 L 119 444 L 109 435.5 L 107.5 434 L 103 431 L 97.5 423 L 92 420 L 88.5 414 L 82 410 L 79 404 L 69 395.5 L 67.5 394 L 63 391 L 53 374.5 L 35 338.5 L 34 332.5 L 35 325.5 L 31 311.5 L 28 292.5 L 24 285.5 L 24 280.5 L 25 279.5 L 25 223.5 L 24 217.5 L 29 206.5 L 32 191.5 L 35 186.5 L 35 179.5 L 34 177.5 L 61 124 L 64.5 122 L 69 119 L 77.5 109 L 79 107.5 L 82 103 L 90 97.5 L 93.5 92 L 99 88.5 L 103 82 L 109 79 L 117.5 69 L 119 67.5 L 124.5 61 L 177.5 34 L 187.5 34 L 193.5 31 L 210.5 28 L 217.5 24 Z M 137 129 L 134 130 L 129 136 L 133 148 L 138 150 L 142 156 L 148 160 L 152 166 L 158 170 L 162 176 L 168 180 L 172 186 L 179 191 L 182 196 L 189 201 L 192 206 L 199 211 L 202 216 L 209 221 L 212 226 L 219 231 L 224 239 L 230 242 L 235 255 L 235 259 L 231 270 L 224 274 L 222 279 L 218 282 L 212 289 L 208 292 L 202 299 L 198 302 L 192 309 L 188 312 L 182 319 L 178 322 L 172 329 L 168 332 L 162 339 L 157 343 L 151 350 L 147 353 L 142 359 L 135 364 L 129 376 L 130 380 L 137 384 L 148 380 L 150 376 L 156 371 L 160 366 L 166 361 L 170 356 L 176 351 L 180 346 L 186 341 L 190 336 L 196 331 L 200 326 L 206 321 L 210 316 L 216 311 L 220 306 L 226 301 L 231 295 L 239 289 L 241 285 L 246 281 L 255 278 L 259 278 L 270 282 L 274 289 L 279 291 L 284 299 L 289 301 L 292 306 L 299 311 L 304 319 L 309 321 L 314 329 L 319 331 L 324 339 L 329 341 L 332 346 L 339 351 Q 343 354 344 359 L 350 362 L 354 369 L 359 371 L 364 379 L 376 384 L 380 383 L 384 378 L 380 366 L 376 363 L 371 358 L 366 353 L 362 349 L 356 343 L 351 338 L 345 332 L 341 328 L 336 323 L 331 318 L 326 313 L 321 308 L 316 303 L 311 298 L 305 292 L 301 288 L 295 282 L 289 274 L 285 272 L 281 268 L 278 259 L 278 255 L 282 244 L 289 239 L 291 235 L 296 231 L 301 225 L 307 220 L 311 215 L 317 210 L 321 205 L 327 200 L 331 195 L 337 190 L 341 185 L 347 180 L 351 175 L 357 170 L 361 165 L 367 160 L 371 155 L 380 148 L 384 138 L 383 134 L 377 129 L 366 133 L 363 138 L 354 144 L 353 148 L 344 154 L 343 158 L 334 164 L 332 169 L 324 174 L 322 179 L 314 184 L 312 189 L 304 194 L 302 199 L 294 204 L 292 209 L 284 214 L 282 219 L 274 224 L 271 230 L 259 235 L 255 235 L 244 231 L 239 224 L 235 222 L 231 218 L 225 212 L 220 207 L 215 202 L 210 197 L 205 192 L 200 187 L 195 182 L 190 177 L 185 172 L 180 167 L 175 162 L 170 157 L 165 152 L 160 147 L 155 142 L 148 133 L 137 129 Z M 149 231 Q 140 233 136 239 L 130 247 L 129 253 L 130 267 L 132 271 L 143 280 L 148 282 Q 161 284 168 279 L 178 267 L 180 262 L 179 249 L 170 238 Q 165 229 149 231 Z M 354 231 L 346 234 L 335 247 L 333 252 L 334 265 L 344 278 L 354 282 L 369 281 L 378 274 L 383 267 L 384 261 L 383 247 L 381 243 L 369 232 L 354 231 Z " /><path fill="rgb(219,238,255)" stroke="rgb(219,238,255)" stroke-width="0" opacity="1" d="M 136.5 129 L 148 133 L 154.5 142 L 160 146.5 L 164.5 152 L 170 156.5 L 174.5 162 L 180 166.5 L 184.5 172 L 190 176.5 L 194.5 182 L 200 186.5 L 204.5 192 L 210 196.5 L 214.5 202 L 220 206.5 L 224.5 212 L 231 217.5 L 234.5 222 L 239 224 L 243.5 231 L 254.5 235 L 258.5 235 L 271 229.5 L 274 224 L 282 218.5 L 284 214 L 292 208.5 L 294 204 L 302 198.5 L 304 194 L 312 188.5 L 314 184 L 322 178.5 L 324 174 L 332 168.5 L 334 164 L 343 157.5 L 344 154 L 353 147.5 L 354 144 L 363 137.5 L 365.5 133 L 376.5 129 L 383 133.5 L 384 137.5 L 380 148 L 371 154.5 L 366.5 160 L 361 164.5 L 356.5 170 L 351 174.5 L 346.5 180 L 341 184.5 L 336.5 190 L 331 194.5 L 326.5 200 L 321 204.5 L 316.5 210 L 311 214.5 L 306.5 220 L 301 224.5 L 295.5 231 L 291 234.5 L 289 239 L 282 243.5 L 278 254.5 L 278 258.5 L 281 267.5 L 284.5 272 L 289 274 L 294.5 282 L 301 287.5 L 304.5 292 L 311 297.5 L 315.5 303 L 321 307.5 L 325.5 313 L 331 317.5 L 335.5 323 L 341 327.5 L 344.5 332 L 351 337.5 L 355.5 343 L 362 348.5 L 365.5 353 L 371 357.5 L 375.5 363 L 380 365.5 L 384 377.5 L 379.5 383 L 375.5 384 L 364 378.5 L 358.5 371 L 354 369 L 349.5 362 L 344 359 Q 343.4 353.6 338.5 351 L 332 345.5 L 328.5 341 L 324 339 L 318.5 331 L 314 329 L 308.5 321 L 304 319 L 298.5 311 L 292 305.5 L 288.5 301 L 284 299 L 278.5 291 L 274 289 L 269.5 282 L 258.5 278 L 254.5 278 L 245.5 281 L 241 284.5 L 239 289 L 231 294.5 L 225.5 301 L 220 305.5 L 215.5 311 L 210 315.5 L 205.5 321 L 200 325.5 L 195.5 331 L 190 335.5 L 185.5 341 L 180 345.5 L 175.5 351 L 170 355.5 L 165.5 361 L 160 365.5 L 155.5 371 L 150 375.5 L 148 380 L 136.5 384 L 130 379.5 L 129 375.5 L 134.5 364 L 142 358.5 L 146.5 353 L 151 349.5 L 156.5 343 L 162 338.5 L 167.5 332 L 172 328.5 L 177.5 322 L 182 318.5 L 187.5 312 L 192 308.5 L 197.5 302 L 202 298.5 L 207.5 292 L 212 288.5 L 217.5 282 L 222 278.5 L 224 274 L 231 269.5 L 235 258.5 L 235 254.5 L 229.5 242 L 224 239 L 218.5 231 L 212 225.5 L 208.5 221 L 202 215.5 L 198.5 211 L 192 205.5 L 188.5 201 L 182 195.5 L 178.5 191 L 172 185.5 L 167.5 180 L 162 175.5 L 157.5 170 L 152 165.5 L 147.5 160 L 142 155.5 L 137.5 150 L 133 148 L 129 135.5 L 133.5 130 L 136.5 129 Z " /><path fill="rgb(219,238,255)" stroke="rgb(219,238,255)" stroke-width="0" opacity="1" d="M 148.5 231 Q 164.6 228.9 170 237.5 L 179 248.5 L 180 261.5 L 178 266.5 L 167.5 279 Q 160.6 283.6 147.5 282 L 142.5 280 L 132 270.5 L 130 266.5 L 129 252.5 L 130 246.5 L 135.5 239 Q 139.8 232.8 148.5 231 Z " /><path fill="rgb(219,238,255)" stroke="rgb(219,238,255)" stroke-width="0" opacity="1" d="M 353.5 231 L 368.5 232 L 381 242.5 L 383 246.5 L 384 260.5 L 383 266.5 L 377.5 274 L 368.5 281 L 353.5 282 L 344 277.5 L 334 264.5 L 333 251.5 L 335 246.5 L 345.5 234 L 353.5 231 Z " /></svg>