<svg width="2048" height="2048" viewBox="0 0 512 512" version="1.1" xmlns="http://www.w3.org/2000/svg"  style="background:transparent"><path fill="rgb(3,153,255)" stroke="rgb(3,153,255)" stroke-width="0" opacity="1" d="M 217.5 24 L 223.5 25 L 289.5 25 L 295.5 24 L 302.5 28 L 319.5 31 L 325.5 34 L 335.5 34 L 379.5 56 L 391 63.5 L 394 69 L 403 76.5 L 405.5 80 L 419.5 86 L 426 92.5 L 434 107.5 L 444 119 L 450 122 L 452 125.5 L 460 138.5 L 479 178.5 Q 476.3 180.3 478 186.5 L 482 194.5 L 484 207.5 L 489 217.5 L 489 222.5 L 488 223.5 L 488 289.5 L 489 295.5 L 484 305.5 Q 483.7 318.7 478 326.5 L 478 333.5 L 479 335.5 L 460 374.5 L 450 391 L 444 394 L 435.5 404 L 434 405.5 L 431 410 L 423 415.5 L 416.5 423 L 414 424.5 L 410 431 L 404 434 L 395.5 444 L 394 445.5 L 389.5 451 L 335.5 479 L 325.5 479 L 319.5 482 L 305.5 484 L 295.5 489 L 290.5 489 L 289.5 488 L 223.5 488 L 217.5 489 L 207.5 484 L 193.5 482 L 187.5 479 L 177.5 479 L 138.5 460 L 122 449.5 L 119 444 L 109 435.5 L 107.5 434 L 103 431 L 97.5 423 L 92 420 L 88.5 414 L 82 410 L 79 404 L 69 395.5 L 67.5 394 L 63 391 L 53 374.5 L 35 338.5 L 34 332.5 L 35 325.5 L 31 311.5 L 28 292.5 L 24 285.5 L 24 280.5 L 25 279.5 L 25 223.5 L 24 217.5 L 29 206.5 L 32 191.5 L 35 186.5 L 35 179.5 L 34 177.5 L 61 124 L 64.5 122 L 69 119 L 77.5 109 L 79 107.5 L 82 103 L 90 97.5 L 93.5 92 L 99 88.5 L 103 82 L 109 79 L 117.5 69 L 119 67.5 L 124.5 61 L 177.5 34 L 187.5 34 L 193.5 31 L 210.5 28 L 217.5 24 Z M 255 129 L 247 132 L 242 138 L 233 143 L 231 146 Q 228 150 222 152 L 218 157 L 207 164 L 204 168 L 197 172 L 191 179 L 185 182 L 165 199 L 160 207 L 163 215 L 168 218 L 176 217 L 194 202 L 200 199 L 202 196 L 214 188 L 215 185 L 226 179 L 230 174 L 239 169 L 241 166 L 255 156 L 259 156 L 269 162 L 272 167 L 282 172 L 283 175 L 297 185 L 298 187 L 310 194 L 311 197 L 320 202 L 324 208 L 341 218 L 348 217 L 353 208 L 351 202 L 317 172 L 312 170 L 308 166 L 297 158 L 295 156 L 287 150 L 282 145 L 273 138 L 271 137 Q 266 129 255 129 Z M 256 175 L 244 183 L 242 185 L 204 215 L 202 217 Q 199 221 193 223 L 191 226 L 167 244 Q 161 248 160 256 L 162 262 L 166 264 Q 175 265 180 262 L 204 242 L 209 240 L 212 236 Q 221 231 227 224 L 236 219 L 244 211 L 249 209 L 251 206 L 255 203 L 261 204 L 262 207 L 270 211 L 278 219 L 287 224 L 294 231 L 300 234 L 301 237 L 310 242 L 318 250 L 324 253 L 331 260 L 339 264 Q 348 266 351 262 L 353 257 L 349 247 L 332 232 L 326 229 L 322 225 L 316 221 L 311 215 L 305 212 L 296 203 L 277 190 L 271 183 L 262 178 Q 259 179 260 176 L 256 175 Z M 246 282 L 239 284 Q 234 290 225 292 L 220 299 L 218 300 L 212 306 Q 210 317 204 325 L 204 343 L 212 362 L 217 367 L 218 369 L 232 380 L 250 385 L 264 385 L 278 382 L 292 372 L 301 362 L 309 343 L 309 326 Q 303 317 301 306 L 295 300 L 292 296 L 289 292 L 281 289 Q 278 284 272 283 L 268 282 L 246 282 Z " /><path fill="rgb(228,242,255)" stroke="rgb(228,242,255)" stroke-width="0" opacity="1" d="M 254.5 129 Q 266.4 129.2 271 136.5 L 272.5 138 L 282 144.5 L 286.5 150 L 295 155.5 L 296.5 158 L 308 165.5 L 311.5 170 L 316.5 172 L 351 201.5 L 353 207.5 L 347.5 217 L 340.5 218 L 324 208 L 319.5 202 L 311 196.5 L 309.5 194 L 298 186.5 L 296.5 185 L 283 174.5 L 281.5 172 L 272 166.5 L 268.5 162 L 258.5 156 L 254.5 156 L 241 165.5 L 238.5 169 L 230 173.5 L 225.5 179 L 215 185 L 213.5 188 L 202 195.5 L 199.5 199 L 193.5 202 L 175.5 217 L 167.5 218 L 163 214.5 L 160 206.5 L 164.5 199 L 184.5 182 L 191 179 L 196.5 172 L 204 167.5 L 206.5 164 L 218 156.5 L 221.5 152 Q 228 150.5 231 145.5 L 232.5 143 L 242 138 L 246.5 132 L 254.5 129 Z " /><path fill="rgb(228,242,255)" stroke="rgb(228,242,255)" stroke-width="0" opacity="1" d="M 255.5 175 L 260 176 Q 258.9 178.7 261.5 178 L 271 183 L 276.5 190 L 295.5 203 L 304.5 212 L 311 215 L 315.5 221 L 322 224.5 L 325.5 229 L 331.5 232 L 349 246.5 L 353 256.5 L 351 262 Q 347.9 265.5 338.5 264 L 330.5 260 L 323.5 253 L 317.5 250 L 309.5 242 L 301 236.5 L 299.5 234 L 293.5 231 L 286.5 224 L 277.5 219 L 269.5 211 L 262 206.5 L 260.5 204 L 254.5 203 L 251 205.5 L 248.5 209 L 243.5 211 L 235.5 219 L 226.5 224 Q 220.9 231.4 212 235.5 L 208.5 240 L 203.5 242 L 179.5 262 Q 174.8 265.3 165.5 264 L 162 262 L 160 255.5 Q 161.5 247.9 166.5 244 L 191 225.5 L 192.5 223 Q 199 221.5 202 216.5 L 203.5 215 L 242 184.5 L 243.5 183 L 255.5 175 Z " /><path fill="rgb(228,242,255)" stroke="rgb(228,242,255)" stroke-width="0" opacity="1" d="M 245.5 282 L 267.5 282 L 271.5 283 Q 277.6 284.4 280.5 289 L 288.5 292 L 292 295.5 L 294.5 300 L 301 305.5 Q 303.1 317.4 309 325.5 L 309 342.5 L 301 361.5 L 291.5 372 L 277.5 382 L 263.5 385 L 249.5 385 L 231.5 380 L 218 368.5 L 216.5 367 L 212 361.5 L 204 342.5 L 204 324.5 Q 210.1 317.1 212 305.5 L 217.5 300 L 220 298.5 L 224.5 292 Q 233.5 290 238.5 284 L 245.5 282 Z " /></svg>