<svg width="2048" height="2048" viewBox="0 0 512 512" version="1.1" xmlns="http://www.w3.org/2000/svg"  style="background:transparent"><path fill="rgb(6,154,255)" stroke="rgb(6,154,255)" stroke-width="0" opacity="1" d="M 217.5 24 L 223.5 25 L 289.5 25 L 295.5 24 L 302.5 28 L 319.5 31 L 325.5 34 L 335.5 34 L 379.5 56 L 391 63.5 L 394 69 L 403 76.5 L 405.5 80 L 419.5 86 L 426 92.5 L 434 107.5 L 444 119 L 450 122 L 452 125.5 L 460 138.5 L 479 178.5 Q 476.3 180.3 478 186.5 L 482 194.5 L 484 207.5 L 489 217.5 L 489 222.5 L 488 223.5 L 488 289.5 L 489 295.5 L 484 305.5 Q 483.7 318.7 478 326.5 L 478 333.5 L 479 335.5 L 460 374.5 L 450 391 L 444 394 L 435.5 404 L 434 405.5 L 431 410 L 423 415.5 L 416.5 423 L 414 424.5 L 410 431 L 404 434 L 395.5 444 L 394 445.5 L 389.5 451 L 335.5 479 L 325.5 479 L 319.5 482 L 305.5 484 L 295.5 489 L 290.5 489 L 289.5 488 L 223.5 488 L 217.5 489 L 207.5 484 L 193.5 482 L 187.5 479 L 177.5 479 L 138.5 460 L 122 449.5 L 119 444 L 109 435.5 L 107.5 434 L 103 431 L 97.5 423 L 92 420 L 88.5 414 L 82 410 L 79 404 L 69 395.5 L 67.5 394 L 63 391 L 53 374.5 L 35 338.5 L 34 332.5 L 35 325.5 L 31 311.5 L 28 292.5 L 24 285.5 L 24 280.5 L 25 279.5 L 25 223.5 L 24 217.5 L 29 206.5 L 32 191.5 L 35 186.5 L 35 179.5 L 34 177.5 L 61 124 L 64.5 122 L 69 119 L 77.5 109 L 79 107.5 L 82 103 L 90 97.5 L 93.5 92 L 99 88.5 L 103 82 L 109 79 L 117.5 69 L 119 67.5 L 124.5 61 L 177.5 34 L 187.5 34 L 193.5 31 L 210.5 28 L 217.5 24 Z M 354 147 L 353 148 L 159 148 L 156 149 L 151 155 L 151 168 L 152 170 L 161 173 L 173 173 L 174 172 L 349 172 L 350 173 Q 360 174 366 169 L 368 166 L 367 155 Q 363 148 354 147 Z M 161 189 L 156 190 L 151 195 L 151 209 L 158 214 L 359 214 L 363 212 Q 370 209 368 197 Q 365 190 357 189 L 349 189 L 348 190 L 175 190 L 174 189 L 161 189 Z M 165 240 L 157 243 L 150 253 L 151 261 Q 156 270 168 273 L 172 279 L 183 284 L 184 287 L 196 293 L 203 300 L 210 303 L 213 308 Q 224 312 232 321 L 238 323 L 246 331 L 250 332 L 257 338 L 273 331 Q 279 323 290 319 L 291 317 Q 294 312 301 311 L 308 304 L 318 299 L 320 296 L 329 291 L 350 274 L 360 269 L 362 266 L 367 262 Q 371 261 370 254 L 365 250 L 362 244 L 358 240 Q 349 240 345 244 L 343 247 Q 339 251 333 253 L 326 260 L 316 265 L 314 268 L 305 273 L 298 280 L 291 283 L 284 290 L 275 294 L 273 297 Q 270 302 263 303 L 255 303 Q 246 299 241 292 L 235 290 L 231 286 L 221 279 L 219 278 L 207 270 L 199 262 L 193 260 L 190 257 L 179 250 L 170 241 L 165 240 Z M 165 308 L 157 311 Q 149 315 150 329 L 159 334 L 161 338 L 171 343 L 178 350 L 187 354 L 190 359 L 200 364 L 201 366 L 216 376 L 217 378 L 229 384 L 231 388 L 241 393 L 248 400 L 256 404 L 261 404 L 270 401 L 273 397 L 285 390 L 292 383 L 299 380 L 306 373 L 313 370 L 319 364 L 327 360 L 334 353 L 340 351 L 343 346 L 355 340 L 370 328 Q 371 322 368 320 L 362 312 L 358 308 Q 348 309 343 314 L 341 316 Q 336 321 328 324 L 321 331 L 314 334 L 311 338 L 299 345 L 293 351 L 286 354 L 282 359 L 273 364 L 271 366 Q 268 371 261 372 L 254 371 Q 247 363 237 359 L 235 357 Q 232 352 226 351 L 218 343 L 212 341 L 202 332 L 195 329 L 193 327 Q 190 322 184 321 L 174 312 L 165 308 Z " /><path fill="rgb(223,240,255)" stroke="rgb(223,240,255)" stroke-width="0" opacity="1" d="M 353.5 147 Q 362.7 148.3 367 154.5 L 368 165.5 L 365.5 169 Q 360.4 173.9 349.5 173 L 348.5 172 L 173.5 172 L 172.5 173 L 160.5 173 L 152 169.5 L 151 167.5 L 151 154.5 L 155.5 149 L 158.5 148 L 352.5 148 L 353.5 147 Z " /><path fill="rgb(223,240,255)" stroke="rgb(223,240,255)" stroke-width="0" opacity="1" d="M 160.5 189 L 173.5 189 L 174.5 190 L 347.5 190 L 348.5 189 L 356.5 189 Q 364.6 190.4 368 196.5 Q 370.1 209.1 362.5 212 L 358.5 214 L 157.5 214 L 151 208.5 L 151 194.5 L 155.5 190 L 160.5 189 Z " /><path fill="rgb(223,240,255)" stroke="rgb(223,240,255)" stroke-width="0" opacity="1" d="M 164.5 240 L 169.5 241 L 178.5 250 L 190 256.5 L 192.5 260 L 198.5 262 L 206.5 270 L 219 277.5 L 220.5 279 L 231 285.5 L 234.5 290 L 240.5 292 Q 245.8 299.2 254.5 303 L 262.5 303 Q 269.9 301.9 273 296.5 L 274.5 294 L 283.5 290 L 290.5 283 L 297.5 280 L 304.5 273 L 314 267.5 L 315.5 265 L 325.5 260 L 332.5 253 Q 339.5 251.4 343 246.5 L 344.5 244 Q 349.2 240.2 357.5 240 L 362 243.5 L 365 250 L 370 253.5 Q 371.3 260.8 366.5 262 L 362 265.5 L 359.5 269 L 349.5 274 L 328.5 291 L 320 295.5 L 317.5 299 L 307.5 304 L 300.5 311 Q 293.9 311.9 291 316.5 L 289.5 319 Q 278.6 322.6 272.5 331 L 256.5 338 L 249.5 332 L 245.5 331 L 237.5 323 L 231.5 321 Q 224.5 312 213 307.5 L 209.5 303 L 202.5 300 L 195.5 293 L 184 287 L 182.5 284 L 172 279 L 167.5 273 Q 156.4 269.7 151 260.5 L 150 252.5 L 156.5 243 L 164.5 240 Z " /><path fill="rgb(223,240,255)" stroke="rgb(223,240,255)" stroke-width="0" opacity="1" d="M 164.5 308 L 173.5 312 L 183.5 321 Q 190.1 321.9 193 326.5 L 194.5 329 L 201.5 332 L 211.5 341 L 217.5 343 L 225.5 351 Q 232.1 351.9 235 356.5 L 236.5 359 Q 247.4 362.6 253.5 371 L 260.5 372 Q 267.9 370.9 271 365.5 L 272.5 364 L 282 359 L 285.5 354 L 292.5 351 L 298.5 345 L 311 337.5 L 313.5 334 L 320.5 331 L 327.5 324 Q 336 321.5 341 315.5 L 342.5 314 Q 347.7 308.7 357.5 308 L 362 311.5 L 368 319.5 Q 370.7 321.8 370 327.5 L 354.5 340 L 343 346 L 339.5 351 L 333.5 353 L 326.5 360 L 318.5 364 L 312.5 370 L 305.5 373 L 298.5 380 L 291.5 383 L 284.5 390 L 273 396.5 L 269.5 401 L 260.5 404 L 255.5 404 L 247.5 400 L 240.5 393 L 231 387.5 L 228.5 384 L 217 377.5 L 215.5 376 L 201 365.5 L 199.5 364 L 190 358.5 L 186.5 354 L 177.5 350 L 170.5 343 L 161 337.5 L 158.5 334 L 150 328.5 Q 148.8 315.3 156.5 311 L 164.5 308 Z " /></svg>