<svg width="2048" height="2048" viewBox="0 0 512 512" version="1.1" xmlns="http://www.w3.org/2000/svg"  style="background:transparent"><path fill="rgb(0,102,255)" stroke="rgb(0,102,255)" stroke-width="0" opacity="1" d="M 232.5 210 L 233 222.5 L 231 223.5 L 230 213 Q 233.1 214.1 232.5 210 Z " /><path fill="rgb(0,102,255)" stroke="rgb(0,102,255)" stroke-width="0" opacity="1" d="M 280.5 210 L 281 213 L 283 213.5 L 283 220.5 L 281.5 224 L 280 222.5 L 280.5 210 Z " /><path fill="rgb(2,153,255)" stroke="rgb(2,153,255)" stroke-width="0" opacity="1" d="M 217.5 24 L 223.5 25 L 289.5 25 L 295.5 24 L 302.5 28 L 319.5 31 L 325.5 34 L 335.5 34 L 379.5 56 L 391 63.5 L 394 69 L 403 76.5 L 405.5 80 L 419.5 86 L 426 92.5 L 434 107.5 L 444 119 L 450 122 L 452 125.5 L 460 138.5 L 479 178.5 Q 476.3 180.3 478 186.5 L 482 194.5 L 484 207.5 L 489 217.5 L 489 222.5 L 488 223.5 L 488 289.5 L 489 295.5 L 484 305.5 Q 483.7 318.7 478 326.5 L 478 333.5 L 479 335.5 L 460 374.5 L 450 391 L 444 394 L 435.5 404 L 434 405.5 L 431 410 L 423 415.5 L 416.5 423 L 414 424.5 L 410 431 L 404 434 L 395.5 444 L 394 445.5 L 389.5 451 L 335.5 479 L 325.5 479 L 319.5 482 L 305.5 484 L 295.5 489 L 290.5 489 L 289.5 488 L 223.5 488 L 217.5 489 L 207.5 484 L 193.5 482 L 187.5 479 L 177.5 479 L 138.5 460 L 122 449.5 L 119 444 L 109 435.5 L 107.5 434 L 103 431 L 97.5 423 L 92 420 L 88.5 414 L 82 410 L 79 404 L 69 395.5 L 67.5 394 L 63 391 L 53 374.5 L 35 338.5 L 34 332.5 L 35 325.5 L 31 311.5 L 28 292.5 L 24 285.5 L 24 280.5 L 25 279.5 L 25 223.5 L 24 217.5 L 29 206.5 L 32 191.5 L 35 186.5 L 35 179.5 L 34 177.5 L 61 124 L 64.5 122 L 69 119 L 77.5 109 L 79 107.5 L 82 103 L 90 97.5 L 93.5 92 L 99 88.5 L 103 82 L 109 79 L 117.5 69 L 119 67.5 L 124.5 61 L 177.5 34 L 187.5 34 L 193.5 31 L 210.5 28 L 217.5 24 Z M 256 128 L 248 132 L 243 138 L 243 299 L 241 307 L 236 311 L 231 317 L 226 321 L 220 328 L 214 332 L 210 338 L 204 342 L 199 349 L 195 351 L 191 356 L 184 362 L 180 368 L 181 379 L 187 383 L 198 383 L 210 373 L 214 368 L 251 333 L 256 331 L 263 333 L 297 365 L 299 369 L 316 383 Q 324 385 329 382 L 333 376 L 332 365 L 324 359 L 322 355 L 316 350 L 312 345 L 306 340 L 300 332 L 297 331 L 292 326 L 287 321 L 282 316 L 277 311 L 272 307 L 270 299 L 270 138 L 269 136 Q 265 129 256 128 Z M 189 191 Q 180 193 176 198 L 171 203 L 166 215 Q 167 227 173 235 L 184 242 Q 199 244 207 239 L 217 225 L 219 219 L 218 213 L 212 203 L 200 192 L 189 191 Z M 319 191 L 310 194 Q 298 202 294 217 Q 297 229 304 237 L 314 242 L 330 242 L 336 239 Q 344 232 347 221 L 347 214 L 342 203 L 329 192 L 319 191 Z M 233 210 Q 233 214 230 213 L 231 224 L 233 223 L 233 210 Z M 281 210 L 280 223 L 282 224 L 283 221 L 283 214 L 281 213 L 281 210 Z " /><path fill="rgb(224,240,255)" stroke="rgb(224,240,255)" stroke-width="0" opacity="1" d="M 255.5 128 Q 264.7 129.3 269 135.5 L 270 137.5 L 270 298.5 L 272 306.5 L 276.5 311 L 282 315.5 L 286.5 321 L 292 325.5 L 296.5 331 L 300 332 L 305.5 340 L 312 344.5 L 315.5 350 L 322 354.5 L 324 359 L 332 364.5 L 333 375.5 L 328.5 382 Q 324.3 384.8 315.5 383 L 299 368.5 L 296.5 365 L 262.5 333 L 255.5 331 L 250.5 333 L 214 367.5 L 209.5 373 L 197.5 383 L 186.5 383 L 181 378.5 L 180 367.5 L 183.5 362 L 191 355.5 L 194.5 351 L 199 348.5 L 203.5 342 L 210 337.5 L 213.5 332 L 220 327.5 L 225.5 321 L 231 316.5 L 235.5 311 L 241 306.5 L 243 298.5 L 243 137.5 L 247.5 132 L 255.5 128 Z " /><path fill="rgb(224,240,255)" stroke="rgb(224,240,255)" stroke-width="0" opacity="1" d="M 188.5 191 L 199.5 192 L 212 202.5 L 218 212.5 L 219 218.5 L 217 224.5 L 206.5 239 Q 198.9 244.4 183.5 242 L 173 234.5 Q 166.8 227.2 166 214.5 L 171 202.5 L 175.5 198 Q 180.3 192.8 188.5 191 Z " /><path fill="rgb(224,240,255)" stroke="rgb(224,240,255)" stroke-width="0" opacity="1" d="M 318.5 191 L 328.5 192 L 342 202.5 L 347 213.5 L 347 220.5 Q 343.5 232 335.5 239 L 329.5 242 L 313.5 242 L 304 236.5 Q 297 228.5 294 216.5 Q 298.3 201.8 309.5 194 L 318.5 191 Z " /></svg>