<svg width="2048" height="2048" viewBox="0 0 512 512" version="1.1" xmlns="http://www.w3.org/2000/svg"  style="background:transparent"><path fill="rgb(3,153,255)" stroke="rgb(3,153,255)" stroke-width="0" opacity="1" d="M 217.5 24 L 223.5 25 L 289.5 25 L 295.5 24 L 302.5 28 L 319.5 31 L 325.5 34 L 335.5 34 L 379.5 56 L 391 63.5 L 394 69 L 403 76.5 L 405.5 80 L 419.5 86 L 426 92.5 L 434 107.5 L 444 119 L 450 122 L 452 125.5 L 460 138.5 L 479 178.5 Q 476.3 180.3 478 186.5 L 482 194.5 L 484 207.5 L 489 217.5 L 489 222.5 L 488 223.5 L 488 289.5 L 489 295.5 L 484 305.5 Q 483.7 318.7 478 326.5 L 478 333.5 L 479 335.5 L 460 374.5 L 450 391 L 444 394 L 435.5 404 L 434 405.5 L 431 410 L 423 415.5 L 416.5 423 L 414 424.5 L 410 431 L 404 434 L 395.5 444 L 394 445.5 L 389.5 451 L 335.5 479 L 325.5 479 L 319.5 482 L 305.5 484 L 295.5 489 L 290.5 489 L 289.5 488 L 223.5 488 L 217.5 489 L 207.5 484 L 193.5 482 L 187.5 479 L 177.5 479 L 138.5 460 L 122 449.5 L 119 444 L 109 435.5 L 107.5 434 L 103 431 L 97.5 423 L 92 420 L 88.5 414 L 82 410 L 79 404 L 69 395.5 L 67.5 394 L 63 391 L 53 374.5 L 35 338.5 L 34 332.5 L 35 325.5 L 31 311.5 L 28 292.5 L 24 285.5 L 24 280.5 L 25 279.5 L 25 223.5 L 24 217.5 L 29 206.5 L 32 191.5 L 35 186.5 L 35 179.5 L 34 177.5 L 61 124 L 64.5 122 L 69 119 L 77.5 109 L 79 107.5 L 82 103 L 90 97.5 L 93.5 92 L 99 88.5 L 103 82 L 109 79 L 117.5 69 L 119 67.5 L 124.5 61 L 177.5 34 L 187.5 34 L 193.5 31 L 210.5 28 L 217.5 24 Z M 136 129 L 134 130 L 129 136 L 129 147 L 142 162 L 145 164 L 150 170 Q 152 169 151 172 L 154 174 L 156 175 L 159 180 L 162 182 L 164 185 L 170 190 L 172 193 L 178 198 Q 177 200 180 199 L 182 202 L 185 204 L 190 210 Q 192 209 191 212 L 194 214 L 196 215 L 199 220 L 202 222 L 204 225 L 210 230 L 212 233 L 218 238 Q 217 240 220 239 L 231 253 L 231 261 L 223 270 Q 224 272 221 271 L 182 312 L 178 316 L 172 321 L 170 324 L 168 324 L 166 328 L 161 332 L 156 338 Q 153 337 154 340 L 151 342 L 150 343 L 148 346 L 143 350 L 142 351 L 129 367 Q 127 375 130 380 L 136 384 L 147 384 L 161 372 L 164 370 L 169 364 L 172 362 L 174 359 L 175 358 L 180 354 L 182 351 L 183 350 L 191 343 L 193 340 L 194 339 L 199 335 L 201 332 L 204 330 L 209 324 L 212 322 L 214 319 L 215 318 L 220 314 L 222 311 L 223 310 L 231 303 L 233 300 L 236 298 L 238 295 L 239 294 L 253 282 L 263 283 L 274 294 Q 273 296 276 295 L 278 298 Q 280 297 279 300 L 282 302 L 284 305 L 290 310 L 292 313 L 298 318 Q 297 320 300 319 L 302 322 L 305 324 L 310 330 Q 312 329 311 332 L 314 334 L 316 335 L 319 340 L 322 342 L 324 345 L 330 350 L 332 353 L 338 358 Q 337 360 340 359 L 342 362 L 345 364 L 350 370 Q 352 369 351 372 L 367 384 Q 375 386 380 383 L 384 378 L 384 367 L 372 353 L 370 350 L 364 345 Q 365 342 362 343 L 361 340 L 358 338 L 353 332 Q 350 333 351 330 L 345 326 L 343 322 L 340 321 L 339 319 L 335 314 L 332 313 L 330 310 L 324 305 Q 325 302 322 303 L 321 300 L 318 298 L 313 292 Q 310 293 311 290 L 305 286 L 302 282 L 282 261 L 283 251 L 294 239 L 295 238 L 300 234 L 302 231 L 303 230 L 311 223 L 313 220 L 314 219 L 319 215 L 321 212 L 324 210 L 329 204 L 332 202 L 334 199 L 335 198 L 340 194 L 342 191 L 343 190 L 351 183 L 353 180 L 354 179 L 359 175 L 361 172 L 364 170 L 369 164 L 372 162 L 384 147 Q 386 138 383 134 L 378 129 L 367 129 L 351 142 L 350 143 L 348 146 L 345 148 L 343 151 L 340 153 L 338 156 L 332 161 L 330 164 L 328 164 L 326 168 L 321 172 L 316 178 Q 313 177 314 180 L 311 182 L 310 183 L 308 186 L 305 188 L 303 191 L 300 193 L 298 196 L 292 201 L 290 204 L 288 204 L 286 208 L 281 212 L 276 218 Q 273 217 274 220 L 261 231 L 251 230 L 241 220 Q 238 221 239 218 L 236 217 Q 237 214 234 215 L 233 212 Q 230 213 231 210 L 225 206 L 223 202 L 220 201 L 219 199 L 215 194 L 212 193 L 210 190 L 204 185 Q 205 182 202 183 L 201 180 L 198 178 L 193 172 Q 190 173 191 170 L 185 166 L 183 162 L 180 161 L 179 159 L 175 154 L 172 153 L 170 150 L 164 145 L 162 142 L 147 129 L 136 129 Z " /><path fill="rgb(227,242,255)" stroke="rgb(227,242,255)" stroke-width="0" opacity="1" d="M 135.5 129 L 146.5 129 L 162 141.5 L 164 144.5 L 170 149.5 L 172 152.5 L 175 154 L 178.5 159 L 180 160.5 L 183 162 L 185 165.5 L 191 170 Q 189.9 172.7 192.5 172 L 197.5 178 L 200.5 180 L 202 183 Q 204.7 181.9 204 184.5 L 210 189.5 L 212 192.5 L 215 194 L 218.5 199 L 220 200.5 L 223 202 L 225 205.5 L 231 210 Q 229.9 212.7 232.5 212 L 234 215 Q 236.7 213.9 236 216.5 L 239 218 Q 237.9 220.7 240.5 220 L 250.5 230 L 260.5 231 L 274 220 Q 272.9 217.3 275.5 218 L 280.5 212 L 285.5 208 L 288 204 L 290 204 L 292 200.5 L 298 195.5 L 300 192.5 L 303 191 L 304.5 188 L 308 185.5 L 309.5 183 L 311 181.5 L 314 180 Q 312.9 177.3 315.5 178 L 320.5 172 L 325.5 168 L 328 164 L 330 164 L 332 160.5 L 338 155.5 L 340 152.5 L 343 151 L 344.5 148 L 348 145.5 L 349.5 143 L 351 141.5 L 366.5 129 L 377.5 129 L 383 133.5 Q 385.8 137.7 384 146.5 L 372 162 L 368.5 164 L 364 170 L 360.5 172 L 359 175 L 354 178.5 L 352.5 180 L 351 183 L 343 189.5 L 341.5 191 L 340 194 L 335 197.5 L 333.5 199 L 332 202 L 328.5 204 L 324 210 L 320.5 212 L 319 215 L 314 218.5 L 312.5 220 L 311 223 L 303 229.5 L 301.5 231 L 300 234 L 295 237.5 L 293.5 239 L 283 250.5 L 282 260.5 L 301.5 282 L 305 285.5 L 311 290 Q 309.9 292.7 312.5 292 L 317.5 298 L 320.5 300 L 322 303 Q 324.7 301.9 324 304.5 L 330 309.5 L 332 312.5 L 335 314 L 338.5 319 L 340 320.5 L 343 322 L 345 325.5 L 351 330 Q 349.9 332.7 352.5 332 L 357.5 338 L 360.5 340 L 362 343 Q 364.7 341.9 364 344.5 L 370 349.5 L 372 352.5 L 384 366.5 L 384 377.5 L 379.5 383 Q 375.3 385.8 366.5 384 L 351 372 Q 352.1 369.3 349.5 370 L 344.5 364 L 341.5 362 L 340 359 Q 337.3 360.1 338 357.5 L 332 352.5 L 330 349.5 L 324 345 L 322 341.5 L 319 340 L 315.5 335 L 314 333.5 L 311 332 Q 312.1 329.3 309.5 330 L 304.5 324 L 301.5 322 L 300 319 Q 297.3 320.1 298 317.5 L 292 312.5 L 290 309.5 L 284 305 L 282 301.5 L 279 300 Q 280.1 297.3 277.5 298 L 276 295 Q 273.3 296.1 274 293.5 L 262.5 283 L 252.5 282 L 239 293.5 L 237.5 295 L 236 298 L 232.5 300 L 231 303 L 223 309.5 L 221.5 311 L 220 314 L 215 317.5 L 213.5 319 L 212 322 L 208.5 324 L 204 330 L 200.5 332 L 199 335 L 194 338.5 L 192.5 340 L 191 343 L 183 349.5 L 181.5 351 L 180 354 L 175 357.5 L 173.5 359 L 172 362 L 168.5 364 L 164 370 L 160.5 372 L 146.5 384 L 135.5 384 L 130 379.5 Q 127.2 375.3 129 366.5 L 141.5 351 L 143 349.5 L 148 345.5 L 149.5 343 L 151 341.5 L 154 340 Q 152.9 337.3 155.5 338 L 160.5 332 L 165.5 328 L 168 324 L 170 324 L 172 320.5 L 178 315.5 L 181.5 312 L 221 271 Q 223.7 272.1 223 269.5 L 231 260.5 L 231 252.5 L 220 239 Q 217.3 240.1 218 237.5 L 212 232.5 L 210 229.5 L 204 225 L 202 221.5 L 199 220 L 195.5 215 L 194 213.5 L 191 212 Q 192.1 209.3 189.5 210 L 184.5 204 L 181.5 202 L 180 199 Q 177.3 200.1 178 197.5 L 172 192.5 L 170 189.5 L 164 185 L 162 181.5 L 159 180 L 155.5 175 L 154 173.5 L 151 172 Q 152.1 169.3 149.5 170 L 144.5 164 L 141.5 162 L 129 146.5 L 129 135.5 L 133.5 130 L 135.5 129 Z " /></svg>