<svg width="2048" height="2048" viewBox="0 0 512 512" version="1.1" xmlns="http://www.w3.org/2000/svg"  style="background:transparent"><path fill="rgb(0,102,255)" stroke="rgb(0,102,255)" stroke-width="0" opacity="1" d="M 231 198 Q 236.2 195.9 235 200.5 L 231 202 L 231 198 Z " /><path fill="rgb(0,102,255)" stroke="rgb(0,102,255)" stroke-width="0" opacity="1" d="M 278 198 Q 284 196 282 202 L 278 200.5 L 278 198 Z " /><path fill="rgb(4,154,255)" stroke="rgb(4,154,255)" stroke-width="0" opacity="1" d="M 217.5 24 L 223.5 25 L 289.5 25 L 295.5 24 L 302.5 28 L 319.5 31 L 325.5 34 L 335.5 34 L 379.5 56 L 391 63.5 L 394 69 L 403 76.5 L 405.5 80 L 419.5 86 L 426 92.5 L 434 107.5 L 444 119 L 450 122 L 452 125.5 L 460 138.5 L 479 178.5 Q 476.3 180.3 478 186.5 L 482 194.5 L 484 207.5 L 489 217.5 L 489 222.5 L 488 223.5 L 488 289.5 L 489 295.5 L 484 305.5 Q 483.7 318.7 478 326.5 L 478 333.5 L 479 335.5 L 460 374.5 L 450 391 L 444 394 L 435.5 404 L 434 405.5 L 431 410 L 423 415.5 L 416.5 423 L 414 424.5 L 410 431 L 404 434 L 395.5 444 L 394 445.5 L 389.5 451 L 335.5 479 L 325.5 479 L 319.5 482 L 305.5 484 L 295.5 489 L 290.5 489 L 289.5 488 L 223.5 488 L 217.5 489 L 207.5 484 L 193.5 482 L 187.5 479 L 177.5 479 L 138.5 460 L 122 449.5 L 119 444 L 109 435.5 L 107.5 434 L 103 431 L 97.5 423 L 92 420 L 88.5 414 L 82 410 L 79 404 L 69 395.5 L 67.5 394 L 63 391 L 53 374.5 L 35 338.5 L 34 332.5 L 35 325.5 L 31 311.5 L 28 292.5 L 24 285.5 L 24 280.5 L 25 279.5 L 25 223.5 L 24 217.5 L 29 206.5 L 32 191.5 L 35 186.5 L 35 179.5 L 34 177.5 L 61 124 L 64.5 122 L 69 119 L 77.5 109 L 79 107.5 L 82 103 L 90 97.5 L 93.5 92 L 99 88.5 L 103 82 L 109 79 L 117.5 69 L 119 67.5 L 124.5 61 L 177.5 34 L 187.5 34 L 193.5 31 L 210.5 28 L 217.5 24 Z M 138 161 L 135 162 L 130 168 L 127 178 L 128 182 L 128 334 L 127 335 L 129 347 L 131 351 L 135 353 Q 143 355 148 352 L 152 344 L 152 195 L 153 193 L 161 188 L 238 188 L 243 195 L 243 302 L 244 306 L 254 313 Q 261 314 264 311 Q 268 308 270 302 L 270 195 L 276 188 L 353 188 L 358 190 L 361 195 L 361 344 L 363 350 L 369 353 Q 379 355 382 351 Q 386 346 385 336 L 385 334 L 385 182 L 386 181 L 382 166 L 376 161 L 138 161 Z M 231 198 L 231 202 L 235 201 Q 236 196 231 198 Z M 278 198 L 278 201 L 282 202 Q 284 196 278 198 Z " /><path fill="rgb(222,239,255)" stroke="rgb(222,239,255)" stroke-width="0" opacity="1" d="M 137.5 161 L 375.5 161 L 382 165.5 L 386 180.5 L 385 181.5 L 385 333.5 L 385 335.5 Q 385.9 346 382 351 Q 378.6 354.7 368.5 353 L 363 349.5 L 361 343.5 L 361 194.5 L 357.5 190 L 352.5 188 L 275.5 188 L 270 194.5 L 270 301.5 Q 268.5 308 263.5 311 Q 260.5 314 253.5 313 L 244 305.5 L 243 301.5 L 243 194.5 L 237.5 188 L 160.5 188 L 153 192.5 L 152 194.5 L 152 343.5 L 147.5 352 Q 143.3 354.8 134.5 353 L 131 350.5 L 129 346.5 L 127 334.5 L 128 333.5 L 128 181.5 L 127 177.5 L 130 167.5 L 134.5 162 L 137.5 161 Z " /></svg>