<svg width="2048" height="2048" viewBox="0 0 512 512" version="1.1" xmlns="http://www.w3.org/2000/svg"  style="background:transparent"><path fill="rgb(2,153,255)" stroke="rgb(2,153,255)" stroke-width="0" opacity="1" d="M 217.5 24 L 223.5 25 L 289.5 25 L 295.5 24 L 302.5 28 L 319.5 31 L 325.5 34 L 335.5 34 L 379.5 56 L 391 63.5 L 394 69 L 403 76.5 L 405.5 80 L 419.5 86 L 426 92.5 L 434 107.5 L 444 119 L 450 122 L 452 125.5 L 460 138.5 L 479 178.5 Q 476.3 180.3 478 186.5 L 482 194.5 L 484 207.5 L 489 217.5 L 489 222.5 L 488 223.5 L 488 289.5 L 489 295.5 L 484 305.5 Q 483.7 318.7 478 326.5 L 478 333.5 L 479 335.5 L 460 374.5 L 450 391 L 444 394 L 435.5 404 L 434 405.5 L 431 410 L 423 415.5 L 416.5 423 L 414 424.5 L 410 431 L 404 434 L 395.5 444 L 394 445.5 L 389.5 451 L 335.5 479 L 325.5 479 L 319.5 482 L 305.5 484 L 295.5 489 L 290.5 489 L 289.5 488 L 223.5 488 L 217.5 489 L 207.5 484 L 193.5 482 L 187.5 479 L 177.5 479 L 138.5 460 L 122 449.5 L 119 444 L 109 435.5 L 107.5 434 L 103 431 L 97.5 423 L 92 420 L 88.5 414 L 82 410 L 79 404 L 69 395.5 L 67.5 394 L 63 391 L 53 374.5 L 35 338.5 L 34 332.5 L 35 325.5 L 31 311.5 L 28 292.5 L 24 285.5 L 24 280.5 L 25 279.5 L 25 223.5 L 24 217.5 L 29 206.5 L 32 191.5 L 35 186.5 L 35 179.5 L 34 177.5 L 61 124 L 64.5 122 L 69 119 L 77.5 109 L 79 107.5 L 82 103 L 90 97.5 L 93.5 92 L 99 88.5 L 103 82 L 109 79 L 117.5 69 L 119 67.5 L 124.5 61 L 177.5 34 L 187.5 34 L 193.5 31 L 210.5 28 L 217.5 24 Z M 257 128 L 245 135 L 239 148 L 232 156 L 230 162 L 223 170 L 218 180 L 217 181 L 207 197 L 206 198 L 199 211 L 193 217 L 189 227 L 183 233 L 180 241 Q 173 246 170 255 L 170 262 L 172 267 L 177 270 L 300 270 L 302 271 L 304 275 L 303 281 L 293 293 L 290 301 L 284 307 L 279 319 L 277 320 L 269 334 L 263 340 L 259 350 L 253 356 L 246 370 L 246 378 L 256 385 L 267 381 L 270 378 L 274 369 L 281 361 L 284 353 L 287 351 L 295 336 L 298 334 L 303 323 L 311 314 L 314 306 L 320 300 L 323 292 L 330 284 L 335 274 L 337 272 L 345 258 L 345 253 L 342 247 L 338 243 L 221 243 L 220 244 L 212 242 L 210 238 L 212 232 L 217 228 L 224 214 L 227 212 L 229 210 L 233 200 L 239 194 L 243 184 L 250 177 L 254 167 L 260 161 L 263 153 Q 268 149 270 143 L 269 135 Q 265 129 257 128 Z " /><path fill="rgb(221,240,255)" stroke="rgb(221,240,255)" stroke-width="0" opacity="1" d="M 256.5 128 Q 264.8 129.2 269 134.5 L 270 142.5 Q 268.3 149.3 263 152.5 L 260 160.5 L 254 166.5 L 250 176.5 L 243 183.5 L 239 193.5 L 233 199.5 L 229 209.5 L 226.5 212 L 224 213.5 L 216.5 228 L 212 231.5 L 210 237.5 L 212 242 L 219.5 244 L 220.5 243 L 337.5 243 L 342 246.5 L 345 252.5 L 345 257.5 L 336.5 272 L 335 273.5 L 330 283.5 L 323 291.5 L 320 299.5 L 314 305.5 L 311 313.5 L 303 322.5 L 298 334 L 295 335.5 L 286.5 351 L 284 352.5 L 281 360.5 L 274 368.5 L 270 377.5 L 266.5 381 L 255.5 385 L 246 377.5 L 246 369.5 L 253 355.5 L 259 349.5 L 263 339.5 L 269 333.5 L 276.5 320 L 279 318.5 L 284 306.5 L 290 300.5 L 293 292.5 L 303 280.5 L 304 274.5 L 301.5 271 L 299.5 270 L 176.5 270 L 172 266.5 L 170 261.5 L 170 254.5 Q 173 245.5 180 240.5 L 183 232.5 L 189 226.5 L 193 216.5 L 199 210.5 L 205.5 198 L 207 196.5 L 216.5 181 L 218 179.5 L 223 169.5 L 230 161.5 L 232 155.5 L 239 147.5 L 245 135 L 256.5 128 Z " /></svg>