<svg width="2048" height="2048" viewBox="0 0 512 512" version="1.1" xmlns="http://www.w3.org/2000/svg"  style="background:transparent"><path fill="rgb(204,102,97)" stroke="rgb(204,102,97)" stroke-width="0" opacity="1" d="M 154 110 L 358.5 110 L 359 111.5 L 360 114 L 363 114.5 L 363 237.5 L 360.5 241 L 353 245.5 L 352.5 252 L 349.5 251 L 346 249.5 L 345 246.5 L 345 223.5 L 348 210.5 L 345 198.5 L 345 173.5 L 342.5 170 L 335 166.5 Q 334.1 159.9 329.5 157 L 326 154.5 L 322.5 150 L 314 145.5 Q 313.6 140 309.5 138 L 282.5 138 Q 275 136 271.5 130 L 260.5 129 L 254.5 131 L 246.5 138 L 223.5 138 L 220 140.5 Q 220.1 146.1 216.5 148 L 210 151.5 L 206.5 158 L 200 161.5 L 196.5 168 L 189 172.5 L 188 174.5 L 188 186.5 L 186.5 188 L 173.5 188 L 169 191.5 L 168 201.5 L 170 208.5 L 173.5 212 L 186.5 215 L 187.5 214 L 195.5 214 L 200 216.5 L 205.5 223 Q 214.1 222.1 218 225 L 221 233 L 238 235 Q 238.3 241.1 242.5 244 L 248 247.5 L 242 254.5 L 242 257.5 L 245.5 262 L 247 263.5 L 249 265.5 L 249 275.5 L 246.5 279 L 239 282.5 Q 238 290 240 293 L 246.5 295 L 252 292.5 L 255.5 285 L 263 281.5 Q 263.5 276 267.5 274 L 273 271.5 L 275 265 Q 278 263 285.5 264 L 290 267.5 L 294.5 274 L 318.5 275 L 328.5 279 L 331.5 278 L 328.5 282 L 323 285.5 L 318.5 292 L 313 295.5 L 308.5 302 L 303 305.5 L 298.5 312 L 293 315.5 L 288.5 322 L 283 325.5 L 278.5 332 L 273 335.5 L 268.5 342 L 264 344.5 L 261.5 348 L 259.5 349 L 258 348.5 L 256.5 353 L 254.5 348 L 252.5 348 L 249 345.5 L 247.5 343 L 241 338.5 L 237.5 333 L 231 328.5 L 227.5 323 L 221 318.5 L 217.5 313 L 211 308.5 L 207.5 303 L 201 298.5 L 197.5 293 L 191 288.5 L 189 281.5 L 192 275.5 L 188.5 271 L 184.5 273 L 181 268.5 L 182 263.5 L 179.5 261 Q 173.3 262.3 172 258.5 Q 173.8 251.8 170.5 250 L 168.5 249 L 162.5 251 L 160 250.5 Q 161.3 244.3 157.5 243 L 151 239.5 L 150 237.5 L 150 114.5 L 151.5 112 L 152.5 114 L 154 110 Z M 156 116 L 156 120 L 160 122 L 162 118 Q 161 115 156 116 Z M 353 116 L 351 118 L 353 121 L 357 120 Q 359 114 353 116 Z M 158 232 L 156 234 Q 155 238 160 236 Q 162 231 158 232 Z M 356 232 L 354 235 Q 356 238 357 235 L 356 232 Z M 196 283 L 196 286 L 199 287 L 200 285 L 196 283 Z M 315 284 L 313 286 Q 315 289 316 286 L 315 284 Z M 257 343 L 255 346 Q 257 349 258 346 L 257 343 Z " /><path fill="rgb(204,102,97)" stroke="rgb(204,102,97)" stroke-width="0" opacity="1" d="M 265.5 254 L 269 255.5 L 267.5 259 L 264 257.5 L 265.5 254 Z " /><path fill="rgb(204,102,97)" stroke="rgb(204,102,97)" stroke-width="0" opacity="1" d="M 325.5 254 L 338.5 254 L 340 255.5 L 338.5 259 Q 326 261 320 256.5 L 325.5 254 Z " /><path fill="rgb(204,153,102)" stroke="rgb(204,153,102)" stroke-width="0" opacity="1" d="M 359.5 111 L 361 112.5 L 361.5 114 L 360 112.5 L 359.5 111 Z " /><path fill="rgb(204,153,102)" stroke="rgb(204,153,102)" stroke-width="0" opacity="1" d="M 156 116 Q 160.6 114.8 162 117.5 L 159.5 122 L 156 119.5 L 156 116 Z " /><path fill="rgb(204,153,102)" stroke="rgb(204,153,102)" stroke-width="0" opacity="1" d="M 352.5 116 Q 358.8 113.8 357 119.5 L 352.5 121 L 351 117.5 L 352.5 116 Z " /><path fill="rgb(204,153,102)" stroke="rgb(204,153,102)" stroke-width="0" opacity="1" d="M 260.5 129 L 271.5 130 Q 275 136 282.5 138 L 309.5 138 L 313 141.5 L 316.5 148 Q 323.1 148.9 326 153.5 L 328.5 157 L 333 160.5 L 336.5 168 L 344 171.5 L 345 173.5 L 345 198.5 L 348 212.5 Q 342.5 225.5 345 246.5 L 347.5 251 L 350.5 252 Q 351.8 249.8 353 252.5 Q 354 259 350.5 261 L 344.5 264 L 337.5 261 L 328.5 261 L 322.5 262 L 311.5 260 L 300.5 260 L 297 257.5 L 299.5 254 L 306.5 252 L 336.5 251 L 337.5 250 L 339.5 251 L 342 248.5 L 342 237.5 L 341 236.5 L 341 225.5 L 342 224.5 L 342 198.5 L 341 197.5 L 341 184.5 L 342 177.5 L 338.5 172 L 333 170 Q 331.9 163.4 326.5 160 L 323 157.5 L 318.5 152 L 313 150 L 308.5 142 L 292.5 141 L 288.5 142 L 287.5 141 L 276.5 141 L 267.5 135 L 263.5 135 Q 255.5 141 242.5 142 L 241.5 141 L 226.5 141 L 222 144.5 L 220 150 L 212 154.5 L 210 160 L 202 164.5 L 200 170 L 192 174.5 L 191 180.5 L 192 185.5 L 188.5 191 L 182.5 192 L 176.5 191 L 172 194.5 L 172 201.5 L 179.5 209 Q 186 213 198.5 211 Q 205.3 212.7 208.5 218 L 220 222 L 225.5 230 L 237.5 231 L 241 234.5 L 245.5 241 L 252 244.5 L 253 247.5 L 249 256.5 L 254 264.5 L 254 268.5 L 252 271.5 L 251 279.5 L 252 282 Q 258.5 282.7 261 278.5 L 263 273 L 271 268.5 Q 272.3 263.3 269.5 262 Q 262.6 262.9 261 258.5 Q 260.2 252.7 263.5 251 L 271 252 L 274.5 261 L 290.5 261 L 294 264.5 Q 293.5 269.5 297.5 270 Q 304.1 272.9 315.5 271 L 326.5 274 L 330.5 273 L 333 274 L 331.5 278 L 328.5 279 L 318.5 275 L 294.5 274 L 291 270.5 L 287.5 265 L 277.5 264 L 275 265 L 271.5 273 Q 266 273.5 264 277.5 L 261.5 283 L 254 286.5 L 250.5 294 L 245.5 295 L 240 293 Q 238 290 239 282.5 L 248 277.5 L 249 265.5 L 247 262 L 243 259.5 L 242 254.5 L 248 247.5 L 240 241.5 L 238 235 L 221 233 L 218 225 Q 214.1 222.1 205.5 223 L 200 217.5 L 198.5 215 L 187.5 214 L 185.5 214 Q 174 215 170 208.5 Q 167.1 202.9 168 193.5 L 171.5 189 L 173.5 188 L 186.5 188 L 188 186.5 L 188 174.5 L 191.5 170 L 199 165.5 L 201.5 160 L 209 155.5 L 211.5 150 L 219 145.5 L 221.5 139 L 223.5 138 L 246.5 138 L 254.5 131 L 260.5 129 Z M 266 254 L 264 258 L 268 259 L 269 256 L 266 254 Z M 326 254 L 320 257 Q 326 261 339 259 L 340 256 L 339 254 L 326 254 Z M 248 282 L 245 283 L 242 287 L 243 289 L 247 291 L 249 290 L 251 284 L 248 282 Z " /><path fill="rgb(204,153,102)" stroke="rgb(204,153,102)" stroke-width="0" opacity="1" d="M 157.5 232 Q 162.1 230.8 160 236 Q 154.8 238.1 156 233.5 L 157.5 232 Z " /><path fill="rgb(204,153,102)" stroke="rgb(204,153,102)" stroke-width="0" opacity="1" d="M 355.5 232 L 357 234.5 Q 355.5 237.5 354 234.5 L 355.5 232 Z " /><path fill="rgb(204,153,102)" stroke="rgb(204,153,102)" stroke-width="0" opacity="1" d="M 168.5 249 L 172 251.5 Q 170.2 259.3 174.5 261 Q 180.8 259.8 182 263.5 L 181 268.5 L 184.5 273 L 188.5 271 L 192 275.5 L 188.5 284 L 181 278.5 L 177.5 273 L 171 268.5 L 167.5 263 L 161 259.5 L 160 251.5 Q 161.3 248.7 162.5 251 L 168.5 249 Z " /><path fill="rgb(204,153,102)" stroke="rgb(204,153,102)" stroke-width="0" opacity="1" d="M 196 283 L 200 284.5 L 198.5 287 L 196 286 L 196 283 Z " /><path fill="rgb(204,153,102)" stroke="rgb(204,153,102)" stroke-width="0" opacity="1" d="M 314.5 284 L 316 285.5 Q 314.5 288.5 313 285.5 L 314.5 284 Z " /><path fill="rgb(204,153,102)" stroke="rgb(204,153,102)" stroke-width="0" opacity="1" d="M 256.5 343 L 258 345.5 Q 256.5 348.5 255 345.5 L 256.5 343 Z " /><path fill="rgb(204,153,102)" stroke="rgb(204,153,102)" stroke-width="0" opacity="1" d="M 250.5 347 L 253.5 349 L 255 348.5 L 255.5 352 L 258 351.5 L 258.5 348 L 260.5 348 L 262.5 347 L 262 348.5 L 258.5 353 L 256.5 352 L 254.5 353 L 250.5 347 Z " /><path fill="rgb(248,238,236)" stroke="rgb(248,238,236)" stroke-width="0" opacity="1" d="M 263.5 135 L 267.5 135 L 276.5 141 L 291.5 142 L 292.5 141 L 305.5 141 L 311 144.5 L 313 150 Q 319.6 151.1 323 156.5 L 325.5 160 L 331 164.5 L 333 170 L 341 174.5 L 342 183.5 L 341 184.5 L 341 197.5 L 342 198.5 L 342 224.5 L 341 225.5 L 341 236.5 L 342 237.5 L 342 248.5 L 338.5 251 L 336.5 251 L 306.5 252 L 301.5 253 L 297 256.5 L 298.5 259 L 327.5 262 L 328.5 261 L 337.5 261 L 344 263 Q 343.1 268.9 338.5 272 L 333.5 275 L 327.5 273 L 323.5 274 Q 315.5 269 300.5 271 L 294 266.5 Q 294.5 261.5 290.5 261 L 274.5 261 L 273 259.5 L 271 252 L 263.5 251 Q 260.2 252.7 261 258.5 L 263.5 261 L 271 263.5 Q 272.3 269.8 268.5 271 L 263 273 L 258.5 281 L 252 282 L 251 276.5 L 254 268.5 L 254 264.5 Q 249.8 261.7 249 255.5 L 253 246.5 L 250.5 243 L 242 237.5 L 237.5 231 Q 226.3 233.2 223 227.5 L 220 222 L 208.5 218 Q 205.3 212.7 198.5 211 Q 187.8 212.8 181.5 210 L 172 201.5 Q 170.2 193.8 174.5 192 L 181.5 191 L 185.5 192 L 191 188.5 L 192 181.5 L 191 177.5 L 194.5 172 L 200 170 L 204.5 162 L 210 160 L 213.5 153 L 220 150 L 224.5 142 L 226.5 141 L 241.5 141 L 243.5 142 L 253.5 140 L 263.5 135 Z " /><path fill="rgb(248,238,236)" stroke="rgb(248,238,236)" stroke-width="0" opacity="1" d="M 247.5 282 L 251 283.5 L 248.5 290 L 246.5 291 L 243 288.5 L 242 286.5 L 244.5 283 L 247.5 282 Z " /></svg>