<svg width="2048" height="2048" viewBox="0 0 512 512" version="1.1" xmlns="http://www.w3.org/2000/svg"  style="background:transparent"><path fill="rgb(204,102,95)" stroke="rgb(204,102,95)" stroke-width="0" opacity="1" d="M 158 110 L 355 110.5 L 355 112.5 Q 356.1 115.8 353.5 115 L 351 116 L 351 121 L 352.5 121 L 355.5 122 L 358.5 118 L 363 118.5 L 363 247.5 L 360.5 251 L 353 255.5 Q 354.9 260.9 351.5 260 L 348.5 261 L 344.5 259 L 341 261.5 L 340 267.5 Q 342.8 269.3 338.5 271 Q 332.3 269.8 331 273.5 L 332 278.5 L 328.5 283 L 325.5 281 L 322 282 L 321 285.5 L 325 293.5 L 318.5 302 L 316.5 303 L 316 296.5 L 317 293.5 L 314.5 291 Q 308 291 305 287.5 L 301.5 278 L 297 276 Q 294.1 273.1 295 265.5 L 291.5 260 L 285 258 Q 282.9 254.7 284 246.5 L 279.5 241 L 275 237.5 Q 274.9 231.1 270.5 229 L 265 225.5 L 264 197.5 L 266.5 194 L 284.5 195 L 293 193 Q 295.6 190.7 295 184.5 L 291.5 179 L 289.5 178 L 266.5 178 L 265 176.5 L 264 170.5 Q 266.8 168.8 265 162.5 L 264 158.5 L 265 155 L 267.5 154 L 300.5 154 L 303 153 Q 305.7 150.4 305 143.5 L 301.5 139 L 299.5 138 L 266.5 138 L 265 136.5 L 264 130.5 L 265 123.5 L 261.5 118 Q 252.6 116.7 249 119 L 248 129.5 L 249 134.5 L 246.5 138 L 213.5 138 L 209 141.5 L 208 147.5 L 212.5 154 L 245.5 154 L 248 155 L 249 162.5 L 248 168.5 L 249 174.5 L 246.5 178 L 223.5 178 L 219 181.5 L 218 188.5 L 220 193 L 231.5 195 L 232.5 194 L 246.5 194 Q 250.3 196.3 249 203.5 L 248 204.5 L 248 225.5 L 245.5 228 L 239 232.5 Q 238.9 238.9 234.5 241 L 231 242 L 229 246.5 L 228 256.5 L 226.5 258 L 219 262.5 L 218 269.5 L 210 278.5 L 206.5 289 L 198.5 291 L 196 293.5 L 197 300.5 L 194.5 302 L 188 293.5 L 192 284.5 L 191 282 L 186.5 281 Q 184.3 285.3 182 280.5 L 181 278.5 L 182 273.5 L 179.5 271 Q 173.3 272.3 172 268.5 Q 173.8 261.8 170.5 260 L 168.5 259 L 162.5 261 L 160 260 Q 161.3 254.5 157.5 253 L 151 249.5 L 150 247.5 L 150 118 L 154.5 117 L 157.5 122 L 162 119.5 L 159.5 115 L 157 114.5 L 158 110 Z M 158 242 L 156 245 L 160 246 Q 162 241 158 242 Z M 353 242 Q 351 247 356 246 L 357 244 L 353 242 Z " /><path fill="rgb(204,102,95)" stroke="rgb(204,102,95)" stroke-width="0" opacity="1" d="M 255.5 244 L 259 245.5 Q 259.5 251.1 263.5 253 L 268 255.5 L 270 263.5 L 278 272.5 L 280 282 L 288 285.5 L 290 295.5 L 289 298 L 279.5 299 L 278.5 298 L 234.5 298 L 227.5 299 L 223 296.5 Q 221.9 287.4 226.5 284 Q 232.1 283.6 234 279.5 L 236 269.5 L 239.5 266 L 243 263.5 Q 243 257 246.5 254 L 252 250.5 L 255.5 244 Z " /><path fill="rgb(204,102,95)" stroke="rgb(204,102,95)" stroke-width="0" opacity="1" d="M 223.5 315 L 289.5 315 L 290.5 316 L 303 316.5 L 298.5 322 L 293 325.5 L 288.5 332 L 283 335.5 L 278.5 342 L 273 345.5 L 268.5 352 L 264 354 L 261 361 Q 258 360 259 363 L 254.5 363 L 249 354 L 241 348.5 L 237.5 343 L 231 338.5 L 227.5 333 L 221 328.5 L 217.5 323 L 211 318.5 L 210 316.5 L 222.5 316 L 223.5 315 Z " /><path fill="rgb(204,153,102)" stroke="rgb(204,153,102)" stroke-width="0" opacity="1" d="M 154.5 110 Q 159.8 108.3 158 113.5 L 157.5 115 L 162 117.5 L 159.5 122 L 156 120.5 L 154.5 117 L 150 118 Q 149.2 113 152.5 111 L 154.5 110 Z " /><path fill="rgb(204,153,102)" stroke="rgb(204,153,102)" stroke-width="0" opacity="1" d="M 355.5 110 Q 360.6 109.4 362 112.5 L 363 118 Q 358.4 116.8 357 119.5 L 355.5 122 L 351 121 L 351 116 L 352.5 116 L 355 115 L 354 111.5 L 355.5 110 Z " /><path fill="rgb(204,153,102)" stroke="rgb(204,153,102)" stroke-width="0" opacity="1" d="M 251.5 118 L 261.5 118 L 264 120.5 L 265 129.5 L 264 134.5 L 266.5 138 L 299.5 138 L 304 141.5 L 305 148.5 L 303 153 L 300.5 154 L 267.5 154 L 265 155 L 264 161.5 Q 266.8 163.3 265 169.5 L 264 174.5 L 266.5 178 L 289.5 178 L 294 181.5 L 295 188.5 L 293 193 L 281.5 195 L 280.5 194 L 266.5 194 Q 263 196 264 202.5 L 265 203.5 L 265 225.5 L 267.5 228 L 274 232.5 Q 274.1 238.9 278.5 241 L 283 244.5 L 285 258 L 293 261.5 L 297 276 L 303 279.5 L 306.5 289 L 314.5 291 L 317 293.5 L 316 302.5 L 314.5 304 L 312 296.5 L 309.5 294 L 304 292 Q 303.6 283.6 297.5 280 L 293 277.5 L 292 266.5 L 288.5 262 L 283 259.5 Q 282.3 249.3 276.5 244 L 274 242.5 L 270 232 L 263 228.5 L 262 225.5 L 262 195.5 L 263 193 L 270.5 191 L 271.5 192 L 286.5 192 L 291 189.5 L 292 185.5 L 288.5 181 L 277.5 180 L 276.5 181 L 266.5 181 L 263 178.5 L 262 176.5 L 262 155.5 L 263 153 Q 266.2 150.4 273.5 151 L 274.5 152 L 296.5 152 L 300 151 L 302 145.5 L 298.5 141 L 296.5 140 L 275.5 140 Q 273.8 142.7 267.5 141 L 263 138.5 L 262 136.5 L 262 124.5 L 259.5 121 Q 253.5 119.5 252 122.5 L 251 124.5 L 251 136.5 L 248.5 140 L 238.5 141 L 237.5 140 L 216.5 140 L 212 143.5 L 211 146.5 L 214.5 151 L 216.5 152 L 238.5 152 L 244.5 151 L 250 153 L 251 155.5 L 251 177.5 L 246.5 181 L 234.5 181 L 227.5 180 L 222 183.5 L 221 187.5 L 223.5 191 Q 230.1 193.9 241.5 192 L 244.5 191 L 250 193 L 251 195.5 L 251 225.5 L 248.5 230 L 243 232 L 240 240.5 L 232 249.5 L 230 260 L 222 264.5 Q 219.3 267.8 220 274.5 L 216.5 279 L 212 282.5 L 209 292 L 201 295.5 Q 201.7 301.7 198.5 304 L 196 303 L 197 296.5 L 196 293.5 L 198.5 291 Q 205 291 208 287.5 L 210 278.5 L 217 271.5 L 219 262.5 L 221.5 260 L 228 256.5 L 229 246.5 L 231 242 L 238 237.5 Q 238.1 231.1 242.5 229 L 248 225.5 L 249 197.5 L 246.5 194 L 228.5 195 L 220 193 Q 217.4 190.7 218 184.5 L 221.5 179 L 223.5 178 L 246.5 178 L 248 176.5 L 249 169.5 L 248 163.5 L 249 158.5 L 248 155 L 245.5 154 L 212.5 154 L 209 150.5 L 208 144.5 L 211.5 139 L 213.5 138 L 246.5 138 L 248 136.5 L 249 130.5 L 248 123.5 L 249 119 L 251.5 118 Z " /><path fill="rgb(204,153,102)" stroke="rgb(204,153,102)" stroke-width="0" opacity="1" d="M 255.5 239 L 260 241.5 L 266.5 251 L 270 253.5 L 274.5 263 L 279 265.5 Q 279.4 274.6 283.5 280 L 291 284.5 L 291 288.5 L 294 296.5 L 291.5 300 L 288.5 301 L 223.5 301 L 218 296.5 L 222 284.5 L 225.5 281 Q 230.5 281.5 231 277.5 L 233 266.5 L 236.5 263 L 241 259.5 Q 241.9 252.9 246.5 250 L 250 247.5 L 255.5 239 Z M 256 244 L 252 251 L 247 254 Q 243 257 243 264 L 240 266 L 236 270 L 234 280 Q 232 284 227 284 Q 222 287 223 297 L 228 299 L 235 298 L 279 298 L 280 299 L 289 298 L 290 296 L 288 286 L 280 282 L 278 273 L 270 264 L 268 256 L 264 253 Q 259 251 259 246 L 256 244 Z " /><path fill="rgb(204,153,102)" stroke="rgb(204,153,102)" stroke-width="0" opacity="1" d="M 157.5 242 Q 162.1 240.8 160 246 L 156 244.5 L 157.5 242 Z " /><path fill="rgb(204,153,102)" stroke="rgb(204,153,102)" stroke-width="0" opacity="1" d="M 353 242 L 357 243.5 L 355.5 246 Q 350.9 247.2 353 242 Z " /><path fill="rgb(204,153,102)" stroke="rgb(204,153,102)" stroke-width="0" opacity="1" d="M 168.5 259 L 172 261.5 Q 170.2 269.3 174.5 271 Q 180.8 269.8 182 273.5 L 181 278.5 L 184.5 283 L 187.5 281 L 191 282 L 192 285.5 L 189 293 Q 183.4 292.9 181 288.5 L 177.5 283 L 171 278.5 L 167.5 273 L 161 269.5 L 160 260 L 165.5 261 L 168.5 259 Z " /><path fill="rgb(204,153,102)" stroke="rgb(204,153,102)" stroke-width="0" opacity="1" d="M 344.5 259 L 348.5 261 L 351.5 260 L 353 260.5 L 353 267.5 L 350.5 271 L 343 275.5 L 338.5 282 L 333 285.5 L 328.5 292 L 324 293 L 321 284.5 L 322 282 L 326.5 281 Q 328.8 285.3 331 280.5 L 332 278.5 L 331 273.5 L 333.5 271 Q 339.8 272.3 341 268.5 L 340 264.5 L 342.5 260 L 344.5 259 Z " /><path fill="rgb(204,153,102)" stroke="rgb(204,153,102)" stroke-width="0" opacity="1" d="M 214.5 312 Q 216.3 314.8 222.5 313 L 223.5 312 L 289.5 312 Q 291.2 314.8 297.5 313 L 299.5 313 L 304 314.5 L 302.5 316 L 290.5 316 L 289.5 315 L 223.5 315 L 222.5 316 L 210.5 316 L 209.5 314 L 214.5 312 Z " /><path fill="rgb(239,209,203)" stroke="rgb(239,209,203)" stroke-width="0" opacity="1" d="M 253.5 121 Q 259.5 119.5 261 122.5 L 262 124.5 L 262 136.5 L 264.5 140 L 274.5 141 L 275.5 140 L 296.5 140 L 301 143.5 L 302 147.5 L 300 151 L 296.5 152 L 274.5 152 L 268.5 151 L 263 153 L 262 155.5 L 262 176.5 L 264.5 180 L 276.5 181 L 277.5 180 L 285.5 180 L 291 183.5 L 292 187.5 L 289.5 191 Q 282.9 193.9 271.5 192 L 268.5 191 L 263 193 L 262 195.5 L 262 225.5 L 264.5 230 L 270 232 L 275.5 244 L 279 246.5 Q 282.6 249.9 282 257.5 L 284.5 261 L 291 264.5 Q 293.7 269.3 293 277.5 L 294.5 279 L 302 284.5 L 304 292 L 312 296.5 L 314 304.5 L 308.5 312 L 302.5 314 L 298.5 312 Q 296.8 314.8 290.5 313 L 289.5 312 L 223.5 312 Q 221.8 314.8 215.5 313 L 213.5 313 L 208.5 314 L 201 308.5 L 199 302.5 L 202.5 294 L 209 292 L 212 282.5 L 215.5 279 L 219 276.5 L 221 266.5 L 224.5 262 L 230 260 L 232 249.5 L 240 240.5 L 243 232 L 250 228.5 L 251 225.5 L 251 195.5 L 250 193 L 242.5 191 L 241.5 192 L 226.5 192 L 222 189.5 L 221 185.5 L 224.5 181 L 233.5 180 L 234.5 181 L 246.5 181 L 251 177.5 L 251 155.5 L 250 153 Q 246.8 150.4 239.5 151 L 238.5 152 L 216.5 152 L 212 148.5 L 211 145.5 L 214.5 141 L 216.5 140 L 237.5 140 Q 239.3 142.7 245.5 141 L 250 138.5 L 251 136.5 L 251 124.5 L 253.5 121 Z M 256 239 L 250 248 L 247 250 Q 242 253 241 260 L 237 263 L 233 267 L 231 278 Q 230 282 226 281 L 222 285 L 218 297 L 224 301 L 289 301 L 292 300 L 294 297 L 291 289 L 291 285 L 284 280 Q 279 275 279 266 L 275 263 L 270 254 L 267 251 L 260 242 L 256 239 Z " /></svg>