<svg width="2048" height="2048" viewBox="0 0 512 512" version="1.1" xmlns="http://www.w3.org/2000/svg"  style="background:transparent"><path fill="rgb(204,102,96)" stroke="rgb(204,102,96)" stroke-width="0" opacity="1" d="M 158.5 110 L 353.5 110 L 354 115 L 351 116.5 Q 350 121 352.5 122 Q 357.9 123.9 357 120.5 Q 358.4 117.8 363 119 L 363 247.5 L 360.5 251 L 353 255.5 L 352.5 261 L 349.5 260 L 347.5 260 L 343.5 259 Q 339.6 261.1 340 267.5 Q 342.8 269.3 338.5 271 Q 332.3 269.8 331 273.5 L 332 278.5 L 328.5 283 L 325.5 281 L 322 283.5 L 321 285.5 L 324 292.5 L 323 295.5 L 318.5 302 L 313 305.5 L 308.5 312 L 303 315.5 L 298.5 322 L 293 325.5 L 288.5 332 L 283 335.5 L 278.5 342 L 273 345.5 L 268.5 352 L 264 354 L 261.5 358 L 257.5 359 L 254.5 358 L 252.5 357 Q 250.7 359.8 249 355.5 L 247.5 354 L 241 348.5 L 237.5 343 L 231 338.5 L 227.5 333 L 221 328.5 L 217.5 323 L 211 318.5 L 207.5 313 L 201 308.5 L 197.5 303 L 191 298.5 L 189 291.5 L 192 285.5 L 189.5 282 L 187.5 281 L 184.5 283 L 181 278.5 L 182 273.5 L 179.5 271 Q 173.3 272.3 172 268.5 Q 173.8 261.8 170.5 260 L 168.5 259 Q 166 262.2 160 261 Q 161.5 254.7 157.5 253 L 151 249.5 L 150 247.5 L 150 118 Q 154.6 116.8 156 119.5 L 157.5 122 L 162 121 L 162 116 L 160.5 116 L 158 115 L 159 111.5 L 158.5 110 Z M 253 128 L 248 130 L 242 139 L 242 182 L 243 183 Q 245 189 242 191 L 242 209 L 244 213 L 243 216 L 240 218 L 233 219 L 229 226 L 223 229 Q 218 231 218 237 L 212 240 L 208 245 L 208 287 L 209 290 Q 212 294 218 295 L 220 302 Q 224 306 233 306 L 237 312 L 244 315 L 270 315 L 275 313 L 276 311 L 281 306 L 291 304 Q 295 301 295 295 L 303 292 L 305 287 L 305 245 L 304 243 L 298 239 L 294 233 Q 292 228 287 228 L 283 222 L 279 218 L 266 218 L 263 216 L 263 197 L 270 193 L 274 187 L 277 184 L 298 183 L 302 178 L 307 174 L 323 174 L 326 173 L 335 165 L 343 163 L 346 158 L 345 152 L 341 148 L 317 148 L 314 147 L 312 143 Q 310 138 305 138 L 282 138 L 278 137 L 274 133 Q 268 126 253 128 Z M 355 241 L 353 243 L 355 247 L 357 246 Q 358 242 355 241 Z M 158 242 L 156 245 L 160 246 Q 162 241 158 242 Z M 196 293 L 196 296 L 199 297 Q 201 296 199 295 Q 200 291 196 293 Z M 315 293 L 313 296 L 316 297 L 317 295 L 315 293 Z M 255 353 L 255 356 Q 257 359 258 356 Q 259 351 255 353 Z " /><path fill="rgb(204,102,96)" stroke="rgb(204,102,96)" stroke-width="0" opacity="1" d="M 265.5 147 Q 270.8 153 279 155 L 280 164.5 L 279 167 L 270.5 170 L 265.5 170 L 263 165.5 L 263 151.5 L 265.5 147 Z " /><path fill="rgb(204,102,96)" stroke="rgb(204,102,96)" stroke-width="0" opacity="1" d="M 248.5 234 L 258.5 235 L 263.5 234 L 264.5 235 L 273.5 235 L 277 237.5 L 280.5 244 L 287 247.5 L 289 260.5 Q 286.3 262.2 288 268.5 L 289 275.5 L 288 278.5 L 277.5 289 L 271 291 L 267.5 298 L 261.5 299 L 260.5 298 L 252.5 298 L 250.5 299 L 244 296.5 L 242 291 L 235.5 289 L 225 278.5 L 224 269.5 Q 226.8 267.8 225 261.5 L 224 258.5 L 225 257.5 L 225 249.5 L 227.5 246 L 234 242.5 L 237.5 236 L 248.5 234 Z " /><path fill="rgb(204,153,102)" stroke="rgb(204,153,102)" stroke-width="0" opacity="1" d="M 154.5 110 L 159 111.5 L 158 115 L 162 116 L 162 121 L 160.5 121 L 157.5 122 L 154.5 118 Q 148.2 120.2 150 114.5 L 152.5 111 L 154.5 110 Z " /><path fill="rgb(204,153,102)" stroke="rgb(204,153,102)" stroke-width="0" opacity="1" d="M 354 110 Q 359.7 109 362 112.5 L 363 119 Q 358.4 117.8 357 120.5 Q 357.9 123.9 352.5 122 Q 350 121 351 116.5 L 354 115 L 354 110 Z " /><path fill="rgb(204,153,102)" stroke="rgb(204,153,102)" stroke-width="0" opacity="1" d="M 252.5 128 Q 267.8 125.8 274 132.5 L 277.5 137 L 281.5 138 L 304.5 138 Q 310.1 138.5 312 142.5 L 314 147 L 316.5 148 L 340.5 148 L 345 151.5 L 346 157.5 L 342.5 163 L 334.5 165 L 325.5 173 L 322.5 174 L 306.5 174 L 302 177.5 L 297.5 183 L 276.5 184 L 274 186.5 L 269.5 193 L 263 196.5 L 263 215.5 L 265.5 218 L 278.5 218 L 283 221.5 L 286.5 228 Q 292.1 228.5 294 232.5 L 297.5 239 L 304 242.5 L 305 244.5 L 305 286.5 L 303 292 L 295 295 Q 294.7 301.1 290.5 304 L 280.5 306 L 276 310.5 L 274.5 313 L 269.5 315 L 243.5 315 L 237 311.5 L 232.5 306 Q 224 306 220 301.5 L 218 295 Q 212.1 294.1 209 289.5 L 208 286.5 L 208 244.5 L 211.5 240 L 218 236.5 Q 218.5 231 222.5 229 L 229 225.5 L 232.5 219 L 239.5 218 L 243 215.5 L 244 212.5 L 242 208.5 L 242 190.5 Q 244.8 188.8 243 182.5 L 242 181.5 L 242 138.5 L 247.5 130 L 252.5 128 Z M 254 131 L 249 137 Q 249 145 254 149 L 253 153 L 253 168 L 256 170 L 257 169 L 257 149 L 258 147 L 268 140 L 269 136 Q 265 129 254 131 Z M 275 140 L 274 141 Q 271 141 272 148 L 280 152 Q 285 155 283 167 Q 280 171 273 172 L 268 178 Q 260 179 258 175 L 255 176 L 249 185 L 252 196 L 256 198 L 266 191 L 270 187 L 270 185 L 273 182 L 279 181 L 282 182 L 291 181 L 303 172 L 320 171 L 329 164 L 341 160 L 342 158 L 341 152 L 334 150 L 332 151 L 316 151 L 312 149 L 308 144 L 299 141 L 275 140 Z M 266 147 L 263 152 L 263 166 L 266 170 L 271 170 L 279 167 L 280 165 L 279 155 Q 271 153 266 147 Z M 256 203 L 253 204 L 252 216 L 248 219 L 235 222 L 231 229 Q 230 232 225 231 L 220 240 L 214 242 L 211 246 L 211 286 L 212 288 L 218 291 Q 222 293 222 299 L 227 302 L 238 303 L 240 309 L 245 312 L 269 312 L 271 311 L 274 305 L 278 302 L 289 301 L 292 295 Q 293 291 298 291 L 302 286 L 302 246 L 301 244 L 295 241 L 291 234 Q 289 230 284 230 L 281 225 L 277 221 L 263 220 L 258 215 Q 259 206 256 203 Z " /><path fill="rgb(204,153,102)" stroke="rgb(204,153,102)" stroke-width="0" opacity="1" d="M 255.5 231 L 257.5 232 L 275.5 232 L 279 233 L 283.5 242 L 290 244 L 291 249.5 L 291 279.5 L 286.5 287 L 274 294.5 L 272 300 L 269.5 301 L 243.5 301 L 241 300 L 237.5 293 L 225 285.5 L 222 279.5 L 222 249.5 L 223 244 L 231 240.5 L 234 233 L 236.5 232 L 254.5 232 L 255.5 231 Z M 249 234 L 238 236 L 234 243 L 228 246 L 225 250 L 225 258 L 224 259 L 225 262 Q 227 268 224 270 L 225 279 L 236 289 L 242 291 L 244 297 L 251 299 L 253 298 L 261 298 L 262 299 L 268 298 L 271 291 L 278 289 L 288 279 L 289 276 L 288 269 Q 286 262 289 261 L 287 248 L 281 244 L 277 238 L 274 235 L 265 235 L 264 234 L 259 235 L 249 234 Z " /><path fill="rgb(204,153,102)" stroke="rgb(204,153,102)" stroke-width="0" opacity="1" d="M 354.5 241 Q 357.8 242.2 357 246 L 354.5 247 L 353 242.5 L 354.5 241 Z " /><path fill="rgb(204,153,102)" stroke="rgb(204,153,102)" stroke-width="0" opacity="1" d="M 157.5 242 Q 162.1 240.8 160 246 L 156 244.5 L 157.5 242 Z " /><path fill="rgb(204,153,102)" stroke="rgb(204,153,102)" stroke-width="0" opacity="1" d="M 168.5 259 L 172 261.5 Q 170.2 269.3 174.5 271 Q 180.8 269.8 182 273.5 L 181 278.5 L 184.5 283 L 187.5 281 L 191 283.5 L 192 285.5 L 188.5 294 L 181 288.5 L 177.5 283 L 171 278.5 L 167.5 273 L 161 269.5 L 160 261 Q 166 262.2 168.5 259 Z " /><path fill="rgb(204,153,102)" stroke="rgb(204,153,102)" stroke-width="0" opacity="1" d="M 343.5 259 L 348.5 261 L 351.5 260 Q 354.5 261.5 353 267.5 L 350.5 271 L 343 275.5 L 338.5 282 L 333 285.5 L 328.5 292 L 323.5 294 L 323 291.5 L 321 285.5 L 323.5 282 L 326.5 281 Q 328.8 285.3 331 280.5 L 332 278.5 L 331 273.5 L 333.5 271 Q 339.8 272.3 341 268.5 L 340 264.5 L 343.5 259 Z " /><path fill="rgb(204,153,102)" stroke="rgb(204,153,102)" stroke-width="0" opacity="1" d="M 196 293 Q 199.7 291.5 199 294.5 Q 201.3 295.7 198.5 297 L 196 296 L 196 293 Z " /><path fill="rgb(204,153,102)" stroke="rgb(204,153,102)" stroke-width="0" opacity="1" d="M 314.5 293 L 317 294.5 L 316 297 L 313 295.5 L 314.5 293 Z " /><path fill="rgb(204,153,102)" stroke="rgb(204,153,102)" stroke-width="0" opacity="1" d="M 255 353 Q 259.1 351.3 258 355.5 Q 256.5 358.5 255 355.5 L 255 353 Z " /><path fill="rgb(204,153,102)" stroke="rgb(204,153,102)" stroke-width="0" opacity="1" d="M 250.5 357 L 253.5 358 L 255.5 359 L 258.5 358 L 262.5 357 L 262 358.5 L 258.5 363 Q 252 364 251 359.5 L 250.5 357 Z " /><path fill="rgb(233,200,194)" stroke="rgb(233,200,194)" stroke-width="0" opacity="1" d="M 253.5 131 Q 265.3 129.2 269 135.5 L 267.5 140 L 258 146.5 L 257 148.5 L 257 168.5 L 255.5 170 L 253 167.5 L 253 152.5 L 254 148.5 Q 249.3 144.7 249 136.5 L 253.5 131 Z " /><path fill="rgb(233,200,194)" stroke="rgb(233,200,194)" stroke-width="0" opacity="1" d="M 274.5 140 L 298.5 141 L 308 144 L 311.5 149 L 315.5 151 L 331.5 151 L 333.5 150 L 341 152 L 342 157.5 L 341 160 L 328.5 164 L 319.5 171 L 302.5 172 L 290.5 181 L 281.5 182 L 278.5 181 L 272.5 182 L 270 184.5 L 270 186.5 L 265.5 191 L 255.5 198 L 252 195.5 L 249 184.5 L 254.5 176 L 257.5 175 Q 259.7 179.3 267.5 178 L 272.5 172 Q 280 171.5 283 166.5 Q 285.2 155.3 279.5 152 L 272 147.5 Q 270.5 140.5 273.5 141 L 274.5 140 Z " /><path fill="rgb(233,200,194)" stroke="rgb(233,200,194)" stroke-width="0" opacity="1" d="M 255.5 203 Q 259.3 206.3 258 214.5 L 262.5 220 L 276.5 221 L 281 224.5 L 283.5 230 Q 289.1 229.9 291 233.5 L 294.5 241 L 301 243.5 L 302 245.5 L 302 285.5 L 297.5 291 Q 292.5 290.5 292 294.5 L 288.5 301 L 277.5 302 L 274 304.5 L 270.5 311 L 268.5 312 L 244.5 312 L 240 308.5 L 237.5 303 L 226.5 302 L 222 298.5 Q 221.6 293 217.5 291 L 212 287.5 L 211 285.5 L 211 245.5 L 213.5 242 L 220 239.5 L 224.5 231 Q 229.6 231.6 231 228.5 L 234.5 222 L 247.5 219 L 252 215.5 L 253 204 L 255.5 203 Z M 256 231 L 255 232 L 237 232 L 234 233 L 231 241 L 223 244 L 222 250 L 222 280 L 225 286 L 238 293 L 241 300 L 244 301 L 270 301 L 272 300 L 274 295 L 287 287 L 291 280 L 291 250 L 290 244 L 284 242 L 279 233 L 276 232 L 258 232 L 256 231 Z " /></svg>