<svg width="2048" height="2048" viewBox="0 0 512 512" version="1.1" xmlns="http://www.w3.org/2000/svg"  style="background:transparent"><path fill="rgb(204,102,86)" stroke="rgb(204,102,86)" stroke-width="0" opacity="1" d="M 154 110 L 358.5 110 L 362 112.5 L 363 114.5 L 363 237.5 L 360.5 241 L 353 245.5 L 353 254 L 348.5 254 L 347 251 Q 343.2 250.3 342 253.5 L 343.5 258 L 345 258.5 L 345 260.5 L 345 263.5 L 338.5 272 L 333 275.5 L 328.5 282 L 323 285.5 L 318.5 292 L 313 295.5 L 308.5 302 L 303 305.5 L 302 309.5 L 302.5 311 L 292 310 L 290 316.5 L 291 321.5 L 290 324 L 283.5 322 L 282 326.5 L 284 328.5 L 285 333.5 L 278.5 342 L 273 345.5 L 268.5 352 L 264 354 L 263.5 356 L 258 354 Q 259.1 350.7 255 352 Q 256.3 355 252.5 354 L 249.5 356 L 249 354 L 241 348.5 L 237.5 343 L 231 338.5 L 228 331.5 L 231 326.5 L 231 323.5 L 226.5 322 L 223 324 L 222 317.5 L 223 314.5 L 220.5 310 L 210.5 311 L 211 309.5 L 207.5 303 L 201 298.5 L 197.5 293 L 191 288.5 L 187.5 283 L 181 278.5 L 177.5 273 L 171 268.5 L 168 262.5 L 171 256.5 L 171 252.5 L 166.5 251 L 164.5 254 L 161.5 253 L 160 253.5 Q 162 245 157.5 243 L 151 239.5 L 150 237.5 L 150 114 Q 153.7 115.5 153 112.5 L 154 110 Z M 156 116 L 156 120 L 161 121 L 162 118 Q 161 115 156 116 Z M 354 116 L 352 120 L 356 121 L 357 118 L 354 116 Z M 216 117 L 204 119 L 200 126 L 197 128 L 184 128 L 182 129 L 178 134 L 178 249 L 179 251 Q 182 255 188 255 L 189 259 L 188 272 Q 189 275 196 274 Q 200 275 199 282 Q 200 285 206 284 L 209 288 L 210 294 Q 215 296 226 295 L 230 303 L 239 306 L 242 313 L 249 315 L 270 314 L 274 306 L 283 303 L 285 298 L 288 295 L 303 294 L 304 288 Q 306 283 313 283 Q 315 282 314 278 L 318 274 L 324 273 L 325 270 L 324 263 L 325 257 L 332 253 L 335 249 L 335 135 L 334 132 L 330 128 L 317 128 L 314 127 L 311 119 L 299 117 L 216 117 Z M 159 231 L 156 235 L 160 236 L 159 231 Z M 353 232 Q 351 238 356 236 Q 358 230 353 232 Z " /><path fill="rgb(204,102,86)" stroke="rgb(204,102,86)" stroke-width="0" opacity="1" d="M 234.5 134 L 278.5 134 L 286.5 136 L 294.5 143 L 316.5 144 L 319 146.5 L 319 210.5 L 320 213.5 L 317.5 218 L 314 216.5 Q 316.7 202.8 309.5 199 Q 304.5 199.5 304 195.5 L 305 185.5 L 301.5 180 L 294 175.5 Q 296.3 163.3 289.5 160 Q 279.7 156.3 264.5 158 L 259 161.5 L 257.5 164 L 254 162.5 L 251.5 159 L 248.5 158 L 231.5 158 L 225.5 159 L 220 163.5 L 219 175.5 L 216.5 178 L 209 182.5 L 208 189.5 L 209 195.5 L 200 202.5 L 199 204.5 L 199 216.5 L 197.5 218 L 194 216.5 L 193 211.5 L 194 210.5 L 194 146.5 L 196.5 144 L 217.5 143 L 226.5 136 L 234.5 134 Z " /><path fill="rgb(204,102,86)" stroke="rgb(204,102,86)" stroke-width="0" opacity="1" d="M 255 190 Q 259.1 188.3 258 192.5 L 259 193.5 L 259 207.5 L 258 210 Q 254.2 211.5 255 208.5 L 254 207.5 L 254 193.5 L 255 190 Z " /><path fill="rgb(204,102,86)" stroke="rgb(204,102,86)" stroke-width="0" opacity="1" d="M 221.5 223 L 228 224 L 226.5 229 Q 219.7 229.9 217 228 L 218.5 224 L 221.5 223 Z " /><path fill="rgb(204,102,86)" stroke="rgb(204,102,86)" stroke-width="0" opacity="1" d="M 287.5 223 Q 293.7 222.3 296 225.5 Q 297.1 228.8 294.5 228 Q 292.8 230.8 286.5 229 Q 282.3 227.3 285 225.5 L 286.5 224 L 287.5 223 Z " /><path fill="rgb(204,102,86)" stroke="rgb(204,102,86)" stroke-width="0" opacity="1" d="M 255.5 234 L 259 235.5 L 257.5 239 L 254 237.5 L 255.5 234 Z " /><path fill="rgb(204,102,86)" stroke="rgb(204,102,86)" stroke-width="0" opacity="1" d="M 235.5 284 Q 239.9 282.5 239 285.5 Q 241.8 287.3 237.5 289 L 234 287.5 L 235.5 284 Z " /><path fill="rgb(204,102,86)" stroke="rgb(204,102,86)" stroke-width="0" opacity="1" d="M 274 284 L 279 285.5 L 277.5 289 L 273 286.5 L 274 284 Z " /><path fill="rgb(204,102,86)" stroke="rgb(204,102,86)" stroke-width="0" opacity="1" d="M 255.5 294 L 259 295.5 L 257.5 299 L 254 297.5 L 255.5 294 Z " /><path fill="rgb(204,153,102)" stroke="rgb(204,153,102)" stroke-width="0" opacity="1" d="M 152 111 L 154 111.5 L 153 114 L 151 113.5 L 152 111 Z " /><path fill="rgb(204,153,102)" stroke="rgb(204,153,102)" stroke-width="0" opacity="1" d="M 156 116 Q 160.6 114.8 162 117.5 L 160.5 121 L 156 119.5 L 156 116 Z " /><path fill="rgb(204,153,102)" stroke="rgb(204,153,102)" stroke-width="0" opacity="1" d="M 353.5 116 L 357 117.5 L 356 121 L 352 119.5 L 353.5 116 Z " /><path fill="rgb(204,153,102)" stroke="rgb(204,153,102)" stroke-width="0" opacity="1" d="M 215.5 117 L 298.5 117 L 311 119 L 314 127 L 316.5 128 L 329.5 128 L 334 131.5 L 335 134.5 L 335 248.5 L 331.5 253 L 325 256.5 L 324 262.5 L 325 269.5 L 324 273 L 317.5 274 L 314 277.5 Q 315 282 312.5 283 Q 306.1 283.1 304 287.5 L 303 294 L 287.5 295 L 285 297.5 L 282.5 303 L 274 306 L 269.5 314 L 248.5 315 L 242 313 L 239 306 L 230 303 L 225.5 295 Q 215.2 296.2 210 294 L 209 287.5 L 205.5 284 Q 200.4 284.6 199 281.5 Q 200 275 195.5 274 Q 189.3 275.3 188 271.5 L 189 258.5 L 188 255 Q 181.9 254.7 179 250.5 L 178 248.5 L 178 133.5 L 181.5 129 L 183.5 128 L 196.5 128 L 200 125.5 L 203.5 119 L 215.5 117 Z M 216 120 L 212 121 Q 207 128 199 131 L 187 131 L 185 132 L 181 137 L 181 225 L 182 226 L 182 238 L 181 239 Q 180 247 183 250 L 189 252 L 192 257 L 192 269 L 199 272 L 202 279 L 209 282 Q 213 284 213 290 L 216 291 L 230 291 L 231 285 L 235 281 L 242 282 L 244 286 L 243 289 Q 241 293 234 292 L 231 295 L 232 299 L 242 304 L 244 308 L 250 311 L 255 312 L 267 310 L 271 304 L 279 301 Q 283 300 282 294 L 281 292 L 273 291 L 269 287 L 270 284 L 274 281 L 281 282 L 283 292 Q 294 293 300 290 L 301 286 Q 303 281 309 281 L 312 275 L 320 270 L 321 269 L 322 255 L 330 250 L 332 246 L 331 239 L 331 226 L 332 225 L 332 137 L 331 135 L 327 131 Q 315 133 310 128 L 308 126 L 305 122 L 298 120 L 216 120 Z M 236 284 L 234 288 L 238 289 Q 242 287 239 286 Q 240 282 236 284 Z M 274 284 L 273 287 L 278 289 L 279 286 L 274 284 Z " /><path fill="rgb(204,153,102)" stroke="rgb(204,153,102)" stroke-width="0" opacity="1" d="M 229.5 131 L 283.5 131 L 289.5 132 L 301.5 140 L 317.5 141 L 321 143 L 322 145.5 L 322 217.5 L 319.5 221 L 315.5 222 L 312 219.5 L 311 217.5 L 311 205.5 L 307.5 202 L 301 197.5 Q 302.5 187.3 300 183 L 292 178.5 L 289 167.5 L 285.5 164 L 281.5 162 L 267.5 161 L 262 164.5 L 258.5 170 Q 253 171 252 167.5 L 248.5 162 L 238.5 161 L 231.5 162 L 224 167.5 Q 223.7 175.7 219.5 180 L 212 184.5 L 212 197.5 L 208.5 201 L 202 205.5 L 202 217.5 L 199.5 221 L 195.5 222 L 192 219.5 L 191 217.5 L 191 145.5 L 192 143 Q 196 139 207.5 141 Q 215.6 138.6 220.5 133 L 229.5 131 Z M 235 134 L 227 136 L 218 143 L 197 144 L 194 147 L 194 211 L 193 212 L 194 217 L 198 218 L 199 217 L 199 205 L 200 203 L 209 196 L 208 190 L 209 183 L 217 178 L 219 176 L 220 164 L 226 159 L 232 158 L 249 158 L 252 159 L 254 163 L 258 164 L 259 162 L 265 158 Q 280 156 290 160 Q 296 163 294 176 L 302 180 L 305 186 L 304 196 Q 304 200 310 199 Q 317 203 314 217 L 318 218 L 320 214 L 319 211 L 319 147 L 317 144 L 295 143 L 287 136 L 279 134 L 235 134 Z " /><path fill="rgb(204,153,102)" stroke="rgb(204,153,102)" stroke-width="0" opacity="1" d="M 252.5 183 Q 260 182 263 184 L 264 187.5 Q 260.3 194.8 262 207.5 L 267 218 L 247.5 218 L 246 216.5 L 248 213.5 L 251 208.5 L 251 193.5 L 249 186.5 L 250 184 L 252.5 183 Z M 255 190 L 254 194 L 254 208 L 255 209 Q 254 211 258 210 L 259 208 L 259 194 L 258 193 Q 259 188 255 190 Z " /><path fill="rgb(204,153,102)" stroke="rgb(204,153,102)" stroke-width="0" opacity="1" d="M 228 195 L 234.5 195 L 235 197 L 230.5 198 L 228 197 L 228 195 Z " /><path fill="rgb(204,153,102)" stroke="rgb(204,153,102)" stroke-width="0" opacity="1" d="M 278 195 L 284.5 195 L 285 197 L 280.5 198 L 278 197 L 278 195 Z " /><path fill="rgb(204,153,102)" stroke="rgb(204,153,102)" stroke-width="0" opacity="1" d="M 220.5 220 Q 227.8 219.4 231 222 L 232 228.5 L 231 231 Q 226.8 233.5 216.5 232 L 212 228.5 Q 211 222 215.5 221 L 220.5 220 Z M 222 223 L 219 224 L 217 228 Q 220 230 227 229 L 228 224 L 222 223 Z " /><path fill="rgb(204,153,102)" stroke="rgb(204,153,102)" stroke-width="0" opacity="1" d="M 287.5 220 L 297.5 221 L 301 224.5 Q 302 230 298.5 231 L 296.5 232 L 284.5 232 L 282 231 L 281 224.5 L 282 222 L 287.5 220 Z M 288 223 L 287 224 L 285 226 Q 282 227 287 229 Q 293 231 295 228 Q 297 229 296 226 Q 294 222 288 223 Z " /><path fill="rgb(204,153,102)" stroke="rgb(204,153,102)" stroke-width="0" opacity="1" d="M 158.5 231 L 160 236 L 156 234.5 L 158.5 231 Z " /><path fill="rgb(204,153,102)" stroke="rgb(204,153,102)" stroke-width="0" opacity="1" d="M 253.5 231 Q 261.5 229.5 263 234.5 Q 264 241 259.5 242 Q 251.5 243.5 250 238.5 Q 249 232 253.5 231 Z M 256 234 L 254 238 L 258 239 L 259 236 L 256 234 Z " /><path fill="rgb(204,153,102)" stroke="rgb(204,153,102)" stroke-width="0" opacity="1" d="M 166.5 251 L 171 252.5 L 171 256.5 L 167.5 263 L 161 259.5 L 160 254.5 L 163.5 253 L 165 253.5 L 166.5 251 Z " /><path fill="rgb(204,153,102)" stroke="rgb(204,153,102)" stroke-width="0" opacity="1" d="M 344.5 251 Q 347.8 249.9 347 252.5 Q 348.4 255.3 353 254 Q 353.8 259 350.5 261 L 345 263 L 344 259.5 L 344.5 258 L 342 256.5 Q 341.3 251.8 344.5 251 Z " /><path fill="rgb(204,153,102)" stroke="rgb(204,153,102)" stroke-width="0" opacity="1" d="M 254.5 291 L 261 292 L 262 298.5 L 261 301 L 254.5 302 L 252 301 L 251 294.5 L 252 292 L 254.5 291 Z M 256 294 L 254 298 L 258 299 L 259 296 L 256 294 Z " /><path fill="rgb(204,153,102)" stroke="rgb(204,153,102)" stroke-width="0" opacity="1" d="M 216.5 310 Q 221 309 222 311.5 L 223 316.5 L 222 321.5 L 223 324 L 229.5 322 L 231 326.5 L 228 333 L 221 328.5 L 217.5 323 L 211 319.5 L 210 311 L 216.5 310 Z " /><path fill="rgb(204,153,102)" stroke="rgb(204,153,102)" stroke-width="0" opacity="1" d="M 292 310 L 303 311 Q 304.5 319.2 299.5 322 L 293 325.5 L 288.5 332 L 284 333 L 282 323.5 L 286.5 322 L 290 324 L 291 317.5 L 290 314.5 L 292 310 Z " /><path fill="rgb(204,153,102)" stroke="rgb(204,153,102)" stroke-width="0" opacity="1" d="M 255 352 L 258 352 Q 256.9 354.7 259.5 354 L 263 355 Q 262.9 360.6 258.5 363 Q 252 364 251 359.5 L 250 355 L 255 354 L 255 352 Z " /><path fill="rgb(246,228,225)" stroke="rgb(246,228,225)" stroke-width="0" opacity="1" d="M 215.5 120 L 297.5 120 L 304.5 122 L 308 125.5 L 309.5 128 Q 314.7 132.8 326.5 131 L 331 134.5 L 332 136.5 L 332 224.5 L 331 225.5 L 331 238.5 L 332 245.5 L 329.5 250 L 322 254.5 L 321 268.5 L 319.5 270 L 312 274.5 L 308.5 281 Q 303 281.5 301 285.5 L 300 290 Q 293.5 293 283 292 L 281 282 L 273.5 281 L 270 283.5 L 269 286.5 L 272.5 291 L 280.5 292 L 282 293.5 Q 283 300 278.5 301 L 271 304 L 266.5 310 L 254.5 312 L 249.5 311 L 244 307.5 L 241.5 304 L 232 298.5 L 231 294.5 L 233.5 292 Q 241.1 293.1 243 288.5 L 244 285.5 L 241.5 282 L 234.5 281 L 231 284.5 L 230 291 L 215.5 291 L 213 290 Q 212.9 284.4 208.5 282 L 202 278.5 L 198.5 272 L 192 268.5 L 192 256.5 L 188.5 252 L 183 250 Q 180 246.8 181 238.5 L 182 237.5 L 182 225.5 L 181 224.5 L 181 136.5 L 184.5 132 L 186.5 131 L 198.5 131 Q 206.6 127.6 211.5 121 L 215.5 120 Z M 230 131 L 221 133 Q 216 139 208 141 Q 196 139 192 143 L 191 146 L 191 218 L 192 220 L 196 222 L 200 221 L 202 218 L 202 206 L 209 201 L 212 198 L 212 185 L 220 180 Q 224 176 224 168 L 232 162 L 239 161 L 249 162 L 252 168 Q 253 171 259 170 L 262 165 L 268 161 L 282 162 L 286 164 L 289 168 L 292 179 L 300 183 Q 303 187 301 198 L 308 202 L 311 206 L 311 218 L 312 220 L 316 222 L 320 221 L 322 218 L 322 146 L 321 143 L 318 141 L 302 140 L 290 132 L 284 131 L 230 131 Z M 253 183 L 250 184 L 249 187 L 251 194 L 251 209 L 248 214 L 246 217 L 248 218 L 267 218 L 262 208 Q 260 195 264 188 L 263 184 Q 260 182 253 183 Z M 228 195 L 228 197 L 231 198 L 235 197 L 235 195 L 228 195 Z M 278 195 L 278 197 L 281 198 L 285 197 L 285 195 L 278 195 Z M 221 220 L 216 221 Q 211 222 212 229 L 217 232 Q 227 234 231 231 L 232 229 L 231 222 Q 228 219 221 220 Z M 288 220 L 282 222 L 281 225 L 282 231 L 285 232 L 297 232 L 299 231 Q 302 230 301 225 L 298 221 L 288 220 Z M 254 231 Q 249 232 250 239 Q 252 244 260 242 Q 264 241 263 235 Q 262 230 254 231 Z M 255 291 L 252 292 L 251 295 L 252 301 L 255 302 L 261 301 L 262 299 L 261 292 L 255 291 Z " /></svg>