<svg width="2048" height="2048" viewBox="0 0 512 512" version="1.1" xmlns="http://www.w3.org/2000/svg"  style="background:transparent"><path fill="rgb(204,102,60)" stroke="rgb(204,102,60)" stroke-width="0" opacity="1" d="M 157.5 110 L 354.5 110 L 359 111 L 359.5 114 Q 360.8 111.8 362 114.5 L 363 120.5 L 363 248.5 Q 361.8 251.3 356.5 250 L 353 253.5 Q 353 260 349.5 263 L 346.5 264 L 344 263 L 344 272.5 L 342.5 274 L 338 275 Q 339.1 272.3 336.5 273 L 334.5 272 L 333 276.5 Q 335.8 277.3 335 281.5 L 332.5 285 Q 327.1 286.9 328 283.5 Q 323.5 282 325 274.5 L 326 271.5 L 342 255.5 Q 347.3 249.3 345 235.5 Q 342.3 233.8 344 227.5 L 345 225 L 354 221.5 L 355 213.5 L 352.5 210 Q 346.9 210.1 345 206.5 L 344 198.5 L 345 197.5 L 345 182.5 L 339.5 174 L 327 162.5 L 324 151.5 L 321.5 149 Q 310.6 148.4 306 141.5 L 297.5 132 L 290.5 128 L 273.5 128 L 268.5 129 L 264 125.5 L 263 119 Q 260 117 252.5 118 L 250 119 L 249 125.5 L 246.5 128 L 240.5 129 L 239.5 128 L 222.5 128 Q 212.8 132.3 207 140.5 L 202.5 146 L 191.5 149 L 189 151.5 L 186 162.5 L 176.5 172 L 173.5 174 Q 165.3 179.8 168 196.5 L 169 197.5 L 169 205.5 L 165.5 209 Q 159.3 208.3 158 212.5 Q 156.5 220.5 160.5 223 L 168 225 Q 169.9 227.7 169 234.5 L 168 235.5 L 168 250.5 L 172.5 259 L 175.5 260 L 187 271.5 L 188 280.5 Q 185 281.8 186 286 L 181.5 285 Q 179.8 287.8 178 283.5 L 178 277.5 Q 180.8 278.5 180 274.5 L 176.5 273 L 172.5 275 L 170 274 L 169 268.5 Q 172.3 267.3 171 261.5 L 168.5 260 Q 166.2 264.1 160 263 Q 162 255.2 157.5 253 L 151 249.5 L 150 247.5 L 150 119.5 L 151 114.5 L 154.5 111 L 157.5 110 Z " /><path fill="rgb(204,102,60)" stroke="rgb(204,102,60)" stroke-width="0" opacity="1" d="M 235.5 154 Q 244.9 152.1 248 156.5 L 249 185.5 L 237.5 199 L 231 202.5 Q 227.5 206.5 229 215.5 L 224.5 222 L 223 223.5 L 218.5 228 L 207.5 231 L 200.5 238 L 195.5 238 L 194 236.5 L 194 195.5 L 202 189.5 L 205 175 L 213 170.5 L 215 165 L 227.5 163 L 231 160.5 L 235.5 154 Z " /><path fill="rgb(204,102,60)" stroke="rgb(204,102,60)" stroke-width="0" opacity="1" d="M 270.5 154 Q 279.3 152.3 281 157.5 L 283.5 162 L 298 165 L 301.5 172 L 308 175 L 310 187.5 L 312 191 L 319 195.5 L 319 236.5 L 317.5 238 Q 311 239 310 234.5 L 307.5 231 L 293 227 L 287.5 220 L 286 218.5 L 284 216.5 L 284 205.5 L 279.5 200 L 274 198 L 267.5 189 L 266 187.5 L 264 181.5 L 265 180.5 L 265 159.5 L 266 156 L 270.5 154 Z " /><path fill="rgb(204,102,60)" stroke="rgb(204,102,60)" stroke-width="0" opacity="1" d="M 256.5 211 L 268 214 L 269 216.5 L 266.5 220 L 261 223.5 L 258.5 228 Q 254 229 253 226.5 Q 252.2 219.7 247 217.5 L 247 215 L 256.5 211 Z " /><path fill="rgb(204,102,60)" stroke="rgb(204,102,60)" stroke-width="0" opacity="1" d="M 275.5 239 L 277.5 239 L 281.5 243 L 288.5 245 Q 293.8 252.7 303 256.5 L 296.5 268 L 284.5 270 L 281 273.5 L 279 278 L 276.5 279 L 236.5 279 L 233 276.5 L 229.5 271 L 215 268 L 211 256.5 L 222 248.5 L 224.5 245 L 237.5 241 L 243.5 244 L 269.5 244 L 275.5 239 Z " /><path fill="rgb(204,102,60)" stroke="rgb(204,102,60)" stroke-width="0" opacity="1" d="M 194.5 284 L 201.5 286 L 217.5 302 Q 222.3 306.2 232.5 305 L 233.5 304 L 245.5 304 L 248 305 Q 248.3 311.1 252.5 314 Q 261 316 263 311.5 L 265 305 Q 268.6 302.7 277.5 304 L 278.5 305 L 289.5 305 L 299 300 L 311.5 286 L 320.5 285 L 325 287 L 326 292.5 L 318.5 302 L 313 305.5 L 308.5 312 L 303 315.5 L 298.5 322 L 293 325.5 L 288.5 332 L 282 336.5 L 278.5 343 L 274 345.5 L 270.5 352 L 262 355.5 Q 262.1 361.1 258.5 363 Q 253.4 363.6 252 360.5 L 248.5 354 L 241 348.5 L 237.5 343 L 231 338.5 L 227.5 333 L 221 328.5 L 217.5 323 L 211 318.5 L 207.5 313 L 201 308.5 L 197.5 303 L 191 298.5 L 187 292.5 L 186 287 L 189.5 287 L 194.5 284 Z " /><path fill="rgb(202,153,102)" stroke="rgb(202,153,102)" stroke-width="0" opacity="1" d="M 252.5 118 Q 260 117 263 119 L 264 125.5 L 266.5 128 L 272.5 129 L 273.5 128 L 290.5 128 Q 300.2 132.3 306 140.5 L 310.5 146 L 321.5 149 L 324 151.5 L 327 162.5 L 338.5 174 L 341 175.5 L 345 182.5 L 345 197.5 L 344 204.5 L 347.5 209 Q 352.6 208.4 354 211.5 L 355 219.5 L 352.5 223 L 345 225 Q 343.1 227.7 344 234.5 L 345 235.5 L 345 249.5 L 342 255.5 L 326 271.5 L 325 280.5 L 328 285 Q 332.6 286.3 334 283.5 L 335 278.5 Q 332.3 277.8 333 273.5 L 335.5 272 L 338 273 Q 336.8 276 340.5 275 L 344 272.5 L 344 263.5 L 345.5 263 L 347.5 264 L 351 261.5 Q 351.2 253.2 356.5 250 Q 363.8 247.4 362 253.5 L 357.5 260 L 355 261.5 L 349.5 271 L 343 275.5 L 338.5 282 L 333 285.5 L 328.5 292 L 326.5 293 Q 323.8 291.6 325 287 L 320.5 285 L 313.5 285 L 299 298.5 L 297.5 300 Q 292.6 307.1 278.5 305 L 277.5 304 L 267.5 304 L 265 305 Q 264.7 311.1 260.5 314 Q 252 316 250 311.5 L 248 305 Q 243.8 302.5 233.5 304 L 232.5 305 L 224.5 305 L 217.5 302 L 201.5 286 L 194.5 284 L 189.5 287 L 186 287 L 187 292.5 L 185.5 292 L 181 288.5 L 180 286.5 Q 181.3 283.8 182.5 286 Q 187.8 287.8 186 282.5 Q 189.7 280.7 188 273.5 L 175.5 260 L 171 257.5 Q 165.8 250.3 168 235.5 Q 170.7 233.8 169 227.5 L 168 225 L 159 221.5 L 158 212.5 Q 159.3 208.3 165.5 209 L 169 205.5 L 168 182.5 L 173.5 174 L 176.5 172 L 186 162.5 L 189 151.5 L 191.5 149 Q 202.4 148.4 207 141.5 L 215.5 132 L 222.5 128 L 239.5 128 L 244.5 129 L 249 125.5 L 250 119 L 252.5 118 Z M 255 121 Q 251 123 251 129 L 247 132 L 232 132 L 231 131 L 224 132 L 219 138 L 217 139 L 210 147 L 207 150 L 195 152 L 191 158 L 190 167 L 182 172 L 179 178 L 177 179 L 172 184 L 172 207 L 171 209 L 164 212 Q 160 213 161 219 L 169 222 L 172 226 L 172 250 L 176 252 L 180 258 L 187 263 L 191 269 L 192 279 L 196 281 L 207 283 L 210 288 L 217 293 L 220 298 L 225 301 L 248 301 Q 252 304 253 310 L 256 311 L 260 310 L 262 305 L 266 301 L 289 301 L 291 300 L 293 297 L 298 293 L 303 287 L 309 282 L 320 280 L 321 279 L 323 267 L 328 263 L 333 257 L 339 252 L 342 246 L 341 243 L 341 226 Q 344 221 351 220 Q 353 219 352 215 Q 350 211 345 211 L 341 207 L 341 185 L 340 183 L 336 179 L 334 177 L 327 170 L 323 167 L 322 158 L 320 154 L 316 151 L 307 150 L 303 146 L 296 139 L 294 137 Q 292 132 286 131 L 281 132 L 267 132 L 265 131 Q 260 130 261 124 Q 260 120 255 121 Z " /><path fill="rgb(202,153,102)" stroke="rgb(202,153,102)" stroke-width="0" opacity="1" d="M 236.5 150 Q 245.5 149.2 250 152 L 252 157.5 L 252 186.5 L 250 192.5 L 240.5 202 L 235 205 Q 231.7 210.7 231 220.5 L 225.5 228 L 210 235.5 L 207.5 239 Q 203.4 242.9 194.5 242 Q 188.8 239.2 190 229.5 L 191 228.5 L 191 202.5 L 190 199.5 L 191 193.5 L 195.5 188 L 198 186.5 L 201 175.5 L 203.5 172 L 210 168.5 L 213.5 162 L 224.5 159 L 228 156.5 L 231.5 152 L 236.5 150 Z M 236 154 L 231 161 L 228 163 L 215 165 L 213 171 L 205 175 L 202 190 L 194 196 L 194 237 L 196 238 L 201 238 L 208 231 L 219 228 L 223 224 L 225 222 L 229 216 Q 227 207 231 203 L 238 199 L 249 186 L 248 157 Q 245 152 236 154 Z " /><path fill="rgb(202,153,102)" stroke="rgb(202,153,102)" stroke-width="0" opacity="1" d="M 271.5 150 L 280.5 151 L 287.5 158 L 295.5 160 L 301 163.5 L 306.5 171 L 311 173.5 L 314 184.5 L 322 193.5 L 323 204.5 L 322 205.5 L 322 227.5 Q 324.8 229.3 323 235.5 L 318.5 242 L 313.5 242 L 307.5 239 L 302.5 234 L 291.5 230 L 285 224.5 L 281 216.5 L 280 207.5 L 276.5 203 L 268 196.5 L 266.5 194 L 264 192.5 L 261 186.5 L 261 168.5 L 262 167.5 L 262 155.5 L 264.5 152 L 271.5 150 Z M 271 154 L 266 156 L 265 160 L 265 181 L 264 182 L 266 188 L 268 189 L 274 198 L 280 200 L 284 206 L 284 217 L 286 219 L 288 220 L 293 227 L 308 231 L 310 235 Q 311 239 318 238 L 319 237 L 319 196 L 312 191 L 310 188 L 308 175 L 302 172 L 298 165 L 284 162 L 281 158 Q 279 152 271 154 Z " /><path fill="rgb(202,153,102)" stroke="rgb(202,153,102)" stroke-width="0" opacity="1" d="M 254.5 204 Q 259 203 260 205.5 L 261.5 208 L 271 213.5 L 272 217.5 L 267.5 223 L 264 225.5 L 259.5 231 L 256.5 232 L 250 227.5 L 246.5 222 L 243 219.5 L 242 214.5 L 243 212 Q 249.1 211.7 252 207.5 L 254.5 204 Z M 257 211 L 247 215 L 247 218 Q 252 220 253 227 Q 254 229 259 228 L 261 224 L 267 220 L 269 217 L 268 214 L 257 211 Z " /><path fill="rgb(202,153,102)" stroke="rgb(202,153,102)" stroke-width="0" opacity="1" d="M 276.5 232 L 281 234.5 L 284.5 240 L 294.5 244 Q 300.8 251 310 254 Q 311.3 258.6 308.5 260 L 303 264.5 L 300 271 L 287.5 274 L 279.5 282 L 233.5 282 L 228 277.5 L 226.5 276 L 212 269.5 L 206.5 260 L 204 258.5 Q 202.1 253.1 205.5 254 Q 215.6 249.6 222.5 242 Q 229.1 241.6 232 237.5 L 234.5 234 L 236.5 233 Q 240.7 238.8 248.5 241 L 265.5 241 L 271 237.5 L 274.5 233 L 276.5 232 Z M 276 239 L 270 244 L 244 244 L 238 241 L 225 245 L 222 249 L 211 257 L 215 268 L 230 271 L 233 277 L 237 279 L 277 279 L 279 278 L 281 274 L 285 270 L 297 268 L 303 257 Q 294 253 289 245 L 282 243 L 278 239 L 276 239 Z " /><path fill="rgb(202,153,102)" stroke="rgb(202,153,102)" stroke-width="0" opacity="1" d="M 168.5 260 L 171 261.5 Q 172 267.5 169 269.5 L 170 274 L 174.5 275 L 178.5 273 L 180 277 L 178 277 L 178 282.5 L 176.5 283 L 171 278.5 L 167.5 273 L 161 269.5 L 160 263 Q 166.2 264.1 168.5 260 Z " /><path fill="rgb(202,153,102)" stroke="rgb(202,153,102)" stroke-width="0" opacity="1" d="M 268.5 352 L 270 352.5 L 263 361 L 260.5 362 L 261 360.5 L 263.5 354 L 268.5 352 Z " /><path fill="rgb(243,223,218)" stroke="rgb(243,223,218)" stroke-width="0" opacity="1" d="M 254.5 121 Q 260 120 261 123.5 Q 260.3 129.7 264.5 131 L 266.5 132 L 280.5 132 L 285.5 131 Q 291.9 131.7 294 136.5 L 295.5 139 L 303 145.5 L 306.5 150 L 315.5 151 L 320 153.5 L 322 157.5 L 323 166.5 L 326.5 170 L 334 176.5 L 335.5 179 L 340 182.5 L 341 184.5 L 341 206.5 L 344.5 211 Q 350.1 210.9 352 214.5 Q 353 219 350.5 220 Q 343.9 220.9 341 225.5 L 341 242.5 L 342 245.5 L 338.5 252 L 333 256.5 L 327.5 263 L 323 266.5 L 321 278.5 L 319.5 280 L 308.5 282 L 303 286.5 L 297.5 293 L 293 296.5 L 290.5 300 L 288.5 301 L 265.5 301 L 262 304.5 L 260 310 L 255.5 311 L 253 310 Q 252.1 304.1 247.5 301 L 224.5 301 L 220 297.5 L 216.5 293 L 210 287.5 L 206.5 283 L 195.5 281 L 192 278.5 L 191 268.5 L 186.5 263 L 180 257.5 L 175.5 252 L 172 249.5 L 172 225.5 L 168.5 222 L 161 218.5 Q 160 213 163.5 212 L 171 208.5 L 172 206.5 L 172 183.5 L 176.5 179 L 179 177.5 L 182 172 L 190 166.5 L 191 157.5 L 194.5 152 L 206.5 150 L 210 146.5 L 216.5 139 L 219 137.5 L 223.5 132 L 230.5 131 L 231.5 132 L 246.5 132 L 251 128.5 Q 250.9 122.9 254.5 121 Z M 237 150 L 232 152 L 228 157 L 225 159 L 214 162 L 210 169 L 204 172 L 201 176 L 198 187 L 196 188 L 191 194 L 190 200 L 191 203 L 191 229 L 190 230 Q 189 239 195 242 Q 203 243 208 239 L 210 236 L 226 228 L 231 221 Q 232 211 235 205 L 241 202 L 250 193 L 252 187 L 252 158 L 250 152 Q 245 149 237 150 Z M 272 150 L 265 152 L 262 156 L 262 168 L 261 169 L 261 187 L 264 193 L 267 194 L 268 197 L 277 203 L 280 208 L 281 217 L 285 225 L 292 230 L 303 234 L 308 239 L 314 242 L 319 242 L 323 236 Q 325 229 322 228 L 322 206 L 323 205 L 322 194 L 314 185 L 311 174 L 307 171 L 301 164 L 296 160 L 288 158 L 281 151 L 272 150 Z M 255 204 L 252 208 Q 249 212 243 212 L 242 215 L 243 220 L 247 222 L 250 228 L 257 232 L 260 231 L 264 226 L 268 223 L 272 218 L 271 214 L 262 208 L 260 206 Q 259 203 255 204 Z M 277 232 L 275 233 L 271 238 L 266 241 L 249 241 Q 241 239 237 233 L 235 234 L 232 238 Q 229 242 223 242 Q 216 250 206 254 Q 202 253 204 259 L 207 260 L 212 270 L 227 276 L 228 278 L 234 282 L 280 282 L 288 274 L 300 271 L 303 265 L 309 260 Q 311 259 310 254 Q 301 251 295 244 L 285 240 L 281 235 L 277 232 Z " /></svg>