<svg width="2048" height="2048" viewBox="0 0 512 512" version="1.1" xmlns="http://www.w3.org/2000/svg"  style="background:transparent"><path fill="rgb(102,102,153)" stroke="rgb(102,102,153)" stroke-width="0" opacity="1" d="M 254.5 59 L 257 59.5 L 251.5 63 L 252 61.5 L 253.5 60 L 254.5 59 Z " /><path fill="rgb(102,102,153)" stroke="rgb(102,102,153)" stroke-width="0" opacity="1" d="M 286.5 59 Q 291.5 58.5 292 62.5 L 290.5 62 Q 286.5 61.5 286.5 59 Z " /><path fill="rgb(102,102,153)" stroke="rgb(102,102,153)" stroke-width="0" opacity="1" d="M 246.5 73 Q 249.5 72.1 248 76.5 L 240.5 82 L 241 80.5 L 246.5 73 Z " /><path fill="rgb(102,102,153)" stroke="rgb(102,102,153)" stroke-width="0" opacity="1" d="M 295 74 Q 298.8 73.3 300 76.5 L 303 81.5 L 299.5 79 L 295 76.5 L 295 74 Z " /><path fill="rgb(102,102,153)" stroke="rgb(102,102,153)" stroke-width="0" opacity="1" d="M 236.5 89 L 238 90.5 L 235.5 94 L 233 92.5 L 236.5 89 Z " /><path fill="rgb(102,102,153)" stroke="rgb(102,102,153)" stroke-width="0" opacity="1" d="M 305.5 90 L 310 92.5 L 307.5 94 L 305.5 90 Z " /><path fill="rgb(102,102,153)" stroke="rgb(102,102,153)" stroke-width="0" opacity="1" d="M 262.5 95 L 263 98.5 L 258.5 103 L 255.5 103 L 257.5 100 L 260 98.5 L 262.5 95 Z " /><path fill="rgb(102,102,153)" stroke="rgb(102,102,153)" stroke-width="0" opacity="1" d="M 280.5 95 L 284.5 100 L 288 102.5 L 284.5 103 L 280 98.5 L 280.5 95 Z " /><path fill="rgb(102,102,153)" stroke="rgb(102,102,153)" stroke-width="0" opacity="1" d="M 311.5 95 L 313 98.5 L 311 97.5 L 311.5 95 Z " /><path fill="rgb(102,102,153)" stroke="rgb(102,102,153)" stroke-width="0" opacity="1" d="M 224.5 109 L 227 109.5 L 221.5 113 L 224.5 109 Z " /><path fill="rgb(102,102,153)" stroke="rgb(102,102,153)" stroke-width="0" opacity="1" d="M 316.5 109 Q 321.5 108.5 322 112.5 L 320.5 112 Q 316.5 111.5 316.5 109 Z " /><path fill="rgb(102,102,153)" stroke="rgb(102,102,153)" stroke-width="0" opacity="1" d="M 250.5 114 L 252 115.5 L 249 121 L 244 121 L 244 119.5 L 247.5 116 L 248.5 117 L 250 116.5 Q 247.7 115.3 250.5 114 Z " /><path fill="rgb(102,102,153)" stroke="rgb(102,102,153)" stroke-width="0" opacity="1" d="M 291.5 114 L 293 117 L 298 118.5 Q 299.2 123.1 294 121 L 291.5 114 Z " /><path fill="rgb(102,102,153)" stroke="rgb(102,102,153)" stroke-width="0" opacity="1" d="M 216.5 123 L 218 126.5 L 210.5 132 L 211 130.5 L 216.5 123 Z " /><path fill="rgb(102,102,153)" stroke="rgb(102,102,153)" stroke-width="0" opacity="1" d="M 326 124 L 329 125.5 L 333 131.5 L 329.5 129 L 325 126.5 L 326 124 Z " /><path fill="rgb(102,102,153)" stroke="rgb(102,102,153)" stroke-width="0" opacity="1" d="M 242.5 127 L 244.5 130 L 255.5 129 L 255.5 130 Q 252.5 133 245.5 132 Q 240.6 130.6 242.5 127 Z " /><path fill="rgb(102,102,153)" stroke="rgb(102,102,153)" stroke-width="0" opacity="1" d="M 300.5 127 L 301 128.5 L 300 131 L 292.5 132 L 287 129.5 L 289.5 129 L 290.5 130 L 298.5 130 L 300.5 127 Z " /><path fill="rgb(102,102,153)" stroke="rgb(102,102,153)" stroke-width="0" opacity="1" d="M 206.5 139 L 208 139.5 L 204.5 142 L 206.5 139 Z " /><path fill="rgb(102,102,153)" stroke="rgb(102,102,153)" stroke-width="0" opacity="1" d="M 226.5 154 L 249.5 155 L 253 157.5 L 252.5 159 L 240.5 157 L 239.5 158 L 217.5 158 L 211 155.5 L 213.5 155 L 217.5 156 L 226.5 154 Z " /><path fill="rgb(102,102,153)" stroke="rgb(102,102,153)" stroke-width="0" opacity="1" d="M 311.5 154 L 327.5 156 L 331.5 155 L 331.5 156 L 326.5 158 L 303.5 158 L 297.5 157 L 291.5 158 L 293.5 155 L 310.5 155 L 311.5 154 Z " /><path fill="rgb(102,102,153)" stroke="rgb(102,102,153)" stroke-width="0" opacity="1" d="M 250 179 L 256 180.5 L 250 181 L 250 179 Z " /><path fill="rgb(102,102,153)" stroke="rgb(102,102,153)" stroke-width="0" opacity="1" d="M 292.5 179 L 293.5 181 L 287 180.5 L 292.5 179 Z " /><path fill="rgb(102,102,153)" stroke="rgb(102,102,153)" stroke-width="0" opacity="1" d="M 242.5 182 L 243 183.5 L 240.5 187 L 238 185.5 L 242.5 182 Z " /><path fill="rgb(102,102,153)" stroke="rgb(102,102,153)" stroke-width="0" opacity="1" d="M 300.5 182 L 304 184.5 Q 305.1 187.8 302.5 187 L 300.5 182 Z " /><path fill="rgb(102,102,153)" stroke="rgb(102,102,153)" stroke-width="0" opacity="1" d="M 221.5 192 L 221 193.5 L 219.5 197 L 219 194.5 L 221.5 192 Z " /><path fill="rgb(102,102,153)" stroke="rgb(102,102,153)" stroke-width="0" opacity="1" d="M 321.5 192 L 324 196.5 L 322 195.5 L 321.5 192 Z " /><path fill="rgb(102,102,153)" stroke="rgb(102,102,153)" stroke-width="0" opacity="1" d="M 247.5 205 L 252 206.5 Q 247.8 211.8 239.5 213 L 239.5 212 L 244 210 L 247.5 205 Z " /><path fill="rgb(102,102,153)" stroke="rgb(102,102,153)" stroke-width="0" opacity="1" d="M 292 205 Q 297.6 204 299 208.5 L 300.5 211 L 302 211.5 L 299.5 212 L 292 207.5 L 292 205 Z " /><path fill="rgb(102,102,153)" stroke="rgb(102,102,153)" stroke-width="0" opacity="1" d="M 232.5 214 L 233 216.5 L 223 224.5 L 216.5 233 L 214 232.5 L 216.5 228 L 220 229 L 219 226.5 L 225 221.5 L 226.5 219 L 228 219.5 Q 226.5 215.1 229.5 216 L 232.5 214 Z " /><path fill="rgb(102,102,153)" stroke="rgb(102,102,153)" stroke-width="0" opacity="1" d="M 310.5 214 L 315 217.5 Q 312.8 218.8 315.5 220 Q 316.8 217.7 318 220.5 L 320.5 224 L 324 226.5 Q 322.9 229.8 325.5 229 L 327 228.5 L 329 232.5 L 326.5 233 L 315.5 221 L 310 216.5 L 310.5 214 Z " /><path fill="rgb(102,102,153)" stroke="rgb(102,102,153)" stroke-width="0" opacity="1" d="M 194.5 219 L 197 219.5 L 191.5 223 L 194.5 219 Z " /><path fill="rgb(102,102,153)" stroke="rgb(102,102,153)" stroke-width="0" opacity="1" d="M 346.5 219 L 352 222.5 L 350.5 222 Q 346.5 221.5 346.5 219 Z " /><path fill="rgb(102,102,153)" stroke="rgb(102,102,153)" stroke-width="0" opacity="1" d="M 185.5 239 Q 188.1 238.2 187 241.5 Q 185.8 244.8 182 244 L 181.5 246 L 181 244.5 L 185.5 239 Z " /><path fill="rgb(102,102,153)" stroke="rgb(102,102,153)" stroke-width="0" opacity="1" d="M 357.5 239 L 360 243.5 Q 358 247 356 242.5 L 357.5 239 Z " /><path fill="rgb(102,102,153)" stroke="rgb(102,102,153)" stroke-width="0" opacity="1" d="M 211.5 243 L 212 245.5 L 206.5 261 L 205 251.5 L 207.5 248 L 209 248.5 L 211.5 243 Z " /><path fill="rgb(102,102,153)" stroke="rgb(102,102,153)" stroke-width="0" opacity="1" d="M 331.5 243 L 333 249 L 335.5 248 Q 339.3 250.3 338 257.5 L 337 264.5 L 338 270.5 L 335.5 274 Q 334.3 271.8 333 274.5 L 334 276.5 L 332 277 L 331.5 279 L 331 277.5 L 335 267.5 L 335 255.5 Q 330.9 250.5 331.5 243 Z " /><path fill="rgb(102,102,153)" stroke="rgb(102,102,153)" stroke-width="0" opacity="1" d="M 206.5 262 L 212 278.5 L 210 277.5 Q 211.5 273.1 208.5 274 Q 207.3 276.3 206 273.5 L 205 266.5 L 206.5 262 Z " /><path fill="rgb(102,102,153)" stroke="rgb(102,102,153)" stroke-width="0" opacity="1" d="M 181.5 277 L 187 281.5 Q 188.1 284.8 185.5 284 Q 181.1 281.7 181.5 277 Z " /><path fill="rgb(102,102,153)" stroke="rgb(102,102,153)" stroke-width="0" opacity="1" d="M 358.5 278 L 360 280.5 L 357.5 284 L 356 280.5 L 358.5 278 Z " /><path fill="rgb(102,102,153)" stroke="rgb(102,102,153)" stroke-width="0" opacity="1" d="M 214.5 290 L 216.5 290 L 222 295.5 L 227.5 302 L 233 306.5 L 232.5 309 L 228 307 L 229 304.5 L 225 302.5 L 221.5 298 L 219 296.5 Q 220.3 292.8 216.5 294 L 214.5 290 Z " /><path fill="rgb(102,102,153)" stroke="rgb(102,102,153)" stroke-width="0" opacity="1" d="M 326.5 290 L 329 290.5 L 326.5 294 L 324 294 Q 325.5 297.7 322.5 297 L 316.5 304 L 315 305.5 L 310.5 309 L 310 306.5 L 322 295.5 L 326.5 290 Z " /><path fill="rgb(102,102,153)" stroke="rgb(102,102,153)" stroke-width="0" opacity="1" d="M 191.5 300 L 197 303.5 L 194.5 304 L 191.5 300 Z " /><path fill="rgb(102,102,153)" stroke="rgb(102,102,153)" stroke-width="0" opacity="1" d="M 351.5 300 L 349.5 303 L 346.5 304 L 347.5 302 L 351.5 300 Z " /><path fill="rgb(102,102,153)" stroke="rgb(102,102,153)" stroke-width="0" opacity="1" d="M 242.5 311 L 252 316.5 L 247.5 318 L 242.5 311 Z " /><path fill="rgb(102,102,153)" stroke="rgb(102,102,153)" stroke-width="0" opacity="1" d="M 299.5 311 L 301 311.5 L 295.5 318 Q 290.7 319.7 292 315.5 L 299.5 311 Z " /><path fill="rgb(102,102,153)" stroke="rgb(102,102,153)" stroke-width="0" opacity="1" d="M 219.5 326 L 223 331.5 L 219 328.5 L 219.5 326 Z " /><path fill="rgb(102,102,153)" stroke="rgb(102,102,153)" stroke-width="0" opacity="1" d="M 323.5 326 L 324 328.5 L 320 331.5 L 323.5 326 Z " /><path fill="rgb(102,102,153)" stroke="rgb(102,102,153)" stroke-width="0" opacity="1" d="M 239.5 336 L 242 337.5 L 244 341.5 L 242.5 341 L 238 337.5 L 239.5 336 Z " /><path fill="rgb(102,102,153)" stroke="rgb(102,102,153)" stroke-width="0" opacity="1" d="M 302.5 336 L 305 337.5 L 299.5 342 L 299 340.5 L 302.5 336 Z " /><path fill="rgb(45,224,58)" stroke="rgb(45,224,58)" stroke-width="0" opacity="1" d="M 260.5 49 L 261 51 L 268.5 52 L 273.5 51 L 279.5 52 L 284 50 Q 283.1 56.3 288 58.5 L 284 59 L 283 67.5 Q 285.3 71.7 292.5 71 L 295 69.5 L 297 73.5 L 295 74 L 294 78.5 L 294 80.5 L 294 83.5 L 298.5 88 L 301.5 87 L 302.5 89 L 303.5 84 L 307 89.5 L 304.5 90 L 303 89.5 Q 302.2 97.8 305.5 102 L 311.5 102 Q 310.9 99.3 314 100 L 318 108.5 L 314 110.5 L 313 116.5 L 315.5 120 L 322.5 121 L 323 119 Q 325.7 117.9 325 120.5 L 327 123.5 L 324 129.5 L 325 134.5 L 329.5 139 L 333 138 L 333.5 133 L 336 138.5 L 334.5 139 L 333 138.5 L 332 150.5 L 329.5 153 Q 323.3 151.3 321.5 154 L 319.5 154 L 296.5 154 L 291 157.5 Q 291.8 160.1 288.5 159 Q 283.8 162.3 284 170.5 L 287.5 178 L 292 179.5 L 284 181 L 283 186.5 Q 286.8 191.8 297.5 190 L 304 186.5 L 304.5 185 L 314 189.5 L 312 195.5 L 314.5 199 L 319.5 200 L 324 199 L 324.5 196 L 342 210 L 347 218.5 L 344 220.5 L 343 227.5 Q 345 232.8 353 231 L 353.5 229 L 357 239.5 L 354 242.5 L 353 249.5 L 353 273.5 L 354 280.5 L 357 284.5 L 353.5 293 Q 351.8 290.3 345.5 292 Q 342.2 293.7 343 299.5 L 345.5 304 L 347 304.5 L 340.5 314 L 334 319.5 L 332.5 322 L 324.5 327 L 322.5 324 L 316.5 323 L 313 325.5 L 312 329.5 L 314 333.5 L 305.5 338 L 304 335 Q 300.1 332.1 291.5 333 L 283 338.5 L 286 343 L 290 343.5 L 281.5 345 L 261.5 345 L 253 343.5 L 258 342.5 L 257 341.5 L 259.5 338 L 251.5 333 L 244.5 333 L 239 335 L 237.5 338 L 229 333.5 L 231 327.5 L 228.5 324 L 223.5 323 L 220 324 L 218.5 328 L 218 326 L 209 320.5 L 203.5 314 L 201 312.5 L 196 304.5 L 199 302.5 L 200 295.5 L 199 293 L 190 292 L 189.5 294 L 186 284.5 L 189 281.5 L 190 268.5 L 188 259.5 Q 191.3 254.8 190 245.5 L 186 237.5 L 189.5 229 Q 191.2 231.8 196.5 231 L 200 224.5 L 197.5 219 L 196 218.5 L 210 201 L 218 197 L 218.5 195 L 220 199 L 226.5 200 L 230 198 L 231 192.5 L 229 189.5 L 238.5 186 Q 242.5 192 254.5 190 L 260 186.5 L 259 181 L 252 179.5 L 258 175.5 L 259 167.5 L 258 162.5 L 254.5 159 L 253 157.5 L 246.5 154 L 221.5 154 Q 219.8 151.3 213.5 153 L 211 150.5 L 210 139 L 207 138.5 L 209.5 134 L 210.5 138 L 212.5 138 Q 217.5 138.5 218 134.5 L 219 128.5 L 216 122.5 L 218.5 119 Q 220 122.5 221.5 120 Q 228.5 121.5 230 117.5 Q 230.7 111.3 227.5 109 L 225 108.5 Q 229.3 106.1 229 100 L 232.5 102 L 236.5 102 Q 241.4 98.5 240 90 L 237 88.5 L 239.5 84 L 240 86 L 244.5 88 Q 250.8 86.3 249 76.5 L 247 71.5 L 248.5 69 L 249 71 Q 256.8 72.2 260 67.5 L 259 59 L 255 58.5 L 258 55.5 L 260.5 49 Z M 270 87 L 270 88 L 274 88 L 270 87 Z M 256 92 L 253 95 L 254 102 L 257 104 L 253 112 L 252 110 L 247 109 L 244 112 L 243 117 L 244 121 L 248 122 L 245 126 L 246 128 L 253 130 L 245 130 L 241 123 L 236 124 L 233 128 L 234 138 L 237 140 L 307 140 L 310 136 L 309 126 L 303 123 L 299 130 L 290 130 L 297 128 L 298 126 L 295 122 L 300 119 L 298 109 L 291 111 L 286 104 L 290 102 L 289 101 L 290 95 Q 289 91 282 92 L 280 98 L 279 97 L 276 94 Q 266 92 264 97 L 263 93 L 262 93 L 256 92 Z M 282 157 L 281 163 L 282 163 L 282 157 Z M 278 159 L 277 163 L 279 164 L 278 159 Z M 279 165 Q 275 168 277 177 L 279 176 L 279 165 Z M 267 197 L 269 200 L 275 199 L 275 197 L 267 197 Z M 239 203 L 234 207 L 235 212 L 226 213 Q 222 215 222 221 L 216 223 L 213 226 L 212 231 L 213 233 L 216 234 L 213 239 L 212 235 L 210 234 L 208 234 L 203 239 L 203 252 L 207 262 L 203 272 L 203 284 L 206 287 L 207 289 L 212 289 L 213 284 L 216 290 L 212 292 L 213 298 Q 216 302 222 302 L 223 308 L 226 310 L 231 311 L 234 311 L 234 317 L 239 320 L 244 320 L 246 320 Q 251 320 253 316 L 260 319 L 284 319 L 291 316 L 292 318 L 297 320 L 299 319 L 305 320 L 309 316 L 309 313 L 305 310 L 310 307 L 310 311 L 318 310 Q 322 307 322 301 L 329 300 L 331 292 L 327 290 L 331 284 L 332 289 Q 338 288 340 284 Q 342 271 337 265 Q 336 256 340 252 L 340 239 L 337 235 L 332 234 L 331 239 L 327 234 L 331 232 L 330 226 Q 328 221 322 222 L 320 216 L 318 213 L 313 212 Q 306 214 309 207 Q 307 202 300 203 L 298 203 L 294 204 L 292 207 L 285 204 L 259 204 L 253 207 Q 252 203 247 204 L 245 204 L 239 203 Z " /><path fill="rgb(45,224,58)" stroke="rgb(45,224,58)" stroke-width="0" opacity="1" d="M 306.5 212 L 310 213 L 309.5 216 L 305 213.5 L 306.5 212 Z " /><path fill="rgb(45,224,58)" stroke="rgb(45,224,58)" stroke-width="0" opacity="1" d="M 234.5 213 L 238 213.5 L 233.5 216 L 233 214.5 L 234.5 213 Z " /><path fill="rgb(45,224,58)" stroke="rgb(45,224,58)" stroke-width="0" opacity="1" d="M 266.5 225 Q 289.8 224.8 300 237.5 L 309 255.5 L 309 265.5 L 302 280.5 L 298.5 284 L 288.5 292 L 276.5 295 L 267.5 295 L 253.5 291 L 242 280.5 L 237 267.5 L 236 256.5 L 240 243.5 L 251.5 231 L 266.5 225 Z " /><path fill="rgb(45,224,58)" stroke="rgb(45,224,58)" stroke-width="0" opacity="1" d="M 233.5 307 L 238 309.5 Q 236.7 312.3 235.5 310 Q 231.1 311.1 233.5 307 Z " /><path fill="rgb(102,173,153)" stroke="rgb(102,173,153)" stroke-width="0" opacity="1" d="M 264.5 46 L 265.5 47 L 277.5 47 Q 278.8 44.8 280 47.5 L 281 50.5 Q 279.8 53.3 274.5 52 L 269.5 51 L 264.5 52 L 262 50.5 L 264.5 46 Z " /><path fill="rgb(102,173,153)" stroke="rgb(102,173,153)" stroke-width="0" opacity="1" d="M 259.5 61 L 260 67.5 Q 257.7 71.4 252 71 L 254.5 63 L 256.5 63 L 259.5 61 Z " /><path fill="rgb(102,173,153)" stroke="rgb(102,173,153)" stroke-width="0" opacity="1" d="M 283.5 61 L 290 64.5 L 291 71 Q 285.3 71.4 283 67.5 L 283.5 61 Z " /><path fill="rgb(102,173,153)" stroke="rgb(102,173,153)" stroke-width="0" opacity="1" d="M 248.5 79 L 249 83.5 L 243.5 88 L 242 84.5 L 248.5 79 Z " /><path fill="rgb(102,173,153)" stroke="rgb(102,173,153)" stroke-width="0" opacity="1" d="M 294 80 Q 299.4 80.7 302 85.5 L 300.5 88 L 298.5 88 L 294 83.5 L 294 80 Z " /><path fill="rgb(102,173,153)" stroke="rgb(102,173,153)" stroke-width="0" opacity="1" d="M 269.5 87 L 274 87.5 L 269.5 88 L 269.5 87 Z " /><path fill="rgb(102,173,153)" stroke="rgb(102,173,153)" stroke-width="0" opacity="1" d="M 255.5 92 L 261 92.5 L 258 96.5 L 258.5 98 L 256.5 97 L 255 100 Q 251 101.4 253 94.5 L 255.5 92 Z " /><path fill="rgb(102,173,153)" stroke="rgb(102,173,153)" stroke-width="0" opacity="1" d="M 282.5 92 Q 288.8 90.8 290 94.5 L 289.5 100 Q 287.3 95.8 285 97.5 L 286 96.5 L 282.5 92 Z " /><path fill="rgb(102,173,153)" stroke="rgb(102,173,153)" stroke-width="0" opacity="1" d="M 239.5 93 L 240 96.5 L 236.5 102 Q 232.1 103.5 233 100.5 L 239 95.5 L 239.5 93 Z " /><path fill="rgb(102,173,153)" stroke="rgb(102,173,153)" stroke-width="0" opacity="1" d="M 303.5 94 L 308.5 100 L 311 101.5 L 305.5 102 L 304 100.5 L 303.5 94 Z " /><path fill="rgb(102,173,153)" stroke="rgb(102,173,153)" stroke-width="0" opacity="1" d="M 246.5 109 L 250 110.5 L 244.5 115 L 244 111.5 L 246.5 109 Z " /><path fill="rgb(102,173,153)" stroke="rgb(102,173,153)" stroke-width="0" opacity="1" d="M 294.5 109 Q 298.9 107.5 298 110.5 L 300 115.5 L 296.5 113 L 293 110.5 L 294.5 109 Z " /><path fill="rgb(102,173,153)" stroke="rgb(102,173,153)" stroke-width="0" opacity="1" d="M 228.5 111 L 230 117.5 Q 228.3 121.5 222 120 L 223 113 L 225.5 114 L 228.5 111 Z " /><path fill="rgb(102,173,153)" stroke="rgb(102,173,153)" stroke-width="0" opacity="1" d="M 314.5 111 Q 316.7 115.2 319 113.5 L 321 120 Q 315.6 121.5 314 118.5 L 313 113.5 L 314.5 111 Z " /><path fill="rgb(102,173,153)" stroke="rgb(102,173,153)" stroke-width="0" opacity="1" d="M 235.5 124 Q 241.3 121.9 240 126.5 L 238 131.5 L 241 133.5 L 240.5 135 L 238 134 L 238.5 136 L 250.5 136 L 254 135 Q 252.7 131.7 257.5 133 L 258.5 132 L 284.5 132 L 292.5 136 L 305 136 L 303 124 Q 307.6 122.8 309 125.5 L 310 135.5 L 306.5 140 L 236.5 140 L 234 137.5 L 233 127.5 L 235.5 124 Z " /><path fill="rgb(102,173,153)" stroke="rgb(102,173,153)" stroke-width="0" opacity="1" d="M 217.5 130 L 218 134.5 Q 217.5 138.5 212.5 138 Q 209.8 136.7 212 135.5 L 213.5 132 L 217.5 130 Z " /><path fill="rgb(102,173,153)" stroke="rgb(102,173,153)" stroke-width="0" opacity="1" d="M 325.5 130 L 330 132 L 332 138 L 329.5 139 Q 323.3 137.3 325.5 130 Z " /><path fill="rgb(102,173,153)" stroke="rgb(102,173,153)" stroke-width="0" opacity="1" d="M 333.5 140 L 335.5 144 L 337 143.5 L 336 150 L 331.5 152 L 332 150.5 L 332 141.5 L 333.5 140 Z " /><path fill="rgb(102,173,153)" stroke="rgb(102,173,153)" stroke-width="0" opacity="1" d="M 209.5 141 Q 212.3 143.7 211 150.5 L 213 152.5 L 211.5 152 L 207 150 L 206 143.5 L 208 143.5 L 209.5 141 Z " /><path fill="rgb(102,173,153)" stroke="rgb(102,173,153)" stroke-width="0" opacity="1" d="M 277.5 159 L 279 163.5 L 277 162.5 L 277.5 159 Z " /><path fill="rgb(102,173,153)" stroke="rgb(102,173,153)" stroke-width="0" opacity="1" d="M 278.5 165 L 279 175.5 L 277 176.5 Q 275.3 168.3 278.5 165 Z " /><path fill="rgb(102,173,153)" stroke="rgb(102,173,153)" stroke-width="0" opacity="1" d="M 258.5 182 L 260 186.5 Q 255.9 191.9 244.5 190 L 243.5 188 L 250 184.5 L 250.5 183 L 253.5 184 L 258.5 182 Z " /><path fill="rgb(102,173,153)" stroke="rgb(102,173,153)" stroke-width="0" opacity="1" d="M 284.5 182 L 291.5 184 L 294.5 182 L 294 183.5 L 295.5 186 L 300 188.5 Q 296.7 191.7 288.5 190 L 283 186.5 L 284.5 182 Z " /><path fill="rgb(102,173,153)" stroke="rgb(102,173,153)" stroke-width="0" opacity="1" d="M 228.5 191 L 231 192.5 L 230 198 L 223.5 200 L 221 198.5 Q 224.8 197.3 224 193 L 228.5 191 Z " /><path fill="rgb(102,173,153)" stroke="rgb(102,173,153)" stroke-width="0" opacity="1" d="M 313 191 L 319 193 Q 318.2 197.2 322 198.5 L 316.5 200 L 313 197.5 L 312 193.5 L 313 191 Z " /><path fill="rgb(102,173,153)" stroke="rgb(102,173,153)" stroke-width="0" opacity="1" d="M 267 197 L 274.5 197 L 275 199 L 268.5 200 L 267 197 Z " /><path fill="rgb(102,173,153)" stroke="rgb(102,173,153)" stroke-width="0" opacity="1" d="M 238.5 203 L 244 203.5 L 238.5 210 L 234 211 Q 232.8 205.5 236.5 204 L 238.5 203 Z " /><path fill="rgb(102,173,153)" stroke="rgb(102,173,153)" stroke-width="0" opacity="1" d="M 299.5 203 Q 307.1 201.9 309 206.5 Q 311.1 212.3 306.5 211 L 302 207.5 L 299.5 203 Z " /><path fill="rgb(102,173,153)" stroke="rgb(102,173,153)" stroke-width="0" opacity="1" d="M 225.5 213 L 227 213.5 L 224 215 L 223.5 217 L 223 215.5 L 225.5 213 Z " /><path fill="rgb(102,173,153)" stroke="rgb(102,173,153)" stroke-width="0" opacity="1" d="M 315.5 213 L 320 215.5 L 321 218.5 L 320 218.5 L 319 215 L 315.5 213 Z " /><path fill="rgb(102,173,153)" stroke="rgb(102,173,153)" stroke-width="0" opacity="1" d="M 344.5 221 L 345 223 L 347.5 224 L 349.5 223 L 351 225.5 L 351 227.5 L 352 231 Q 344.8 232.5 343 227.5 L 344.5 221 Z " /><path fill="rgb(102,173,153)" stroke="rgb(102,173,153)" stroke-width="0" opacity="1" d="M 198.5 222 L 200 226.5 L 196.5 231 Q 192 232 191 229.5 L 193 224 L 198.5 222 Z " /><path fill="rgb(102,173,153)" stroke="rgb(102,173,153)" stroke-width="0" opacity="1" d="M 324.5 222 L 330 225.5 L 329.5 227 L 324.5 222 Z " /><path fill="rgb(102,173,153)" stroke="rgb(102,173,153)" stroke-width="0" opacity="1" d="M 215.5 223 L 217 223.5 L 213 226.5 L 215.5 223 Z " /><path fill="rgb(102,173,153)" stroke="rgb(102,173,153)" stroke-width="0" opacity="1" d="M 207.5 234 L 211 235.5 L 210 239.5 L 203.5 247 L 203 238.5 L 207.5 234 Z " /><path fill="rgb(102,173,153)" stroke="rgb(102,173,153)" stroke-width="0" opacity="1" d="M 332 235 Q 338.4 233.8 340 238.5 L 339.5 247 L 333 239.5 L 332 235 Z " /><path fill="rgb(102,173,153)" stroke="rgb(102,173,153)" stroke-width="0" opacity="1" d="M 188.5 244 L 190 245.5 L 190 254.5 L 188 263.5 Q 191.3 268.2 190 277.5 L 188 278.5 Q 188.5 273.5 184.5 273 L 182 274.5 L 183 270.5 Q 180.3 266.3 181 258.5 L 183 250.5 L 182.5 249 L 185 250 L 187 246.5 L 188.5 244 Z " /><path fill="rgb(102,173,153)" stroke="rgb(102,173,153)" stroke-width="0" opacity="1" d="M 354.5 246 L 355 250 L 357 250.5 L 356 253.5 L 357 254.5 L 357 268.5 L 354.5 277 L 353 273.5 L 353 249.5 L 354.5 246 Z " /><path fill="rgb(102,173,153)" stroke="rgb(102,173,153)" stroke-width="0" opacity="1" d="M 203.5 275 L 204 277.5 L 210 283.5 L 211 287.5 L 209.5 289 L 207 288.5 L 205.5 287 Q 201 283.7 203.5 275 Z " /><path fill="rgb(102,173,153)" stroke="rgb(102,173,153)" stroke-width="0" opacity="1" d="M 339.5 275 L 340 283.5 Q 338.4 289 332 288 L 333 283.5 L 339.5 275 Z " /><path fill="rgb(102,173,153)" stroke="rgb(102,173,153)" stroke-width="0" opacity="1" d="M 191 292 L 199 293 L 200 299.5 Q 198.8 302.3 197.5 300 L 192 297.5 L 192 295.5 L 191 292 Z " /><path fill="rgb(102,173,153)" stroke="rgb(102,173,153)" stroke-width="0" opacity="1" d="M 345.5 292 L 352 292.5 L 350 296.5 L 351 298.5 L 348.5 300 L 346.5 299 L 344.5 302 L 343 295.5 L 345.5 292 Z " /><path fill="rgb(102,173,153)" stroke="rgb(102,173,153)" stroke-width="0" opacity="1" d="M 329.5 295 L 330 297.5 L 329 300 L 324.5 301 L 325.5 299 L 329 296.5 L 329.5 295 Z " /><path fill="rgb(102,173,153)" stroke="rgb(102,173,153)" stroke-width="0" opacity="1" d="M 213.5 296 L 216.5 300 L 213 297.5 L 213.5 296 Z " /><path fill="rgb(102,173,153)" stroke="rgb(102,173,153)" stroke-width="0" opacity="1" d="M 222.5 304 L 224 308 L 227 309.5 L 225.5 310 Q 220.6 307.9 222.5 304 Z " /><path fill="rgb(102,173,153)" stroke="rgb(102,173,153)" stroke-width="0" opacity="1" d="M 320.5 304 L 321 305.5 L 317.5 310 L 316 309.5 L 319 307.5 L 320.5 304 Z " /><path fill="rgb(102,173,153)" stroke="rgb(102,173,153)" stroke-width="0" opacity="1" d="M 234 312 Q 240.4 311 242 316.5 L 244 320 L 238.5 320 L 234 317 L 234 312 Z " /><path fill="rgb(102,173,153)" stroke="rgb(102,173,153)" stroke-width="0" opacity="1" d="M 305.5 312 Q 310.8 310.3 309 315.5 Q 307.8 321.2 299.5 320 L 300 318.5 L 305.5 312 Z " /><path fill="rgb(102,173,153)" stroke="rgb(102,173,153)" stroke-width="0" opacity="1" d="M 223.5 323 Q 228.6 322.4 230 325.5 L 231 330.5 L 228.5 332 L 224 330 Q 224.7 325.7 221 324.5 L 223.5 323 Z " /><path fill="rgb(102,173,153)" stroke="rgb(102,173,153)" stroke-width="0" opacity="1" d="M 316.5 323 L 322 324.5 Q 318.3 325.7 319 330 L 313 332 L 312 327.5 L 314.5 324 L 316.5 323 Z " /><path fill="rgb(102,173,153)" stroke="rgb(102,173,153)" stroke-width="0" opacity="1" d="M 244.5 333 L 251.5 333 L 260 338.5 Q 259.2 342.8 253.5 342 L 248 340 L 246.5 337 L 244.5 338 L 244.5 337 L 246 336.5 L 243 334.5 L 244.5 333 Z " /><path fill="rgb(102,173,153)" stroke="rgb(102,173,153)" stroke-width="0" opacity="1" d="M 291.5 333 Q 298.3 331.3 300 334.5 L 297 336.5 L 295 340 L 292.5 340 L 286.5 342 L 283.5 338 L 291.5 333 Z " /><path fill="rgb(153,102,153)" stroke="rgb(153,102,153)" stroke-width="0" opacity="1" d="M 233.5 93 Q 236.1 92.3 235 95 L 232.5 96 L 232 94.5 L 233.5 93 Z " /><path fill="rgb(153,102,153)" stroke="rgb(153,102,153)" stroke-width="0" opacity="1" d="M 309.5 93 L 311 96 L 308 94.5 L 309.5 93 Z " /><path fill="rgb(153,102,153)" stroke="rgb(153,102,153)" stroke-width="0" opacity="1" d="M 359 244 Q 361.7 242.9 361 245.5 L 362 248.5 L 361 248.5 L 359 244 Z " /><path fill="rgb(153,102,153)" stroke="rgb(153,102,153)" stroke-width="0" opacity="1" d="M 361.5 274 L 362 276.5 L 361 279 Q 358.3 280.1 359 277.5 L 361.5 274 Z " /><path fill="rgb(153,153,102)" stroke="rgb(153,153,102)" stroke-width="0" opacity="1" d="M 262.5 43 L 264 46.5 L 261.5 51 L 260 47.5 L 262.5 43 Z " /><path fill="rgb(153,153,102)" stroke="rgb(153,153,102)" stroke-width="0" opacity="1" d="M 280 44 Q 283 42.8 282 46.5 L 283 49.5 L 281 50.5 L 279 46.5 L 280 44 Z " /><path fill="rgb(153,153,102)" stroke="rgb(153,153,102)" stroke-width="0" opacity="1" d="M 257.5 59 Q 260.1 58.2 259 61.5 L 255.5 64 Q 254.3 61.8 253 64.5 L 252 71 Q 248.3 72.5 249 69.5 L 250 64.5 L 253.5 61 L 257.5 59 Z " /><path fill="rgb(153,153,102)" stroke="rgb(153,153,102)" stroke-width="0" opacity="1" d="M 284 59 L 293 64.5 L 294 69.5 L 291 71 L 288.5 63 L 284 61.5 L 284 59 Z " /><path fill="rgb(153,153,102)" stroke="rgb(153,153,102)" stroke-width="0" opacity="1" d="M 248.5 76 L 249 78.5 L 242 84.5 Q 242.7 87.1 240 86 Q 239 80.4 243.5 79 L 248.5 76 Z " /><path fill="rgb(153,153,102)" stroke="rgb(153,153,102)" stroke-width="0" opacity="1" d="M 294 77 Q 299.9 77.9 303 82.5 L 303 88.5 L 308.5 97 L 311 96 L 313 99.5 L 311.5 102 L 304 95.5 L 302 85.5 L 297.5 81 L 294 78.5 L 294 77 Z " /><path fill="rgb(153,153,102)" stroke="rgb(153,153,102)" stroke-width="0" opacity="1" d="M 238.5 90 Q 241.1 89.2 240 92.5 L 235.5 99 L 233 100.5 L 232.5 102 L 231 97.5 L 233.5 96 Q 234.8 98.3 236 95.5 L 238.5 90 Z " /><path fill="rgb(153,153,102)" stroke="rgb(153,153,102)" stroke-width="0" opacity="1" d="M 262.5 92 L 263 94.5 L 258.5 100 L 254 102 L 256.5 97 L 258.5 98 L 258 96.5 L 260.5 93 L 262.5 92 Z " /><path fill="rgb(153,153,102)" stroke="rgb(153,153,102)" stroke-width="0" opacity="1" d="M 281.5 92 L 290 101.5 L 287.5 102 L 282 97.5 L 280 93.5 L 281.5 92 Z " /><path fill="rgb(153,153,102)" stroke="rgb(153,153,102)" stroke-width="0" opacity="1" d="M 227.5 109 L 229 110.5 L 225.5 114 L 223 113 L 220.5 121 L 219 118.5 Q 219.5 113 223.5 111 L 227.5 109 Z " /><path fill="rgb(153,153,102)" stroke="rgb(153,153,102)" stroke-width="0" opacity="1" d="M 315.5 109 L 323 114.5 L 324 118.5 L 322.5 121 L 318.5 113 L 317.5 114 L 314 110.5 L 315.5 109 Z " /><path fill="rgb(153,153,102)" stroke="rgb(153,153,102)" stroke-width="0" opacity="1" d="M 250.5 110 Q 253.9 109.2 252 114 L 243 119 Q 242.3 113.5 247.5 112 L 250.5 110 Z " /><path fill="rgb(153,153,102)" stroke="rgb(153,153,102)" stroke-width="0" opacity="1" d="M 291.5 110 L 300 116.5 L 298.5 120 L 295.5 116 L 291 113.5 L 290 111.5 L 291.5 110 Z " /><path fill="rgb(153,153,102)" stroke="rgb(153,153,102)" stroke-width="0" opacity="1" d="M 240.5 123 Q 243 124 242 128.5 L 245.5 132 Q 252.2 133.2 254.5 130 L 288.5 130 Q 291.2 132.8 297.5 132 L 300 131 L 302.5 123 L 305 136 L 292.5 136 L 284.5 132 L 258.5 132 L 254 133 Q 255.3 136 251.5 135 L 250.5 136 L 238 136 Q 236.9 133.3 239.5 134 L 241 134.5 L 239.5 132 L 238 131.5 L 240.5 123 Z " /><path fill="rgb(153,153,102)" stroke="rgb(153,153,102)" stroke-width="0" opacity="1" d="M 217.5 127 Q 221 129 216.5 131 L 212 133.5 L 210.5 138 L 210 132.5 L 217.5 127 Z " /><path fill="rgb(153,153,102)" stroke="rgb(153,153,102)" stroke-width="0" opacity="1" d="M 325.5 127 L 333 132.5 Q 331.8 139.8 336.5 141 Q 339.1 140.3 338 143 L 335.5 144 L 330 132 L 324 129.5 L 325.5 127 Z " /><path fill="rgb(153,153,102)" stroke="rgb(153,153,102)" stroke-width="0" opacity="1" d="M 208.5 139 L 210 140.5 L 207.5 144 L 204 142.5 L 208.5 139 Z " /><path fill="rgb(153,153,102)" stroke="rgb(153,153,102)" stroke-width="0" opacity="1" d="M 207 150 L 212.5 153 Q 220.9 152.1 226 154.5 L 214.5 156 L 206 152.5 L 207 150 Z " /><path fill="rgb(153,153,102)" stroke="rgb(153,153,102)" stroke-width="0" opacity="1" d="M 334.5 150 L 337 151.5 L 335.5 153 L 332.5 155 L 325.5 156 L 317 154.5 L 320.5 153 L 322.5 153 Q 331.3 154.3 334.5 150 Z " /><path fill="rgb(153,153,102)" stroke="rgb(153,153,102)" stroke-width="0" opacity="1" d="M 232.5 154 L 247 154.5 L 232.5 155 L 232.5 154 Z " /><path fill="rgb(153,153,102)" stroke="rgb(153,153,102)" stroke-width="0" opacity="1" d="M 296.5 154 L 311 154.5 L 296.5 155 L 296.5 154 Z " /><path fill="rgb(153,153,102)" stroke="rgb(153,153,102)" stroke-width="0" opacity="1" d="M 281.5 157 L 282 162.5 L 281 162.5 L 281.5 157 Z " /><path fill="rgb(153,153,102)" stroke="rgb(153,153,102)" stroke-width="0" opacity="1" d="M 246.5 180 L 255.5 181 L 257.5 181 L 259 181.5 L 251.5 184 L 244 181.5 L 246.5 180 Z " /><path fill="rgb(153,153,102)" stroke="rgb(153,153,102)" stroke-width="0" opacity="1" d="M 286.5 180 L 293.5 181 L 296.5 180 L 299 181.5 L 289.5 184 L 284 181.5 L 286.5 180 Z " /><path fill="rgb(153,153,102)" stroke="rgb(153,153,102)" stroke-width="0" opacity="1" d="M 242 184 L 245.5 186 L 244.5 188 L 241.5 189 Q 238.3 187.3 242 185.5 L 242 184 Z " /><path fill="rgb(153,153,102)" stroke="rgb(153,153,102)" stroke-width="0" opacity="1" d="M 299 184 Q 301.7 182.9 301 185.5 Q 304.8 187.3 301.5 189 L 297 186.5 L 299 186 L 299 184 Z " /><path fill="rgb(153,153,102)" stroke="rgb(153,153,102)" stroke-width="0" opacity="1" d="M 226.5 189 L 230 190.5 L 224 193 Q 224.8 197.7 220.5 199 L 220 196.5 L 222 191 L 226.5 189 Z " /><path fill="rgb(153,153,102)" stroke="rgb(153,153,102)" stroke-width="0" opacity="1" d="M 314.5 189 L 321 191 L 324 199 L 319 195.5 Q 320.1 192.2 317.5 193 L 313 190.5 L 314.5 189 Z " /><path fill="rgb(153,153,102)" stroke="rgb(153,153,102)" stroke-width="0" opacity="1" d="M 245.5 203 L 250 204.5 L 244 208.5 L 242.5 210 L 238.5 213 L 234.5 213 L 226 217 Q 225.9 222.6 221.5 225 L 217 226 L 213.5 233 L 212 230.5 L 217.5 223 L 222 221 L 224 215 L 230.5 212 L 234.5 212 L 242 206.5 L 243.5 204 L 245.5 203 Z " /><path fill="rgb(153,153,102)" stroke="rgb(153,153,102)" stroke-width="0" opacity="1" d="M 296.5 203 L 302 206.5 L 304.5 210 L 319 215 L 322 222 Q 327.4 222.7 330 227.5 L 331 231.5 Q 329.5 234.5 328 231.5 L 324.5 226 L 318 221.5 L 312.5 215 L 306.5 212 L 304.5 213 L 299 209.5 L 295.5 205 L 293 204.5 L 296.5 203 Z " /><path fill="rgb(153,153,102)" stroke="rgb(153,153,102)" stroke-width="0" opacity="1" d="M 197.5 219 L 199 221.5 L 193 224 L 190.5 230 L 189 227.5 L 192.5 222 L 197.5 219 Z " /><path fill="rgb(153,153,102)" stroke="rgb(153,153,102)" stroke-width="0" opacity="1" d="M 345.5 219 L 353 224.5 L 354 228.5 L 352.5 231 L 350 226.5 L 351 224.5 L 348.5 223 L 346.5 223 L 345 221.5 Q 342.8 220.3 345.5 219 Z " /><path fill="rgb(153,153,102)" stroke="rgb(153,153,102)" stroke-width="0" opacity="1" d="M 331.5 234 L 333 239.5 L 340 247.5 L 340 251.5 L 338.5 254 L 335 247.5 L 336 245.5 L 334.5 246 L 332 244.5 L 331.5 234 Z " /><path fill="rgb(153,153,102)" stroke="rgb(153,153,102)" stroke-width="0" opacity="1" d="M 211.5 235 L 212 242.5 L 209.5 246 L 208 245.5 L 204.5 255 L 203 247.5 L 210 239.5 L 211.5 235 Z " /><path fill="rgb(153,153,102)" stroke="rgb(153,153,102)" stroke-width="0" opacity="1" d="M 187.5 240 L 189 243.5 L 186.5 248 L 185 243.5 L 187.5 240 Z " /><path fill="rgb(153,153,102)" stroke="rgb(153,153,102)" stroke-width="0" opacity="1" d="M 355.5 241 L 358 245.5 L 357 250 Q 353.7 251.3 355 246.5 L 354 242.5 L 355.5 241 Z " /><path fill="rgb(153,153,102)" stroke="rgb(153,153,102)" stroke-width="0" opacity="1" d="M 180.5 247 L 183 252.5 Q 180.3 256.8 181 264.5 L 183 272.5 L 181.5 277 Q 177.4 268.6 179 254.5 L 180.5 247 Z " /><path fill="rgb(153,153,102)" stroke="rgb(153,153,102)" stroke-width="0" opacity="1" d="M 361 253 L 363 253.5 L 363 270 L 361 269.5 L 361 253 Z " /><path fill="rgb(153,153,102)" stroke="rgb(153,153,102)" stroke-width="0" opacity="1" d="M 204.5 268 L 208 277 L 212 279.5 L 211.5 289 Q 210.5 280.5 204 277.5 L 203 271.5 L 204.5 268 Z " /><path fill="rgb(153,153,102)" stroke="rgb(153,153,102)" stroke-width="0" opacity="1" d="M 338.5 268 L 340 274.5 L 333 283.5 L 331.5 289 L 330 283.5 L 332.5 277 L 336 278 L 335 274.5 L 338.5 268 Z " /><path fill="rgb(153,153,102)" stroke="rgb(153,153,102)" stroke-width="0" opacity="1" d="M 356.5 269 L 358 278.5 L 355.5 282 L 354 277.5 L 356.5 269 Z " /><path fill="rgb(153,153,102)" stroke="rgb(153,153,102)" stroke-width="0" opacity="1" d="M 186.5 275 L 189 281.5 L 187 282.5 L 185 278.5 L 186.5 275 Z " /><path fill="rgb(153,153,102)" stroke="rgb(153,153,102)" stroke-width="0" opacity="1" d="M 213.5 290 L 218.5 297 L 225 301.5 L 226 306 L 236.5 311 L 238.5 310 L 244 313.5 L 247.5 318 L 250 318.5 L 245.5 320 L 242 318 L 237.5 312 Q 228.7 311.6 224 308 L 222 302 L 213 295.5 L 212 291.5 L 213.5 290 Z " /><path fill="rgb(153,153,102)" stroke="rgb(153,153,102)" stroke-width="0" opacity="1" d="M 329.5 290 Q 332.3 291.3 330 292.5 L 326.5 299 L 321 302.5 L 317.5 309 L 310 311 L 311.5 308 L 316 306 L 322.5 297 Q 327.3 298.7 326 294.5 L 329.5 290 Z " /><path fill="rgb(153,153,102)" stroke="rgb(153,153,102)" stroke-width="0" opacity="1" d="M 190.5 292 L 193 296.5 Q 190.7 297.8 193.5 299 L 199 301.5 L 197.5 304 L 190 298.5 L 189 294.5 L 190.5 292 Z " /><path fill="rgb(153,153,102)" stroke="rgb(153,153,102)" stroke-width="0" opacity="1" d="M 352.5 292 L 354 296.5 L 350.5 301 L 345.5 304 Q 342.8 302.8 345 301.5 L 346.5 299 L 349.5 300 L 351 297.5 L 351 295.5 L 352.5 292 Z " /><path fill="rgb(153,153,102)" stroke="rgb(153,153,102)" stroke-width="0" opacity="1" d="M 304.5 310 L 308 311.5 Q 301.7 312.2 300 317.5 L 298.5 319 L 296.5 320 L 293 318.5 L 298 315.5 L 301.5 311 L 304.5 310 Z " /><path fill="rgb(153,153,102)" stroke="rgb(153,153,102)" stroke-width="0" opacity="1" d="M 220.5 324 Q 224.8 325.3 224 330 L 230 332.5 L 226.5 334 L 221 329.5 L 220.5 324 Z " /><path fill="rgb(153,153,102)" stroke="rgb(153,153,102)" stroke-width="0" opacity="1" d="M 322.5 324 Q 325.8 325.8 322 327.5 Q 322.5 332.5 318.5 333 L 314.5 334 L 313.5 332 L 319 330 Q 318.3 325.3 322.5 324 Z " /><path fill="rgb(153,153,102)" stroke="rgb(153,153,102)" stroke-width="0" opacity="1" d="M 241.5 334 L 246 336.5 L 244 337 Q 245 340 242 339 L 240.5 336 L 239 335.5 L 241.5 334 Z " /><path fill="rgb(153,153,102)" stroke="rgb(153,153,102)" stroke-width="0" opacity="1" d="M 300.5 334 L 304 335.5 L 301 337.5 L 299.5 340 L 299 337 L 297 336.5 L 300.5 334 Z " /><path fill="rgb(153,153,102)" stroke="rgb(153,153,102)" stroke-width="0" opacity="1" d="M 247.5 340 L 258 342.5 L 251.5 344 L 244 341.5 L 247.5 340 Z " /><path fill="rgb(153,153,102)" stroke="rgb(153,153,102)" stroke-width="0" opacity="1" d="M 292.5 340 L 299 341.5 L 290.5 344 L 286 342.5 L 292.5 340 Z " /><path fill="rgb(153,158,153)" stroke="rgb(153,158,153)" stroke-width="0" opacity="1" d="M 268.5 40 Q 277.6 39 281 43.5 L 280 46 Q 275.8 48.5 265.5 47 L 263 46 Q 261.1 41.2 264.5 42 L 268.5 40 Z " /><path fill="rgb(153,158,153)" stroke="rgb(153,158,153)" stroke-width="0" opacity="1" d="M 338.5 142 Q 341.5 143.5 340 149.5 Q 338 154 336 150.5 Q 334.5 143.5 338.5 142 Z " /><path fill="rgb(153,158,153)" stroke="rgb(153,158,153)" stroke-width="0" opacity="1" d="M 203 143 L 207 144.5 Q 208.5 150.5 205.5 152 L 202 145.5 L 203 143 Z " /><path fill="rgb(153,158,153)" stroke="rgb(153,158,153)" stroke-width="0" opacity="1" d="M 243.5 182 L 250 183 L 248.5 186 Q 242.7 188.1 244 183.5 L 243.5 182 Z " /><path fill="rgb(153,158,153)" stroke="rgb(153,158,153)" stroke-width="0" opacity="1" d="M 295.5 182 L 300 182.5 L 297.5 186 L 294 184.5 L 295.5 182 Z " /><path fill="rgb(153,158,153)" stroke="rgb(153,158,153)" stroke-width="0" opacity="1" d="M 183.5 244 L 185 245.5 L 186 247.5 L 185 250 L 182 248.5 L 183.5 244 Z " /><path fill="rgb(153,158,153)" stroke="rgb(153,158,153)" stroke-width="0" opacity="1" d="M 358.5 245 Q 362.7 246.3 362 252.5 L 361 253.5 L 361 269.5 L 362 273.5 L 358.5 278 L 357 275.5 L 357 247.5 L 358.5 245 Z " /><path fill="rgb(153,158,153)" stroke="rgb(153,158,153)" stroke-width="0" opacity="1" d="M 184.5 273 L 186 276.5 L 185 279 L 182 277.5 L 184.5 273 Z " /><path fill="rgb(153,158,153)" stroke="rgb(153,158,153)" stroke-width="0" opacity="1" d="M 246.5 337 L 248 339.5 L 244 341 Q 242.5 337.3 245.5 338 L 246.5 337 Z " /><path fill="rgb(153,158,153)" stroke="rgb(153,158,153)" stroke-width="0" opacity="1" d="M 297.5 337 L 299 341 L 295 339.5 L 296.5 338 L 297.5 337 Z " /></svg>