<svg width="2048" height="2048" viewBox="0 0 512 512" version="1.1" xmlns="http://www.w3.org/2000/svg"  style="background:transparent"><path fill="rgb(0,51,255)" stroke="rgb(0,51,255)" stroke-width="0" opacity="1" d="M 242.5 6 Q 250 4 252 7.5 L 250.5 11 L 240 11 L 240 7 L 242.5 6 Z " /><path fill="rgb(0,51,255)" stroke="rgb(0,51,255)" stroke-width="0" opacity="1" d="M 256.5 6 L 266.5 6 L 268 7.5 L 266.5 11 Q 257.8 12.7 255 8.5 L 256.5 6 Z " /><path fill="rgb(0,51,255)" stroke="rgb(0,51,255)" stroke-width="0" opacity="1" d="M 273.5 6 L 283 7 Q 285.6 13.7 279.5 12 L 272.5 11 L 271 9.5 Q 269.9 6.2 272.5 7 L 273.5 6 Z " /><path fill="rgb(0,51,255)" stroke="rgb(0,51,255)" stroke-width="0" opacity="1" d="M 233.5 7 L 236 7 L 236 12 L 224.5 12 L 224 9.5 L 225.5 8 Q 231.8 9.8 233.5 7 Z " /><path fill="rgb(0,51,255)" stroke="rgb(0,51,255)" stroke-width="0" opacity="1" d="M 287 8 Q 295.2 6.6 299 10.5 L 297.5 14 L 287 12 L 287 8 Z " /><path fill="rgb(0,51,255)" stroke="rgb(0,51,255)" stroke-width="0" opacity="1" d="M 218.5 9 L 221 10.5 L 219.5 14 L 209 15 Q 207.1 10.2 210.5 11 L 218.5 9 Z " /><path fill="rgb(0,51,255)" stroke="rgb(0,51,255)" stroke-width="0" opacity="1" d="M 303 10 L 313.5 12 L 315 13.5 L 313.5 16 Q 305.6 16.9 302 13.5 L 303 10 Z " /><path fill="rgb(0,51,255)" stroke="rgb(0,51,255)" stroke-width="0" opacity="1" d="M 201.5 12 Q 205.9 10.5 205 13.5 L 206 16 Q 201.8 18.9 194 18 L 193 15.5 L 201.5 12 Z " /><path fill="rgb(0,51,255)" stroke="rgb(0,51,255)" stroke-width="0" opacity="1" d="M 318 14 L 330 16 Q 332.3 22.4 324.5 20 L 318 18 L 318 14 Z " /><path fill="rgb(0,51,255)" stroke="rgb(0,51,255)" stroke-width="0" opacity="1" d="M 186.5 16 Q 190.9 14.5 190 17.5 L 191 20 L 179 23 L 180.5 18 L 186.5 16 Z " /><path fill="rgb(0,51,255)" stroke="rgb(0,51,255)" stroke-width="0" opacity="1" d="M 227.5 16 L 230 17.5 L 230 38.5 L 228.5 40 L 226 38.5 L 226 24.5 L 222.5 24 L 220 25 Q 219.3 21.2 222.5 20 L 227.5 16 Z " /><path fill="rgb(0,51,255)" stroke="rgb(0,51,255)" stroke-width="0" opacity="1" d="M 243.5 16 Q 249.7 15.4 252 18 L 253 24.5 L 252 27.5 L 255 33.5 L 250.5 39 L 242.5 40 Q 237 38.4 238 32 L 243.5 36 L 248.5 36 Q 251.3 34.6 250 30 L 244 29 Q 242.5 25.2 245.5 26 L 249 23.5 L 247.5 20 Q 243 19 242 21.5 Q 242.8 24.9 238 23 Q 237.3 18.3 241.5 17 L 243.5 16 Z " /><path fill="rgb(0,51,255)" stroke="rgb(0,51,255)" stroke-width="0" opacity="1" d="M 262.5 16 Q 271.8 13.8 274 18.5 L 272.5 20 Q 265 18 263 21.5 L 263 24 L 269.5 24 L 274 27.5 L 275 33.5 L 270.5 39 L 262.5 40 L 259 38 L 258 33 Q 262.2 32.2 263.5 36 L 268.5 36 L 271 30.5 L 265.5 27 L 258 29 Q 257.2 19.9 262.5 16 Z " /><path fill="rgb(0,51,255)" stroke="rgb(0,51,255)" stroke-width="0" opacity="1" d="M 334.5 18 L 342.5 20 L 345 22.5 L 343.5 25 L 333 22 L 334.5 18 Z " /><path fill="rgb(0,51,255)" stroke="rgb(0,51,255)" stroke-width="0" opacity="1" d="M 172.5 21 Q 176.7 19.7 175 24.5 Q 171.4 28.9 164 28 L 163 25.5 L 172.5 21 Z " /><path fill="rgb(0,51,255)" stroke="rgb(0,51,255)" stroke-width="0" opacity="1" d="M 279.5 22 L 283.5 23 L 288.5 22 L 292.5 24 Q 294.2 21.2 299.5 22 L 303 24.5 L 304 26.5 L 304 38.5 L 301.5 40 L 300 38.5 L 300 27.5 L 298.5 26 Q 293.8 25.3 293 28.5 L 293 38.5 L 291.5 40 L 289 38.5 L 289 27.5 L 287.5 26 Q 282.1 24.1 283 27.5 L 281 40 L 278 38.5 L 278 23.5 L 279.5 22 Z " /><path fill="rgb(0,51,255)" stroke="rgb(0,51,255)" stroke-width="0" opacity="1" d="M 348 24 L 353.5 24 L 360 28.5 L 356.5 31 L 351.5 28 L 348 28 L 348 24 Z " /><path fill="rgb(0,51,255)" stroke="rgb(0,51,255)" stroke-width="0" opacity="1" d="M 157.5 27 L 161 28.5 L 158.5 32 L 154.5 34 L 150.5 34 L 149 31.5 L 157.5 27 Z " /><path fill="rgb(0,51,255)" stroke="rgb(0,51,255)" stroke-width="0" opacity="1" d="M 362 30 L 366.5 30 L 374 34.5 L 373 38 L 362 34 L 362 30 Z " /><path fill="rgb(0,51,255)" stroke="rgb(0,51,255)" stroke-width="0" opacity="1" d="M 144.5 33 L 147 36.5 Q 142.9 41.1 136 42 L 135 38 L 144.5 33 Z " /><path fill="rgb(0,51,255)" stroke="rgb(0,51,255)" stroke-width="0" opacity="1" d="M 377 36 L 387 41.5 Q 388.7 46.3 384.5 45 L 376 39.5 L 377 36 Z " /><path fill="rgb(0,51,255)" stroke="rgb(0,51,255)" stroke-width="0" opacity="1" d="M 129.5 41 L 133 42.5 L 131.5 46 L 123.5 50 L 122 46.5 L 129.5 41 Z " /><path fill="rgb(0,51,255)" stroke="rgb(0,51,255)" stroke-width="0" opacity="1" d="M 391.5 44 L 401 50.5 L 399.5 53 L 396.5 53 L 390 49 L 389 46.5 L 391.5 44 Z " /><path fill="rgb(0,51,255)" stroke="rgb(0,51,255)" stroke-width="0" opacity="1" d="M 117.5 49 L 120 52.5 L 110.5 59 Q 105 56 111.5 53 L 117.5 49 Z " /><path fill="rgb(0,51,255)" stroke="rgb(0,51,255)" stroke-width="0" opacity="1" d="M 404.5 53 L 414 60.5 L 410.5 63 L 402 56.5 L 404.5 53 Z " /><path fill="rgb(0,51,255)" stroke="rgb(0,51,255)" stroke-width="0" opacity="1" d="M 103.5 59 Q 109.2 57.4 107 63 L 100.5 68 L 97.5 68 L 96 65.5 L 103.5 59 Z " /><path fill="rgb(0,51,255)" stroke="rgb(0,51,255)" stroke-width="0" opacity="1" d="M 416.5 63 L 424 67 L 426 70.5 L 422.5 73 L 415 67 L 416.5 63 Z " /><path fill="rgb(0,51,255)" stroke="rgb(0,51,255)" stroke-width="0" opacity="1" d="M 91.5 69 Q 97.2 67.4 95 73 L 91.5 75 L 86.5 79 L 85 75.5 L 91.5 69 Z " /><path fill="rgb(0,51,255)" stroke="rgb(0,51,255)" stroke-width="0" opacity="1" d="M 428.5 73 L 437 80.5 L 435.5 83 L 433.5 83 L 426 75.5 L 428.5 73 Z " /><path fill="rgb(0,51,255)" stroke="rgb(0,51,255)" stroke-width="0" opacity="1" d="M 81.5 79 L 83 80.5 L 84 82.5 L 75.5 90 L 73 87.5 L 81.5 79 Z " /><path fill="rgb(0,51,255)" stroke="rgb(0,51,255)" stroke-width="0" opacity="1" d="M 440.5 84 L 448 91.5 L 448 93.5 L 444 95 L 442 91.5 Q 437.3 90.1 438 85 L 440.5 84 Z " /><path fill="rgb(0,51,255)" stroke="rgb(0,51,255)" stroke-width="0" opacity="1" d="M 69.5 91 L 73 92.5 L 73 94.5 L 67 102 L 63 99.5 L 69.5 91 Z " /><path fill="rgb(0,51,255)" stroke="rgb(0,51,255)" stroke-width="0" opacity="1" d="M 449.5 96 L 454 98.5 L 458 105.5 L 454 107 L 448 97.5 L 449.5 96 Z " /><path fill="rgb(0,51,255)" stroke="rgb(0,51,255)" stroke-width="0" opacity="1" d="M 59 103 L 63 104.5 L 63 106.5 L 56.5 114 L 53 111.5 L 59 103 Z " /><path fill="rgb(0,51,255)" stroke="rgb(0,51,255)" stroke-width="0" opacity="1" d="M 459.5 108 L 464 111.5 L 467 117.5 Q 464.5 122.5 462 117.5 L 458 109.5 L 459.5 108 Z " /><path fill="rgb(0,51,255)" stroke="rgb(0,51,255)" stroke-width="0" opacity="1" d="M 50.5 116 L 54 117.5 L 47.5 127 L 45 125.5 L 50.5 116 Z " /><path fill="rgb(0,51,255)" stroke="rgb(0,51,255)" stroke-width="0" opacity="1" d="M 467 122 L 472 123.5 L 476 130.5 L 471 132 L 467 122 Z " /><path fill="rgb(0,51,255)" stroke="rgb(0,51,255)" stroke-width="0" opacity="1" d="M 42.5 129 L 46 130 L 40.5 140 Q 35.7 141.7 37 137.5 L 42.5 129 Z " /><path fill="rgb(0,51,255)" stroke="rgb(0,51,255)" stroke-width="0" opacity="1" d="M 476.5 135 Q 479.8 133.9 479 136.5 L 483 142.5 L 483 146 Q 478.2 147.9 479 144.5 L 475 136.5 L 476.5 135 Z " /><path fill="rgb(0,51,255)" stroke="rgb(0,51,255)" stroke-width="0" opacity="1" d="M 34.5 143 L 38 144.5 L 34 154 Q 28.4 156.2 30 150.5 L 34.5 143 Z " /><path fill="rgb(0,51,255)" stroke="rgb(0,51,255)" stroke-width="0" opacity="1" d="M 483.5 149 L 487 150.5 L 490 158.5 L 486.5 160 L 482 150.5 L 483.5 149 Z " /><path fill="rgb(0,51,255)" stroke="rgb(0,51,255)" stroke-width="0" opacity="1" d="M 28.5 157 L 31 158.5 L 28 169 Q 21.6 171.3 24 163.5 L 28.5 157 Z " /><path fill="rgb(0,51,255)" stroke="rgb(0,51,255)" stroke-width="0" opacity="1" d="M 489 163 L 493 164.5 L 496 173.5 L 492.5 175 Q 487.9 171.1 489 163 Z " /><path fill="rgb(0,51,255)" stroke="rgb(0,51,255)" stroke-width="0" opacity="1" d="M 22.5 171 L 25 172.5 Q 25.3 180.8 20.5 184 L 18 183 L 20 174.5 L 22.5 171 Z " /><path fill="rgb(0,51,255)" stroke="rgb(0,51,255)" stroke-width="0" opacity="1" d="M 495.5 178 Q 498.8 176.9 498 179.5 L 501 189 L 497 190 L 494 179.5 L 495.5 178 Z " /><path fill="rgb(0,51,255)" stroke="rgb(0,51,255)" stroke-width="0" opacity="1" d="M 16 187 Q 22.4 184.7 20 192.5 L 18 199 L 14 197.5 L 16 187 Z " /><path fill="rgb(0,51,255)" stroke="rgb(0,51,255)" stroke-width="0" opacity="1" d="M 499.5 193 L 503 194.5 L 505 203.5 L 501.5 205 L 498 194.5 L 499.5 193 Z " /><path fill="rgb(0,51,255)" stroke="rgb(0,51,255)" stroke-width="0" opacity="1" d="M 12 202 L 17 203.5 L 13.5 214 Q 10.2 215.1 11 212.5 L 10 210.5 Q 12.8 207.5 12 202 Z " /><path fill="rgb(0,51,255)" stroke="rgb(0,51,255)" stroke-width="0" opacity="1" d="M 503.5 208 L 507 210.5 Q 506.1 217.3 508 220 Q 500.9 222.7 503 215.5 L 502 209.5 L 503.5 208 Z " /><path fill="rgb(0,51,255)" stroke="rgb(0,51,255)" stroke-width="0" opacity="1" d="M 10.5 217 L 14 218 L 12 230 L 8 228.5 Q 7.1 220.6 10.5 217 Z " /><path fill="rgb(0,51,255)" stroke="rgb(0,51,255)" stroke-width="0" opacity="1" d="M 505.5 224 L 509 225.5 L 510 234.5 L 505 236 L 504 225.5 L 505.5 224 Z " /><path fill="rgb(0,51,255)" stroke="rgb(0,51,255)" stroke-width="0" opacity="1" d="M 8.5 233 L 12 234.5 L 11 243.5 L 9.5 245 Q 6.2 246.1 7 243.5 L 6 241.5 L 7 234.5 L 8.5 233 Z " /><path fill="rgb(0,51,255)" stroke="rgb(0,51,255)" stroke-width="0" opacity="1" d="M 506 240 L 511 241.5 L 511 243.5 Q 512.8 250.3 509.5 252 L 506 250.5 L 506 240 Z " /><path fill="rgb(0,51,255)" stroke="rgb(0,51,255)" stroke-width="0" opacity="1" d="M 7.5 248 Q 10.8 246.9 10 249.5 L 11 250.5 L 11 260.5 L 10 263 L 6 262.5 L 6 249.5 L 7.5 248 Z " /><path fill="rgb(0,51,255)" stroke="rgb(0,51,255)" stroke-width="0" opacity="1" d="M 507.5 255 L 511 256.5 L 511 267 L 506 267 L 506 256.5 L 507.5 255 Z " /><path fill="rgb(0,51,255)" stroke="rgb(0,51,255)" stroke-width="0" opacity="1" d="M 6 267 L 11 268.5 L 11 277.5 L 9.5 279 Q 5.8 280.3 7 276.5 L 6 267 Z " /><path fill="rgb(0,51,255)" stroke="rgb(0,51,255)" stroke-width="0" opacity="1" d="M 506 271 L 511 272.5 L 510 281.5 L 508.5 283 L 505 281.5 L 506 271 Z " /><path fill="rgb(0,51,255)" stroke="rgb(0,51,255)" stroke-width="0" opacity="1" d="M 9.5 282 L 12 283.5 L 13 292.5 Q 10.5 297.5 8 292.5 Q 9.8 286.3 7 284.5 L 9.5 282 Z " /><path fill="rgb(0,51,255)" stroke="rgb(0,51,255)" stroke-width="0" opacity="1" d="M 506.5 286 L 509 287 Q 510.1 294.8 506.5 299 L 503 296.5 Q 505.7 294.8 504 288.5 L 506.5 286 Z " /><path fill="rgb(0,51,255)" stroke="rgb(0,51,255)" stroke-width="0" opacity="1" d="M 10 298 Q 16 295.8 14 302.5 L 16 307.5 L 15 310 L 11 308.5 L 10 298 Z " /><path fill="rgb(0,51,255)" stroke="rgb(0,51,255)" stroke-width="0" opacity="1" d="M 503.5 302 L 507 303.5 L 505 314 Q 498.2 316.3 501 307.5 L 503.5 302 Z " /><path fill="rgb(0,51,255)" stroke="rgb(0,51,255)" stroke-width="0" opacity="1" d="M 13 313 L 17 314.5 L 19 323.5 L 15.5 325 L 12 315.5 L 13 313 Z " /><path fill="rgb(0,51,255)" stroke="rgb(0,51,255)" stroke-width="0" opacity="1" d="M 500.5 317 L 503 318.5 L 503 323.5 L 499.5 330 L 497 329 Q 496.2 321.3 500.5 317 Z " /><path fill="rgb(0,51,255)" stroke="rgb(0,51,255)" stroke-width="0" opacity="1" d="M 17 328 L 21 329.5 L 24 338.5 L 20.5 340 L 16 330.5 L 17 328 Z " /><path fill="rgb(0,51,255)" stroke="rgb(0,51,255)" stroke-width="0" opacity="1" d="M 495 332 L 499 333.5 L 495.5 344 Q 490.7 345.7 492 341.5 L 495 332 Z " /><path fill="rgb(0,51,255)" stroke="rgb(0,51,255)" stroke-width="0" opacity="1" d="M 23.5 343 L 26 344.5 L 29 353.5 L 25.5 355 L 22 348.5 L 22 344.5 L 23.5 343 Z " /><path fill="rgb(0,51,255)" stroke="rgb(0,51,255)" stroke-width="0" opacity="1" d="M 490.5 347 L 494 348.5 Q 493.4 355.4 489.5 359 Q 486.2 360.1 487 357.5 L 487 355.5 L 490.5 347 Z " /><path fill="rgb(0,51,255)" stroke="rgb(0,51,255)" stroke-width="0" opacity="1" d="M 28 358 Q 33.2 355.9 32 360.5 Q 35.7 362.9 35 369 Q 31.2 369.8 30 366.5 L 28 362.5 L 28 358 Z " /><path fill="rgb(0,51,255)" stroke="rgb(0,51,255)" stroke-width="0" opacity="1" d="M 485.5 361 Q 489.8 362.7 487 364.5 L 482.5 373 Q 478.3 374.3 480 369.5 L 483 362 L 485.5 361 Z " /><path fill="rgb(0,51,255)" stroke="rgb(0,51,255)" stroke-width="0" opacity="1" d="M 36.5 371 L 42 378.5 L 42 383 L 38 381.5 L 34 373.5 L 36.5 371 Z " /><path fill="rgb(0,51,255)" stroke="rgb(0,51,255)" stroke-width="0" opacity="1" d="M 477 375 L 481 377.5 L 475.5 387 Q 472.2 388.1 473 385.5 L 473 383.5 L 477 375 Z " /><path fill="rgb(0,51,255)" stroke="rgb(0,51,255)" stroke-width="0" opacity="1" d="M 43.5 385 Q 46.8 383.9 46 386.5 L 51 394.5 L 50 397 L 45 393.5 L 42 386.5 L 43.5 385 Z " /><path fill="rgb(0,51,255)" stroke="rgb(0,51,255)" stroke-width="0" opacity="1" d="M 469.5 389 L 473 390.5 L 466.5 401 L 464 396.5 L 469.5 389 Z " /><path fill="rgb(0,51,255)" stroke="rgb(0,51,255)" stroke-width="0" opacity="1" d="M 52.5 398 L 55 399 L 60 407.5 L 55 409 L 51 402.5 L 51 399.5 L 52.5 398 Z " /><path fill="rgb(0,51,255)" stroke="rgb(0,51,255)" stroke-width="0" opacity="1" d="M 460.5 402 L 464 403.5 L 464 405.5 L 457.5 413 L 455 411.5 L 460.5 402 Z " /><path fill="rgb(0,51,255)" stroke="rgb(0,51,255)" stroke-width="0" opacity="1" d="M 61.5 411 L 67 415.5 L 70 419.5 L 66.5 422 L 59 413.5 L 61.5 411 Z " /><path fill="rgb(0,51,255)" stroke="rgb(0,51,255)" stroke-width="0" opacity="1" d="M 452.5 414 L 454 418.5 L 450 424 L 446.5 425 L 444 423.5 L 450.5 415 L 452.5 414 Z " /><path fill="rgb(0,51,255)" stroke="rgb(0,51,255)" stroke-width="0" opacity="1" d="M 71.5 423 L 75 424 L 80 431.5 L 79 434 L 70 426.5 L 71.5 423 Z " /><path fill="rgb(0,51,255)" stroke="rgb(0,51,255)" stroke-width="0" opacity="1" d="M 440 426 L 444 427.5 L 444 429.5 L 437.5 436 Q 432.7 437.7 434 433.5 L 440 426 Z " /><path fill="rgb(0,51,255)" stroke="rgb(0,51,255)" stroke-width="0" opacity="1" d="M 83.5 434 L 91 441.5 L 91 444 L 87.5 444 L 81 437.5 Q 79.9 434.2 82.5 435 L 83.5 434 Z " /><path fill="rgb(0,51,255)" stroke="rgb(0,51,255)" stroke-width="0" opacity="1" d="M 431.5 437 L 433 440.5 L 424 448 L 422 444 L 425.5 442 L 431.5 437 Z " /><path fill="rgb(0,51,255)" stroke="rgb(0,51,255)" stroke-width="0" opacity="1" d="M 93.5 445 L 95.5 445 L 103 451.5 L 101.5 455 L 93 450 L 92 446.5 L 93.5 445 Z " /><path fill="rgb(0,51,255)" stroke="rgb(0,51,255)" stroke-width="0" opacity="1" d="M 418.5 448 Q 421.8 446.9 421 449.5 L 422 450.5 L 418.5 454 L 413.5 458 L 411 457 L 410 454.5 L 418.5 448 Z " /><path fill="rgb(0,51,255)" stroke="rgb(0,51,255)" stroke-width="0" opacity="1" d="M 105.5 455 L 115 460.5 L 116 462.5 Q 114.3 466.8 112.5 464 L 104 457.5 L 105.5 455 Z " /><path fill="rgb(0,51,255)" stroke="rgb(0,51,255)" stroke-width="0" opacity="1" d="M 407.5 457 L 409 460.5 L 399.5 467 L 398 463.5 L 407.5 457 Z " /><path fill="rgb(0,51,255)" stroke="rgb(0,51,255)" stroke-width="0" opacity="1" d="M 118 464 L 128 469.5 Q 129.7 474.3 125.5 473 L 118 469 L 117 466.5 L 118 464 Z " /><path fill="rgb(0,51,255)" stroke="rgb(0,51,255)" stroke-width="0" opacity="1" d="M 393.5 466 L 396 467 Q 396.8 470.8 393.5 472 L 388.5 475 L 385 475 Q 383.1 470.2 386.5 471 L 393.5 466 Z " /><path fill="rgb(0,51,255)" stroke="rgb(0,51,255)" stroke-width="0" opacity="1" d="M 131.5 473 L 134.5 473 L 142 477 L 140.5 481 L 131 477 L 130 474.5 L 131.5 473 Z " /><path fill="rgb(0,51,255)" stroke="rgb(0,51,255)" stroke-width="0" opacity="1" d="M 378.5 475 L 383 476.5 L 381.5 479 L 372.5 483 L 371 479 L 378.5 475 Z " /><path fill="rgb(0,51,255)" stroke="rgb(0,51,255)" stroke-width="0" opacity="1" d="M 145.5 480 Q 152.4 480.6 156 484.5 L 154.5 488 L 146.5 485 L 144 482.5 L 145.5 480 Z " /><path fill="rgb(0,51,255)" stroke="rgb(0,51,255)" stroke-width="0" opacity="1" d="M 365.5 482 L 369 483.5 L 366.5 487 L 358.5 490 L 357 486.5 L 365.5 482 Z " /><path fill="rgb(0,51,255)" stroke="rgb(0,51,255)" stroke-width="0" opacity="1" d="M 159 487 L 163.5 487 L 171 491.5 L 167.5 494 L 159 491 L 159 487 Z " /><path fill="rgb(0,51,255)" stroke="rgb(0,51,255)" stroke-width="0" opacity="1" d="M 351.5 488 L 354 489.5 L 352.5 493 L 344.5 496 Q 340.3 494.3 343 492.5 Q 342.2 489.9 345.5 491 L 351.5 488 Z " /><path fill="rgb(0,51,255)" stroke="rgb(0,51,255)" stroke-width="0" opacity="1" d="M 175.5 492 L 185 495 Q 187.3 501 180.5 499 L 173 495.5 Q 171.9 492.2 174.5 493 L 175.5 492 Z " /><path fill="rgb(0,51,255)" stroke="rgb(0,51,255)" stroke-width="0" opacity="1" d="M 335.5 494 L 340 495.5 L 338.5 498 L 329.5 501 L 328 497.5 L 335.5 494 Z " /><path fill="rgb(0,51,255)" stroke="rgb(0,51,255)" stroke-width="0" opacity="1" d="M 189.5 497 L 200 499 Q 202.3 505.8 193.5 503 L 188 499.5 L 189.5 497 Z " /><path fill="rgb(0,51,255)" stroke="rgb(0,51,255)" stroke-width="0" opacity="1" d="M 321.5 498 L 324 498 L 324 503 L 314.5 505 L 312 501.5 L 321.5 498 Z " /><path fill="rgb(0,51,255)" stroke="rgb(0,51,255)" stroke-width="0" opacity="1" d="M 204 501 L 216 503 L 214.5 507 Q 207 507 203 503.5 L 204 501 Z " /><path fill="rgb(0,51,255)" stroke="rgb(0,51,255)" stroke-width="0" opacity="1" d="M 307.5 501 L 309 506 Q 305.3 508.3 297 507 Q 294.8 501 301.5 503 L 307.5 501 Z " /><path fill="rgb(0,51,255)" stroke="rgb(0,51,255)" stroke-width="0" opacity="1" d="M 219 504 L 231 505 L 229.5 509 Q 221.9 510.1 219 506.5 L 219 504 Z " /><path fill="rgb(0,51,255)" stroke="rgb(0,51,255)" stroke-width="0" opacity="1" d="M 289.5 504 L 294 505.5 L 292.5 509 L 282.5 509 L 281 507.5 L 282.5 505 L 289.5 504 Z " /><path fill="rgb(0,51,255)" stroke="rgb(0,51,255)" stroke-width="0" opacity="1" d="M 236.5 505 L 245.5 506 L 247 507.5 Q 248.1 510.8 245.5 510 L 242.5 511 L 235 510 L 234 507.5 L 236.5 505 Z " /><path fill="rgb(0,51,255)" stroke="rgb(0,51,255)" stroke-width="0" opacity="1" d="M 252.5 506 Q 261 504 263 508.5 L 261.5 510 L 260.5 511 L 251.5 511 L 250 507 L 252.5 506 Z " /><path fill="rgb(0,51,255)" stroke="rgb(0,51,255)" stroke-width="0" opacity="1" d="M 267.5 506 L 276.5 506 L 278 507.5 Q 279.3 511.3 275.5 510 Q 273.8 512.7 267.5 511 L 266 507.5 L 267.5 506 Z " /><path fill="rgb(44,223,56)" stroke="rgb(44,223,56)" stroke-width="0" opacity="1" d="M 257.5 216 L 260.5 217 L 262 216.5 L 262 219.5 Q 265 218.5 264 223.5 L 265 223.5 L 265.5 222 L 266 226 L 268 226 L 268 230 Q 271 228.8 270 232.5 L 272 232.5 L 271 236 L 263.5 237 L 262 238.5 L 263 241.5 L 262 244 L 267.5 243 L 267.5 245 Q 273.3 244.3 274 248.5 L 273 250.5 L 276 251.5 L 275 259.5 L 276 263.5 L 273 264.5 L 274 266.5 Q 272.6 270.6 267 270.5 L 267.5 272 L 263.5 271 L 262.5 274 L 256 273.5 Q 258.2 272.3 255.5 271 L 251 272 Q 252.3 269 248.5 270 Q 244.4 268.6 244.5 263 L 243 263.5 L 243.5 251 L 245 251.5 Q 244.3 245.8 248.5 245 Q 252.3 246 251 243 L 254.5 243 L 257 244 L 256 241.5 L 257 238.5 L 255.5 237 L 248 236 L 247 232.5 L 249 232.5 L 249 230 Q 251.7 231.1 251 228.5 Q 248.7 227.3 251.5 226 Q 254.1 226.8 253 223.5 L 255 223.5 L 255 220 Q 257.7 221.1 257 218.5 Q 254.8 217.3 257.5 216 Z M 257 224 L 256 226 Q 258 227 256 228 Q 253 227 254 231 L 255 232 L 252 231 L 253 234 L 267 234 Q 268 230 266 231 L 264 232 L 265 228 L 262 227 L 263 224 L 261 225 L 257 224 Z M 259 237 Q 257 242 261 241 Q 263 236 259 237 Z M 252 246 L 250 250 L 248 250 L 248 252 L 246 252 L 247 257 L 246 260 L 246 263 L 250 265 L 250 267 L 252 267 L 252 269 L 256 268 L 263 269 L 265 269 L 267 269 L 269 265 L 271 265 L 271 263 L 273 263 L 272 259 L 273 256 L 273 252 L 269 250 L 269 248 L 267 248 L 267 246 L 265 246 L 263 246 L 256 247 L 252 246 Z " /><path fill="rgb(44,223,56)" stroke="rgb(44,223,56)" stroke-width="0" opacity="1" d="M 258.5 250 L 265 252 L 267 258.5 L 263.5 263 L 257.5 264 L 253 260.5 L 254 252 L 258.5 250 Z " /><path fill="rgb(102,180,153)" stroke="rgb(102,180,153)" stroke-width="0" opacity="1" d="M 258.5 214 L 262 215.5 L 258.5 217 Q 255.5 215.5 258.5 214 Z " /><path fill="rgb(102,180,153)" stroke="rgb(102,180,153)" stroke-width="0" opacity="1" d="M 252 231 Q 255.6 233.3 264.5 232 L 267 231 L 266.5 234 L 252 234 L 252 231 Z " /><path fill="rgb(102,180,153)" stroke="rgb(102,180,153)" stroke-width="0" opacity="1" d="M 246 234 L 249.5 236 L 249.5 237 L 246 235.5 L 246 234 Z " /><path fill="rgb(102,180,153)" stroke="rgb(102,180,153)" stroke-width="0" opacity="1" d="M 271 234 Q 273.7 232.9 273 235.5 L 269.5 237 L 269.5 236 Q 272.1 236.7 271 234 Z " /><path fill="rgb(102,180,153)" stroke="rgb(102,180,153)" stroke-width="0" opacity="1" d="M 255.5 241 L 257 244 L 253 242.5 L 255.5 241 Z " /><path fill="rgb(102,180,153)" stroke="rgb(102,180,153)" stroke-width="0" opacity="1" d="M 263.5 241 L 266 242.5 L 262 244 L 263.5 241 Z " /><path fill="rgb(102,180,153)" stroke="rgb(102,180,153)" stroke-width="0" opacity="1" d="M 252 246 Q 256.1 244.7 255 248 Q 249.5 247.3 248 252.5 L 246.5 256 L 246 252 L 248 252 L 248 250 L 250 250 L 252 246 Z " /><path fill="rgb(102,180,153)" stroke="rgb(102,180,153)" stroke-width="0" opacity="1" d="M 264 246 L 267 246 L 267 248 L 269 248 L 269 250 L 273 252 L 273 256 Q 269.7 257.3 271 252.5 Q 269.5 247.3 264 248 L 264 246 Z " /><path fill="rgb(102,180,153)" stroke="rgb(102,180,153)" stroke-width="0" opacity="1" d="M 242.5 253 L 243 261.5 L 242 261.5 L 241 256.5 L 242.5 253 Z " /><path fill="rgb(102,180,153)" stroke="rgb(102,180,153)" stroke-width="0" opacity="1" d="M 275 254 Q 278.5 252.9 277 260.5 L 275 259.5 L 275 254 Z " /><path fill="rgb(102,180,153)" stroke="rgb(102,180,153)" stroke-width="0" opacity="1" d="M 246.5 259 L 252.5 267 Q 256.3 266 255 269 L 252 269 L 252 267 L 250 267 L 250 265 L 246 263 L 246.5 259 Z " /><path fill="rgb(102,180,153)" stroke="rgb(102,180,153)" stroke-width="0" opacity="1" d="M 271 259 Q 274.7 257.8 273 263 L 271 263 L 271 265 L 269 265 L 267 269 L 264 269 Q 262.8 266 266.5 267 Q 272 265.4 271 259 Z " /><path fill="rgb(102,180,153)" stroke="rgb(102,180,153)" stroke-width="0" opacity="1" d="M 255.5 271 Q 258.5 272.5 255.5 274 L 253 272.5 L 255.5 271 Z " /><path fill="rgb(102,180,153)" stroke="rgb(102,180,153)" stroke-width="0" opacity="1" d="M 263.5 271 L 266 272.5 L 263.5 274 Q 260.5 272.5 263.5 271 Z " /><path fill="rgb(255,102,6)" stroke="rgb(255,102,6)" stroke-width="0" opacity="1" d="M 233.5 142 L 242.5 142 L 243 144 L 235.5 144 L 234 145.5 L 234 150 L 240.5 150 L 245 154.5 L 245 157.5 L 240.5 163 Q 233.3 164.3 231 160.5 L 235.5 160 L 238.5 161 L 242 158.5 Q 244.5 151.6 239.5 153 L 234.5 152 L 233 152.5 L 232 145.5 L 233.5 142 Z " /><path fill="rgb(255,102,6)" stroke="rgb(255,102,6)" stroke-width="0" opacity="1" d="M 256.5 142 L 263 142 L 265 145.5 L 267 147.5 L 267 157.5 L 265 161 L 257.5 163 L 252 160 L 250 155.5 L 250 149.5 L 253.5 144 L 256.5 142 Z M 258 144 L 255 145 L 253 149 L 254 159 L 258 161 L 263 160 L 266 155 Q 267 149 264 147 Q 263 143 258 144 Z " /><path fill="rgb(255,102,6)" stroke="rgb(255,102,6)" stroke-width="0" opacity="1" d="M 274.5 148 L 277.5 149 L 285 148 Q 283.8 151 287.5 150 L 286 152.5 L 285.5 163 Q 282.5 160 284 152.5 L 281.5 149 L 277 150.5 Q 273.7 154.7 274.5 163 L 274.5 148 Z " /><path fill="rgb(255,102,6)" stroke="rgb(255,102,6)" stroke-width="0" opacity="1" d="M 289.5 148 L 296 148 L 296 151.5 L 297 152.5 L 297 161.5 L 295 162.5 Q 297.1 152.4 292.5 149 Q 288.5 149.8 289.5 148 Z " /><path fill="rgb(255,102,6)" stroke="rgb(255,102,6)" stroke-width="0" opacity="1" d="M 257 166 L 266.5 166 L 267 169 L 258.5 169 L 257 167.5 L 257 166 Z " /><path fill="rgb(255,102,6)" stroke="rgb(255,102,6)" stroke-width="0" opacity="1" d="M 248.5 167 Q 252.3 166 251 169 Q 245 167.8 242.5 171 L 242 168 L 248.5 167 Z " /><path fill="rgb(255,102,6)" stroke="rgb(255,102,6)" stroke-width="0" opacity="1" d="M 273 167 L 282 168 Q 283.5 171.7 280.5 171 L 273 169 L 273 167 Z " /><path fill="rgb(255,102,6)" stroke="rgb(255,102,6)" stroke-width="0" opacity="1" d="M 233.5 170 L 236 171.5 L 227 175 L 228.5 172 L 233.5 170 Z " /><path fill="rgb(255,102,6)" stroke="rgb(255,102,6)" stroke-width="0" opacity="1" d="M 288.5 170 L 297 174.5 L 294.5 175 L 287 171.5 L 288.5 170 Z " /><path fill="rgb(255,102,6)" stroke="rgb(255,102,6)" stroke-width="0" opacity="1" d="M 219.5 176 Q 222.1 175.3 221 178 L 213.5 182 L 213 180.5 L 219.5 176 Z " /><path fill="rgb(255,102,6)" stroke="rgb(255,102,6)" stroke-width="0" opacity="1" d="M 303.5 176 L 311 180 Q 312.1 182.7 309.5 182 L 303 179 L 303.5 176 Z " /><path fill="rgb(255,102,6)" stroke="rgb(255,102,6)" stroke-width="0" opacity="1" d="M 207.5 184 L 208 185.5 L 199 191 Q 197.9 188.3 200.5 189 L 207.5 184 Z " /><path fill="rgb(255,102,6)" stroke="rgb(255,102,6)" stroke-width="0" opacity="1" d="M 315.5 185 Q 321.9 185.7 324 190.5 L 322.5 192 L 315.5 185 Z " /><path fill="rgb(255,102,6)" stroke="rgb(255,102,6)" stroke-width="0" opacity="1" d="M 193 195 Q 197.1 193.7 196 197 Q 193.3 195.9 194 198.5 L 189 202 L 191 197 Q 194 198 193 195 Z " /><path fill="rgb(255,102,6)" stroke="rgb(255,102,6)" stroke-width="0" opacity="1" d="M 327.5 195 L 335 201.5 L 333.5 203 L 328 197.5 L 327.5 195 Z " /><path fill="rgb(255,102,6)" stroke="rgb(255,102,6)" stroke-width="0" opacity="1" d="M 184.5 207 L 186 208.5 L 182 216 Q 179 217.3 180 213.5 L 184.5 207 Z " /><path fill="rgb(255,102,6)" stroke="rgb(255,102,6)" stroke-width="0" opacity="1" d="M 337 207 Q 339.7 205.9 339 208.5 L 343 213.5 L 343 216 Q 340.3 217.1 341 214.5 L 337 207 Z " /><path fill="rgb(255,102,6)" stroke="rgb(255,102,6)" stroke-width="0" opacity="1" d="M 176 221 L 179 221.5 L 176 229 Q 173 230.3 174 226.5 L 176 221 Z " /><path fill="rgb(255,102,6)" stroke="rgb(255,102,6)" stroke-width="0" opacity="1" d="M 344 221 Q 348.1 219.3 347 223.5 L 349 229.5 L 346 227.5 L 344 221 Z " /><path fill="rgb(255,102,6)" stroke="rgb(255,102,6)" stroke-width="0" opacity="1" d="M 172.5 235 L 173 239.5 L 170.5 245 L 170 239.5 L 172.5 235 Z " /><path fill="rgb(255,102,6)" stroke="rgb(255,102,6)" stroke-width="0" opacity="1" d="M 350.5 236 Q 354 238 353 244.5 L 351 243.5 L 350.5 236 Z " /><path fill="rgb(255,102,6)" stroke="rgb(255,102,6)" stroke-width="0" opacity="1" d="M 169 250 L 171 250.5 L 171 261 L 168 261 L 168 252.5 L 169 250 Z " /><path fill="rgb(255,102,6)" stroke="rgb(255,102,6)" stroke-width="0" opacity="1" d="M 352 252 L 355 252 L 355 261 L 352 261 L 352 252 Z " /><path fill="rgb(255,102,6)" stroke="rgb(255,102,6)" stroke-width="0" opacity="1" d="M 169.5 265 Q 173 267 171 274.5 L 169 273.5 L 168 266.5 L 169.5 265 Z " /><path fill="rgb(255,102,6)" stroke="rgb(255,102,6)" stroke-width="0" opacity="1" d="M 352.5 267 L 354 270.5 L 352.5 277 Q 349.8 275.8 352 274.5 L 352.5 267 Z " /><path fill="rgb(255,102,6)" stroke="rgb(255,102,6)" stroke-width="0" opacity="1" d="M 171 281 Q 174 279.8 173 283.5 L 175 290 Q 172.3 291.1 173 288.5 L 171 281 Z " /><path fill="rgb(255,102,6)" stroke="rgb(255,102,6)" stroke-width="0" opacity="1" d="M 350.5 282 L 351 287.5 L 349 292 Q 346.3 293.1 347 290.5 L 350.5 282 Z " /><path fill="rgb(255,102,6)" stroke="rgb(255,102,6)" stroke-width="0" opacity="1" d="M 176 295 Q 179 293.8 178 297.5 L 182 303.5 L 179 304 L 176 295 Z " /><path fill="rgb(255,102,6)" stroke="rgb(255,102,6)" stroke-width="0" opacity="1" d="M 344 297 Q 346.7 295.9 346 298.5 L 343 306 Q 339.2 307.5 340 304.5 L 344 299.5 L 344 297 Z " /><path fill="rgb(255,102,6)" stroke="rgb(255,102,6)" stroke-width="0" opacity="1" d="M 183 309 L 186 310.5 L 190 315.5 L 190 318 Q 187.3 319.1 188 316.5 L 183 309 Z " /><path fill="rgb(255,102,6)" stroke="rgb(255,102,6)" stroke-width="0" opacity="1" d="M 336 311 L 339 311.5 L 333.5 319 L 332 317.5 L 336 311 Z " /><path fill="rgb(255,102,6)" stroke="rgb(255,102,6)" stroke-width="0" opacity="1" d="M 193.5 321 L 200 326 L 199.5 330 L 199 328 L 197 328 L 197 326 L 193 324 L 193.5 321 Z " /><path fill="rgb(255,102,6)" stroke="rgb(255,102,6)" stroke-width="0" opacity="1" d="M 326.5 323 L 328 324.5 L 321 330 L 326.5 323 Z " /><path fill="rgb(255,102,6)" stroke="rgb(255,102,6)" stroke-width="0" opacity="1" d="M 205 332 L 214 337.5 L 211.5 338 L 205 333.5 L 205 332 Z " /><path fill="rgb(255,102,6)" stroke="rgb(255,102,6)" stroke-width="0" opacity="1" d="M 315.5 333 L 316 334.5 L 308.5 339 L 310.5 336 L 315.5 333 Z " /><path fill="rgb(255,102,6)" stroke="rgb(255,102,6)" stroke-width="0" opacity="1" d="M 219.5 340 L 227 344.5 L 223.5 345 L 218 341.5 L 219.5 340 Z " /><path fill="rgb(255,102,6)" stroke="rgb(255,102,6)" stroke-width="0" opacity="1" d="M 298.5 342 L 304 342.5 L 294 346 Q 292.8 343 296.5 344 L 298.5 342 Z " /><path fill="rgb(255,102,6)" stroke="rgb(255,102,6)" stroke-width="0" opacity="1" d="M 233 346 Q 236 348.7 242 348 L 240.5 351 Q 238.3 348 233 349 L 233 346 Z " /><path fill="rgb(255,102,6)" stroke="rgb(255,102,6)" stroke-width="0" opacity="1" d="M 287.5 346 L 288 349 L 279 351 L 280.5 348 Q 286.3 349.2 287.5 346 Z " /><path fill="rgb(255,102,6)" stroke="rgb(255,102,6)" stroke-width="0" opacity="1" d="M 248.5 350 L 257 350 L 257 353 L 249.5 352 L 248.5 350 Z " /><path fill="rgb(255,102,6)" stroke="rgb(255,102,6)" stroke-width="0" opacity="1" d="M 264 350 L 272.5 350 L 273 352 L 264 353 L 264 350 Z " /><path fill="rgb(255,156,79)" stroke="rgb(255,156,79)" stroke-width="0" opacity="1" d="M 243 142 L 245 142.5 L 242.5 145 Q 236.5 143.5 235 146.5 Q 233.9 149.8 236.5 149 L 236.5 150 Q 231.9 151.3 234 145.5 L 235.5 144 L 243 144 L 243 142 Z " /><path fill="rgb(255,156,79)" stroke="rgb(255,156,79)" stroke-width="0" opacity="1" d="M 254.5 142 L 256 142.5 L 252 145.5 L 250.5 149 L 250 147.5 L 254.5 142 Z " /><path fill="rgb(255,156,79)" stroke="rgb(255,156,79)" stroke-width="0" opacity="1" d="M 263.5 142 L 267 146.5 L 265 145.5 Q 265.7 142.9 263 144 L 263.5 142 Z " /><path fill="rgb(255,156,79)" stroke="rgb(255,156,79)" stroke-width="0" opacity="1" d="M 257.5 144 Q 262.6 143.4 264 146.5 Q 266.7 148.8 266 154.5 L 262.5 160 L 257.5 161 L 254 158.5 L 253 148.5 L 255 147.5 L 254 148.5 L 254 156.5 L 255 159 L 260.5 160 Q 264.9 157.9 265 151.5 L 263 146 L 257.5 145 L 255.5 146 L 255.5 145 L 257.5 144 Z " /><path fill="rgb(255,156,79)" stroke="rgb(255,156,79)" stroke-width="0" opacity="1" d="M 281.5 146 L 284 147.5 L 279.5 148 L 279.5 147 L 281.5 146 Z " /><path fill="rgb(255,156,79)" stroke="rgb(255,156,79)" stroke-width="0" opacity="1" d="M 291.5 146 L 295 147.5 L 289 148.5 L 294 150.5 L 295 161.5 L 294 161.5 Q 295.7 152.8 291.5 150 L 289 150 Q 290 153 287 152 L 287 162.5 L 286 162.5 L 286 152.5 L 288 150.5 L 285 150 Q 283.7 146.7 288.5 148 L 291.5 146 Z " /><path fill="rgb(255,156,79)" stroke="rgb(255,156,79)" stroke-width="0" opacity="1" d="M 231.5 147 L 233.5 153 L 238.5 152 L 238.5 153 L 233.5 154 Q 229.8 152 231.5 147 Z " /><path fill="rgb(255,156,79)" stroke="rgb(255,156,79)" stroke-width="0" opacity="1" d="M 273 147 L 283 150.5 L 281.5 150 L 277.5 151 L 277.5 149 L 274.5 148 L 273.5 163 L 273 147 Z " /><path fill="rgb(255,156,79)" stroke="rgb(255,156,79)" stroke-width="0" opacity="1" d="M 267.5 148 L 269 153.5 L 267.5 157 L 267.5 148 Z " /><path fill="rgb(255,156,79)" stroke="rgb(255,156,79)" stroke-width="0" opacity="1" d="M 296.5 148 L 298 150.5 L 298 163 L 295.5 164 L 297 161.5 L 296.5 148 Z " /><path fill="rgb(255,156,79)" stroke="rgb(255,156,79)" stroke-width="0" opacity="1" d="M 241.5 150 L 246 153.5 Q 247.3 161.8 241.5 163 L 244 159.5 L 245 154.5 L 241.5 150 Z " /><path fill="rgb(255,156,79)" stroke="rgb(255,156,79)" stroke-width="0" opacity="1" d="M 276.5 152 L 277 161.5 L 275 162.5 Q 273.5 155 276.5 152 Z " /><path fill="rgb(255,156,79)" stroke="rgb(255,156,79)" stroke-width="0" opacity="1" d="M 283.5 152 L 285 163 L 283 162.5 L 283.5 152 Z " /><path fill="rgb(255,156,79)" stroke="rgb(255,156,79)" stroke-width="0" opacity="1" d="M 230 158 L 235 159.5 L 230.5 161 L 230 158 Z " /><path fill="rgb(255,156,79)" stroke="rgb(255,156,79)" stroke-width="0" opacity="1" d="M 241.5 158 L 240.5 160 L 236.5 161 L 236.5 160 L 241.5 158 Z " /><path fill="rgb(255,156,79)" stroke="rgb(255,156,79)" stroke-width="0" opacity="1" d="M 266.5 158 L 266 159.5 L 264.5 162 L 261.5 163 L 261.5 162 L 265 161 L 266.5 158 Z " /><path fill="rgb(255,156,79)" stroke="rgb(255,156,79)" stroke-width="0" opacity="1" d="M 252.5 160 L 257 162.5 L 255.5 163 L 252.5 160 Z " /><path fill="rgb(255,156,79)" stroke="rgb(255,156,79)" stroke-width="0" opacity="1" d="M 250.5 165 L 252 168.5 L 250.5 170 L 243.5 171 L 243.5 170 L 251 169 Q 252.3 166 248.5 167 L 242 168 Q 243.3 172.1 240 171 Q 237.7 164.2 246.5 167 L 250.5 165 Z " /><path fill="rgb(255,156,79)" stroke="rgb(255,156,79)" stroke-width="0" opacity="1" d="M 257.5 165 L 266.5 165 L 268 166.5 L 267.5 168 L 267 166 L 257.5 166 L 257 167.5 L 257.5 169 Q 254.9 169.8 256 166.5 L 257.5 165 Z " /><path fill="rgb(255,156,79)" stroke="rgb(255,156,79)" stroke-width="0" opacity="1" d="M 272.5 166 L 283 167 L 282.5 171 L 282 168 L 273 167 Q 271.7 170.3 276.5 169 L 280 170.5 L 275.5 171 L 271 169 L 272.5 166 Z " /><path fill="rgb(255,156,79)" stroke="rgb(255,156,79)" stroke-width="0" opacity="1" d="M 233.5 169 Q 236.8 167.9 236 170.5 L 234.5 170 L 227 173.5 L 228 175.5 L 226 176 L 227.5 171 L 233.5 169 Z " /><path fill="rgb(255,156,79)" stroke="rgb(255,156,79)" stroke-width="0" opacity="1" d="M 287 169 L 299 173 Q 300.1 175.7 297.5 175 L 295.5 176 L 295.5 175 L 297 174.5 L 288.5 170 L 287 170.5 L 287 169 Z " /><path fill="rgb(255,156,79)" stroke="rgb(255,156,79)" stroke-width="0" opacity="1" d="M 231.5 173 L 233 173.5 L 229.5 175 L 229.5 174 L 231.5 173 Z " /><path fill="rgb(255,156,79)" stroke="rgb(255,156,79)" stroke-width="0" opacity="1" d="M 290.5 173 L 294 174.5 L 291.5 175 L 290.5 173 Z " /><path fill="rgb(255,156,79)" stroke="rgb(255,156,79)" stroke-width="0" opacity="1" d="M 218.5 175 Q 224.2 173.4 222 179 L 212 183 L 211 180.5 L 218.5 175 Z M 220 176 L 213 181 L 214 182 L 221 178 Q 222 175 220 176 Z " /><path fill="rgb(255,156,79)" stroke="rgb(255,156,79)" stroke-width="0" opacity="1" d="M 302 175 L 305 175 Q 303.8 178 307.5 177 L 312 179 Q 314.2 184.6 308.5 183 L 304 179.5 L 305.5 180 L 311 182 Q 312.1 179.3 309.5 180 L 303.5 176 L 303 179 Q 300.3 180.1 301 177.5 L 302 175 Z " /><path fill="rgb(255,156,79)" stroke="rgb(255,156,79)" stroke-width="0" opacity="1" d="M 206.5 183 L 209 184.5 Q 210.1 187.8 207.5 187 L 199.5 192 L 198 189.5 L 199 189.5 L 200.5 191 L 208 185.5 L 207.5 184 L 200.5 189 L 203.5 185 L 206.5 183 Z " /><path fill="rgb(255,156,79)" stroke="rgb(255,156,79)" stroke-width="0" opacity="1" d="M 316.5 183 L 319.5 185 L 319.5 186 L 315.5 185 L 317.5 188 L 324 192.5 L 322.5 193 L 314 187 L 316.5 183 Z " /><path fill="rgb(255,156,79)" stroke="rgb(255,156,79)" stroke-width="0" opacity="1" d="M 195.5 193 L 197 196.5 L 191 204 L 187 201.5 L 191 198.5 L 189 202 L 194 198.5 L 196 195 L 193 194.5 L 195.5 193 Z " /><path fill="rgb(255,156,79)" stroke="rgb(255,156,79)" stroke-width="0" opacity="1" d="M 328.5 194 L 330 195.5 L 336 203 Q 333.3 201.9 334 204.5 L 330 201.5 L 326 195.5 L 328 196.5 L 333.5 203 L 335 201.5 L 328.5 194 Z " /><path fill="rgb(255,156,79)" stroke="rgb(255,156,79)" stroke-width="0" opacity="1" d="M 183 206 Q 189 204 187 210 Q 184 208.8 185 212.5 L 181.5 217 L 182 215.5 L 186 207 L 183.5 208 L 183 206 Z " /><path fill="rgb(255,156,79)" stroke="rgb(255,156,79)" stroke-width="0" opacity="1" d="M 337.5 206 L 340 207.5 Q 339.3 210.1 342 209 L 342 211.5 L 344 215.5 L 341.5 217 L 338 211.5 L 340 212.5 L 341 216 Q 344 217.3 343 213.5 L 339 207 Q 336.3 205.9 337 208.5 L 337.5 210 Q 334.9 210.8 336 207.5 L 337.5 206 Z " /><path fill="rgb(255,156,79)" stroke="rgb(255,156,79)" stroke-width="0" opacity="1" d="M 180.5 212 L 180 213.5 L 179.5 216 L 179 213.5 L 180.5 212 Z " /><path fill="rgb(255,156,79)" stroke="rgb(255,156,79)" stroke-width="0" opacity="1" d="M 175 220 L 179 220.5 L 176 221 L 174 229 Q 177 230.3 176 226.5 L 178.5 222 L 179 224.5 Q 176 225.8 177 230 Q 171 232.3 173 225.5 Q 176 224.3 175 220 Z " /><path fill="rgb(255,156,79)" stroke="rgb(255,156,79)" stroke-width="0" opacity="1" d="M 344.5 220 L 348 221.5 L 350 230.5 Q 348 234 346 229.5 L 346.5 228 L 349 229.5 L 347 221 Q 343.7 221.8 344.5 220 Z " /><path fill="rgb(255,156,79)" stroke="rgb(255,156,79)" stroke-width="0" opacity="1" d="M 171 234 Q 175.5 232.3 174 237.5 L 173 237.5 L 172.5 235 Q 169.1 237.6 170 244.5 L 171 244.5 L 172.5 240 L 173 244.5 L 169 246 Q 167.9 237.8 171 234 Z " /><path fill="rgb(255,156,79)" stroke="rgb(255,156,79)" stroke-width="0" opacity="1" d="M 350.5 235 L 353 236.5 L 354 246 L 350 244.5 L 350.5 242 L 352.5 245 L 353 239.5 L 350.5 236 L 349.5 238 L 349 236.5 L 350.5 235 Z " /><path fill="rgb(255,156,79)" stroke="rgb(255,156,79)" stroke-width="0" opacity="1" d="M 169.5 249 L 169 250.5 L 167.5 261 L 167 250 L 169.5 249 Z " /><path fill="rgb(255,156,79)" stroke="rgb(255,156,79)" stroke-width="0" opacity="1" d="M 352 250 Q 355.8 248.5 355 251.5 L 356 252.5 L 356 260.5 L 352.5 262 L 352.5 261 L 355 260.5 L 355 252 Q 350.9 253.3 352 250 Z " /><path fill="rgb(255,156,79)" stroke="rgb(255,156,79)" stroke-width="0" opacity="1" d="M 168.5 264 Q 171.8 262.9 171 265.5 L 168 266.5 L 169 273.5 L 170.5 275 L 171.5 270 L 173 275 L 169 276 L 167 265.5 L 168.5 264 Z " /><path fill="rgb(255,156,79)" stroke="rgb(255,156,79)" stroke-width="0" opacity="1" d="M 352.5 266 L 355 266 L 355 272.5 L 352.5 278 L 350 277 L 351.5 268 L 352 274.5 Q 349.8 275.8 352.5 277 L 354 268.5 L 352.5 266 Z " /><path fill="rgb(255,156,79)" stroke="rgb(255,156,79)" stroke-width="0" opacity="1" d="M 171.5 279 L 173 280.5 L 175 286.5 L 174 286.5 L 173 281 Q 170.3 279.9 171 282.5 L 173 290 Q 175.7 291.1 175 288.5 L 176 288.5 Q 177.3 292.3 173.5 291 L 171 288.5 L 170 280.5 L 171.5 279 Z " /><path fill="rgb(255,156,79)" stroke="rgb(255,156,79)" stroke-width="0" opacity="1" d="M 350.5 281 Q 353.5 280.5 352 287.5 L 350 293 Q 344.4 295.2 346 289.5 L 348 288.5 L 347 292 Q 350 293.3 349 289.5 Q 352.3 288.3 351 282.5 L 350 282.5 L 348.5 285 L 348 283.5 L 350.5 281 Z " /><path fill="rgb(255,156,79)" stroke="rgb(255,156,79)" stroke-width="0" opacity="1" d="M 177.5 294 L 183 303.5 L 179 306 L 175 298.5 L 175 295.5 L 176 295.5 L 179 304 L 182 303.5 L 177.5 294 Z " /><path fill="rgb(255,156,79)" stroke="rgb(255,156,79)" stroke-width="0" opacity="1" d="M 344.5 296 L 348 297 L 342.5 307 L 340 306.5 L 343 306 L 346 297 L 344.5 296 Z " /><path fill="rgb(255,156,79)" stroke="rgb(255,156,79)" stroke-width="0" opacity="1" d="M 183.5 308 L 187 309.5 L 187 312 Q 189.7 310.9 189 313.5 L 191 317.5 L 190 317.5 L 190 315.5 L 184.5 309 L 183.5 308 Z " /><path fill="rgb(255,156,79)" stroke="rgb(255,156,79)" stroke-width="0" opacity="1" d="M 336.5 310 L 340 311.5 L 338 314.5 L 335.5 318 L 335 316.5 L 339 311.5 L 336.5 310 Z " /><path fill="rgb(255,156,79)" stroke="rgb(255,156,79)" stroke-width="0" opacity="1" d="M 334 312 L 336 312.5 L 332 319 L 334 319.5 L 331 320 L 330 317.5 L 334 312 Z " /><path fill="rgb(255,156,79)" stroke="rgb(255,156,79)" stroke-width="0" opacity="1" d="M 185.5 314 L 188 317.5 L 187 317.5 Q 187.7 314.9 185 316 L 185.5 314 Z " /><path fill="rgb(255,156,79)" stroke="rgb(255,156,79)" stroke-width="0" opacity="1" d="M 193.5 320 L 202 327.5 L 200.5 330 L 200 326 L 193.5 320 Z " /><path fill="rgb(255,156,79)" stroke="rgb(255,156,79)" stroke-width="0" opacity="1" d="M 192.5 322 L 193 324 L 195 324 L 197 327.5 L 192 323.5 L 192.5 322 Z " /><path fill="rgb(255,156,79)" stroke="rgb(255,156,79)" stroke-width="0" opacity="1" d="M 326.5 322 Q 330.9 320.5 330 323.5 L 326.5 328 L 321.5 332 L 320 328.5 L 326.5 322 Z M 327 323 L 321 330 L 328 325 L 327 323 Z " /><path fill="rgb(255,156,79)" stroke="rgb(255,156,79)" stroke-width="0" opacity="1" d="M 205.5 330 L 209 332 L 208.5 334 L 205 332 L 206.5 335 L 214 338 Q 215.1 341.3 211 340 L 211 338 L 208 338 L 208 336 Q 204.3 337.5 205 334.5 L 204 331.5 L 205.5 330 Z " /><path fill="rgb(255,156,79)" stroke="rgb(255,156,79)" stroke-width="0" opacity="1" d="M 314.5 332 L 318 333.5 Q 319.3 337.3 315.5 336 L 312 338 Q 313.2 342 307 340 L 308 336 L 310 336.5 L 308.5 339 L 316 334.5 L 315.5 333 L 311.5 336 L 311 334 L 314.5 332 Z " /><path fill="rgb(255,156,79)" stroke="rgb(255,156,79)" stroke-width="0" opacity="1" d="M 217 340 L 219 340.5 Q 216.8 341.8 219.5 343 L 226.5 345 L 225.5 343 L 224 342.5 L 225.5 342 L 228 343 Q 229.8 348.3 222.5 346 L 218 344 L 217 340 Z " /><path fill="rgb(255,156,79)" stroke="rgb(255,156,79)" stroke-width="0" opacity="1" d="M 301.5 340 Q 304.8 338.9 304 341.5 Q 306.3 342.8 303.5 344 L 294.5 348 L 293 344.5 L 294 344.5 Q 293.2 347.1 296.5 346 L 304 342.5 L 300 341.5 L 301.5 340 Z " /><path fill="rgb(255,156,79)" stroke="rgb(255,156,79)" stroke-width="0" opacity="1" d="M 232 345 L 234 345.5 L 233 349 Q 238.3 348 240.5 351 L 242.5 348 L 243 350.5 L 240.5 352 L 232 348.5 L 232 345 Z " /><path fill="rgb(255,156,79)" stroke="rgb(255,156,79)" stroke-width="0" opacity="1" d="M 235.5 346 L 240 347.5 L 237.5 348 L 235.5 346 Z " /><path fill="rgb(255,156,79)" stroke="rgb(255,156,79)" stroke-width="0" opacity="1" d="M 285.5 346 L 287 346.5 L 283.5 348 L 283.5 347 L 285.5 346 Z " /><path fill="rgb(255,156,79)" stroke="rgb(255,156,79)" stroke-width="0" opacity="1" d="M 288.5 346 L 290 348.5 L 279.5 352 L 278 348 L 280 348.5 L 279 351 L 288 349 L 288.5 346 Z " /><path fill="rgb(255,156,79)" stroke="rgb(255,156,79)" stroke-width="0" opacity="1" d="M 248.5 349 L 252 349.5 L 248 350.5 L 249.5 352 L 257 353 Q 255.7 348.9 259 350 L 256.5 354 L 248.5 353 L 247 351.5 L 248.5 349 Z " /><path fill="rgb(255,156,79)" stroke="rgb(255,156,79)" stroke-width="0" opacity="1" d="M 271.5 349 L 274 350.5 L 272.5 353 L 263.5 354 L 262 350 Q 265.3 348.9 264 353 L 268.5 353 L 273 352 Q 274.1 349.3 271.5 350 L 271.5 349 Z " /><path fill="rgb(254,229,208)" stroke="rgb(254,229,208)" stroke-width="0" opacity="1" d="M 233.5 139 Q 242.9 137.1 246 141.5 Q 248.1 147.3 243.5 146 Q 240 148 244.5 150 L 246 151.5 L 248 150.5 L 248 147.5 L 252.5 141 Q 255.2 138.2 261.5 139 L 268 143.5 L 270.5 148 L 273.5 145 L 284.5 145 L 287.5 146 Q 289.3 143.3 295.5 145 Q 302.5 148.5 300 161.5 L 297.5 165 Q 292.8 165.8 292 162.5 Q 294 155 290.5 153 Q 287 155 289 162.5 L 286.5 165 Q 281.5 165.5 281 161.5 L 281 153.5 L 279 153 L 278 165 L 285 167 Q 283.9 169.7 286.5 169 L 291.5 168 L 300 172.5 Q 299.4 175.3 305.5 174 L 314 179.5 Q 312.6 184.1 318.5 182 L 326 188.5 L 327 192 L 329.5 192 L 336 198.5 L 337 204 L 342 206.5 L 346 212.5 L 346 217.5 L 352 225.5 L 352 232.5 Q 357.3 236.2 356 246.5 L 355 248.5 L 357 250.5 L 358 259.5 L 356 265.5 Q 358.8 267.3 357 273.5 L 354 279.5 L 354 287.5 L 349.5 295 L 348 296.5 L 349 299.5 L 344 309 Q 339.1 307.2 341 313.5 L 336 321 L 331 323.5 L 330 328 L 319 334.5 L 317.5 338 L 311.5 342 L 307.5 342 L 300.5 348 L 291.5 349 L 288.5 352 L 279.5 354 L 275.5 353 L 273.5 355 L 264.5 356 L 259.5 354 L 258.5 355 L 248.5 355 L 243.5 352 L 237.5 353 Q 231.3 352.3 228.5 348 L 222.5 348 L 215 342.5 Q 215.9 339.1 210.5 341 L 202 334.5 Q 203.3 330.3 198.5 332 L 195 330 L 193 326.5 L 188.5 320 L 185 319 L 179.5 307 L 177 305.5 L 173 298.5 L 173 295.5 L 174 293 L 171 291.5 L 168 280.5 L 169 277 Q 166 278.3 167 274.5 L 165 266.5 L 166 260.5 Q 163.2 258.7 165 252.5 L 168 246.5 Q 165.3 244.8 167 238.5 L 171 232.5 L 171 225.5 L 175.5 218 Q 178.9 218.9 177 213.5 L 183.5 204 Q 188.1 205.3 186 199.5 L 197 190.5 L 197 188.5 L 202.5 183 L 210 181 L 211.5 177 L 218.5 173 L 221.5 173 Q 222.8 175.3 224 172.5 L 225.5 170 L 234.5 167 L 238.5 168 L 239.5 166 Q 232 166 229 161.5 Q 227.1 156.1 230.5 157 L 232.5 157 L 237.5 158 L 239 155 L 230 154 L 229 145.5 L 231.5 140 L 233.5 139 Z M 259 141 L 255 142 L 251 146 L 249 153 L 252 161 L 256 163 L 265 162 L 269 154 L 267 146 Q 265 141 259 141 Z M 232 142 L 231 148 Q 230 153 234 154 L 240 153 L 242 158 L 239 160 L 233 158 Q 228 157 230 161 Q 233 164 242 163 Q 247 162 246 154 Q 244 149 239 149 L 237 149 Q 234 150 235 147 Q 237 143 243 145 L 245 143 L 232 142 Z M 282 146 L 279 148 L 273 147 L 273 163 L 276 163 L 277 162 L 277 151 L 282 150 L 283 152 L 283 163 L 287 163 L 287 152 Q 290 153 289 150 L 292 150 L 294 154 Q 292 161 296 164 L 298 163 L 298 151 L 297 148 L 293 146 L 289 148 Q 283 149 282 146 Z M 271 157 L 267 164 L 271 165 L 271 157 Z M 249 158 L 246 162 L 244 165 L 252 164 L 249 158 Z M 251 165 L 247 167 Q 238 164 240 171 Q 248 172 252 169 L 251 165 Z M 258 165 L 256 167 L 257 169 L 267 169 L 268 167 L 267 165 L 258 165 Z M 273 166 L 271 169 L 276 171 L 283 171 L 283 167 L 273 166 Z M 234 169 L 228 171 L 226 176 L 236 173 Q 238 168 234 169 Z M 287 169 L 287 173 L 296 176 L 298 175 Q 300 176 299 173 L 287 169 Z M 254 170 L 248 173 Q 241 175 240 172 L 237 175 L 229 178 L 226 177 L 224 179 L 215 185 L 212 184 L 209 189 Q 206 188 207 191 L 199 194 L 197 200 L 191 205 L 189 210 L 181 220 L 181 225 L 179 230 L 175 234 L 176 235 Q 176 243 173 248 L 173 250 L 173 261 L 172 262 L 174 268 L 174 276 L 173 277 Q 177 280 178 288 L 177 292 L 184 302 Q 182 307 186 306 L 193 316 L 193 318 L 198 320 L 203 326 L 203 328 L 214 334 L 215 336 L 218 338 L 227 340 L 231 344 L 234 343 L 242 345 L 245 348 L 248 347 Q 256 346 260 349 L 267 347 Q 273 345 275 348 L 286 344 L 290 345 L 300 339 Q 306 340 305 338 L 315 330 Q 319 332 318 328 L 326 320 L 329 320 L 329 317 L 334 310 L 338 308 L 338 303 L 345 294 L 344 292 Q 345 284 349 280 L 348 277 L 349 268 L 351 265 L 349 255 L 351 249 L 348 245 L 347 234 L 342 225 Q 343 218 341 219 L 334 210 L 334 206 L 330 205 L 325 197 L 317 191 L 313 187 L 302 181 L 300 178 Q 289 178 285 172 L 283 173 Q 274 174 271 170 L 268 171 L 254 170 Z M 219 175 L 211 181 L 212 183 L 222 179 Q 224 173 219 175 Z M 302 175 L 301 179 L 304 179 L 309 183 Q 314 185 312 179 L 308 177 Q 304 178 305 175 L 302 175 Z M 207 183 L 198 189 L 200 192 L 208 187 Q 210 188 209 185 L 207 183 Z M 317 183 L 314 187 L 324 193 Q 325 188 322 187 L 317 183 Z M 196 193 L 195 194 L 191 196 L 187 202 L 191 204 L 197 197 L 196 193 Z M 329 194 L 326 195 L 330 202 L 334 205 Q 333 202 336 203 L 330 196 L 329 194 Z M 183 206 Q 184 210 181 209 L 179 216 L 182 217 L 185 213 Q 184 209 187 210 Q 189 204 183 206 Z M 338 206 L 336 208 Q 335 211 338 210 L 338 213 L 342 217 L 344 216 L 342 212 L 342 209 Q 339 210 340 208 L 338 206 Z M 175 220 Q 176 224 173 226 Q 171 232 177 230 Q 176 226 179 225 Q 181 218 175 220 Z M 344 220 L 346 230 Q 348 234 350 231 L 348 222 L 344 220 Z M 171 234 L 169 239 L 169 246 L 172 246 L 173 245 L 174 238 Q 176 232 171 234 Z M 351 235 L 349 237 L 350 245 L 354 246 L 353 237 L 351 235 Z M 170 249 L 167 250 L 167 261 L 171 261 L 171 251 L 170 249 Z M 352 250 L 352 262 L 356 261 L 356 253 L 355 252 Q 356 249 352 250 Z M 169 264 L 167 266 L 169 276 L 173 275 L 171 270 Q 173 263 169 264 Z M 352 266 L 350 277 L 353 278 L 355 273 L 355 266 L 352 266 Z M 172 279 L 170 281 L 171 289 Q 172 292 176 291 L 175 284 L 173 281 L 172 279 Z M 351 281 L 346 290 Q 344 295 350 293 L 352 288 Q 353 280 351 281 Z M 178 294 L 175 295 L 175 299 L 179 306 L 183 304 L 178 294 Z M 344 296 L 340 304 Q 338 308 343 307 L 348 297 L 344 296 Z M 183 308 L 183 313 Q 186 312 185 316 Q 188 315 187 318 L 191 318 L 189 314 Q 190 311 187 312 L 187 310 L 183 308 Z M 336 310 Q 337 313 334 312 L 330 318 L 331 320 L 334 320 Q 333 317 336 318 L 338 315 L 340 312 L 336 310 Z M 193 320 L 192 323 L 197 328 Q 199 327 198 330 L 201 330 L 202 328 L 193 320 Z M 327 322 L 320 329 L 322 332 L 327 328 L 330 324 Q 331 321 327 322 Z M 206 330 L 204 332 L 205 335 Q 204 338 208 336 L 208 338 L 211 338 L 211 340 L 214 340 L 214 336 Q 211 337 212 334 L 209 334 L 209 332 L 206 330 Z M 315 332 L 313 334 Q 310 333 311 336 L 308 336 L 307 340 Q 313 342 312 338 L 316 336 Q 319 337 318 334 L 315 332 Z M 217 340 L 218 344 L 223 346 Q 230 348 228 343 L 222 340 L 217 340 Z M 302 340 L 293 344 L 295 348 L 304 344 Q 306 343 304 342 Q 305 339 302 340 Z M 232 345 L 232 349 L 242 352 L 243 348 L 232 345 Z M 286 346 Q 283 349 278 348 L 280 352 L 289 350 Q 291 349 289 348 Q 290 345 286 346 Z M 249 349 L 247 352 L 249 353 L 257 354 L 259 350 L 249 349 Z M 272 349 L 262 350 L 264 354 L 273 353 L 274 351 L 272 349 Z " /><path fill="rgb(254,229,208)" stroke="rgb(254,229,208)" stroke-width="0" opacity="1" d="M 257.5 145 L 263 146 L 265 153.5 L 260.5 160 L 255 159 Q 253 156 254 148.5 L 255 146 L 257.5 145 Z M 259 147 L 256 148 Q 254 156 259 158 L 261 157 Q 264 156 262 150 L 259 147 Z " /></svg>