<svg width="2048" height="2048" viewBox="0 0 760 760" version="1.1" xmlns="http://www.w3.org/2000/svg"  style="background:transparent"><path fill="rgb(0,90,255)" stroke="rgb(0,90,255)" stroke-width="0" opacity="1" d="M 350.5 0 Q 356.6 -1.3 356 1.5 L 357 4.5 L 355.5 6 L 345.5 6 L 344 3.5 L 350.5 0 Z " /><path fill="rgb(0,90,255)" stroke="rgb(0,90,255)" stroke-width="0" opacity="1" d="M 361 0 L 372.5 0 L 373 3.5 L 371.5 5 L 361.5 5 L 360 2.5 L 361 0 Z " /><path fill="rgb(0,90,255)" stroke="rgb(0,90,255)" stroke-width="0" opacity="1" d="M 376 0 L 388.5 0 L 389 3.5 L 387.5 5 L 377.5 5 L 376 0 Z " /><path fill="rgb(0,90,255)" stroke="rgb(0,90,255)" stroke-width="0" opacity="1" d="M 393 0 L 403.5 0 L 404 1.5 L 405 4.5 Q 403.8 7.3 402.5 5 L 393.5 5 L 392 3.5 L 393 0 Z " /><path fill="rgb(0,90,255)" stroke="rgb(0,90,255)" stroke-width="0" opacity="1" d="M 410.5 1 L 419.5 2 L 421 3.5 L 419.5 7 L 409.5 6 L 408 4.5 L 410.5 1 Z " /><path fill="rgb(0,90,255)" stroke="rgb(0,90,255)" stroke-width="0" opacity="1" d="M 337.5 2 L 341 3.5 L 339.5 7 L 329 8 L 328 5.5 L 331.5 3 L 337.5 2 Z " /><path fill="rgb(0,90,255)" stroke="rgb(0,90,255)" stroke-width="0" opacity="1" d="M 425.5 3 L 435.5 4 L 437 5.5 L 435.5 9 L 425 8 L 424 4.5 L 425.5 3 Z " /><path fill="rgb(0,90,255)" stroke="rgb(0,90,255)" stroke-width="0" opacity="1" d="M 322.5 4 L 325 5.5 Q 326.8 10.8 321.5 9 L 314.5 11 L 312 7.5 L 322.5 4 Z " /><path fill="rgb(0,90,255)" stroke="rgb(0,90,255)" stroke-width="0" opacity="1" d="M 441.5 5 L 450.5 6 L 453 8.5 L 451.5 11 Q 443.6 11.9 440 8.5 L 441.5 5 Z " /><path fill="rgb(0,90,255)" stroke="rgb(0,90,255)" stroke-width="0" opacity="1" d="M 306.5 7 L 309 8.5 Q 310.7 13.3 306.5 12 L 299.5 14 L 297 13 L 298.5 9 L 306.5 7 Z " /><path fill="rgb(0,90,255)" stroke="rgb(0,90,255)" stroke-width="0" opacity="1" d="M 457.5 8 L 467.5 10 L 469 11.5 L 466.5 15 L 456 11.5 L 457.5 8 Z " /><path fill="rgb(0,90,255)" stroke="rgb(0,90,255)" stroke-width="0" opacity="1" d="M 346.5 10 Q 356 8 358 13.5 Q 359.3 21.8 354.5 24 L 350 27.5 L 358 29 L 359 31.5 L 357.5 33 L 343.5 33 L 342 29.5 L 353 19.5 Q 354 15 351.5 14 L 348.5 14 L 344.5 17 L 343 13.5 L 346.5 10 Z " /><path fill="rgb(0,90,255)" stroke="rgb(0,90,255)" stroke-width="0" opacity="1" d="M 367.5 10 Q 378 8 380 14.5 L 382 22.5 Q 381.1 29.1 376.5 32 L 368.5 33 L 364 29.5 Q 360 26 362 16.5 L 367.5 10 Z M 370 14 L 367 17 L 366 22 L 368 28 L 371 29 L 375 28 L 377 24 L 376 17 Q 375 13 370 14 Z " /><path fill="rgb(0,90,255)" stroke="rgb(0,90,255)" stroke-width="0" opacity="1" d="M 391.5 10 Q 400.5 8.5 403 13.5 Q 405.9 17.1 405 24.5 L 399.5 32 L 391.5 33 L 387 29.5 Q 383.7 25.8 385 17.5 L 389.5 11 L 391.5 10 Z M 394 14 L 391 15 L 389 22 Q 389 27 394 29 L 398 28 Q 401 25 400 18 Q 399 13 394 14 Z " /><path fill="rgb(0,90,255)" stroke="rgb(0,90,255)" stroke-width="0" opacity="1" d="M 289.5 11 L 294 12.5 Q 295.3 16.3 291.5 15 Q 288.3 18 282 17 Q 280.1 12.2 283.5 13 L 289.5 11 Z " /><path fill="rgb(0,90,255)" stroke="rgb(0,90,255)" stroke-width="0" opacity="1" d="M 472 12 Q 479.7 11.2 484 15.5 L 481.5 19 L 472 15.5 L 472 12 Z " /><path fill="rgb(0,90,255)" stroke="rgb(0,90,255)" stroke-width="0" opacity="1" d="M 274.5 15 Q 278.9 13.5 278 16.5 Q 280.3 17.8 277.5 19 L 267.5 22 L 266 18.5 L 274.5 15 Z " /><path fill="rgb(0,90,255)" stroke="rgb(0,90,255)" stroke-width="0" opacity="1" d="M 410.5 15 L 413.5 17 L 419.5 15 L 423.5 17 L 430.5 15 L 434 17.5 L 435 19.5 L 435 31.5 L 432.5 33 L 430 30.5 L 430 20 L 425 20 L 425 21.5 L 424 22.5 L 424 31.5 L 422.5 33 L 420 31.5 L 419 28.5 L 420 23.5 L 416.5 19 L 414 20 Q 411.9 23.3 413 31.5 L 411.5 33 L 409 31.5 L 408 29.5 L 408 17.5 L 410.5 15 Z " /><path fill="rgb(0,90,255)" stroke="rgb(0,90,255)" stroke-width="0" opacity="1" d="M 488.5 16 L 499 19.5 L 497.5 23 L 487 19.5 L 488.5 16 Z " /><path fill="rgb(0,90,255)" stroke="rgb(0,90,255)" stroke-width="0" opacity="1" d="M 261.5 19 L 263 24 L 252.5 27 L 251 23.5 L 261.5 19 Z " /><path fill="rgb(0,90,255)" stroke="rgb(0,90,255)" stroke-width="0" opacity="1" d="M 503.5 21 Q 511 21.5 515 25.5 L 514 28 Q 506.3 28.7 502 25 L 503.5 21 Z " /><path fill="rgb(0,90,255)" stroke="rgb(0,90,255)" stroke-width="0" opacity="1" d="M 244.5 25 L 248 26.5 Q 249.1 29.8 246.5 29 L 237.5 33 L 236 29.5 L 244.5 25 Z " /><path fill="rgb(0,90,255)" stroke="rgb(0,90,255)" stroke-width="0" opacity="1" d="M 519.5 26 L 529 30 L 527.5 35 L 517 29.5 Q 515.9 26.2 518.5 27 L 519.5 26 Z " /><path fill="rgb(0,90,255)" stroke="rgb(0,90,255)" stroke-width="0" opacity="1" d="M 229.5 31 L 233 32.5 L 231.5 36 L 222 39 L 221 35.5 L 229.5 31 Z " /><path fill="rgb(0,90,255)" stroke="rgb(0,90,255)" stroke-width="0" opacity="1" d="M 533.5 32 L 544 37.5 L 543 41 L 532 37 L 533.5 32 Z " /><path fill="rgb(0,90,255)" stroke="rgb(0,90,255)" stroke-width="0" opacity="1" d="M 214.5 38 L 219 39.5 L 216.5 43 L 208.5 46 L 207 42.5 L 214.5 38 Z " /><path fill="rgb(0,90,255)" stroke="rgb(0,90,255)" stroke-width="0" opacity="1" d="M 547.5 40 L 550.5 40 L 558 44.5 L 556.5 48 L 546 42.5 L 547.5 40 Z " /><path fill="rgb(0,90,255)" stroke="rgb(0,90,255)" stroke-width="0" opacity="1" d="M 200.5 45 L 205 46.5 L 202.5 50 L 193 53 Q 191.1 48.2 194.5 49 L 200.5 45 Z " /><path fill="rgb(0,90,255)" stroke="rgb(0,90,255)" stroke-width="0" opacity="1" d="M 561.5 47 Q 568.6 47.9 572 52.5 Q 573.1 55.8 570.5 55 L 568.5 55 L 560 49.5 L 561.5 47 Z " /><path fill="rgb(0,90,255)" stroke="rgb(0,90,255)" stroke-width="0" opacity="1" d="M 186.5 53 L 191 54.5 L 188.5 58 L 181.5 62 L 179 61 Q 178.3 57.2 181.5 56 L 186.5 53 Z " /><path fill="rgb(0,90,255)" stroke="rgb(0,90,255)" stroke-width="0" opacity="1" d="M 575.5 55 L 586 60 L 584.5 64 Q 577.1 62.9 574 57.5 L 575.5 55 Z " /><path fill="rgb(0,90,255)" stroke="rgb(0,90,255)" stroke-width="0" opacity="1" d="M 174.5 61 L 177 62.5 L 175.5 66 L 167.5 71 L 165 67.5 L 174.5 61 Z " /><path fill="rgb(0,90,255)" stroke="rgb(0,90,255)" stroke-width="0" opacity="1" d="M 589.5 63 L 599 69.5 L 597.5 73 L 588 68 L 589.5 63 Z " /><path fill="rgb(0,90,255)" stroke="rgb(0,90,255)" stroke-width="0" opacity="1" d="M 160.5 70 Q 163.8 68.9 163 71.5 L 164 73.5 L 155.5 80 L 152 77.5 L 160.5 70 Z " /><path fill="rgb(0,90,255)" stroke="rgb(0,90,255)" stroke-width="0" opacity="1" d="M 603.5 72 L 612 78 Q 612.8 81.8 609.5 83 L 601 77 Q 600.3 73.2 603.5 72 Z " /><path fill="rgb(0,90,255)" stroke="rgb(0,90,255)" stroke-width="0" opacity="1" d="M 147.5 80 L 151 81.5 Q 152.1 84.8 149.5 84 L 143.5 89 L 140 89 Q 139.3 83.5 144.5 82 L 147.5 80 Z " /><path fill="rgb(0,90,255)" stroke="rgb(0,90,255)" stroke-width="0" opacity="1" d="M 615.5 82 L 625 89.5 L 623.5 92 L 620.5 92 L 613 85.5 L 615.5 82 Z " /><path fill="rgb(0,90,255)" stroke="rgb(0,90,255)" stroke-width="0" opacity="1" d="M 134 90 L 139 91.5 L 134.5 97 L 129.5 100 L 127 97.5 L 132.5 92 Q 135.1 92.7 134 90 Z " /><path fill="rgb(0,90,255)" stroke="rgb(0,90,255)" stroke-width="0" opacity="1" d="M 626 93 L 629.5 93 L 637 99.5 L 634.5 103 L 626 97 L 626 93 Z " /><path fill="rgb(0,90,255)" stroke="rgb(0,90,255)" stroke-width="0" opacity="1" d="M 123.5 100 L 127 102.5 L 122.5 108 L 117.5 111 L 116 107.5 L 123.5 100 Z " /><path fill="rgb(0,90,255)" stroke="rgb(0,90,255)" stroke-width="0" opacity="1" d="M 639.5 103 L 649 111.5 L 645.5 114 L 638 106.5 L 638 104.5 L 639.5 103 Z " /><path fill="rgb(0,90,255)" stroke="rgb(0,90,255)" stroke-width="0" opacity="1" d="M 111.5 112 Q 116.3 110.3 115 114.5 L 109 122 Q 105.2 122.8 104 119.5 L 111.5 112 Z " /><path fill="rgb(0,90,255)" stroke="rgb(0,90,255)" stroke-width="0" opacity="1" d="M 651.5 114 L 659 121.5 L 659 125 L 654 123.5 L 649 116.5 L 651.5 114 Z " /><path fill="rgb(0,90,255)" stroke="rgb(0,90,255)" stroke-width="0" opacity="1" d="M 100.5 123 L 104 124.5 L 104 126.5 L 96.5 134 L 94 132.5 L 94 130.5 L 100.5 123 Z " /><path fill="rgb(0,90,255)" stroke="rgb(0,90,255)" stroke-width="0" opacity="1" d="M 661.5 126 L 670 133.5 L 668.5 137 L 664 134.5 L 660 127.5 L 661.5 126 Z " /><path fill="rgb(0,90,255)" stroke="rgb(0,90,255)" stroke-width="0" opacity="1" d="M 90.5 135 L 94 137.5 L 86.5 146 Q 83.2 147.1 84 144.5 L 83 143.5 L 86 140.5 L 90.5 135 Z " /><path fill="rgb(0,90,255)" stroke="rgb(0,90,255)" stroke-width="0" opacity="1" d="M 672.5 138 L 676 140.5 L 681 147.5 L 677.5 150 L 670 140.5 L 672.5 138 Z " /><path fill="rgb(0,90,255)" stroke="rgb(0,90,255)" stroke-width="0" opacity="1" d="M 79.5 148 Q 84.8 146.3 83 151.5 L 76.5 159 L 74 157.5 L 79.5 148 Z " /><path fill="rgb(0,90,255)" stroke="rgb(0,90,255)" stroke-width="0" opacity="1" d="M 682.5 151 L 686 153.5 L 690 160.5 Q 687 166 684 159.5 L 680 152 L 682.5 151 Z " /><path fill="rgb(0,90,255)" stroke="rgb(0,90,255)" stroke-width="0" opacity="1" d="M 71.5 160 L 74 163.5 L 67.5 172 L 64 169.5 L 71.5 160 Z " /><path fill="rgb(0,90,255)" stroke="rgb(0,90,255)" stroke-width="0" opacity="1" d="M 691.5 164 Q 694.8 162.9 694 165.5 L 699 173.5 L 695.5 175 Q 690.9 172.1 690 165.5 L 691.5 164 Z " /><path fill="rgb(0,90,255)" stroke="rgb(0,90,255)" stroke-width="0" opacity="1" d="M 61.5 174 L 65 175.5 L 59.5 185 L 56 183.5 L 61.5 174 Z " /><path fill="rgb(0,90,255)" stroke="rgb(0,90,255)" stroke-width="0" opacity="1" d="M 701.5 177 L 707 184.5 L 707 189 Q 703.2 189.8 702 186.5 L 698 179.5 L 701.5 177 Z " /><path fill="rgb(0,90,255)" stroke="rgb(0,90,255)" stroke-width="0" opacity="1" d="M 53.5 187 L 57 189.5 L 52 199 L 48 197.5 L 53.5 187 Z " /><path fill="rgb(0,90,255)" stroke="rgb(0,90,255)" stroke-width="0" opacity="1" d="M 708.5 191 L 712 193.5 L 715 198.5 L 715 201.5 L 712.5 203 L 706 193.5 L 708.5 191 Z " /><path fill="rgb(0,90,255)" stroke="rgb(0,90,255)" stroke-width="0" opacity="1" d="M 45.5 201 L 49 203.5 L 43.5 213 L 40 211.5 L 45.5 201 Z " /><path fill="rgb(0,90,255)" stroke="rgb(0,90,255)" stroke-width="0" opacity="1" d="M 716.5 205 L 719 206.5 L 723 215.5 L 719.5 217 L 714 207.5 L 716.5 205 Z " /><path fill="rgb(0,90,255)" stroke="rgb(0,90,255)" stroke-width="0" opacity="1" d="M 37 216 L 42 217.5 L 38 227 L 35.5 228 Q 31.3 226.3 34 224.5 L 37 216 Z " /><path fill="rgb(0,90,255)" stroke="rgb(0,90,255)" stroke-width="0" opacity="1" d="M 722.5 220 Q 726.9 218.5 726 221.5 L 730 229.5 L 725 231 L 721 221.5 L 722.5 220 Z " /><path fill="rgb(0,90,255)" stroke="rgb(0,90,255)" stroke-width="0" opacity="1" d="M 31.5 230 L 35 231.5 Q 34.1 239.1 29.5 243 L 27 239.5 L 31.5 230 Z " /><path fill="rgb(0,90,255)" stroke="rgb(0,90,255)" stroke-width="0" opacity="1" d="M 729.5 234 L 733 236.5 L 735 246 Q 730.2 247.9 731 244.5 L 728 235.5 L 729.5 234 Z " /><path fill="rgb(0,90,255)" stroke="rgb(0,90,255)" stroke-width="0" opacity="1" d="M 25.5 245 L 29 246.5 L 26 257 L 21 255.5 L 25.5 245 Z " /><path fill="rgb(0,90,255)" stroke="rgb(0,90,255)" stroke-width="0" opacity="1" d="M 735.5 249 L 739 251.5 L 741 259.5 L 737.5 261 L 734 254.5 L 734 250.5 L 735.5 249 Z " /><path fill="rgb(0,90,255)" stroke="rgb(0,90,255)" stroke-width="0" opacity="1" d="M 20.5 260 L 24 261.5 L 19.5 273 L 17 271.5 Q 16.5 263.5 20.5 260 Z " /><path fill="rgb(0,90,255)" stroke="rgb(0,90,255)" stroke-width="0" opacity="1" d="M 740.5 264 L 743 265.5 L 746 276 L 743.5 277 L 741 276 L 739 265.5 L 740.5 264 Z " /><path fill="rgb(0,90,255)" stroke="rgb(0,90,255)" stroke-width="0" opacity="1" d="M 15.5 276 Q 20.8 274.3 19 279.5 L 15.5 288 L 12 286.5 L 15.5 276 Z " /><path fill="rgb(0,90,255)" stroke="rgb(0,90,255)" stroke-width="0" opacity="1" d="M 744.5 280 L 748 281.5 L 750 290.5 L 746.5 292 L 743 281.5 L 744.5 280 Z " /><path fill="rgb(0,90,255)" stroke="rgb(0,90,255)" stroke-width="0" opacity="1" d="M 11 291 L 15 292.5 Q 15 300 11.5 304 L 8 301.5 L 11 291 Z " /><path fill="rgb(0,90,255)" stroke="rgb(0,90,255)" stroke-width="0" opacity="1" d="M 748.5 295 Q 751.8 293.9 751 296.5 Q 754 299.5 753 306.5 L 750.5 308 L 748 304.5 L 747 296.5 L 748.5 295 Z " /><path fill="rgb(0,90,255)" stroke="rgb(0,90,255)" stroke-width="0" opacity="1" d="M 7 307 L 11 307 L 11 315.5 L 10 319 L 5 317.5 L 7 307 Z " /><path fill="rgb(0,90,255)" stroke="rgb(0,90,255)" stroke-width="0" opacity="1" d="M 751.5 311 L 755 312.5 L 756 323 Q 751.2 324.9 752 321.5 L 750 312.5 L 751.5 311 Z " /><path fill="rgb(0,90,255)" stroke="rgb(0,90,255)" stroke-width="0" opacity="1" d="M 5.5 322 L 9 323.5 L 8 333.5 L 6.5 335 L 3 333.5 L 4 323.5 L 5.5 322 Z " /><path fill="rgb(0,90,255)" stroke="rgb(0,90,255)" stroke-width="0" opacity="1" d="M 753 327 Q 758.2 324.9 757 329.5 L 759 337.5 L 754 339 L 753 327 Z " /><path fill="rgb(0,90,255)" stroke="rgb(0,90,255)" stroke-width="0" opacity="1" d="M 3.5 338 L 7 339.5 Q 8.3 347.8 4.5 351 L 1 349.5 L 2 348.5 L 2 339.5 L 3.5 338 Z " /><path fill="rgb(0,90,255)" stroke="rgb(0,90,255)" stroke-width="0" opacity="1" d="M 756.5 342 L 759 343.5 L 760 353.5 L 756.5 355 L 755 353.5 Q 756.7 347.3 754 345.5 L 756.5 342 Z " /><path fill="rgb(0,90,255)" stroke="rgb(0,90,255)" stroke-width="0" opacity="1" d="M 3.5 354 L 6 357.5 Q 3.2 359.2 5 365.5 L 3.5 367 L 0 366.5 L 0 355 L 3.5 354 Z " /><path fill="rgb(0,90,255)" stroke="rgb(0,90,255)" stroke-width="0" opacity="1" d="M 756 359 L 760 359 L 760 371 L 756 369.5 L 756 359 Z " /><path fill="rgb(0,90,255)" stroke="rgb(0,90,255)" stroke-width="0" opacity="1" d="M 0 370 L 5 371.5 L 5 389.5 L 0 390 L 0 370 Z " /><path fill="rgb(0,90,255)" stroke="rgb(0,90,255)" stroke-width="0" opacity="1" d="M 757.5 374 L 760 374.5 L 760 387 L 756 385.5 L 756 375.5 L 757.5 374 Z " /><path fill="rgb(0,90,255)" stroke="rgb(0,90,255)" stroke-width="0" opacity="1" d="M 757.5 390 L 760 391.5 L 760 403 L 756 403 L 756 391.5 L 757.5 390 Z " /><path fill="rgb(0,90,255)" stroke="rgb(0,90,255)" stroke-width="0" opacity="1" d="M 0 394 L 5 395.5 Q 3.2 401.7 6 403.5 L 5 406 L 0 406 L 0 394 Z " /><path fill="rgb(0,90,255)" stroke="rgb(0,90,255)" stroke-width="0" opacity="1" d="M 757.5 406 L 760 407 L 759 417.5 L 757.5 419 L 754 417.5 L 755 407 L 757.5 406 Z " /><path fill="rgb(0,90,255)" stroke="rgb(0,90,255)" stroke-width="0" opacity="1" d="M 2.5 410 Q 7.8 408.3 6 413.5 L 7 420.5 L 3.5 422 L 2 420.5 L 2 412.5 L 1 411.5 L 2.5 410 Z " /><path fill="rgb(0,90,255)" stroke="rgb(0,90,255)" stroke-width="0" opacity="1" d="M 755.5 422 L 758 423.5 Q 759.3 431.8 755.5 435 L 752 433.5 L 754 423.5 L 755.5 422 Z " /><path fill="rgb(0,90,255)" stroke="rgb(0,90,255)" stroke-width="0" opacity="1" d="M 4.5 426 L 8 427.5 L 9 436.5 L 5.5 438 L 4 436.5 L 3 427.5 L 4.5 426 Z " /><path fill="rgb(0,90,255)" stroke="rgb(0,90,255)" stroke-width="0" opacity="1" d="M 753.5 438 L 756 439.5 L 755 449.5 L 753.5 451 L 750 449.5 L 751 441.5 L 753.5 438 Z " /><path fill="rgb(0,90,255)" stroke="rgb(0,90,255)" stroke-width="0" opacity="1" d="M 7.5 441 L 10 442 L 11 454 L 7 452.5 L 5 443.5 L 7.5 441 Z " /><path fill="rgb(0,90,255)" stroke="rgb(0,90,255)" stroke-width="0" opacity="1" d="M 749 454 L 753 455.5 Q 753.9 463.9 749.5 467 L 747 465.5 L 749 454 Z " /><path fill="rgb(0,90,255)" stroke="rgb(0,90,255)" stroke-width="0" opacity="1" d="M 9 457 L 13 458.5 L 15 467.5 L 11.5 470 L 8 459.5 L 9 457 Z " /><path fill="rgb(0,90,255)" stroke="rgb(0,90,255)" stroke-width="0" opacity="1" d="M 746.5 470 L 750 471.5 L 747 482 L 743 480.5 L 746.5 470 Z " /><path fill="rgb(0,90,255)" stroke="rgb(0,90,255)" stroke-width="0" opacity="1" d="M 12 473 Q 19.1 470.3 17 477.5 L 19 483.5 L 15.5 485 L 14 483.5 L 12 473 Z " /><path fill="rgb(0,90,255)" stroke="rgb(0,90,255)" stroke-width="0" opacity="1" d="M 742.5 485 Q 745.8 483.9 745 486.5 L 745 488.5 L 745 491.5 L 741.5 498 L 738 495.5 L 742.5 485 Z " /><path fill="rgb(0,90,255)" stroke="rgb(0,90,255)" stroke-width="0" opacity="1" d="M 17.5 488 L 21 489.5 Q 23.9 493.4 23 500 Q 18.2 501.9 19 498.5 L 16 489.5 L 17.5 488 Z " /><path fill="rgb(0,90,255)" stroke="rgb(0,90,255)" stroke-width="0" opacity="1" d="M 737.5 500 L 741 501.5 L 738 512 L 735.5 513 Q 731.3 511.2 734 509.5 L 734 506.5 L 737.5 500 Z " /><path fill="rgb(0,90,255)" stroke="rgb(0,90,255)" stroke-width="0" opacity="1" d="M 23.5 503 L 26 504.5 L 29 513.5 L 25.5 515 L 21 505.5 L 23.5 503 Z " /><path fill="rgb(0,90,255)" stroke="rgb(0,90,255)" stroke-width="0" opacity="1" d="M 732.5 515 L 735 516 L 732 527 L 727 525.5 L 730 517.5 L 732.5 515 Z " /><path fill="rgb(0,90,255)" stroke="rgb(0,90,255)" stroke-width="0" opacity="1" d="M 28.5 518 L 32 520.5 L 35 528.5 L 30 530 L 27 519.5 L 28.5 518 Z " /><path fill="rgb(0,90,255)" stroke="rgb(0,90,255)" stroke-width="0" opacity="1" d="M 725 530 L 729 531.5 L 729 534.5 L 724.5 542 L 721 540.5 L 725 530 Z " /><path fill="rgb(0,90,255)" stroke="rgb(0,90,255)" stroke-width="0" opacity="1" d="M 34.5 533 L 38 534.5 L 41 543.5 L 37 545 L 33 534.5 L 34.5 533 Z " /><path fill="rgb(0,90,255)" stroke="rgb(0,90,255)" stroke-width="0" opacity="1" d="M 719.5 544 L 722 545 L 722 548.5 L 717.5 557 L 714 556 L 719.5 544 Z " /><path fill="rgb(0,90,255)" stroke="rgb(0,90,255)" stroke-width="0" opacity="1" d="M 43.5 547 L 49 557.5 L 45.5 559 Q 40.6 555.3 40 548 L 43.5 547 Z " /><path fill="rgb(0,90,255)" stroke="rgb(0,90,255)" stroke-width="0" opacity="1" d="M 711.5 559 L 715 560.5 L 709.5 571 L 706 568.5 L 711.5 559 Z " /><path fill="rgb(0,90,255)" stroke="rgb(0,90,255)" stroke-width="0" opacity="1" d="M 49.5 561 L 52 562 L 56 569.5 L 56 573 Q 51.2 574.9 52 571.5 L 47 563.5 L 49.5 561 Z " /><path fill="rgb(0,90,255)" stroke="rgb(0,90,255)" stroke-width="0" opacity="1" d="M 703.5 573 L 707 574.5 L 701.5 584 L 698 582.5 L 703.5 573 Z " /><path fill="rgb(0,90,255)" stroke="rgb(0,90,255)" stroke-width="0" opacity="1" d="M 57.5 575 L 61 577.5 L 65 585.5 L 61.5 587 L 55 577.5 L 57.5 575 Z " /><path fill="rgb(0,90,255)" stroke="rgb(0,90,255)" stroke-width="0" opacity="1" d="M 695.5 586 L 699 587 L 694 597 L 691.5 598 Q 687.3 596.3 690 594.5 L 695.5 586 Z " /><path fill="rgb(0,90,255)" stroke="rgb(0,90,255)" stroke-width="0" opacity="1" d="M 65.5 589 L 70 591.5 L 74 597.5 L 73 600 Q 69.2 600.8 68 597.5 L 64 590.5 L 65.5 589 Z " /><path fill="rgb(0,90,255)" stroke="rgb(0,90,255)" stroke-width="0" opacity="1" d="M 687.5 599 Q 691.8 600.7 689 602.5 L 682.5 611 L 680 609.5 L 685.5 600 L 687.5 599 Z " /><path fill="rgb(0,90,255)" stroke="rgb(0,90,255)" stroke-width="0" opacity="1" d="M 74.5 602 L 79 604.5 L 83 611.5 L 79.5 613 L 73 603.5 L 74.5 602 Z " /><path fill="rgb(0,90,255)" stroke="rgb(0,90,255)" stroke-width="0" opacity="1" d="M 676.5 612 L 680 613.5 L 673.5 623 L 670 621.5 L 670 619.5 L 676.5 612 Z " /><path fill="rgb(0,90,255)" stroke="rgb(0,90,255)" stroke-width="0" opacity="1" d="M 85.5 614 Q 91.6 617.7 93 625 Q 86.6 626 85 620.5 L 83 616.5 L 85.5 614 Z " /><path fill="rgb(0,90,255)" stroke="rgb(0,90,255)" stroke-width="0" opacity="1" d="M 667.5 624 L 670 627.5 L 663.5 635 Q 658.3 636.8 660 631.5 L 667.5 624 Z " /><path fill="rgb(0,90,255)" stroke="rgb(0,90,255)" stroke-width="0" opacity="1" d="M 95.5 626 L 104 635.5 Q 102.3 639.8 100.5 637 L 96 633.5 L 93 629.5 L 95.5 626 Z " /><path fill="rgb(0,90,255)" stroke="rgb(0,90,255)" stroke-width="0" opacity="1" d="M 655.5 636 L 659 637.5 L 659 639.5 L 651.5 647 L 649 645.5 L 649 643.5 L 655.5 636 Z " /><path fill="rgb(0,90,255)" stroke="rgb(0,90,255)" stroke-width="0" opacity="1" d="M 105.5 639 L 107.5 639 L 114 645.5 L 115 647.5 L 111.5 649 L 104 640.5 L 105.5 639 Z " /><path fill="rgb(0,90,255)" stroke="rgb(0,90,255)" stroke-width="0" opacity="1" d="M 644.5 648 L 648 649.5 L 640.5 658 Q 637.2 659.1 638 656.5 L 637 655.5 L 644.5 648 Z " /><path fill="rgb(0,90,255)" stroke="rgb(0,90,255)" stroke-width="0" opacity="1" d="M 116 650 L 118.5 650 L 126 656.5 L 123.5 661 L 116 653.5 L 116 650 Z " /><path fill="rgb(0,90,255)" stroke="rgb(0,90,255)" stroke-width="0" opacity="1" d="M 632.5 659 L 637 661.5 L 628.5 669 L 626 669 L 626 664 L 627.5 664 L 632.5 659 Z " /><path fill="rgb(0,90,255)" stroke="rgb(0,90,255)" stroke-width="0" opacity="1" d="M 129.5 660 L 138 667.5 L 136.5 671 L 134.5 671 L 127 663.5 L 129.5 660 Z " /><path fill="rgb(0,90,255)" stroke="rgb(0,90,255)" stroke-width="0" opacity="1" d="M 621.5 669 L 624 670 Q 624.8 674.7 620.5 676 L 614.5 679 L 613 675.5 L 621.5 669 Z " /><path fill="rgb(0,90,255)" stroke="rgb(0,90,255)" stroke-width="0" opacity="1" d="M 141.5 671 L 150 677.5 L 148.5 681 L 140 676 L 139 673.5 L 141.5 671 Z " /><path fill="rgb(0,90,255)" stroke="rgb(0,90,255)" stroke-width="0" opacity="1" d="M 608.5 679 L 612 681.5 L 603.5 689 L 601 689 L 600 685.5 L 608.5 679 Z " /><path fill="rgb(0,90,255)" stroke="rgb(0,90,255)" stroke-width="0" opacity="1" d="M 153.5 681 L 163 687.5 L 161.5 691 L 152 684.5 L 153.5 681 Z " /><path fill="rgb(0,90,255)" stroke="rgb(0,90,255)" stroke-width="0" opacity="1" d="M 594.5 689 L 599 690.5 L 596.5 694 L 588 698 L 587 695.5 L 594.5 689 Z " /><path fill="rgb(0,90,255)" stroke="rgb(0,90,255)" stroke-width="0" opacity="1" d="M 167.5 690 L 177 697.5 L 173.5 700 L 165 693.5 L 167.5 690 Z " /><path fill="rgb(0,90,255)" stroke="rgb(0,90,255)" stroke-width="0" opacity="1" d="M 583.5 697 L 585 702 L 575.5 707 L 574 702 L 583.5 697 Z " /><path fill="rgb(0,90,255)" stroke="rgb(0,90,255)" stroke-width="0" opacity="1" d="M 179.5 699 L 190 704 L 188.5 708 Q 181.1 706.9 178 701.5 L 179.5 699 Z " /><path fill="rgb(0,90,255)" stroke="rgb(0,90,255)" stroke-width="0" opacity="1" d="M 567.5 706 Q 572.8 704.3 571 709.5 L 561.5 715 L 560 711.5 L 567.5 706 Z " /><path fill="rgb(0,90,255)" stroke="rgb(0,90,255)" stroke-width="0" opacity="1" d="M 193.5 707 L 204 712 L 202.5 716 L 192 710.5 L 193.5 707 Z " /><path fill="rgb(0,90,255)" stroke="rgb(0,90,255)" stroke-width="0" opacity="1" d="M 555.5 713 L 557 718 L 547.5 722 Q 542.5 719.5 547.5 717 L 555.5 713 Z " /><path fill="rgb(0,90,255)" stroke="rgb(0,90,255)" stroke-width="0" opacity="1" d="M 207.5 715 L 218 719 Q 220.2 724.6 214.5 723 L 206 717.5 L 207.5 715 Z " /><path fill="rgb(0,90,255)" stroke="rgb(0,90,255)" stroke-width="0" opacity="1" d="M 540.5 720 L 543 721.5 Q 544.5 725.9 541.5 725 L 533.5 729 L 531 725.5 L 540.5 720 Z " /><path fill="rgb(0,90,255)" stroke="rgb(0,90,255)" stroke-width="0" opacity="1" d="M 221 722 L 224.5 722 L 233 727.5 L 231.5 730 Q 224.6 729.4 221 725.5 L 221 722 Z " /><path fill="rgb(0,90,255)" stroke="rgb(0,90,255)" stroke-width="0" opacity="1" d="M 525.5 727 L 529 728.5 L 526.5 732 L 517 735 L 516 731.5 L 525.5 727 Z " /><path fill="rgb(0,90,255)" stroke="rgb(0,90,255)" stroke-width="0" opacity="1" d="M 237.5 728 L 245.5 731 L 248 733.5 L 247 736 L 235 731.5 L 237.5 728 Z " /><path fill="rgb(0,90,255)" stroke="rgb(0,90,255)" stroke-width="0" opacity="1" d="M 510.5 733 Q 513.8 731.9 513 734.5 Q 515.8 736.3 511.5 738 L 503.5 741 L 501 737.5 L 510.5 733 Z " /><path fill="rgb(0,90,255)" stroke="rgb(0,90,255)" stroke-width="0" opacity="1" d="M 251.5 734 L 262 737 L 263 739.5 Q 262 742 257.5 741 L 250 737.5 L 251.5 734 Z " /><path fill="rgb(0,90,255)" stroke="rgb(0,90,255)" stroke-width="0" opacity="1" d="M 494.5 738 Q 498.9 736.5 498 739.5 L 499 741.5 L 491.5 745 L 487.5 745 L 486 742.5 L 494.5 738 Z " /><path fill="rgb(0,90,255)" stroke="rgb(0,90,255)" stroke-width="0" opacity="1" d="M 266 739 L 278 742 L 276.5 746 Q 268.3 746.3 265 741.5 L 266 739 Z " /><path fill="rgb(0,90,255)" stroke="rgb(0,90,255)" stroke-width="0" opacity="1" d="M 481.5 742 L 483 747 Q 478.8 749.9 471 749 Q 468.9 743.8 473.5 745 L 481.5 742 Z " /><path fill="rgb(0,90,255)" stroke="rgb(0,90,255)" stroke-width="0" opacity="1" d="M 281 744 L 293 746 L 291.5 751 L 281 748 L 281 744 Z " /><path fill="rgb(0,90,255)" stroke="rgb(0,90,255)" stroke-width="0" opacity="1" d="M 465.5 746 L 468 749.5 Q 464.5 753.5 456.5 753 L 455 749 L 465.5 746 Z " /><path fill="rgb(0,90,255)" stroke="rgb(0,90,255)" stroke-width="0" opacity="1" d="M 297 747 L 304.5 748 L 309 750.5 L 307.5 754 L 297 752 L 296 749.5 L 297 747 Z " /><path fill="rgb(0,90,255)" stroke="rgb(0,90,255)" stroke-width="0" opacity="1" d="M 313.5 750 L 323.5 752 L 325 753.5 L 322.5 757 L 312 753.5 L 313.5 750 Z " /><path fill="rgb(0,90,255)" stroke="rgb(0,90,255)" stroke-width="0" opacity="1" d="M 446.5 750 Q 451 749 452 751.5 Q 453.1 754.8 450.5 754 L 440 756 L 439 753.5 L 441.5 751 L 446.5 750 Z " /><path fill="rgb(0,90,255)" stroke="rgb(0,90,255)" stroke-width="0" opacity="1" d="M 432.5 752 L 436 753 Q 438.3 759 431.5 757 L 424 758 Q 421.9 752.8 426.5 754 L 432.5 752 Z " /><path fill="rgb(0,90,255)" stroke="rgb(0,90,255)" stroke-width="0" opacity="1" d="M 329.5 753 L 339.5 754 L 341 755.5 L 338.5 759 L 328 757 L 329.5 753 Z " /><path fill="rgb(0,90,255)" stroke="rgb(0,90,255)" stroke-width="0" opacity="1" d="M 415.5 754 Q 420.3 753.3 421 756.5 L 419.5 759 L 409.5 760 L 408 756.5 L 415.5 754 Z " /><path fill="rgb(0,90,255)" stroke="rgb(0,90,255)" stroke-width="0" opacity="1" d="M 344 755 L 354.5 755 L 357 757.5 L 356 760 L 344 759 L 344 755 Z " /><path fill="rgb(0,90,255)" stroke="rgb(0,90,255)" stroke-width="0" opacity="1" d="M 360 756 L 372 756 L 372 760 L 360 760 L 360 756 Z " /><path fill="rgb(0,90,255)" stroke="rgb(0,90,255)" stroke-width="0" opacity="1" d="M 377.5 756 L 388 756 L 388 760 L 376.5 760 L 376 757.5 L 377.5 756 Z " /><path fill="rgb(0,90,255)" stroke="rgb(0,90,255)" stroke-width="0" opacity="1" d="M 393.5 756 L 404 756 L 404 760 L 392.5 760 L 392 757.5 L 393.5 756 Z " /><path fill="rgb(0,236,0)" stroke="rgb(0,236,0)" stroke-width="0" opacity="1" d="M 380.5 334 L 413 342 Q 414.5 345.8 411.5 345 L 384 355 L 384 363.5 L 385.5 364 Q 393.1 365.9 397 371.5 L 400 381.5 L 399 386.5 L 391.5 395 L 386.5 397 L 379.5 397 Q 371.6 394.9 368 388.5 Q 365.1 384.9 366 377.5 Q 367.8 370.3 373.5 367 L 379 363.5 L 379 335.5 L 380.5 334 Z M 384 340 L 384 350 L 391 348 Q 393 347 392 343 L 384 340 Z M 380 369 L 373 373 L 371 378 Q 370 385 373 388 L 380 392 L 389 391 L 395 383 L 394 376 L 386 369 L 380 369 Z " /><path fill="rgb(0,236,0)" stroke="rgb(0,236,0)" stroke-width="0" opacity="1" d="M 381.5 373 Q 387.1 372.9 389 376.5 L 390 381.5 L 385.5 387 Q 377.5 388.5 376 383.5 L 375 380.5 L 378.5 374 L 381.5 373 Z " /><path fill="rgb(255,102,5)" stroke="rgb(255,102,5)" stroke-width="0" opacity="1" d="M 346.5 165 Q 351.9 163.1 351 166.5 L 352 167.5 L 352 183.5 L 349 185.5 L 349 168.5 L 345 168 L 345 166.5 L 346.5 165 Z " /><path fill="rgb(255,102,5)" stroke="rgb(255,102,5)" stroke-width="0" opacity="1" d="M 363.5 165 Q 371.8 163.7 374 168.5 L 376 176.5 Q 374.5 183 369.5 186 L 364.5 186 L 359 181.5 L 358 174.5 L 359 169.5 L 363.5 165 Z M 366 166 L 360 172 Q 359 179 362 182 L 366 184 L 371 183 L 373 180 L 372 170 L 366 166 Z " /><path fill="rgb(255,102,5)" stroke="rgb(255,102,5)" stroke-width="0" opacity="1" d="M 386.5 165 Q 394.3 163.3 396 167.5 Q 400 171 398 180.5 L 396 184 L 392.5 186 L 387.5 186 L 383 182.5 Q 383.8 178.5 381 179.5 L 381 171.5 L 386.5 165 Z M 390 166 L 386 169 L 384 171 L 384 181 L 389 184 L 394 183 L 397 178 Q 398 172 395 170 L 390 166 Z " /><path fill="rgb(255,102,5)" stroke="rgb(255,102,5)" stroke-width="0" opacity="1" d="M 405 171 L 408.5 172 L 415.5 171 L 419 173.5 L 418 174.5 L 417.5 186 L 415 182.5 L 416 177.5 L 413.5 172 L 408 173 L 406 178.5 L 407 183.5 L 405.5 186 L 405 171 Z " /><path fill="rgb(255,102,5)" stroke="rgb(255,102,5)" stroke-width="0" opacity="1" d="M 420.5 171 L 428 171 L 428 185.5 L 427 185.5 Q 429.5 174.5 423.5 172 Q 419.5 172.8 420.5 171 Z " /><path fill="rgb(255,102,5)" stroke="rgb(255,102,5)" stroke-width="0" opacity="1" d="M 371.5 189 L 379 189 L 379 192 L 369.5 192 L 369 190 L 371.5 189 Z " /><path fill="rgb(255,102,5)" stroke="rgb(255,102,5)" stroke-width="0" opacity="1" d="M 385 189 Q 392.2 187.5 395 191.5 L 385 192 L 385 189 Z " /><path fill="rgb(255,102,5)" stroke="rgb(255,102,5)" stroke-width="0" opacity="1" d="M 353 191 L 363 191.5 L 353 194 L 353 191 Z " /><path fill="rgb(255,102,5)" stroke="rgb(255,102,5)" stroke-width="0" opacity="1" d="M 401.5 191 L 410 191 L 410 194 L 402.5 193 L 401.5 191 Z " /><path fill="rgb(255,102,5)" stroke="rgb(255,102,5)" stroke-width="0" opacity="1" d="M 340.5 193 L 348 193.5 L 342.5 196 L 337.5 196 L 338.5 194 L 340.5 193 Z " /><path fill="rgb(255,102,5)" stroke="rgb(255,102,5)" stroke-width="0" opacity="1" d="M 417 193 L 426 195 Q 427.1 197.7 424.5 197 L 417 194.5 L 417 193 Z " /><path fill="rgb(255,102,5)" stroke="rgb(255,102,5)" stroke-width="0" opacity="1" d="M 330.5 196 Q 333.1 195.3 332 198 L 322.5 200 L 323.5 198 L 330.5 196 Z " /><path fill="rgb(255,102,5)" stroke="rgb(255,102,5)" stroke-width="0" opacity="1" d="M 433 197 L 442 199 Q 443.5 202.8 440.5 202 L 433 198.5 L 433 197 Z " /><path fill="rgb(255,102,5)" stroke="rgb(255,102,5)" stroke-width="0" opacity="1" d="M 313.5 201 Q 316.8 199.9 316 202.5 L 307 206 L 308.5 203 Q 312.8 203.8 313.5 201 Z " /><path fill="rgb(255,102,5)" stroke="rgb(255,102,5)" stroke-width="0" opacity="1" d="M 447 202 L 458 205.5 L 455.5 207 L 447 204 L 447 202 Z " /><path fill="rgb(255,102,5)" stroke="rgb(255,102,5)" stroke-width="0" opacity="1" d="M 299.5 207 Q 302.8 205.9 302 208.5 L 296.5 212 L 293.5 212 L 295.5 209 L 299.5 207 Z " /><path fill="rgb(255,102,5)" stroke="rgb(255,102,5)" stroke-width="0" opacity="1" d="M 462.5 209 L 465.5 209 L 472 213.5 L 468.5 214 L 464.5 212 L 462.5 209 Z " /><path fill="rgb(255,102,5)" stroke="rgb(255,102,5)" stroke-width="0" opacity="1" d="M 284.5 215 L 288 215.5 L 286 216 Q 287.3 219 283.5 218 L 279.5 220 L 281.5 217 L 284.5 215 Z " /><path fill="rgb(255,102,5)" stroke="rgb(255,102,5)" stroke-width="0" opacity="1" d="M 477.5 216 L 484 219 L 485 221.5 L 482.5 222 L 477 217.5 L 477.5 216 Z " /><path fill="rgb(255,102,5)" stroke="rgb(255,102,5)" stroke-width="0" opacity="1" d="M 271 223 Q 274.8 221.5 274 224.5 L 268 228 Q 269.1 231.3 265 230 L 266.5 227 L 271 225 L 271 223 Z " /><path fill="rgb(255,102,5)" stroke="rgb(255,102,5)" stroke-width="0" opacity="1" d="M 489.5 225 L 498 229 Q 499.3 233.1 496 232 Q 497.1 229.3 494.5 230 L 489.5 225 Z " /><path fill="rgb(255,102,5)" stroke="rgb(255,102,5)" stroke-width="0" opacity="1" d="M 258 233 L 262 233.5 L 260 234 Q 261.1 236.7 258.5 236 L 253 240 Q 251.5 236.2 254.5 237 L 258 235 L 258 233 Z " /><path fill="rgb(255,102,5)" stroke="rgb(255,102,5)" stroke-width="0" opacity="1" d="M 502.5 235 L 508 237 Q 507 240 510 239 L 510 242 L 502.5 235 Z " /><path fill="rgb(255,102,5)" stroke="rgb(255,102,5)" stroke-width="0" opacity="1" d="M 247 243 Q 249.7 241.9 249 244.5 L 243.5 250 L 241.5 250 L 241.5 249 L 245 247 L 245 245 L 247 245 L 247 243 Z " /><path fill="rgb(255,102,5)" stroke="rgb(255,102,5)" stroke-width="0" opacity="1" d="M 515.5 245 L 516 247 L 518 247 L 518 249 L 520 249 L 522 253 L 515 247.5 L 515.5 245 Z " /><path fill="rgb(255,102,5)" stroke="rgb(255,102,5)" stroke-width="0" opacity="1" d="M 236.5 255 L 238 256.5 L 236 260 Q 233.3 258.9 234 261.5 L 231 263 L 236.5 255 Z " /><path fill="rgb(255,102,5)" stroke="rgb(255,102,5)" stroke-width="0" opacity="1" d="M 525 257 Q 527.7 255.9 527 258.5 L 532 263.5 L 532 265.5 L 527 261.5 Q 527.7 258.9 525 260 L 525 257 Z " /><path fill="rgb(255,102,5)" stroke="rgb(255,102,5)" stroke-width="0" opacity="1" d="M 227.5 267 L 228 269.5 L 224 276 Q 219.9 277.3 221 274 L 223 274 L 223 271 Q 225.7 272.1 225 269.5 L 227.5 267 Z " /><path fill="rgb(255,102,5)" stroke="rgb(255,102,5)" stroke-width="0" opacity="1" d="M 535.5 269 L 536 271 Q 538.7 269.9 538 272.5 L 542 277.5 L 539.5 278 L 535 272.5 L 535.5 269 Z " /><path fill="rgb(255,102,5)" stroke="rgb(255,102,5)" stroke-width="0" opacity="1" d="M 217 281 L 220 281.5 L 218 286 Q 215 284.8 216 288.5 L 213 290 L 217 281 Z " /><path fill="rgb(255,102,5)" stroke="rgb(255,102,5)" stroke-width="0" opacity="1" d="M 543 283 Q 547.1 281.3 546 285.5 L 548 290 Q 551 289 550 292 Q 546.3 293.5 547 290.5 L 543 283 Z " /><path fill="rgb(255,102,5)" stroke="rgb(255,102,5)" stroke-width="0" opacity="1" d="M 209 295 Q 212.8 293.5 212 296.5 L 208 304 Q 205.3 305.1 206 302.5 L 209 295 Z " /><path fill="rgb(255,102,5)" stroke="rgb(255,102,5)" stroke-width="0" opacity="1" d="M 551.5 297 Q 555.7 299.9 556 306 L 553 304.5 L 551 300.5 L 551.5 297 Z " /><path fill="rgb(255,102,5)" stroke="rgb(255,102,5)" stroke-width="0" opacity="1" d="M 203 309 Q 205.7 307.9 205 310.5 L 201.5 319 Q 198.8 317.8 201 316.5 L 203 309 Z " /><path fill="rgb(255,102,5)" stroke="rgb(255,102,5)" stroke-width="0" opacity="1" d="M 557 313 Q 561.5 311.3 560 316.5 Q 563 317.8 562 322 Q 559.3 323.1 560 320.5 L 557 313 Z " /><path fill="rgb(255,102,5)" stroke="rgb(255,102,5)" stroke-width="0" opacity="1" d="M 197 325 Q 200.8 323.5 200 326.5 Q 197 328.8 198 334 Q 194.3 335.5 195 332.5 Q 198 330.3 197 325 Z " /><path fill="rgb(255,102,5)" stroke="rgb(255,102,5)" stroke-width="0" opacity="1" d="M 562 327 Q 565 325.8 564 329.5 Q 567.3 330.8 566 336.5 L 564 335.5 L 562 327 Z " /><path fill="rgb(255,102,5)" stroke="rgb(255,102,5)" stroke-width="0" opacity="1" d="M 194.5 340 Q 197.1 339.2 196 342.5 Q 193 344.8 194 350 Q 191.3 351.1 192 348.5 L 193 341.5 L 194.5 340 Z " /><path fill="rgb(255,102,5)" stroke="rgb(255,102,5)" stroke-width="0" opacity="1" d="M 566 343 Q 569.7 341.6 568 347.5 L 570 352 L 567 352 L 567 345.5 L 566 343 Z " /><path fill="rgb(255,102,5)" stroke="rgb(255,102,5)" stroke-width="0" opacity="1" d="M 191 355 Q 194.3 353.7 193 358.5 L 191.5 366 L 191 355 Z " /><path fill="rgb(255,102,5)" stroke="rgb(255,102,5)" stroke-width="0" opacity="1" d="M 569.5 359 L 571 368 L 569 367.5 L 569.5 359 Z " /><path fill="rgb(255,102,5)" stroke="rgb(255,102,5)" stroke-width="0" opacity="1" d="M 189 371 L 192 371.5 L 192 392 L 189 391.5 L 189 371 Z " /><path fill="rgb(255,102,5)" stroke="rgb(255,102,5)" stroke-width="0" opacity="1" d="M 569 375 L 572 375 L 572 384 L 569 384 L 569 375 Z " /><path fill="rgb(255,102,5)" stroke="rgb(255,102,5)" stroke-width="0" opacity="1" d="M 569 391 Q 572.7 389.5 572 392.5 L 569.5 400 L 569 391 Z " /><path fill="rgb(255,102,5)" stroke="rgb(255,102,5)" stroke-width="0" opacity="1" d="M 191.5 397 L 194 408 L 191 407.5 L 191.5 397 Z " /><path fill="rgb(255,102,5)" stroke="rgb(255,102,5)" stroke-width="0" opacity="1" d="M 567 407 Q 571.5 405.3 570 410.5 L 567.5 416 L 567 407 Z " /><path fill="rgb(255,102,5)" stroke="rgb(255,102,5)" stroke-width="0" opacity="1" d="M 193.5 413 L 196 418.5 L 196 422.5 L 193 420.5 L 193.5 413 Z " /><path fill="rgb(255,102,5)" stroke="rgb(255,102,5)" stroke-width="0" opacity="1" d="M 565.5 423 L 566 429.5 L 563 431.5 Q 562.3 425.3 565.5 423 Z " /><path fill="rgb(255,102,5)" stroke="rgb(255,102,5)" stroke-width="0" opacity="1" d="M 196 429 Q 199.3 427.7 198 432.5 Q 201 433.8 200 438 Q 197.3 439.1 198 436.5 L 196 429 Z " /><path fill="rgb(255,102,5)" stroke="rgb(255,102,5)" stroke-width="0" opacity="1" d="M 561.5 437 L 562 442.5 L 559.5 448 L 558 445.5 L 561.5 437 Z " /><path fill="rgb(255,102,5)" stroke="rgb(255,102,5)" stroke-width="0" opacity="1" d="M 201 445 L 204 446.5 L 206 454 L 203 452.5 L 201 445 Z " /><path fill="rgb(255,102,5)" stroke="rgb(255,102,5)" stroke-width="0" opacity="1" d="M 555 453 L 558 453.5 L 554 462 L 551 461.5 L 555 453 Z " /><path fill="rgb(255,102,5)" stroke="rgb(255,102,5)" stroke-width="0" opacity="1" d="M 207 459 Q 209.7 457.9 209 460.5 L 212 467.5 L 209 465.5 L 207 459 Z " /><path fill="rgb(255,102,5)" stroke="rgb(255,102,5)" stroke-width="0" opacity="1" d="M 549.5 467 L 550 469.5 L 545.5 476 L 544 475.5 L 549.5 467 Z " /><path fill="rgb(255,102,5)" stroke="rgb(255,102,5)" stroke-width="0" opacity="1" d="M 214.5 473 L 216 474.5 L 220 479.5 L 220 482 L 217 480.5 Q 218 476.8 215 478 L 215 474.5 L 214.5 473 Z " /><path fill="rgb(255,102,5)" stroke="rgb(255,102,5)" stroke-width="0" opacity="1" d="M 540 481 Q 543 479.8 542 483.5 L 538 490 Q 535.3 491.1 536 488.5 L 537 485 Q 539.7 486.1 539 483.5 L 540 481 Z " /><path fill="rgb(255,102,5)" stroke="rgb(255,102,5)" stroke-width="0" opacity="1" d="M 223 487 L 226 488.5 L 229 495 Q 226.3 496.1 227 493.5 Q 222.3 492.1 223 487 Z " /><path fill="rgb(255,102,5)" stroke="rgb(255,102,5)" stroke-width="0" opacity="1" d="M 531.5 494 L 534 495.5 L 532 496 L 527.5 502 L 526 501.5 L 531.5 494 Z " /><path fill="rgb(255,102,5)" stroke="rgb(255,102,5)" stroke-width="0" opacity="1" d="M 233.5 499 L 234 501 Q 236.7 499.9 236 502.5 L 240 508 Q 236.2 509.5 237 506.5 Q 231.5 505 233.5 499 Z " /><path fill="rgb(255,102,5)" stroke="rgb(255,102,5)" stroke-width="0" opacity="1" d="M 521.5 507 L 524 507.5 L 522 508 L 520 511.5 L 515.5 514 L 521.5 507 Z " /><path fill="rgb(255,102,5)" stroke="rgb(255,102,5)" stroke-width="0" opacity="1" d="M 243.5 511 L 250 517.5 L 250 519.5 L 249 519.5 L 247.5 518 L 243 513.5 L 243.5 511 Z " /><path fill="rgb(255,102,5)" stroke="rgb(255,102,5)" stroke-width="0" opacity="1" d="M 510.5 518 Q 513.1 517.3 512 520 L 510 520 L 510 522 L 506.5 524 L 504 525 L 506.5 521 L 510.5 518 Z " /><path fill="rgb(255,102,5)" stroke="rgb(255,102,5)" stroke-width="0" opacity="1" d="M 255 523 L 260 525 Q 259 528 262 527 L 262 529.5 L 259.5 528 L 255 524.5 L 255 523 Z " /><path fill="rgb(255,102,5)" stroke="rgb(255,102,5)" stroke-width="0" opacity="1" d="M 497.5 529 L 500 529.5 L 496 532 Q 497.3 535 493.5 534 L 491 535 Q 489.9 532.3 492.5 533 L 497.5 529 Z " /><path fill="rgb(255,102,5)" stroke="rgb(255,102,5)" stroke-width="0" opacity="1" d="M 267 533 L 276 537 Q 277.3 540 273.5 539 L 267 535 L 267 533 Z " /><path fill="rgb(255,102,5)" stroke="rgb(255,102,5)" stroke-width="0" opacity="1" d="M 485.5 537 L 486 539.5 L 478.5 544 L 479 542.5 L 480.5 541 L 485 539 L 485.5 537 Z " /><path fill="rgb(255,102,5)" stroke="rgb(255,102,5)" stroke-width="0" opacity="1" d="M 281.5 541 L 289 546.5 L 287.5 548 L 283 546 Q 284 543 281 544 L 281.5 541 Z " /><path fill="rgb(255,102,5)" stroke="rgb(255,102,5)" stroke-width="0" opacity="1" d="M 469.5 547 L 474 547.5 L 467 550 Q 468.1 553.3 464 552 L 465.5 549 L 469.5 547 Z " /><path fill="rgb(255,102,5)" stroke="rgb(255,102,5)" stroke-width="0" opacity="1" d="M 295 549 Q 298 548 297 551 L 299.5 551 L 304 553.5 L 299.5 554 L 295 552 L 295 549 Z " /><path fill="rgb(255,102,5)" stroke="rgb(255,102,5)" stroke-width="0" opacity="1" d="M 456.5 553 Q 459.5 552.2 458 556 L 449.5 558 L 451.5 555 Q 455.8 555.8 456.5 553 Z " /><path fill="rgb(255,102,5)" stroke="rgb(255,102,5)" stroke-width="0" opacity="1" d="M 309.5 555 L 318 559 L 317.5 561 L 309 558 L 309.5 555 Z " /><path fill="rgb(255,102,5)" stroke="rgb(255,102,5)" stroke-width="0" opacity="1" d="M 440.5 559 Q 444.9 557.5 444 560.5 L 435 564 Q 433.3 559.5 438.5 561 L 440.5 559 Z " /><path fill="rgb(255,102,5)" stroke="rgb(255,102,5)" stroke-width="0" opacity="1" d="M 324 561 L 328.5 563 L 334 563 Q 335.7 567.1 331.5 566 L 324 562.5 L 324 561 Z " /><path fill="rgb(255,102,5)" stroke="rgb(255,102,5)" stroke-width="0" opacity="1" d="M 426.5 563 Q 429.5 562.2 428 566 Q 422 565.3 419 568 Q 417.2 562.8 424.5 565 L 426.5 563 Z " /><path fill="rgb(255,102,5)" stroke="rgb(255,102,5)" stroke-width="0" opacity="1" d="M 339 565 L 350 567.5 L 340.5 568 L 339 565 Z " /><path fill="rgb(255,102,5)" stroke="rgb(255,102,5)" stroke-width="0" opacity="1" d="M 406.5 567 Q 412.6 565.8 412 568.5 L 410.5 570 L 403 570 Q 401.8 567 405.5 568 L 406.5 567 Z " /><path fill="rgb(255,102,5)" stroke="rgb(255,102,5)" stroke-width="0" opacity="1" d="M 355 568 L 365 569.5 Q 363.8 572.3 362.5 570 L 355.5 570 L 355 568 Z " /><path fill="rgb(255,102,5)" stroke="rgb(255,102,5)" stroke-width="0" opacity="1" d="M 371 569 L 380.5 569 L 381 572 L 371.5 572 L 371 569 Z " /><path fill="rgb(255,102,5)" stroke="rgb(255,102,5)" stroke-width="0" opacity="1" d="M 387 569 L 397 569.5 L 395.5 571 L 387 572 L 387 569 Z " /><path fill="rgb(255,156,83)" stroke="rgb(255,156,83)" stroke-width="0" opacity="1" d="M 347.5 164 L 352 165.5 L 351.5 167 L 351 165 Q 346.6 166 347.5 164 Z " /><path fill="rgb(255,156,83)" stroke="rgb(255,156,83)" stroke-width="0" opacity="1" d="M 363.5 164 Q 372.9 162.7 375 168.5 L 376 172.5 L 375 172.5 L 372.5 167 Q 370.2 163.8 363.5 165 L 359 169.5 L 358 176.5 L 359 180.5 L 358 180.5 L 357 172.5 L 363.5 164 Z " /><path fill="rgb(255,156,83)" stroke="rgb(255,156,83)" stroke-width="0" opacity="1" d="M 386.5 164 Q 396.3 162.3 398 168.5 L 400 176.5 L 395.5 185 L 393.5 186 L 394.5 184 L 396 182.5 L 398 180.5 L 398 170.5 L 393.5 165 Q 384.8 163.3 383 168.5 Q 379.2 171.8 381 180 Q 384 178.8 383 182.5 L 387 185.5 L 385.5 186 L 380 179.5 L 380 171.5 L 386.5 164 Z " /><path fill="rgb(255,156,83)" stroke="rgb(255,156,83)" stroke-width="0" opacity="1" d="M 345.5 165 L 345 166.5 L 345 168 L 349 168.5 L 349 185.5 L 352 184.5 L 350.5 187 L 348 185.5 L 348 169.5 L 345.5 169 L 344 166.5 L 345.5 165 Z " /><path fill="rgb(255,156,83)" stroke="rgb(255,156,83)" stroke-width="0" opacity="1" d="M 365.5 166 L 372 169.5 L 373 173.5 L 372 173.5 L 369.5 168 Q 363.3 166.8 362 170.5 L 361 177.5 L 363 182 L 368.5 183 L 372.5 177 L 373 179.5 L 371 183 L 365.5 184 L 362 181.5 Q 358.6 178.9 360 171.5 L 365.5 166 Z " /><path fill="rgb(255,156,83)" stroke="rgb(255,156,83)" stroke-width="0" opacity="1" d="M 389.5 166 L 395 169.5 Q 397.7 171.8 397 177.5 L 393.5 183 L 388.5 184 L 388.5 183 L 394 182 L 396 175.5 L 394 169 L 389.5 167 L 386.5 169 L 387.5 167 L 389.5 166 Z " /><path fill="rgb(255,156,83)" stroke="rgb(255,156,83)" stroke-width="0" opacity="1" d="M 412.5 169 L 419.5 171 L 424.5 169 L 427 170.5 L 420 171.5 Q 425.6 171.4 427 175.5 L 427.5 186 L 428.5 172 Q 431.2 175.8 430 183.5 L 427.5 187 L 426 185.5 L 426 176.5 L 423.5 173 L 419 175.5 L 418.5 177 L 418 174.5 L 418.5 173 Q 416 170 410 170.5 L 412.5 169 Z " /><path fill="rgb(255,156,83)" stroke="rgb(255,156,83)" stroke-width="0" opacity="1" d="M 404 170 L 409 171.5 L 407.5 172 L 405 171 L 405.5 186 L 407 179.5 L 407 177.5 L 407.5 176 L 408 184.5 L 407 187 L 404 185.5 L 404 170 Z " /><path fill="rgb(255,156,83)" stroke="rgb(255,156,83)" stroke-width="0" opacity="1" d="M 410.5 172 L 415 173.5 L 414.5 175 L 410.5 173 L 408 174.5 L 409.5 173 L 410.5 172 Z " /><path fill="rgb(255,156,83)" stroke="rgb(255,156,83)" stroke-width="0" opacity="1" d="M 376.5 174 L 377 176.5 L 372.5 185 L 370.5 186 L 374 181.5 L 376.5 174 Z " /><path fill="rgb(255,156,83)" stroke="rgb(255,156,83)" stroke-width="0" opacity="1" d="M 415.5 177 L 416 181.5 L 415 181.5 L 415.5 177 Z " /><path fill="rgb(255,156,83)" stroke="rgb(255,156,83)" stroke-width="0" opacity="1" d="M 384.5 178 L 387 182.5 L 384 180.5 L 384.5 178 Z " /><path fill="rgb(255,156,83)" stroke="rgb(255,156,83)" stroke-width="0" opacity="1" d="M 418.5 179 L 419 185.5 L 416.5 187 L 415 183.5 L 416 183.5 L 417.5 186 L 418.5 179 Z " /><path fill="rgb(255,156,83)" stroke="rgb(255,156,83)" stroke-width="0" opacity="1" d="M 359.5 182 L 364 185.5 L 362.5 186 L 359.5 182 Z " /><path fill="rgb(255,156,83)" stroke="rgb(255,156,83)" stroke-width="0" opacity="1" d="M 374.5 188 Q 379 187 380 189.5 L 378.5 193 L 369.5 193 L 368 191.5 Q 366.8 187.8 370.5 189 L 370.5 190 Q 367.9 189.3 369 192 L 378.5 192 L 379 189 L 374.5 189 L 374.5 188 Z " /><path fill="rgb(255,156,83)" stroke="rgb(255,156,83)" stroke-width="0" opacity="1" d="M 361.5 189 L 364 190 Q 365.5 193.8 362.5 193 L 353.5 195 L 352 191.5 L 353.5 190 Q 359.8 191.8 361.5 189 Z M 353 191 L 353 194 L 363 192 L 353 191 Z " /><path fill="rgb(255,156,83)" stroke="rgb(255,156,83)" stroke-width="0" opacity="1" d="M 384.5 189 L 385 192 L 395 191.5 L 392 189.5 L 396 189 L 396 193 L 385.5 193 Q 383 192 384.5 189 Z " /><path fill="rgb(255,156,83)" stroke="rgb(255,156,83)" stroke-width="0" opacity="1" d="M 400 190 L 409 190.5 L 401 191.5 L 406 193.5 L 401.5 194 L 400 190 Z " /><path fill="rgb(255,156,83)" stroke="rgb(255,156,83)" stroke-width="0" opacity="1" d="M 410 191 Q 413 189.8 412 193.5 L 408.5 195 L 408.5 194 Q 411.5 194.7 410 191 Z " /><path fill="rgb(255,156,83)" stroke="rgb(255,156,83)" stroke-width="0" opacity="1" d="M 342.5 192 Q 347.8 190.8 349 193.5 Q 348.3 196.8 343.5 196 L 343.5 195 L 348 193.5 L 342.5 193 L 342.5 192 Z " /><path fill="rgb(255,156,83)" stroke="rgb(255,156,83)" stroke-width="0" opacity="1" d="M 417.5 192 L 420 192.5 L 417 193 L 418 195.5 L 416 196 L 417.5 192 Z " /><path fill="rgb(255,156,83)" stroke="rgb(255,156,83)" stroke-width="0" opacity="1" d="M 337.5 193 L 340 193.5 L 337 195.5 L 341 196.5 L 337.5 197 L 336 194.5 L 337.5 193 Z " /><path fill="rgb(255,156,83)" stroke="rgb(255,156,83)" stroke-width="0" opacity="1" d="M 421.5 193 L 428 195.5 L 426.5 198 L 419 196.5 L 423.5 196 L 426 197 Q 427.3 194 423.5 195 L 421.5 193 Z " /><path fill="rgb(255,156,83)" stroke="rgb(255,156,83)" stroke-width="0" opacity="1" d="M 329.5 195 L 333 196.5 L 331.5 199 L 327.5 200 L 327.5 199 L 332 198 Q 333.1 195.3 330.5 196 L 326.5 197 L 326.5 196 L 329.5 195 Z " /><path fill="rgb(255,156,83)" stroke="rgb(255,156,83)" stroke-width="0" opacity="1" d="M 432.5 196 L 435 196.5 L 433 197 L 434 199.5 L 432 200 L 431 197.5 L 432.5 196 Z " /><path fill="rgb(255,156,83)" stroke="rgb(255,156,83)" stroke-width="0" opacity="1" d="M 323.5 197 L 325 197.5 L 322 199.5 L 325 200.5 L 321 201 Q 319.5 197.2 322.5 198 L 323.5 197 Z " /><path fill="rgb(255,156,83)" stroke="rgb(255,156,83)" stroke-width="0" opacity="1" d="M 436.5 197 L 443 199.5 L 441.5 203 L 436 200.5 L 438.5 200 L 442 202 Q 443.8 197.5 438.5 199 L 436.5 197 Z " /><path fill="rgb(255,156,83)" stroke="rgb(255,156,83)" stroke-width="0" opacity="1" d="M 314.5 200 Q 319.1 198.8 317 204 L 315 203.5 L 316 201 L 314.5 200 Z " /><path fill="rgb(255,156,83)" stroke="rgb(255,156,83)" stroke-width="0" opacity="1" d="M 311.5 201 L 313 201.5 L 307 204.5 L 308.5 206 L 308.5 207 L 306 205.5 Q 304.9 202.2 307.5 203 L 311.5 201 Z " /><path fill="rgb(255,156,83)" stroke="rgb(255,156,83)" stroke-width="0" opacity="1" d="M 447.5 201 L 459 205.5 L 458 208 L 452 206.5 L 454.5 206 L 456.5 206 L 458 205.5 L 447 202 Q 445.8 205 449.5 204 L 450.5 206 L 446 203.5 L 447.5 201 Z " /><path fill="rgb(255,156,83)" stroke="rgb(255,156,83)" stroke-width="0" opacity="1" d="M 311.5 204 L 314 204.5 L 310.5 206 L 311.5 204 Z " /><path fill="rgb(255,156,83)" stroke="rgb(255,156,83)" stroke-width="0" opacity="1" d="M 299.5 206 L 303 207.5 L 301.5 210 L 302 208.5 Q 302.8 205.9 299.5 207 L 296.5 209 L 297.5 207 L 299.5 206 Z " /><path fill="rgb(255,156,83)" stroke="rgb(255,156,83)" stroke-width="0" opacity="1" d="M 463.5 207 L 464.5 209 L 462 209.5 L 463.5 212 L 460 209.5 L 463.5 207 Z " /><path fill="rgb(255,156,83)" stroke="rgb(255,156,83)" stroke-width="0" opacity="1" d="M 293.5 209 L 295 209.5 L 293.5 212 L 296 212.5 L 293.5 214 Q 288.5 211.5 293.5 209 Z " /><path fill="rgb(255,156,83)" stroke="rgb(255,156,83)" stroke-width="0" opacity="1" d="M 470.5 211 L 472 212.5 Q 474.3 213.8 471.5 215 Q 466.4 215.6 465 212.5 L 466.5 212 Q 467.3 214.7 471.5 214 L 470.5 211 Z " /><path fill="rgb(255,156,83)" stroke="rgb(255,156,83)" stroke-width="0" opacity="1" d="M 284.5 214 L 289 215.5 L 286 217.5 L 287.5 216 L 287.5 215 L 284.5 215 L 279 219.5 L 281.5 220 L 284.5 218 L 284.5 219 L 279.5 222 Q 274.5 219.5 279.5 217 L 284.5 214 Z " /><path fill="rgb(255,156,83)" stroke="rgb(255,156,83)" stroke-width="0" opacity="1" d="M 477.5 214 L 483 218.5 L 481.5 219 L 477.5 216 L 477 217.5 L 484.5 222 L 484 220.5 L 484.5 219 Q 489 221 485.5 223 L 482.5 223 L 475 217.5 L 477.5 214 Z " /><path fill="rgb(255,156,83)" stroke="rgb(255,156,83)" stroke-width="0" opacity="1" d="M 271.5 222 L 275 223.5 L 272.5 227 L 265.5 231 L 264 227 L 271.5 222 Z M 271 223 L 271 225 L 267 227 L 265 230 Q 269 231 268 228 L 274 225 Q 275 221 271 223 Z " /><path fill="rgb(255,156,83)" stroke="rgb(255,156,83)" stroke-width="0" opacity="1" d="M 489.5 224 L 492.5 224 L 499 229.5 L 497.5 233 L 488 225.5 L 489.5 224 Z M 490 225 L 495 230 Q 497 229 496 232 Q 499 233 498 229 L 490 225 Z " /><path fill="rgb(255,156,83)" stroke="rgb(255,156,83)" stroke-width="0" opacity="1" d="M 258.5 232 L 263 233.5 L 253.5 241 L 252 237.5 L 253 237.5 Q 251.9 240.8 254.5 240 L 260 236 Q 258.9 233.3 261.5 234 L 261.5 233 L 258 233 Q 259.1 235.7 256.5 235 L 254 236.5 L 258.5 232 Z " /><path fill="rgb(255,156,83)" stroke="rgb(255,156,83)" stroke-width="0" opacity="1" d="M 503.5 233 L 506.5 237 L 502.5 235 L 508.5 242 Q 511.1 242.8 510 239.5 L 511 239.5 Q 512.7 244.3 508.5 243 L 501 235.5 L 503.5 233 Z " /><path fill="rgb(255,156,83)" stroke="rgb(255,156,83)" stroke-width="0" opacity="1" d="M 247.5 242 L 250 243.5 L 250 245.5 L 243.5 252 L 240 250.5 L 247.5 242 Z M 247 243 L 247 245 L 245 245 L 245 247 L 242 249 L 242 250 L 244 250 L 249 245 Q 250 242 247 243 Z " /><path fill="rgb(255,156,83)" stroke="rgb(255,156,83)" stroke-width="0" opacity="1" d="M 514.5 244 L 523 251.5 L 521.5 254 L 519.5 254 L 513 247.5 L 514.5 244 Z M 516 245 L 515 248 L 522 253 L 520 249 L 518 249 L 518 247 L 516 247 L 516 245 Z " /><path fill="rgb(255,156,83)" stroke="rgb(255,156,83)" stroke-width="0" opacity="1" d="M 236.5 254 Q 240.3 252.8 239 256.5 L 231.5 265 L 230 261.5 L 236.5 254 Z M 237 255 L 231 263 L 234 262 Q 233 259 236 260 L 238 257 L 237 255 Z " /><path fill="rgb(255,156,83)" stroke="rgb(255,156,83)" stroke-width="0" opacity="1" d="M 525.5 256 L 530 259.5 L 533 265.5 L 530.5 267 L 524 259.5 L 524 257.5 L 525.5 256 Z M 525 257 L 525 260 Q 528 259 527 262 L 532 266 L 532 264 L 527 259 Q 528 256 525 257 Z " /><path fill="rgb(255,156,83)" stroke="rgb(255,156,83)" stroke-width="0" opacity="1" d="M 226.5 266 L 229 267.5 L 224.5 275 L 226 272.5 L 228 267.5 L 225 269.5 L 223.5 271 L 225 268.5 L 226.5 266 Z " /><path fill="rgb(255,156,83)" stroke="rgb(255,156,83)" stroke-width="0" opacity="1" d="M 535.5 268 L 537.5 271 L 536 269.5 L 535 269.5 Q 534.3 273.8 537 274.5 L 534 272.5 L 535.5 268 Z " /><path fill="rgb(255,156,83)" stroke="rgb(255,156,83)" stroke-width="0" opacity="1" d="M 222.5 272 L 223 274 Q 220 273 221 276 L 224 276.5 L 221.5 277 L 220 274.5 L 222.5 272 Z " /><path fill="rgb(255,156,83)" stroke="rgb(255,156,83)" stroke-width="0" opacity="1" d="M 538.5 272 L 543 277.5 L 539.5 280 L 537 276.5 L 539.5 278 L 542 277.5 L 538.5 272 Z " /><path fill="rgb(255,156,83)" stroke="rgb(255,156,83)" stroke-width="0" opacity="1" d="M 217.5 280 L 221 281.5 L 219 284.5 L 218 284.5 L 220 281.5 L 217 281 L 213 290 L 216 288.5 Q 214.9 285.2 217.5 286 L 217 287.5 L 216 291 L 212 289.5 L 217.5 280 Z " /><path fill="rgb(255,156,83)" stroke="rgb(255,156,83)" stroke-width="0" opacity="1" d="M 543.5 282 L 546 282.5 L 543 283 L 547 292 Q 551.1 293.3 550 290 Q 547.3 291.1 548 288.5 L 551 290.5 L 549.5 293 L 546 291.5 L 542 283.5 L 543.5 282 Z " /><path fill="rgb(255,156,83)" stroke="rgb(255,156,83)" stroke-width="0" opacity="1" d="M 209.5 294 L 213 295.5 L 210.5 300 L 210 298.5 L 212 295 Q 208.7 295.8 209.5 294 Z " /><path fill="rgb(255,156,83)" stroke="rgb(255,156,83)" stroke-width="0" opacity="1" d="M 551.5 296 L 554 297.5 L 553.5 299 L 551 297.5 L 550.5 300 L 550 297.5 L 551.5 296 Z " /><path fill="rgb(255,156,83)" stroke="rgb(255,156,83)" stroke-width="0" opacity="1" d="M 206.5 300 L 207 301.5 L 206 304 Q 208.7 305.1 208 302.5 L 210 301.5 L 207.5 305 L 204 303.5 L 206.5 300 Z " /><path fill="rgb(255,156,83)" stroke="rgb(255,156,83)" stroke-width="0" opacity="1" d="M 556.5 304 L 557 306.5 Q 555.8 309.3 554.5 307 L 553 305.5 L 554.5 306 L 556.5 304 Z " /><path fill="rgb(255,156,83)" stroke="rgb(255,156,83)" stroke-width="0" opacity="1" d="M 203.5 308 L 207 309.5 L 204.5 314 L 204 311.5 L 205 309 Q 202 307.8 203 311.5 L 201 312.5 L 203.5 308 Z " /><path fill="rgb(255,156,83)" stroke="rgb(255,156,83)" stroke-width="0" opacity="1" d="M 557.5 311 Q 561.3 310 560 313 Q 556.3 311.5 557 314.5 L 559 318.5 L 558 318.5 L 556 312.5 L 557.5 311 Z " /><path fill="rgb(255,156,83)" stroke="rgb(255,156,83)" stroke-width="0" opacity="1" d="M 200.5 314 L 201 316.5 Q 198.8 317.8 201.5 319 L 203.5 315 L 204 316.5 L 201.5 320 L 199 318.5 L 200.5 314 Z " /><path fill="rgb(255,156,83)" stroke="rgb(255,156,83)" stroke-width="0" opacity="1" d="M 560.5 314 L 562 317.5 L 560 316.5 L 560.5 314 Z " /><path fill="rgb(255,156,83)" stroke="rgb(255,156,83)" stroke-width="0" opacity="1" d="M 562.5 319 L 563 321.5 L 560.5 323 L 559 320.5 L 560 320.5 Q 559.3 323.1 562 322 L 562.5 319 Z " /><path fill="rgb(255,156,83)" stroke="rgb(255,156,83)" stroke-width="0" opacity="1" d="M 197 323 L 201 324.5 L 197.5 335 L 194 333.5 L 197 323 Z M 197 325 Q 198 330 195 333 Q 194 336 198 334 Q 197 329 200 327 Q 201 323 197 325 Z " /><path fill="rgb(255,156,83)" stroke="rgb(255,156,83)" stroke-width="0" opacity="1" d="M 562.5 326 L 565 327.5 L 566 330.5 L 564 329.5 Q 565 325.8 562 327 L 563 332.5 L 562 332.5 L 561 327.5 L 562.5 326 Z " /><path fill="rgb(255,156,83)" stroke="rgb(255,156,83)" stroke-width="0" opacity="1" d="M 566.5 333 L 567 338 L 563 336.5 L 563.5 334 L 565.5 337 L 566.5 333 Z " /><path fill="rgb(255,156,83)" stroke="rgb(255,156,83)" stroke-width="0" opacity="1" d="M 193 339 Q 198.6 336.8 197 342.5 L 193.5 351 L 191 349.5 L 193 339 Z M 195 340 L 193 342 L 192 349 Q 191 351 194 350 Q 193 345 196 343 Q 197 339 195 340 Z " /><path fill="rgb(255,156,83)" stroke="rgb(255,156,83)" stroke-width="0" opacity="1" d="M 565.5 342 L 569 343.5 L 570 349.5 L 569 349.5 L 568 343 Q 565.3 341.9 566 344.5 L 567 352 L 570.5 351 L 570 352.5 Q 570.7 355.5 567 354 L 564 343.5 L 565.5 342 Z " /><path fill="rgb(255,156,83)" stroke="rgb(255,156,83)" stroke-width="0" opacity="1" d="M 191.5 354 L 194 355.5 Q 194.9 363.4 191.5 367 L 189 365.5 L 190 355.5 L 191.5 354 Z M 191 355 L 192 366 L 193 359 Q 194 354 191 355 Z " /><path fill="rgb(255,156,83)" stroke="rgb(255,156,83)" stroke-width="0" opacity="1" d="M 568.5 358 Q 572.3 356.8 571 360.5 Q 573.8 362.3 572 368.5 L 569.5 370 L 568 368.5 L 567 359.5 L 568.5 358 Z M 570 359 L 569 368 L 571 368 L 570 359 Z " /><path fill="rgb(255,156,83)" stroke="rgb(255,156,83)" stroke-width="0" opacity="1" d="M 189.5 370 L 193 371.5 L 193 391.5 L 191.5 393 L 188 391.5 L 188.5 390 L 189 392 L 192 391.5 L 192 371 Q 188.2 369.5 189 372.5 L 188 372.5 L 189.5 370 Z " /><path fill="rgb(255,156,83)" stroke="rgb(255,156,83)" stroke-width="0" opacity="1" d="M 569.5 373 L 572 373.5 L 573 383.5 L 571.5 386 L 569 385.5 L 568 375.5 L 569.5 373 Z M 569 375 L 569 384 L 572 384 L 572 375 L 569 375 Z " /><path fill="rgb(255,156,83)" stroke="rgb(255,156,83)" stroke-width="0" opacity="1" d="M 188.5 374 L 189 386.5 L 188 386.5 L 188.5 374 Z " /><path fill="rgb(255,156,83)" stroke="rgb(255,156,83)" stroke-width="0" opacity="1" d="M 569.5 390 L 573 391.5 L 571.5 391 L 569 391.5 L 569 399.5 L 570 399.5 L 571.5 393 L 572 399.5 Q 570 404 568 400.5 L 568 391.5 L 569.5 390 Z " /><path fill="rgb(255,156,83)" stroke="rgb(255,156,83)" stroke-width="0" opacity="1" d="M 190.5 396 L 193 397.5 L 195 407.5 L 191.5 409 L 190 407.5 L 189 397.5 L 190.5 396 Z M 192 397 L 191 408 L 194 408 L 192 397 Z " /><path fill="rgb(255,156,83)" stroke="rgb(255,156,83)" stroke-width="0" opacity="1" d="M 567.5 406 L 571 407.5 L 570.5 409 L 570 407 Q 566.2 405.5 567 408.5 L 566 408.5 L 567.5 406 Z " /><path fill="rgb(255,156,83)" stroke="rgb(255,156,83)" stroke-width="0" opacity="1" d="M 566.5 410 L 567.5 416 L 569.5 411 L 570 413.5 L 569 417 L 565 415.5 L 566.5 410 Z " /><path fill="rgb(255,156,83)" stroke="rgb(255,156,83)" stroke-width="0" opacity="1" d="M 192.5 412 Q 195.8 410.9 195 413.5 L 196 417.5 L 195 417.5 L 193.5 413 L 192.5 420 L 191 413.5 L 192.5 412 Z " /><path fill="rgb(255,156,83)" stroke="rgb(255,156,83)" stroke-width="0" opacity="1" d="M 196.5 420 L 197 424 Q 191.8 426.1 193 421.5 L 196 422.5 L 196.5 420 Z " /><path fill="rgb(255,156,83)" stroke="rgb(255,156,83)" stroke-width="0" opacity="1" d="M 565.5 421 L 567 422.5 L 568 424.5 L 566.5 429 L 565.5 423 L 563.5 427 L 563 424.5 L 565.5 421 Z " /><path fill="rgb(255,156,83)" stroke="rgb(255,156,83)" stroke-width="0" opacity="1" d="M 195.5 428 L 199 429.5 L 200 433.5 L 198 432.5 Q 199.3 427.7 196 429 L 197 434.5 L 196 434.5 L 194 429.5 L 195.5 428 Z " /><path fill="rgb(255,156,83)" stroke="rgb(255,156,83)" stroke-width="0" opacity="1" d="M 562.5 428 L 563.5 432 L 566 430.5 L 564.5 433 Q 559.4 434.2 562.5 428 Z " /><path fill="rgb(255,156,83)" stroke="rgb(255,156,83)" stroke-width="0" opacity="1" d="M 197.5 436 L 198 438 Q 200.7 439.1 200 436.5 L 201 436.5 L 199.5 440 Q 195.9 438.9 197.5 436 Z " /><path fill="rgb(255,156,83)" stroke="rgb(255,156,83)" stroke-width="0" opacity="1" d="M 561.5 436 L 563 440.5 L 562 440.5 L 561.5 437 L 559.5 440 L 560 438.5 L 561.5 436 Z " /><path fill="rgb(255,156,83)" stroke="rgb(255,156,83)" stroke-width="0" opacity="1" d="M 558.5 442 L 559 444.5 L 558 446.5 L 560 447.5 L 561.5 443 L 562 444.5 L 559.5 449 L 557 447.5 L 558.5 442 Z " /><path fill="rgb(255,156,83)" stroke="rgb(255,156,83)" stroke-width="0" opacity="1" d="M 201.5 443 L 204 444.5 L 203.5 446 L 201 445 L 200.5 447 L 200 444.5 L 201.5 443 Z " /><path fill="rgb(255,156,83)" stroke="rgb(255,156,83)" stroke-width="0" opacity="1" d="M 204.5 447 L 206 450.5 L 204 449.5 L 204.5 447 Z " /><path fill="rgb(255,156,83)" stroke="rgb(255,156,83)" stroke-width="0" opacity="1" d="M 201.5 448 L 204.5 454 L 206 452.5 L 207 452.5 L 205.5 455 Q 202.2 456.1 203 453.5 L 201.5 448 Z " /><path fill="rgb(255,156,83)" stroke="rgb(255,156,83)" stroke-width="0" opacity="1" d="M 555.5 451 L 559 453.5 L 556.5 457 L 556 455.5 L 557.5 453 Q 554.2 451.9 555 454.5 L 553 455.5 L 555.5 451 Z " /><path fill="rgb(255,156,83)" stroke="rgb(255,156,83)" stroke-width="0" opacity="1" d="M 552.5 457 L 553 459.5 L 551.5 462 Q 555.3 463.3 554 459.5 L 556 458.5 L 553.5 463 L 550 461.5 L 552.5 457 Z " /><path fill="rgb(255,156,83)" stroke="rgb(255,156,83)" stroke-width="0" opacity="1" d="M 206 458 L 210 459.5 L 214 467.5 L 210.5 469 L 207 462.5 L 209 463.5 L 211.5 468 L 212 465.5 L 209 459 Q 206.3 457.9 207 460.5 L 206 460.5 L 206 458 Z " /><path fill="rgb(255,156,83)" stroke="rgb(255,156,83)" stroke-width="0" opacity="1" d="M 548.5 466 L 551 467.5 L 548.5 473 L 548 471.5 L 550 467.5 L 547 469.5 L 544 475.5 L 545.5 476 L 548 474.5 L 547 477 L 543 475.5 L 548.5 466 Z " /><path fill="rgb(255,156,83)" stroke="rgb(255,156,83)" stroke-width="0" opacity="1" d="M 214.5 472 L 218 474.5 L 222 481.5 L 218.5 483 L 215 478.5 L 217 478 L 218.5 482 Q 221.1 482.8 220 479.5 L 216 473 L 214 473.5 L 215 476.5 L 214 476.5 L 213 473.5 L 214.5 472 Z " /><path fill="rgb(255,156,83)" stroke="rgb(255,156,83)" stroke-width="0" opacity="1" d="M 540.5 480 Q 544.3 478.8 543 482.5 L 542 482.5 Q 542.7 479.9 540 481 L 539 485 L 537 484.5 L 540.5 480 Z " /><path fill="rgb(255,156,83)" stroke="rgb(255,156,83)" stroke-width="0" opacity="1" d="M 541.5 484 L 541 485.5 L 537.5 491 L 534 490 L 536.5 486 L 537 487.5 L 536 490 Q 538.7 491.1 538 488.5 L 541.5 484 Z " /><path fill="rgb(255,156,83)" stroke="rgb(255,156,83)" stroke-width="0" opacity="1" d="M 222.5 486 L 227 488.5 L 229 493 Q 231.7 491.9 231 494.5 L 227 497 L 223 490.5 L 227 493.5 Q 226.3 496.1 229 495 L 224.5 487 L 223 488.5 L 221 487.5 L 222.5 486 Z " /><path fill="rgb(255,156,83)" stroke="rgb(255,156,83)" stroke-width="0" opacity="1" d="M 531.5 492 L 535 495.5 L 530 500.5 L 527.5 504 L 524 501.5 L 531.5 492 Z M 532 494 L 526 502 L 528 502 L 532 496 L 534 496 L 532 494 Z " /><path fill="rgb(255,156,83)" stroke="rgb(255,156,83)" stroke-width="0" opacity="1" d="M 232 498 L 236 500.5 L 234 501 L 233.5 499 L 233 502.5 L 236.5 507 L 231 500.5 L 232 498 Z " /><path fill="rgb(255,156,83)" stroke="rgb(255,156,83)" stroke-width="0" opacity="1" d="M 236.5 502 L 241 507.5 L 237.5 509 L 237.5 508 Q 240.8 509.1 240 506.5 L 236.5 502 Z " /><path fill="rgb(255,156,83)" stroke="rgb(255,156,83)" stroke-width="0" opacity="1" d="M 521.5 505 L 525 507.5 L 517.5 515 L 515.5 515 L 514 512.5 L 521.5 505 Z M 522 507 L 516 514 L 520 512 L 522 508 L 524 508 L 522 507 Z " /><path fill="rgb(255,156,83)" stroke="rgb(255,156,83)" stroke-width="0" opacity="1" d="M 243.5 510 L 252 517.5 L 249.5 521 L 242 513.5 L 242 511.5 L 243.5 510 Z M 244 511 L 243 514 L 248 518 L 249 520 L 250 520 L 250 518 L 244 511 Z " /><path fill="rgb(255,156,83)" stroke="rgb(255,156,83)" stroke-width="0" opacity="1" d="M 509.5 517 L 513 518.5 L 508.5 524 L 508 522 L 510 522 L 512 518 L 504 523.5 L 505.5 525 L 507 524.5 L 506 527 L 502 524.5 L 503.5 523 L 509.5 517 Z " /><path fill="rgb(255,156,83)" stroke="rgb(255,156,83)" stroke-width="0" opacity="1" d="M 255.5 521 L 258.5 525 L 255 523 L 258.5 528 L 261.5 530 L 262 527 Q 259.3 528.1 260 525.5 L 264 528.5 L 262.5 531 L 260.5 531 L 253 523.5 L 255.5 521 Z " /><path fill="rgb(255,156,83)" stroke="rgb(255,156,83)" stroke-width="0" opacity="1" d="M 499.5 527 L 501 529.5 L 496.5 533 L 496.5 532 L 500 529.5 L 497.5 529 L 491 533 Q 489.9 535.7 492.5 535 L 494.5 534 L 492.5 537 L 491 535.5 L 490 533.5 L 499.5 527 Z " /><path fill="rgb(255,156,83)" stroke="rgb(255,156,83)" stroke-width="0" opacity="1" d="M 267.5 531 L 275 536.5 L 272.5 535 L 267 533 Q 265.9 535.7 268.5 535 L 270.5 538 L 266 534.5 L 267.5 531 Z " /><path fill="rgb(255,156,83)" stroke="rgb(255,156,83)" stroke-width="0" opacity="1" d="M 485.5 536 L 488 539.5 L 484.5 542 L 486 539.5 L 485.5 537 L 485 539 L 480.5 541 L 482.5 538 L 485.5 536 Z " /><path fill="rgb(255,156,83)" stroke="rgb(255,156,83)" stroke-width="0" opacity="1" d="M 276.5 537 L 277 538.5 Q 274.5 543.5 272 538.5 L 273.5 539 Q 277 540 276.5 537 Z " /><path fill="rgb(255,156,83)" stroke="rgb(255,156,83)" stroke-width="0" opacity="1" d="M 281.5 540 L 290 545.5 L 288.5 549 L 284 546.5 L 285.5 546 L 289 548 L 287.5 545 L 281.5 541 L 281 544 Q 283.7 542.9 283 545.5 L 281.5 545 L 279 543.5 L 281.5 540 Z " /><path fill="rgb(255,156,83)" stroke="rgb(255,156,83)" stroke-width="0" opacity="1" d="M 478.5 541 L 479 542.5 L 478.5 544 L 482.5 542 L 480.5 545 Q 475.7 546.7 477 542.5 L 478.5 541 Z " /><path fill="rgb(255,156,83)" stroke="rgb(255,156,83)" stroke-width="0" opacity="1" d="M 471.5 545 Q 474.8 543.9 474 546.5 Q 476.3 547.8 473.5 549 L 464.5 553 L 463 549 L 471.5 545 Z M 470 547 L 466 549 L 464 552 Q 468 553 467 550 L 474 548 L 470 547 Z " /><path fill="rgb(255,156,83)" stroke="rgb(255,156,83)" stroke-width="0" opacity="1" d="M 294.5 548 L 305 553.5 L 303.5 556 L 293 552 L 294.5 548 Z M 295 549 L 295 552 L 300 554 L 304 554 L 300 551 L 297 551 Q 298 548 295 549 Z " /><path fill="rgb(255,156,83)" stroke="rgb(255,156,83)" stroke-width="0" opacity="1" d="M 456.5 552 L 460 553.5 Q 461 557.3 458 556 Q 459.5 552.3 456.5 553 L 452.5 555 L 452.5 554 L 456.5 552 Z " /><path fill="rgb(255,156,83)" stroke="rgb(255,156,83)" stroke-width="0" opacity="1" d="M 309.5 554 L 314 556.5 L 311.5 557 L 309 555.5 Q 307.8 559.3 311.5 558 L 312.5 560 L 308 557.5 L 309.5 554 Z " /><path fill="rgb(255,156,83)" stroke="rgb(255,156,83)" stroke-width="0" opacity="1" d="M 450.5 555 L 449.5 558 L 456.5 556 L 456.5 557 L 449.5 559 Q 446 557 450.5 555 Z " /><path fill="rgb(255,156,83)" stroke="rgb(255,156,83)" stroke-width="0" opacity="1" d="M 315.5 557 L 320 559.5 L 319 562 L 314 560.5 L 316.5 560 L 318 560.5 L 316.5 559 L 315.5 557 Z " /><path fill="rgb(255,156,83)" stroke="rgb(255,156,83)" stroke-width="0" opacity="1" d="M 441.5 558 L 445 559.5 Q 446.1 562.8 443.5 562 L 444 560.5 Q 444.8 557.9 441.5 559 L 441.5 558 Z " /><path fill="rgb(255,156,83)" stroke="rgb(255,156,83)" stroke-width="0" opacity="1" d="M 438.5 559 L 440 559.5 L 436.5 561 L 436.5 560 L 438.5 559 Z " /><path fill="rgb(255,156,83)" stroke="rgb(255,156,83)" stroke-width="0" opacity="1" d="M 323 560 L 326 560.5 L 324 561 L 325 563.5 L 323 564 L 323 560 Z " /><path fill="rgb(255,156,83)" stroke="rgb(255,156,83)" stroke-width="0" opacity="1" d="M 327.5 561 L 335 563.5 L 333.5 567 L 332 566.5 L 334 566 Q 335.8 560.8 328.5 563 L 327.5 561 Z " /><path fill="rgb(255,156,83)" stroke="rgb(255,156,83)" stroke-width="0" opacity="1" d="M 433 561 L 435 561 Q 433.5 564.8 436.5 564 L 440.5 562 L 440.5 563 L 434.5 565 L 433 561 Z " /><path fill="rgb(255,156,83)" stroke="rgb(255,156,83)" stroke-width="0" opacity="1" d="M 427.5 562 L 430 565.5 L 419.5 569 L 418 565.5 L 425.5 563 L 424.5 565 Q 417.2 562.8 419 568 Q 422 565.3 428 566 L 427.5 562 Z " /><path fill="rgb(255,156,83)" stroke="rgb(255,156,83)" stroke-width="0" opacity="1" d="M 326.5 564 L 331 565.5 L 329.5 566 L 326.5 564 Z " /><path fill="rgb(255,156,83)" stroke="rgb(255,156,83)" stroke-width="0" opacity="1" d="M 339.5 564 L 342 564.5 L 339 565 L 340.5 568 L 350 567.5 L 343 565.5 L 346.5 565 L 351 567.5 L 350 570 L 338 568 L 339.5 564 Z " /><path fill="rgb(255,156,83)" stroke="rgb(255,156,83)" stroke-width="0" opacity="1" d="M 410.5 566 L 414 567.5 Q 415.3 571.3 411.5 570 L 412 568.5 L 410.5 567 L 410.5 566 Z " /><path fill="rgb(255,156,83)" stroke="rgb(255,156,83)" stroke-width="0" opacity="1" d="M 354 567 L 366 568 Q 368.3 574 361.5 572 L 354 569.5 L 354 567 Z M 355 568 L 356 570 L 363 570 Q 364 572 365 570 L 355 568 Z " /><path fill="rgb(255,156,83)" stroke="rgb(255,156,83)" stroke-width="0" opacity="1" d="M 403.5 567 L 406 567.5 L 403 568 Q 401.6 572 408.5 570 L 408.5 571 Q 403.3 572.3 402 569.5 L 403.5 567 Z " /><path fill="rgb(255,156,83)" stroke="rgb(255,156,83)" stroke-width="0" opacity="1" d="M 371.5 568 L 380.5 568 L 382 569.5 L 380.5 573 L 374 572.5 L 381 572 L 380.5 569 L 371 569 Q 369.5 572.7 372.5 572 L 372.5 573 L 370 571.5 L 371.5 568 Z " /><path fill="rgb(255,156,83)" stroke="rgb(255,156,83)" stroke-width="0" opacity="1" d="M 387.5 568 L 397.5 568 L 398 570.5 Q 397 573 392.5 572 L 392.5 571 L 397 569.5 L 387 569 Q 385.5 572.7 388.5 572 L 388.5 573 L 386 571.5 L 387.5 568 Z " /><path fill="rgb(255,230,211)" stroke="rgb(255,230,211)" stroke-width="0" opacity="1" d="M 346.5 162 Q 351.8 160.8 353 163.5 L 355.5 172 Q 356.6 165.6 361.5 163 L 370.5 162 L 376 166.5 L 377 170 L 380 168.5 L 383.5 164 Q 386.1 160.6 393.5 162 L 399 166.5 L 401.5 171 L 404.5 168 L 412.5 168 L 413.5 167 L 418.5 169 L 424.5 167 L 431 171.5 L 432 183.5 L 429.5 188 L 424 187 L 424 177.5 L 422.5 176 L 421 176.5 L 421 184.5 L 418.5 188 Q 413.8 188.8 413 185.5 Q 415 178 411.5 176 Q 408.3 177.8 410 184.5 L 408 187.5 L 413.5 191 L 416.5 191 L 420.5 190 L 429 193 Q 427.9 195.7 430.5 195 L 435.5 194 L 445 198 Q 443.9 200.7 446.5 200 L 449.5 199 L 459 203.5 L 460.5 206 L 466.5 206 L 474 211.5 L 475.5 214 L 478.5 213 L 487 218.5 L 488 222 L 492.5 222 L 501 228.5 Q 499.2 234.2 505.5 232 L 511 236 Q 510 239 513 238 L 513 242 L 515.5 242 L 523 248.5 L 525 254 L 531 257.5 L 537.5 268 L 540 269.5 L 544 276.5 L 544 280 L 549 283.5 L 553.5 295 L 555 296.5 L 557 298.5 L 559 303.5 L 559 308.5 Q 564.3 312.7 565 321.5 L 564 323.5 Q 570.1 327.4 569 338.5 L 568 339.5 L 571 342.5 L 572 353.5 L 571 355.5 Q 575.5 359 574 368.5 L 573 372.5 Q 576 375.5 575 382.5 L 572 387.5 Q 575.8 390.7 574 399.5 L 573 403 Q 570.3 401.9 571 404.5 L 573 409.5 L 569 422.5 L 569 424.5 Q 569.3 432.3 565 435.5 L 565 442.5 L 559 452.5 L 560 454.5 L 554.5 465 Q 551.8 464.4 553 470.5 L 546.5 479 Q 543.8 478.4 545 484.5 L 541 491 L 536 493 L 535 498.5 L 529.5 505 Q 524.3 503.3 526 508.5 L 518.5 517 Q 513.7 515.3 515 519.5 L 512.5 523 L 507.5 527 L 503 528 L 498.5 535 Q 495.7 538.8 490 538 L 487.5 543 L 480.5 547 L 476 547 L 473.5 551 L 466.5 555 L 461 555 L 459.5 558 L 453.5 561 L 448.5 561 L 447 560.5 L 444.5 564 Q 439.9 566.9 431.5 566 Q 429.6 569.6 424.5 570 L 418.5 570 L 416.5 569 L 413.5 572 L 402.5 573 L 399.5 572 Q 396 576 386.5 574 L 382.5 573 Q 380.2 576.2 373.5 575 L 367.5 572 Q 365.8 574.8 360.5 574 L 354.5 573 L 351.5 570 L 346.5 572 L 340.5 571 L 335.5 567 L 328.5 568 L 318.5 563 L 316.5 564 L 308.5 561 L 306 558.5 L 304.5 557 L 301.5 558 Q 293.5 556 289.5 550 L 287.5 551 L 278 544.5 L 276.5 542 L 270.5 541 L 264 535.5 Q 265.3 531.3 260.5 533 L 252 525.5 L 250.5 522 Q 242.6 521 240 514.5 Q 241.7 509.7 237.5 511 L 230 503.5 L 230 499 L 224 495.5 L 220 490.5 L 220 485 Q 216.2 485.8 215 482.5 L 211 473.5 L 212 471 L 208 469.5 L 204 462.5 L 204 458.5 L 204.5 457 L 201 454.5 L 198 447.5 L 198 441 Q 195.3 442.1 196 439.5 L 194 436.5 L 193 429.5 L 194 426.5 Q 188.4 423.1 190 412.5 L 191 410.5 L 188 407.5 L 187 398.5 L 189 394.5 Q 183.9 387.6 186 373.5 L 189 367.5 Q 185.7 366.3 187 360.5 L 188 355.5 L 191 351.5 Q 188.3 350.8 189 346.5 L 190 341.5 L 194 335.5 L 193 329.5 L 198 318.5 L 198 316.5 Q 198 309 202.5 306 L 204 304.5 L 203 301.5 L 208.5 292 Q 211.9 292.9 210 287.5 L 216.5 278 Q 221.1 279.4 219 273.5 L 225.5 265 L 228 263.5 L 228 260.5 L 235.5 252 L 239 250.5 Q 236.5 249 240 247.5 L 245.5 241 L 250 240 L 250 237.5 L 257.5 230 Q 262.9 231.9 262 228.5 L 265.5 224 L 276 218.5 L 277.5 216 L 283.5 212 Q 288.8 213.3 290 210.5 L 291.5 208 L 299.5 204 L 302.5 204 L 304 204.5 L 306.5 201 L 316.5 198 L 318.5 199 L 320 196 L 331.5 193 L 334.5 194 Q 337.9 188.4 348.5 190 L 350.5 190 Q 353.1 190.7 352 188 L 347 187 L 346 184.5 L 346 171.5 L 344.5 170 L 342 168.5 Q 341.3 163.8 344.5 163 L 346.5 162 Z M 348 164 L 344 167 L 346 169 L 348 170 L 348 186 L 351 187 L 352 186 L 352 166 L 348 164 Z M 364 164 L 357 173 Q 356 180 359 183 L 366 187 L 373 185 L 377 177 L 375 169 Q 373 163 364 164 Z M 387 164 L 380 172 Q 378 180 382 183 L 389 187 L 396 185 L 400 177 L 398 169 Q 396 162 387 164 Z M 413 169 L 410 171 L 407 170 L 404 171 L 404 186 L 407 187 Q 409 184 408 176 L 413 173 L 415 176 L 415 186 L 417 187 L 419 186 L 418 179 L 419 176 L 424 173 L 426 177 L 426 186 L 428 187 L 430 184 L 429 173 L 425 169 L 420 171 L 413 169 Z M 356 179 L 354 186 L 352 188 L 359 188 L 356 179 Z M 377 180 Q 378 184 374 186 L 383 188 L 380 182 L 377 180 Z M 402 180 L 397 187 L 397 189 L 402 188 L 402 180 Z M 375 188 L 374 189 Q 367 186 368 192 L 370 193 L 379 193 L 380 190 Q 379 187 375 188 Z M 362 189 Q 360 192 354 190 L 352 192 L 354 195 L 363 193 Q 365 194 364 190 L 362 189 Z M 384 189 L 384 192 L 386 193 L 396 193 L 396 189 L 384 189 Z M 400 190 L 400 193 L 402 194 L 411 195 L 412 191 L 400 190 Z M 343 192 L 336 195 L 338 197 L 347 196 L 349 194 Q 348 191 343 192 Z M 418 192 L 416 196 L 427 198 L 428 196 L 418 192 Z M 367 193 L 362 196 L 353 196 L 352 195 L 343 199 L 336 198 Q 333 202 327 203 L 320 203 L 319 205 L 310 209 L 306 208 L 305 210 L 297 215 L 292 215 L 290 218 L 283 223 Q 276 220 277 226 L 268 233 L 264 233 L 263 236 L 261 239 L 252 243 L 251 248 Q 248 254 241 254 Q 242 258 239 260 L 237 263 Q 236 267 231 266 L 231 271 L 227 277 L 222 279 L 222 284 L 218 291 L 214 294 L 215 296 L 211 305 L 207 307 L 208 310 Q 208 319 202 323 L 203 325 L 201 334 L 198 338 L 199 340 Q 199 348 195 353 L 196 356 L 195 367 L 193 369 L 195 372 L 195 392 L 193 394 Q 192 397 195 396 L 196 400 L 196 408 L 195 409 L 199 419 L 198 426 Q 202 428 203 435 L 203 442 L 205 442 L 209 452 L 208 455 L 210 456 L 215 465 Q 214 471 217 470 L 223 479 Q 220 485 226 484 L 231 491 L 232 496 L 237 498 L 242 507 L 248 510 L 253 516 L 253 519 L 263 524 L 265 529 L 275 533 L 279 539 Q 289 539 294 547 L 296 546 L 305 550 L 308 554 L 310 553 L 320 556 L 321 559 L 324 558 L 335 561 Q 337 566 340 562 L 348 564 Q 352 563 351 566 L 356 565 L 366 566 L 368 568 L 372 566 Q 380 564 383 568 Q 387 569 388 566 L 398 566 L 399 567 L 408 564 L 415 565 L 420 562 L 432 561 L 435 558 L 441 556 L 445 557 L 457 550 L 460 551 Q 464 545 472 543 L 474 544 L 476 541 L 485 535 L 488 535 L 490 530 L 497 526 L 500 526 L 501 523 Q 504 516 512 515 L 514 510 L 520 504 L 523 504 Q 523 497 528 494 L 533 491 L 533 488 L 537 481 Q 538 477 542 478 L 542 473 L 546 465 L 550 464 L 549 463 Q 549 453 555 450 Q 554 441 558 437 L 561 435 L 560 433 Q 559 423 564 420 L 563 416 L 565 406 Q 568 404 566 403 L 566 391 L 568 389 L 566 383 Q 565 376 568 373 L 565 362 L 566 359 L 566 355 L 564 353 L 563 347 L 564 343 Q 565 338 562 339 L 559 330 L 560 327 L 554 315 L 555 311 L 552 309 L 548 301 Q 549 294 547 295 L 540 285 Q 541 280 539 281 Q 533 278 532 270 L 527 267 L 522 258 L 518 255 Q 511 252 511 245 L 507 244 L 500 237 L 491 231 L 487 227 L 476 221 L 474 219 L 463 214 L 459 210 Q 451 211 449 207 Q 445 208 446 206 Q 444 201 443 204 Q 435 205 432 201 Q 429 202 430 199 L 427 200 Q 418 200 414 196 L 412 197 L 400 195 Q 398 191 396 195 Q 387 197 384 193 L 378 195 Q 369 197 367 193 Z M 330 195 L 323 198 Q 320 197 321 201 L 332 199 L 333 197 L 330 195 Z M 433 196 L 431 198 L 432 200 L 442 203 L 443 200 L 433 196 Z M 315 200 L 306 203 L 308 207 L 317 204 Q 319 199 315 200 Z M 448 201 L 446 204 L 455 208 L 458 208 L 459 206 L 448 201 Z M 300 206 L 294 209 Q 289 212 294 214 L 302 210 L 303 208 L 300 206 Z M 464 207 L 460 210 L 469 215 L 473 214 L 472 211 L 464 207 Z M 285 214 L 280 217 Q 275 220 280 222 L 289 216 L 285 214 Z M 478 214 L 475 218 L 483 223 L 487 222 L 478 214 Z M 272 222 L 264 227 L 266 231 L 273 227 L 275 224 L 272 222 Z M 490 224 L 488 226 L 498 233 L 499 230 L 493 224 L 490 224 Z M 259 232 L 252 237 L 254 241 L 263 234 L 259 232 Z M 504 233 L 501 236 L 509 243 Q 513 244 511 239 L 504 233 Z M 248 242 L 240 251 L 244 252 L 250 246 L 250 244 L 248 242 Z M 515 244 L 513 248 L 520 254 L 522 254 L 523 252 L 515 244 Z M 237 254 L 230 262 L 232 265 L 239 257 Q 240 253 237 254 Z M 526 256 L 524 258 L 524 260 L 531 267 L 533 266 L 530 260 L 526 256 Z M 227 266 L 220 276 L 224 277 L 229 268 L 227 266 Z M 536 268 L 534 270 L 534 273 L 540 280 L 543 278 L 536 268 Z M 218 280 L 212 290 L 216 291 L 219 285 L 221 282 L 218 280 Z M 544 282 L 542 284 L 548 293 L 551 292 L 546 284 Q 547 281 544 282 Z M 209 294 L 204 304 L 208 305 L 213 296 L 209 294 Z M 552 296 L 550 298 L 553 305 Q 552 308 555 307 Q 556 309 557 307 L 554 298 L 552 296 Z M 204 308 L 199 319 L 202 320 L 207 310 L 204 308 Z M 558 311 L 556 313 L 561 323 L 563 322 L 560 314 Q 561 310 558 311 Z M 197 323 L 194 334 L 198 335 L 201 325 L 197 323 Z M 563 326 L 561 328 L 563 337 L 567 338 L 565 328 L 563 326 Z M 193 339 L 191 350 L 194 351 L 197 343 Q 199 337 193 339 Z M 566 342 L 564 344 L 567 353 Q 566 356 570 354 L 571 352 L 569 344 L 566 342 Z M 192 354 L 190 356 L 189 366 L 192 367 Q 195 363 194 356 L 192 354 Z M 569 358 L 567 360 L 568 369 L 570 370 L 572 369 Q 574 362 571 361 Q 572 357 569 358 Z M 190 370 L 188 373 L 188 375 L 188 387 L 189 388 L 188 392 L 192 393 L 193 392 L 193 372 L 190 370 Z M 570 373 L 568 376 L 569 386 L 572 386 L 573 384 L 572 374 L 570 373 Z M 570 390 L 568 392 L 568 401 L 570 402 L 572 400 Q 570 393 573 392 L 570 390 Z M 191 396 L 189 398 L 190 408 L 192 409 L 195 408 L 193 398 L 191 396 Z M 568 406 L 566 408 L 567 410 L 565 416 L 569 417 L 571 408 L 568 406 Z M 193 412 L 191 414 L 193 421 Q 191 426 197 424 L 195 414 Q 196 411 193 412 Z M 566 421 L 562 429 Q 560 434 565 433 L 568 425 L 567 423 L 566 421 Z M 196 428 L 194 430 L 197 438 Q 199 442 201 439 L 199 430 L 196 428 Z M 562 436 L 557 445 L 557 448 L 560 449 L 563 441 L 562 436 Z M 202 443 L 200 445 L 203 455 L 207 454 L 204 445 L 202 443 Z M 556 451 L 550 462 L 554 463 L 559 454 L 556 451 Z M 206 458 Q 206 465 211 469 L 214 468 L 210 460 L 206 458 Z M 549 466 L 543 476 L 547 477 L 551 468 L 549 466 Z M 215 472 L 213 474 L 219 483 L 222 482 L 218 475 L 215 472 Z M 541 480 L 534 490 L 538 491 L 543 483 Q 544 479 541 480 Z M 223 486 L 221 488 L 227 497 L 231 495 Q 232 492 229 493 L 227 489 L 223 486 Z M 532 492 L 524 502 L 528 504 L 530 501 L 535 496 L 532 492 Z M 232 498 L 231 501 L 237 509 L 241 508 L 236 501 L 232 498 Z M 522 505 L 514 513 L 516 515 L 518 515 L 525 508 L 522 505 Z M 244 510 L 242 512 L 242 514 L 250 521 L 252 518 L 244 510 Z M 510 517 L 502 523 L 505 527 L 506 526 L 509 524 L 513 519 L 510 517 Z M 256 521 L 253 524 L 261 531 L 263 531 L 264 529 L 256 521 Z M 500 527 L 490 534 L 491 537 L 501 530 L 500 527 Z M 268 531 L 266 535 L 275 541 L 277 537 L 268 531 Z M 486 536 L 479 541 L 477 545 L 481 545 L 488 540 L 486 536 Z M 282 540 L 279 544 L 289 549 L 290 546 L 282 540 Z M 472 545 L 463 549 L 465 553 L 474 549 Q 476 548 474 547 Q 475 544 472 545 Z M 295 548 L 293 552 L 304 556 L 305 554 L 295 548 Z M 457 552 L 451 555 Q 446 557 450 559 Q 456 560 458 556 Q 461 557 460 554 L 457 552 Z M 310 554 L 308 558 L 319 562 L 320 560 L 310 554 Z M 442 558 L 433 561 L 435 565 L 442 562 Q 446 564 445 560 L 442 558 Z M 323 560 L 323 564 L 334 567 L 335 564 L 334 562 L 323 560 Z M 428 562 L 418 566 L 420 569 L 430 566 L 428 562 Z M 340 564 L 338 568 L 350 570 L 351 568 Q 347 564 340 564 Z M 411 566 L 404 567 L 402 569 L 404 571 L 410 570 Q 415 572 414 568 L 411 566 Z M 354 567 L 354 570 L 362 572 Q 368 574 366 568 L 354 567 Z M 372 568 L 370 570 L 372 573 L 374 572 L 381 573 L 382 570 L 381 568 L 372 568 Z M 388 568 L 386 570 L 388 573 L 397 572 L 398 571 L 398 568 L 388 568 Z " /><path fill="rgb(255,230,211)" stroke="rgb(255,230,211)" stroke-width="0" opacity="1" d="M 389.5 167 L 394 169 L 396 175.5 L 394 182 L 387.5 183 Q 383.2 180.8 384 173.5 L 387.5 168 L 389.5 167 Z M 390 170 L 389 171 L 387 172 L 387 180 L 391 181 Q 395 180 393 173 L 390 170 Z " /><path fill="rgb(255,230,211)" stroke="rgb(255,230,211)" stroke-width="0" opacity="1" d="M 364.5 168 Q 369.8 166.8 371 169.5 L 373 176.5 L 368.5 183 L 363 182 Q 360.3 179.4 361 172.5 L 364.5 168 Z M 366 170 L 363 174 L 364 179 L 368 181 Q 372 180 370 173 L 366 170 Z " /></svg>