<svg width="2048" height="2048" viewBox="0 0 760 760" version="1.1" xmlns="http://www.w3.org/2000/svg"  style="background:transparent"><path fill="rgb(0,90,255)" stroke="rgb(0,90,255)" stroke-width="0" opacity="1" d="M 350.5 0 Q 356.6 -1.3 356 1.5 L 357 4.5 L 355.5 6 L 345.5 6 L 344 3.5 L 350.5 0 Z " /><path fill="rgb(0,90,255)" stroke="rgb(0,90,255)" stroke-width="0" opacity="1" d="M 361 0 L 372.5 0 L 373 3.5 L 371.5 5 L 361.5 5 L 360 2.5 L 361 0 Z " /><path fill="rgb(0,90,255)" stroke="rgb(0,90,255)" stroke-width="0" opacity="1" d="M 376 0 L 388.5 0 L 389 3.5 L 387.5 5 L 377.5 5 L 376 0 Z " /><path fill="rgb(0,90,255)" stroke="rgb(0,90,255)" stroke-width="0" opacity="1" d="M 393 0 L 403.5 0 L 404 1.5 L 405 4.5 Q 403.8 7.3 402.5 5 L 393.5 5 L 392 3.5 L 393 0 Z " /><path fill="rgb(0,90,255)" stroke="rgb(0,90,255)" stroke-width="0" opacity="1" d="M 410.5 1 L 419.5 2 L 421 3.5 L 419.5 7 L 409.5 6 L 408 4.5 L 410.5 1 Z " /><path fill="rgb(0,90,255)" stroke="rgb(0,90,255)" stroke-width="0" opacity="1" d="M 337.5 2 L 341 3.5 L 339.5 7 L 329 8 L 328 5.5 L 331.5 3 L 337.5 2 Z " /><path fill="rgb(0,90,255)" stroke="rgb(0,90,255)" stroke-width="0" opacity="1" d="M 425.5 3 L 435.5 4 L 437 5.5 L 435.5 9 L 425 8 L 424 4.5 L 425.5 3 Z " /><path fill="rgb(0,90,255)" stroke="rgb(0,90,255)" stroke-width="0" opacity="1" d="M 322.5 4 L 325 5.5 Q 326.8 10.8 321.5 9 L 314.5 11 L 312 7.5 L 322.5 4 Z " /><path fill="rgb(0,90,255)" stroke="rgb(0,90,255)" stroke-width="0" opacity="1" d="M 441.5 5 L 450.5 6 L 453 8.5 L 451.5 11 Q 443.6 11.9 440 8.5 L 441.5 5 Z " /><path fill="rgb(0,90,255)" stroke="rgb(0,90,255)" stroke-width="0" opacity="1" d="M 306.5 7 L 309 8.5 Q 310.7 13.3 306.5 12 L 299.5 14 L 297 13 L 298.5 9 L 306.5 7 Z " /><path fill="rgb(0,90,255)" stroke="rgb(0,90,255)" stroke-width="0" opacity="1" d="M 457.5 8 L 467.5 10 L 469 11.5 L 466.5 15 L 456 11.5 L 457.5 8 Z " /><path fill="rgb(0,90,255)" stroke="rgb(0,90,255)" stroke-width="0" opacity="1" d="M 346.5 10 Q 356 8 358 13.5 Q 359.3 21.8 354.5 24 L 350 27.5 L 358 29 L 359 31.5 L 357.5 33 L 343.5 33 L 342 29.5 L 353 19.5 Q 354 15 351.5 14 L 348.5 14 L 344.5 17 L 343 13.5 L 346.5 10 Z " /><path fill="rgb(0,90,255)" stroke="rgb(0,90,255)" stroke-width="0" opacity="1" d="M 367.5 10 Q 378 8 380 14.5 L 382 22.5 Q 381.1 29.1 376.5 32 L 368.5 33 L 364 29.5 Q 360 26 362 16.5 L 367.5 10 Z M 370 14 L 367 17 L 366 22 L 368 28 L 371 29 L 375 28 L 377 24 L 376 17 Q 375 13 370 14 Z " /><path fill="rgb(0,90,255)" stroke="rgb(0,90,255)" stroke-width="0" opacity="1" d="M 391.5 10 Q 400.5 8.5 403 13.5 Q 405.9 17.1 405 24.5 L 399.5 32 L 391.5 33 L 387 29.5 Q 383.7 25.8 385 17.5 L 389.5 11 L 391.5 10 Z M 394 14 L 391 15 L 389 22 Q 389 27 394 29 L 398 28 Q 401 25 400 18 Q 399 13 394 14 Z " /><path fill="rgb(0,90,255)" stroke="rgb(0,90,255)" stroke-width="0" opacity="1" d="M 289.5 11 L 294 12.5 Q 295.3 16.3 291.5 15 Q 288.3 18 282 17 Q 280.1 12.2 283.5 13 L 289.5 11 Z " /><path fill="rgb(0,90,255)" stroke="rgb(0,90,255)" stroke-width="0" opacity="1" d="M 472 12 Q 479.7 11.2 484 15.5 L 481.5 19 L 472 15.5 L 472 12 Z " /><path fill="rgb(0,90,255)" stroke="rgb(0,90,255)" stroke-width="0" opacity="1" d="M 274.5 15 Q 278.9 13.5 278 16.5 Q 280.3 17.8 277.5 19 L 267.5 22 L 266 18.5 L 274.5 15 Z " /><path fill="rgb(0,90,255)" stroke="rgb(0,90,255)" stroke-width="0" opacity="1" d="M 410.5 15 L 413.5 17 L 419.5 15 L 423.5 17 L 430.5 15 L 434 17.5 L 435 19.5 L 435 31.5 L 432.5 33 L 430 30.5 L 430 20 L 425 20 L 425 21.5 L 424 22.5 L 424 31.5 L 422.5 33 L 420 31.5 L 419 28.5 L 420 23.5 L 416.5 19 L 414 20 Q 411.9 23.3 413 31.5 L 411.5 33 L 409 31.5 L 408 29.5 L 408 17.5 L 410.5 15 Z " /><path fill="rgb(0,90,255)" stroke="rgb(0,90,255)" stroke-width="0" opacity="1" d="M 488.5 16 L 499 19.5 L 497.5 23 L 487 19.5 L 488.5 16 Z " /><path fill="rgb(0,90,255)" stroke="rgb(0,90,255)" stroke-width="0" opacity="1" d="M 261.5 19 L 263 24 L 252.5 27 L 251 23.5 L 261.5 19 Z " /><path fill="rgb(0,90,255)" stroke="rgb(0,90,255)" stroke-width="0" opacity="1" d="M 503.5 21 Q 511 21.5 515 25.5 L 514 28 Q 506.3 28.7 502 25 L 503.5 21 Z " /><path fill="rgb(0,90,255)" stroke="rgb(0,90,255)" stroke-width="0" opacity="1" d="M 244.5 25 L 248 26.5 Q 249.1 29.8 246.5 29 L 237.5 33 L 236 29.5 L 244.5 25 Z " /><path fill="rgb(0,90,255)" stroke="rgb(0,90,255)" stroke-width="0" opacity="1" d="M 519.5 26 L 529 30 L 527.5 35 L 517 29.5 Q 515.9 26.2 518.5 27 L 519.5 26 Z " /><path fill="rgb(0,90,255)" stroke="rgb(0,90,255)" stroke-width="0" opacity="1" d="M 229.5 31 L 233 32.5 L 231.5 36 L 222 39 L 221 35.5 L 229.5 31 Z " /><path fill="rgb(0,90,255)" stroke="rgb(0,90,255)" stroke-width="0" opacity="1" d="M 533.5 32 L 544 37.5 L 543 41 L 532 37 L 533.5 32 Z " /><path fill="rgb(0,90,255)" stroke="rgb(0,90,255)" stroke-width="0" opacity="1" d="M 214.5 38 L 219 39.5 L 216.5 43 L 208.5 46 L 207 42.5 L 214.5 38 Z " /><path fill="rgb(0,90,255)" stroke="rgb(0,90,255)" stroke-width="0" opacity="1" d="M 547.5 40 L 550.5 40 L 558 44.5 L 556.5 48 L 546 42.5 L 547.5 40 Z " /><path fill="rgb(0,90,255)" stroke="rgb(0,90,255)" stroke-width="0" opacity="1" d="M 200.5 45 L 205 46.5 L 202.5 50 L 193 53 Q 191.1 48.2 194.5 49 L 200.5 45 Z " /><path fill="rgb(0,90,255)" stroke="rgb(0,90,255)" stroke-width="0" opacity="1" d="M 561.5 47 Q 568.6 47.9 572 52.5 Q 573.1 55.8 570.5 55 L 568.5 55 L 560 49.5 L 561.5 47 Z " /><path fill="rgb(0,90,255)" stroke="rgb(0,90,255)" stroke-width="0" opacity="1" d="M 186.5 53 L 191 54.5 L 188.5 58 L 181.5 62 L 179 61 Q 178.3 57.2 181.5 56 L 186.5 53 Z " /><path fill="rgb(0,90,255)" stroke="rgb(0,90,255)" stroke-width="0" opacity="1" d="M 575.5 55 L 586 60 L 584.5 64 Q 577.1 62.9 574 57.5 L 575.5 55 Z " /><path fill="rgb(0,90,255)" stroke="rgb(0,90,255)" stroke-width="0" opacity="1" d="M 174.5 61 L 177 62.5 L 175.5 66 L 167.5 71 L 165 67.5 L 174.5 61 Z " /><path fill="rgb(0,90,255)" stroke="rgb(0,90,255)" stroke-width="0" opacity="1" d="M 589.5 63 L 599 69.5 L 597.5 73 L 588 68 L 589.5 63 Z " /><path fill="rgb(0,90,255)" stroke="rgb(0,90,255)" stroke-width="0" opacity="1" d="M 160.5 70 Q 163.8 68.9 163 71.5 L 164 73.5 L 155.5 80 L 152 77.5 L 160.5 70 Z " /><path fill="rgb(0,90,255)" stroke="rgb(0,90,255)" stroke-width="0" opacity="1" d="M 603.5 72 L 612 78 Q 612.8 81.8 609.5 83 L 601 77 Q 600.3 73.2 603.5 72 Z " /><path fill="rgb(0,90,255)" stroke="rgb(0,90,255)" stroke-width="0" opacity="1" d="M 147.5 80 L 151 81.5 Q 152.1 84.8 149.5 84 L 143.5 89 L 140 89 Q 139.3 83.5 144.5 82 L 147.5 80 Z " /><path fill="rgb(0,90,255)" stroke="rgb(0,90,255)" stroke-width="0" opacity="1" d="M 615.5 82 L 625 89.5 L 623.5 92 L 620.5 92 L 613 85.5 L 615.5 82 Z " /><path fill="rgb(0,90,255)" stroke="rgb(0,90,255)" stroke-width="0" opacity="1" d="M 134 90 L 139 91.5 L 134.5 97 L 129.5 100 L 127 97.5 L 132.5 92 Q 135.1 92.7 134 90 Z " /><path fill="rgb(0,90,255)" stroke="rgb(0,90,255)" stroke-width="0" opacity="1" d="M 626 93 L 629.5 93 L 637 99.5 L 634.5 103 L 626 97 L 626 93 Z " /><path fill="rgb(0,90,255)" stroke="rgb(0,90,255)" stroke-width="0" opacity="1" d="M 123.5 100 L 127 102.5 L 122.5 108 L 117.5 111 L 116 107.5 L 123.5 100 Z " /><path fill="rgb(0,90,255)" stroke="rgb(0,90,255)" stroke-width="0" opacity="1" d="M 639.5 103 L 649 111.5 L 645.5 114 L 638 106.5 L 638 104.5 L 639.5 103 Z " /><path fill="rgb(0,90,255)" stroke="rgb(0,90,255)" stroke-width="0" opacity="1" d="M 111.5 112 Q 116.3 110.3 115 114.5 L 109 122 Q 105.2 122.8 104 119.5 L 111.5 112 Z " /><path fill="rgb(0,90,255)" stroke="rgb(0,90,255)" stroke-width="0" opacity="1" d="M 651.5 114 L 659 121.5 L 659 125 L 654 123.5 L 649 116.5 L 651.5 114 Z " /><path fill="rgb(0,90,255)" stroke="rgb(0,90,255)" stroke-width="0" opacity="1" d="M 100.5 123 L 104 124.5 L 104 126.5 L 96.5 134 L 94 132.5 L 94 130.5 L 100.5 123 Z " /><path fill="rgb(0,90,255)" stroke="rgb(0,90,255)" stroke-width="0" opacity="1" d="M 661.5 126 L 670 133.5 L 668.5 137 L 664 134.5 L 660 127.5 L 661.5 126 Z " /><path fill="rgb(0,90,255)" stroke="rgb(0,90,255)" stroke-width="0" opacity="1" d="M 90.5 135 L 94 137.5 L 86.5 146 Q 83.2 147.1 84 144.5 L 83 143.5 L 86 140.5 L 90.5 135 Z " /><path fill="rgb(0,90,255)" stroke="rgb(0,90,255)" stroke-width="0" opacity="1" d="M 672.5 138 L 676 140.5 L 681 147.5 L 677.5 150 L 670 140.5 L 672.5 138 Z " /><path fill="rgb(0,90,255)" stroke="rgb(0,90,255)" stroke-width="0" opacity="1" d="M 79.5 148 Q 84.8 146.3 83 151.5 L 76.5 159 L 74 157.5 L 79.5 148 Z " /><path fill="rgb(0,90,255)" stroke="rgb(0,90,255)" stroke-width="0" opacity="1" d="M 682.5 151 L 686 153.5 L 690 160.5 Q 687 166 684 159.5 L 680 152 L 682.5 151 Z " /><path fill="rgb(0,90,255)" stroke="rgb(0,90,255)" stroke-width="0" opacity="1" d="M 71.5 160 L 74 163.5 L 67.5 172 L 64 169.5 L 71.5 160 Z " /><path fill="rgb(0,90,255)" stroke="rgb(0,90,255)" stroke-width="0" opacity="1" d="M 691.5 164 Q 694.8 162.9 694 165.5 L 699 173.5 L 695.5 175 Q 690.9 172.1 690 165.5 L 691.5 164 Z " /><path fill="rgb(0,90,255)" stroke="rgb(0,90,255)" stroke-width="0" opacity="1" d="M 61.5 174 L 65 175.5 L 59.5 185 L 56 183.5 L 61.5 174 Z " /><path fill="rgb(0,90,255)" stroke="rgb(0,90,255)" stroke-width="0" opacity="1" d="M 701.5 177 L 707 184.5 L 707 189 Q 703.2 189.8 702 186.5 L 698 179.5 L 701.5 177 Z " /><path fill="rgb(0,90,255)" stroke="rgb(0,90,255)" stroke-width="0" opacity="1" d="M 53.5 187 L 57 189.5 L 52 199 L 48 197.5 L 53.5 187 Z " /><path fill="rgb(0,90,255)" stroke="rgb(0,90,255)" stroke-width="0" opacity="1" d="M 708.5 191 L 712 193.5 L 715 198.5 L 715 201.5 L 712.5 203 L 706 193.5 L 708.5 191 Z " /><path fill="rgb(0,90,255)" stroke="rgb(0,90,255)" stroke-width="0" opacity="1" d="M 45.5 201 L 49 203.5 L 43.5 213 L 40 211.5 L 45.5 201 Z " /><path fill="rgb(0,90,255)" stroke="rgb(0,90,255)" stroke-width="0" opacity="1" d="M 716.5 205 L 719 206.5 L 723 215.5 L 719.5 217 L 714 207.5 L 716.5 205 Z " /><path fill="rgb(0,90,255)" stroke="rgb(0,90,255)" stroke-width="0" opacity="1" d="M 37 216 L 42 217.5 L 38 227 L 35.5 228 Q 31.3 226.3 34 224.5 L 37 216 Z " /><path fill="rgb(0,90,255)" stroke="rgb(0,90,255)" stroke-width="0" opacity="1" d="M 722.5 220 Q 726.9 218.5 726 221.5 L 730 229.5 L 725 231 L 721 221.5 L 722.5 220 Z " /><path fill="rgb(0,90,255)" stroke="rgb(0,90,255)" stroke-width="0" opacity="1" d="M 31.5 230 L 35 231.5 Q 34.1 239.1 29.5 243 L 27 239.5 L 31.5 230 Z " /><path fill="rgb(0,90,255)" stroke="rgb(0,90,255)" stroke-width="0" opacity="1" d="M 729.5 234 L 733 236.5 L 735 246 Q 730.2 247.9 731 244.5 L 728 235.5 L 729.5 234 Z " /><path fill="rgb(0,90,255)" stroke="rgb(0,90,255)" stroke-width="0" opacity="1" d="M 25.5 245 L 29 246.5 L 26 257 L 21 255.5 L 25.5 245 Z " /><path fill="rgb(0,90,255)" stroke="rgb(0,90,255)" stroke-width="0" opacity="1" d="M 735.5 249 L 739 251.5 L 741 259.5 L 737.5 261 L 734 254.5 L 734 250.5 L 735.5 249 Z " /><path fill="rgb(0,90,255)" stroke="rgb(0,90,255)" stroke-width="0" opacity="1" d="M 20.5 260 L 24 261.5 L 19.5 273 L 17 271.5 Q 16.5 263.5 20.5 260 Z " /><path fill="rgb(0,90,255)" stroke="rgb(0,90,255)" stroke-width="0" opacity="1" d="M 740.5 264 L 743 265.5 L 746 276 L 743.5 277 L 741 276 L 739 265.5 L 740.5 264 Z " /><path fill="rgb(0,90,255)" stroke="rgb(0,90,255)" stroke-width="0" opacity="1" d="M 15.5 276 Q 20.8 274.3 19 279.5 L 15.5 288 L 12 286.5 L 15.5 276 Z " /><path fill="rgb(0,90,255)" stroke="rgb(0,90,255)" stroke-width="0" opacity="1" d="M 744.5 280 L 748 281.5 L 750 290.5 L 746.5 292 L 743 281.5 L 744.5 280 Z " /><path fill="rgb(0,90,255)" stroke="rgb(0,90,255)" stroke-width="0" opacity="1" d="M 11 291 L 15 292.5 Q 15 300 11.5 304 L 8 301.5 L 11 291 Z " /><path fill="rgb(0,90,255)" stroke="rgb(0,90,255)" stroke-width="0" opacity="1" d="M 748.5 295 Q 751.8 293.9 751 296.5 Q 754 299.5 753 306.5 L 750.5 308 L 748 304.5 L 747 296.5 L 748.5 295 Z " /><path fill="rgb(0,90,255)" stroke="rgb(0,90,255)" stroke-width="0" opacity="1" d="M 7 307 L 11 307 L 11 315.5 L 10 319 L 5 317.5 L 7 307 Z " /><path fill="rgb(0,90,255)" stroke="rgb(0,90,255)" stroke-width="0" opacity="1" d="M 751.5 311 L 755 312.5 L 756 323 Q 751.2 324.9 752 321.5 L 750 312.5 L 751.5 311 Z " /><path fill="rgb(0,90,255)" stroke="rgb(0,90,255)" stroke-width="0" opacity="1" d="M 5.5 322 L 9 323.5 L 8 333.5 L 6.5 335 L 3 333.5 L 4 323.5 L 5.5 322 Z " /><path fill="rgb(0,90,255)" stroke="rgb(0,90,255)" stroke-width="0" opacity="1" d="M 753 327 Q 758.2 324.9 757 329.5 L 759 337.5 L 754 339 L 753 327 Z " /><path fill="rgb(0,90,255)" stroke="rgb(0,90,255)" stroke-width="0" opacity="1" d="M 3.5 338 L 7 339.5 Q 8.3 347.8 4.5 351 L 1 349.5 L 2 348.5 L 2 339.5 L 3.5 338 Z " /><path fill="rgb(0,90,255)" stroke="rgb(0,90,255)" stroke-width="0" opacity="1" d="M 756.5 342 L 759 343.5 L 760 353.5 L 756.5 355 L 755 353.5 Q 756.7 347.3 754 345.5 L 756.5 342 Z " /><path fill="rgb(0,90,255)" stroke="rgb(0,90,255)" stroke-width="0" opacity="1" d="M 3.5 354 L 6 357.5 Q 3.2 359.2 5 365.5 L 3.5 367 L 0 366.5 L 0 355 L 3.5 354 Z " /><path fill="rgb(0,90,255)" stroke="rgb(0,90,255)" stroke-width="0" opacity="1" d="M 756 359 L 760 359 L 760 371 L 756 369.5 L 756 359 Z " /><path fill="rgb(0,90,255)" stroke="rgb(0,90,255)" stroke-width="0" opacity="1" d="M 0 370 L 5 371.5 L 5 389.5 L 0 390 L 0 370 Z " /><path fill="rgb(0,90,255)" stroke="rgb(0,90,255)" stroke-width="0" opacity="1" d="M 757.5 374 L 760 374.5 L 760 387 L 756 385.5 L 756 375.5 L 757.5 374 Z " /><path fill="rgb(0,90,255)" stroke="rgb(0,90,255)" stroke-width="0" opacity="1" d="M 757.5 390 L 760 391.5 L 760 403 L 756 403 L 756 391.5 L 757.5 390 Z " /><path fill="rgb(0,90,255)" stroke="rgb(0,90,255)" stroke-width="0" opacity="1" d="M 0 394 L 5 395.5 Q 3.2 401.7 6 403.5 L 5 406 L 0 406 L 0 394 Z " /><path fill="rgb(0,90,255)" stroke="rgb(0,90,255)" stroke-width="0" opacity="1" d="M 757.5 406 L 760 407 L 759 417.5 L 757.5 419 L 754 417.5 L 755 407 L 757.5 406 Z " /><path fill="rgb(0,90,255)" stroke="rgb(0,90,255)" stroke-width="0" opacity="1" d="M 2.5 410 Q 7.8 408.3 6 413.5 L 7 420.5 L 3.5 422 L 2 420.5 L 2 412.5 L 1 411.5 L 2.5 410 Z " /><path fill="rgb(0,90,255)" stroke="rgb(0,90,255)" stroke-width="0" opacity="1" d="M 755.5 422 L 758 423.5 Q 759.3 431.8 755.5 435 L 752 433.5 L 754 423.5 L 755.5 422 Z " /><path fill="rgb(0,90,255)" stroke="rgb(0,90,255)" stroke-width="0" opacity="1" d="M 4.5 426 L 8 427.5 L 9 436.5 L 5.5 438 L 4 436.5 L 3 427.5 L 4.5 426 Z " /><path fill="rgb(0,90,255)" stroke="rgb(0,90,255)" stroke-width="0" opacity="1" d="M 753.5 438 L 756 439.5 L 755 449.5 L 753.5 451 L 750 449.5 L 751 441.5 L 753.5 438 Z " /><path fill="rgb(0,90,255)" stroke="rgb(0,90,255)" stroke-width="0" opacity="1" d="M 7.5 441 L 10 442 L 11 454 L 7 452.5 L 5 443.5 L 7.5 441 Z " /><path fill="rgb(0,90,255)" stroke="rgb(0,90,255)" stroke-width="0" opacity="1" d="M 749 454 L 753 455.5 Q 753.9 463.9 749.5 467 L 747 465.5 L 749 454 Z " /><path fill="rgb(0,90,255)" stroke="rgb(0,90,255)" stroke-width="0" opacity="1" d="M 9 457 L 13 458.5 L 15 467.5 L 11.5 470 L 8 459.5 L 9 457 Z " /><path fill="rgb(0,90,255)" stroke="rgb(0,90,255)" stroke-width="0" opacity="1" d="M 746.5 470 L 750 471.5 L 747 482 L 743 480.5 L 746.5 470 Z " /><path fill="rgb(0,90,255)" stroke="rgb(0,90,255)" stroke-width="0" opacity="1" d="M 12 473 Q 19.1 470.3 17 477.5 L 19 483.5 L 15.5 485 L 14 483.5 L 12 473 Z " /><path fill="rgb(0,90,255)" stroke="rgb(0,90,255)" stroke-width="0" opacity="1" d="M 742.5 485 Q 745.8 483.9 745 486.5 L 745 488.5 L 745 491.5 L 741.5 498 L 738 495.5 L 742.5 485 Z " /><path fill="rgb(0,90,255)" stroke="rgb(0,90,255)" stroke-width="0" opacity="1" d="M 17.5 488 L 21 489.5 Q 23.9 493.4 23 500 Q 18.2 501.9 19 498.5 L 16 489.5 L 17.5 488 Z " /><path fill="rgb(0,90,255)" stroke="rgb(0,90,255)" stroke-width="0" opacity="1" d="M 737.5 500 L 741 501.5 L 738 512 L 735.5 513 Q 731.3 511.2 734 509.5 L 734 506.5 L 737.5 500 Z " /><path fill="rgb(0,90,255)" stroke="rgb(0,90,255)" stroke-width="0" opacity="1" d="M 23.5 503 L 26 504.5 L 29 513.5 L 25.5 515 L 21 505.5 L 23.5 503 Z " /><path fill="rgb(0,90,255)" stroke="rgb(0,90,255)" stroke-width="0" opacity="1" d="M 732.5 515 L 735 516 L 732 527 L 727 525.5 L 730 517.5 L 732.5 515 Z " /><path fill="rgb(0,90,255)" stroke="rgb(0,90,255)" stroke-width="0" opacity="1" d="M 28.5 518 L 32 520.5 L 35 528.5 L 30 530 L 27 519.5 L 28.5 518 Z " /><path fill="rgb(0,90,255)" stroke="rgb(0,90,255)" stroke-width="0" opacity="1" d="M 725 530 L 729 531.5 L 729 534.5 L 724.5 542 L 721 540.5 L 725 530 Z " /><path fill="rgb(0,90,255)" stroke="rgb(0,90,255)" stroke-width="0" opacity="1" d="M 34.5 533 L 38 534.5 L 41 543.5 L 37 545 L 33 534.5 L 34.5 533 Z " /><path fill="rgb(0,90,255)" stroke="rgb(0,90,255)" stroke-width="0" opacity="1" d="M 719.5 544 L 722 545 L 722 548.5 L 717.5 557 L 714 556 L 719.5 544 Z " /><path fill="rgb(0,90,255)" stroke="rgb(0,90,255)" stroke-width="0" opacity="1" d="M 43.5 547 L 49 557.5 L 45.5 559 Q 40.6 555.3 40 548 L 43.5 547 Z " /><path fill="rgb(0,90,255)" stroke="rgb(0,90,255)" stroke-width="0" opacity="1" d="M 711.5 559 L 715 560.5 L 709.5 571 L 706 568.5 L 711.5 559 Z " /><path fill="rgb(0,90,255)" stroke="rgb(0,90,255)" stroke-width="0" opacity="1" d="M 49.5 561 L 52 562 L 56 569.5 L 56 573 Q 51.2 574.9 52 571.5 L 47 563.5 L 49.5 561 Z " /><path fill="rgb(0,90,255)" stroke="rgb(0,90,255)" stroke-width="0" opacity="1" d="M 703.5 573 L 707 574.5 L 701.5 584 L 698 582.5 L 703.5 573 Z " /><path fill="rgb(0,90,255)" stroke="rgb(0,90,255)" stroke-width="0" opacity="1" d="M 57.5 575 L 61 577.5 L 65 585.5 L 61.5 587 L 55 577.5 L 57.5 575 Z " /><path fill="rgb(0,90,255)" stroke="rgb(0,90,255)" stroke-width="0" opacity="1" d="M 695.5 586 L 699 587 L 694 597 L 691.5 598 Q 687.3 596.3 690 594.5 L 695.5 586 Z " /><path fill="rgb(0,90,255)" stroke="rgb(0,90,255)" stroke-width="0" opacity="1" d="M 65.5 589 L 70 591.5 L 74 597.5 L 73 600 Q 69.2 600.8 68 597.5 L 64 590.5 L 65.5 589 Z " /><path fill="rgb(0,90,255)" stroke="rgb(0,90,255)" stroke-width="0" opacity="1" d="M 687.5 599 Q 691.8 600.7 689 602.5 L 682.5 611 L 680 609.5 L 685.5 600 L 687.5 599 Z " /><path fill="rgb(0,90,255)" stroke="rgb(0,90,255)" stroke-width="0" opacity="1" d="M 74.5 602 L 79 604.5 L 83 611.5 L 79.5 613 L 73 603.5 L 74.5 602 Z " /><path fill="rgb(0,90,255)" stroke="rgb(0,90,255)" stroke-width="0" opacity="1" d="M 676.5 612 L 680 613.5 L 673.5 623 L 670 621.5 L 670 619.5 L 676.5 612 Z " /><path fill="rgb(0,90,255)" stroke="rgb(0,90,255)" stroke-width="0" opacity="1" d="M 85.5 614 Q 91.6 617.7 93 625 Q 86.6 626 85 620.5 L 83 616.5 L 85.5 614 Z " /><path fill="rgb(0,90,255)" stroke="rgb(0,90,255)" stroke-width="0" opacity="1" d="M 667.5 624 L 670 627.5 L 663.5 635 Q 658.3 636.8 660 631.5 L 667.5 624 Z " /><path fill="rgb(0,90,255)" stroke="rgb(0,90,255)" stroke-width="0" opacity="1" d="M 95.5 626 L 104 635.5 Q 102.3 639.8 100.5 637 L 96 633.5 L 93 629.5 L 95.5 626 Z " /><path fill="rgb(0,90,255)" stroke="rgb(0,90,255)" stroke-width="0" opacity="1" d="M 655.5 636 L 659 637.5 L 659 639.5 L 651.5 647 L 649 645.5 L 649 643.5 L 655.5 636 Z " /><path fill="rgb(0,90,255)" stroke="rgb(0,90,255)" stroke-width="0" opacity="1" d="M 105.5 639 L 107.5 639 L 114 645.5 L 115 647.5 L 111.5 649 L 104 640.5 L 105.5 639 Z " /><path fill="rgb(0,90,255)" stroke="rgb(0,90,255)" stroke-width="0" opacity="1" d="M 644.5 648 L 648 649.5 L 640.5 658 Q 637.2 659.1 638 656.5 L 637 655.5 L 644.5 648 Z " /><path fill="rgb(0,90,255)" stroke="rgb(0,90,255)" stroke-width="0" opacity="1" d="M 116 650 L 118.5 650 L 126 656.5 L 123.5 661 L 116 653.5 L 116 650 Z " /><path fill="rgb(0,90,255)" stroke="rgb(0,90,255)" stroke-width="0" opacity="1" d="M 632.5 659 L 637 661.5 L 628.5 669 L 626 669 L 626 664 L 627.5 664 L 632.5 659 Z " /><path fill="rgb(0,90,255)" stroke="rgb(0,90,255)" stroke-width="0" opacity="1" d="M 129.5 660 L 138 667.5 L 136.5 671 L 134.5 671 L 127 663.5 L 129.5 660 Z " /><path fill="rgb(0,90,255)" stroke="rgb(0,90,255)" stroke-width="0" opacity="1" d="M 621.5 669 L 624 670 Q 624.8 674.7 620.5 676 L 614.5 679 L 613 675.5 L 621.5 669 Z " /><path fill="rgb(0,90,255)" stroke="rgb(0,90,255)" stroke-width="0" opacity="1" d="M 141.5 671 L 150 677.5 L 148.5 681 L 140 676 L 139 673.5 L 141.5 671 Z " /><path fill="rgb(0,90,255)" stroke="rgb(0,90,255)" stroke-width="0" opacity="1" d="M 608.5 679 L 612 681.5 L 603.5 689 L 601 689 L 600 685.5 L 608.5 679 Z " /><path fill="rgb(0,90,255)" stroke="rgb(0,90,255)" stroke-width="0" opacity="1" d="M 153.5 681 L 163 687.5 L 161.5 691 L 152 684.5 L 153.5 681 Z " /><path fill="rgb(0,90,255)" stroke="rgb(0,90,255)" stroke-width="0" opacity="1" d="M 594.5 689 L 599 690.5 L 596.5 694 L 588 698 L 587 695.5 L 594.5 689 Z " /><path fill="rgb(0,90,255)" stroke="rgb(0,90,255)" stroke-width="0" opacity="1" d="M 167.5 690 L 177 697.5 L 173.5 700 L 165 693.5 L 167.5 690 Z " /><path fill="rgb(0,90,255)" stroke="rgb(0,90,255)" stroke-width="0" opacity="1" d="M 583.5 697 L 585 702 L 575.5 707 L 574 702 L 583.5 697 Z " /><path fill="rgb(0,90,255)" stroke="rgb(0,90,255)" stroke-width="0" opacity="1" d="M 179.5 699 L 190 704 L 188.5 708 Q 181.1 706.9 178 701.5 L 179.5 699 Z " /><path fill="rgb(0,90,255)" stroke="rgb(0,90,255)" stroke-width="0" opacity="1" d="M 567.5 706 Q 572.8 704.3 571 709.5 L 561.5 715 L 560 711.5 L 567.5 706 Z " /><path fill="rgb(0,90,255)" stroke="rgb(0,90,255)" stroke-width="0" opacity="1" d="M 193.5 707 L 204 712 L 202.5 716 L 192 710.5 L 193.5 707 Z " /><path fill="rgb(0,90,255)" stroke="rgb(0,90,255)" stroke-width="0" opacity="1" d="M 555.5 713 L 557 718 L 547.5 722 Q 542.5 719.5 547.5 717 L 555.5 713 Z " /><path fill="rgb(0,90,255)" stroke="rgb(0,90,255)" stroke-width="0" opacity="1" d="M 207.5 715 L 218 719 Q 220.2 724.6 214.5 723 L 206 717.5 L 207.5 715 Z " /><path fill="rgb(0,90,255)" stroke="rgb(0,90,255)" stroke-width="0" opacity="1" d="M 540.5 720 L 543 721.5 Q 544.5 725.9 541.5 725 L 533.5 729 L 531 725.5 L 540.5 720 Z " /><path fill="rgb(0,90,255)" stroke="rgb(0,90,255)" stroke-width="0" opacity="1" d="M 221 722 L 224.5 722 L 233 727.5 L 231.5 730 Q 224.6 729.4 221 725.5 L 221 722 Z " /><path fill="rgb(0,90,255)" stroke="rgb(0,90,255)" stroke-width="0" opacity="1" d="M 525.5 727 L 529 728.5 L 526.5 732 L 517 735 L 516 731.5 L 525.5 727 Z " /><path fill="rgb(0,90,255)" stroke="rgb(0,90,255)" stroke-width="0" opacity="1" d="M 237.5 728 L 245.5 731 L 248 733.5 L 247 736 L 235 731.5 L 237.5 728 Z " /><path fill="rgb(0,90,255)" stroke="rgb(0,90,255)" stroke-width="0" opacity="1" d="M 510.5 733 Q 513.8 731.9 513 734.5 Q 515.8 736.3 511.5 738 L 503.5 741 L 501 737.5 L 510.5 733 Z " /><path fill="rgb(0,90,255)" stroke="rgb(0,90,255)" stroke-width="0" opacity="1" d="M 251.5 734 L 262 737 L 263 739.5 Q 262 742 257.5 741 L 250 737.5 L 251.5 734 Z " /><path fill="rgb(0,90,255)" stroke="rgb(0,90,255)" stroke-width="0" opacity="1" d="M 494.5 738 Q 498.9 736.5 498 739.5 L 499 741.5 L 491.5 745 L 487.5 745 L 486 742.5 L 494.5 738 Z " /><path fill="rgb(0,90,255)" stroke="rgb(0,90,255)" stroke-width="0" opacity="1" d="M 266 739 L 278 742 L 276.5 746 Q 268.3 746.3 265 741.5 L 266 739 Z " /><path fill="rgb(0,90,255)" stroke="rgb(0,90,255)" stroke-width="0" opacity="1" d="M 481.5 742 L 483 747 Q 478.8 749.9 471 749 Q 468.9 743.8 473.5 745 L 481.5 742 Z " /><path fill="rgb(0,90,255)" stroke="rgb(0,90,255)" stroke-width="0" opacity="1" d="M 281 744 L 293 746 L 291.5 751 L 281 748 L 281 744 Z " /><path fill="rgb(0,90,255)" stroke="rgb(0,90,255)" stroke-width="0" opacity="1" d="M 465.5 746 L 468 749.5 Q 464.5 753.5 456.5 753 L 455 749 L 465.5 746 Z " /><path fill="rgb(0,90,255)" stroke="rgb(0,90,255)" stroke-width="0" opacity="1" d="M 297 747 L 304.5 748 L 309 750.5 L 307.5 754 L 297 752 L 296 749.5 L 297 747 Z " /><path fill="rgb(0,90,255)" stroke="rgb(0,90,255)" stroke-width="0" opacity="1" d="M 313.5 750 L 323.5 752 L 325 753.5 L 322.5 757 L 312 753.5 L 313.5 750 Z " /><path fill="rgb(0,90,255)" stroke="rgb(0,90,255)" stroke-width="0" opacity="1" d="M 446.5 750 Q 451 749 452 751.5 Q 453.1 754.8 450.5 754 L 440 756 L 439 753.5 L 441.5 751 L 446.5 750 Z " /><path fill="rgb(0,90,255)" stroke="rgb(0,90,255)" stroke-width="0" opacity="1" d="M 432.5 752 L 436 753 Q 438.3 759 431.5 757 L 424 758 Q 421.9 752.8 426.5 754 L 432.5 752 Z " /><path fill="rgb(0,90,255)" stroke="rgb(0,90,255)" stroke-width="0" opacity="1" d="M 329.5 753 L 339.5 754 L 341 755.5 L 338.5 759 L 328 757 L 329.5 753 Z " /><path fill="rgb(0,90,255)" stroke="rgb(0,90,255)" stroke-width="0" opacity="1" d="M 415.5 754 Q 420.3 753.3 421 756.5 L 419.5 759 L 409.5 760 L 408 756.5 L 415.5 754 Z " /><path fill="rgb(0,90,255)" stroke="rgb(0,90,255)" stroke-width="0" opacity="1" d="M 344 755 L 354.5 755 L 357 757.5 L 356 760 L 344 759 L 344 755 Z " /><path fill="rgb(0,90,255)" stroke="rgb(0,90,255)" stroke-width="0" opacity="1" d="M 360 756 L 372 756 L 372 760 L 360 760 L 360 756 Z " /><path fill="rgb(0,90,255)" stroke="rgb(0,90,255)" stroke-width="0" opacity="1" d="M 377.5 756 L 388 756 L 388 760 L 376.5 760 L 376 757.5 L 377.5 756 Z " /><path fill="rgb(0,90,255)" stroke="rgb(0,90,255)" stroke-width="0" opacity="1" d="M 393.5 756 L 404 756 L 404 760 L 392.5 760 L 392 757.5 L 393.5 756 Z " /><path fill="rgb(0,236,0)" stroke="rgb(0,236,0)" stroke-width="0" opacity="1" d="M 380.5 334 L 413 342 Q 414.5 345.8 411.5 345 L 384 355 L 384 363.5 L 385.5 364 Q 393.1 365.9 397 371.5 L 400 381.5 L 399 386.5 L 391.5 395 L 386.5 397 L 379.5 397 Q 371.6 394.9 368 388.5 Q 365.1 384.9 366 377.5 Q 367.8 370.3 373.5 367 L 379 363.5 L 379 335.5 L 380.5 334 Z M 384 340 L 384 350 L 391 348 Q 393 347 392 343 L 384 340 Z M 380 369 L 373 373 L 371 378 Q 370 385 373 388 L 380 392 L 389 391 L 395 383 L 394 376 L 386 369 L 380 369 Z " /><path fill="rgb(0,236,0)" stroke="rgb(0,236,0)" stroke-width="0" opacity="1" d="M 381.5 373 Q 387.1 372.9 389 376.5 L 390 381.5 L 385.5 387 Q 377.5 388.5 376 383.5 L 375 380.5 L 378.5 374 L 381.5 373 Z " /><path fill="rgb(255,102,4)" stroke="rgb(255,102,4)" stroke-width="0" opacity="1" d="M 355 263 L 366 263.5 L 357 265 L 356 269.5 Q 357.5 272.5 363.5 271 L 368 275.5 L 366 282 Q 362.9 281.3 363.5 284 L 357.5 284 L 353 281.5 L 357.5 281 L 361.5 282 L 365 279.5 Q 366 275 363.5 274 L 355 273 L 355 263 Z " /><path fill="rgb(255,102,4)" stroke="rgb(255,102,4)" stroke-width="0" opacity="1" d="M 378 263 Q 387.7 261 390 267.5 L 391 273.5 L 388 282 L 384.5 284 L 379.5 284 L 375 280.5 L 373 276.5 L 373 269 Q 376 270.3 375 266.5 L 378 265 L 378 263 Z M 382 264 L 380 266 L 376 269 L 376 279 L 381 282 L 386 281 L 389 276 Q 390 270 387 268 L 382 264 Z " /><path fill="rgb(255,102,4)" stroke="rgb(255,102,4)" stroke-width="0" opacity="1" d="M 397 269 L 400.5 270 L 407.5 269 L 411 271.5 L 410 272.5 L 409.5 284 L 408 282.5 Q 409.1 273.9 405.5 270 L 400 271 Q 398.2 274.8 399 282.5 L 397.5 284 L 397 269 Z " /><path fill="rgb(255,102,4)" stroke="rgb(255,102,4)" stroke-width="0" opacity="1" d="M 412.5 269 L 420 269 L 420 283.5 L 419 283.5 Q 420.7 273.4 417 270 L 412.5 270 L 412.5 269 Z " /><path fill="rgb(255,102,4)" stroke="rgb(255,102,4)" stroke-width="0" opacity="1" d="M 381.5 287 L 390 287 L 390 290 L 380.5 290 L 380 288.5 L 381.5 287 Z " /><path fill="rgb(255,102,4)" stroke="rgb(255,102,4)" stroke-width="0" opacity="1" d="M 372.5 288 Q 375.1 287.3 374 290 Q 368.5 289.2 365.5 292 Q 362.5 290.5 365.5 289 L 372.5 288 Z " /><path fill="rgb(255,102,4)" stroke="rgb(255,102,4)" stroke-width="0" opacity="1" d="M 396.5 289 Q 404 287 406 290.5 Q 406.9 293.5 402.5 292 L 396.5 290 L 396.5 289 Z " /><path fill="rgb(255,102,4)" stroke="rgb(255,102,4)" stroke-width="0" opacity="1" d="M 356.5 291 Q 359.5 290.2 358 294 L 349 296 Q 347.9 293.3 350.5 294 L 356.5 291 Z " /><path fill="rgb(255,102,4)" stroke="rgb(255,102,4)" stroke-width="0" opacity="1" d="M 411.5 291 L 421 295.5 L 416.5 296 Q 415.3 293 411 294 L 411.5 291 Z " /><path fill="rgb(255,102,4)" stroke="rgb(255,102,4)" stroke-width="0" opacity="1" d="M 341 297 Q 344.3 295.9 343 300 L 340 300 Q 341.3 303 337.5 302 L 335 303.5 Q 333.9 300.2 336.5 301 L 341 299 L 341 297 Z " /><path fill="rgb(255,102,4)" stroke="rgb(255,102,4)" stroke-width="0" opacity="1" d="M 427.5 297 L 428 299 L 430.5 299 L 435 302.5 L 433.5 304 L 429 302 Q 430 299 427 300 L 427.5 297 Z " /><path fill="rgb(255,102,4)" stroke="rgb(255,102,4)" stroke-width="0" opacity="1" d="M 329.5 305 L 330 308 L 326.5 310 Q 325.8 312.8 321.5 312 L 321.5 311 L 324.5 309 L 329.5 305 Z " /><path fill="rgb(255,102,4)" stroke="rgb(255,102,4)" stroke-width="0" opacity="1" d="M 439.5 307 L 446 309 Q 445 312 448 311 L 448 313.5 L 445.5 312 L 441 310 Q 442.1 307.3 439.5 308 L 439.5 307 Z " /><path fill="rgb(255,102,4)" stroke="rgb(255,102,4)" stroke-width="0" opacity="1" d="M 315 317 L 318 317.5 L 312.5 324 Q 309.5 324.7 311 321 L 313 321 L 315 317 Z " /><path fill="rgb(255,102,4)" stroke="rgb(255,102,4)" stroke-width="0" opacity="1" d="M 451.5 317 L 456 319.5 L 458 322.5 Q 460.3 323.8 457.5 325 L 451.5 317 Z " /><path fill="rgb(255,102,4)" stroke="rgb(255,102,4)" stroke-width="0" opacity="1" d="M 305 329 Q 308.8 327.5 308 330.5 L 304 335.5 L 304 338 Q 300.3 339.5 301 336.5 L 305 331.5 L 305 329 Z " /><path fill="rgb(255,102,4)" stroke="rgb(255,102,4)" stroke-width="0" opacity="1" d="M 462 329 Q 464.7 327.9 464 330.5 L 466 335 Q 469.3 333.9 468 338 Q 463.9 339.7 465 335.5 L 462 329 Z " /><path fill="rgb(255,102,4)" stroke="rgb(255,102,4)" stroke-width="0" opacity="1" d="M 297 343 Q 301.1 341.3 300 345.5 L 296.5 352 Q 293.5 352.9 295 348.5 Q 298 347.3 297 343 Z " /><path fill="rgb(255,102,4)" stroke="rgb(255,102,4)" stroke-width="0" opacity="1" d="M 469 343 Q 473.5 341.3 472 346.5 Q 475 347.8 474 352 Q 471.3 353.1 472 350.5 L 469 343 Z " /><path fill="rgb(255,102,4)" stroke="rgb(255,102,4)" stroke-width="0" opacity="1" d="M 293.5 357 L 294 364.5 L 291.5 368 L 291 362.5 L 293.5 357 Z " /><path fill="rgb(255,102,4)" stroke="rgb(255,102,4)" stroke-width="0" opacity="1" d="M 475.5 359 Q 479 361 478 367.5 L 476 366.5 L 475.5 359 Z " /><path fill="rgb(255,102,4)" stroke="rgb(255,102,4)" stroke-width="0" opacity="1" d="M 290 373 L 292 373.5 L 292 384 L 289 384 L 289 375.5 L 290 373 Z " /><path fill="rgb(255,102,4)" stroke="rgb(255,102,4)" stroke-width="0" opacity="1" d="M 477 375 L 480 375 L 480 384 L 477 384 L 477 375 Z " /><path fill="rgb(255,102,4)" stroke="rgb(255,102,4)" stroke-width="0" opacity="1" d="M 289 389 L 292 389 L 292 397.5 L 291 397.5 L 289 389 Z " /><path fill="rgb(255,102,4)" stroke="rgb(255,102,4)" stroke-width="0" opacity="1" d="M 477.5 390 L 479 393.5 L 478 400 Q 475.3 401.1 476 398.5 L 477.5 390 Z " /><path fill="rgb(255,102,4)" stroke="rgb(255,102,4)" stroke-width="0" opacity="1" d="M 293.5 404 L 296 408.5 L 296 413.5 L 295 413.5 Q 291.4 410.7 293.5 404 Z " /><path fill="rgb(255,102,4)" stroke="rgb(255,102,4)" stroke-width="0" opacity="1" d="M 475.5 406 L 476 410.5 Q 473 411.8 474 416 Q 471.3 417.1 472 414.5 L 473 408.5 L 475.5 406 Z " /><path fill="rgb(255,102,4)" stroke="rgb(255,102,4)" stroke-width="0" opacity="1" d="M 297 419 Q 301.5 417.3 300 422.5 L 303 427.5 L 301 428 Q 302 425 299 426 L 299 423.5 L 297 419 Z " /><path fill="rgb(255,102,4)" stroke="rgb(255,102,4)" stroke-width="0" opacity="1" d="M 469 421 Q 471.7 419.9 471 422.5 L 468 430 Q 464.2 431.5 465 428.5 L 469 421 Z " /><path fill="rgb(255,102,4)" stroke="rgb(255,102,4)" stroke-width="0" opacity="1" d="M 305 433 L 308 434.5 L 312 442 L 309 440.5 L 307 436 Q 303.7 437.1 305 433 Z " /><path fill="rgb(255,102,4)" stroke="rgb(255,102,4)" stroke-width="0" opacity="1" d="M 461.5 435 L 464 435.5 L 462 439 Q 459.3 437.9 460 440.5 L 457.5 444 L 457 440.5 L 461.5 435 Z " /><path fill="rgb(255,102,4)" stroke="rgb(255,102,4)" stroke-width="0" opacity="1" d="M 315.5 445 L 322 451.5 L 322 453.5 L 315 447.5 L 315.5 445 Z " /><path fill="rgb(255,102,4)" stroke="rgb(255,102,4)" stroke-width="0" opacity="1" d="M 451.5 447 L 453 447.5 L 447.5 454 L 445 453.5 L 451.5 447 Z " /><path fill="rgb(255,102,4)" stroke="rgb(255,102,4)" stroke-width="0" opacity="1" d="M 327 457 L 329.5 457 L 336 461.5 Q 334.7 464.2 333.5 462 L 327 459 L 327 457 Z " /><path fill="rgb(255,102,4)" stroke="rgb(255,102,4)" stroke-width="0" opacity="1" d="M 439.5 457 L 440 459.5 L 432.5 464 L 433 462.5 L 434.5 461 L 439.5 457 Z " /><path fill="rgb(255,102,4)" stroke="rgb(255,102,4)" stroke-width="0" opacity="1" d="M 341 465 L 348 467 Q 346.9 469.7 349.5 469 L 349.5 470 L 345.5 470 L 341 468 L 341 465 Z " /><path fill="rgb(255,102,4)" stroke="rgb(255,102,4)" stroke-width="0" opacity="1" d="M 425.5 466 L 428 467.5 L 418.5 471 L 417.5 469 L 420.5 469 Q 419.5 466 424.5 467 L 425.5 466 Z " /><path fill="rgb(255,102,4)" stroke="rgb(255,102,4)" stroke-width="0" opacity="1" d="M 355 471 L 364 473 L 363.5 476 L 361.5 474 Q 356.3 475.3 355 472.5 L 355 471 Z " /><path fill="rgb(255,102,4)" stroke="rgb(255,102,4)" stroke-width="0" opacity="1" d="M 410.5 471 Q 413.5 470.2 412 474 L 407.5 474 L 403 476 Q 401.2 470.8 408.5 473 L 410.5 471 Z " /><path fill="rgb(255,102,4)" stroke="rgb(255,102,4)" stroke-width="0" opacity="1" d="M 371.5 475 L 380 475 L 380 478 L 372.5 477 L 371.5 475 Z " /><path fill="rgb(255,102,4)" stroke="rgb(255,102,4)" stroke-width="0" opacity="1" d="M 387 475 L 395.5 475 L 396 477 L 387 478 L 387 475 Z " /><path fill="rgb(255,156,83)" stroke="rgb(255,156,83)" stroke-width="0" opacity="1" d="M 355.5 262 L 366.5 262 L 368 263.5 Q 365.8 268 358 266 Q 355.7 272.4 363.5 270 L 368 273.5 L 369 278.5 L 363.5 285 Q 356.3 286.3 354 282.5 L 355.5 282 Q 357.4 285.8 364 284 L 366 280.5 Q 368.7 279.8 368 275.5 L 363.5 271 Q 357.5 272.5 356 269.5 L 357 265 L 366 263.5 L 355 263 L 355 273 L 361.5 273 L 365 275.5 L 364.5 277 L 364 275 L 356.5 274 Q 355.3 276.3 354 273.5 L 353 271.5 Q 355.7 269.8 354 263.5 L 355.5 262 Z " /><path fill="rgb(255,156,83)" stroke="rgb(255,156,83)" stroke-width="0" opacity="1" d="M 379.5 262 Q 388.5 260.5 390 266.5 L 385.5 263 L 379.5 263 L 379.5 262 Z " /><path fill="rgb(255,156,83)" stroke="rgb(255,156,83)" stroke-width="0" opacity="1" d="M 377.5 263 L 378 265 L 375 266.5 Q 376.1 269.8 373.5 269 L 374 267.5 L 377.5 263 Z " /><path fill="rgb(255,156,83)" stroke="rgb(255,156,83)" stroke-width="0" opacity="1" d="M 381.5 264 L 387 267.5 Q 390 269.5 389 275.5 L 385.5 281 L 380.5 282 L 376 278.5 L 376.5 276 L 378 280 L 383.5 281 L 386 280 L 388 272.5 L 384.5 266 L 380 265.5 L 381.5 264 Z " /><path fill="rgb(255,156,83)" stroke="rgb(255,156,83)" stroke-width="0" opacity="1" d="M 404.5 267 L 411.5 269 L 416.5 267 L 421 269.5 L 422 282.5 L 421 285 L 418 283.5 Q 419.9 274.1 415.5 271 L 411 273.5 L 411 283.5 L 409.5 285 L 407 283.5 L 407.5 275 L 408 282.5 L 409.5 284 L 410 272.5 L 411 271.5 Q 408.5 268 402 268.5 L 404.5 267 Z M 413 269 L 413 270 L 417 270 Q 421 273 419 284 L 420 284 L 420 269 L 413 269 Z " /><path fill="rgb(255,156,83)" stroke="rgb(255,156,83)" stroke-width="0" opacity="1" d="M 390.5 268 L 392 274.5 L 387.5 283 L 385.5 284 L 386.5 282 L 388 280.5 L 390 278.5 L 391 273.5 L 390.5 268 Z " /><path fill="rgb(255,156,83)" stroke="rgb(255,156,83)" stroke-width="0" opacity="1" d="M 397.5 268 L 401 269.5 L 399.5 270 L 397 269 L 396.5 284 L 396 269.5 L 397.5 268 Z " /><path fill="rgb(255,156,83)" stroke="rgb(255,156,83)" stroke-width="0" opacity="1" d="M 372.5 270 L 373 276.5 L 376.5 282 L 379 283.5 L 377.5 284 Q 370.1 280.5 372.5 270 Z " /><path fill="rgb(255,156,83)" stroke="rgb(255,156,83)" stroke-width="0" opacity="1" d="M 402.5 270 L 407 271.5 L 406.5 273 L 402.5 271 L 400 272.5 L 401.5 271 L 402.5 270 Z " /><path fill="rgb(255,156,83)" stroke="rgb(255,156,83)" stroke-width="0" opacity="1" d="M 399.5 274 L 400 284 L 398 283.5 L 399.5 274 Z " /><path fill="rgb(255,156,83)" stroke="rgb(255,156,83)" stroke-width="0" opacity="1" d="M 364.5 278 L 365 279.5 Q 363.6 282.6 358.5 282 L 358.5 281 L 364 280 L 364.5 278 Z " /><path fill="rgb(255,156,83)" stroke="rgb(255,156,83)" stroke-width="0" opacity="1" d="M 353.5 279 L 357 280.5 L 352.5 282 L 352 280.5 L 353.5 279 Z " /><path fill="rgb(255,156,83)" stroke="rgb(255,156,83)" stroke-width="0" opacity="1" d="M 381.5 286 L 383 286.5 L 380 288.5 L 380.5 290 L 390 290 Q 391.5 286.3 388.5 287 L 388.5 286 L 391 287.5 L 389.5 291 L 379 291 L 379 287 L 381.5 286 Z " /><path fill="rgb(255,156,83)" stroke="rgb(255,156,83)" stroke-width="0" opacity="1" d="M 371.5 287 L 375 288.5 L 373.5 291 L 367.5 292 L 367.5 291 L 374 290 Q 375.1 287.3 372.5 288 L 365.5 289 L 364 290.5 L 365.5 293 L 363 291.5 L 364.5 288 L 371.5 287 Z " /><path fill="rgb(255,156,83)" stroke="rgb(255,156,83)" stroke-width="0" opacity="1" d="M 396.5 287 L 407 289 L 405.5 293 L 404 292.5 L 406 292 L 404.5 289 L 396 289.5 L 402 291.5 L 398.5 292 L 394 289.5 L 396.5 287 Z " /><path fill="rgb(255,156,83)" stroke="rgb(255,156,83)" stroke-width="0" opacity="1" d="M 356.5 290 L 359 291.5 L 357.5 295 L 353.5 296 L 354.5 294 Q 359.8 295.5 358 291 L 352.5 293 L 352.5 292 L 356.5 290 Z " /><path fill="rgb(255,156,83)" stroke="rgb(255,156,83)" stroke-width="0" opacity="1" d="M 411.5 290 L 417 292.5 L 414.5 293 L 411.5 291 L 411 294 L 416 295.5 L 414.5 296 L 410 293.5 L 411.5 290 Z " /><path fill="rgb(255,156,83)" stroke="rgb(255,156,83)" stroke-width="0" opacity="1" d="M 349.5 293 L 351 293.5 L 349 294 Q 347.9 296.7 350.5 296 L 349.5 298 L 348 294.5 L 349.5 293 Z " /><path fill="rgb(255,156,83)" stroke="rgb(255,156,83)" stroke-width="0" opacity="1" d="M 418.5 293 L 423 295.5 L 418.5 297 L 418.5 296 L 421 295.5 L 418.5 293 Z " /><path fill="rgb(255,156,83)" stroke="rgb(255,156,83)" stroke-width="0" opacity="1" d="M 341.5 296 Q 344.8 294.9 344 297.5 L 345 300 L 340.5 302 L 340 300 Q 344.5 301.5 343 297 Q 340 296 341 299 L 338.5 299 L 335 301 L 335.5 304 L 338.5 302 L 338.5 303 L 335.5 305 L 333 301.5 L 341.5 296 Z " /><path fill="rgb(255,156,83)" stroke="rgb(255,156,83)" stroke-width="0" opacity="1" d="M 427.5 296 L 436 301 Q 438.1 306.2 433.5 305 L 430 302.5 L 431.5 302 L 435 304 L 433.5 301 L 428 299 L 427.5 297 L 427 300 Q 429.7 298.9 429 301.5 L 427.5 301 L 425 299.5 L 427.5 296 Z " /><path fill="rgb(255,156,83)" stroke="rgb(255,156,83)" stroke-width="0" opacity="1" d="M 328.5 304 L 331 305.5 L 329.5 309 L 328 308.5 L 330 308 L 329.5 305 L 324.5 309 L 328.5 304 Z " /><path fill="rgb(255,156,83)" stroke="rgb(255,156,83)" stroke-width="0" opacity="1" d="M 440.5 305 L 445 308.5 L 442.5 307 L 439 307.5 L 441 308.5 L 439.5 309 Q 436 307 440.5 305 Z " /><path fill="rgb(255,156,83)" stroke="rgb(255,156,83)" stroke-width="0" opacity="1" d="M 322.5 309 L 323 311 L 321 311.5 L 324.5 312 L 327 310.5 Q 326.5 314.5 321.5 314 L 320 311.5 L 322.5 309 Z " /><path fill="rgb(255,156,83)" stroke="rgb(255,156,83)" stroke-width="0" opacity="1" d="M 446.5 309 L 449 313.5 L 446.5 315 L 442.5 310 L 447.5 314 L 448 311 Q 444.8 312 446.5 309 Z " /><path fill="rgb(255,156,83)" stroke="rgb(255,156,83)" stroke-width="0" opacity="1" d="M 317.5 315 L 319 318.5 L 311.5 326 L 309 323.5 L 311 322.5 L 312.5 324 L 318 317.5 L 315 317 L 315 319 L 311.5 321 L 315.5 316 L 317.5 315 Z " /><path fill="rgb(255,156,83)" stroke="rgb(255,156,83)" stroke-width="0" opacity="1" d="M 451.5 316 L 453.5 316 L 458 320.5 L 456 321 L 453.5 317 L 451 317.5 L 457.5 325 L 458.5 322 L 461 323.5 L 457 326.5 L 450 317.5 L 451.5 316 Z " /><path fill="rgb(255,156,83)" stroke="rgb(255,156,83)" stroke-width="0" opacity="1" d="M 305.5 328 L 309 329.5 L 306.5 333 L 308 330.5 Q 308.8 327.9 305.5 329 L 305.5 328 Z " /><path fill="rgb(255,156,83)" stroke="rgb(255,156,83)" stroke-width="0" opacity="1" d="M 461.5 328 L 464 328.5 L 462 329 L 463 332.5 L 460 330.5 L 461.5 328 Z " /><path fill="rgb(255,156,83)" stroke="rgb(255,156,83)" stroke-width="0" opacity="1" d="M 304.5 330 L 305 331.5 L 301 338 L 304 338.5 L 301.5 339 L 300 336.5 L 304.5 330 Z " /><path fill="rgb(255,156,83)" stroke="rgb(255,156,83)" stroke-width="0" opacity="1" d="M 464.5 330 L 468 334.5 L 466 335 L 464.5 330 Z " /><path fill="rgb(255,156,83)" stroke="rgb(255,156,83)" stroke-width="0" opacity="1" d="M 468.5 336 L 469 337.5 L 465.5 339 L 465.5 338 Q 469 339 468.5 336 Z " /><path fill="rgb(255,156,83)" stroke="rgb(255,156,83)" stroke-width="0" opacity="1" d="M 297.5 342 L 301 343.5 L 300.5 345 L 300 343 Q 296.7 343.8 297.5 342 Z " /><path fill="rgb(255,156,83)" stroke="rgb(255,156,83)" stroke-width="0" opacity="1" d="M 469.5 342 L 472 342.5 L 469 343 L 468.5 345 L 468 343.5 L 469.5 342 Z " /><path fill="rgb(255,156,83)" stroke="rgb(255,156,83)" stroke-width="0" opacity="1" d="M 296.5 344 L 297 346.5 L 295 347.5 L 296.5 344 Z " /><path fill="rgb(255,156,83)" stroke="rgb(255,156,83)" stroke-width="0" opacity="1" d="M 472.5 344 L 474 347.5 L 472 346.5 L 472.5 344 Z " /><path fill="rgb(255,156,83)" stroke="rgb(255,156,83)" stroke-width="0" opacity="1" d="M 294.5 350 L 295 352 L 297.5 351 L 296.5 353 Q 292.1 354.1 294.5 350 Z " /><path fill="rgb(255,156,83)" stroke="rgb(255,156,83)" stroke-width="0" opacity="1" d="M 471.5 350 L 472 352 Q 474.7 353.1 474 350.5 L 475 350.5 Q 476.5 355.8 472 354 L 471.5 350 Z " /><path fill="rgb(255,156,83)" stroke="rgb(255,156,83)" stroke-width="0" opacity="1" d="M 293.5 356 Q 296.3 357.3 295 362.5 L 294 362.5 L 293.5 357 L 291.5 362 L 291 359.5 L 293.5 356 Z " /><path fill="rgb(255,156,83)" stroke="rgb(255,156,83)" stroke-width="0" opacity="1" d="M 475.5 357 L 478 361.5 L 477 361.5 L 475.5 359 L 474.5 363 L 474 358.5 L 475.5 357 Z " /><path fill="rgb(255,156,83)" stroke="rgb(255,156,83)" stroke-width="0" opacity="1" d="M 290.5 363 L 291.5 368 L 293.5 365 L 294 367.5 L 291.5 369 Q 288.6 367.6 290.5 363 Z " /><path fill="rgb(255,156,83)" stroke="rgb(255,156,83)" stroke-width="0" opacity="1" d="M 478.5 363 L 479 369 L 475 367.5 L 475.5 365 L 477.5 368 L 478.5 363 Z " /><path fill="rgb(255,156,83)" stroke="rgb(255,156,83)" stroke-width="0" opacity="1" d="M 290.5 372 L 293 373.5 L 292.5 384 L 292 373 Q 289.3 371.9 290 374.5 L 289 374.5 L 290.5 372 Z " /><path fill="rgb(255,156,83)" stroke="rgb(255,156,83)" stroke-width="0" opacity="1" d="M 477.5 373 Q 481.3 372 480 375 L 477 375 L 477 384 Q 482.3 385.8 480 378.5 L 481 378.5 Q 482.3 383.8 479.5 385 L 476 383.5 L 476 374.5 L 477.5 373 Z " /><path fill="rgb(255,156,83)" stroke="rgb(255,156,83)" stroke-width="0" opacity="1" d="M 288.5 378 L 289 383.5 L 288 383.5 L 288.5 378 Z " /><path fill="rgb(255,156,83)" stroke="rgb(255,156,83)" stroke-width="0" opacity="1" d="M 289 387 L 293 388.5 L 294 397.5 L 290 399 L 289 391.5 L 290 391.5 L 291.5 398 L 292 389 Q 287.9 390.3 289 387 Z " /><path fill="rgb(255,156,83)" stroke="rgb(255,156,83)" stroke-width="0" opacity="1" d="M 477.5 389 L 480 389.5 L 480 396.5 L 477.5 401 Q 472.9 402.4 475 396.5 L 477.5 389 Z M 478 390 L 476 399 Q 475 401 478 400 L 479 394 L 478 390 Z " /><path fill="rgb(255,156,83)" stroke="rgb(255,156,83)" stroke-width="0" opacity="1" d="M 292.5 403 Q 296.3 401.8 295 405.5 L 296 407.5 L 294 406.5 L 293.5 404 L 292.5 409 L 291 404.5 L 292.5 403 Z " /><path fill="rgb(255,156,83)" stroke="rgb(255,156,83)" stroke-width="0" opacity="1" d="M 474.5 405 Q 478.7 403.7 477 408.5 L 476 408.5 L 475.5 406 L 473 407.5 L 474.5 405 Z " /><path fill="rgb(255,156,83)" stroke="rgb(255,156,83)" stroke-width="0" opacity="1" d="M 296.5 410 L 298 413.5 L 295.5 415 L 293 411.5 L 295 412.5 L 295.5 414 L 296.5 410 Z " /><path fill="rgb(255,156,83)" stroke="rgb(255,156,83)" stroke-width="0" opacity="1" d="M 472.5 410 L 473 413.5 L 472 416 Q 475.3 417.3 474 412.5 L 476 411.5 L 473.5 417 L 470 415.5 L 472.5 410 Z " /><path fill="rgb(255,156,83)" stroke="rgb(255,156,83)" stroke-width="0" opacity="1" d="M 297.5 418 L 300 418.5 L 297 419 L 296.5 421 L 296 419.5 L 297.5 418 Z " /><path fill="rgb(255,156,83)" stroke="rgb(255,156,83)" stroke-width="0" opacity="1" d="M 300.5 420 L 305 427.5 L 301.5 430 L 299 426.5 L 301 426 Q 299.9 428.7 302.5 428 L 302 426.5 L 300.5 420 Z " /><path fill="rgb(255,156,83)" stroke="rgb(255,156,83)" stroke-width="0" opacity="1" d="M 469.5 420 L 473 421.5 L 470.5 425 L 470 423.5 L 471 421 Q 468.3 419.9 469 422.5 L 465 430 L 468 430.5 L 465.5 431 L 464 428.5 L 469.5 420 Z " /><path fill="rgb(255,156,83)" stroke="rgb(255,156,83)" stroke-width="0" opacity="1" d="M 305.5 432 L 309 434.5 L 313 441.5 L 309 443 L 304 433.5 L 305.5 432 Z M 305 433 Q 304 437 307 436 L 309 441 L 312 442 L 308 435 L 305 433 Z " /><path fill="rgb(255,156,83)" stroke="rgb(255,156,83)" stroke-width="0" opacity="1" d="M 461.5 434 L 465 435.5 L 457.5 445 L 455 441.5 L 461.5 434 Z M 462 435 L 457 441 L 458 444 L 460 441 Q 459 438 462 439 L 464 436 L 462 435 Z " /><path fill="rgb(255,156,83)" stroke="rgb(255,156,83)" stroke-width="0" opacity="1" d="M 315.5 444 L 324 451.5 L 321.5 455 L 314 447.5 L 314 445.5 L 315.5 444 Z M 316 445 L 315 448 L 322 454 L 322 452 L 316 445 Z " /><path fill="rgb(255,156,83)" stroke="rgb(255,156,83)" stroke-width="0" opacity="1" d="M 451.5 446 L 455 447.5 L 445.5 456 L 444 452.5 L 451.5 446 Z M 452 447 L 445 454 L 448 454 L 453 448 L 452 447 Z " /><path fill="rgb(255,156,83)" stroke="rgb(255,156,83)" stroke-width="0" opacity="1" d="M 327.5 455 L 337 461.5 L 335.5 464 L 332 462.5 L 333.5 462 Q 334.7 464.2 336 461.5 L 329.5 457 L 327 457 Q 325.9 459.7 328.5 459 L 330.5 462 L 325 457.5 L 327.5 455 Z " /><path fill="rgb(255,156,83)" stroke="rgb(255,156,83)" stroke-width="0" opacity="1" d="M 439.5 456 L 442 459.5 L 438.5 462 L 440 459.5 L 439.5 457 L 434.5 461 L 436.5 458 L 439.5 456 Z " /><path fill="rgb(255,156,83)" stroke="rgb(255,156,83)" stroke-width="0" opacity="1" d="M 432.5 461 L 433 462.5 L 432.5 464 L 436.5 462 L 434.5 465 L 431 463.5 L 432.5 461 Z " /><path fill="rgb(255,156,83)" stroke="rgb(255,156,83)" stroke-width="0" opacity="1" d="M 340.5 464 L 347 466.5 L 344.5 467 L 341 465 L 340.5 468 L 339 465.5 L 340.5 464 Z " /><path fill="rgb(255,156,83)" stroke="rgb(255,156,83)" stroke-width="0" opacity="1" d="M 424.5 465 Q 428.9 463.5 428 466.5 Q 430.3 467.8 427.5 469 L 424.5 470 L 425.5 468 L 428 467.5 L 425.5 466 L 422.5 467 L 422.5 466 L 424.5 465 Z " /><path fill="rgb(255,156,83)" stroke="rgb(255,156,83)" stroke-width="0" opacity="1" d="M 348.5 467 Q 353 469 349.5 471 L 346 470.5 L 350 469.5 L 348 469 L 348.5 467 Z " /><path fill="rgb(255,156,83)" stroke="rgb(255,156,83)" stroke-width="0" opacity="1" d="M 420.5 467 L 421 469 L 417 469.5 L 419.5 471 L 422.5 470 L 422.5 471 L 417.5 472 L 416 469.5 L 420.5 467 Z " /><path fill="rgb(255,156,83)" stroke="rgb(255,156,83)" stroke-width="0" opacity="1" d="M 355.5 470 L 357 470.5 L 355 471 L 356 473.5 L 354 474 L 355.5 470 Z " /><path fill="rgb(255,156,83)" stroke="rgb(255,156,83)" stroke-width="0" opacity="1" d="M 410.5 470 L 413 471.5 L 411.5 475 L 406.5 476 L 407.5 474 Q 413.8 475.9 412 471 Q 409.5 474 403 473 Q 401.5 476.8 404.5 476 L 404.5 477 L 402 475.5 L 401 473.5 L 410.5 470 Z " /><path fill="rgb(255,156,83)" stroke="rgb(255,156,83)" stroke-width="0" opacity="1" d="M 358.5 471 L 366 473.5 Q 367.1 476.8 364.5 476 L 362.5 476 L 358 474.5 L 361.5 474 L 364 475.5 Q 365.3 471.3 360.5 473 L 358.5 471 Z " /><path fill="rgb(255,156,83)" stroke="rgb(255,156,83)" stroke-width="0" opacity="1" d="M 370 474 L 380.5 474 L 382 475.5 Q 383.1 478.8 380.5 478 L 378.5 479 L 378.5 478 Q 381.5 478.7 380 475 L 371 475.5 L 377 477.5 L 371.5 478 L 370 474 Z " /><path fill="rgb(255,156,83)" stroke="rgb(255,156,83)" stroke-width="0" opacity="1" d="M 387.5 474 L 396.5 474 L 398 475.5 L 397 478 L 392 477.5 L 396 477 L 395.5 475 L 387 475 Q 385.3 479.1 389.5 478 L 389.5 479 L 385 477.5 L 385.5 475 L 387.5 474 Z " /><path fill="rgb(255,230,210)" stroke="rgb(255,230,210)" stroke-width="0" opacity="1" d="M 355.5 260 L 366.5 260 L 369 262.5 L 367.5 267 Q 364.2 265.9 365 268.5 L 370 272.5 Q 370.5 265 375.5 262 Q 378.1 258.6 385.5 260 L 391 264.5 L 393.5 269 L 396.5 266 L 404.5 266 L 405.5 265 L 410.5 267 L 416.5 265 L 423 269.5 L 424 282.5 L 421.5 286 L 416 285 L 416 275.5 L 414.5 274 L 413 274.5 L 413 282.5 L 410.5 286 Q 405.8 286.8 405 283.5 Q 407 276 403.5 274 L 402 275.5 L 401 286 Q 407.3 285.1 409.5 290 L 414.5 289 L 423 292 L 424.5 295 Q 434.6 294.9 438 301.5 L 439.5 304 L 443.5 304 L 451 310.5 Q 449.3 315.8 454.5 314 L 459 320 Q 461.7 318.9 461 321.5 L 462 326 L 468 330.5 L 471 335.5 L 471 338.5 L 470.5 340 L 475 343.5 Q 478.1 348.1 477 356 Q 480 354.8 479 358.5 Q 482.2 361.8 481 369.5 L 480 371.5 L 482 373.5 L 483 382.5 L 481 388.5 Q 483.7 390.2 482 396.5 Q 481.7 401.7 478 403.5 L 479 410.5 L 473 420.5 L 474 422.5 Q 472.4 429.4 467.5 433 Q 464.5 432.1 466 436.5 L 461 445 L 456 447.5 L 448.5 457 L 444 458.5 L 438.5 465 Q 435.5 467.8 430 467 L 427.5 471 L 403.5 479 L 399.5 478 L 396.5 480 L 388.5 481 L 382.5 479 L 381.5 480 L 371.5 480 L 366.5 477 L 360.5 478 Q 354.3 477.3 351.5 473 L 345.5 473 L 338 468.5 L 336.5 466 L 330.5 465 L 324 459.5 L 322.5 456 L 320.5 456 L 312 448.5 Q 313.7 443.7 309.5 445 L 302 435.5 L 302 431 L 298 428.5 L 294 419.5 L 295 417.5 L 292 414.5 L 289 405.5 L 290 401.5 Q 285.3 397.7 287 387.5 L 288 385.5 Q 285.3 383.2 286 377.5 L 290 369.5 L 288 369 Q 287.2 360.8 290 356 L 293 354.5 L 292 348.5 L 296 340 Q 299.8 341.5 299 338.5 L 299 336.5 L 304 326 Q 310 328.3 308 321.5 L 314.5 314 Q 319.3 315.7 318 311.5 L 320 308 L 332 301.5 L 334.5 298 Q 338.4 294 346 295 L 348.5 291 L 358.5 289 L 360.5 289 L 363 287.5 Q 355.2 287.8 352 283.5 L 351 279.5 Q 352.3 276.8 357.5 278 L 360.5 279 Q 363.5 277.5 360.5 276 Q 353.5 277.5 352 273.5 Q 349.5 262.5 355.5 260 Z M 356 262 L 354 264 Q 356 270 353 272 L 354 274 Q 355 276 357 274 L 364 275 L 365 278 L 364 280 L 362 281 L 358 281 L 354 279 L 352 282 L 358 285 L 364 285 L 369 279 L 368 274 L 364 270 Q 356 272 358 266 Q 366 268 368 264 L 367 262 L 356 262 Z M 380 262 L 378 263 L 372 271 Q 371 278 374 281 Q 376 285 382 285 L 388 283 L 392 275 L 390 267 Q 389 261 380 262 Z M 405 267 L 402 269 L 398 268 L 396 270 L 396 284 L 400 284 L 400 274 L 405 271 L 407 274 L 407 284 L 410 285 L 411 284 L 411 274 L 416 271 Q 420 274 418 284 L 421 285 L 422 283 L 421 270 L 417 267 L 412 269 L 405 267 Z M 394 278 L 390 285 L 393 286 Q 394 288 395 286 L 394 278 Z M 372 279 L 369 283 L 367 286 L 371 285 L 375 286 L 376 286 L 372 279 Z M 382 286 L 381 287 Q 377 286 379 291 L 390 291 L 391 290 L 390 286 L 388 287 L 382 286 Z M 372 287 L 365 288 L 363 290 L 365 293 L 374 291 L 375 289 L 372 287 Z M 397 287 L 394 290 L 399 292 L 406 293 L 407 289 L 397 287 Z M 357 290 L 348 295 L 350 298 L 352 296 L 358 295 L 359 292 L 357 290 Z M 412 290 L 410 294 L 419 297 L 423 296 L 412 290 Z M 377 291 Q 374 295 367 294 L 365 294 L 362 294 L 353 299 Q 345 297 346 301 L 338 306 L 333 306 L 332 310 L 326 315 L 321 316 L 319 322 L 314 327 L 311 327 L 311 331 L 307 338 L 303 341 L 303 343 Q 302 351 297 356 Q 298 365 295 370 Q 291 372 295 374 Q 296 382 293 386 L 295 389 L 296 396 L 295 399 L 295 402 L 299 409 L 299 416 L 303 420 L 306 427 L 305 429 Q 304 431 308 430 L 315 441 Q 314 444 318 443 Q 325 447 326 454 L 331 454 L 340 462 Q 349 463 354 469 L 356 468 L 365 470 L 367 472 L 380 472 L 383 474 L 389 472 L 398 472 L 399 473 L 409 469 L 414 470 L 422 464 L 429 463 L 430 461 L 438 455 Q 443 457 442 453 L 451 444 L 453 444 L 456 437 L 462 432 L 462 428 L 466 421 L 470 418 L 469 416 Q 469 409 472 406 Q 471 403 474 404 L 473 400 L 474 390 L 476 388 L 474 383 Q 472 374 476 372 L 472 365 L 472 356 L 470 355 L 466 345 L 467 343 L 466 341 Q 459 337 459 328 L 456 327 L 449 320 L 449 318 L 438 311 L 437 307 L 434 307 L 426 302 L 424 301 L 423 299 L 417 299 L 412 297 L 408 293 L 406 295 L 397 293 Q 393 294 394 291 L 390 293 Q 381 295 377 291 Z M 342 296 L 333 302 L 336 305 L 345 300 L 344 298 Q 345 295 342 296 Z M 428 296 L 425 300 L 434 305 Q 438 306 436 301 L 428 296 Z M 329 304 L 320 312 L 322 314 L 330 309 L 331 306 L 329 304 Z M 441 305 L 438 308 L 448 315 L 449 312 L 441 305 Z M 318 315 L 316 316 L 309 324 L 312 326 L 319 319 L 318 315 Z M 452 316 L 450 318 L 457 327 L 461 324 L 460 323 L 458 321 L 454 316 L 452 316 Z M 305 328 L 300 338 L 304 339 L 309 330 L 305 328 Z M 462 328 L 460 330 L 465 339 L 469 338 L 464 330 Q 465 327 462 328 Z M 297 342 L 294 351 Q 293 354 297 353 L 301 344 L 297 342 Z M 470 342 L 468 344 L 472 353 Q 471 356 475 354 L 472 344 Q 473 341 470 342 Z M 294 356 Q 289 359 290 368 L 293 369 L 295 363 Q 296 357 294 356 Z M 476 357 L 474 359 L 475 368 L 479 369 L 478 360 L 476 357 Z M 291 372 L 289 374 L 288 384 L 293 384 L 293 374 L 291 372 Z M 478 373 L 476 375 L 476 384 L 478 385 L 481 384 L 480 378 Q 482 372 478 373 Z M 289 387 L 290 399 L 294 398 L 293 389 L 289 387 Z M 478 389 L 475 397 Q 473 402 478 401 L 480 397 L 480 390 L 478 389 Z M 293 403 L 291 405 L 293 413 L 296 415 L 298 414 L 295 406 Q 296 402 293 403 Z M 475 405 L 470 416 L 474 417 L 477 409 Q 479 404 475 405 Z M 298 418 L 296 420 L 302 430 L 305 428 L 300 420 Q 301 417 298 418 Z M 470 420 L 464 430 L 468 431 L 473 422 L 470 420 Z M 306 432 L 304 434 L 309 443 L 313 442 L 309 435 L 306 432 Z M 462 434 L 455 442 L 458 445 L 465 436 L 462 434 Z M 316 444 L 314 446 L 314 448 L 322 455 L 324 452 L 316 444 Z M 452 446 L 444 453 L 446 456 L 455 448 L 452 446 Z M 328 455 L 325 458 Q 329 462 336 464 L 337 462 L 328 455 Z M 440 456 L 431 463 L 433 465 L 442 460 L 440 456 Z M 341 464 L 339 467 L 347 471 L 351 470 Q 348 465 341 464 Z M 425 465 L 416 470 L 418 472 L 428 469 Q 430 468 428 467 Q 429 463 425 465 Z M 356 470 L 354 474 L 363 476 L 365 476 Q 367 477 366 474 L 356 470 Z M 411 470 L 401 474 L 404 477 L 412 475 L 413 472 L 411 470 Z M 370 474 L 370 477 L 372 478 L 379 479 L 381 478 Q 383 479 382 476 L 381 474 L 370 474 Z M 388 474 L 386 475 L 385 478 L 388 479 L 397 478 L 398 476 L 397 474 L 388 474 Z " /><path fill="rgb(255,230,210)" stroke="rgb(255,230,210)" stroke-width="0" opacity="1" d="M 379.5 266 Q 384.8 264.8 386 267.5 L 388 274.5 L 386 280 L 380.5 281 L 378 280 Q 375.4 277.7 376 271.5 L 379.5 266 Z M 382 268 L 381 269 L 379 270 L 379 277 L 383 279 Q 387 278 385 271 L 382 268 Z " /></svg>