<svg width="2048" height="2048" viewBox="0 0 512 512" version="1.1" xmlns="http://www.w3.org/2000/svg"  style="background:transparent"><path fill="rgb(0,235,0)" stroke="rgb(0,235,0)" stroke-width="0" opacity="1" d="M 261.5 28 L 271.5 28 L 284.5 31 L 295.5 36 L 313.5 39 L 336.5 47 L 362.5 52 L 378.5 58 L 393.5 60 L 418.5 68 L 424 71.5 L 425 78.5 L 420.5 84 Q 407.1 92.1 388.5 95 L 377.5 101 L 366.5 103 L 348.5 111 L 329.5 116 L 320.5 121 L 303.5 125 Q 295.7 130.7 284.5 133 L 281 136.5 L 278 144.5 L 278 171.5 Q 278.5 177.1 282.5 179 L 297.5 183 L 317.5 192 Q 331 200.5 341 212.5 L 354 236.5 L 357 252.5 L 357 271.5 L 354 287.5 L 349 298.5 L 343 308.5 L 329.5 323 L 317.5 332 L 293.5 342 L 263.5 344 L 247.5 340 L 239.5 335 L 234.5 334 L 215 321 Q 216.1 318.3 213.5 319 L 200 301.5 L 193 286.5 Q 187.8 271.8 190 249.5 L 193 237.5 L 200 222.5 L 211 207.5 L 219.5 199 L 231.5 191 L 246.5 185 L 250 181.5 L 253 176.5 L 253 36.5 L 257.5 30 L 261.5 28 Z M 281 58 L 278 62 L 278 100 L 277 101 L 278 106 L 281 107 L 289 107 L 298 102 L 315 97 L 318 91 L 318 72 L 316 66 L 310 63 L 294 60 L 290 58 L 281 58 Z M 265 204 L 256 206 L 238 215 L 234 220 L 230 223 L 225 228 L 216 246 L 214 254 L 215 276 L 225 297 L 230 300 L 233 305 Q 244 314 261 319 L 288 319 L 297 316 L 310 308 L 311 307 L 316 303 L 328 288 L 332 274 Q 334 257 331 246 L 327 236 L 319 223 L 307 213 L 290 205 L 265 204 Z " /><path fill="rgb(0,235,0)" stroke="rgb(0,235,0)" stroke-width="0" opacity="1" d="M 266.5 225 Q 289.8 224.8 300 237.5 L 309 255.5 L 309 265.5 L 302 280.5 L 298.5 284 L 288.5 292 L 276.5 295 L 267.5 295 L 253.5 291 L 242 280.5 L 237 267.5 L 236 256.5 L 240 243.5 L 251.5 231 L 266.5 225 Z " /></svg>