<svg width="2048" height="2048" viewBox="0 0 512 512" version="1.1" xmlns="http://www.w3.org/2000/svg"  style="background:transparent"><path fill="rgb(51,255,0)" stroke="rgb(51,255,0)" stroke-width="0" opacity="1" d="M 243.5 50 L 295.5 50 L 303 55.5 L 304.5 58 L 313 64.5 L 317.5 70 L 323 74.5 L 327.5 80 L 333 84.5 L 335 89 L 341 93.5 L 343 100.5 L 343 395.5 L 342 399.5 L 329.5 412 L 326.5 413 L 176.5 413 L 170 410 L 163.5 402 L 162 400.5 L 160 395.5 L 160 165.5 Q 160.9 157.9 165.5 154 L 167 152.5 L 172 144.5 L 179 137.5 L 182 129.5 L 199 108.5 L 202 101.5 L 216.5 82 L 218 80.5 L 226.5 68 L 228 66.5 Q 232.3 56.3 241.5 51 L 243.5 50 Z M 259 73 L 256 74 L 252 79 L 248 82 Q 243 85 242 92 L 233 102 L 230 109 L 227 111 L 223 115 L 222 121 L 217 129 Q 227 127 235 120 L 245 118 L 259 118 L 272 121 L 286 132 L 290 137 L 299 159 L 298 173 L 290 191 L 288 192 L 284 197 L 280 201 Q 273 201 270 206 L 271 211 L 287 223 L 293 233 L 299 249 L 299 338 L 290 361 L 288 362 L 283 368 L 278 372 L 273 373 L 260 380 L 254 381 L 244 380 Q 236 373 224 371 L 220 367 L 215 362 L 211 358 L 204 339 L 204 248 L 215 224 L 230 213 L 233 209 L 233 206 Q 230 201 224 201 L 219 196 L 216 193 L 210 186 L 204 170 L 204 161 L 209 148 L 208 144 L 207 142 L 202 150 L 196 154 L 184 175 L 184 382 L 186 386 L 192 389 L 233 389 L 234 390 L 312 389 L 316 387 L 319 382 L 319 109 L 309 96 L 304 92 L 299 86 L 286 74 L 262 74 L 259 73 Z M 248 142 Q 240 144 236 150 L 231 158 Q 230 170 234 177 L 248 184 L 256 184 L 267 179 Q 271 175 272 168 Q 273 157 269 152 L 259 143 L 248 142 Z M 251 232 L 244 234 L 236 240 Q 231 242 232 250 L 236 252 L 268 252 L 271 250 L 270 243 L 260 234 L 251 232 Z M 237 278 L 234 279 L 231 285 L 231 306 L 232 308 L 236 310 L 268 310 L 270 309 L 272 305 L 272 286 L 267 278 Q 260 276 259 279 L 237 278 Z M 236 333 L 232 337 L 232 342 L 235 348 L 246 353 L 257 353 L 268 348 L 271 342 Q 272 334 268 333 Q 261 331 260 334 L 236 333 Z " /></svg>