<svg width="2048" height="2048" viewBox="0 0 512 512" version="1.1" xmlns="http://www.w3.org/2000/svg"  style="background:transparent"><path fill="rgb(77,212,22)" stroke="rgb(77,212,22)" stroke-width="0" opacity="1" d="M 241.5 8 L 285.5 9 L 291.5 11 L 310.5 13 L 317.5 16 L 322.5 16 L 325.5 18 L 333.5 19 L 335.5 21 L 359.5 29 L 379.5 39 L 397.5 50 L 419 66 Q 417.9 68.7 420.5 68 L 435 81.5 L 436.5 83 L 438 86 Q 440.7 84.9 440 87.5 L 448 97 Q 450.7 95.9 450 98.5 L 466 118.5 L 479 140.5 Q 482.3 152.7 489 161.5 L 489 164.5 L 497 183.5 Q 496.4 191.1 500 194.5 L 500 199.5 L 502 202.5 L 502 207.5 L 505 218.5 L 505 227.5 L 507 232.5 L 508 261.5 L 507 262.5 L 507 283.5 L 505 288.5 L 505 297.5 L 502 308.5 L 502 313.5 L 497 327.5 L 497 332.5 L 492 342.5 L 489 353.5 Q 471.7 394 445 424 Q 442.3 422.9 443 425.5 L 424 443 Q 425.1 445.7 422.5 445 L 415.5 452 L 393.5 468 L 375.5 479 L 372.5 479 L 346.5 492 L 342.5 492 L 332.5 497 L 327.5 497 L 313.5 502 L 308.5 502 L 297.5 505 Q 288.2 503.7 283.5 507 L 253.5 508 L 252.5 507 L 232.5 507 L 227.5 505 L 218.5 505 L 207.5 502 L 202.5 502 L 199.5 500 L 194.5 500 L 169.5 492 L 140.5 479 L 118.5 466 L 97 450 Q 98.1 447.3 95.5 448 L 86 440 L 84.5 437 L 81.5 435 L 68 419 Q 65.3 420.1 66 417.5 L 50 397.5 L 39 379.5 L 29 359.5 L 21 335.5 L 19 333.5 L 18 325.5 L 16 322.5 L 16 317.5 L 13 310.5 L 11 291.5 L 9 285.5 L 8 241.5 L 13 205.5 L 19 182.5 L 24 171.5 L 24 168.5 L 26 166.5 L 26 163.5 L 37 139.5 L 50 118.5 L 73 89 Q 75.7 90.1 75 87.5 L 78 86 L 87.5 75 L 90.5 73 L 115.5 52 L 139.5 37 Q 149.7 34.7 156.5 29 L 182.5 19 L 205.5 13 L 241.5 8 Z M 243 14 L 233 16 L 224 16 L 214 19 L 207 19 L 192 24 L 187 24 L 182 27 L 165 32 L 130 50 L 100 71 L 99 74 Q 96 73 97 76 L 88 84 L 84 86 L 76 96 Q 77 98 74 97 Q 49 126 32 165 L 27 182 L 24 187 L 24 192 L 19 207 L 19 214 L 16 224 L 15 243 L 14 244 L 14 273 L 15 274 L 17 298 Q 20 302 19 310 L 24 324 L 24 330 L 27 335 L 32 352 L 45 378 L 55 394 Q 71 418 93 437 L 96 439 L 97 442 L 119 458 Q 121 457 120 460 Q 124 459 126 463 Q 129 462 128 465 L 131 465 L 139 471 L 159 481 L 186 491 L 209 497 L 216 497 L 221 499 L 229 499 L 238 501 L 250 501 L 251 502 L 266 502 L 267 501 L 296 499 L 300 497 L 308 497 L 315 494 L 320 494 L 323 492 L 337 489 L 374 473 L 398 458 L 412 447 Q 414 448 413 445 L 423 437 Q 425 438 424 435 L 435 426 Q 434 423 437 424 L 445 415 Q 444 412 447 413 L 473 374 L 489 337 L 492 323 L 494 320 L 494 315 L 497 308 L 497 301 L 499 296 L 500 279 L 501 278 L 501 267 L 502 266 L 502 251 L 501 250 L 499 220 L 497 216 L 497 209 L 494 202 L 494 197 L 489 180 L 486 175 L 481 159 L 471 139 L 442 97 L 439 96 L 437 93 Q 418 71 394 55 L 378 45 L 352 32 L 335 27 L 330 24 L 324 24 L 310 19 L 303 19 L 292 16 L 274 15 L 273 14 L 243 14 Z " /><path fill="rgb(77,212,22)" stroke="rgb(77,212,22)" stroke-width="0" opacity="1" d="M 266.5 195 L 267 197 Q 264 196 265 199 L 272.5 199 L 279.5 202 L 279 200.5 Q 277.9 196.3 282 198 L 282 200 Q 286.8 198.1 286 201.5 L 289 203 L 287 206.5 L 288.5 207 L 292 206 L 291 208.5 L 294.5 209 L 299 208 L 299 211 Q 294.9 209.7 296 213 L 300 214 Q 298.8 210.3 304 212 L 308.5 220 L 310 217 Q 313 216 312 219 Q 309 218 310 221 Q 314.5 219.5 313 224 L 309 225.5 Q 308.2 228.5 312 227 L 312 230 L 317.5 230 L 320 231 L 320 234 Q 315.9 232.3 317 236.5 L 316 239.5 L 317 242 Q 321.1 240.3 320 244.5 L 319 247 L 323.5 246 L 324 250 L 321 251.5 L 325 252 Q 326.5 255.7 323.5 255 L 320 256.5 L 324 258.5 L 320.5 266 Q 317.9 265.3 319 268 Q 322.7 266.6 321 272.5 L 322 281 L 318.5 280 L 317 284 Q 319.7 282.9 319 285.5 L 316 286.5 L 314.5 289 L 312 290.5 L 315 292 Q 316.4 295.7 310.5 294 L 308 295 Q 309.3 303.3 307 307 L 302 307 L 302 308.5 Q 300.3 311.8 298.5 308 Q 295.1 307.2 297 312 L 294.5 312 L 292 313 L 291 317 L 286.5 318 L 283 317 L 281.5 321 L 278 319.5 L 279 315.5 L 276 315.5 L 277 320 L 273 322.5 Q 273.7 325.1 271 324 L 269.5 320 L 266.5 322 L 263.5 320 L 261.5 321 L 258 320 L 256.5 323 L 255 319 Q 251.7 317.7 253 322.5 L 251.5 326 L 248.5 322 L 245.5 323 L 243.5 318 L 242 322 Q 239.3 323.1 240 320.5 L 239 317 L 227 315 L 225.5 312 L 222.5 311 L 217 312 L 219 302.5 L 215.5 305 L 214 305 L 214 300 L 211.5 300 L 209 299 L 204.5 288 L 201.5 289 Q 198.5 287.5 201.5 286 Q 204.1 286.7 203 284 L 199 281.5 L 201 276.5 Q 197.2 275.2 198 271 Q 202.1 272.7 201 268.5 L 198 267.5 L 196 260.5 L 197 258 L 195 258 Q 196.3 262.1 193 261 L 194.5 256 L 196.5 255 L 197 258 Q 201.5 259.8 200 254.5 L 196 251.5 Q 195 246 198.5 245 Q 201.1 245.8 200 242.5 L 201 240 L 198 238.5 L 200.5 235 Q 204.3 234 203 237 Q 200 235.8 201 239.5 L 203.5 243 L 205 240.5 L 204 234.5 L 205.5 235 L 207 235 L 207 229.5 L 208.5 229 L 210 224 L 206 226 L 206 224 L 209.5 222 L 212.5 221 L 215 221 L 215 218 Q 218 219.3 217 215.5 L 215.5 216 L 214 214.5 L 213 212.5 L 216 211 Q 214.7 214.3 219.5 213 L 220.5 211 Q 215.7 212.3 217 209 L 221 208 L 221.5 211 L 225 210 L 226.5 207 L 234 203.5 L 235 199 L 239 199.5 L 237 200 Q 235.8 203 239.5 202 L 243.5 199 Q 250.8 200.8 252.5 197 L 263.5 197 L 266.5 195 Z M 241 226 L 239 228 L 239 244 L 241 245 L 245 242 Q 247 233 243 231 L 245 230 Q 247 224 241 226 Z M 272 234 L 270 236 L 271 239 L 270 243 L 270 251 L 271 252 L 271 253 L 276 253 L 277 251 L 276 244 L 277 236 Q 276 233 272 234 Z M 254 244 L 252 246 Q 251 252 255 254 Q 256 259 252 261 L 252 277 L 255 281 L 260 282 L 264 273 L 263 261 L 261 259 L 261 254 L 264 249 L 263 246 Q 261 242 254 244 Z M 201 245 L 200 252 L 202 251 L 201 245 Z M 239 260 L 236 264 L 237 270 Q 236 274 230 273 L 229 270 Q 226 271 227 268 L 225 268 L 222 267 L 224 270 Q 223 272 226 271 L 229 278 Q 228 280 231 279 Q 229 285 233 287 L 235 287 L 235 280 L 240 277 Q 244 275 241 274 Q 240 269 244 271 L 246 274 L 248 273 L 247 270 L 243 268 L 239 260 Z M 276 260 L 276 262 L 273 263 L 268 273 L 272 274 Q 274 269 276 273 L 274 278 L 279 279 L 277 283 L 278 285 L 281 286 L 287 277 Q 286 274 289 275 L 288 271 L 286 274 L 281 273 L 289 263 L 285 263 L 279 266 Q 275 267 276 265 L 279 263 Q 281 259 276 260 Z M 200 261 L 200 265 L 202 266 Q 204 260 200 261 Z M 266 279 L 265 288 Q 266 290 272 289 Q 277 288 276 282 L 274 283 L 266 279 Z M 249 280 L 248 281 Q 243 280 245 286 L 249 289 L 250 288 Q 251 281 249 280 Z M 227 306 L 226 307 Q 223 306 224 309 L 228 307 L 227 306 Z M 245 314 L 245 316 L 250 315 L 245 314 Z " /><path fill="rgb(153,204,102)" stroke="rgb(153,204,102)" stroke-width="0" opacity="1" d="M 240.5 226 Q 247.3 224 245 230 L 243 230.5 Q 247.3 232.8 245 241.5 L 240.5 245 L 239 243.5 L 239 227.5 L 240.5 226 Z M 240 227 Q 239 231 244 229 Q 245 225 240 227 Z M 242 232 Q 238 234 240 241 L 244 242 Q 246 234 242 232 Z " /><path fill="rgb(153,204,102)" stroke="rgb(153,204,102)" stroke-width="0" opacity="1" d="M 271.5 234 Q 276 233 277 235.5 L 276 243.5 L 277 250.5 L 276 253 L 271 253 L 271 251.5 L 270 250.5 L 270 242.5 L 271 238.5 L 270 235.5 L 271.5 234 Z M 271 235 L 271 237 L 275 238 Q 277 233 271 235 Z M 273 242 Q 269 244 271 250 L 275 252 L 275 243 L 273 242 Z " /><path fill="rgb(153,204,102)" stroke="rgb(153,204,102)" stroke-width="0" opacity="1" d="M 253.5 244 Q 261 242 263 245.5 L 264 248.5 L 261 253.5 L 261 258.5 L 263 260.5 L 264 272.5 L 259.5 282 L 255 280.5 L 252 276.5 L 252 260.5 Q 255.6 259.1 255 253.5 Q 250.8 252.3 252 245.5 L 253.5 244 Z M 256 245 L 253 248 L 257 254 L 253 264 Q 251 275 256 280 L 259 281 L 262 275 L 262 264 L 259 255 L 262 250 L 262 247 Q 261 244 256 245 Z " /><path fill="rgb(153,204,102)" stroke="rgb(153,204,102)" stroke-width="0" opacity="1" d="M 279 258 Q 282 257 281 260 L 279 260 Q 280.5 263.8 277.5 263 L 276 266 L 282.5 265 L 284.5 263 L 289 263 L 281 272.5 L 286 274 L 287.5 271 L 289 275 Q 286.3 273.9 287 276.5 L 280.5 286 L 278 284.5 L 277 282.5 L 279 279 L 274 277.5 L 276 272.5 Q 273.7 268.7 271.5 274 L 268 272.5 L 273 263 L 276 261.5 Q 275.2 258.5 279 260 L 279 258 Z M 280 266 Q 279 270 284 268 Q 285 264 280 266 Z M 271 268 L 271 271 L 276 270 L 271 268 Z M 278 275 L 276 277 Q 275 280 279 278 L 278 275 Z " /><path fill="rgb(153,204,102)" stroke="rgb(153,204,102)" stroke-width="0" opacity="1" d="M 238.5 260 L 243 268 L 246.5 270 L 248 272.5 L 245.5 274 L 244 271 Q 239.9 269.3 241 273.5 Q 243.8 275.3 239.5 277 L 235 279.5 L 235 286.5 L 232.5 287 Q 229.3 285.1 231 279 Q 228.3 280.1 229 277.5 L 226 271 Q 223.3 272.1 224 269.5 L 222 266.5 L 224.5 268 L 227 268 Q 225.9 270.7 228.5 270 L 230 273 Q 235.6 274 237 269.5 L 236 263.5 L 238.5 260 Z M 239 263 L 237 265 L 238 271 L 241 269 L 244 270 L 242 268 L 241 266 L 239 263 Z M 234 280 L 232 282 Q 230 287 234 286 L 234 280 Z " /><path fill="rgb(153,204,102)" stroke="rgb(153,204,102)" stroke-width="0" opacity="1" d="M 266 279 L 273.5 283 L 276 282 Q 276.8 287.5 271.5 289 Q 266.3 290.3 265 287.5 L 266 279 Z M 268 282 L 268 288 L 272 286 L 268 282 Z " /><path fill="rgb(153,204,102)" stroke="rgb(153,204,102)" stroke-width="0" opacity="1" d="M 248.5 280 Q 251.5 281.5 250 287.5 L 248.5 289 L 245 285.5 Q 242.9 279.6 247.5 281 L 248.5 280 Z " /><path fill="rgb(183,241,156)" stroke="rgb(183,241,156)" stroke-width="0" opacity="1" d="M 241.5 232 Q 246 234.2 244 242 L 240 240.5 Q 238.3 233.8 241.5 232 Z " /><path fill="rgb(183,241,156)" stroke="rgb(183,241,156)" stroke-width="0" opacity="1" d="M 271 235 Q 276.6 233.1 275 238 L 271 236.5 L 271 235 Z " /><path fill="rgb(183,241,156)" stroke="rgb(183,241,156)" stroke-width="0" opacity="1" d="M 272.5 242 L 275 242.5 L 275 252 L 271 249.5 Q 269.5 243.5 272.5 242 Z " /><path fill="rgb(183,241,156)" stroke="rgb(183,241,156)" stroke-width="0" opacity="1" d="M 255.5 245 Q 260.8 243.8 262 246.5 L 262 249.5 L 259 254.5 L 262 263.5 L 262 274.5 L 258.5 281 L 256 279.5 Q 251.3 274.7 253 263.5 L 257 253.5 L 253 247.5 L 255.5 245 Z " /><path fill="rgb(183,241,156)" stroke="rgb(183,241,156)" stroke-width="0" opacity="1" d="M 238.5 263 L 240.5 266 L 242 267.5 L 243.5 270 L 240.5 269 L 238 270.5 L 237 264.5 L 238.5 263 Z " /><path fill="rgb(183,241,156)" stroke="rgb(183,241,156)" stroke-width="0" opacity="1" d="M 271 268 L 276 269.5 L 271 271 L 271 268 Z " /><path fill="rgb(183,241,156)" stroke="rgb(183,241,156)" stroke-width="0" opacity="1" d="M 277.5 275 L 279 278 Q 275.3 279.5 276 276.5 L 277.5 275 Z " /><path fill="rgb(183,241,156)" stroke="rgb(183,241,156)" stroke-width="0" opacity="1" d="M 233.5 280 L 234 286 Q 230.3 287.4 232 281.5 L 233.5 280 Z " /><path fill="rgb(183,241,156)" stroke="rgb(183,241,156)" stroke-width="0" opacity="1" d="M 267.5 282 L 272 285.5 L 268 288 L 267.5 282 Z " /></svg>