<svg width="2048" height="2048" viewBox="0 0 512 512" version="1.1" xmlns="http://www.w3.org/2000/svg"  style="background:transparent"><path fill="rgb(0,102,204)" stroke="rgb(0,102,204)" stroke-width="0" opacity="1" d="M 175.5 67 L 190.5 68 L 197 73.5 L 200 83.5 L 201 104.5 L 203 115.5 Q 211.1 130.4 216 148.5 L 218 174.5 L 220 184.5 L 230 198.5 L 236.5 211 L 245.5 213 L 255.5 211 L 262 205.5 L 268.5 195 L 270 193.5 Q 275.7 189.7 277 181.5 L 281 146.5 L 294 113.5 L 297 81.5 L 298 76.5 L 302.5 70 Q 309 65.5 321.5 67 L 330 73.5 Q 333.8 83.7 332 99.5 L 329 111.5 L 319 132.5 L 316 146.5 L 313 173.5 L 303 188.5 L 302 205.5 L 305.5 211 Q 311.8 215.2 322.5 215 L 331 221.5 L 336.5 228 Q 343.9 230.6 348 236.5 L 355.5 249 L 360 252.5 Q 366.7 262.8 366 280.5 L 363 303.5 L 358.5 312 L 352 317.5 Q 349.5 326 343.5 331 L 332.5 336 Q 328.8 342.8 320.5 345 L 281.5 347 L 280.5 348 L 234.5 349 L 233.5 348 L 216.5 348 L 215.5 347 L 175.5 345 L 150 328.5 L 141.5 314 L 136 309.5 L 132 297.5 L 131 267.5 L 136 253.5 L 144 245.5 Q 146.4 236.9 152.5 232 L 161 226.5 L 167.5 216 Q 175.2 211.7 187.5 212 L 193 208.5 L 195 197.5 L 193 187.5 Q 186.2 181.3 183 171.5 L 182 158.5 L 177 130.5 L 169 115.5 L 164 97.5 L 164 82.5 L 167 72.5 L 171.5 68 L 175.5 67 Z M 179 86 L 176 89 L 176 95 L 185 103 Q 189 104 190 101 Q 192 92 188 90 Q 186 85 179 86 Z M 314 86 L 312 87 L 307 93 Q 305 101 310 104 L 316 100 L 321 94 L 321 90 Q 320 85 314 86 Z M 200 154 L 198 156 Q 198 165 204 168 L 206 167 L 205 158 Q 204 154 200 154 Z M 297 154 L 294 155 L 290 161 L 293 168 Q 297 165 299 159 Q 301 153 297 154 Z M 212 206 L 211 212 L 214 212 Q 215 207 212 208 L 212 206 Z M 284 208 L 284 212 L 284 211 Q 286 209 284 208 Z M 178 223 L 176 224 L 173 228 L 174 234 L 179 236 L 186 235 L 192 232 L 194 229 L 183 223 L 178 223 Z M 237 226 L 235 227 L 233 230 L 238 233 L 255 233 L 260 231 L 261 229 L 257 226 L 237 226 Z M 146 270 L 142 275 L 143 281 L 148 283 Q 153 281 151 273 Q 150 269 146 270 Z M 348 270 L 345 273 Q 344 281 349 283 L 352 282 L 354 279 L 353 272 Q 352 269 348 270 Z M 242 330 L 241 331 Q 237 330 239 335 L 253 335 L 253 331 L 242 330 Z " /><path fill="rgb(0,153,204)" stroke="rgb(0,153,204)" stroke-width="0" opacity="1" d="M 178.5 86 Q 186.1 84.9 188 89.5 Q 191.6 92.4 190 100.5 Q 189.3 103.8 184.5 103 L 176 94.5 L 176 88.5 L 178.5 86 Z " /><path fill="rgb(0,153,204)" stroke="rgb(0,153,204)" stroke-width="0" opacity="1" d="M 313.5 86 Q 320 85 321 89.5 L 321 93.5 L 315.5 100 L 309.5 104 Q 305.3 101.2 307 92.5 L 311.5 87 L 313.5 86 Z " /><path fill="rgb(0,153,204)" stroke="rgb(0,153,204)" stroke-width="0" opacity="1" d="M 199.5 154 Q 204.5 153.5 205 157.5 L 206 166.5 L 203.5 168 Q 197.8 164.7 198 155.5 L 199.5 154 Z " /><path fill="rgb(0,153,204)" stroke="rgb(0,153,204)" stroke-width="0" opacity="1" d="M 296.5 154 Q 301.1 152.7 299 158.5 Q 297.5 165 292.5 168 L 290 160.5 L 293.5 155 L 296.5 154 Z " /><path fill="rgb(0,153,204)" stroke="rgb(0,153,204)" stroke-width="0" opacity="1" d="M 211.5 206 L 212 208 Q 215.3 206.7 214 211.5 L 211 211.5 L 211.5 206 Z " /><path fill="rgb(0,153,204)" stroke="rgb(0,153,204)" stroke-width="0" opacity="1" d="M 283.5 208 Q 286.3 209.3 284 210.5 L 283.5 212 L 283.5 208 Z " /><path fill="rgb(0,153,204)" stroke="rgb(0,153,204)" stroke-width="0" opacity="1" d="M 177.5 223 L 182.5 223 L 194 228.5 L 191.5 232 L 185.5 235 L 178.5 236 L 174 233.5 L 173 227.5 L 175.5 224 L 177.5 223 Z " /><path fill="rgb(0,153,204)" stroke="rgb(0,153,204)" stroke-width="0" opacity="1" d="M 236.5 226 L 256.5 226 L 261 228.5 L 259.5 231 L 254.5 233 L 237.5 233 L 233 229.5 L 234.5 227 L 236.5 226 Z " /><path fill="rgb(0,153,204)" stroke="rgb(0,153,204)" stroke-width="0" opacity="1" d="M 145.5 270 Q 150.3 269.3 151 272.5 Q 152.8 281.3 147.5 283 L 143 280.5 L 142 274.5 L 145.5 270 Z " /><path fill="rgb(0,153,204)" stroke="rgb(0,153,204)" stroke-width="0" opacity="1" d="M 347.5 270 Q 352 269 353 271.5 L 354 278.5 L 351.5 282 L 348.5 283 Q 343.7 280.8 345 272.5 L 347.5 270 Z " /><path fill="rgb(0,153,204)" stroke="rgb(0,153,204)" stroke-width="0" opacity="1" d="M 241.5 330 L 253 331 L 252.5 335 L 239 335 Q 237.1 330.2 240.5 331 L 241.5 330 Z " /></svg>