<svg width="2048" height="2048" viewBox="0 0 512 512" version="1.1" xmlns="http://www.w3.org/2000/svg"  style="background:transparent"><path fill="rgb(0,102,204)" stroke="rgb(0,102,204)" stroke-width="0" opacity="1" d="M 308.5 65 L 321.5 67 L 329 72.5 Q 333.9 81.1 332 96.5 L 324 112.5 L 322 123.5 L 316 137.5 L 314 150.5 Q 302.2 166.7 298 190.5 Q 294.6 199.6 287 204.5 L 285 216.5 L 287 226.5 L 296 241.5 L 297 255.5 L 299 263.5 L 299 295.5 L 298 296.5 L 297 311.5 L 294 322.5 L 276.5 341 L 260.5 348 L 240.5 349 L 224.5 344 L 204 325.5 L 200 309.5 L 199 281.5 L 198 280.5 L 198 258.5 L 197 257.5 L 196 239.5 L 198 230.5 L 204 218.5 L 204 211.5 Q 201 202.5 194 197.5 L 191 190.5 L 188 160.5 L 182 148.5 L 179 132.5 Q 173.1 122.9 171 109.5 L 164 95.5 L 164 82.5 L 166 75.5 L 170.5 69 L 175.5 67 L 188.5 66 L 195 68 L 199 74.5 L 207 101.5 L 217 116.5 L 223 133.5 L 231 146.5 L 235 166.5 L 241.5 180 L 245.5 180 L 259 173.5 L 262 166.5 Q 262.2 154.2 266 145.5 L 273 134.5 L 278 120.5 L 281 104.5 L 285.5 98 L 293 91.5 L 295 86.5 L 297 72.5 L 301.5 67 L 308.5 65 Z M 311 82 L 308 87 Q 307 94 309 97 L 319 95 L 321 92 L 320 87 L 315 82 L 311 82 Z M 182 84 L 178 86 Q 175 87 176 93 L 186 99 L 189 97 L 187 88 Q 186 84 182 84 Z M 297 110 Q 298 113 295 112 L 293 116 L 291 127 L 292 140 L 296 145 L 302 144 L 306 138 L 305 129 L 303 126 Q 304 116 302 111 L 297 110 Z M 196 120 L 193 124 L 191 132 L 192 141 Q 194 146 202 144 L 206 136 L 206 126 L 204 124 L 196 120 Z M 213 154 L 209 160 Q 207 166 210 168 L 208 189 Q 210 193 216 193 L 218 193 L 221 189 L 221 171 L 223 167 L 222 158 Q 220 153 213 154 Z M 280 154 L 275 156 L 273 161 L 275 176 L 280 180 L 284 179 L 288 173 L 288 162 L 286 155 L 280 154 Z M 261 191 L 259 192 Q 256 193 257 199 L 264 205 L 264 227 Q 268 226 266 232 L 269 232 L 270 227 L 270 199 L 269 194 Q 268 189 261 191 Z M 231 209 L 228 210 Q 227 216 231 218 L 232 217 L 234 217 Q 233 214 236 215 L 236 211 L 235 211 L 234 210 L 233 210 L 231 209 Z M 213 238 L 208 242 Q 207 249 210 253 L 215 255 L 218 249 Q 219 242 217 239 L 213 238 Z M 282 269 L 279 273 Q 278 280 281 283 L 284 284 L 286 283 L 288 279 L 287 270 L 282 269 Z M 227 312 L 224 316 Q 223 320 226 321 L 232 321 L 232 313 L 227 312 Z M 268 313 L 267 314 L 264 314 L 264 321 Q 270 323 272 320 L 271 315 Q 272 312 268 313 Z " /><path fill="rgb(0,153,204)" stroke="rgb(0,153,204)" stroke-width="0" opacity="1" d="M 310.5 82 L 314.5 82 L 320 86.5 L 321 91.5 L 318.5 95 L 309 97 Q 307 94 308 86.5 L 310.5 82 Z " /><path fill="rgb(0,153,204)" stroke="rgb(0,153,204)" stroke-width="0" opacity="1" d="M 181.5 84 Q 186.5 83.5 187 87.5 L 189 96.5 L 185.5 99 L 176 92.5 Q 174.8 87.3 177.5 86 L 181.5 84 Z " /><path fill="rgb(0,153,204)" stroke="rgb(0,153,204)" stroke-width="0" opacity="1" d="M 297 110 L 302 111 Q 304.1 115.8 303 125.5 L 305 128.5 L 306 137.5 L 301.5 144 L 295.5 145 L 292 139.5 L 291 126.5 L 293 115.5 L 295 112 Q 298 113 297 110 Z " /><path fill="rgb(0,153,204)" stroke="rgb(0,153,204)" stroke-width="0" opacity="1" d="M 195.5 120 L 204 123.5 L 206 125.5 L 206 135.5 L 201.5 144 Q 193.5 145.5 192 140.5 L 191 131.5 L 193 123.5 L 195.5 120 Z " /><path fill="rgb(0,153,204)" stroke="rgb(0,153,204)" stroke-width="0" opacity="1" d="M 212.5 154 Q 219.7 153.3 222 157.5 L 223 166.5 L 221 170.5 L 221 188.5 L 217.5 193 L 215.5 193 Q 210 192.6 208 188.5 L 210 167.5 Q 207.3 165.8 209 159.5 L 212.5 154 Z " /><path fill="rgb(0,153,204)" stroke="rgb(0,153,204)" stroke-width="0" opacity="1" d="M 279.5 154 L 286 155 L 288 161.5 L 288 172.5 L 283.5 179 L 279.5 180 L 275 175.5 L 273 160.5 L 275 156 L 279.5 154 Z " /><path fill="rgb(0,153,204)" stroke="rgb(0,153,204)" stroke-width="0" opacity="1" d="M 260.5 191 Q 267.5 189.5 269 193.5 L 270 198.5 L 270 226.5 L 269 232 L 266 232 Q 267.5 225.7 264 226.5 L 264 204.5 L 257 198.5 Q 255.8 193.3 258.5 192 L 260.5 191 Z " /><path fill="rgb(0,153,204)" stroke="rgb(0,153,204)" stroke-width="0" opacity="1" d="M 230.5 209 L 232.5 210 L 234 209.5 L 234.5 211 L 236 210.5 L 236 215 Q 233.3 213.9 234 216.5 L 232 216.5 L 230.5 218 Q 226.5 216.3 228 210 L 230.5 209 Z " /><path fill="rgb(0,153,204)" stroke="rgb(0,153,204)" stroke-width="0" opacity="1" d="M 212.5 238 L 217 239 Q 218.9 241.7 218 248.5 L 215 255 L 210 252.5 Q 206.8 249.2 208 241.5 L 212.5 238 Z " /><path fill="rgb(0,153,204)" stroke="rgb(0,153,204)" stroke-width="0" opacity="1" d="M 281.5 269 L 287 270 L 288 278.5 L 286 283 L 283.5 284 L 281 283 Q 278.1 280.1 279 272.5 L 281.5 269 Z " /><path fill="rgb(0,153,204)" stroke="rgb(0,153,204)" stroke-width="0" opacity="1" d="M 226.5 312 L 232 313 L 232 321 L 225.5 321 Q 223 320 224 315.5 L 226.5 312 Z " /><path fill="rgb(0,153,204)" stroke="rgb(0,153,204)" stroke-width="0" opacity="1" d="M 267.5 313 Q 271.9 311.5 271 314.5 L 272 319.5 Q 270.1 322.8 264 321 L 264 314 L 266.5 314 L 267.5 313 Z " /></svg>