<svg width="2048" height="2048" viewBox="0 0 512 512" version="1.1" xmlns="http://www.w3.org/2000/svg"  style="background:transparent"><path fill="rgb(51,102,153)" stroke="rgb(51,102,153)" stroke-width="0" opacity="1" d="M 252.5 191 L 257 193.5 L 259.5 197 L 263 198.5 L 261.5 201 L 250.5 201 L 236 207.5 L 235.5 209 L 234 206.5 L 238 203.5 L 239.5 201 L 247 195.5 L 248 192 L 252.5 191 Z " /><path fill="rgb(51,102,153)" stroke="rgb(51,102,153)" stroke-width="0" opacity="1" d="M 276.5 212 L 281.5 218 L 283 219.5 L 300 235.5 L 302.5 239 L 309 243 L 313 248.5 L 313 251.5 L 307.5 258 L 300.5 264 L 299 261 L 292 258.5 L 293 253.5 L 288.5 247 L 282.5 244 L 279 246 Q 281.1 236.6 276.5 233 L 269 234 L 270.5 231 Q 275.3 232.7 274 228.5 L 276 224.5 L 274 213 L 276.5 212 Z " /><path fill="rgb(51,102,153)" stroke="rgb(51,102,153)" stroke-width="0" opacity="1" d="M 226.5 214 L 229 214.5 L 228 216.5 L 235 231 L 238 232.5 L 240.5 237 L 243 238.5 L 243 246.5 L 247 254.5 L 243 257.5 L 236.5 269 L 235 270.5 L 234 278 Q 228.5 278.8 225.5 276 L 219.5 276 Q 218 278.5 216.5 275 L 212 272.5 L 210.5 271 L 202.5 262 L 200 260.5 L 198.5 259 L 192 252.5 L 192 248.5 L 197.5 242 L 205 235.5 L 206.5 234 L 218 223.5 L 226.5 214 Z " /><path fill="rgb(51,102,153)" stroke="rgb(51,102,153)" stroke-width="0" opacity="1" d="M 270.5 283 Q 276.8 281.8 278 285.5 L 274 291 L 270 293.5 L 268.5 296 L 266 297.5 L 264.5 300 L 262 301.5 L 260.5 303 L 258 304 L 255.5 309 Q 248.5 310.5 247 306.5 Q 248.3 302.8 244.5 304 L 241 301.5 Q 242.8 297.2 244.5 300 L 257.5 295 L 269 286 L 270.5 283 Z " /><path fill="rgb(102,153,102)" stroke="rgb(102,153,102)" stroke-width="0" opacity="1" d="M 249.5 172 Q 255.5 170.5 257 173.5 L 258.5 176 L 261 177.5 L 262.5 180 L 265 181.5 L 267.5 185 L 270 186.5 L 271.5 189 L 274 190.5 L 275.5 193 L 278 194.5 L 279.5 197 L 282 198.5 L 283.5 201 L 286 202.5 L 287.5 205 L 291 207.5 L 292.5 210 L 295 211.5 L 296.5 214 L 299 215.5 L 300.5 218 L 303 219.5 L 304.5 222 L 308 224.5 L 309.5 226 L 313.5 231 L 316 232.5 L 317.5 235 L 320 236.5 L 321.5 239 L 325 241.5 L 326.5 243 L 329 247 L 333 248 L 331.5 253 L 328 255.5 L 326.5 257 L 324 261 L 299 283 L 296.5 287 L 295 288.5 L 291 291 L 290 295 Q 286.3 293.5 287 296.5 L 282 300.5 L 278 307 L 270 312 L 267.5 316 L 266 317.5 L 262 320 L 259.5 324 L 257 325.5 L 254.5 329 L 248 328 L 245.5 324 L 244 322.5 L 231 311 L 228.5 307 L 227 305.5 L 222 301.5 L 222.5 298 L 226 300.5 L 227.5 303 L 235 308.5 L 236.5 310 L 238 313 L 251.5 325 L 254 325 Q 252.9 322.3 255.5 323 L 257 320 L 262 316.5 L 263.5 315 L 270 309.5 L 271.5 308 L 276 305 L 286.5 293 L 288 291.5 L 306 274.5 L 307.5 272 L 310 270.5 L 311.5 269 L 315 264 L 327 254.5 L 329 249.5 L 324.5 244 L 323 242.5 L 318 238.5 L 316.5 237 L 314 233 L 310 230.5 L 308.5 229 L 295 216.5 L 285.5 207 L 269 192 L 267 188.5 L 260 182.5 L 258.5 181 L 251.5 175 L 246.5 181 L 203 221.5 L 201.5 224 L 199 225.5 L 197.5 228 L 194 230.5 L 192.5 232 L 190 236 L 186 238.5 L 184.5 240 L 182 241 L 176 251.5 L 179.5 256 L 182 257.5 L 183.5 260 L 191 266.5 L 192.5 268 L 210 284.5 Q 211.3 288.3 207.5 287 L 203.5 282 L 202 280.5 L 197 276.5 L 195.5 274 L 193 272.5 L 191.5 270 L 189 268.5 L 186.5 265 L 185 263.5 L 180 259.5 L 178.5 257 L 176 255.5 L 174.5 253 L 172 251.5 Q 170.5 247.1 173.5 248 L 176 244 L 181 240.5 L 182.5 239 L 189 231 L 193 228.5 L 194.5 227 L 197 226 L 199.5 222 L 201 220.5 L 205 218 L 207.5 214 L 209 212.5 L 214 209 Q 212.5 205.2 215.5 206 L 218 205 L 220.5 201 L 222 199.5 L 226 197 L 228.5 193 L 230 191.5 L 234 189 L 237.5 184 L 239 182.5 L 243 180 L 245.5 176 L 247 174.5 L 249.5 172 Z " /><path fill="rgb(102,153,102)" stroke="rgb(102,153,102)" stroke-width="0" opacity="1" d="M 250.5 201 L 262 201.5 L 257.5 204 L 242.5 207 L 239.5 210 L 233.5 210 L 234.5 208 L 236 208.5 L 237.5 206 Q 246 205.5 250.5 201 Z " /><path fill="rgb(102,153,102)" stroke="rgb(102,153,102)" stroke-width="0" opacity="1" d="M 273.5 211 L 276 225.5 L 274 231 L 269 232.5 Q 268.1 235.9 273.5 234 L 276.5 233 Q 281.1 236.6 279 246 L 284.5 244 L 291 249.5 L 293 256.5 L 292 258.5 L 299 261 L 300 265.5 L 298.5 265 L 287.5 265 L 281.5 269 L 274.5 270 Q 271.3 274 265 274 Q 266.5 277.8 263.5 277 Q 262.3 279.3 261 276.5 L 262.5 274 L 265 272.5 L 267.5 269 Q 272.9 270.9 272 267.5 L 289 258.5 L 290 253.5 L 286.5 249 L 281.5 248 L 272 252 L 272 249 Q 274.7 250.1 274 247.5 Q 277.6 245.6 277 239.5 L 274.5 236 Q 267.7 236.9 265 235 L 262.5 231 Q 257.3 229.8 256 232.5 L 254.5 235 L 249 237 Q 250.1 239.7 247.5 239 L 245 242.5 L 248 246.5 L 250 258.5 L 247 260 L 248 267.5 L 245.5 271 Q 242.9 271.8 244 268.5 L 242.5 266 L 241 271 L 244 272.5 L 244 277.5 L 240 283 L 235.5 284 L 217 276.5 L 219.5 276 L 225.5 276 Q 228.5 278.8 234 278 L 235 269 L 239 266.5 L 239 263.5 L 244.5 256 L 247 254.5 L 243 246.5 Q 245 239 241.5 237 L 239 235.5 L 236.5 231 L 235 229.5 L 228 215.5 L 228 213.5 L 228.5 212 L 231 213 L 232 218.5 L 241 235 L 247 234 Q 245.9 231.3 248.5 232 L 256.5 228 L 270.5 228 L 273 225.5 L 272 212.5 L 273.5 211 Z M 237 272 L 236 276 L 239 277 Q 241 271 237 272 Z " /><path fill="rgb(102,153,102)" stroke="rgb(102,153,102)" stroke-width="0" opacity="1" d="M 267.5 252 Q 271.9 250.5 271 253.5 Q 270.3 256.8 265.5 256 L 264 253 L 267.5 252 Z " /><path fill="rgb(102,153,102)" stroke="rgb(102,153,102)" stroke-width="0" opacity="1" d="M 258.5 264 L 264 266.5 L 262.5 269 L 257.5 270 L 253 267.5 L 254.5 265 L 258.5 264 Z " /><path fill="rgb(102,153,102)" stroke="rgb(102,153,102)" stroke-width="0" opacity="1" d="M 258.5 278 Q 261.1 277.2 260 280.5 L 257 282 L 258.5 278 Z " /><path fill="rgb(102,153,102)" stroke="rgb(102,153,102)" stroke-width="0" opacity="1" d="M 271.5 279 Q 277.6 277.8 277 280.5 L 280 285.5 L 278.5 286 Q 277.3 281.8 270.5 283 L 269 286 L 257.5 295 L 244.5 300 L 242 299.5 L 247 297 L 248.5 294 L 253.5 294 L 271.5 279 Z " /><path fill="rgb(102,153,102)" stroke="rgb(102,153,102)" stroke-width="0" opacity="1" d="M 248.5 286 Q 254.3 283.9 253 288.5 L 247 291 L 246.5 294 L 237.5 294 L 235 292.5 L 236.5 291 L 247 290 L 248.5 286 Z " /><path fill="rgb(60,153,189)" stroke="rgb(60,153,189)" stroke-width="0" opacity="1" d="M 251.5 175 L 260 181 L 264.5 187 L 267 188.5 L 270.5 192 L 287 207 L 287 209 L 289 209 L 289 211 L 291 211 L 291 213 L 293 213 L 295 216.5 L 310 229 L 312.5 233 L 314 234.5 L 318 237 L 319.5 240 L 323 242.5 L 324.5 244 L 329 250.5 L 325.5 256 L 315 264 L 311.5 269 L 310 270.5 L 306 273.5 L 303.5 277 L 288 291.5 L 286.5 293 L 276 305 L 270 308 L 268.5 311 L 262 315 L 258.5 320 L 257 321.5 L 254 323 Q 255.3 326 251.5 325 L 238 313 L 236.5 310 L 235 308.5 L 226 301.5 L 225 299.5 L 242 299 L 241 301.5 L 247 304 Q 246.3 307.8 249.5 309 Q 255.5 310.5 257 307.5 L 258 304 L 262 303 L 263.5 300 L 266 298.5 L 267.5 296 L 270 294.5 L 272.5 291 L 274 289.5 L 280 285.5 L 279 283 L 287.5 282 L 298 274.5 L 299 267.5 L 298 265.5 L 300 265.5 L 299 263.5 L 300.5 264 L 306.5 258 L 311 254.5 L 313 248.5 L 309 243 L 300 236.5 L 290.5 226 L 283 219.5 L 281.5 218 L 276.5 212 L 274 213 L 273.5 211 L 272 211.5 L 273 206.5 L 269.5 202 L 262.5 202 L 262 200.5 L 263 198.5 L 257 194.5 L 255.5 192 L 252.5 191 L 248 192 L 245.5 197 L 238 202.5 L 236.5 205 L 234 206.5 L 233 211 L 229.5 213 L 228 212.5 L 226.5 214 L 215.5 226 L 205 234 L 198.5 242 L 194 245.5 Q 191.2 247.2 192 252.5 L 200 259 L 201.5 262 L 205 264.5 L 210.5 271 L 212 272.5 L 217 275 L 218 277.5 L 215 279.5 L 214 285 L 210.5 286 L 208.5 283 L 191 268 L 184.5 260 L 182 258.5 L 180.5 256 L 177 253.5 L 176 249.5 L 182 241 L 186 240 L 188.5 236 L 190 234.5 L 194 232 L 196.5 228 L 199 226.5 L 200.5 224 L 203 222.5 L 204.5 220 L 248 179.5 L 251.5 175 Z " /><path fill="rgb(60,153,189)" stroke="rgb(60,153,189)" stroke-width="0" opacity="1" d="M 216.5 286 L 219 287 Q 220.2 290.7 215 289 L 216.5 286 Z " /><path fill="rgb(249,203,5)" stroke="rgb(249,203,5)" stroke-width="0" opacity="1" d="M 253.5 50 L 281.5 51 Q 290.2 55.3 303.5 55 L 313.5 59 L 318.5 59 L 351.5 73 L 371.5 85 L 383 94.5 L 384.5 96 L 404 112.5 L 417 130 L 420 131.5 L 428 141.5 L 441 163.5 L 454 194.5 L 454 199.5 L 458 209.5 Q 457.7 222.8 462 231.5 L 463 259.5 L 462 260.5 L 462 281.5 Q 457.7 290.2 458 303.5 L 454 313.5 L 454 318.5 L 440 351.5 L 428 371.5 L 418.5 383 L 417 384.5 L 400.5 404 L 398 405.5 L 396.5 407 L 383 417 L 381.5 420 L 371.5 428 L 351.5 440 L 318.5 454 L 313.5 454 L 303.5 458 Q 290.2 457.7 281.5 462 L 251.5 463 L 250.5 462 L 231.5 462 Q 222.8 457.7 209.5 458 L 199.5 454 L 194.5 454 L 187.5 450 L 183.5 450 L 171.5 445 L 168.5 442 L 163.5 441 L 160.5 438 L 147 432 Q 148.1 429.3 145.5 430 L 130 418.5 L 128.5 417 L 114 405.5 L 112.5 404 L 109 399 L 106 397.5 L 96 383 L 93 381.5 L 85 371.5 L 83 366 Q 80.3 367.1 81 364.5 Q 73.9 356.6 71 344.5 L 68 341.5 L 63 329.5 L 63 325.5 L 59 318.5 L 59 313.5 L 55 303.5 Q 55.3 290.2 51 281.5 L 50 251.5 L 51 250.5 L 51 230.5 L 54 222.5 L 55 209.5 Q 59.2 204.2 59 194.5 L 63 187.5 L 63 183.5 L 68 171.5 L 71 168.5 L 72 163.5 L 75 160.5 L 81 147 Q 83.7 148.1 83 145.5 L 94.5 130 L 96 128.5 L 105 118.5 L 106 115 L 109 113.5 L 112.5 109 L 114 107.5 L 130 96 L 131.5 93 L 141.5 85 L 147 83 Q 145.9 80.3 148.5 81 L 163.5 72 L 168.5 71 L 171.5 68 L 183.5 63 L 187.5 63 L 194.5 59 L 199.5 59 L 209.5 55 Q 222.8 55.3 231.5 51 L 252.5 51 L 253.5 50 Z M 240 60 Q 229 64 214 64 L 205 68 L 199 68 L 192 72 L 185 73 L 170 81 L 167 81 L 141 98 L 139 101 L 121 115 L 119 117 L 115 119 L 114 122 L 113 123 L 105 134 L 102 135 L 101 138 L 100 139 L 86 159 L 73 185 Q 73 194 68 199 L 68 205 L 64 214 L 63 229 L 60 241 L 60 274 Q 64 284 64 300 Q 68 305 68 315 L 72 322 L 72 326 L 76 333 L 76 336 L 85 354 L 98 373 L 101 374 L 102 377 L 104 378 L 115 393 L 117 394 L 119 398 L 133 408 L 134 410 L 152 423 L 172 433 L 175 436 L 214 449 Q 229 449 240 453 L 274 453 L 285 450 L 300 449 L 336 437 L 356 427 L 368 419 L 369 418 L 393 399 L 394 397 L 398 394 L 408 381 L 410 379 L 416 371 L 419 369 L 429 350 L 432 347 L 433 342 L 436 339 L 437 333 L 441 326 L 441 322 L 444 318 Q 444 306 449 300 L 450 285 L 453 274 L 453 239 L 450 229 L 449 214 L 445 205 L 445 199 L 441 192 L 441 188 L 437 181 L 437 178 L 428 160 L 411 136 L 408 134 L 398 121 L 397 119 L 394 115 L 380 105 L 378 102 L 376 101 L 374 100 L 354 85 L 336 76 L 333 76 L 326 72 L 322 72 L 315 68 Q 305 68 300 64 L 286 63 L 274 60 L 240 60 Z " /><path fill="rgb(249,203,5)" stroke="rgb(249,203,5)" stroke-width="0" opacity="1" d="M 249.5 171 Q 256.5 169.5 258 173.5 L 259 175.5 L 257 174.5 L 255.5 172 Q 249 170.5 247.5 174 L 249.5 171 Z " /><path fill="rgb(249,203,5)" stroke="rgb(249,203,5)" stroke-width="0" opacity="1" d="M 260.5 176 L 263 179.5 L 261 178.5 L 260.5 176 Z " /><path fill="rgb(249,203,5)" stroke="rgb(249,203,5)" stroke-width="0" opacity="1" d="M 239 180 L 241 180.5 L 238.5 184 L 238 182.5 L 239 180 Z " /><path fill="rgb(249,203,5)" stroke="rgb(249,203,5)" stroke-width="0" opacity="1" d="M 264.5 180 L 267.5 184 L 270 185.5 L 268.5 185 L 265 182.5 L 264.5 180 Z " /><path fill="rgb(249,203,5)" stroke="rgb(249,203,5)" stroke-width="0" opacity="1" d="M 235 184 L 237 184.5 L 234 186.5 L 235 184 Z " /><path fill="rgb(249,203,5)" stroke="rgb(249,203,5)" stroke-width="0" opacity="1" d="M 270.5 187 L 275 190.5 L 276.5 192 L 279 196 L 283 198.5 L 284 200.5 L 282 199.5 L 280.5 197 L 278 195.5 L 276.5 193 L 274 191.5 L 272.5 189 L 270.5 187 Z " /><path fill="rgb(249,203,5)" stroke="rgb(249,203,5)" stroke-width="0" opacity="1" d="M 231.5 188 L 234 188.5 L 230.5 191 L 230 189.5 L 231.5 188 Z " /><path fill="rgb(249,203,5)" stroke="rgb(249,203,5)" stroke-width="0" opacity="1" d="M 228.5 192 L 230 192.5 L 226 195.5 L 224.5 197 L 222 201 L 218 203.5 L 216.5 205 L 214 206 L 213.5 209 L 213 206.5 L 218 202.5 L 219.5 201 L 222 197 L 226 194.5 L 227.5 193 L 228.5 192 Z " /><path fill="rgb(249,203,5)" stroke="rgb(249,203,5)" stroke-width="0" opacity="1" d="M 285.5 201 L 288 204.5 L 286 203.5 L 285.5 201 Z " /><path fill="rgb(249,203,5)" stroke="rgb(249,203,5)" stroke-width="0" opacity="1" d="M 291.5 208 L 295 209 L 296 213 L 300 214 Q 298.5 217.7 301.5 217 L 305 221.5 L 303 220.5 L 301.5 218 L 299 216.5 L 297.5 214 L 295 212.5 L 293.5 210 L 291.5 208 Z " /><path fill="rgb(249,203,5)" stroke="rgb(249,203,5)" stroke-width="0" opacity="1" d="M 210.5 209 L 212 209.5 L 209 214 L 205 216.5 L 203.5 218 L 201 222 L 197 224.5 L 195.5 226 L 193.5 227 L 193.5 226 L 197 223.5 L 198.5 222 L 201 218 L 205 215.5 L 206.5 213 L 209 211.5 L 210.5 209 Z " /><path fill="rgb(249,203,5)" stroke="rgb(249,203,5)" stroke-width="0" opacity="1" d="M 312.5 229 L 316 231.5 L 314.5 231 L 312.5 229 Z " /><path fill="rgb(249,203,5)" stroke="rgb(249,203,5)" stroke-width="0" opacity="1" d="M 189.5 230 L 191 230.5 L 189 231 L 188.5 233 L 188 231.5 L 189.5 230 Z " /><path fill="rgb(249,203,5)" stroke="rgb(249,203,5)" stroke-width="0" opacity="1" d="M 316.5 233 L 321 236.5 L 322 238.5 L 320 237.5 L 318.5 235 L 316.5 233 Z " /><path fill="rgb(249,203,5)" stroke="rgb(249,203,5)" stroke-width="0" opacity="1" d="M 186.5 234 L 184.5 237 L 184 235 L 186.5 234 Z " /><path fill="rgb(249,203,5)" stroke="rgb(249,203,5)" stroke-width="0" opacity="1" d="M 176.5 243 L 178 243.5 L 176 244 L 173.5 248 L 172 247.5 L 175 245.5 L 176.5 243 Z " /><path fill="rgb(249,203,5)" stroke="rgb(249,203,5)" stroke-width="0" opacity="1" d="M 171.5 249 L 173 252.5 L 171 251.5 L 171.5 249 Z " /><path fill="rgb(249,203,5)" stroke="rgb(249,203,5)" stroke-width="0" opacity="1" d="M 176.5 256 L 180 258.5 L 178.5 258 L 176.5 256 Z " /><path fill="rgb(249,203,5)" stroke="rgb(249,203,5)" stroke-width="0" opacity="1" d="M 183.5 262 L 185 265 L 189 267.5 L 190 269.5 L 188 268.5 L 186.5 266 L 184 264.5 L 183.5 262 Z " /><path fill="rgb(249,203,5)" stroke="rgb(249,203,5)" stroke-width="0" opacity="1" d="M 320.5 263 L 320 264.5 L 318.5 266 L 320.5 263 Z " /><path fill="rgb(249,203,5)" stroke="rgb(249,203,5)" stroke-width="0" opacity="1" d="M 316.5 267 L 316 268.5 L 314.5 270 L 310.5 275 L 308 276.5 L 306.5 279 L 304 280.5 L 302.5 283 L 300 284.5 L 298.5 287 L 296 288.5 L 294.5 291 L 291 293.5 L 289.5 296 L 287 297.5 L 285.5 300 L 283 301.5 L 281.5 304 L 279 305.5 L 277.5 308 L 275 309.5 L 273.5 312 L 270 314.5 L 268.5 316 L 266 320 L 262.5 321 L 262.5 320 L 266 317.5 L 267.5 316 L 270 312 L 278 307 L 283.5 299 L 287 296.5 L 290 293.5 L 291 291 L 295 288.5 L 296.5 287 L 299 283 L 316.5 267 Z " /><path fill="rgb(249,203,5)" stroke="rgb(249,203,5)" stroke-width="0" opacity="1" d="M 191.5 270 L 194.5 274 L 197 275.5 L 198.5 278 L 202 280.5 L 203.5 282 L 207 286.5 L 205 287 L 203.5 283 Q 199.8 284.3 201 280.5 L 197 279 L 196 275 L 192 272.5 L 191.5 270 Z " /><path fill="rgb(249,203,5)" stroke="rgb(249,203,5)" stroke-width="0" opacity="1" d="M 208.5 287 Q 211.5 286.5 210 293.5 Q 211.9 296.8 218 295 L 220.5 299 Q 223.1 298.2 222 301.5 L 227 305.5 L 228.5 307 L 231 311 L 244 322.5 L 245.5 324 L 248 328 L 252 329.5 L 250.5 330 L 247 329 L 245.5 325 L 243 323.5 L 241.5 321 L 238 318.5 L 236.5 317 L 232.5 312 Q 228.8 313.3 230 309.5 L 226 308 L 224.5 304 Q 221.2 305.1 222 302.5 L 221 300 L 217 298.5 L 217 296 L 209.5 296 L 209 294.5 L 208 291.5 L 209 288.5 L 208.5 287 Z " /><path fill="rgb(249,203,5)" stroke="rgb(249,203,5)" stroke-width="0" opacity="1" d="M 261.5 322 L 262 323.5 L 258 325 L 257 329 L 255 328.5 L 258.5 324 L 261.5 322 Z " /><path fill="rgb(220,223,222)" stroke="rgb(220,223,222)" stroke-width="0" opacity="1" d="M 261.5 202 Q 270 200 272 204.5 L 273 209.5 Q 270.3 211.3 272 217.5 Q 274.7 219.3 273 225.5 L 270.5 228 L 256.5 228 Q 253.3 232 247 232 Q 248.1 234.7 245.5 234 L 241 235 L 232 218.5 L 231 211 L 239.5 210 L 242.5 207 L 261.5 202 Z " /><path fill="rgb(220,223,222)" stroke="rgb(220,223,222)" stroke-width="0" opacity="1" d="M 257.5 231 Q 263.8 229.8 265 233.5 L 266.5 235 Q 268.3 237.7 274.5 236 L 276 237.5 L 277 242.5 L 274 249 Q 270.7 247.9 272 252 L 277.5 249 L 284.5 248 L 289 251.5 L 290 256.5 L 287.5 260 L 279.5 264 L 276.5 264 L 272 267.5 Q 272.9 270.9 267.5 269 L 263.5 274 L 261 275.5 L 262.5 278 L 265 277 Q 263.5 273.3 266.5 274 L 274.5 270 L 281.5 269 L 287.5 265 L 298 265 L 299 272.5 L 295.5 277 Q 289.5 277.5 287.5 282 L 279.5 283 L 277 279 L 271.5 279 L 259.5 290 L 253.5 294 Q 248.3 292.8 247 295.5 L 245.5 297 L 242.5 299 L 223.5 299 L 221.5 299 L 218 296.5 Q 218.5 293.5 211.5 295 Q 208.3 293.3 210 286.5 L 214 285 Q 213.2 280 216.5 278 L 221.5 278 L 237.5 284 L 240 283 L 244 277.5 L 244 272.5 L 241 271 L 242.5 266 L 244 271 L 247 269.5 L 248 265.5 L 247 260 L 250 258.5 L 248 246.5 L 245 241.5 L 249 239 Q 247.9 236.3 250.5 237 L 256 233.5 L 257.5 231 Z M 268 252 L 264 253 L 266 256 Q 270 257 271 254 Q 272 251 268 252 Z M 259 264 L 255 265 L 253 268 L 258 270 L 263 269 L 264 267 L 259 264 Z M 259 278 L 257 282 L 260 281 Q 261 277 259 278 Z M 217 286 L 215 289 Q 220 291 219 287 L 217 286 Z M 249 286 L 247 290 L 241 291 Q 234 289 235 293 L 238 294 L 247 294 L 247 291 L 253 289 Q 254 284 249 286 Z " /><path fill="rgb(220,223,222)" stroke="rgb(220,223,222)" stroke-width="0" opacity="1" d="M 237 272 Q 241 270.7 239 277 L 236 275.5 L 237 272 Z " /></svg>