<svg width="2048" height="2048" viewBox="0 0 512 512" version="1.1" xmlns="http://www.w3.org/2000/svg"  style="background:transparent"><path fill="rgb(52,102,154)" stroke="rgb(52,102,154)" stroke-width="0" opacity="1" d="M 244.5 104 L 248.5 104 L 263 114.5 L 264.5 117 L 274 122.5 L 271.5 127 L 264.5 129 L 263.5 128 L 242.5 128 Q 234.6 130.1 231 136.5 L 223.5 147 Q 217.9 152.4 205.5 151 L 203 153.5 L 204.5 155 L 204.5 156 L 196.5 159 L 195 154.5 L 205.5 139 L 220 126.5 L 224.5 120 L 229 116.5 L 231 112 L 244.5 104 Z " /><path fill="rgb(52,102,154)" stroke="rgb(52,102,154)" stroke-width="0" opacity="1" d="M 307.5 120 L 311 122.5 L 310.5 124 L 307 122 L 307.5 120 Z " /><path fill="rgb(52,102,154)" stroke="rgb(52,102,154)" stroke-width="0" opacity="1" d="M 281.5 145 L 290.5 148 L 293 150.5 L 294 155.5 L 293 155.5 L 292.5 154 L 288.5 158 L 251.5 158 L 248 155.5 L 250.5 152 Q 254.3 147.3 262.5 147 L 263.5 148 L 283.5 148 L 283.5 147 L 281.5 145 Z " /><path fill="rgb(52,102,154)" stroke="rgb(52,102,154)" stroke-width="0" opacity="1" d="M 348.5 161 L 352 163.5 L 350.5 164 L 348.5 161 Z " /><path fill="rgb(52,102,154)" stroke="rgb(52,102,154)" stroke-width="0" opacity="1" d="M 162.5 184 Q 167.3 183.3 168 186.5 L 165.5 194 Q 163.3 189.8 161 194.5 L 160 201.5 L 161 202.5 L 161 299 L 164.5 297 L 164 298.5 L 163 302 Q 160.4 304.7 153.5 304 L 143.5 290 L 140 287.5 L 126.5 273 L 121 269.5 L 115.5 263 L 110 258.5 L 104 248.5 L 104 244.5 L 110 234.5 L 115.5 229 L 120 225.5 L 123.5 221 L 126.5 220 L 135 211.5 L 136.5 210 L 138 207 Q 140.7 208.1 140 205.5 L 148 198.5 L 152.5 190 L 162.5 184 Z " /><path fill="rgb(52,102,154)" stroke="rgb(52,102,154)" stroke-width="0" opacity="1" d="M 348.5 199 L 352 200.5 L 354 206.5 L 363 218 L 372 223.5 L 377.5 230 L 383 234.5 L 389 247.5 L 383 258.5 L 378.5 263 L 371 269.5 L 369.5 271 L 362 276.5 L 349.5 294 L 346 291.5 L 343 281.5 L 344 281.5 L 344.5 283 L 345 210.5 L 344 210.5 L 343.5 212 L 343 210.5 Q 343.9 202.9 348.5 199 Z " /><path fill="rgb(52,102,154)" stroke="rgb(52,102,154)" stroke-width="0" opacity="1" d="M 253 234 L 258 235.5 L 260 245.5 L 264.5 252 L 266 253.5 L 271 266.5 L 278 276.5 L 279 283.5 L 277 290.5 L 271 298 L 258.5 308 L 248.5 308 L 234 297.5 L 230 286.5 L 230 279.5 L 236 260.5 L 243 253.5 L 253 234 Z " /><path fill="rgb(52,102,154)" stroke="rgb(52,102,154)" stroke-width="0" opacity="1" d="M 350.5 327 L 353 327.5 L 351 331 L 348.5 332 L 349 330.5 L 350.5 327 Z " /><path fill="rgb(52,102,154)" stroke="rgb(52,102,154)" stroke-width="0" opacity="1" d="M 225.5 364 L 229.5 365 L 263.5 365 L 267.5 364 L 275 368.5 L 273.5 372 L 265.5 375 L 263 377.5 L 258.5 383 L 248.5 389 L 244.5 389 L 234.5 383 L 229 377.5 L 227.5 375 L 218 370.5 L 220.5 366 L 225.5 364 Z " /><path fill="rgb(52,102,154)" stroke="rgb(52,102,154)" stroke-width="0" opacity="1" d="M 181.5 368 L 186 370 L 187 372.5 L 185.5 373 L 181 369.5 L 181.5 368 Z " /><path fill="rgb(52,102,154)" stroke="rgb(52,102,154)" stroke-width="0" opacity="1" d="M 309.5 369 L 311 370.5 L 306.5 373 L 307 371.5 L 308.5 370 L 309.5 369 Z " /><path fill="rgb(102,153,102)" stroke="rgb(102,153,102)" stroke-width="0" opacity="1" d="M 242.5 128 L 263.5 128 L 267.5 129 L 270.5 128 L 269.5 130 L 261.5 129 L 260.5 130 L 244.5 130 L 239 133.5 L 233.5 140 L 232 141.5 L 225.5 150 L 216.5 155 L 205.5 156 L 194.5 162 Q 191.3 160.3 193 153.5 L 196 151.5 L 195 157.5 L 198.5 159 L 205 155.5 L 203 155 L 205.5 151 Q 221 152 227 143.5 Q 230.6 135.1 237.5 130 L 242.5 128 Z " /><path fill="rgb(102,153,102)" stroke="rgb(102,153,102)" stroke-width="0" opacity="1" d="M 259.5 143 Q 270.7 145.8 286.5 144 L 296 151.5 L 297 154.5 L 292.5 159 Q 291 156.5 289.5 160 L 282.5 161 L 281.5 160 L 248.5 160 L 244 157.5 Q 243 151 247.5 150 Q 251.6 144.6 259.5 143 Z M 282 145 L 284 147 L 284 148 L 264 148 L 263 147 Q 254 147 251 152 L 248 156 L 252 158 L 289 158 L 293 154 L 293 156 L 294 156 L 293 150 L 282 145 Z " /><path fill="rgb(102,153,102)" stroke="rgb(102,153,102)" stroke-width="0" opacity="1" d="M 186.5 163 Q 192.6 161.8 192 164.5 L 187.5 170 Q 181.2 172.2 183 166.5 L 186.5 163 Z " /><path fill="rgb(102,153,102)" stroke="rgb(102,153,102)" stroke-width="0" opacity="1" d="M 177.5 173 L 180 174.5 L 179 178 L 174.5 179 L 173 176.5 L 177.5 173 Z " /><path fill="rgb(102,153,102)" stroke="rgb(102,153,102)" stroke-width="0" opacity="1" d="M 163.5 182 Q 173.3 178.8 170 188.5 L 165 200.5 L 166 201.5 L 166 305.5 L 162.5 307 L 161 302 Q 163.7 303.1 163 300.5 L 164 298.5 L 162.5 299 L 161 298.5 L 161 202.5 L 160 198.5 L 163.5 192 L 166 193.5 L 168 186.5 L 163.5 182 Z " /><path fill="rgb(102,153,102)" stroke="rgb(102,153,102)" stroke-width="0" opacity="1" d="M 344.5 202 L 345 205.5 L 344 209.5 L 345 210.5 L 345 282.5 L 344 286.5 L 345 290.5 L 344 290.5 L 343 283.5 L 344 281.5 L 343 280.5 L 343 212.5 L 344 210.5 L 343 204.5 L 344.5 202 Z " /><path fill="rgb(102,153,102)" stroke="rgb(102,153,102)" stroke-width="0" opacity="1" d="M 311.5 215 Q 318.8 212.8 317 218 L 309 220 Q 307.1 215.2 310.5 216 L 311.5 215 Z " /><path fill="rgb(102,153,102)" stroke="rgb(102,153,102)" stroke-width="0" opacity="1" d="M 202 216 L 207 216 L 207 217.5 L 210 223.5 Q 208.7 226.3 207.5 224 L 202 219.5 L 202 216 Z " /><path fill="rgb(102,153,102)" stroke="rgb(102,153,102)" stroke-width="0" opacity="1" d="M 255.5 229 L 260 232.5 L 262 241.5 L 268 248.5 Q 271.3 261.7 279 270.5 L 281 279.5 L 281 286.5 Q 279.7 295.7 273.5 300 L 271 301.5 L 269 304.5 Q 264 312 250.5 311 L 242.5 308 L 231 298.5 L 225 287.5 L 224 282.5 L 234 257.5 L 242 248.5 Q 245.1 237.9 251 231 L 255.5 229 Z M 253 234 L 243 254 L 236 261 L 230 280 L 230 287 L 234 298 L 249 308 L 259 308 L 271 298 L 277 291 L 279 284 L 278 277 L 271 267 L 266 254 L 265 252 L 260 246 L 258 236 L 253 234 Z " /><path fill="rgb(102,153,102)" stroke="rgb(102,153,102)" stroke-width="0" opacity="1" d="M 66.5 239 L 66 240.5 L 64.5 242 L 61.5 243 L 62.5 241 L 66.5 239 Z " /><path fill="rgb(102,153,102)" stroke="rgb(102,153,102)" stroke-width="0" opacity="1" d="M 207.5 319 Q 210.8 317.9 210 320.5 L 205.5 328 L 202 326.5 L 205.5 320 L 207.5 319 Z " /><path fill="rgb(102,153,102)" stroke="rgb(102,153,102)" stroke-width="0" opacity="1" d="M 223.5 363 Q 229.8 361.3 231.5 364 L 232.5 363 L 260.5 363 L 262.5 363 Q 269.3 361.2 271 364.5 L 268.5 365 L 264.5 364 L 263.5 365 L 229.5 365 L 225.5 364 L 221.5 365 L 221.5 364 L 223.5 363 Z " /><path fill="rgb(54,153,202)" stroke="rgb(54,153,202)" stroke-width="0" opacity="1" d="M 243.5 60 Q 249.5 58.5 251 61.5 L 256.5 70 L 261 72.5 L 264 79 L 271 82.5 L 274 89 L 282 93.5 L 285.5 99 L 292 103.5 L 292 105.5 L 296.5 110 L 301 112.5 L 304 119 L 307 120.5 L 308.5 122 L 313 125.5 L 314 127.5 L 309.5 130 L 272.5 130 L 267.5 131 L 267.5 130 L 271 128.5 L 270.5 127 L 274 124.5 L 271.5 120 L 263 115.5 L 258.5 110 L 248.5 104 L 244.5 104 L 231 112 L 225.5 120 L 221 123.5 L 220 126.5 L 210.5 136 L 203 141.5 Q 201.9 148.9 196.5 152 Q 194.8 149.3 193 153.5 L 189.5 162 L 183 166.5 Q 181.5 170.9 184.5 170 L 186.5 171 L 189.5 170 L 189.5 171 L 182 174.5 L 182 176.5 L 177.5 181 L 172 183.5 L 171.5 188 L 169.5 182 L 163 182.5 L 163.5 184 L 151 191.5 Q 149.5 198.4 144.5 202 L 140 205.5 L 138 208.5 L 135 210 L 126.5 220 L 120 224.5 L 116.5 229 L 110 234.5 L 104 244.5 L 104 248.5 L 114.5 263 L 121 268.5 L 123.5 272 L 126.5 273 L 140 286.5 L 142.5 290 L 148 294.5 L 153.5 304 L 161 303 L 162.5 307 L 167 306 L 168.5 303 L 169 305.5 L 166 312.5 L 165 351.5 L 165.5 353 L 162 351 L 159 344 L 151 339.5 L 145.5 332 L 141 329.5 L 136.5 323 L 131 319.5 L 129 314 L 122 311 L 119 304 L 111 299.5 L 105.5 292 L 101 289.5 L 99 284 L 91 279.5 L 89 274 L 81 269.5 L 79 264 L 71 259.5 L 66.5 253 L 60 249.5 L 60 243 L 63.5 243 L 66 242 L 73.5 231 L 75.5 231 L 80 226.5 L 82.5 222 L 90 216.5 L 93.5 211 L 99 207.5 L 103.5 201 L 110 196.5 L 113.5 191 L 120 186.5 L 123.5 181 L 130 176.5 L 134.5 170 L 140 165.5 L 143.5 161 L 150 156.5 L 153.5 151 L 160 146.5 L 164.5 140 L 170 136.5 Q 169.5 131.5 173.5 131 L 180 126.5 L 183.5 121 L 190 116.5 L 193.5 111 L 200 106.5 L 203.5 101 L 210 96.5 L 213.5 91 L 220 86.5 L 223.5 81 L 231 75.5 L 233.5 71 L 240 66.5 L 243.5 60 Z M 185 142 L 174 149 L 169 156 L 161 161 L 157 167 L 157 171 L 160 178 L 165 180 L 170 179 L 171 176 Q 174 170 180 170 L 182 165 L 189 161 L 191 159 L 192 154 L 191 146 L 185 142 Z M 178 173 L 173 177 L 176 180 L 178 179 L 180 175 L 178 173 Z " /><path fill="rgb(54,153,202)" stroke="rgb(54,153,202)" stroke-width="0" opacity="1" d="M 282.5 142 L 295.5 143 L 300 145.5 L 299 154.5 L 294.5 160 L 297 156.5 Q 297.7 150.3 293.5 149 Q 292.3 151.3 291 148.5 L 291.5 147 L 282.5 143 L 282.5 142 Z " /><path fill="rgb(54,153,202)" stroke="rgb(54,153,202)" stroke-width="0" opacity="1" d="M 345.5 159 L 348 160 L 350.5 164 L 353 165.5 L 356.5 170 L 362 173.5 L 364 179 L 372 183.5 L 376.5 190 L 381 192.5 L 384 199 L 392 203.5 L 396.5 210 L 402 213.5 L 404 219 L 412 223.5 L 417.5 231 L 422 233.5 L 426.5 240 L 432 242 L 433 248.5 L 423 256.5 L 422 260 L 414 264.5 L 410.5 271 L 404 274 L 400.5 281 L 394 284 L 390.5 291 L 384 294 Q 383.1 300.1 377.5 303 L 374 304.5 L 371 311 L 364 314 L 361 321 L 354 324 L 351.5 328 L 350 327.5 L 345.5 334 L 343 330.5 L 343 293.5 L 341 283.5 L 342 283.5 L 344.5 291 L 346 290.5 L 348.5 294 L 353 290.5 L 355 284.5 L 363.5 275 L 371 271 L 377.5 263 L 383 258.5 L 389 245.5 L 383 234.5 L 378.5 230 L 372 224.5 L 370.5 222 L 363 218 L 354 206.5 L 350.5 199 L 346 201.5 L 345.5 203 L 344 202.5 L 341.5 210 L 341 206.5 L 343 199.5 L 343 162.5 L 345.5 159 Z " /><path fill="rgb(54,153,202)" stroke="rgb(54,153,202)" stroke-width="0" opacity="1" d="M 310.5 318 L 314 325 Q 317.3 323.9 316 328 L 307.5 329 L 303 325.5 L 301.5 324 L 300.5 322 L 306.5 326 L 310 323.5 L 310.5 318 Z " /><path fill="rgb(54,153,202)" stroke="rgb(54,153,202)" stroke-width="0" opacity="1" d="M 220.5 362 L 226 362.5 L 221 364.5 L 221.5 366 L 218 368.5 L 219.5 372 L 229 376.5 L 234.5 383 L 244.5 389 L 248.5 389 L 263 378.5 L 265.5 375 L 275 370.5 L 273.5 367 L 271 365.5 L 269.5 363 L 267 362.5 L 271.5 362 L 272.5 363 L 309.5 363 L 314 365.5 L 312 369 L 307 370 L 306 374 L 303 375.5 L 303 377.5 L 297.5 383 L 294 384 L 289.5 392 L 284 394 L 279.5 402 L 274 404 L 269.5 412 L 263 415.5 L 260 422 L 253 426.5 L 248.5 433 L 242 432 Q 241.1 426.1 236.5 423 L 232 420.5 L 226.5 413 L 222 410.5 L 219 404 L 212 400.5 L 206.5 393 L 202 390.5 L 199 384 L 191 379.5 L 186 370 L 180 368 L 179 365.5 L 183.5 363 L 219.5 363 L 220.5 362 Z " /><path fill="rgb(153,153,102)" stroke="rgb(153,153,102)" stroke-width="0" opacity="1" d="M 244.5 130 L 267 130.5 L 262.5 132 L 245.5 132 L 241 135.5 L 236.5 141 L 233 143.5 L 227.5 152 L 217.5 159 L 210.5 159 L 202.5 161 L 192.5 169 L 188.5 170 L 191 166.5 L 192 163 L 188 162.5 L 191 160.5 L 192.5 156 L 194.5 162 L 205.5 156 L 216.5 155 L 229 146.5 L 232 140 L 239 134.5 L 240.5 132 L 244.5 130 Z " /><path fill="rgb(153,153,102)" stroke="rgb(153,153,102)" stroke-width="0" opacity="1" d="M 255.5 141 L 278.5 141 L 285 143.5 L 264.5 144 L 259.5 143 L 253.5 145 L 244 153.5 Q 243 158 245.5 159 L 248.5 160 L 281.5 160 L 283.5 161 L 292.5 159 L 296.5 155 L 297 156.5 L 290.5 162 L 246.5 162 L 242 160 L 241 153.5 L 246.5 147 L 255.5 141 Z " /><path fill="rgb(153,153,102)" stroke="rgb(153,153,102)" stroke-width="0" opacity="1" d="M 170.5 183 L 171 190.5 L 170 191.5 L 170 299.5 L 166.5 306 L 166 201.5 L 165 198.5 L 170 188.5 L 170.5 183 Z " /><path fill="rgb(153,153,102)" stroke="rgb(153,153,102)" stroke-width="0" opacity="1" d="M 342.5 206 L 343 286.5 L 342 286.5 L 340 277.5 L 340 215.5 L 342.5 206 Z " /><path fill="rgb(153,153,102)" stroke="rgb(153,153,102)" stroke-width="0" opacity="1" d="M 313.5 211 Q 319.1 210.9 321 214.5 Q 322 220 318.5 221 L 310 226.5 L 308.5 228 L 299 235.5 L 297.5 238 L 287.5 239 L 286 235.5 L 290 233 L 295 223 L 302 218.5 L 305.5 213 L 313.5 211 Z M 312 215 L 311 216 Q 307 215 309 220 L 317 218 Q 319 213 312 215 Z " /><path fill="rgb(153,153,102)" stroke="rgb(153,153,102)" stroke-width="0" opacity="1" d="M 199.5 212 Q 209 210 211 215.5 L 215.5 222 L 220 225.5 L 221 235.5 L 217.5 238 L 202 226.5 L 199 221 L 195 218.5 L 194 215.5 L 199.5 212 Z M 202 216 L 202 220 L 208 224 Q 209 226 210 224 L 207 218 L 207 216 L 202 216 Z " /><path fill="rgb(153,153,102)" stroke="rgb(153,153,102)" stroke-width="0" opacity="1" d="M 253.5 225 Q 259 224 260 227.5 L 263 237.5 L 266.5 243 L 269 244.5 Q 273.2 257.8 281 267.5 L 283 286.5 L 282 293.5 L 279 300 L 265.5 311 Q 259.5 314 249.5 313 L 240.5 310 L 230 303 L 222 288.5 L 222 276.5 L 235.5 251 L 239 248.5 Q 242.1 234.1 251.5 226 L 253.5 225 Z M 256 229 L 251 231 Q 245 238 242 249 L 234 258 L 224 283 L 225 288 L 231 299 L 243 308 L 251 311 Q 264 312 269 305 L 271 302 L 274 300 Q 280 296 281 287 L 281 280 L 279 271 Q 271 262 268 249 L 262 242 L 260 233 L 256 229 Z " /><path fill="rgb(153,153,102)" stroke="rgb(153,153,102)" stroke-width="0" opacity="1" d="M 295.5 305 L 299 306 L 303.5 312 L 310 316.5 L 310 323 Q 305.9 321.3 307 325.5 L 305.5 325 L 296.5 321 L 293 317.5 L 292 308.5 L 293 306 L 295.5 305 Z " /><path fill="rgb(153,153,102)" stroke="rgb(153,153,102)" stroke-width="0" opacity="1" d="M 214.5 308 Q 219 307 220 309.5 Q 222.3 318.8 217.5 321 L 212 324.5 L 210 330 Q 207.3 331.9 200.5 331 L 195 327.5 L 204 314 Q 210.8 312.9 214.5 308 Z M 208 319 L 206 320 L 202 327 L 206 328 L 210 321 Q 211 318 208 319 Z " /><path fill="rgb(153,153,102)" stroke="rgb(153,153,102)" stroke-width="0" opacity="1" d="M 230.5 361 L 262.5 361 L 267 362.5 L 226.5 363 L 226.5 362 L 230.5 361 Z " /><path fill="rgb(234,237,238)" stroke="rgb(234,237,238)" stroke-width="0" opacity="1" d="M 313.5 128 L 315.5 130 L 328.5 130 L 332 133.5 L 336.5 140 L 342 143.5 L 343 145.5 L 343 157.5 L 345 159.5 L 343 162.5 L 343 199.5 L 340 215.5 L 340 277.5 L 343 293.5 L 343 330.5 L 345 333.5 L 343 335.5 L 343 358.5 L 339.5 362 L 337.5 363 L 321.5 363 L 319.5 363 Q 314.5 362 313.5 365 L 309.5 363 L 272.5 363 L 264.5 361 L 228.5 361 L 219.5 363 L 183.5 363 L 179.5 365 L 172 360.5 L 169 354 L 165 351.5 L 166 312.5 L 170 299.5 L 170 193.5 L 172 183.5 L 173.5 182 Q 179.9 181.4 182 176.5 L 183.5 173 L 193.5 169 Q 197.8 162.8 205.5 160 L 217.5 159 L 231 148.5 L 235.5 141 L 241 136.5 L 243.5 133 L 245.5 132 L 265.5 132 L 272.5 130 L 309.5 130 L 313.5 128 Z M 256 141 L 247 147 L 241 154 L 242 160 L 247 162 L 291 162 L 295 160 L 299 155 L 300 146 L 296 143 Q 285 144 280 141 L 256 141 Z M 314 211 L 306 213 L 302 219 L 295 223 L 290 233 L 286 236 L 288 239 L 298 238 L 299 236 L 309 228 L 310 227 L 319 221 Q 322 220 321 215 Q 319 211 314 211 Z M 200 212 L 194 216 L 195 219 L 199 221 L 202 227 L 218 238 L 221 236 L 220 226 L 216 222 L 211 216 Q 209 210 200 212 Z M 254 225 L 252 226 Q 242 234 239 249 L 236 251 L 222 277 L 222 289 L 230 303 L 241 310 L 250 313 Q 260 314 266 311 L 279 300 L 282 294 L 283 287 L 281 268 Q 273 258 269 245 L 267 243 L 263 238 L 260 228 Q 259 224 254 225 Z M 296 305 L 293 306 L 292 309 L 293 318 L 302 324 L 303 326 L 308 329 L 316 328 Q 317 324 314 325 L 310 317 L 304 312 L 299 306 L 296 305 Z M 215 308 Q 211 313 204 314 L 195 328 L 201 331 Q 207 332 210 330 L 212 325 L 218 321 Q 222 319 220 310 Q 219 307 215 308 Z " /><path fill="rgb(234,237,238)" stroke="rgb(234,237,238)" stroke-width="0" opacity="1" d="M 184.5 142 L 191 145.5 L 192 153.5 L 191 158.5 L 188.5 161 L 182 164.5 L 180 170 Q 173.6 170.3 171 175.5 L 170 179 L 164.5 180 L 160 178 L 157 170.5 L 157 166.5 L 160.5 161 L 169 155.5 L 173.5 149 L 184.5 142 Z " /></svg>