<svg width="2048" height="2048" viewBox="0 0 512 512" version="1.1" xmlns="http://www.w3.org/2000/svg"  style="background:transparent"><path fill="rgb(51,102,153)" stroke="rgb(51,102,153)" stroke-width="0" opacity="1" d="M 248.5 192 L 252.5 192 L 259 198.5 L 260.5 200 L 264 203.5 L 262.5 205 L 233 209 L 234.5 205 L 242 198.5 L 245.5 194 L 248.5 192 Z " /><path fill="rgb(51,102,153)" stroke="rgb(51,102,153)" stroke-width="0" opacity="1" d="M 210.5 230 Q 214.7 228.9 213 233 Q 210.3 231.9 211 234.5 L 208 232.5 L 210.5 230 Z " /><path fill="rgb(51,102,153)" stroke="rgb(51,102,153)" stroke-width="0" opacity="1" d="M 218 236 Q 223.6 237.9 233.5 237 L 237.5 239 L 249 239 Q 250.7 243.1 246.5 242 L 230.5 251 L 223.5 251 L 211 241.5 L 218 237.5 L 218 236 Z " /><path fill="rgb(51,102,153)" stroke="rgb(51,102,153)" stroke-width="0" opacity="1" d="M 297.5 240 L 300 240 Q 298.9 242.7 301.5 242 L 304 247 Q 307.8 246.3 309 249.5 L 308 257 L 304 258 L 301.5 264 L 300 262.5 L 300 245.5 L 297.5 243 Q 290.6 245 292 241 L 297.5 240 Z " /><path fill="rgb(51,102,153)" stroke="rgb(51,102,153)" stroke-width="0" opacity="1" d="M 198.5 241 L 200 242.5 L 201 243.5 L 201 261.5 Q 199 266 197 262.5 Q 197.8 257.8 194.5 257 L 192 255.5 L 191 251.5 L 192 248 L 196 247 L 198.5 241 Z " /><path fill="rgb(51,102,153)" stroke="rgb(51,102,153)" stroke-width="0" opacity="1" d="M 286.5 274 Q 289.5 273.1 288 277.5 L 283 281.5 L 281.5 283 L 275 288.5 L 266 300 L 258 306.5 L 254.5 311 L 248.5 313 L 243 308.5 L 236 298.5 L 248.5 291 L 252.5 291 L 258.5 287 L 261.5 287 L 265.5 283 L 271.5 282 L 274.5 279 L 280.5 278 L 286.5 274 Z " /><path fill="rgb(102,153,102)" stroke="rgb(102,153,102)" stroke-width="0" opacity="1" d="M 248.5 172 L 253 173.5 L 254.5 176 L 257 177.5 L 258.5 180 L 262 182.5 L 263.5 185 L 266 186.5 L 267.5 189 L 270 190.5 L 271.5 193 L 274 194.5 L 275.5 197 L 278 198.5 L 279.5 201 L 282 202.5 L 284.5 206 L 286 207.5 L 291 211.5 Q 289.8 215.3 293.5 214 L 295 218 L 291.5 216 L 284 209.5 L 282.5 208 L 280 207 L 279 203.5 L 268 191 L 260 184.5 L 258.5 182 L 256 180.5 L 253.5 177 L 248.5 176 L 245 178 L 242.5 182 L 241 183.5 L 236 190 L 232 192.5 L 230.5 194 L 226.5 199 L 224 200.5 L 221.5 204 L 220 205.5 L 217 207 L 213.5 212 L 210.5 214 L 210 211.5 L 213 210 L 214 206 L 218 205 L 220.5 201 L 222 199.5 L 226 197 L 231 189 L 239 182.5 L 240.5 181 L 244.5 176 L 247 174.5 L 248.5 172 Z " /><path fill="rgb(102,153,102)" stroke="rgb(102,153,102)" stroke-width="0" opacity="1" d="M 258.5 205 L 265 205.5 L 264 208 L 257.5 210 L 234.5 212 L 232 211 Q 230.7 207.7 235.5 209 L 236.5 208 L 247.5 208 L 258.5 205 Z " /><path fill="rgb(102,153,102)" stroke="rgb(102,153,102)" stroke-width="0" opacity="1" d="M 199.5 222 Q 202.8 220.9 202 223.5 L 202.5 225 L 194 231 L 179.5 248 L 177 249.5 L 176 253.5 L 177 256 L 181 258.5 L 182.5 260 L 188.5 267 L 192 270.5 L 198.5 278 L 201 279.5 Q 202.3 283.3 198.5 282 L 195.5 278 L 193 276.5 L 191.5 274 L 189 272.5 L 187.5 270 L 185 268.5 L 182.5 265 L 181 263.5 L 176 259.5 L 174.5 257 L 172 255.5 Q 170.5 248.5 174.5 247 L 176 245.5 L 180 243 L 182.5 239 L 184 237.5 L 189 233.5 L 190.5 231 L 193 229.5 L 195.5 226 L 197 224.5 L 199.5 222 Z " /><path fill="rgb(102,153,102)" stroke="rgb(102,153,102)" stroke-width="0" opacity="1" d="M 299 222 L 303 223.5 L 305.5 227 L 307 228.5 L 311 231 L 322.5 244 L 324 245.5 L 328 248 L 329 254.5 L 325 257 L 321.5 262 L 320 263.5 L 316 266 L 313.5 270 L 312 271.5 L 308 274 L 304.5 279 L 303 280.5 L 299 283 L 296.5 287 L 295 288.5 L 291 291 L 288.5 295 L 287 296.5 L 282 300.5 L 279.5 304 L 278 305.5 L 274 308 L 271.5 312 L 270 313.5 L 266 316 L 261 324 L 257 326.5 L 255.5 329 L 253 330.5 L 251.5 333 Q 247.1 334.5 248 331.5 L 247 329 L 243 326.5 L 241.5 324 L 239 322.5 L 237.5 320 L 235 318.5 L 233.5 316 L 231 314.5 L 229.5 312 L 226 309.5 L 224.5 307 L 222 305.5 L 220.5 303 L 218 301.5 L 216.5 299 L 214 297.5 L 212.5 295 L 210 293.5 Q 208.9 290.2 211.5 291 L 221 299.5 Q 219.9 302.8 222.5 302 L 229.5 310 L 232 311.5 L 234.5 315 L 236 316.5 L 240 319 L 245 327 L 250.5 330 L 256 325.5 L 264 315 L 268 312.5 L 269.5 310 L 272 308.5 L 273.5 306 L 276 304.5 L 300.5 278 L 303 276.5 L 304.5 274 L 306 272.5 L 320 257 L 325 253.5 L 325 251.5 L 313 238 L 310 236.5 L 308.5 235 L 301.5 226 L 299 224.5 L 299 222 Z " /><path fill="rgb(102,153,102)" stroke="rgb(102,153,102)" stroke-width="0" opacity="1" d="M 220.5 223 L 223 227 L 239.5 227 L 240 228.5 L 235.5 231 L 223 231 Q 225.1 225.8 220.5 227 L 219 224.5 L 220.5 223 Z " /><path fill="rgb(102,153,102)" stroke="rgb(102,153,102)" stroke-width="0" opacity="1" d="M 245.5 224 L 260.5 224 L 261 226 L 251.5 227 L 244 225.5 L 245.5 224 Z " /><path fill="rgb(102,153,102)" stroke="rgb(102,153,102)" stroke-width="0" opacity="1" d="M 213.5 229 L 221.5 232 L 224.5 235 L 263.5 236 L 266.5 238 Q 272.8 236.2 274.5 239 L 299 239.5 L 292 241 Q 290.6 245 297.5 243 L 300 245.5 L 300 262.5 L 299 262.5 L 298 260.5 L 298 247.5 L 297 245 L 273.5 244 L 258.5 240 L 232.5 253 L 223.5 254 L 218 250.5 L 216.5 249 L 208 242.5 Q 206.2 236.8 212.5 239 Q 215.5 237.5 212.5 236 L 207.5 236 L 203.5 238 L 205.5 235 L 209.5 234 L 211 234.5 Q 210.3 231.9 213 233 L 213.5 229 Z M 218 236 L 218 238 L 211 242 L 224 251 L 231 251 L 247 242 Q 251 243 249 239 L 238 239 L 234 237 Q 224 238 218 236 Z " /><path fill="rgb(102,153,102)" stroke="rgb(102,153,102)" stroke-width="0" opacity="1" d="M 201.5 243 L 202 261.5 L 201 261.5 L 201.5 243 Z " /><path fill="rgb(102,153,102)" stroke="rgb(102,153,102)" stroke-width="0" opacity="1" d="M 287.5 270 L 293 270.5 L 280.5 278 L 265.5 283 L 261.5 287 L 258.5 287 L 252.5 291 L 248.5 291 L 243.5 295 L 238.5 296 L 234 299 Q 233.3 295.2 236.5 294 L 250.5 287 L 258.5 285 L 264.5 281 L 267.5 281 L 270.5 278 L 281.5 273 L 284.5 273 L 287.5 270 Z " /><path fill="rgb(62,153,188)" stroke="rgb(62,153,188)" stroke-width="0" opacity="1" d="M 248.5 176 Q 254.7 175.3 256 179.5 L 257.5 182 L 260 183.5 L 266.5 191 L 268 192.5 L 279 203.5 L 280 207 L 284 208 L 286.5 212 L 289 213.5 L 287.5 213 L 276.5 206 L 266.5 206 L 264.5 207 L 264.5 205 L 263 204.5 L 264 203.5 L 260.5 200 L 259 198.5 L 252.5 192 L 248.5 192 L 242 197.5 L 235.5 205 L 233 206.5 L 232 211 Q 220.9 209.9 214 213 L 217 207 L 220 205.5 L 221.5 204 L 225.5 199 L 228 197.5 L 230.5 194 L 232 192.5 L 236 190 L 241 182 L 245 179.5 L 246.5 178 L 248.5 176 Z " /><path fill="rgb(62,153,188)" stroke="rgb(62,153,188)" stroke-width="0" opacity="1" d="M 202.5 223 L 215 229.5 L 212.5 230 L 208 232.5 Q 210.2 233.7 207.5 235 L 203 237.5 L 205.5 238 L 208.5 236 L 208.5 237 L 202 240.5 Q 203 244.3 200 243 Q 201.1 240.3 198.5 241 L 196 247 L 192 248 L 191 252.5 L 193.5 257 L 197 259.5 L 198.5 264 L 202 262 L 202 275.5 L 200.5 279 L 197 276.5 L 192 269 L 188.5 267 L 182.5 260 L 181 258.5 L 177 256 L 176 251.5 L 178.5 248 L 181 246.5 L 194 231 L 203 224.5 L 202.5 223 Z " /><path fill="rgb(62,153,188)" stroke="rgb(62,153,188)" stroke-width="0" opacity="1" d="M 299.5 225 L 304 228.5 L 308.5 235 L 310 236.5 L 313 238 L 325 251.5 L 325 253.5 L 320 257 L 306 274 L 303 275.5 L 301.5 278 L 298 280.5 L 274.5 306 L 272 307.5 L 270.5 310 L 268 311.5 L 265.5 315 L 264 316.5 L 254.5 327 L 250.5 330 L 245 327 L 240 319 L 236 316.5 L 234.5 315 L 230.5 310 L 228 308.5 L 222.5 302 Q 219.9 302.8 221 299.5 L 216 295.5 L 217.5 296 L 225.5 299 L 231.5 297 L 234 297.5 L 235.5 299 L 244.5 310 L 248.5 313 L 251.5 313 L 258 307.5 L 264.5 300 L 266 298.5 L 276.5 287 L 283 283 L 285.5 279 L 288 277.5 Q 287.3 271.8 291.5 271 L 293 270.5 L 291 269.5 Q 296.5 270 298 266.5 L 299 263 L 301.5 264 L 304 258 L 308 257 L 309 249.5 Q 307.8 246.3 304 247 L 301.5 242 L 300 240.5 L 297 238.5 L 299 235.5 L 299.5 225 Z " /><path fill="rgb(249,203,4)" stroke="rgb(249,203,4)" stroke-width="0" opacity="1" d="M 253.5 50 L 281.5 51 Q 290.2 55.3 303.5 55 L 313.5 59 L 318.5 59 L 351.5 73 L 371.5 85 L 383 94.5 L 384.5 96 L 404 112.5 L 417 130 L 420 131.5 L 428 141.5 L 441 163.5 L 454 194.5 L 454 199.5 L 458 209.5 Q 457.7 222.8 462 231.5 L 463 259.5 L 462 260.5 L 462 281.5 Q 457.7 290.2 458 303.5 L 454 313.5 L 454 318.5 L 440 351.5 L 428 371.5 L 418.5 383 L 417 384.5 L 400.5 404 L 398 405.5 L 396.5 407 L 383 417 L 381.5 420 L 371.5 428 L 351.5 440 L 318.5 454 L 313.5 454 L 303.5 458 Q 290.2 457.7 281.5 462 L 251.5 463 L 250.5 462 L 231.5 462 Q 222.8 457.7 209.5 458 L 199.5 454 L 194.5 454 L 187.5 450 L 183.5 450 L 171.5 445 L 168.5 442 L 163.5 441 L 160.5 438 L 147 432 Q 148.1 429.3 145.5 430 L 130 418.5 L 128.5 417 L 114 405.5 L 112.5 404 L 109 399 L 106 397.5 L 96 383 L 93 381.5 L 85 371.5 L 83 366 Q 80.3 367.1 81 364.5 Q 73.9 356.6 71 344.5 L 68 341.5 L 63 329.5 L 63 325.5 L 59 318.5 L 59 313.5 L 55 303.5 Q 55.3 290.2 51 281.5 L 50 251.5 L 51 250.5 L 51 230.5 L 54 222.5 L 55 209.5 Q 59.2 204.2 59 194.5 L 63 187.5 L 63 183.5 L 68 171.5 L 71 168.5 L 72 163.5 L 75 160.5 L 81 147 Q 83.7 148.1 83 145.5 L 94.5 130 L 96 128.5 L 105 118.5 L 106 115 L 109 113.5 L 112.5 109 L 114 107.5 L 130 96 L 131.5 93 L 141.5 85 L 147 83 Q 145.9 80.3 148.5 81 L 163.5 72 L 168.5 71 L 171.5 68 L 183.5 63 L 187.5 63 L 194.5 59 L 199.5 59 L 209.5 55 Q 222.8 55.3 231.5 51 L 252.5 51 L 253.5 50 Z M 240 60 Q 229 64 214 64 L 205 68 L 199 68 L 192 72 L 185 73 L 170 81 L 167 81 L 141 98 L 139 101 L 121 115 L 119 117 L 115 119 L 114 122 L 113 123 L 105 134 L 102 135 L 101 138 L 100 139 L 86 159 L 73 185 Q 73 194 68 199 L 68 205 L 64 214 L 63 229 L 60 241 L 60 274 Q 64 284 64 300 Q 68 305 68 315 L 72 322 L 72 326 L 76 333 L 76 336 L 85 354 L 98 373 L 101 374 L 102 377 L 104 378 L 115 393 L 117 394 L 119 398 L 133 408 L 134 410 L 152 423 L 172 433 L 175 436 L 214 449 Q 229 449 240 453 L 274 453 L 285 450 L 300 449 L 336 437 L 356 427 L 368 419 L 369 418 L 393 399 L 394 397 L 398 394 L 408 381 L 410 379 L 416 371 L 419 369 L 429 350 L 432 347 L 433 342 L 436 339 L 437 333 L 441 326 L 441 322 L 444 318 Q 444 306 449 300 L 450 285 L 453 274 L 453 239 L 450 229 L 449 214 L 445 205 L 445 199 L 441 192 L 441 188 L 437 181 L 437 178 L 428 160 L 411 136 L 408 134 L 398 121 L 397 119 L 394 115 L 380 105 L 378 102 L 376 101 L 374 100 L 354 85 L 336 76 L 333 76 L 326 72 L 322 72 L 315 68 Q 305 68 300 64 L 286 63 L 274 60 L 240 60 Z " /><path fill="rgb(249,203,4)" stroke="rgb(249,203,4)" stroke-width="0" opacity="1" d="M 248.5 171 L 253 172.5 L 251.5 172 L 247.5 173 L 248.5 171 Z " /><path fill="rgb(249,203,4)" stroke="rgb(249,203,4)" stroke-width="0" opacity="1" d="M 262.5 183 L 266 185.5 L 264.5 185 L 262.5 183 Z " /><path fill="rgb(249,203,4)" stroke="rgb(249,203,4)" stroke-width="0" opacity="1" d="M 235 184 L 237 184.5 L 234 186.5 L 235 184 Z " /><path fill="rgb(249,203,4)" stroke="rgb(249,203,4)" stroke-width="0" opacity="1" d="M 266.5 187 L 270 189.5 L 268.5 189 L 266.5 187 Z " /><path fill="rgb(249,203,4)" stroke="rgb(249,203,4)" stroke-width="0" opacity="1" d="M 231.5 188 L 233 188.5 L 231 189 L 230.5 191 L 230 189.5 L 231.5 188 Z " /><path fill="rgb(249,203,4)" stroke="rgb(249,203,4)" stroke-width="0" opacity="1" d="M 270.5 191 L 274 193.5 L 272.5 193 L 270.5 191 Z " /><path fill="rgb(249,203,4)" stroke="rgb(249,203,4)" stroke-width="0" opacity="1" d="M 228.5 192 L 226 195.5 L 224.5 197 L 222 201 L 218 203.5 L 216.5 205 L 214 206 L 213.5 208 L 213 206.5 L 218 202.5 L 219.5 201 L 222 197 L 226 194.5 L 227.5 193 L 228.5 192 Z " /><path fill="rgb(249,203,4)" stroke="rgb(249,203,4)" stroke-width="0" opacity="1" d="M 277.5 197 L 280 200.5 L 278 199.5 L 277.5 197 Z " /><path fill="rgb(249,203,4)" stroke="rgb(249,203,4)" stroke-width="0" opacity="1" d="M 281.5 201 L 284.5 205 L 287 206.5 L 288.5 209 L 291 210.5 L 289.5 210 L 286 207.5 L 284.5 206 L 281.5 201 Z " /><path fill="rgb(249,203,4)" stroke="rgb(249,203,4)" stroke-width="0" opacity="1" d="M 210.5 209 L 213 209.5 L 210 211.5 L 208.5 214 Q 202.5 212.5 201 215.5 L 200.5 219 L 200 214.5 L 209 211.5 L 210.5 209 Z " /><path fill="rgb(249,203,4)" stroke="rgb(249,203,4)" stroke-width="0" opacity="1" d="M 291.5 212 L 296 215.5 L 297.5 217 L 301 221.5 L 299 222 L 296.5 218 Q 293.9 218.8 295 215.5 L 291 214 L 291.5 212 Z " /><path fill="rgb(249,203,4)" stroke="rgb(249,203,4)" stroke-width="0" opacity="1" d="M 200.5 220 L 201 222 L 197 224.5 L 195.5 226 L 191.5 231 L 189 232.5 L 187.5 235 L 184.5 237 L 184 235 L 188 234 L 189.5 230 Q 192.8 231.1 192 228.5 L 193 226 L 197 223.5 L 198.5 222 L 200.5 220 Z " /><path fill="rgb(249,203,4)" stroke="rgb(249,203,4)" stroke-width="0" opacity="1" d="M 302.5 222 L 305.5 226 L 308 227.5 L 309.5 230 L 312 231.5 L 313.5 234 L 316 235.5 L 318.5 239 L 321 240.5 L 322.5 243 L 325 244.5 L 326.5 247 L 329 248.5 L 328.5 250 L 328 248 L 324 245.5 L 322.5 244 L 311 231 L 307 228.5 L 305.5 227 L 302.5 222 Z " /><path fill="rgb(249,203,4)" stroke="rgb(249,203,4)" stroke-width="0" opacity="1" d="M 182.5 238 L 184 238.5 L 180.5 241 L 180 239 L 182.5 238 Z " /><path fill="rgb(249,203,4)" stroke="rgb(249,203,4)" stroke-width="0" opacity="1" d="M 172.5 247 L 174 247.5 Q 170.5 249 172 255.5 L 176 258.5 L 174.5 258 L 171 255.5 Q 169.3 248.8 172.5 247 Z " /><path fill="rgb(249,203,4)" stroke="rgb(249,203,4)" stroke-width="0" opacity="1" d="M 328.5 255 L 329 257 L 325.5 258 L 325.5 257 L 328.5 255 Z " /><path fill="rgb(249,203,4)" stroke="rgb(249,203,4)" stroke-width="0" opacity="1" d="M 324.5 259 L 324 260.5 L 322.5 262 L 324.5 259 Z " /><path fill="rgb(249,203,4)" stroke="rgb(249,203,4)" stroke-width="0" opacity="1" d="M 176.5 260 L 181 263.5 L 182.5 265 L 186.5 270 L 189 271.5 L 190.5 274 L 193 275.5 L 194.5 278 L 197 279.5 L 198.5 282 Q 201.8 280.9 201 283.5 L 202 286 L 210 291 L 211.5 295 L 214 296.5 L 215.5 299 L 218 300.5 L 219.5 303 L 222 304.5 L 223.5 307 L 226 308.5 L 224.5 308 Q 221.2 309.1 222 306.5 L 221 304 Q 217.3 305.5 218 302.5 L 217 300 L 213 298.5 Q 214.1 295.2 211.5 296 L 209 295 Q 210.5 291.3 207.5 292 L 205 291 L 203.5 287 Q 200.2 288.1 201 285.5 L 200 283 Q 196.2 284.5 197 281.5 L 196 279 L 192 276.5 L 190.5 275 L 188 271 L 184 268.5 L 182.5 266 L 180 264.5 L 178.5 262 L 176.5 260 Z " /><path fill="rgb(249,203,4)" stroke="rgb(249,203,4)" stroke-width="0" opacity="1" d="M 320.5 262 L 321 263.5 L 320 266 L 318 265.5 L 320.5 262 Z " /><path fill="rgb(249,203,4)" stroke="rgb(249,203,4)" stroke-width="0" opacity="1" d="M 316.5 266 L 317 267.5 L 316 270 L 312 272.5 L 310.5 275 L 308 276.5 L 306.5 279 L 304 280.5 L 302.5 283 L 300 284.5 L 298.5 287 L 296 288.5 L 294.5 291 L 291 293.5 L 289.5 296 L 287 297.5 L 285.5 300 L 283 301.5 L 281.5 304 L 279 305.5 L 277.5 308 L 274 310.5 L 272.5 312 L 270 316 L 266 318.5 L 264.5 320 L 263 320.5 L 266 316 L 270 313.5 L 271.5 312 L 274 308 L 278 305.5 L 279.5 304 L 283.5 299 L 287 296.5 L 288.5 295 L 291 291 L 295 288.5 L 296.5 287 L 299 283 L 303 280.5 L 304.5 279 L 308 274 L 312 271.5 L 313.5 270 L 316.5 266 Z " /><path fill="rgb(249,203,4)" stroke="rgb(249,203,4)" stroke-width="0" opacity="1" d="M 226.5 310 L 231 313.5 L 232.5 316 L 235 317.5 L 236.5 320 L 239 321.5 L 240.5 324 L 243 325.5 L 241.5 325 L 238 322.5 L 236.5 321 L 234 320 Q 235.5 316.2 232.5 317 L 230 316 Q 231.5 312.2 228.5 313 L 226 312 L 226.5 310 Z " /><path fill="rgb(249,203,4)" stroke="rgb(249,203,4)" stroke-width="0" opacity="1" d="M 261.5 322 L 262 323.5 L 259.5 325 L 259.5 324 L 261.5 322 Z " /><path fill="rgb(249,203,4)" stroke="rgb(249,203,4)" stroke-width="0" opacity="1" d="M 246.5 329 L 248 332.5 L 247 332.5 L 246.5 329 Z " /><path fill="rgb(249,203,4)" stroke="rgb(249,203,4)" stroke-width="0" opacity="1" d="M 254.5 329 L 254 330.5 L 251.5 334 L 249 333.5 L 253 331.5 L 254.5 329 Z " /><path fill="rgb(234,237,236)" stroke="rgb(234,237,236)" stroke-width="0" opacity="1" d="M 266.5 206 L 276.5 206 L 299 220.5 L 299 235.5 L 296.5 239 L 274.5 239 Q 272.8 236.2 266.5 238 L 263.5 236 L 224.5 235 L 221.5 232 L 201 221.5 Q 199.5 215.5 202.5 214 L 209.5 213 L 211.5 213 L 213.5 212 L 216.5 213 Q 222.3 209.3 233.5 211 L 235.5 212 L 236.5 211 L 257.5 210 L 266.5 206 Z M 221 223 L 219 226 L 223 227 L 221 223 Z M 246 224 L 244 226 L 252 227 L 261 226 L 261 224 L 246 224 Z M 223 227 L 223 231 L 236 231 L 240 229 L 240 227 L 223 227 Z " /><path fill="rgb(234,237,236)" stroke="rgb(234,237,236)" stroke-width="0" opacity="1" d="M 209.5 236 L 214 237.5 Q 212.6 240.3 208 239 Q 207 243.7 210.5 245 L 218 249 L 219.5 252 Q 222.5 255 229.5 254 L 246.5 245 L 261.5 240 L 273.5 244 L 297 245 L 298 247.5 Q 296.2 258.3 299 264.5 L 295.5 269 L 287.5 270 L 284.5 273 Q 273.6 274.6 267.5 281 L 264.5 281 Q 259.5 286 250.5 287 L 236.5 294 L 232.5 298 L 228.5 297 L 223.5 299 L 202 286 Q 200.1 283.3 201 276.5 L 202 275.5 L 202 240.5 L 203.5 239 L 209.5 236 Z " /></svg>