<svg width="2048" height="2048" viewBox="0 0 512 512" version="1.1" xmlns="http://www.w3.org/2000/svg"  style="background:transparent"><path fill="rgb(53,102,154)" stroke="rgb(53,102,154)" stroke-width="0" opacity="1" d="M 248.5 205 L 253 206 L 251.5 210 L 245.5 210 L 240 213 L 241.5 210 L 243 208.5 L 244 206 L 248.5 205 Z " /><path fill="rgb(53,102,154)" stroke="rgb(53,102,154)" stroke-width="0" opacity="1" d="M 259.5 217 L 265 219.5 L 266 223 L 269 224.5 L 270.5 227 L 274 229.5 L 276 235.5 L 272.5 240 Q 268.1 241.5 269 238.5 L 267 236.5 L 266 231 Q 262.2 231.8 261 228.5 L 259 223.5 L 260 218.5 L 259.5 217 Z " /><path fill="rgb(53,102,154)" stroke="rgb(53,102,154)" stroke-width="0" opacity="1" d="M 233.5 218 L 237 219.5 Q 238 226.5 243 229.5 L 243 238.5 L 237.5 246 L 232.5 244 L 232.5 246 L 227 243.5 L 220 235.5 L 220 232.5 L 224.5 227 L 227 225.5 L 228.5 223 L 231 221.5 L 233.5 218 Z " /><path fill="rgb(53,102,154)" stroke="rgb(53,102,154)" stroke-width="0" opacity="1" d="M 282.5 240 Q 288.4 237.9 287 242.5 L 285.5 246 L 285 244 L 275.5 251 L 275 248.5 L 278.5 243 Q 281.8 244.1 281 241.5 L 282.5 240 Z " /><path fill="rgb(53,102,154)" stroke="rgb(53,102,154)" stroke-width="0" opacity="1" d="M 210.5 242 Q 216.7 241.4 219 244 L 217.5 247 Q 210.1 246.1 206.5 249 L 205 245.5 L 210.5 242 Z " /><path fill="rgb(53,102,154)" stroke="rgb(53,102,154)" stroke-width="0" opacity="1" d="M 259.5 249 L 261 251.5 L 258 253 L 255.5 257 L 253 258.5 L 250.5 262 L 244 261 L 244.5 257 L 246.5 257 L 250.5 256 L 259.5 249 Z " /><path fill="rgb(53,102,154)" stroke="rgb(53,102,154)" stroke-width="0" opacity="1" d="M 265.5 258 L 268 259.5 L 267 260.5 L 267 278.5 L 265.5 280 L 261 276.5 L 258.5 273 L 257 271.5 L 256 266.5 L 260 264 L 262.5 260 L 265.5 258 Z " /><path fill="rgb(53,102,154)" stroke="rgb(53,102,154)" stroke-width="0" opacity="1" d="M 305.5 260 L 311 266.5 L 311 271.5 L 305.5 278 L 303 274.5 L 304 273.5 L 304 264.5 L 303 262.5 L 305.5 260 Z " /><path fill="rgb(53,102,154)" stroke="rgb(53,102,154)" stroke-width="0" opacity="1" d="M 198 264 L 206 265 L 204.5 268 Q 199.3 269.3 198 266.5 L 198 264 Z " /><path fill="rgb(53,102,154)" stroke="rgb(53,102,154)" stroke-width="0" opacity="1" d="M 185 265 Q 188.7 263.5 188 266.5 L 188 268.5 Q 189.3 273.8 186.5 275 Q 183 274 184 268.5 L 185 265 Z " /><path fill="rgb(53,102,154)" stroke="rgb(53,102,154)" stroke-width="0" opacity="1" d="M 236.5 265 L 240 266.5 L 241 271.5 L 238.5 275 L 235 266.5 L 236.5 265 Z " /><path fill="rgb(53,102,154)" stroke="rgb(53,102,154)" stroke-width="0" opacity="1" d="M 283 270 Q 286.8 269.3 288 272.5 L 289 276.5 L 284.5 280 Q 280.8 278.8 282 272.5 L 283 270 Z " /><path fill="rgb(53,102,154)" stroke="rgb(53,102,154)" stroke-width="0" opacity="1" d="M 226.5 282 L 229 283.5 L 226.5 287 Q 223.2 285.9 224 288.5 L 219 292.5 L 217.5 295 L 216 296.5 L 211.5 299 L 206 295 Q 203.8 289.4 209.5 291 L 226.5 282 Z " /><path fill="rgb(53,102,154)" stroke="rgb(53,102,154)" stroke-width="0" opacity="1" d="M 281.5 292 L 287 293 L 285.5 298 Q 279.6 300.1 281 295.5 L 281 293.5 L 281.5 292 Z " /><path fill="rgb(102,153,102)" stroke="rgb(102,153,102)" stroke-width="0" opacity="1" d="M 245.5 198 Q 252.5 196.5 252 199.5 L 265 214 L 278 225.5 L 279.5 227 L 282 231 L 295 242.5 Q 295.8 245.1 292.5 244 L 288.5 239 L 257 209.5 L 253.5 205 L 252 203.5 L 247.5 201 L 245 202 L 242.5 206 L 235 212.5 L 233.5 214 L 230 219 L 222 225.5 L 220.5 227 L 212.5 236 L 210 237.5 L 205.5 243 L 201 246.5 L 199.5 249 L 197.5 250 L 195 249.5 L 199.5 244 L 202 242.5 L 203.5 240 L 206 238.5 L 207.5 236 L 211 233.5 L 212.5 232 L 216.5 227 L 219 225.5 L 220.5 223 L 223 221.5 L 224.5 219 L 227 217.5 L 228.5 215 L 231 213.5 L 232.5 211 L 236 208.5 L 237.5 206 L 240 204.5 L 245.5 198 Z " /><path fill="rgb(102,153,102)" stroke="rgb(102,153,102)" stroke-width="0" opacity="1" d="M 245.5 210 L 253 210.5 Q 249 214.5 241.5 215 L 239 213.5 L 245.5 210 Z " /><path fill="rgb(102,153,102)" stroke="rgb(102,153,102)" stroke-width="0" opacity="1" d="M 258.5 215 L 260 218.5 L 259 224.5 L 263.5 231 Q 266.8 229.9 266 232.5 L 269 240 L 271 240.5 L 268.5 241 L 264 238.5 Q 265 234 262.5 233 L 259 232 Q 259.8 228.2 256.5 227 L 254 225.5 L 257 221.5 Q 255.8 216.3 258.5 215 Z " /><path fill="rgb(102,153,102)" stroke="rgb(102,153,102)" stroke-width="0" opacity="1" d="M 236 216 L 239 217.5 Q 240 225.1 246 227.5 L 247 238.5 Q 243 241.8 243 248 L 237.5 249 L 231 247 L 232.5 244 L 237.5 246 L 243 238.5 L 243 229.5 Q 236.7 225.2 236 216 Z " /><path fill="rgb(102,153,102)" stroke="rgb(102,153,102)" stroke-width="0" opacity="1" d="M 283.5 244 L 285 245.5 L 286 245.5 L 286.5 244 L 288 247 L 293 249.5 L 291.5 252 L 287.5 253 L 281.5 250 Q 279.3 253 274 252 L 274.5 249 L 275.5 251 L 283.5 244 Z " /><path fill="rgb(102,153,102)" stroke="rgb(102,153,102)" stroke-width="0" opacity="1" d="M 211.5 247 L 219 247.5 L 216.5 250 L 205.5 251 L 204 248 L 206.5 249 L 211.5 247 Z " /><path fill="rgb(102,153,102)" stroke="rgb(102,153,102)" stroke-width="0" opacity="1" d="M 255.5 247 L 261 249.5 Q 259.3 247.9 257.5 251 L 245.5 258 L 243 257.5 L 244.5 254 Q 251.8 252.3 255.5 247 Z " /><path fill="rgb(102,153,102)" stroke="rgb(102,153,102)" stroke-width="0" opacity="1" d="M 304.5 252 L 320 268.5 L 315.5 275 L 310 280.5 L 304 285.5 Q 302.5 281.1 305.5 282 L 316 270.5 L 316 267.5 L 305.5 256 L 303 254.5 L 304.5 252 Z " /><path fill="rgb(102,153,102)" stroke="rgb(102,153,102)" stroke-width="0" opacity="1" d="M 188.5 256 L 191 257.5 L 181 267.5 L 180 271.5 L 186.5 279 L 189 280.5 L 188.5 283 L 185 281.5 L 184 278 L 181 276.5 L 179.5 274 L 176 271.5 L 177 267.5 L 186 257 L 188.5 256 Z " /><path fill="rgb(102,153,102)" stroke="rgb(102,153,102)" stroke-width="0" opacity="1" d="M 267.5 257 L 269 258.5 L 269 278.5 L 267 279.5 L 267 260.5 L 268 259.5 L 267.5 257 Z " /><path fill="rgb(102,153,102)" stroke="rgb(102,153,102)" stroke-width="0" opacity="1" d="M 194.5 259 L 209.5 260 L 215 262.5 L 210.5 268 L 200.5 271 L 192 264.5 Q 191.3 259.8 194.5 259 Z M 198 264 L 198 267 Q 199 269 205 268 L 206 265 L 198 264 Z " /><path fill="rgb(102,153,102)" stroke="rgb(102,153,102)" stroke-width="0" opacity="1" d="M 303.5 261 L 303 262.5 L 304 273.5 L 304 275.5 L 303.5 277 L 302 275.5 L 302 262.5 L 303.5 261 Z " /><path fill="rgb(102,153,102)" stroke="rgb(102,153,102)" stroke-width="0" opacity="1" d="M 231 264 L 236 264 L 236 265.5 L 236 267.5 L 237 274 Q 234 275.3 235 271.5 L 231 266.5 L 231 264 Z " /><path fill="rgb(102,153,102)" stroke="rgb(102,153,102)" stroke-width="0" opacity="1" d="M 188.5 265 L 190 266.5 L 190 274 Q 186 275.4 188 268.5 L 188 266.5 L 188.5 265 Z " /><path fill="rgb(102,153,102)" stroke="rgb(102,153,102)" stroke-width="0" opacity="1" d="M 282 266 Q 287.9 265.1 290 269.5 L 291 278.5 L 290 281 L 282.5 282 Q 278 281 279 274.5 L 282 266 Z M 283 270 L 282 273 Q 281 279 285 280 L 289 277 L 288 273 Q 287 269 283 270 Z " /><path fill="rgb(102,153,102)" stroke="rgb(102,153,102)" stroke-width="0" opacity="1" d="M 247.5 269 L 250.5 269 L 257 275.5 L 258.5 277 L 262.5 282 L 266 284.5 L 267 288 L 250.5 273 L 246.5 273 L 239 282 L 235 284.5 L 233.5 286 L 229.5 291 L 228 292.5 L 224 295 L 221.5 299 L 219 300.5 L 213.5 307 L 211.5 307 L 205 300.5 L 203.5 299 L 201 295 L 197 292.5 L 197.5 291 L 203 294.5 L 205.5 298 L 207 299.5 L 212.5 304 L 217 300.5 L 219.5 297 L 222 295.5 L 223.5 293 L 225 291.5 L 245.5 270 L 247.5 269 Z " /><path fill="rgb(102,153,102)" stroke="rgb(102,153,102)" stroke-width="0" opacity="1" d="M 229.5 278 L 232 279.5 L 205.5 292 L 205 290.5 L 209.5 287 L 229.5 278 Z " /><path fill="rgb(102,153,102)" stroke="rgb(102,153,102)" stroke-width="0" opacity="1" d="M 282.5 290 Q 287.3 289.3 288 292.5 L 282.5 293 L 280.5 293 L 279 292.5 L 282.5 290 Z " /><path fill="rgb(102,153,102)" stroke="rgb(102,153,102)" stroke-width="0" opacity="1" d="M 295.5 293 L 295 294.5 L 287.5 303 L 283.5 305 L 274 298 L 272 294.5 L 274.5 294 L 277 295.5 L 279.5 299 L 282 300.5 Q 281.2 303.1 284.5 302 L 291 296.5 Q 289.7 292.3 294.5 294 L 295.5 293 Z " /><path fill="rgb(70,153,181)" stroke="rgb(70,153,181)" stroke-width="0" opacity="1" d="M 247.5 201 L 252 203.5 L 253.5 205 L 259.5 212 L 291 241.5 L 292.5 244 L 294 245.5 L 292.5 249 L 288 247 L 286 243.5 L 287 240 Q 282.4 238.8 281 241.5 Q 281.8 244.1 278.5 243 L 273.5 252 L 271.5 249 L 270 250.5 L 267 254.5 L 269 257.5 L 266.5 258 L 260 262.5 L 258.5 264 Q 255 265 256 270.5 L 257 273 L 261 275.5 L 262.5 278 L 265.5 280 L 269 279.5 L 268 286 Q 265.3 287.1 266 284.5 L 261 280.5 L 258.5 277 L 257 275.5 L 250.5 269 L 247.5 269 L 242 273.5 L 225 293 L 222 294.5 L 220.5 297 L 217 299.5 L 215.5 302 L 211.5 304 L 207 298 L 203 295.5 L 200.5 292 L 199 291.5 L 204.5 290 L 206 295 L 213.5 299 L 216 295 L 219 293.5 L 220.5 291 L 224 288.5 Q 223.2 285.9 226.5 287 L 229 283.5 Q 226.8 282.3 229.5 281 L 232 279.5 L 230 278.5 L 235 275.5 Q 234.2 272.9 237.5 274 Q 238.8 276.3 240 273.5 L 241 269.5 L 238.5 265 L 233 263.5 L 237.5 256 Q 243.6 254.8 243 257.5 L 244 261 L 250.5 262 L 254.5 257 L 258 254.5 L 259.5 253 L 261 249.5 L 260.5 248 L 264.5 249 L 268 246.5 L 270 242.5 L 269.5 241 L 274 238.5 L 276 232.5 L 271.5 227 L 269 225.5 L 267.5 223 L 266 221.5 L 263.5 218 L 258.5 215 L 257 215.5 L 255.5 211 L 252 209.5 L 253 206 L 248.5 205 L 244 206 L 243 210 L 240 211.5 L 239 213.5 L 241 214.5 L 239 215 L 238.5 217 L 236 216 Q 237.3 219 233.5 218 L 229.5 223 L 227 224.5 L 225.5 227 L 223 228.5 L 220 232.5 L 220 235.5 L 228.5 245 L 231 245 Q 229.9 247.7 232.5 247 L 232.5 248 L 227.5 250 Q 225.5 247 219.5 248 L 218 248.5 L 219 245.5 L 217.5 244 Q 215.8 241.2 210.5 242 L 205 245.5 L 206 248 Q 203.3 246.9 204 249.5 L 204.5 251 Q 196.9 252.5 198 249 L 201 247.5 L 204.5 243 L 210 238.5 L 211.5 236 L 215 233.5 L 220.5 227 L 222 225.5 L 230 219 L 233.5 214 L 235 212.5 L 245 203.5 L 246.5 202 L 247.5 201 Z " /><path fill="rgb(70,153,181)" stroke="rgb(70,153,181)" stroke-width="0" opacity="1" d="M 303.5 255 L 307 257.5 L 316 267.5 L 316 270.5 L 305.5 282 L 303.5 283 L 302 276.5 L 303.5 277 L 305.5 278 L 311 271.5 L 311 266.5 L 305.5 260 L 302.5 262 L 302 260.5 L 303.5 255 Z " /><path fill="rgb(70,153,181)" stroke="rgb(70,153,181)" stroke-width="0" opacity="1" d="M 191.5 257 L 194 258.5 L 189.5 266 L 185 265 L 184 272.5 Q 185.8 276.8 187.5 274 L 190 274.5 L 188.5 280 L 185 277.5 L 180 269.5 L 191.5 257 Z " /><path fill="rgb(70,153,181)" stroke="rgb(70,153,181)" stroke-width="0" opacity="1" d="M 275.5 291 L 280 291.5 L 279.5 293 L 281 293.5 L 281 295.5 Q 279.6 300.1 285.5 298 L 288 292.5 L 287.5 291 Q 292.8 289.8 294 292.5 Q 294.8 295.5 291 294 L 291 296.5 L 284.5 302 L 282 302 L 280.5 299 L 277 296.5 L 275.5 294 L 274 292.5 L 275.5 291 Z " /><path fill="rgb(253,204,1)" stroke="rgb(253,204,1)" stroke-width="0" opacity="1" d="M 257.5 46 L 295.5 47 L 303.5 50 L 317.5 51 Q 322 55.5 331.5 55 L 362.5 68 L 384.5 81 L 391 86.5 L 392.5 88 L 395 89 L 396.5 92 L 416 107.5 L 437 132.5 L 450 152.5 L 450 155.5 L 458 168.5 L 463 184.5 L 466 188.5 L 467 197.5 L 471 207.5 L 471 215.5 L 475 231.5 L 475 273.5 L 471 289.5 L 470 301.5 Q 466 306.5 466 315.5 L 463 319.5 L 462 326.5 L 459 330.5 L 458 336.5 L 455 339.5 L 454 344.5 L 446 356.5 L 445 360.5 L 427.5 383 L 426 384.5 L 424 388 Q 421.3 386.9 422 389.5 L 415 399 L 400 409 L 398.5 412 L 369.5 433 L 356.5 438 L 353.5 441 L 337.5 446 L 331.5 450 L 325.5 450 L 319.5 454 L 313.5 454 L 306.5 458 Q 296.8 457.8 291.5 462 L 278.5 463 L 270.5 466 L 228.5 467 L 227.5 466 L 217.5 466 L 209.5 463 L 195.5 462 L 190.5 459 L 181.5 458 L 174.5 454 L 170.5 454 L 136.5 437 L 118 424 L 116.5 421 L 97 405.5 L 82.5 387 L 80 385.5 L 63 360.5 L 46 321.5 L 46 315.5 L 42 306.5 L 42 297.5 L 38 282.5 L 38 238.5 L 47 196.5 L 50 192.5 L 55 176.5 L 58 173.5 L 59 168.5 L 72 146.5 L 98 114 L 109.5 105 L 113 104 L 114.5 101 L 130.5 88 L 143.5 80 L 156.5 75 L 159.5 72 Q 165.7 71.7 168.5 68 Q 177.5 68 181.5 63 L 190 62 Q 188.8 59 192.5 60 L 199.5 59 L 205.5 55 Q 216.4 55.9 221.5 51 L 234.5 50 L 242.5 47 L 256.5 47 L 257.5 46 Z M 280 56 L 278 58 L 288 59 Q 294 61 293 57 Q 288 55 280 56 Z M 296 59 L 296 62 L 305 63 Q 310 67 319 68 L 345 80 L 358 88 L 390 114 L 416 147 L 429 169 L 430 174 L 433 177 Q 433 184 437 187 L 438 194 L 442 201 L 442 206 L 446 216 L 446 224 L 450 239 L 450 283 L 441 325 L 438 329 L 433 345 L 429 350 L 429 353 L 425 361 L 411 381 L 410 382 L 397 399 L 400 398 Q 403 399 402 397 L 405 395 L 424 372 L 428 369 L 440 351 L 453 324 L 454 317 L 457 313 L 458 304 L 462 294 L 462 284 L 465 275 L 465 264 L 466 263 L 465 231 L 462 222 L 462 212 L 458 202 L 457 193 L 454 189 L 453 182 Q 449 179 449 172 L 445 167 L 444 162 L 428 137 L 426 135 L 414 121 Q 415 118 412 119 L 411 117 L 410 115 L 407 111 L 404 110 L 402 107 L 388 97 L 386 94 L 367 81 L 342 69 L 335 68 L 328 64 L 319 63 L 309 59 L 296 59 Z M 233 64 L 232 65 L 223 65 L 213 68 L 203 68 L 197 72 L 188 73 L 185 76 L 180 77 L 170 84 L 166 85 L 149 98 L 147 101 L 144 102 L 142 105 L 131 113 L 130 114 L 122 125 L 119 126 L 118 129 L 117 130 L 102 149 L 85 183 Q 85 191 81 195 L 80 204 L 77 210 L 76 226 L 73 236 L 73 270 L 76 280 L 77 296 L 80 301 L 81 311 L 84 315 L 85 322 L 90 334 L 93 337 L 94 342 L 107 364 L 111 368 L 113 369 L 128 389 L 130 390 L 132 394 L 136 395 L 151 407 L 152 410 L 172 423 L 185 429 Q 187 428 186 431 L 199 436 L 206 437 L 210 440 L 219 441 L 225 444 L 238 445 L 248 448 L 257 448 L 258 449 L 283 449 L 284 448 L 292 448 L 301 445 L 311 445 L 318 441 L 326 440 L 329 437 L 342 432 L 349 427 Q 351 428 350 425 Q 356 424 360 419 L 361 418 L 380 403 L 399 380 L 402 378 L 415 359 L 416 354 L 419 351 L 420 346 L 423 343 L 428 331 L 429 324 L 432 320 L 433 310 L 436 305 L 437 299 L 437 290 L 440 279 L 440 264 L 441 263 L 440 243 L 437 233 L 436 218 L 432 208 L 432 203 L 428 196 L 428 192 L 424 185 L 424 182 L 410 157 Q 411 154 408 155 Q 408 149 403 146 L 399 143 L 398 141 L 397 139 L 389 130 Q 390 127 387 128 L 386 125 L 384 123 L 382 121 L 379 118 L 377 117 L 363 106 L 361 104 L 335 86 L 330 85 L 327 82 L 315 77 L 308 76 L 301 72 L 295 72 L 286 68 Q 273 69 266 65 L 233 64 Z M 113 115 L 108 119 L 92 138 L 91 139 L 77 157 L 60 190 L 59 197 L 55 206 L 55 211 L 51 220 L 51 230 L 48 240 L 48 253 L 47 254 L 48 283 Q 52 289 51 302 L 55 312 L 56 321 L 59 325 L 60 332 Q 64 335 64 342 L 68 347 L 69 352 L 85 377 L 88 378 L 99 393 Q 98 395 101 394 L 102 397 L 104 398 L 106 402 L 110 403 L 111 406 L 126 416 L 127 419 L 165 441 L 168 441 L 175 445 L 179 445 L 186 449 L 195 450 L 205 454 L 217 454 L 217 451 L 205 449 L 201 446 L 185 441 L 162 429 L 154 423 Q 151 424 152 421 L 149 420 L 147 417 L 124 399 L 105 376 L 102 374 L 100 371 Q 101 368 98 369 L 96 364 L 88 353 L 84 345 L 84 342 L 81 339 Q 80 331 76 328 L 75 321 L 71 313 L 71 308 L 68 303 L 67 291 L 63 276 L 63 230 L 67 215 L 68 203 L 80 169 L 88 153 L 102 132 L 105 130 L 106 128 L 108 126 L 115 117 Q 116 114 113 115 Z M 222 454 L 220 456 L 224 457 L 234 457 L 235 456 L 222 454 Z " /><path fill="rgb(253,204,1)" stroke="rgb(253,204,1)" stroke-width="0" opacity="1" d="M 255.5 135 L 258 136 Q 256.9 138.7 259.5 138 L 264 139 L 266.5 135 L 269 136.5 L 271 141 L 274 141 Q 272.9 138.3 275.5 139 L 281.5 140 L 284.5 139 L 287.5 144 L 292.5 144 L 299.5 147 L 301.5 146 L 314 153.5 L 315.5 156 Q 321.5 154.5 323 157.5 L 324 163 L 328 164 L 330.5 168 L 335 170.5 L 336 174 L 340 176.5 L 342 179.5 L 343.5 179 L 350 182 Q 348.6 190.2 352.5 194 L 357 195.5 L 357 198.5 L 362 203.5 L 362 208.5 L 366 212.5 L 366 218.5 L 370 227.5 L 371 238.5 Q 375 241.5 375 248.5 L 371 256.5 L 371 259.5 Q 375 260.9 374 266 Q 370.5 264.9 372 272.5 L 369.5 276 L 367 277.5 L 369 289.5 L 366 291 L 366 297.5 L 362 301.5 L 361 311.5 L 358.5 315 Q 351.3 312.9 354 320 Q 357 319 356 322 L 350.5 322 L 350 323.5 L 349 331 L 341 333.5 L 332.5 348 L 326 351.5 L 323.5 355 L 320 356 L 318.5 359 L 313.5 358 L 306.5 360 L 296.5 369 L 287.5 369 Q 284.2 371.7 277.5 371 L 276 372.5 L 274.5 375 L 270 376 L 269 372 Q 263.8 369.9 265 374.5 L 260 376 Q 261.3 372.7 256.5 374 Q 254.2 376.7 248.5 376 L 245.5 375 L 239.5 376 L 235.5 374 L 223.5 372 L 220.5 373 L 214.5 370 L 212.5 371 L 208.5 366 L 201.5 367 L 195.5 362 L 192 362 Q 193.1 359.3 190.5 360 L 188 356 L 182 356 L 182 352.5 L 181 350 L 173 345.5 L 171 340 L 168 340 Q 169.3 343 165.5 342 L 159 329 L 155 326.5 L 148 318.5 L 147 310.5 L 144.5 307 L 140 305.5 L 142 298.5 L 139.5 297 L 136 298 L 137 290.5 Q 133.1 288.9 134 282.5 L 136 278.5 L 132 270.5 Q 136 268.5 134 260.5 L 131 253.5 L 133 248.5 L 132 243.5 Q 135.8 240.3 134 231.5 L 136.5 227 Q 139.1 227.8 138 224.5 Q 138.4 219.4 142 217.5 L 142 214 Q 139.3 215.1 140 212.5 L 146 202.5 L 146 198.5 L 148.5 196 Q 151.8 197.1 151 194.5 L 157 179 Q 163.7 179 167 174.5 Q 166 170 168.5 169 L 181 163 L 181 161 Q 184.8 162.5 184 159.5 L 186.5 156 Q 191.2 151.2 200.5 151 L 203 148.5 Q 202.1 145.5 206.5 147 L 228 142 Q 226.9 139.3 229.5 140 L 234.5 137 Q 236 140.5 242.5 139 L 247 136 L 249.5 140 L 252 138.5 L 253.5 136 L 255.5 135 Z M 246 198 L 240 205 L 238 206 L 236 209 L 233 211 L 231 214 L 229 215 L 227 218 L 225 219 L 223 222 L 221 223 L 219 226 L 217 227 L 213 232 L 211 234 L 208 236 L 206 239 L 204 240 L 202 243 L 200 244 L 198 247 L 196 248 L 193 252 L 190 254 L 188 257 L 186 257 L 177 268 L 176 272 L 180 274 L 181 277 L 184 278 L 185 282 Q 186 284 188 282 L 188 284 L 192 286 L 193 290 L 201 295 L 204 299 L 205 301 L 212 307 L 214 307 L 219 301 L 222 299 L 224 295 L 228 293 L 230 291 L 234 286 L 235 285 L 239 282 L 247 273 L 251 273 L 270 293 L 272 294 L 274 298 L 284 305 L 297 294 L 298 293 L 301 291 L 310 281 L 316 275 L 320 269 L 302 250 L 301 248 L 299 246 L 282 231 L 280 227 L 278 226 L 265 214 L 252 200 Q 253 197 246 198 Z " /><path fill="rgb(217,222,220)" stroke="rgb(217,222,220)" stroke-width="0" opacity="1" d="M 252.5 211 L 257 212.5 Q 258.9 222.4 254 225.5 L 259 229.5 Q 257.9 232.8 260.5 232 L 264 234.5 Q 263 239 265.5 240 L 270 242.5 L 266.5 248 L 261.5 249 L 255.5 247 L 242.5 256 Q 237.3 254.8 236 257.5 L 232.5 264 Q 229.9 263.2 231 266.5 Q 235.9 268.1 235 275.5 L 232.5 278 L 219.5 282 L 203.5 291 L 198.5 292 L 194.5 290 L 193 288.5 L 192 286 L 188 283.5 L 189 280.5 L 190 265.5 L 191.5 264 Q 194.6 269.9 202.5 271 Q 211 269.5 215 263.5 L 213.5 261 L 194.5 259 L 188 255.5 L 190 255 L 191.5 252 L 193 250.5 Q 195.8 245.3 198.5 251 L 212.5 251 L 219.5 248 L 224.5 248 L 229.5 250 Q 230.8 246.8 236.5 248 L 240.5 249 L 243 248 Q 243 241.8 247 238.5 L 247 234.5 L 246 227.5 Q 238.8 224.4 239 215 Q 247.3 215 252.5 211 Z " /><path fill="rgb(217,222,220)" stroke="rgb(217,222,220)" stroke-width="0" opacity="1" d="M 295.5 243 L 299 245.5 L 300.5 248 L 302 249.5 L 304 253.5 Q 300.1 262.6 302 277.5 L 304 286.5 L 300.5 291 L 298 292.5 L 296.5 294 Q 295.3 296.3 294 293.5 L 292.5 291 L 281.5 290 L 274 292.5 L 273.5 295 L 270 294 L 266 288.5 L 269 280.5 L 269 256.5 Q 265 254.5 269 252.5 L 270 249 L 273 250.5 Q 272.4 253.3 278.5 252 L 283.5 250 L 289.5 253 L 293 250.5 Q 292.2 244.7 295.5 243 Z M 282 266 L 279 275 Q 278 281 283 282 L 290 281 L 291 279 L 290 270 Q 288 265 282 266 Z " /></svg>