<svg width="2048" height="2048" viewBox="0 0 512 512" version="1.1" xmlns="http://www.w3.org/2000/svg"  style="background:transparent"><path fill="rgb(102,153,102)" stroke="rgb(102,153,102)" stroke-width="0" opacity="1" d="M 246.5 146 L 249 146.5 L 245.5 148 L 246.5 146 Z " /><path fill="rgb(102,153,102)" stroke="rgb(102,153,102)" stroke-width="0" opacity="1" d="M 257.5 243 L 260 246.5 L 259 246.5 L 257.5 243 Z " /><path fill="rgb(102,153,102)" stroke="rgb(102,153,102)" stroke-width="0" opacity="1" d="M 211.5 287 L 288 287.5 L 211.5 288 L 211.5 287 Z " /><path fill="rgb(255,102,6)" stroke="rgb(255,102,6)" stroke-width="0" opacity="1" d="M 250.5 5 L 260 6 L 262.5 10 L 264 11.5 L 265 14 Q 267.7 12.9 267 15.5 Q 270 21.5 269 31.5 L 268 38.5 L 262.5 46 L 254.5 50 L 248.5 50 L 237 42.5 Q 236.7 37.4 233 35.5 L 232 25.5 L 233 19.5 L 239.5 10 L 244.5 6 L 250.5 5 Z M 251 8 L 245 12 L 242 16 L 239 17 L 238 21 Q 236 34 241 41 L 249 46 L 254 46 L 260 43 L 266 31 L 265 21 L 261 13 L 251 8 Z " /><path fill="rgb(255,102,6)" stroke="rgb(255,102,6)" stroke-width="0" opacity="1" d="M 195 6 L 217.5 6 L 218 8 L 215.5 9 L 202.5 9 L 199 11.5 L 198 20.5 Q 203 25.1 214 23 L 215.5 26 L 218 27.5 Q 223 30 222 38.5 L 216.5 46 Q 212.7 52.7 199.5 50 L 191 44.5 Q 192.3 41.8 197.5 43 L 202.5 46 L 206.5 46 L 215 41.5 L 216 32.5 L 213.5 29 L 206.5 26 L 200.5 26 L 196.5 28 Q 192.4 24.1 194 14.5 L 195 6 Z " /><path fill="rgb(255,102,6)" stroke="rgb(255,102,6)" stroke-width="0" opacity="1" d="M 283 18 L 289.5 21 Q 293.6 16.1 304.5 18 Q 306 23 312 22 L 310 26.5 L 310 50 L 307 48.5 L 305 41.5 L 306 40.5 L 306 32.5 Q 303 30.5 304 24.5 L 300.5 21 Q 293 20 290 22 Q 290 28.3 286 31.5 L 286 49 L 283.5 50 L 282 47.5 L 283 46.5 L 283 18 Z " /><path fill="rgb(255,102,6)" stroke="rgb(255,102,6)" stroke-width="0" opacity="1" d="M 316.5 18 Q 327.3 15.7 331 20.5 L 332 47.5 L 331 50 L 329 49.5 L 329 30.5 Q 328.1 23.9 323.5 21 L 315.5 21 L 315 19.5 L 316.5 18 Z " /><path fill="rgb(255,102,6)" stroke="rgb(255,102,6)" stroke-width="0" opacity="1" d="M 250.5 56 L 265.5 56 L 268 57 L 267.5 62 L 248.5 62 L 247 59.5 L 248 57 L 250.5 56 Z " /><path fill="rgb(255,102,6)" stroke="rgb(255,102,6)" stroke-width="0" opacity="1" d="M 230.5 59 Q 235.3 57.3 234 61.5 L 232.5 63 L 224.5 63 L 219.5 66 L 215.5 66 L 214 61 L 230.5 59 Z " /><path fill="rgb(255,102,6)" stroke="rgb(255,102,6)" stroke-width="0" opacity="1" d="M 283.5 59 L 295.5 60 L 301 62.5 L 302 65.5 L 298.5 67 L 288.5 63 L 280 62 Q 278.8 59 282.5 60 L 283.5 59 Z " /><path fill="rgb(255,102,6)" stroke="rgb(255,102,6)" stroke-width="0" opacity="1" d="M 197.5 65 Q 203.2 63.2 201 69.5 Q 199.5 72.5 193.5 71 L 187.5 75 L 182 75 Q 181.3 71.2 184.5 70 L 194.5 68 L 197.5 65 Z " /><path fill="rgb(255,102,6)" stroke="rgb(255,102,6)" stroke-width="0" opacity="1" d="M 313.5 65 L 321.5 69 L 326.5 69 L 333 73 L 332.5 75 L 325.5 75 L 319.5 71 Q 313.5 72.5 312 69.5 L 313.5 65 Z " /><path fill="rgb(255,102,6)" stroke="rgb(255,102,6)" stroke-width="0" opacity="1" d="M 166.5 78 Q 171.8 76.3 170 81.5 L 163 85.5 Q 163.9 88.5 159.5 87 L 153.5 92 L 152 86 L 157 85 L 158.5 82 Q 164.5 82 166.5 78 Z " /><path fill="rgb(255,102,6)" stroke="rgb(255,102,6)" stroke-width="0" opacity="1" d="M 346.5 78 L 349.5 81 L 356 83.5 Q 355.2 86.1 358.5 85 L 362 87.5 L 360.5 92 L 353.5 87 L 350 87 L 348.5 84 L 345 83 L 346.5 78 Z " /><path fill="rgb(255,102,6)" stroke="rgb(255,102,6)" stroke-width="0" opacity="1" d="M 140.5 95 L 142 100 L 138 101.5 L 136.5 104 L 134.5 104 L 129.5 109 L 124.5 109 L 123.5 107 L 127 106 L 128.5 103 L 132 102 L 133.5 99 L 140.5 95 Z " /><path fill="rgb(255,102,6)" stroke="rgb(255,102,6)" stroke-width="0" opacity="1" d="M 375.5 97 L 381 100.5 L 382.5 102 L 386 104.5 L 387.5 106 L 390 110.5 L 387.5 112 L 375 102.5 L 373.5 100 Q 369.8 101 371 98 L 375.5 97 Z " /><path fill="rgb(255,102,6)" stroke="rgb(255,102,6)" stroke-width="0" opacity="1" d="M 111 119 L 116.5 119 L 117 120.5 L 104.5 134 Q 100.3 135.3 102 130.5 L 104.5 127 L 106 125.5 L 107 123 L 111 120.5 L 111 119 Z " /><path fill="rgb(255,102,6)" stroke="rgb(255,102,6)" stroke-width="0" opacity="1" d="M 397 119 L 402 119 L 402 120.5 L 406 123 L 407 127 L 410 128.5 L 413 134 L 409.5 135 L 397 119 Z " /><path fill="rgb(255,102,6)" stroke="rgb(255,102,6)" stroke-width="0" opacity="1" d="M 91.5 144 Q 97.8 141.8 96 147.5 L 92 150.5 L 85.5 163 Q 79.8 164.8 82 158.5 L 91.5 144 Z " /><path fill="rgb(255,102,6)" stroke="rgb(255,102,6)" stroke-width="0" opacity="1" d="M 420.5 144 L 423 145.5 L 425.5 151 Q 428.1 150.2 427 153.5 L 432 159.5 L 432 163 Q 427.4 164.3 426 161.5 L 425 156 L 422 154.5 L 418 145 L 420.5 144 Z " /><path fill="rgb(255,102,6)" stroke="rgb(255,102,6)" stroke-width="0" opacity="1" d="M 74.5 174 Q 81.3 171.8 79 178.5 L 75 182.5 Q 76.1 190.1 71.5 192 Q 66.5 193.4 69 186.5 L 73 180.5 Q 71.8 175.3 74.5 174 Z " /><path fill="rgb(255,102,6)" stroke="rgb(255,102,6)" stroke-width="0" opacity="1" d="M 434 174 L 439 174 L 439 175.5 L 440 180.5 L 444 185.5 L 445 191.5 L 442.5 193 L 438 187.5 L 438 182.5 L 434 177.5 L 434 174 Z " /><path fill="rgb(255,102,6)" stroke="rgb(255,102,6)" stroke-width="0" opacity="1" d="M 65.5 204 Q 68.5 205.5 67 211.5 Q 64.3 213.3 66 219.5 L 63 226 L 60 226 L 60 217.5 L 65.5 204 Z " /><path fill="rgb(255,102,6)" stroke="rgb(255,102,6)" stroke-width="0" opacity="1" d="M 446 207 Q 449.7 205.5 449 208.5 Q 454.4 214.5 453 226 Q 449.2 227.5 450 224.5 L 447 219.5 L 446 207 Z " /><path fill="rgb(255,102,6)" stroke="rgb(255,102,6)" stroke-width="0" opacity="1" d="M 59.5 237 L 62 237.5 L 62 256.5 Q 64.3 257.8 61.5 259 L 56 259 L 56 247.5 L 57 240.5 L 59.5 237 Z " /><path fill="rgb(255,102,6)" stroke="rgb(255,102,6)" stroke-width="0" opacity="1" d="M 451 240 L 456 241 L 457 258.5 Q 455.6 261.3 451 260 L 451 240 Z " /><path fill="rgb(255,102,6)" stroke="rgb(255,102,6)" stroke-width="0" opacity="1" d="M 59.5 269 L 62 269.5 L 62 280.5 L 63 289 L 60 289 L 60 282.5 L 57 270 L 59.5 269 Z " /><path fill="rgb(255,102,6)" stroke="rgb(255,102,6)" stroke-width="0" opacity="1" d="M 451 273 L 455 275.5 Q 452 282.8 453 293 Q 447.4 295.2 449 289.5 L 451 273 Z " /><path fill="rgb(255,102,6)" stroke="rgb(255,102,6)" stroke-width="0" opacity="1" d="M 65.5 302 L 71 314.5 L 71 323 L 68 321.5 L 65 315.5 L 64 303.5 L 65.5 302 Z " /><path fill="rgb(255,102,6)" stroke="rgb(255,102,6)" stroke-width="0" opacity="1" d="M 447.5 306 L 449 310.5 L 444 322.5 L 444 327 L 440 325.5 L 442 320.5 L 442 313.5 L 447.5 306 Z " /><path fill="rgb(255,102,6)" stroke="rgb(255,102,6)" stroke-width="0" opacity="1" d="M 73 333 Q 77.6 331.8 79 334.5 L 79 339.5 L 83 343.5 Q 82.4 349.1 86 350.5 L 81 352 Q 81.8 346.9 77 345.5 L 77 341.5 L 73 337.5 L 73 333 Z " /><path fill="rgb(255,102,6)" stroke="rgb(255,102,6)" stroke-width="0" opacity="1" d="M 434 337 L 439 338.5 L 429.5 356 L 425 354.5 L 430 347.5 L 430 344.5 Q 434 342.3 434 337 Z " /><path fill="rgb(255,102,6)" stroke="rgb(255,102,6)" stroke-width="0" opacity="1" d="M 90 363 Q 94.7 362.3 96 366.5 L 98.5 371 Q 101.1 370.2 100 373.5 Q 105 375 104 381 L 99 381 L 99 379.5 L 90 367.5 L 90 363 Z " /><path fill="rgb(255,102,6)" stroke="rgb(255,102,6)" stroke-width="0" opacity="1" d="M 417 367 Q 423.3 365 422 369 Q 419.3 367.9 420 370.5 L 417.5 375 L 416 376.5 L 414 381 L 411 382.5 L 409.5 385 Q 406.8 385.6 408 379.5 L 413 373.5 L 413 371 L 417 368.5 L 417 367 Z " /><path fill="rgb(255,102,6)" stroke="rgb(255,102,6)" stroke-width="0" opacity="1" d="M 111 388 Q 113.7 386.9 113 389.5 L 117 392 L 119.5 396 L 122 397.5 L 123.5 400 L 126 401.5 Q 127 406 124.5 407 L 121.5 403 L 119 401.5 L 117.5 399 L 114 396.5 L 112.5 395 Q 109.5 393.4 111 388 Z " /><path fill="rgb(255,102,6)" stroke="rgb(255,102,6)" stroke-width="0" opacity="1" d="M 396.5 392 L 400 393.5 L 396.5 399 L 394 400.5 L 392.5 403 L 390 404.5 L 388.5 406 L 384.5 407 L 383 405.5 L 388.5 400 L 391 398.5 L 392.5 396 L 395 394.5 L 396.5 392 Z " /><path fill="rgb(255,102,6)" stroke="rgb(255,102,6)" stroke-width="0" opacity="1" d="M 136 412 L 142 413 L 144.5 417 L 154 422.5 L 152.5 424 L 150.5 425 L 136 416 L 136 412 Z " /><path fill="rgb(255,102,6)" stroke="rgb(255,102,6)" stroke-width="0" opacity="1" d="M 371 413 Q 373.7 411.9 373 414.5 L 374 417.5 L 361.5 427 L 357 427 L 358 422 L 362.5 421 L 371 414.5 L 371 413 Z " /><path fill="rgb(255,102,6)" stroke="rgb(255,102,6)" stroke-width="0" opacity="1" d="M 165.5 430 L 168.5 430 L 171.5 433 L 177.5 434 L 184 438 L 183.5 440 L 175.5 440 L 171.5 436 L 165 435 L 164 431.5 L 165.5 430 Z " /><path fill="rgb(255,102,6)" stroke="rgb(255,102,6)" stroke-width="0" opacity="1" d="M 342.5 432 L 347 434.5 Q 346 437 341.5 436 L 337.5 440 L 332.5 440 L 327.5 442 L 325 441 Q 323.2 435.8 330.5 438 L 335.5 434 Q 340.8 434.8 342.5 432 Z " /><path fill="rgb(255,102,6)" stroke="rgb(255,102,6)" stroke-width="0" opacity="1" d="M 195 442 Q 202.1 441.7 205.5 446 L 214 447 L 212.5 452 L 208.5 449 L 197.5 448 L 195 445.5 L 195 442 Z " /><path fill="rgb(255,102,6)" stroke="rgb(255,102,6)" stroke-width="0" opacity="1" d="M 312.5 442 L 314 442.5 L 314 448 L 304.5 449 L 296.5 453 Q 293.8 451.6 295 447 L 310 445 Q 308.9 442.3 311.5 443 L 312.5 442 Z " /><path fill="rgb(255,102,6)" stroke="rgb(255,102,6)" stroke-width="0" opacity="1" d="M 229.5 450 L 248 451 L 245.5 457 L 228 453 L 229.5 450 Z " /><path fill="rgb(255,102,6)" stroke="rgb(255,102,6)" stroke-width="0" opacity="1" d="M 261 451 L 280.5 451 L 281 452.5 L 277.5 455 L 262.5 457 Q 259.8 455.6 261 451 Z " /><path fill="rgb(153,102,153)" stroke="rgb(153,102,153)" stroke-width="0" opacity="1" d="M 246.5 147 L 248 147.5 L 245 149.5 L 244.5 153 L 244 148 L 246.5 147 Z " /><path fill="rgb(153,102,153)" stroke="rgb(153,102,153)" stroke-width="0" opacity="1" d="M 252.5 147 L 256 148.5 L 255.5 151 L 253.5 148 L 252.5 147 Z " /><path fill="rgb(153,102,153)" stroke="rgb(153,102,153)" stroke-width="0" opacity="1" d="M 244.5 156 L 245 214.5 L 244 214.5 L 244.5 156 Z " /><path fill="rgb(153,102,153)" stroke="rgb(153,102,153)" stroke-width="0" opacity="1" d="M 243.5 220 L 244 223.5 L 239.5 230 L 239 228.5 Q 243.1 226.1 243.5 220 Z " /><path fill="rgb(153,102,153)" stroke="rgb(153,102,153)" stroke-width="0" opacity="1" d="M 257.5 223 L 262 232.5 L 270 243.5 L 269 243.5 L 261 232.5 L 260 228 Q 257.3 229.1 258 226.5 L 257.5 223 Z " /><path fill="rgb(153,102,153)" stroke="rgb(153,102,153)" stroke-width="0" opacity="1" d="M 238.5 231 L 239 232.5 L 235.5 237 L 235 235.5 L 238.5 231 Z " /><path fill="rgb(153,102,153)" stroke="rgb(153,102,153)" stroke-width="0" opacity="1" d="M 249.5 232 L 253 234.5 L 255 237.5 L 260 244.5 L 257.5 243 Q 254.9 243.8 256 240.5 L 250.5 233 L 249 234.5 L 228 265.5 L 227 270 L 224 271.5 L 223 275.5 L 223.5 277 L 222 274.5 L 231 261.5 L 237 249 Q 239.7 250.1 239 247.5 L 245 236.5 L 249.5 232 Z " /><path fill="rgb(153,102,153)" stroke="rgb(153,102,153)" stroke-width="0" opacity="1" d="M 234.5 238 L 234 239.5 L 232 242.5 L 230.5 245 L 230 243.5 L 234.5 238 Z " /><path fill="rgb(153,102,153)" stroke="rgb(153,102,153)" stroke-width="0" opacity="1" d="M 270.5 245 L 278 255.5 L 279 260 Q 281.7 258.9 281 261.5 L 281.5 263 Q 277.1 260.6 277 255 L 274 253.5 L 270.5 245 Z " /><path fill="rgb(153,102,153)" stroke="rgb(153,102,153)" stroke-width="0" opacity="1" d="M 229.5 246 L 227 249.5 L 222.5 258 L 222 256.5 L 229.5 246 Z " /><path fill="rgb(153,102,153)" stroke="rgb(153,102,153)" stroke-width="0" opacity="1" d="M 260.5 246 L 277 272.5 L 273 269.5 L 266.5 257 L 265 255.5 L 260 248.5 L 260.5 246 Z " /><path fill="rgb(153,102,153)" stroke="rgb(153,102,153)" stroke-width="0" opacity="1" d="M 221.5 259 L 219 262.5 L 217 268 Q 214.3 266.9 215 269.5 L 214 269.5 L 221.5 259 Z " /><path fill="rgb(153,102,153)" stroke="rgb(153,102,153)" stroke-width="0" opacity="1" d="M 282.5 264 L 288.5 274 L 290 275.5 L 294 281.5 L 294 286 L 290.5 287 L 209.5 287 L 206 286 L 206 281.5 L 213.5 271 L 214 272.5 L 213 275 Q 210.3 273.9 211 276.5 L 207 283.5 L 209.5 286 L 290.5 286 L 293 285 L 290 276.5 L 283 267.5 L 282.5 264 Z " /><path fill="rgb(153,102,153)" stroke="rgb(153,102,153)" stroke-width="0" opacity="1" d="M 268.5 277 L 275 277.5 L 268.5 278 L 268.5 277 Z " /><path fill="rgb(255,156,79)" stroke="rgb(255,156,79)" stroke-width="0" opacity="1" d="M 195.5 4 L 218.5 4 L 222 6.5 L 220.5 8 L 214.5 12 L 202.5 12 L 201 13.5 L 200 19.5 L 201.5 21 L 215.5 22 L 222 28.5 L 223 40.5 L 222 43 Q 219.3 41.9 220 44.5 L 219 47 L 213.5 51 L 196.5 51 L 194 47 L 189 46 Q 188.2 41 191.5 39 L 194.5 39 L 199.5 43 L 209.5 43 L 214 40.5 L 215 34.5 L 211.5 30 L 201.5 29 L 194 30 L 191 22.5 Q 194.3 16.8 193 6.5 L 195.5 4 Z M 195 6 L 194 15 Q 192 24 197 28 L 201 26 L 207 26 L 214 29 L 216 33 L 215 42 L 207 46 L 203 46 L 198 43 Q 192 42 191 45 L 200 50 Q 213 53 217 46 L 222 39 Q 223 30 218 28 L 216 26 L 214 23 Q 203 25 198 21 L 199 12 L 203 9 L 216 9 L 218 8 L 218 6 L 195 6 Z " /><path fill="rgb(255,156,79)" stroke="rgb(255,156,79)" stroke-width="0" opacity="1" d="M 245.5 4 L 258.5 4 L 262 6.5 L 263.5 8 L 266 12 Q 268.7 10.9 268 13.5 L 273 27.5 L 268 43 Q 265.3 41.9 266 44.5 L 259.5 50 L 246.5 51 L 242.5 50 L 236 44.5 L 234 39 Q 231.3 40.1 232 37.5 L 231 36.5 L 231 19.5 L 237.5 9 L 241 6.5 Q 240.1 3.5 244.5 5 L 245.5 4 Z M 251 5 L 245 6 L 240 10 L 233 20 L 232 26 L 233 36 Q 237 37 237 43 L 249 50 L 255 50 L 263 46 L 268 39 L 269 32 Q 270 22 267 16 Q 268 13 265 14 L 264 12 L 263 10 L 260 6 L 251 5 Z " /><path fill="rgb(255,156,79)" stroke="rgb(255,156,79)" stroke-width="0" opacity="1" d="M 250.5 8 L 261 13 L 265 20.5 L 266 30.5 L 259.5 43 L 253.5 46 L 248.5 46 L 241 40.5 Q 235.7 34.3 238 20.5 L 239 17 L 242 15.5 L 244.5 12 L 250.5 8 Z M 250 11 L 246 13 L 240 20 L 240 36 L 244 42 L 247 43 L 258 42 L 260 40 L 263 32 L 263 24 L 260 16 L 253 11 L 250 11 Z " /><path fill="rgb(255,156,79)" stroke="rgb(255,156,79)" stroke-width="0" opacity="1" d="M 299.5 14 L 310.5 19 L 323.5 14 L 332 18.5 L 335 25.5 L 335 46.5 L 332.5 51 Q 328 52 327 49.5 L 327 30.5 L 323 23 Q 316.9 21.3 315 24.5 L 313.5 26 L 311 30.5 L 311 51 Q 305.3 52 303 48.5 L 303 27.5 L 299.5 23 Q 291.9 21.9 290 26.5 L 289 35.5 L 290 36.5 L 290 45.5 L 287.5 50 L 282 51 L 281 48.5 L 281 18.5 L 282 16 L 291.5 18 L 299.5 14 Z M 283 18 L 283 47 L 282 48 L 284 50 L 286 49 L 286 32 Q 290 28 290 22 Q 293 20 301 21 L 304 25 Q 303 31 306 33 L 306 41 L 305 42 L 307 49 L 310 50 L 310 27 L 312 22 Q 306 23 305 18 Q 294 16 290 21 L 283 18 Z M 317 18 L 315 20 L 316 21 L 324 21 Q 328 24 329 31 L 329 50 L 331 50 L 332 48 L 331 21 Q 327 16 317 18 Z " /><path fill="rgb(255,156,79)" stroke="rgb(255,156,79)" stroke-width="0" opacity="1" d="M 232.5 55 L 235 56.5 L 236 62.5 L 225.5 67 L 213.5 68 L 211 67 Q 209.3 60.9 212.5 59 Q 225.9 60.4 232.5 55 Z M 231 59 L 214 61 L 216 66 L 220 66 L 225 63 L 233 63 L 234 62 Q 235 57 231 59 Z " /><path fill="rgb(255,156,79)" stroke="rgb(255,156,79)" stroke-width="0" opacity="1" d="M 248.5 55 L 268.5 55 L 269 56.5 L 270 61.5 Q 269.3 64.8 264.5 64 L 263.5 63 L 253.5 63 L 246.5 64 Q 243 63 244 57.5 L 248.5 55 Z M 251 56 L 248 57 L 247 60 L 249 62 L 268 62 L 268 57 L 266 56 L 251 56 Z " /><path fill="rgb(255,156,79)" stroke="rgb(255,156,79)" stroke-width="0" opacity="1" d="M 280.5 57 Q 287.5 56 290.5 59 L 300.5 59 L 303 60 Q 304.8 66.1 301.5 68 L 287.5 67 L 278 64 L 277 61.5 L 278 58 L 280.5 57 Z M 284 59 L 283 60 Q 279 59 280 62 L 289 63 L 299 67 L 302 66 L 301 63 L 296 60 L 284 59 Z " /><path fill="rgb(255,156,79)" stroke="rgb(255,156,79)" stroke-width="0" opacity="1" d="M 197.5 63 Q 202.3 62.3 203 65.5 Q 204.3 70.8 201.5 72 L 196.5 72 L 190.5 76 Q 184.8 75.3 182.5 78 Q 179.3 77.3 180 72.5 L 182.5 68 L 188.5 68 L 197.5 63 Z M 198 65 L 195 68 L 185 70 Q 181 71 182 75 L 188 75 L 194 71 Q 199 72 201 70 Q 203 63 198 65 Z " /><path fill="rgb(255,156,79)" stroke="rgb(255,156,79)" stroke-width="0" opacity="1" d="M 312.5 63 Q 320.7 63.3 324.5 68 L 329.5 68 L 336 72 L 334.5 77 L 329.5 78 Q 328.3 74.8 322.5 76 L 316.5 72 L 312.5 72 L 310 69.5 L 312.5 63 Z M 314 65 L 312 70 Q 314 73 320 71 L 326 75 L 333 75 L 333 73 L 327 69 L 322 69 L 314 65 Z " /><path fill="rgb(255,156,79)" stroke="rgb(255,156,79)" stroke-width="0" opacity="1" d="M 165.5 76 Q 172.5 74.5 172 77.5 L 173 82.5 L 159.5 89 L 155.5 93 L 151 93 L 149 86.5 L 156 82.5 L 157.5 81 Q 163.4 80.4 165.5 76 Z M 167 78 Q 165 82 159 82 L 157 85 L 152 86 L 154 92 L 160 87 Q 164 88 163 86 L 170 82 Q 172 76 167 78 Z " /><path fill="rgb(255,156,79)" stroke="rgb(255,156,79)" stroke-width="0" opacity="1" d="M 344.5 76 Q 349 75 350 77.5 L 351.5 79 L 357 81 L 358.5 84 Q 363.6 83.4 365 86.5 L 366 90.5 L 365 93 L 357.5 93 L 346.5 85 L 341 84 Q 340.1 78.1 344.5 76 Z M 347 78 L 345 83 L 349 84 L 350 87 L 354 87 L 361 92 L 362 88 L 359 85 Q 355 86 356 84 L 350 81 L 347 78 Z " /><path fill="rgb(255,156,79)" stroke="rgb(255,156,79)" stroke-width="0" opacity="1" d="M 138.5 93 Q 144.3 90.9 143 95.5 L 144 99.5 L 139 102 L 137.5 105 L 130 110 L 128.5 113 Q 123 114 122 110.5 Q 121 106 123.5 105 L 131 99.5 L 132.5 97 L 134.5 97 L 138.5 93 Z M 141 95 L 134 99 L 132 102 L 129 103 L 127 106 L 124 107 L 125 109 L 130 109 L 135 104 L 137 104 L 138 102 L 142 100 L 141 95 Z " /><path fill="rgb(255,156,79)" stroke="rgb(255,156,79)" stroke-width="0" opacity="1" d="M 373.5 94 L 376.5 94 L 382 98.5 L 383.5 101 L 391 106.5 Q 392.5 112.5 389.5 114 L 384 113 L 382.5 110 L 374 103.5 L 372.5 102 L 369 99.5 L 370 96 L 373.5 94 Z M 376 97 L 371 98 Q 370 101 374 100 L 375 103 L 388 112 L 390 111 L 388 106 L 386 105 L 383 102 L 381 101 L 376 97 Z " /><path fill="rgb(255,156,79)" stroke="rgb(255,156,79)" stroke-width="0" opacity="1" d="M 115.5 115 L 119 120.5 L 113 129 L 110 130.5 L 109 134 L 102 138 L 99.5 134 L 97 132.5 L 101 129.5 L 106.5 122 L 109 120.5 L 111.5 117 L 115.5 115 Z M 111 119 L 111 121 L 107 123 L 106 126 L 105 127 L 102 131 Q 100 135 105 134 L 117 121 L 117 119 L 111 119 Z " /><path fill="rgb(255,156,79)" stroke="rgb(255,156,79)" stroke-width="0" opacity="1" d="M 399.5 117 Q 403.9 115.5 403 118.5 L 404 121 L 408 123.5 L 413.5 131 Q 417.7 129.7 416 134.5 L 413 136 L 411.5 139 Q 406.7 140.7 408 136.5 L 395 122.5 L 395 118 L 399.5 117 Z M 397 119 L 410 135 L 413 134 L 410 129 L 407 127 L 406 123 L 402 121 L 402 119 L 397 119 Z " /><path fill="rgb(255,156,79)" stroke="rgb(255,156,79)" stroke-width="0" opacity="1" d="M 89 143 L 96.5 143 L 98 144.5 L 95.5 151 L 93 152.5 L 86.5 165 L 80 162.5 Q 78.8 157.3 81.5 156 L 84 154.5 L 85 149 L 88 147.5 L 89 143 Z M 92 144 L 82 159 Q 80 165 86 163 L 92 151 L 96 148 Q 98 142 92 144 Z " /><path fill="rgb(255,156,79)" stroke="rgb(255,156,79)" stroke-width="0" opacity="1" d="M 417.5 143 L 424 143 L 424 145.5 L 425 148 L 428 149.5 L 434 162.5 Q 433 166 427.5 165 L 425 164 L 424 159.5 L 418.5 151 L 416 149.5 Q 414.8 144.3 417.5 143 Z M 421 144 L 418 145 L 422 155 L 425 156 L 426 162 Q 427 164 432 163 L 432 160 L 427 154 Q 428 150 426 151 L 423 146 L 421 144 Z " /><path fill="rgb(255,156,79)" stroke="rgb(255,156,79)" stroke-width="0" opacity="1" d="M 73.5 172 Q 79.5 170.5 81 173.5 Q 81.2 182.2 76 185.5 L 76 191.5 L 73.5 194 Q 67.5 195.5 66 192.5 L 69 181 Q 72 182.3 71 178.5 L 73.5 172 Z M 75 174 Q 72 175 73 181 L 69 187 Q 66 193 72 192 Q 76 190 75 183 L 79 179 Q 81 172 75 174 Z " /><path fill="rgb(255,156,79)" stroke="rgb(255,156,79)" stroke-width="0" opacity="1" d="M 434.5 172 Q 439.8 170.8 441 173.5 L 447 192.5 L 445 197 L 441 195.5 L 439.5 193 L 438 191.5 L 437 185.5 Q 432.1 182.4 432 174.5 L 434.5 172 Z M 434 174 L 434 178 L 438 183 L 438 188 L 443 193 L 445 192 L 444 186 L 440 181 L 439 176 L 439 174 L 434 174 Z " /><path fill="rgb(255,156,79)" stroke="rgb(255,156,79)" stroke-width="0" opacity="1" d="M 64.5 202 L 69 203.5 L 67 225.5 L 65.5 227 L 61.5 228 L 58 225.5 L 60 208.5 L 64.5 202 Z M 66 204 L 60 218 L 60 226 L 63 226 L 66 220 Q 64 213 67 212 Q 68 205 66 204 Z " /><path fill="rgb(255,156,79)" stroke="rgb(255,156,79)" stroke-width="0" opacity="1" d="M 446.5 204 L 448.5 204 L 453 208.5 L 455 226.5 Q 454 229 449.5 228 L 446 224.5 L 444 206.5 L 446.5 204 Z M 446 207 L 447 220 L 450 225 Q 449 228 453 226 Q 454 214 449 209 Q 450 206 446 207 Z " /><path fill="rgb(255,156,79)" stroke="rgb(255,156,79)" stroke-width="0" opacity="1" d="M 58.5 235 Q 63 234 64 236.5 L 63 254.5 L 64 258.5 Q 63 262 57.5 261 L 55 260 L 55 237.5 L 56.5 236 L 58.5 235 Z M 60 237 L 57 241 L 56 248 L 56 259 L 62 259 Q 64 258 62 257 L 62 238 L 60 237 Z " /><path fill="rgb(255,156,79)" stroke="rgb(255,156,79)" stroke-width="0" opacity="1" d="M 452.5 236 L 457 237 L 458 239.5 L 458 260.5 Q 456.8 263.3 451.5 262 Q 448 261 449 255.5 L 450 254.5 L 450 245.5 L 449 239.5 L 450 237 L 452.5 236 Z M 451 240 L 451 260 Q 456 261 457 259 L 456 241 L 451 240 Z " /><path fill="rgb(255,156,79)" stroke="rgb(255,156,79)" stroke-width="0" opacity="1" d="M 57.5 266 Q 62 265 63 267.5 L 64 269.5 L 64 281.5 L 67 288.5 Q 65.3 291.8 59.5 291 L 56 283.5 L 55 268.5 L 57.5 266 Z M 60 269 L 57 270 L 60 283 L 60 289 L 63 289 L 62 281 L 62 270 L 60 269 Z " /><path fill="rgb(255,156,79)" stroke="rgb(255,156,79)" stroke-width="0" opacity="1" d="M 450 270 L 457 271 L 458 278.5 L 454 290.5 L 454 295 Q 447.5 296.3 445 292.5 L 449 281.5 Q 447.9 273.3 450 270 Z M 451 273 L 449 290 Q 447 295 453 293 Q 452 283 455 276 L 451 273 Z " /><path fill="rgb(255,156,79)" stroke="rgb(255,156,79)" stroke-width="0" opacity="1" d="M 63.5 299 L 68 300.5 L 72 310.5 L 72 316.5 L 74 323 L 68.5 324 L 64 318.5 Q 64.5 309 60 304.5 L 63.5 299 Z M 66 302 L 64 304 L 65 316 L 68 322 L 71 323 L 71 315 L 66 302 Z " /><path fill="rgb(255,156,79)" stroke="rgb(255,156,79)" stroke-width="0" opacity="1" d="M 445 303 L 450 304.5 L 451 308.5 L 449 319.5 L 446 322.5 L 445 328 Q 438.9 329.8 437 326.5 L 437 322.5 L 441 316.5 L 442 307 Q 444.7 308.1 444 305.5 L 445 303 Z M 448 306 L 442 314 L 442 321 L 440 326 L 444 327 L 444 323 L 449 311 L 448 306 Z " /><path fill="rgb(255,156,79)" stroke="rgb(255,156,79)" stroke-width="0" opacity="1" d="M 76.5 331 L 80 332 L 80 336.5 L 89 351.5 L 81 356 L 76 347.5 L 75 342 Q 72.3 343.1 73 340.5 L 71 333.5 L 76.5 331 Z M 73 333 L 73 338 L 77 342 L 77 346 Q 82 347 81 352 L 86 351 Q 82 349 83 344 L 79 340 L 79 335 Q 78 332 73 333 Z " /><path fill="rgb(255,156,79)" stroke="rgb(255,156,79)" stroke-width="0" opacity="1" d="M 433 335 L 441 337.5 L 439.5 342 L 438 343.5 L 430.5 358 Q 425.3 359.3 424 356.5 Q 423 350 426.5 348 Q 429.1 348.8 428 345.5 L 433 335 Z M 434 337 Q 434 342 430 345 L 430 348 L 425 355 L 430 356 L 439 339 L 434 337 Z " /><path fill="rgb(255,156,79)" stroke="rgb(255,156,79)" stroke-width="0" opacity="1" d="M 89.5 361 L 96 362 L 102.5 374 L 105 375.5 L 106 382 L 99.5 383 L 95.5 377 L 93 375.5 L 92 371 L 89 369.5 L 88 362.5 L 89.5 361 Z M 90 363 L 90 368 L 99 380 L 99 381 L 104 381 Q 105 375 100 374 Q 101 370 99 371 L 96 367 Q 95 362 90 363 Z " /><path fill="rgb(255,156,79)" stroke="rgb(255,156,79)" stroke-width="0" opacity="1" d="M 417.5 364 L 425 367.5 L 422.5 371 Q 419.9 370.2 421 373.5 L 414.5 382 L 412 383.5 L 410.5 387 L 406 386 L 404 379 L 408 376.5 L 409.5 374 L 412 372.5 L 412 370.5 L 417.5 364 Z M 417 367 L 417 369 L 413 371 L 413 374 L 408 380 Q 407 386 410 385 L 411 383 L 414 381 L 416 377 L 418 375 L 420 371 Q 419 368 422 369 Q 423 365 417 367 Z " /><path fill="rgb(255,156,79)" stroke="rgb(255,156,79)" stroke-width="0" opacity="1" d="M 111.5 386 L 119 391.5 L 121.5 395 L 123 396.5 L 129 400 Q 129.9 405.9 125.5 408 Q 121.1 409.5 122 406.5 L 121 404 L 117 403 L 115.5 400 L 113 398.5 L 111.5 396 L 109 394.5 Q 107.5 387.5 111.5 386 Z M 111 388 Q 109 393 113 395 L 114 397 L 118 399 L 119 402 L 122 403 L 125 407 Q 127 406 126 402 L 124 400 L 122 398 L 120 396 L 117 392 L 113 390 Q 114 387 111 388 Z " /><path fill="rgb(255,156,79)" stroke="rgb(255,156,79)" stroke-width="0" opacity="1" d="M 395.5 390 Q 401.3 389.2 403 392.5 L 398.5 400 L 396 401.5 L 394.5 403 L 392 404 L 389.5 408 L 384.5 412 Q 381 410 382 403.5 L 390 396.5 L 391.5 395 L 395.5 390 Z M 397 392 L 395 395 L 393 396 L 391 399 L 389 400 L 383 406 L 385 407 L 389 406 L 390 405 L 393 403 L 394 401 L 397 399 L 400 394 L 397 392 Z " /><path fill="rgb(255,156,79)" stroke="rgb(255,156,79)" stroke-width="0" opacity="1" d="M 136.5 408 L 138 409.5 L 156 421.5 Q 156.6 426.6 153.5 428 Q 149 429 148 426.5 L 146.5 425 L 142 422.5 L 140.5 421 L 135 417.5 L 133 413.5 L 136.5 408 Z M 136 412 L 136 416 L 151 425 L 153 424 L 154 423 L 145 417 L 142 413 L 136 412 Z " /><path fill="rgb(255,156,79)" stroke="rgb(255,156,79)" stroke-width="0" opacity="1" d="M 371.5 411 L 376 413.5 L 378 418.5 L 371 421 L 369.5 424 L 365 425 L 363.5 428 L 355.5 429 L 353 425.5 L 356 424 L 358.5 420 L 369 413.5 L 370.5 412 L 371.5 411 Z M 371 413 L 371 415 L 363 421 L 358 422 L 357 427 L 362 427 L 374 418 L 373 415 Q 374 412 371 413 Z " /><path fill="rgb(255,156,79)" stroke="rgb(255,156,79)" stroke-width="0" opacity="1" d="M 163.5 428 Q 170.4 427.3 173 430 Q 171.8 433 175.5 432 L 180.5 433 L 185 436 L 186 439.5 L 183.5 443 L 171 440 Q 172.1 437.3 169.5 438 L 163 436 L 161 430.5 L 163.5 428 Z M 166 430 L 164 432 L 165 435 L 172 436 L 176 440 L 184 440 L 184 438 L 178 434 L 172 433 L 169 430 L 166 430 Z " /><path fill="rgb(255,156,79)" stroke="rgb(255,156,79)" stroke-width="0" opacity="1" d="M 341.5 429 Q 348 428 349 432.5 L 347.5 437 L 342 438 Q 343.1 440.7 340.5 440 L 333.5 442 L 330.5 445 L 325.5 445 L 323 438.5 L 329.5 436 L 332.5 433 L 340 432 L 341.5 429 Z M 343 432 Q 341 435 336 434 L 331 438 Q 323 436 325 441 L 328 442 L 333 440 L 338 440 L 342 436 Q 346 437 347 435 L 343 432 Z " /><path fill="rgb(255,156,79)" stroke="rgb(255,156,79)" stroke-width="0" opacity="1" d="M 195.5 440 L 205.5 442 L 209.5 445 L 218 446 Q 218.9 451.9 214.5 454 L 210.5 454 L 203.5 450 Q 195.9 451.1 193 447.5 Q 191.8 441.3 195.5 440 Z M 195 442 L 195 446 L 198 448 L 209 449 L 213 452 L 214 447 L 206 446 Q 202 442 195 442 Z " /><path fill="rgb(255,156,79)" stroke="rgb(255,156,79)" stroke-width="0" opacity="1" d="M 310.5 441 Q 315 440 316 442.5 L 317 449 L 309.5 450 L 301.5 454 L 294.5 454 L 292 447.5 Q 294.8 443.3 303.5 445 L 310.5 441 Z M 313 442 L 312 443 Q 309 442 310 445 L 295 447 Q 294 452 297 453 L 305 449 L 314 448 L 314 443 L 313 442 Z " /><path fill="rgb(255,156,79)" stroke="rgb(255,156,79)" stroke-width="0" opacity="1" d="M 228.5 448 L 231.5 449 L 247.5 449 L 251 450 Q 252 455.7 248.5 458 L 229.5 457 L 226 453.5 Q 224.1 448.1 227.5 449 L 228.5 448 Z M 230 450 L 228 453 L 246 457 L 248 451 L 230 450 Z " /><path fill="rgb(255,156,79)" stroke="rgb(255,156,79)" stroke-width="0" opacity="1" d="M 262.5 449 L 270.5 450 L 271.5 449 L 281.5 449 L 284 452.5 L 282 457 L 278.5 458 L 260.5 458 Q 257.3 456.1 259 450 L 262.5 449 Z M 261 451 Q 260 456 263 457 L 278 455 L 281 453 L 281 451 L 261 451 Z " /><path fill="rgb(249,229,211)" stroke="rgb(249,229,211)" stroke-width="0" opacity="1" d="M 192 0 L 221.5 0 L 222 2.5 Q 225.8 4.3 224 11.5 L 215 16.5 L 217.5 20 L 222 22 L 224 27 Q 226.7 28.1 226 25.5 L 231 10.5 L 237.5 4 L 240 2.5 L 240.5 0 L 263 0 L 264.5 4 L 270 8.5 L 275.5 19 L 280.5 13 L 302.5 11 Q 306.5 14 314.5 13 Q 317.8 9.8 325.5 11 L 333 14.5 L 334.5 16 L 337 18.5 L 339 25.5 L 339 46.5 L 333.5 54 L 329.5 55 L 323 50.5 L 322 31.5 L 320.5 30 L 316 31.5 L 316 46.5 L 310.5 54 L 307.5 55 L 301 50.5 L 299 46.5 L 299 31.5 L 296.5 28 L 293 33.5 Q 295 46 291 52.5 L 292.5 54 L 300.5 55 L 308.5 62 L 310.5 62 Q 312 58.5 318.5 60 Q 321.7 63.3 328.5 63 L 338 69.5 L 341.5 74 L 349.5 73 L 366 82.5 L 370 91 L 380.5 92 L 392 101 Q 390.9 103.7 393.5 103 L 396 106.5 Q 394.8 111.8 397.5 113 L 403.5 113 L 412 121.5 Q 417.8 125.7 419 134.5 L 418 136.5 L 429 143.5 L 437 156.5 L 438 163.5 L 436 166.5 L 445 173.5 Q 445.8 180.7 450 184.5 L 451 195.5 L 450 200 L 455 203.5 Q 460 212.5 459 227.5 L 457 233.5 L 462 240.5 L 462 259.5 L 458 267.5 Q 461.7 271.3 462 278.5 L 459 293.5 L 455.5 299 Q 452.5 298.1 454 302.5 L 455 303.5 L 455 312.5 L 448.5 329 L 442 333 L 444 337.5 L 444 341.5 L 437 356.5 L 431.5 362 L 426 363 L 427 370.5 L 420 383 L 417 384.5 L 414.5 388 L 406 392.5 Q 406 400 401.5 403 L 391.5 412 L 381 415.5 L 376.5 424 L 363.5 433 L 358.5 434 L 354.5 433 L 348.5 441 L 338.5 446 L 327.5 449 L 322.5 447 L 315.5 454 Q 307.2 454.2 302.5 458 L 293.5 458 L 288.5 456 Q 280.8 464.8 261.5 462 Q 259.3 458.2 252.5 459 Q 247.4 464.4 234.5 462 L 224.5 459 L 220.5 455 L 218.5 455 Q 215.2 458.2 207.5 457 L 204.5 455 L 196.5 454 L 188 447.5 Q 188.9 444.5 184.5 446 L 178.5 447 L 163.5 441 L 159 436.5 L 155.5 431 L 145.5 430 L 130 418.5 L 129 412 Q 122.8 413 119.5 410 L 110 401.5 Q 105 398.5 104 391.5 L 105 389.5 L 104 387 L 98.5 387 L 93 383 Q 90.4 374.7 84 369.5 L 84 360.5 L 82.5 359 L 76 355.5 L 68 340.5 L 67 333.5 L 69 329.5 L 64 327 Q 57.5 318.3 57 302.5 L 59 296.5 Q 53.3 292.7 52 284.5 L 51 270.5 Q 53.8 267.8 53 261.5 L 51 258.5 L 51 239.5 L 57 229.5 Q 51.7 227.3 54 217.5 L 59 201 L 64 197.5 L 62 189.5 L 68 173.5 L 73.5 167 L 77 165.5 L 76 157.5 L 84 143.5 L 89.5 138 Q 95 139 96 135.5 L 95 132.5 L 96 127.5 L 109.5 113 L 116.5 112 L 118 110.5 L 119 104.5 L 127.5 96 L 136.5 90 L 145 90 Q 145.5 83.2 150.5 80 L 165.5 72 L 171.5 72 L 175 73 L 177.5 67 L 184.5 63 Q 191.3 63.3 194.5 60 L 201.5 60 L 205.5 62 L 210 58.5 L 210 56 L 203.5 56 L 197.5 55 L 189 51 L 186 41.5 L 189.5 37 L 194.5 36 Q 198.8 39.2 206.5 39 L 210 36.5 L 209 34 L 201.5 33 L 195.5 34 L 189 30 L 187 18.5 L 188 17.5 L 188 8.5 L 192 0 Z M 196 4 L 193 7 Q 194 17 191 23 L 194 30 L 202 29 L 212 30 L 215 35 L 214 41 L 210 43 L 200 43 L 195 39 L 192 39 Q 188 41 189 46 L 194 47 L 197 51 L 214 51 L 219 47 L 220 45 Q 219 42 222 43 L 223 41 L 222 29 L 216 22 L 202 21 L 200 20 L 201 14 L 203 12 L 215 12 L 221 8 L 222 7 L 219 4 L 196 4 Z M 246 4 L 245 5 Q 240 3 241 7 L 238 9 L 231 20 L 231 37 L 232 38 Q 231 40 234 39 L 236 45 L 243 50 L 247 51 L 260 50 L 266 45 Q 265 42 268 43 L 273 28 L 268 14 Q 269 11 266 12 L 264 8 L 262 7 L 259 4 L 246 4 Z M 300 14 L 292 18 L 282 16 L 281 19 L 281 49 L 282 51 L 288 50 L 290 46 L 290 37 L 289 36 L 290 27 Q 292 22 300 23 L 303 28 L 303 49 Q 305 52 311 51 L 311 31 L 314 26 L 315 25 Q 317 21 323 23 L 327 31 L 327 50 Q 328 52 333 51 L 335 47 L 335 26 L 332 19 L 324 14 L 311 19 L 300 14 Z M 276 37 L 267 50 L 275 56 L 278 54 L 276 37 Z M 229 40 L 222 50 L 220 51 L 218 54 Q 225 55 229 52 Q 235 51 237 54 L 240 54 L 238 52 L 230 42 L 229 40 Z M 233 55 Q 226 60 213 59 Q 209 61 211 67 L 214 68 L 226 67 L 236 63 L 235 57 L 233 55 Z M 249 55 L 244 58 Q 243 63 247 64 L 254 63 L 264 63 L 265 64 Q 269 65 270 62 L 269 57 L 269 55 L 249 55 Z M 281 57 L 278 58 L 277 62 L 278 64 L 288 67 L 302 68 Q 305 66 303 60 L 301 59 L 291 59 Q 288 56 281 57 Z M 198 63 L 189 68 L 183 68 L 180 73 Q 179 77 183 78 Q 185 75 191 76 L 197 72 L 202 72 Q 204 71 203 66 Q 202 62 198 63 Z M 313 63 L 310 70 L 313 72 L 317 72 L 323 76 Q 328 75 330 78 L 335 77 L 336 72 L 330 68 L 325 68 Q 321 63 313 63 Z M 242 64 L 235 69 L 221 72 Q 213 73 210 70 L 204 75 L 190 81 L 178 81 L 177 83 L 171 89 L 156 97 L 150 96 L 148 101 L 142 107 L 140 109 L 137 111 L 135 113 Q 132 117 125 116 L 122 124 L 114 134 Q 111 141 102 141 L 101 151 L 94 160 L 93 164 L 84 171 L 85 173 L 85 180 L 81 186 Q 81 193 77 197 L 72 201 L 74 206 L 71 225 L 65 233 L 68 237 L 68 257 L 66 261 L 70 283 L 70 289 L 68 296 L 72 298 L 78 319 L 76 326 L 81 328 L 91 349 L 90 356 L 96 357 L 109 375 L 110 382 L 121 387 L 122 390 L 125 391 L 126 394 L 129 395 Q 133 398 133 405 Q 134 408 141 406 L 153 415 L 155 415 L 160 423 L 162 424 L 171 424 L 186 432 L 191 438 L 196 436 L 214 440 L 221 445 L 228 444 L 248 445 L 254 449 L 263 445 L 274 445 L 275 444 Q 282 443 286 446 L 289 446 L 296 441 Q 305 441 311 437 L 317 439 L 319 439 L 326 432 L 335 428 Q 340 425 349 426 L 352 421 L 363 412 L 371 408 L 377 408 Q 376 401 381 399 L 382 398 L 386 395 L 387 393 Q 392 386 401 385 L 403 376 L 412 364 L 419 360 Q 422 358 420 351 L 429 335 L 435 330 L 434 327 L 434 321 L 440 304 L 444 301 Q 446 294 442 293 L 445 272 L 449 267 L 445 258 L 445 239 L 448 235 L 442 225 L 440 214 L 441 202 L 437 199 L 429 181 Q 428 173 430 170 L 426 169 L 416 157 Q 412 152 412 144 L 402 137 L 401 135 Q 393 130 391 120 L 380 114 L 378 111 L 373 109 L 372 107 L 366 100 Q 365 96 358 97 L 342 88 L 340 86 L 337 82 L 329 82 L 312 76 L 310 73 L 306 70 L 302 72 Q 287 73 278 68 L 276 65 Q 270 64 268 68 L 248 68 L 242 64 Z M 166 76 Q 163 80 158 81 L 156 83 L 149 87 L 151 93 L 156 93 L 160 89 L 173 83 L 172 78 Q 172 75 166 76 Z M 345 76 Q 340 78 341 84 L 347 85 L 358 93 L 365 93 L 366 91 L 365 87 Q 364 83 359 84 L 357 81 L 352 79 L 350 78 Q 349 75 345 76 Z M 139 93 L 135 97 L 133 97 L 131 100 L 124 105 Q 121 106 122 111 Q 123 114 129 113 L 130 110 L 138 105 L 139 102 L 144 100 L 143 96 Q 144 91 139 93 Z M 374 94 L 370 96 L 369 100 L 373 102 L 374 104 L 383 110 L 384 113 L 390 114 Q 392 112 391 107 L 384 101 L 382 99 L 377 94 L 374 94 Z M 116 115 L 112 117 L 109 121 L 107 122 L 101 130 L 97 133 L 100 134 L 102 138 L 109 134 L 110 131 L 113 129 L 119 121 L 116 115 Z M 400 117 L 395 118 L 395 123 L 408 137 Q 407 141 412 139 L 413 136 L 416 135 Q 418 130 414 131 L 408 124 L 404 121 L 403 119 Q 404 115 400 117 Z M 89 143 L 88 148 L 85 149 L 84 155 L 82 156 Q 79 157 80 163 L 87 165 L 93 153 L 96 151 L 98 145 L 97 143 L 89 143 Z M 418 143 Q 415 144 416 150 L 419 151 L 424 160 L 425 164 L 428 165 Q 433 166 434 163 L 428 150 L 425 148 L 424 146 L 424 143 L 418 143 Z M 74 172 L 71 179 Q 72 182 69 181 L 66 193 Q 68 195 74 194 L 76 192 L 76 186 Q 81 182 81 174 Q 79 171 74 172 Z M 435 172 L 432 175 Q 432 182 437 186 L 438 192 L 440 193 L 441 196 L 445 197 L 447 193 L 441 174 Q 440 171 435 172 Z M 65 202 L 60 209 L 58 226 L 62 228 L 66 227 L 67 226 L 69 204 L 65 202 Z M 447 204 L 444 207 L 446 225 L 450 228 Q 454 229 455 227 L 453 209 L 449 204 L 447 204 Z M 59 235 L 57 236 L 55 238 L 55 260 L 58 261 Q 63 262 64 259 L 63 255 L 64 237 Q 63 234 59 235 Z M 453 236 L 450 237 L 449 240 L 450 246 L 450 255 L 449 256 Q 448 261 452 262 Q 457 263 458 261 L 458 240 L 457 237 L 453 236 Z M 58 266 L 55 269 L 56 284 L 60 291 Q 65 292 67 289 L 64 282 L 64 270 L 63 268 Q 62 265 58 266 Z M 450 270 Q 448 273 449 282 L 445 293 Q 448 296 454 295 L 454 291 L 458 279 L 457 271 L 450 270 Z M 64 299 L 60 305 Q 64 309 64 319 L 69 324 L 74 323 L 72 317 L 72 311 L 68 301 L 64 299 Z M 445 303 L 444 306 Q 445 308 442 307 L 441 317 L 437 323 L 437 327 Q 439 330 445 328 L 446 323 L 449 320 L 451 309 L 450 305 L 445 303 Z M 77 331 L 71 334 L 73 341 Q 72 343 75 342 L 76 348 L 81 356 L 89 352 L 80 337 L 80 332 L 77 331 Z M 433 335 L 428 346 Q 429 349 427 348 Q 423 350 424 357 Q 425 359 431 358 L 438 344 L 440 342 L 441 338 L 433 335 Z M 90 361 L 88 363 L 89 370 L 92 371 L 93 376 L 96 377 L 100 383 L 106 382 L 105 376 L 103 374 L 96 362 L 90 361 Z M 418 364 L 412 371 L 412 373 L 410 374 L 408 377 L 404 379 L 406 386 L 411 387 L 412 384 L 415 382 L 421 374 Q 420 370 423 371 L 425 368 L 418 364 Z M 112 386 Q 108 388 109 395 L 112 396 L 113 399 L 116 400 L 117 403 L 121 404 L 122 407 Q 121 410 126 408 Q 130 406 129 400 L 123 397 L 122 395 L 119 392 L 112 386 Z M 396 390 L 392 395 L 390 397 L 382 404 Q 381 410 385 412 L 390 408 L 392 404 L 395 403 L 396 402 L 399 400 L 403 393 Q 401 389 396 390 Z M 137 408 L 133 414 L 135 418 L 141 421 L 142 423 L 147 425 L 148 427 Q 149 429 154 428 Q 157 427 156 422 L 138 410 L 137 408 Z M 372 411 L 371 412 L 369 414 L 359 420 L 356 424 L 353 426 L 356 429 L 364 428 L 365 425 L 370 424 L 371 421 L 378 419 L 376 414 L 372 411 Z M 164 428 L 161 431 L 163 436 L 170 438 Q 172 437 171 440 L 184 443 L 186 440 L 185 436 L 181 433 L 176 432 Q 172 433 173 430 Q 170 427 164 428 Z M 342 429 L 340 432 L 333 433 L 330 436 L 323 439 L 326 445 L 331 445 L 334 442 L 341 440 Q 343 441 342 438 L 348 437 L 349 433 Q 348 428 342 429 Z M 196 440 Q 192 441 193 448 Q 196 451 204 450 L 211 454 L 215 454 Q 219 452 218 446 L 210 445 L 206 442 L 196 440 Z M 311 441 L 304 445 Q 295 443 292 448 L 295 454 L 302 454 L 310 450 L 317 449 L 316 443 Q 315 440 311 441 Z M 229 448 L 228 449 Q 224 448 226 454 L 230 457 L 249 458 Q 252 456 251 450 L 248 449 L 232 449 L 229 448 Z M 263 449 L 259 450 Q 257 456 261 458 L 279 458 L 282 457 L 284 453 L 282 449 L 272 449 L 271 450 L 263 449 Z " /><path fill="rgb(249,229,211)" stroke="rgb(249,229,211)" stroke-width="0" opacity="1" d="M 249.5 11 L 252.5 11 L 260 15.5 L 263 23.5 L 263 31.5 L 260 39.5 L 257.5 42 L 246.5 43 L 244 42 L 240 35.5 L 240 19.5 L 245.5 13 L 249.5 11 Z M 251 16 L 245 19 L 244 24 Q 243 32 246 37 L 251 39 L 255 38 L 258 33 Q 260 23 256 19 L 251 16 Z " /><path fill="rgb(249,229,211)" stroke="rgb(249,229,211)" stroke-width="0" opacity="1" d="M 248.5 147 Q 253.6 146.4 255 149.5 L 256 151.5 L 256 220.5 L 258 228 Q 260.7 226.9 260 229.5 L 275.5 255 L 277 256.5 L 286 272.5 L 290 276.5 L 293 285 L 290.5 286 L 209.5 286 L 207 282.5 L 211 275 Q 213.7 276.1 213 273.5 L 215 268 Q 217.7 269.1 217 266.5 L 226 253.5 L 232 241 Q 234.7 242.1 234 239.5 L 244 223.5 L 244 215.5 L 245 214.5 L 245 156.5 L 244 153.5 L 246.5 148 L 248.5 147 Z M 250 232 L 245 237 L 239 248 Q 240 250 237 249 L 231 262 L 223 272 L 222 276 L 224 277 L 268 277 L 269 278 L 278 277 L 273 265 L 261 249 L 255 238 L 253 235 L 250 232 Z " /></svg>