<svg width="2048" height="2048" viewBox="0 0 512 512" version="1.1" xmlns="http://www.w3.org/2000/svg"  style="background:transparent"><path fill="rgb(102,153,102)" stroke="rgb(102,153,102)" stroke-width="0" opacity="1" d="M 236.5 48 L 238 48.5 L 233 52.5 L 236.5 48 Z " /><path fill="rgb(102,153,102)" stroke="rgb(102,153,102)" stroke-width="0" opacity="1" d="M 251.5 48 L 255 50.5 L 256 52.5 L 251.5 48 Z " /><path fill="rgb(102,153,102)" stroke="rgb(102,153,102)" stroke-width="0" opacity="1" d="M 187.5 76 L 222 76.5 L 187.5 77 L 179.5 81 L 180.5 79 L 187.5 76 Z " /><path fill="rgb(102,153,102)" stroke="rgb(102,153,102)" stroke-width="0" opacity="1" d="M 267.5 76 L 301.5 76 L 308 79.5 L 306.5 79 L 301.5 77 L 267.5 77 L 267.5 76 Z " /><path fill="rgb(102,153,102)" stroke="rgb(102,153,102)" stroke-width="0" opacity="1" d="M 223.5 77 L 229 77.5 L 223.5 78 L 223.5 77 Z " /><path fill="rgb(102,153,102)" stroke="rgb(102,153,102)" stroke-width="0" opacity="1" d="M 260.5 77 L 266 77.5 L 260.5 78 L 260.5 77 Z " /><path fill="rgb(102,153,102)" stroke="rgb(102,153,102)" stroke-width="0" opacity="1" d="M 309.5 88 L 310 89.5 L 306.5 94 L 307 92.5 L 309.5 88 Z " /><path fill="rgb(102,153,102)" stroke="rgb(102,153,102)" stroke-width="0" opacity="1" d="M 178.5 89 L 181 92.5 L 179 91.5 L 178.5 89 Z " /><path fill="rgb(102,153,102)" stroke="rgb(102,153,102)" stroke-width="0" opacity="1" d="M 229.5 195 L 230 196.5 L 227 198.5 L 229.5 195 Z " /><path fill="rgb(102,153,102)" stroke="rgb(102,153,102)" stroke-width="0" opacity="1" d="M 267.5 209 L 272 214.5 L 268 211.5 L 267.5 209 Z " /><path fill="rgb(102,153,102)" stroke="rgb(102,153,102)" stroke-width="0" opacity="1" d="M 243.5 211 L 247 212.5 L 245.5 212 L 241.5 214 L 243.5 211 Z " /><path fill="rgb(102,153,102)" stroke="rgb(102,153,102)" stroke-width="0" opacity="1" d="M 238.5 218 L 236 221.5 L 235.5 223 L 235 221.5 L 238.5 218 Z " /><path fill="rgb(102,153,102)" stroke="rgb(102,153,102)" stroke-width="0" opacity="1" d="M 214.5 219 L 215 220.5 L 211.5 225 L 213 222.5 L 214.5 219 Z " /><path fill="rgb(102,153,102)" stroke="rgb(102,153,102)" stroke-width="0" opacity="1" d="M 274.5 219 L 278 224.5 L 274 221.5 L 274.5 219 Z " /><path fill="rgb(102,153,102)" stroke="rgb(102,153,102)" stroke-width="0" opacity="1" d="M 258.5 231 L 263 237.5 L 262 237.5 L 258.5 231 Z " /><path fill="rgb(102,153,102)" stroke="rgb(102,153,102)" stroke-width="0" opacity="1" d="M 213.5 257 L 213 258.5 L 211.5 261 L 212 259.5 L 213.5 257 Z " /><path fill="rgb(102,153,102)" stroke="rgb(102,153,102)" stroke-width="0" opacity="1" d="M 274.5 257 L 278 261.5 L 277 261.5 L 274.5 257 Z " /><path fill="rgb(102,153,102)" stroke="rgb(102,153,102)" stroke-width="0" opacity="1" d="M 282.5 270 L 285 271 L 287 276.5 L 286 276.5 L 282.5 270 Z " /><path fill="rgb(102,153,102)" stroke="rgb(102,153,102)" stroke-width="0" opacity="1" d="M 204 271 L 206 271.5 L 203 273.5 L 204 271 Z " /><path fill="rgb(102,153,102)" stroke="rgb(102,153,102)" stroke-width="0" opacity="1" d="M 307.5 273 L 312 278.5 L 308 275.5 L 307.5 273 Z " /><path fill="rgb(102,153,102)" stroke="rgb(102,153,102)" stroke-width="0" opacity="1" d="M 198.5 282 L 196 285.5 L 194.5 288 L 195 286.5 L 196 283 L 198.5 282 Z " /><path fill="rgb(102,153,102)" stroke="rgb(102,153,102)" stroke-width="0" opacity="1" d="M 314.5 284 L 319 289.5 L 317.5 290 Q 312.6 287.9 314.5 284 Z " /><path fill="rgb(102,153,102)" stroke="rgb(102,153,102)" stroke-width="0" opacity="1" d="M 173.5 285 L 174 286.5 L 170 289.5 L 173.5 285 Z " /><path fill="rgb(102,153,102)" stroke="rgb(102,153,102)" stroke-width="0" opacity="1" d="M 164.5 298 L 164 299.5 L 162.5 303 L 162 301.5 L 164.5 298 Z " /><path fill="rgb(102,153,102)" stroke="rgb(102,153,102)" stroke-width="0" opacity="1" d="M 164.5 322 L 164 323.5 L 162.5 327 L 162 325.5 L 164.5 322 Z " /><path fill="rgb(102,153,102)" stroke="rgb(102,153,102)" stroke-width="0" opacity="1" d="M 195.5 338 L 203 338.5 L 195.5 339 L 195.5 338 Z " /><path fill="rgb(102,153,102)" stroke="rgb(102,153,102)" stroke-width="0" opacity="1" d="M 286.5 338 L 294 338.5 L 286.5 339 L 286.5 338 Z " /><path fill="rgb(102,153,102)" stroke="rgb(102,153,102)" stroke-width="0" opacity="1" d="M 309.5 338 L 319 338.5 L 309.5 339 L 309.5 338 Z " /><path fill="rgb(153,102,153)" stroke="rgb(153,102,153)" stroke-width="0" opacity="1" d="M 240.5 47 L 248.5 47 L 256 53.5 L 257 61.5 L 256 61.5 L 254 56 Q 251.3 57.1 252 54.5 L 248.5 49 L 242.5 48 L 239 50.5 L 232.5 62 L 232 59.5 L 233 53.5 L 238.5 48 L 240.5 47 Z " /><path fill="rgb(153,102,153)" stroke="rgb(153,102,153)" stroke-width="0" opacity="1" d="M 233.5 65 L 234 73.5 L 231.5 78 L 229.5 79 L 186.5 79 L 181 83.5 Q 182.1 91.9 187.5 96 L 196 96.5 L 187.5 97 L 181 93.5 L 178 88.5 L 178 82.5 L 187.5 77 L 222.5 77 L 228.5 78 L 231 77 L 233.5 65 Z " /><path fill="rgb(153,102,153)" stroke="rgb(153,102,153)" stroke-width="0" opacity="1" d="M 255.5 66 L 258 77 L 265.5 78 L 266.5 77 L 301.5 77 L 310 81.5 L 311 86.5 L 306 95 Q 300.4 98.5 288.5 97 L 288.5 96 L 300.5 96 L 304 92.5 L 308 84.5 L 304.5 80 L 302.5 79 L 259.5 79 L 256 76.5 L 255.5 66 Z " /><path fill="rgb(153,102,153)" stroke="rgb(153,102,153)" stroke-width="0" opacity="1" d="M 202.5 96 L 222 96.5 L 202.5 97 L 202.5 96 Z " /><path fill="rgb(153,102,153)" stroke="rgb(153,102,153)" stroke-width="0" opacity="1" d="M 267.5 96 L 280 96.5 L 267.5 97 L 267.5 96 Z " /><path fill="rgb(153,102,153)" stroke="rgb(153,102,153)" stroke-width="0" opacity="1" d="M 255.5 102 L 256 123.5 L 258 126.5 L 255 124.5 L 254 121.5 L 255 120.5 L 255.5 102 Z " /><path fill="rgb(153,102,153)" stroke="rgb(153,102,153)" stroke-width="0" opacity="1" d="M 233.5 112 L 235 121.5 L 231.5 127 L 229.5 128 L 212.5 128 L 211.5 129 L 209.5 129 Q 200.8 127.3 199 132.5 L 197 140.5 L 199.5 144 Q 202.2 146.8 208.5 146 L 209.5 145 L 229.5 145 L 234 148.5 L 235 153.5 L 234 154.5 L 233.5 179 L 233 150.5 L 230.5 147 L 223.5 146 L 222.5 147 L 203.5 147 L 195 142.5 L 194 134.5 L 197.5 129 L 202.5 127 L 229.5 127 L 232 126 L 233 123.5 L 233.5 112 Z " /><path fill="rgb(153,102,153)" stroke="rgb(153,102,153)" stroke-width="0" opacity="1" d="M 259.5 127 L 286.5 127 L 293 130 Q 295 133 294 140.5 L 290.5 145 L 286.5 147 L 266.5 147 L 260.5 146 L 257 148.5 L 256 150.5 L 256 182.5 L 260 199 L 264 201.5 L 268 211.5 Q 273.7 213.8 274 221.5 L 280 227.5 L 292 250 L 295 251.5 L 300 263 L 303 264.5 L 308 275.5 L 313 280.5 Q 313.4 287.1 317.5 290 L 320 291.5 Q 326 298.5 328 309.5 Q 325.9 313.4 319.5 313 L 319.5 312 L 323 309.5 Q 324.7 297.3 318.5 293 L 315 290.5 L 312 282.5 L 306 276.5 Q 306 269.2 303 266 L 298 262.5 Q 297.6 255.9 293.5 253 L 291 251.5 Q 288.4 242.6 282 237.5 Q 282 230 277.5 227 L 274 224.5 Q 272.5 216 266 212.5 L 263 203.5 L 257 196.5 L 255 185.5 L 255 154.5 L 254 150.5 L 257.5 146 L 259.5 145 L 279.5 145 L 284.5 146 L 291 141.5 Q 292.2 131.8 286.5 129 L 259.5 128 L 259.5 127 Z " /><path fill="rgb(153,102,153)" stroke="rgb(153,102,153)" stroke-width="0" opacity="1" d="M 232.5 181 L 233 188.5 L 232 188.5 L 232.5 181 Z " /><path fill="rgb(153,102,153)" stroke="rgb(153,102,153)" stroke-width="0" opacity="1" d="M 231.5 190 L 232 194.5 L 230 200 L 225 203.5 L 222 212.5 Q 216.3 215.8 215 223.5 L 209 229.5 L 207 236.5 L 201 242.5 L 197 252 L 193 254.5 L 191 262.5 L 185 268.5 L 181 278 L 177 280.5 Q 174.9 291.9 167 297.5 L 164 308.5 L 169 312.5 L 165.5 313 L 161 309.5 L 161 304.5 L 166 295.5 L 174 286.5 L 176 279.5 L 187.5 263 L 189 261.5 L 195 249 L 198 247.5 L 201 239.5 L 205 235.5 L 210.5 225 L 214 222.5 L 216 215.5 Q 222.4 211.4 224 202.5 L 230 196.5 L 231.5 190 Z " /><path fill="rgb(153,102,153)" stroke="rgb(153,102,153)" stroke-width="0" opacity="1" d="M 243.5 209 L 249 212.5 L 255 220.5 L 257 226.5 L 263 232.5 L 265 240.5 L 275.5 256 L 279 258.5 L 282.5 267 L 286 269.5 L 291 282 L 294 283.5 L 297 289.5 L 297 293.5 L 294.5 296 L 288.5 297 L 287.5 296 L 201.5 296 L 199.5 297 L 194.5 296 L 191 292.5 L 194 283.5 L 200 277.5 L 204.5 268 L 208 265.5 L 212 255 Q 214.7 256.1 214 253.5 L 218 245.5 L 224 239.5 L 226 233.5 L 231 228.5 L 234 219.5 L 243.5 209 Z M 244 211 L 235 222 Q 235 228 231 231 L 230 232 L 216 256 L 214 257 L 208 269 L 204 271 L 201 280 L 196 283 L 193 291 L 196 295 L 294 295 L 296 293 L 285 273 L 284 271 Q 278 268 278 261 L 272 255 Q 270 246 264 242 L 262 235 L 258 231 L 247 213 L 244 211 Z " /><path fill="rgb(153,102,153)" stroke="rgb(153,102,153)" stroke-width="0" opacity="1" d="M 167.5 320 L 169 320.5 L 166 324.5 L 164 332.5 Q 167.7 337.8 177.5 337 L 184.5 336 L 185.5 337 L 305.5 337 L 311.5 336 L 316.5 337 L 323 333.5 Q 324.9 323.6 320 320.5 L 321.5 321 L 325 323.5 L 328 333.5 L 319.5 338 L 168.5 338 L 162 336 L 161 328.5 L 167.5 320 Z " /><path fill="rgb(224,226,224)" stroke="rgb(224,226,224)" stroke-width="0" opacity="1" d="M 242.5 48 Q 248.3 47.2 250 50.5 L 252 56 Q 254.7 54.9 254 57.5 Q 257.5 59 256 65.5 L 255 66.5 L 255 74.5 L 257.5 78 L 259.5 79 L 302.5 79 L 307 82.5 L 308 85.5 L 300.5 96 L 266.5 96 L 265.5 95 L 263.5 95 Q 258 95.5 256 99.5 L 255 102.5 L 255 120.5 L 254 121.5 L 257.5 127 L 259.5 128 L 286.5 129 L 290 132.5 L 291 141.5 Q 288.6 146.6 280.5 146 L 279.5 145 L 259.5 145 L 255 148.5 L 254 153.5 L 255 154.5 L 255 185.5 L 257 196.5 L 263 203.5 L 266 212.5 L 272 218.5 L 276.5 227 L 280 229.5 L 282 237.5 L 292.5 253 L 296 255.5 Q 296.5 263 301.5 266 L 303 267.5 L 305 269.5 L 306 276.5 L 312 282.5 Q 312.5 290 317.5 293 L 321 295.5 Q 324.3 300.2 323 309.5 L 318.5 313 L 169.5 313 L 164 308.5 L 168 295.5 L 174 289.5 L 176 282.5 L 179.5 278 L 181 276.5 L 185 268.5 L 191 262.5 Q 191 255 195.5 252 L 197 250.5 L 201 242.5 L 207 236.5 L 209 229.5 L 215 223.5 Q 216.3 215.8 222 212.5 L 225 203.5 L 228.5 200 L 230 198.5 L 233 188.5 L 235 150.5 L 231.5 146 L 229.5 145 L 209.5 145 L 203.5 146 L 198 142.5 L 197 137.5 L 202.5 129 Q 208.8 130.8 210.5 128 L 212.5 128 L 229.5 128 L 234 124.5 L 235 120.5 L 233 105.5 L 234 102.5 L 230.5 97 L 225.5 95 L 224.5 96 L 187.5 96 Q 182.1 91.9 181 83.5 L 186.5 79 L 229.5 79 L 233 76.5 L 234 65.5 L 233 59.5 L 240.5 49 L 242.5 48 Z M 244 209 L 234 220 L 231 229 L 226 234 L 224 240 L 218 246 L 214 254 Q 215 256 212 255 L 208 266 L 205 268 L 200 278 L 194 284 L 191 293 L 195 296 L 200 297 L 202 296 L 288 296 L 289 297 L 295 296 L 297 294 L 297 290 L 294 284 L 291 282 L 286 270 L 283 267 L 279 259 L 276 256 L 265 241 L 263 233 L 257 227 L 255 221 L 249 213 L 244 209 Z " /><path fill="rgb(224,226,224)" stroke="rgb(224,226,224)" stroke-width="0" opacity="1" d="M 171.5 319 L 186.5 319 L 187.5 320 L 300.5 320 L 301.5 319 L 316.5 319 L 322 322.5 L 323 333.5 Q 319.8 337.3 312.5 337 L 306.5 336 L 305.5 337 L 185.5 337 L 178.5 336 L 171.5 337 L 164 332.5 L 166 324.5 L 169.5 320 L 171.5 319 Z " /></svg>