<svg width="2048" height="2048" viewBox="0 0 512 512" version="1.1" xmlns="http://www.w3.org/2000/svg"  style="background:transparent"><path fill="rgb(102,153,102)" stroke="rgb(102,153,102)" stroke-width="0" opacity="1" d="M 241.5 45 Q 250.6 44 254 48.5 L 252.5 49 Q 249 45 239.5 47 L 235.5 49 L 236.5 47 L 241.5 45 Z " /><path fill="rgb(102,153,102)" stroke="rgb(102,153,102)" stroke-width="0" opacity="1" d="M 229.5 195 L 230 196.5 L 227 198.5 L 229.5 195 Z " /><path fill="rgb(102,153,102)" stroke="rgb(102,153,102)" stroke-width="0" opacity="1" d="M 242 212 L 244 212.5 L 241 214.5 L 242 212 Z " /><path fill="rgb(102,153,102)" stroke="rgb(102,153,102)" stroke-width="0" opacity="1" d="M 214.5 219 L 215 220.5 L 212.5 224 L 213 222.5 L 214.5 219 Z " /><path fill="rgb(102,153,102)" stroke="rgb(102,153,102)" stroke-width="0" opacity="1" d="M 258.5 232 L 262 234.5 L 263 237.5 L 262 237.5 L 258.5 232 Z " /><path fill="rgb(102,153,102)" stroke="rgb(102,153,102)" stroke-width="0" opacity="1" d="M 205.5 233 L 206 234.5 L 203 236.5 L 205.5 233 Z " /><path fill="rgb(102,153,102)" stroke="rgb(102,153,102)" stroke-width="0" opacity="1" d="M 274.5 257 L 278 261.5 L 277 261.5 L 274.5 257 Z " /><path fill="rgb(102,153,102)" stroke="rgb(102,153,102)" stroke-width="0" opacity="1" d="M 213.5 258 L 212 260.5 L 211.5 262 L 211 260.5 L 213.5 258 Z " /><path fill="rgb(102,153,102)" stroke="rgb(102,153,102)" stroke-width="0" opacity="1" d="M 189.5 260 L 189 261.5 L 187.5 263 L 189.5 260 Z " /><path fill="rgb(102,153,102)" stroke="rgb(102,153,102)" stroke-width="0" opacity="1" d="M 282.5 270 L 286 272.5 L 287 276.5 L 286 276.5 L 282.5 270 Z " /><path fill="rgb(102,153,102)" stroke="rgb(102,153,102)" stroke-width="0" opacity="1" d="M 205.5 271 L 204 273.5 L 201.5 278 L 202 276.5 Q 201.5 271.5 205.5 271 Z " /><path fill="rgb(102,153,102)" stroke="rgb(102,153,102)" stroke-width="0" opacity="1" d="M 307.5 273 L 312 278.5 L 308 275.5 L 307.5 273 Z " /><path fill="rgb(102,153,102)" stroke="rgb(102,153,102)" stroke-width="0" opacity="1" d="M 199.5 281 L 197 284.5 L 194.5 288 L 195 286.5 L 196 283 L 199.5 281 Z " /><path fill="rgb(102,153,102)" stroke="rgb(102,153,102)" stroke-width="0" opacity="1" d="M 314.5 283 L 319 289.5 L 317.5 289 L 316 287.5 L 314.5 283 Z " /><path fill="rgb(102,153,102)" stroke="rgb(102,153,102)" stroke-width="0" opacity="1" d="M 173.5 285 L 174 286.5 L 170 289.5 L 173.5 285 Z " /><path fill="rgb(102,153,102)" stroke="rgb(102,153,102)" stroke-width="0" opacity="1" d="M 164.5 298 L 164 299.5 L 162.5 302 L 163 300.5 L 164.5 298 Z " /><path fill="rgb(102,153,102)" stroke="rgb(102,153,102)" stroke-width="0" opacity="1" d="M 324.5 299 L 327 302.5 L 325 301.5 L 324.5 299 Z " /><path fill="rgb(102,153,102)" stroke="rgb(102,153,102)" stroke-width="0" opacity="1" d="M 163.5 313 L 169.5 315 L 318.5 315 L 325.5 313 L 324.5 315 L 318.5 316 L 169.5 316 L 164.5 315 L 163.5 313 Z " /><path fill="rgb(153,102,153)" stroke="rgb(153,102,153)" stroke-width="0" opacity="1" d="M 239.5 47 L 249.5 47 L 255 49 L 257 62.5 L 256 63.5 L 255.5 180 L 255 55.5 L 249.5 49 L 242.5 48 L 235 52.5 L 233 63.5 L 234 64.5 L 234 180.5 L 232 194.5 L 230 200 L 225 203.5 L 220.5 214 L 218 215.5 L 215 223.5 L 209 229.5 L 207 236.5 L 201 242.5 L 198 250.5 L 193 255.5 L 191 262.5 L 185 268.5 L 180.5 278 L 177 280.5 Q 174.9 291.9 167 297.5 L 163 309.5 L 168.5 313 L 319.5 313 L 326 309.5 L 322 297.5 L 317.5 292 L 315 290.5 Q 313.1 280.9 306 276.5 L 303 266 L 298 262.5 L 296 255 L 291 251.5 L 286 241 Q 283.3 242.1 284 239.5 L 282 237.5 L 280 229.5 L 273 222.5 Q 273.1 216.9 269.5 215 L 266 212.5 L 265 207.5 L 257 194.5 L 256 181.5 L 257 181.5 Q 256 190.5 259 195.5 L 264 201.5 L 268 211.5 L 270.5 214 L 272 215.5 L 277.5 225 L 279 226.5 L 293.5 251 L 295 252.5 L 300 263 L 303 264.5 L 308 275.5 L 313 280.5 L 316 289 L 320 291.5 L 328 304.5 L 329 309.5 L 326.5 313 L 318.5 315 L 169.5 315 L 161 311.5 L 160 305.5 L 168 292.5 L 174 286.5 L 176 279.5 L 187.5 263 L 189 261.5 L 191 255.5 L 198 247.5 L 201 239.5 L 206 234.5 Q 206.9 227.4 211.5 224 L 214 222.5 L 216 215.5 Q 222.2 211.2 224 202.5 L 230 196.5 L 232 188.5 L 232 180.5 L 233 179.5 L 233 64.5 Q 230.2 62.7 232 56.5 L 234 49 L 239.5 47 Z " /><path fill="rgb(153,102,153)" stroke="rgb(153,102,153)" stroke-width="0" opacity="1" d="M 242.5 210 Q 247.9 208.1 247 211.5 L 250 217 L 254 219.5 L 259.5 230 L 262 231.5 L 267.5 244 L 269 245.5 L 276.5 257 L 279 258.5 L 282.5 267 L 286 269.5 L 298 293.5 Q 294.3 298.8 283.5 297 L 278.5 296 L 201 295.5 L 287.5 295 L 292.5 296 L 296 293.5 L 295 288.5 L 288 280.5 L 284.5 271 L 280 267.5 L 278 260.5 L 272 254.5 L 259.5 232 L 256 229.5 L 253 221.5 L 245.5 212 Q 241.1 210.5 242 213.5 L 240 218 L 236 220.5 Q 234.1 230.1 227 234.5 L 225 241.5 L 220 246.5 Q 217.7 255.7 211 260.5 L 211 263.5 L 208 268.5 L 202 274.5 Q 201.9 280.9 197.5 283 L 196 284.5 L 192 292.5 L 196 295.5 L 194.5 296 L 191 293.5 L 195 281 L 200 277.5 Q 201.5 269 208 265.5 L 210 258.5 L 217 250.5 L 218 245.5 L 224 239.5 L 226 233.5 L 233 225.5 L 235 218.5 L 242.5 210 Z " /><path fill="rgb(222,224,222)" stroke="rgb(222,224,222)" stroke-width="0" opacity="1" d="M 242.5 48 Q 251.4 47.6 254 53.5 L 255 55.5 L 255 179.5 L 258 197.5 L 263 203.5 L 266 212.5 L 268.5 215 L 272 217.5 L 273 222.5 L 280 229.5 L 284 241 Q 286.7 239.9 286 242.5 L 294.5 255 L 296 256.5 Q 296.9 263.1 301.5 266 L 303 267.5 L 306 276.5 L 312 282.5 L 316.5 292 L 321 295.5 Q 321.6 302.9 326 306.5 L 326 309.5 L 319.5 313 L 168.5 313 L 163 309.5 L 163 306.5 Q 167.2 302.7 168 295.5 L 174 289.5 L 176 282.5 L 179.5 278 L 182 276.5 L 185 268.5 L 191 262.5 L 193 255.5 Q 199.4 251.4 201 242.5 L 207 236.5 L 209 229.5 L 215 223.5 L 219.5 214 L 222 212.5 Q 222.9 203.9 228.5 200 L 230 198.5 L 232 194.5 L 234 180.5 L 234 64.5 L 233 62.5 Q 235.8 60.7 234 54.5 L 236.5 51 L 242.5 48 Z M 243 210 L 235 219 L 233 226 L 226 234 L 224 240 L 218 246 L 217 251 L 210 259 L 208 266 Q 202 269 200 278 L 195 281 L 191 294 L 195 296 L 279 296 L 284 297 Q 294 299 298 294 L 286 270 L 283 267 L 279 259 L 277 257 L 269 246 L 268 244 L 262 232 L 260 230 L 254 220 L 250 217 L 247 212 Q 248 208 243 210 Z " /></svg>