<svg width="2048" height="2048" viewBox="0 0 512 512" version="1.1" xmlns="http://www.w3.org/2000/svg"  style="background:transparent"><path fill="rgb(153,102,102)" stroke="rgb(153,102,102)" stroke-width="0" opacity="1" d="M 233 35 L 249.5 37 L 263.5 37 L 264.5 36 L 281.5 35 L 281.5 37 Q 291.8 40.7 305.5 41 L 309.5 39 L 322 43.5 Q 320.5 47.9 323.5 47 L 330.5 50 L 332.5 50 Q 345.5 48.5 350 55.5 L 351.5 58 L 361.5 60 L 388.5 79 L 399 84 L 400 88 L 408.5 91 L 412 94.5 L 424 114.5 L 442 133.5 L 443 137.5 L 450 145.5 Q 453.9 159.6 462 169.5 L 466.5 190 L 468.5 190 L 470 191.5 L 474 203.5 Q 471.2 205.2 472 210.5 L 473 212.5 L 473 214.5 L 475 225 L 478 225.5 L 478 236.5 Q 474.3 248.8 476 266.5 L 478 277.5 L 474 284.5 L 473 297.5 L 474 299.5 L 470 313 L 467.5 314 L 466 313.5 L 464 322.5 L 465 324.5 L 462 333.5 L 445 365 Q 442 363.8 443 367.5 L 430.5 382 L 423 387.5 L 419.5 392 L 413 396.5 L 406.5 404 L 404 405.5 L 397.5 413 L 394 415.5 L 388.5 423 L 368.5 439 L 351 446 Q 352.1 448.7 349.5 448 Q 343.7 453.2 334.5 455 L 332.5 455 L 326 456 L 324.5 459 L 308.5 464 L 305.5 463 L 293.5 464 L 288 466 L 287.5 468 L 276.5 468 Q 264.2 464.3 246.5 466 L 245.5 467 L 229 468 L 228.5 466 L 227.5 468 L 227 466 L 216.5 463 L 214.5 463 L 203.5 464 L 190 460 L 189 456 L 176.5 453 L 174.5 453 Q 167.6 452.4 164 448.5 L 160.5 445 L 154.5 444 L 144.5 439 Q 141.3 433.7 134.5 432 L 116.5 415 L 106.5 410 L 92 399.5 L 89 391 L 85 389.5 L 77 375.5 L 58 349.5 Q 59.3 344.3 56.5 343 L 52 341 L 48 326.5 Q 49 318.5 46.5 314 L 45 314.5 L 44.5 313 L 43.5 315 L 42 313.5 L 42 308.5 L 39 299.5 Q 41.8 297.8 41 292.5 L 36.5 275 L 35.5 278 L 35 266.5 L 37 253.5 L 37 239.5 L 35 225 Q 38.3 226.3 37 221.5 L 40 209.5 L 39 203.5 L 43.5 186 L 44.5 188 L 45 185 Q 47.7 186.1 47 183.5 L 49 178.5 L 50 167.5 L 56.5 159 Q 59.3 159.6 58 153.5 L 68 138 Q 70.7 139.1 70 136.5 L 72 132.5 L 73.5 130 L 75 128.5 L 84.5 114 L 86 114.5 L 86.5 113 L 88 113.5 L 93.5 103 Q 99.1 102.6 101 98.5 L 103 93 L 114 89 L 115.5 86 L 117 85.5 L 115 84.5 L 127.5 77 L 132.5 72 L 142 68 L 144.5 64 L 156.5 58 L 158.5 59 L 162 58 Q 160.5 54.2 163.5 55 Q 169.4 49.9 178.5 48 L 180.5 48 L 188 47 L 190.5 43 L 205 39 L 205.5 41 L 207.5 41 L 211.5 40 L 213.5 41 L 227.5 38 L 229.5 38 L 233 37 L 233 35 Z M 303 108 L 294 111 L 290 116 L 288 126 L 284 129 L 279 136 L 280 140 Q 282 144 290 144 L 292 147 Q 293 157 299 163 L 299 167 L 288 174 Q 282 168 284 154 L 275 142 L 263 130 L 258 128 L 237 128 L 232 130 L 229 134 Q 226 138 220 139 L 217 148 L 210 151 L 205 150 L 203 142 L 197 137 L 194 134 L 189 129 L 175 130 L 170 136 L 164 140 L 159 147 Q 157 155 160 160 L 165 162 L 168 166 L 169 172 L 167 182 L 162 186 L 149 204 L 149 209 L 158 223 L 162 236 L 160 237 L 155 236 L 148 230 L 142 231 L 139 236 L 139 249 L 140 251 L 147 254 L 150 260 L 157 264 L 160 271 L 165 274 L 167 274 L 170 281 L 174 284 L 177 284 L 185 288 L 191 287 L 198 276 L 202 277 L 208 285 L 210 297 L 215 300 Q 219 302 218 308 L 216 309 L 199 307 Q 193 301 184 299 L 172 299 L 170 300 L 165 306 L 170 321 L 177 324 L 180 330 L 187 334 L 191 341 L 197 344 L 201 351 L 210 356 L 211 360 L 218 364 L 221 370 L 228 374 L 231 379 L 238 384 L 241 388 Q 242 392 249 391 L 252 386 L 260 383 L 263 378 L 270 373 L 274 367 L 282 362 L 284 356 L 291 353 L 295 345 L 301 343 L 304 338 L 311 333 L 314 328 Q 316 323 322 323 L 326 314 L 331 309 L 331 305 L 325 300 L 322 297 L 331 287 L 334 285 L 346 271 L 354 264 L 355 262 L 363 255 Q 370 249 373 238 L 372 234 L 368 230 L 356 230 Q 350 238 338 239 L 335 235 L 343 229 L 344 219 L 347 212 L 350 210 L 354 203 L 353 189 Q 346 183 342 174 L 338 170 L 328 169 Q 324 168 325 163 L 330 159 L 334 153 L 335 146 L 343 142 L 345 138 Q 346 128 343 123 L 338 119 Q 333 116 332 110 L 328 108 L 303 108 Z " /><path fill="rgb(153,102,102)" stroke="rgb(153,102,102)" stroke-width="0" opacity="1" d="M 206.5 162 L 210 164.5 L 208 176.5 L 212.5 183 Q 218.1 182.9 220 186.5 L 222 197.5 L 228 204.5 L 230 214.5 L 227.5 218 L 216.5 219 L 214 218 L 215 201.5 L 213 193.5 L 208.5 189 Q 200.5 187.9 198 181.5 L 196 175 L 202 170.5 L 204 163 L 206.5 162 Z " /><path fill="rgb(153,102,102)" stroke="rgb(153,102,102)" stroke-width="0" opacity="1" d="M 235.5 163 L 240 165.5 L 235.5 167 L 234 164.5 L 235.5 163 Z " /><path fill="rgb(153,102,102)" stroke="rgb(153,102,102)" stroke-width="0" opacity="1" d="M 275.5 184 L 279 185.5 L 278 190 Q 272 192.3 274 185.5 L 275.5 184 Z " /><path fill="rgb(153,102,102)" stroke="rgb(153,102,102)" stroke-width="0" opacity="1" d="M 268.5 203 Q 275.5 201.5 277 205.5 Q 279.9 209.1 279 216.5 Q 276.8 221.3 267.5 219 L 265 218 L 264 209.5 L 268.5 203 Z " /><path fill="rgb(153,102,102)" stroke="rgb(153,102,102)" stroke-width="0" opacity="1" d="M 285 284 Q 295.2 282.4 298 289.5 L 300 294 L 305 297.5 L 305 299.5 L 298.5 306 L 292.5 308 L 277.5 309 Q 273.3 307.3 276 305.5 L 277.5 303 L 283 300 L 285 284 Z " /><path fill="rgb(153,153,102)" stroke="rgb(153,153,102)" stroke-width="0" opacity="1" d="M 225.5 34 L 233 35 Q 234.1 37.7 231.5 37 L 228.5 39 L 225.5 38 L 212.5 41 L 210.5 41 L 206.5 40 L 205 40.5 L 206.5 39 L 217.5 35 Q 223.8 36.8 225.5 34 Z " /><path fill="rgb(153,153,102)" stroke="rgb(153,153,102)" stroke-width="0" opacity="1" d="M 285.5 34 L 295.5 35 L 309 39.5 L 305.5 41 Q 291.2 40.8 281 36.5 L 285.5 34 Z " /><path fill="rgb(153,153,102)" stroke="rgb(153,153,102)" stroke-width="0" opacity="1" d="M 322.5 43 L 338 49.5 L 332.5 50 L 329.5 49 L 322 47 L 322.5 43 Z " /><path fill="rgb(153,153,102)" stroke="rgb(153,153,102)" stroke-width="0" opacity="1" d="M 188.5 44 L 188 45.5 Q 188.9 48.5 184.5 47 L 184.5 46 L 188.5 44 Z " /><path fill="rgb(153,153,102)" stroke="rgb(153,153,102)" stroke-width="0" opacity="1" d="M 350.5 55 L 356 58.5 L 354.5 59 L 350 56.5 L 350.5 55 Z " /><path fill="rgb(153,153,102)" stroke="rgb(153,153,102)" stroke-width="0" opacity="1" d="M 161.5 56 L 162 58 L 157.5 59 L 157.5 58 L 161.5 56 Z " /><path fill="rgb(153,153,102)" stroke="rgb(153,153,102)" stroke-width="0" opacity="1" d="M 114.5 84 L 117 85.5 L 114 87.5 L 112.5 89 L 103 93 Q 102.1 98.9 97.5 102 L 92 104.5 L 87.5 114 L 86 113.5 L 85.5 115 L 85 112.5 L 92 101.5 L 101.5 92 L 110.5 88 L 114.5 84 Z " /><path fill="rgb(153,153,102)" stroke="rgb(153,153,102)" stroke-width="0" opacity="1" d="M 399.5 85 L 405 89.5 L 403.5 90 L 400 88 L 399.5 85 Z " /><path fill="rgb(153,153,102)" stroke="rgb(153,153,102)" stroke-width="0" opacity="1" d="M 302.5 108 L 327.5 108 L 332 110 Q 332.9 115.9 337.5 119 L 343 122.5 Q 346.4 127.6 345 137.5 L 342.5 142 L 335 145.5 L 334 152.5 L 329.5 159 L 325 162.5 Q 324 168 327.5 169 L 337.5 170 L 342 173.5 Q 345.7 182.8 353 188.5 L 354 202.5 L 349.5 210 L 347 211.5 L 344 218.5 L 343 229 L 335 234.5 L 337.5 239 Q 350 238 355.5 230 L 367.5 230 L 372 233.5 L 373 237.5 Q 370.3 248.8 362.5 255 L 355 261.5 L 353.5 264 L 346 270.5 L 333.5 285 L 330.5 287 L 322 296.5 L 324.5 300 L 331 304.5 L 331 308.5 L 326 313.5 L 321.5 323 Q 316 323.5 314 327.5 L 310.5 333 L 304 337.5 L 300.5 343 L 295 345 L 290.5 353 L 284 356 L 282 362 L 274 366.5 L 269.5 373 L 263 377.5 L 259.5 383 L 252 386 L 248.5 391 Q 242 392 241 387.5 L 237.5 384 L 231 378.5 L 227.5 374 L 221 369.5 L 217.5 364 L 211 359.5 L 210 356 L 201 350.5 L 196.5 344 L 191 340.5 L 186.5 334 L 180 329.5 L 176.5 324 L 170 320.5 L 165 305.5 L 169.5 300 L 171.5 299 L 183.5 299 Q 193.4 300.6 198.5 307 L 215.5 309 L 218 308 Q 219.3 301.6 214.5 300 L 210 296.5 L 208 284.5 L 201.5 277 L 197.5 276 L 190.5 287 L 184.5 288 L 176.5 284 L 173.5 284 L 170 280.5 L 167 274 L 164.5 274 L 160 270.5 L 156.5 264 L 150 259.5 L 146.5 254 L 140 250.5 L 139 248.5 L 139 235.5 L 141.5 231 L 147.5 230 L 154.5 236 L 159.5 237 L 162 236 L 158 222.5 L 149 208.5 L 149 203.5 L 161.5 186 L 167 181.5 L 169 171.5 L 168 165.5 L 164.5 162 L 160 159.5 Q 157.2 155.3 159 146.5 L 163.5 140 L 170 135.5 L 174.5 130 L 188.5 129 L 194 133.5 L 196.5 137 L 203 141.5 L 205 150 L 209.5 151 L 217 148 L 220 139 Q 225.9 138.1 229 133.5 L 231.5 130 L 236.5 128 L 257.5 128 L 262.5 130 L 275 141.5 L 284 153.5 Q 281.9 167.6 287.5 174 L 299 166.5 L 299 162.5 Q 293.4 156.6 292 146.5 L 289.5 144 Q 282.3 144.3 280 139.5 L 279 135.5 L 283.5 129 L 288 125.5 L 290 115.5 L 293.5 111 L 302.5 108 Z M 305 111 L 299 114 Q 291 119 290 131 L 284 136 L 287 139 Q 293 139 295 135 L 305 134 L 306 138 L 302 140 L 299 144 Q 298 156 303 164 L 302 169 L 296 172 L 289 179 L 284 180 L 282 179 L 282 162 L 279 153 L 277 151 L 271 143 L 265 138 L 263 137 Q 260 132 254 131 Q 241 129 235 133 L 232 137 L 226 140 Q 220 141 221 150 Q 223 153 230 152 L 237 158 L 241 159 L 245 164 L 245 167 L 242 170 L 231 172 Q 232 182 226 186 L 226 192 Q 232 202 234 218 L 227 222 L 216 223 L 211 231 Q 210 235 205 234 L 202 231 Q 201 224 204 222 L 207 220 L 210 217 L 212 209 L 210 196 L 207 192 L 196 188 L 192 180 L 192 176 L 199 168 L 201 160 L 200 144 L 193 139 L 190 135 L 186 133 Q 173 135 168 143 L 164 149 L 165 157 L 169 159 L 172 170 L 171 186 L 165 190 L 160 195 L 156 205 L 156 209 L 159 214 L 162 227 L 164 230 L 167 231 L 169 238 L 164 241 L 153 240 L 146 236 Q 142 239 143 247 L 148 250 L 153 257 L 158 260 L 163 268 L 170 272 L 173 279 L 183 283 L 188 283 L 193 275 L 198 271 L 206 273 L 210 279 L 213 292 L 221 303 L 221 309 L 217 312 L 197 311 L 181 302 L 173 303 L 170 307 L 170 311 L 173 319 L 178 321 L 183 328 L 189 331 L 193 337 L 198 340 L 204 348 L 210 351 L 214 357 L 218 359 L 225 368 L 245 384 L 250 384 L 257 380 L 260 376 L 268 370 L 270 367 L 277 361 L 281 356 L 288 351 L 292 345 L 298 341 L 302 335 L 308 331 L 311 327 L 320 320 L 324 309 L 323 305 L 318 301 L 313 302 Q 307 308 299 311 L 286 311 L 285 312 Q 275 314 272 309 L 273 303 L 278 299 L 280 296 L 282 284 L 284 280 L 287 279 L 298 283 L 302 290 L 309 293 L 320 292 L 324 287 L 331 282 L 343 269 L 344 266 L 350 262 L 354 255 L 359 253 L 364 246 Q 366 238 362 236 L 357 236 Q 351 241 342 242 L 335 241 L 332 238 Q 331 231 335 230 L 337 228 L 340 224 L 344 208 L 350 198 L 349 193 L 342 182 Q 337 173 325 171 L 322 168 L 322 162 L 330 152 L 333 144 L 338 141 L 342 136 L 340 126 L 333 121 L 331 117 Q 329 112 323 111 L 305 111 Z M 215 154 L 212 157 L 214 163 L 212 178 Q 213 181 219 180 L 222 174 L 231 170 L 230 164 L 222 160 L 218 156 Q 219 152 215 154 Z M 207 162 L 204 163 L 202 171 L 196 175 L 198 182 Q 201 188 209 189 L 213 194 L 215 202 L 214 218 L 217 219 L 228 218 L 230 215 L 228 205 L 222 198 L 220 187 Q 218 183 213 183 L 208 177 L 210 165 L 207 162 Z M 236 163 L 234 165 L 236 167 L 240 166 L 236 163 Z M 285 284 L 283 300 L 278 303 L 276 306 Q 273 307 278 309 L 293 308 L 299 306 L 305 300 L 305 298 L 300 294 L 298 290 Q 295 282 285 284 Z " /><path fill="rgb(153,153,102)" stroke="rgb(153,153,102)" stroke-width="0" opacity="1" d="M 442.5 135 L 445 138.5 L 443 137.5 L 442.5 135 Z " /><path fill="rgb(153,153,102)" stroke="rgb(153,153,102)" stroke-width="0" opacity="1" d="M 57.5 155 L 58 159 L 52 163.5 L 50 167.5 L 49 178.5 L 47 185 Q 44 183.8 45 187.5 L 44 187.5 L 43 184.5 L 50 163.5 L 57.5 155 Z " /><path fill="rgb(153,153,102)" stroke="rgb(153,153,102)" stroke-width="0" opacity="1" d="M 464.5 178 L 469 189.5 L 466 189.5 L 464.5 178 Z " /><path fill="rgb(153,153,102)" stroke="rgb(153,153,102)" stroke-width="0" opacity="1" d="M 277.5 180 L 282 181.5 L 282 188.5 L 279 194.5 L 279 200.5 L 281 203.5 L 282 217.5 L 283 220 L 291 224.5 Q 292.3 229.8 289.5 231 Q 283.3 232.3 282 228.5 L 278.5 222 Q 266.9 223.7 262 220 L 260 213.5 L 262 204.5 L 265.5 199 L 271 195.5 L 270 185.5 L 273.5 181 L 277.5 180 Z M 276 184 L 274 186 Q 272 192 278 190 L 279 186 L 276 184 Z M 269 203 L 264 210 L 265 218 L 268 219 Q 277 221 279 217 Q 280 209 277 206 Q 276 202 269 203 Z " /><path fill="rgb(153,153,102)" stroke="rgb(153,153,102)" stroke-width="0" opacity="1" d="M 473.5 204 L 478 217.5 L 479 227.5 L 478 227.5 Q 479.1 223.3 475 225 L 475 221.5 L 472 213.5 L 473 211.5 L 472 206.5 L 473.5 204 Z " /><path fill="rgb(153,153,102)" stroke="rgb(153,153,102)" stroke-width="0" opacity="1" d="M 38 209 Q 41 207.8 40 211.5 L 36.5 225 L 36 217.5 L 38 209 Z " /><path fill="rgb(153,153,102)" stroke="rgb(153,153,102)" stroke-width="0" opacity="1" d="M 296.5 243 Q 300 245 299 251.5 L 298 258.5 Q 300.7 260.2 299 266.5 L 295.5 268 Q 292.5 266.5 294 260.5 L 295 259.5 L 295 244.5 L 296.5 243 Z " /><path fill="rgb(153,153,102)" stroke="rgb(153,153,102)" stroke-width="0" opacity="1" d="M 195 246 L 198 247.5 L 198 256.5 L 196.5 258 Q 192.8 255.8 194 248.5 L 195 246 Z " /><path fill="rgb(153,153,102)" stroke="rgb(153,153,102)" stroke-width="0" opacity="1" d="M 34.5 275 L 35.5 278 L 36.5 275 L 41 296.5 L 39.5 299 L 35 285.5 L 34.5 275 Z " /><path fill="rgb(153,153,102)" stroke="rgb(153,153,102)" stroke-width="0" opacity="1" d="M 476.5 281 L 477 284.5 L 473.5 298 L 473 289.5 L 476.5 281 Z " /><path fill="rgb(153,153,102)" stroke="rgb(153,153,102)" stroke-width="0" opacity="1" d="M 44.5 313 L 45.5 315 L 47 314.5 L 48 326.5 L 52 341 L 58 344.5 L 57.5 348 L 50 339.5 L 44 323.5 L 43 315.5 L 44.5 313 Z " /><path fill="rgb(153,153,102)" stroke="rgb(153,153,102)" stroke-width="0" opacity="1" d="M 466.5 313 L 469 313.5 L 464.5 323 L 465 321.5 L 466.5 313 Z " /><path fill="rgb(153,153,102)" stroke="rgb(153,153,102)" stroke-width="0" opacity="1" d="M 87.5 391 L 89 392.5 L 90 394.5 L 88 393.5 L 87.5 391 Z " /><path fill="rgb(153,153,102)" stroke="rgb(153,153,102)" stroke-width="0" opacity="1" d="M 157.5 444 L 162 445 Q 160.9 447.7 163.5 447 L 163.5 448 L 157.5 445 L 157.5 444 Z " /><path fill="rgb(153,153,102)" stroke="rgb(153,153,102)" stroke-width="0" opacity="1" d="M 176.5 453 L 189 456 L 190 458.5 L 188.5 459 L 176.5 454 L 176.5 453 Z " /><path fill="rgb(153,153,102)" stroke="rgb(153,153,102)" stroke-width="0" opacity="1" d="M 329.5 455 L 332 455.5 L 326.5 458 L 326 456 L 329.5 455 Z " /><path fill="rgb(153,153,102)" stroke="rgb(153,153,102)" stroke-width="0" opacity="1" d="M 205.5 463 L 214.5 463 L 215.5 464 L 218.5 463 L 227 466 L 226.5 468 L 217.5 468 L 207.5 465 L 205.5 463 Z " /><path fill="rgb(153,153,102)" stroke="rgb(153,153,102)" stroke-width="0" opacity="1" d="M 299.5 463 Q 307.1 461.5 306 465 L 295.5 468 L 288 468 Q 286.8 465 290.5 466 L 299.5 463 Z " /><path fill="rgb(228,227,225)" stroke="rgb(228,227,225)" stroke-width="0" opacity="1" d="M 304.5 111 L 322.5 111 Q 328.9 111.7 331 116.5 L 333 121 L 340 125.5 L 342 135.5 L 337.5 141 L 333 143.5 L 330 151.5 L 322 161.5 L 322 167.5 L 324.5 171 Q 336.5 173 342 181.5 L 349 192.5 L 350 197.5 L 344 207.5 L 340 223.5 L 336.5 228 L 335 229.5 Q 331.1 231.1 332 237.5 L 334.5 241 L 341.5 242 Q 350.7 240.7 356.5 236 L 361.5 236 Q 365.8 237.8 364 245.5 L 358.5 253 L 354 255 L 349.5 262 L 344 265.5 L 343 268.5 L 330.5 282 L 324 286.5 L 319.5 292 L 308.5 293 L 302 289.5 L 297.5 283 L 286.5 279 L 284 280 L 282 283.5 L 280 295.5 L 277.5 299 L 273 302.5 L 272 308.5 Q 274.8 313.8 284.5 312 L 285.5 311 L 298.5 311 Q 307.4 308.4 312.5 302 L 317.5 301 L 323 304.5 L 324 308.5 L 320 320 L 311 326.5 L 307.5 331 L 302 334.5 L 297.5 341 L 292 344.5 L 287.5 351 L 281 355.5 L 276.5 361 L 270 366.5 L 267.5 370 L 260 375.5 L 256.5 380 L 249.5 384 L 244.5 384 L 225 367.5 L 217.5 359 L 214 356.5 L 209.5 351 L 204 347.5 L 197.5 340 L 193 336.5 L 188.5 331 L 183 327.5 L 177.5 321 L 173 319 L 170 310.5 L 170 306.5 L 172.5 303 L 180.5 302 L 196.5 311 L 216.5 312 L 221 308.5 L 221 302.5 L 213 291.5 L 210 278.5 L 205.5 273 L 197.5 271 L 193 274.5 L 187.5 283 L 182.5 283 L 173 278.5 L 170 272 L 163 267.5 L 157.5 260 L 153 256.5 L 147.5 250 L 143 246.5 Q 141.5 238.5 145.5 236 L 152.5 240 L 163.5 241 L 169 237.5 L 167 231 L 164 229.5 L 162 226.5 L 159 213.5 L 156 208.5 L 156 204.5 L 160 194.5 L 164.5 190 L 171 185.5 L 172 169.5 L 168.5 159 L 165 156.5 L 164 148.5 L 167.5 143 Q 173.2 134.7 185.5 133 L 190 135 L 192.5 139 L 200 143.5 L 201 159.5 L 199 167.5 L 192 175.5 L 192 179.5 L 196 188 L 206.5 192 L 210 195.5 L 212 208.5 L 210 216.5 L 206.5 220 L 204 221.5 Q 200.8 223.8 202 230.5 L 204.5 234 Q 210.3 234.8 211 230.5 L 215.5 223 L 226.5 222 L 234 217.5 Q 232.5 202 226 191.5 L 226 185.5 Q 231.8 181.5 231 172 L 241.5 170 L 245 166.5 L 245 163.5 L 240.5 159 L 236.5 158 L 229.5 152 Q 223.3 152.7 221 149.5 Q 219.8 141.3 225.5 140 L 232 136.5 L 234.5 133 Q 241 129 253.5 131 Q 260.1 131.9 263 136.5 L 264.5 138 L 271 142.5 L 276.5 151 L 279 152.5 L 282 161.5 L 282 178.5 L 283.5 180 L 288.5 179 L 295.5 172 L 302 168.5 L 303 163.5 Q 298.3 156.2 299 143.5 L 301.5 140 L 306 138 L 304.5 134 L 294.5 135 Q 292.5 139 286.5 139 L 284 135.5 L 290 130.5 Q 290.7 118.7 298.5 114 L 304.5 111 Z M 278 180 L 274 181 L 270 186 L 271 196 L 266 199 L 262 205 L 260 214 L 262 220 Q 267 224 279 222 L 282 229 Q 283 232 290 231 Q 292 230 291 225 L 283 220 L 282 218 L 281 204 L 279 201 L 279 195 L 282 189 L 282 182 L 278 180 Z M 297 243 L 295 245 L 295 260 L 294 261 Q 292 266 296 268 L 299 267 Q 301 260 298 259 L 299 252 Q 300 245 297 243 Z M 195 246 L 194 249 Q 193 256 197 258 L 198 257 L 198 248 L 195 246 Z " /><path fill="rgb(228,227,225)" stroke="rgb(228,227,225)" stroke-width="0" opacity="1" d="M 214.5 154 Q 218.9 152.5 218 155.5 L 221.5 160 L 230 163.5 L 231 169.5 L 222 173.5 L 218.5 180 Q 213.4 180.6 212 177.5 L 214 162.5 L 212 156.5 L 214.5 154 Z " /></svg>