<svg width="2048" height="2048" viewBox="0 0 512 512" version="1.1" xmlns="http://www.w3.org/2000/svg"  style="background:transparent"><path fill="rgb(102,153,102)" stroke="rgb(102,153,102)" stroke-width="0" opacity="1" d="M 247.5 130 Q 254.2 129.3 257.5 132 L 272.5 143 L 279.5 143 L 285 138.5 L 289 131 Q 292.6 128.8 301.5 130 Q 308.1 130.9 311 135.5 L 314 149.5 L 318.5 155 L 323.5 157 L 344.5 157 L 353 160.5 L 355 163.5 L 355 184.5 L 359 197 L 362.5 199 L 375.5 201 L 381 205.5 Q 384 211.5 383 221.5 L 378.5 227 L 371 231 L 369 237.5 L 375 253 L 381 257.5 Q 383.8 260.2 383 266.5 L 378.5 273 L 361.5 281 L 357 285.5 L 354 293.5 L 357 302.5 L 357 307.5 L 351.5 315 L 338.5 318 L 325.5 318 L 318 321.5 L 313 335.5 L 308.5 341 Q 302.1 344.1 291.5 343 L 287 341 L 280.5 331 L 276.5 330 L 272.5 331 Q 267.9 337.9 259.5 341 L 254.5 343 L 247.5 343 L 241 338.5 L 231 326.5 Q 228 323.5 229 316.5 L 237.5 313 L 242 308.5 L 245.5 301 L 282.5 302 L 300.5 299 L 311 293.5 L 315.5 287 L 325 280.5 Q 329.6 265.6 339 255.5 L 341 243.5 L 340 242.5 L 340 228.5 L 341 224.5 L 340 219.5 L 336.5 215 L 331 212 Q 328.2 198.1 318.5 190 Q 312.8 184.7 303.5 183 L 300 179.5 L 296.5 174 L 292.5 172 L 262.5 172 L 254.5 175 L 244.5 183 L 232.5 188 L 229 191.5 Q 227.5 198 222.5 201 L 217 205.5 L 215 210.5 L 215 217.5 L 212 230.5 L 211 262.5 L 207.5 267 Q 201 268.5 198 273.5 L 193.5 282 L 179.5 281 L 175 277.5 Q 170.4 272.1 170 262.5 L 175 249.5 L 183 238.5 L 183 233.5 L 171 223.5 L 170 213.5 L 172 205.5 L 176.5 201 L 188.5 197 L 193 194 L 195 188.5 L 197 163.5 L 201.5 158 Q 204.2 155.2 210.5 156 L 220.5 159 Q 228.5 156.5 233 150.5 L 239 137.5 L 244.5 131 L 247.5 130 Z M 295 137 L 291 139 L 290 143 Q 287 148 279 149 L 261 147 L 252 139 L 250 139 L 247 143 L 245 152 L 231 163 Q 228 162 229 165 L 223 169 L 220 169 L 211 162 Q 204 161 203 166 L 203 174 L 204 175 L 203 194 L 201 198 L 194 203 L 182 206 Q 175 209 177 221 L 185 225 L 189 231 L 189 244 L 187 250 L 178 262 L 178 267 L 184 270 L 195 266 L 204 249 Q 206 242 203 241 L 203 236 L 209 222 Q 207 208 211 202 L 218 196 L 224 188 Q 228 181 238 180 L 243 174 L 250 168 L 260 166 L 295 166 L 303 169 L 305 174 L 310 178 L 325 184 L 329 189 L 336 205 L 341 208 Q 346 211 347 220 L 347 254 L 343 267 L 335 273 L 330 285 L 322 291 L 316 299 L 314 301 Q 301 304 292 311 L 274 311 L 273 312 Q 260 314 255 308 L 250 309 L 245 317 L 240 321 L 249 336 Q 254 337 257 334 L 258 332 Q 263 326 272 324 L 282 324 L 283 325 L 285 325 Q 284 328 287 327 L 290 335 L 294 337 L 304 336 L 308 331 L 309 321 L 313 313 L 323 309 L 337 309 L 338 310 Q 346 311 350 309 L 351 307 L 351 302 L 344 294 L 345 289 Q 344 286 347 287 L 356 274 L 364 268 L 372 267 L 375 265 L 375 263 L 369 257 Q 366 245 359 237 L 360 231 Q 364 225 372 223 L 375 219 L 374 214 L 370 209 L 357 204 L 351 197 L 349 187 L 344 178 L 346 168 L 341 164 L 321 163 L 314 161 L 309 157 L 305 144 Q 303 137 295 137 Z " /><path fill="rgb(102,153,102)" stroke="rgb(102,153,102)" stroke-width="0" opacity="1" d="M 271.5 195 L 284.5 195 L 286 196.5 Q 288.1 210.1 280.5 214 L 273 218.5 L 270 225 L 259 230 L 258 236.5 L 261.5 241 Q 270.4 243.6 275.5 250 L 279.5 250 L 290.5 238 L 295 234.5 L 300.5 227 Q 303.1 223.1 310.5 224 L 313 225 Q 315.2 230.2 314 240.5 L 311 252.5 L 303 260.5 Q 300.5 268.5 294.5 273 L 278.5 279 L 269.5 279 L 265.5 278 L 249.5 283 L 243 287.5 L 239 297 Q 231.5 297.8 228 303.5 Q 227.6 310.1 223.5 313 Q 218 313.5 216 317.5 Q 214.2 325.2 208.5 329 L 201 334.5 L 196.5 341 L 188 347.5 Q 186.5 354 181.5 357 L 171 363.5 L 165 378 L 150.5 387 L 144.5 388 L 134.5 386 L 128 380.5 L 122 363.5 L 128 358.5 L 130 349.5 L 135.5 343 L 143 338.5 L 147.5 331 L 156.5 327 L 177 309 L 177 307 L 179 307 L 179 305 L 182.5 303 L 193 295 L 197.5 285 L 208.5 283 L 212 279.5 L 215 270 Q 222.8 268.5 227 262.5 L 231 246.5 L 229 240.5 L 229 220.5 L 232.5 216 L 243 212.5 Q 243.4 205.9 247.5 203 L 271.5 195 Z M 272 202 L 259 206 L 256 210 L 259 221 L 263 223 L 265 222 L 268 217 Q 272 211 279 209 L 280 207 L 279 203 L 272 202 Z M 238 227 L 235 230 L 235 239 L 241 249 L 231 270 L 219 277 L 217 284 L 214 287 L 203 291 L 201 297 Q 198 301 192 303 L 185 312 L 183 315 L 179 317 L 172 326 L 155 337 L 157 343 L 162 350 L 171 354 L 179 352 Q 183 349 184 342 L 192 337 L 197 329 L 206 324 Q 211 320 212 311 L 220 305 L 225 295 L 233 291 L 237 284 Q 246 273 261 268 L 269 268 L 270 269 Q 285 271 293 266 L 308 243 Q 310 235 306 233 L 299 242 L 292 246 L 287 253 L 280 259 L 273 258 L 266 250 L 257 245 Q 252 241 251 233 L 238 227 Z M 149 351 L 143 354 L 135 363 L 136 365 Q 140 371 150 373 Q 155 374 158 371 L 160 368 Q 161 361 158 358 Q 156 352 149 351 Z " /><path fill="rgb(153,102,153)" stroke="rgb(153,102,153)" stroke-width="0" opacity="1" d="M 246.5 127 Q 261.3 126.2 267 134.5 L 269.5 138 Q 272.1 141.4 279.5 140 L 282 139 L 288.5 128 L 290.5 127 L 303.5 127 L 313 131.5 Q 317.1 135.9 316 145.5 L 319.5 152 L 324.5 154 L 350.5 155 L 356 158.5 L 358 162.5 L 359 189.5 L 362.5 195 Q 366.5 198 374.5 197 L 383 201 Q 387.1 208.2 386 221.5 L 381.5 229 L 374 234.5 L 375 244.5 L 384 255.5 L 386 266.5 Q 383.9 274.9 377.5 279 L 362.5 285 L 359 288.5 L 358 298.5 L 360 306.5 L 355 317 L 339.5 323 L 323.5 324 L 319 327.5 L 313 342 L 306.5 345 L 289.5 346 L 283 340.5 L 279.5 335 L 275.5 334 Q 266.4 344.9 248.5 347 L 237 339.5 L 222.5 318 Q 217.5 317.5 217 321.5 Q 215.5 328 210.5 331 L 205 334.5 L 199.5 343 L 190 350.5 L 185 359 L 177 363 L 173 375.5 L 168.5 381 Q 157.9 384.9 151.5 393 L 144.5 394 Q 132.1 390.9 125 382.5 L 117 370.5 L 115 362.5 L 119.5 357 L 125 353.5 Q 126.5 345 132.5 341 L 140 336.5 L 144.5 329 Q 153.4 326.4 159 320.5 L 161 317.5 L 189 292.5 Q 189.8 286.8 185.5 286 Q 175.3 285.2 171 278.5 L 167 267.5 L 167 258.5 L 173 244 L 178 240.5 L 179 233 L 171 229 L 169 225.5 Q 165 222 167 212.5 L 169 204.5 L 173.5 199 L 185.5 194 L 188 191.5 L 190 184.5 L 191 171.5 L 197 157 L 205.5 153 L 210.5 153 Q 214.5 156 222.5 155 L 228 150.5 L 233 138.5 L 241.5 129 L 246.5 127 Z M 248 130 L 245 131 L 239 138 L 233 151 Q 228 157 221 159 L 211 156 Q 204 155 202 158 L 197 164 L 195 189 L 193 194 L 189 197 L 177 201 L 172 206 L 170 214 L 171 224 L 183 234 L 183 239 L 175 250 L 170 263 Q 170 272 175 278 L 180 281 L 194 282 L 198 274 Q 201 269 208 267 L 211 263 L 212 231 L 215 218 L 215 211 L 217 206 L 223 201 Q 227 198 229 192 L 233 188 L 245 183 L 255 175 L 263 172 L 293 172 L 297 174 L 300 180 L 304 183 Q 313 185 319 190 Q 328 198 331 212 L 337 215 L 340 220 L 341 225 L 340 229 L 340 243 L 341 244 L 339 256 Q 330 266 325 281 L 316 287 L 311 294 L 301 299 L 283 302 L 246 301 L 242 309 L 238 313 L 229 317 Q 228 324 231 327 L 241 339 L 248 343 L 255 343 L 260 341 Q 268 338 273 331 L 277 330 L 281 331 L 287 341 L 292 343 Q 302 344 309 341 L 313 336 L 318 322 L 326 318 L 339 318 L 352 315 L 357 308 L 357 303 L 354 294 L 357 286 L 362 281 L 379 273 L 383 267 Q 384 260 381 258 L 375 253 L 369 238 L 371 231 L 379 227 L 383 222 Q 384 212 381 206 L 376 201 L 363 199 L 359 197 L 355 185 L 355 164 L 353 161 L 345 157 L 324 157 L 319 155 L 314 150 L 311 136 Q 308 131 302 130 Q 293 129 289 131 L 285 139 L 280 143 L 273 143 L 258 132 Q 254 129 248 130 Z M 264 175 L 254 182 L 233 191 Q 228 202 219 211 L 214 238 L 215 259 L 217 262 Q 216 265 222 263 L 226 257 L 228 248 L 226 236 L 226 220 L 227 217 Q 230 212 237 211 L 241 205 L 246 200 Q 258 198 267 191 L 296 185 L 295 178 L 292 175 L 264 175 Z M 298 187 L 297 193 L 291 201 L 287 212 L 278 218 L 273 225 L 261 235 L 262 238 L 276 245 L 279 245 L 299 223 L 309 217 Q 320 218 326 216 L 327 213 Q 327 205 323 201 L 320 197 L 315 191 L 308 187 L 298 187 Z M 272 195 L 248 203 Q 243 206 243 213 L 233 216 L 229 221 L 229 241 L 231 247 L 227 263 Q 223 269 215 270 L 212 280 L 209 283 L 198 285 L 193 295 L 183 303 L 179 305 L 179 307 L 177 307 L 177 309 L 157 327 L 148 331 L 143 339 L 136 343 L 130 350 L 128 359 L 122 364 L 128 381 L 135 386 L 145 388 L 151 387 L 165 378 L 171 364 L 182 357 Q 186 354 188 348 L 197 341 L 201 335 L 209 329 Q 214 325 216 318 Q 218 313 224 313 Q 228 310 228 304 Q 232 298 239 297 L 243 288 L 250 283 L 266 278 L 270 279 L 279 279 L 295 273 Q 301 269 303 261 L 311 253 L 314 241 Q 315 230 313 225 L 311 224 Q 303 223 301 227 L 295 235 L 291 238 L 280 250 L 276 250 Q 270 244 262 241 L 258 237 L 259 230 L 270 225 L 273 219 L 281 214 Q 288 210 286 197 L 285 195 L 272 195 Z M 327 218 L 325 224 L 322 226 L 317 232 L 317 241 L 315 252 L 305 264 L 301 272 L 290 281 L 283 283 L 262 283 L 249 287 Q 244 288 245 295 L 248 297 L 263 299 L 290 298 L 307 293 L 308 291 Q 311 284 319 282 L 323 278 L 329 263 L 337 250 L 337 223 L 336 221 Q 334 217 327 218 Z M 206 273 L 203 276 Q 201 282 208 279 L 209 275 L 206 273 Z M 235 302 Q 230 303 231 309 Q 232 311 237 310 Q 240 309 239 304 L 235 302 Z " /><path fill="rgb(153,102,153)" stroke="rgb(153,102,153)" stroke-width="0" opacity="1" d="M 148.5 351 Q 155.7 351.9 158 357.5 Q 161 360.5 160 367.5 L 157.5 371 Q 155.2 373.7 149.5 373 Q 140.4 371.1 136 364.5 L 135 362.5 L 142.5 354 L 148.5 351 Z M 148 355 L 146 356 Q 140 357 141 365 Q 143 369 150 370 L 154 369 L 157 365 L 156 360 Q 154 355 148 355 Z " /><path fill="rgb(246,246,246)" stroke="rgb(246,246,246)" stroke-width="0" opacity="1" d="M 62.5 56 L 450.5 56 L 456 60.5 L 457 62.5 L 457 450.5 L 452.5 456 L 450.5 457 L 62.5 457 L 57 452.5 L 56 450.5 L 56 62.5 L 60.5 57 L 62.5 56 Z M 247 127 L 242 129 L 233 139 L 228 151 L 223 155 Q 215 156 211 153 L 206 153 L 197 157 L 191 172 L 190 185 L 188 192 L 186 194 L 174 199 L 169 205 L 167 213 Q 165 222 169 226 L 171 229 L 179 233 L 178 241 L 173 244 L 167 259 L 167 268 L 171 279 Q 175 285 186 286 Q 190 287 189 293 L 161 318 L 159 321 Q 153 326 145 329 L 140 337 L 133 341 Q 126 345 125 354 L 120 357 L 115 363 L 117 371 L 125 383 Q 132 391 145 394 L 152 393 Q 158 385 169 381 L 173 376 L 177 363 L 185 359 L 190 351 L 200 343 L 205 335 L 211 331 Q 215 328 217 322 Q 218 318 223 318 L 237 340 L 249 347 Q 266 345 276 334 L 280 335 L 283 341 L 290 346 L 307 345 L 313 342 L 319 328 L 324 324 L 340 323 L 355 317 L 360 307 L 358 299 L 359 289 L 363 285 L 378 279 Q 384 275 386 267 L 384 256 L 375 245 L 374 235 L 382 229 L 386 222 Q 387 208 383 201 L 375 197 Q 367 198 363 195 L 359 190 L 358 163 L 356 159 L 351 155 L 325 154 L 320 152 L 316 146 Q 317 136 313 132 L 304 127 L 291 127 L 289 128 L 282 139 L 280 140 Q 272 141 270 138 L 267 135 Q 261 126 247 127 Z " /><path fill="rgb(246,246,246)" stroke="rgb(246,246,246)" stroke-width="0" opacity="1" d="M 263.5 175 L 291.5 175 L 295 177.5 L 296 185 L 266.5 191 Q 258.2 197.7 245.5 200 L 241 204.5 L 236.5 211 Q 229.9 211.9 227 216.5 L 226 219.5 L 226 235.5 L 228 247.5 L 226 256.5 L 221.5 263 Q 216.1 264.9 217 261.5 L 215 258.5 L 214 237.5 L 219 210.5 Q 228 202.3 233 191 L 253.5 182 L 263.5 175 Z " /><path fill="rgb(246,246,246)" stroke="rgb(246,246,246)" stroke-width="0" opacity="1" d="M 298 187 L 307.5 187 L 315 191 L 319.5 197 L 323 200.5 Q 327 204.5 327 212.5 L 326 216 Q 320.1 218.4 308.5 217 L 299 223 L 278.5 245 L 275.5 245 L 262 237.5 L 261 234.5 L 273 224.5 L 277.5 218 L 287 211.5 L 291 200.5 L 297 192.5 L 298 187 Z " /><path fill="rgb(246,246,246)" stroke="rgb(246,246,246)" stroke-width="0" opacity="1" d="M 327 218 Q 333.5 216.8 336 220.5 L 337 222.5 L 337 249.5 L 329 262.5 L 323 277.5 L 318.5 282 Q 310.9 283.9 308 290.5 L 306.5 293 L 289.5 298 L 262.5 299 L 247.5 297 L 245 294.5 Q 244.3 288.3 248.5 287 L 261.5 283 L 282.5 283 L 289.5 281 L 301 271.5 L 305 263.5 L 315 251.5 L 317 240.5 L 317 231.5 L 321.5 226 L 325 223.5 L 327 218 Z " /><path fill="rgb(246,246,246)" stroke="rgb(246,246,246)" stroke-width="0" opacity="1" d="M 205.5 273 L 209 274.5 L 208 279 Q 201.3 281.6 203 275.5 L 205.5 273 Z " /><path fill="rgb(246,246,246)" stroke="rgb(246,246,246)" stroke-width="0" opacity="1" d="M 234.5 302 L 239 303.5 Q 240 309 236.5 310 Q 232 311 231 308.5 Q 230.3 302.8 234.5 302 Z " /><path fill="rgb(246,246,246)" stroke="rgb(246,246,246)" stroke-width="0" opacity="1" d="M 147.5 355 Q 153.9 355.1 156 359.5 L 157 364.5 L 153.5 369 L 149.5 370 Q 143.2 369.4 141 364.5 Q 140 357 145.5 356 L 147.5 355 Z " /></svg>