<svg width="2048" height="2048" viewBox="0 0 760 760" version="1.1" xmlns="http://www.w3.org/2000/svg"  style="background:transparent"><path fill="rgb(60,240,10)" stroke="rgb(60,240,10)" stroke-width="0" opacity="1" d="M 4.5 326 L 331.5 326 L 332.5 327 L 334 326.5 L 335 328.5 L 335 342.5 L 334 348 L 331.5 347 L 5 347 L 5 383.5 L 5.5 384 L 332.5 384 L 334 383.5 L 335 400.5 L 334 405 L 4.5 405 L 3 403.5 L 2 399.5 L 2 331.5 L 4.5 326 Z " /><path fill="rgb(60,240,10)" stroke="rgb(60,240,10)" stroke-width="0" opacity="1" d="M 430.5 326 L 435.5 327 L 436.5 326 L 756.5 326 L 759 331.5 L 759 399.5 L 756.5 405 L 440.5 405 L 440 404.5 L 440 391.5 L 442.5 382 L 443 384 L 755.5 384 L 756 383.5 L 756 347 L 438.5 347 L 435.5 349 L 430 338.5 L 430.5 326 Z " /><path fill="rgb(60,240,10)" stroke="rgb(60,240,10)" stroke-width="0" opacity="1" d="M 372.5 333 L 375 333.5 L 376 342.5 L 374.5 349 L 373.5 346 L 372.5 348 Q 368.9 344.1 371 334.5 L 372.5 333 Z " /><path fill="rgb(60,240,10)" stroke="rgb(60,240,10)" stroke-width="0" opacity="1" d="M 392.5 333 L 395 334 L 393.5 348 L 391 335.5 L 392.5 333 Z " /><path fill="rgb(60,240,10)" stroke="rgb(60,240,10)" stroke-width="0" opacity="1" d="M 376.5 382 L 377 393.5 L 376 393.5 L 376.5 382 Z " /><path fill="rgb(60,240,10)" stroke="rgb(60,240,10)" stroke-width="0" opacity="1" d="M 388.5 388 L 389 393.5 L 388 393.5 L 388.5 388 Z " /><path fill="rgb(60,240,10)" stroke="rgb(60,240,10)" stroke-width="0" opacity="1" d="M 394.5 391 L 395 396.5 L 394 396.5 L 394.5 391 Z " /><path fill="rgb(60,240,10)" stroke="rgb(60,240,10)" stroke-width="0" opacity="1" d="M 378 396 Q 382 394.6 380 401.5 L 378.5 407 L 378 396 Z " /><path fill="rgb(60,240,10)" stroke="rgb(60,240,10)" stroke-width="0" opacity="1" d="M 385 396 L 387 396.5 L 387 406.5 L 386 406.5 L 385 396 Z " /><path fill="rgb(153,102,102)" stroke="rgb(153,102,102)" stroke-width="0" opacity="1" d="M 378.5 97 Q 388.3 96.3 391 102.5 L 396 111.5 Q 396.4 121.1 401 126.5 L 410 174.5 L 410 182.5 L 412 189.5 L 415 227.5 L 416 228.5 L 420 310 L 411 311 L 411 295.5 L 408 290.5 L 407 280 L 393.5 278 L 390.5 279 L 388.5 279 L 387 278.5 L 387 271.5 Q 383.1 262.4 385 247.5 Q 386.2 244.8 387.5 247 L 393 243.5 L 395 235.5 L 395 227.5 L 393 219.5 L 389.5 216 L 386 215 L 385 211.5 L 384 182.5 L 382.5 181 L 381 181.5 L 381 189.5 L 380 190.5 L 380 212.5 L 379 215 L 372 219.5 Q 369 225.5 370 235.5 L 371 241.5 L 373.5 245 L 377.5 247 Q 378.8 244.8 380 247.5 L 380 265.5 Q 376.9 271.1 378 280 L 369.5 279 L 368.5 280 L 359.5 280 L 358 281.5 L 356 293.5 L 354 296.5 L 354 311 L 345.5 311 L 345 313.5 L 344 319.5 L 345.5 319 Q 356.3 320.3 361.5 316 L 362.5 319 L 364 318.5 Q 365.3 324.6 362.5 324 L 360.5 323 L 355.5 324 L 354.5 323 L 344.5 323 L 343 321.5 L 343 311.5 L 345 299.5 L 345 277.5 L 347 263.5 L 347 244.5 L 349 232.5 L 349 217.5 L 351 209.5 L 351 199.5 L 353 191.5 L 355 169.5 L 363 127.5 L 372 104.5 L 376 98 L 378.5 97 Z " /><path fill="rgb(153,102,102)" stroke="rgb(153,102,102)" stroke-width="0" opacity="1" d="M 382.5 286 L 384 287.5 L 384 297.5 L 382 298.5 L 381 287.5 L 382.5 286 Z " /><path fill="rgb(153,102,102)" stroke="rgb(153,102,102)" stroke-width="0" opacity="1" d="M 420.5 312 L 421 320.5 L 420 323 L 401 324 L 400 319.5 L 402.5 317 Q 404 320.5 405.5 318 L 418.5 320 L 420 318.5 L 420.5 312 Z " /><path fill="rgb(153,102,102)" stroke="rgb(153,102,102)" stroke-width="0" opacity="1" d="M 381.5 354 Q 384.3 355.3 382 356.5 L 381.5 360 L 381.5 354 Z " /><path fill="rgb(153,102,102)" stroke="rgb(153,102,102)" stroke-width="0" opacity="1" d="M 343 408 L 372.5 408 L 374 409.5 L 373.5 412 L 371.5 412 L 345.5 412 L 344.5 411 L 342.5 414 L 342 412.5 L 343 408 Z " /><path fill="rgb(153,102,102)" stroke="rgb(153,102,102)" stroke-width="0" opacity="1" d="M 377 408 L 388 408 L 388 417.5 Q 384.9 422.9 386 432.5 L 383.5 435 L 383 433 Q 380.3 434.1 381 431.5 L 379 429.5 L 377 408 Z M 378 412 L 379 421 Q 381 424 383 420 L 386 421 L 387 417 L 387 412 L 378 412 Z " /><path fill="rgb(153,102,102)" stroke="rgb(153,102,102)" stroke-width="0" opacity="1" d="M 391 408 L 420.5 408 L 422 409.5 L 421.5 412 L 419.5 412 L 393.5 412 L 392.5 411 L 391 411.5 L 391 408 Z " /><path fill="rgb(153,102,102)" stroke="rgb(153,102,102)" stroke-width="0" opacity="1" d="M 390.5 415 L 391 420 L 419.5 420 L 420 421.5 L 422 421.5 L 421 445.5 L 420 446.5 L 419 487.5 L 418 488.5 L 418 507.5 L 417 508.5 L 416 536.5 L 414 546.5 L 412 576.5 L 402 633.5 L 393 659.5 L 387.5 666 L 380.5 668 L 373 662.5 L 362 632.5 L 353 580.5 L 351 552.5 L 349 544.5 L 348 517.5 L 347 516.5 L 345 459.5 L 343 446.5 L 343 420.5 L 345.5 420 L 373.5 420 L 374 418.5 L 375 418.5 L 379 449 L 383 446.5 L 383.5 445 L 384 447 L 386 446.5 L 386 434.5 L 389 428.5 L 390.5 415 Z M 370 452 L 368 457 L 368 482 L 366 490 L 366 511 L 369 522 Q 368 525 371 524 L 373 513 L 375 510 L 375 485 L 373 476 L 373 467 L 370 452 Z M 394 467 L 392 471 L 392 503 L 394 512 L 394 520 L 396 525 Q 397 534 394 539 L 394 553 L 396 555 Q 398 551 397 543 L 399 540 L 399 531 L 403 522 L 403 513 L 405 510 L 406 503 Q 407 493 404 488 L 401 489 L 401 472 Q 397 473 398 478 L 394 467 Z M 382 533 L 380 536 L 380 562 L 378 565 L 378 585 L 380 588 Q 378 596 382 601 L 385 595 L 385 578 L 387 570 L 387 555 L 388 554 L 388 543 L 385 549 L 384 561 L 383 536 L 382 533 Z " /><path fill="rgb(153,102,153)" stroke="rgb(153,102,153)" stroke-width="0" opacity="1" d="M 380.5 86 Q 389.6 86.4 393 92.5 L 404 127.5 L 413 183.5 L 417 232.5 L 418 233.5 L 422 317.5 L 421 317.5 L 419 274.5 L 418 273.5 L 418 254.5 L 416 240.5 L 416 224.5 L 414 214.5 L 412 185.5 L 410 179.5 L 408 159.5 L 402 133.5 L 402 128.5 L 396 110.5 L 388.5 97 Q 387 99.5 385.5 96 L 378.5 95 L 374 98.5 L 363 125.5 L 353 181.5 L 351 207.5 L 349 215.5 L 348 240.5 L 347 241.5 L 345 293.5 L 344 294.5 L 344 309.5 L 342.5 321 L 342 308.5 L 343 307.5 L 343 287.5 L 344 286.5 L 344 268.5 L 345 267.5 L 347 224.5 L 348 223.5 L 348 213.5 L 351 194.5 L 351 185.5 L 353 177.5 L 353 169.5 L 361 124.5 Q 365.2 117.2 366 106.5 L 373.5 90 L 380.5 86 Z " /><path fill="rgb(153,102,153)" stroke="rgb(153,102,153)" stroke-width="0" opacity="1" d="M 381 183 Q 383.7 181.9 383 184.5 L 384 185.5 L 384 201.5 L 385 202.5 L 385 204.5 L 385 214.5 L 387.5 217 L 393 219.5 L 394 239.5 L 390.5 245 L 387.5 246 Q 386.2 243.8 385 246.5 Q 382.9 267.1 388.5 280 L 394.5 279 L 395.5 280 L 404.5 280 L 407 282.5 Q 406.5 292 411 296.5 L 411 304.5 L 410 304.5 L 410 298.5 Q 405.3 294.3 405 287 L 396.5 284 L 387 284 L 384 265 Q 381.3 263.9 382 266.5 L 380 271.5 L 377.5 289 L 376 284 Q 367.6 283 363.5 287 L 361.5 286 L 355 298.5 L 355 314 L 360 312.5 L 361.5 301 L 363 314 L 366 315.5 L 368 320.5 L 367 320.5 L 364.5 317 Q 363 319.5 361.5 316 L 359.5 318 Q 354.1 319.9 355 316.5 L 354 315.5 L 354 297.5 L 357 291.5 L 358 282.5 L 360.5 280 L 363.5 281 L 364.5 280 L 375.5 280 L 378 281 L 380 266.5 L 380 246.5 Q 379 244 374.5 245 L 372 242.5 L 371 239.5 L 371 223.5 L 373 218 L 380 216 L 381 183 Z M 381 219 L 381 221 Q 379 224 373 222 L 372 225 L 372 239 L 373 241 L 379 240 L 380 242 L 381 257 L 383 259 Q 386 255 384 246 L 387 240 L 392 241 L 393 238 Q 394 227 392 222 L 386 221 L 383 221 Q 384 218 381 219 Z " /><path fill="rgb(153,102,153)" stroke="rgb(153,102,153)" stroke-width="0" opacity="1" d="M 382.5 280 Q 385 281 384 285.5 L 381 285.5 Q 380 281 382.5 280 Z " /><path fill="rgb(153,102,153)" stroke="rgb(153,102,153)" stroke-width="0" opacity="1" d="M 384.5 289 L 385 294.5 L 384 294.5 L 384.5 289 Z " /><path fill="rgb(153,102,153)" stroke="rgb(153,102,153)" stroke-width="0" opacity="1" d="M 377.5 293 L 379 309.5 L 378 309.5 L 377.5 293 Z " /><path fill="rgb(153,102,153)" stroke="rgb(153,102,153)" stroke-width="0" opacity="1" d="M 381.5 298 L 382.5 300 L 384 299.5 L 384 307.5 L 382 308 L 381.5 298 Z " /><path fill="rgb(153,102,153)" stroke="rgb(153,102,153)" stroke-width="0" opacity="1" d="M 387.5 299 L 388 319.5 L 387 319.5 L 386 304.5 L 387.5 299 Z " /><path fill="rgb(153,102,153)" stroke="rgb(153,102,153)" stroke-width="0" opacity="1" d="M 410.5 307 L 411 315.5 L 410 318 L 404.5 317 Q 403 319.5 401.5 316 L 399 317.5 L 398.5 319 L 398 317.5 L 400.5 314 L 410 315 L 410.5 307 Z " /><path fill="rgb(153,102,153)" stroke="rgb(153,102,153)" stroke-width="0" opacity="1" d="M 376.5 309 Q 379.5 312 378 319.5 L 376.5 322 L 376.5 309 Z " /><path fill="rgb(153,102,153)" stroke="rgb(153,102,153)" stroke-width="0" opacity="1" d="M 341.5 408 L 343 421 L 341 420.5 L 341.5 408 Z " /><path fill="rgb(153,102,153)" stroke="rgb(153,102,153)" stroke-width="0" opacity="1" d="M 389.5 408 L 390 417.5 L 389 417.5 L 389.5 408 Z " /><path fill="rgb(153,102,153)" stroke="rgb(153,102,153)" stroke-width="0" opacity="1" d="M 422.5 408 L 423 427.5 L 422 427.5 L 422.5 408 Z " /><path fill="rgb(153,102,153)" stroke="rgb(153,102,153)" stroke-width="0" opacity="1" d="M 374.5 409 L 375.5 413 L 376.5 411 L 377 420 Q 374 421.3 375 417.5 L 374 416.5 L 374.5 409 Z " /><path fill="rgb(153,102,153)" stroke="rgb(153,102,153)" stroke-width="0" opacity="1" d="M 342.5 438 L 343 450.5 L 342 450.5 L 342.5 438 Z " /><path fill="rgb(153,102,153)" stroke="rgb(153,102,153)" stroke-width="0" opacity="1" d="M 421.5 446 L 422 457.5 L 421 458.5 L 421 481.5 L 420 482.5 L 418 530.5 L 417 531.5 L 417 541.5 L 416 542.5 L 416 552.5 L 415 553.5 L 412 589.5 L 407 614.5 L 407 621.5 L 404 631.5 L 404 636.5 L 401 643.5 L 400 652.5 Q 395.4 657.9 395 667.5 L 390.5 674 L 387.5 676 Q 385.6 679.6 380.5 680 L 376 674 L 372 671.5 L 369 666.5 L 368 659.5 L 364 651.5 L 364 647.5 L 360 635.5 L 360 629.5 L 357 619.5 L 357 613.5 L 353 594.5 L 348 539.5 L 347 538.5 L 347 527.5 L 346 526.5 L 344 475.5 L 343 474.5 L 343 452.5 L 344 452.5 L 347 521.5 L 348 522.5 L 349 547.5 L 351 556.5 L 353 583.5 L 362 634.5 Q 366 639.5 366 648.5 L 374.5 666 L 379.5 669 L 384.5 669 L 392 664.5 L 402 635.5 L 412 578.5 L 412 569.5 L 414 561.5 L 414 550.5 L 416 540.5 L 417 514.5 L 418 513.5 L 420 452.5 L 421.5 446 Z " /><path fill="rgb(153,102,153)" stroke="rgb(153,102,153)" stroke-width="0" opacity="1" d="M 369.5 455 L 373 467.5 L 373 477.5 L 375 487.5 L 375 507.5 L 371 522 Q 368 523.3 369 519.5 Q 364.4 508.6 366 491.5 L 367.5 484 L 368 494.5 L 367 495.5 L 367 504.5 L 369 513 Q 371.7 514.1 371 511.5 Q 376.3 505.3 374 491.5 L 371 468 L 369 468.5 L 369 481.5 L 368 481.5 L 368 460.5 L 369.5 455 Z " /><path fill="rgb(153,102,153)" stroke="rgb(153,102,153)" stroke-width="0" opacity="1" d="M 393.5 469 L 397.5 481 L 399 474 L 401 474.5 L 401 490.5 L 403.5 489 L 405 490.5 L 405 507.5 L 403 511.5 L 402 524.5 L 399.5 528 L 399 522.5 L 402 518.5 L 404 494.5 L 403 494.5 L 399.5 504 L 399 496.5 L 400 495.5 L 400 479.5 L 399 479.5 L 397.5 489 L 393.5 475 L 392.5 481 L 392 472.5 L 393.5 469 Z " /><path fill="rgb(153,102,153)" stroke="rgb(153,102,153)" stroke-width="0" opacity="1" d="M 392.5 489 L 395.5 512 L 397.5 509 L 398 520.5 L 397 521.5 L 397 536.5 L 398 536.5 L 398.5 530 L 399 538.5 L 397 541.5 L 395.5 553 Q 392.7 548.9 394 540.5 Q 397.5 534 396 522.5 L 394 517.5 L 394 509.5 L 392 499.5 L 392.5 489 Z " /><path fill="rgb(153,102,153)" stroke="rgb(153,102,153)" stroke-width="0" opacity="1" d="M 381.5 533 L 383 536.5 L 383 551.5 L 382 551.5 L 381.5 540 L 380.5 552 L 380 537.5 L 381.5 533 Z " /><path fill="rgb(153,102,153)" stroke="rgb(153,102,153)" stroke-width="0" opacity="1" d="M 385 549 L 387 549.5 L 387 567.5 L 385.5 573 L 383 562.5 L 385 549 Z M 386 555 L 385 564 L 386 564 L 386 555 Z " /><path fill="rgb(153,102,153)" stroke="rgb(153,102,153)" stroke-width="0" opacity="1" d="M 379.5 562 L 380 564.5 L 378.5 570 L 378 565.5 L 379.5 562 Z " /><path fill="rgb(153,102,153)" stroke="rgb(153,102,153)" stroke-width="0" opacity="1" d="M 378.5 579 L 381.5 594 L 383 592.5 L 384.5 580 L 385 591.5 L 383 600 Q 379.7 601.3 381 596.5 L 380 595.5 L 380 587.5 L 378 583.5 L 378.5 579 Z " /><path fill="rgb(153,191,101)" stroke="rgb(153,191,101)" stroke-width="0" opacity="1" d="M 378.5 95 L 385.5 96 L 387.5 98 Q 389.3 95.3 391 99.5 L 393 105.5 L 392 105.5 L 386.5 98 L 378.5 97 L 376 98 L 372.5 104 L 373 102.5 L 376.5 96 L 378.5 95 Z " /><path fill="rgb(153,191,101)" stroke="rgb(153,191,101)" stroke-width="0" opacity="1" d="M 371.5 105 L 372 106.5 L 367.5 116 L 367 113.5 L 371.5 105 Z " /><path fill="rgb(153,191,101)" stroke="rgb(153,191,101)" stroke-width="0" opacity="1" d="M 365.5 121 L 366 122.5 L 363.5 127 L 363 125.5 L 365.5 121 Z " /><path fill="rgb(153,191,101)" stroke="rgb(153,191,101)" stroke-width="0" opacity="1" d="M 381 181 L 384 182.5 L 383.5 185 L 383 183 Q 380 184 381 181 Z " /><path fill="rgb(153,191,101)" stroke="rgb(153,191,101)" stroke-width="0" opacity="1" d="M 380.5 190 L 381 200.5 L 380 200.5 L 380.5 190 Z " /><path fill="rgb(153,191,101)" stroke="rgb(153,191,101)" stroke-width="0" opacity="1" d="M 384.5 192 L 385 201.5 L 384 201.5 L 384.5 192 Z " /><path fill="rgb(153,191,101)" stroke="rgb(153,191,101)" stroke-width="0" opacity="1" d="M 385.5 212 L 386 215 L 391 217.5 L 389.5 218 L 385 214.5 L 385.5 212 Z " /><path fill="rgb(153,191,101)" stroke="rgb(153,191,101)" stroke-width="0" opacity="1" d="M 379.5 213 L 380 216 L 374.5 218 L 374.5 217 L 379 215 L 379.5 213 Z " /><path fill="rgb(153,191,101)" stroke="rgb(153,191,101)" stroke-width="0" opacity="1" d="M 370.5 226 L 371 235.5 L 370 235.5 L 370.5 226 Z " /><path fill="rgb(153,191,101)" stroke="rgb(153,191,101)" stroke-width="0" opacity="1" d="M 394.5 227 L 395 235.5 L 394 235.5 L 394.5 227 Z " /><path fill="rgb(153,191,101)" stroke="rgb(153,191,101)" stroke-width="0" opacity="1" d="M 348.5 228 L 349 232.5 L 348 232.5 L 348.5 228 Z " /><path fill="rgb(153,191,101)" stroke="rgb(153,191,101)" stroke-width="0" opacity="1" d="M 392.5 243 L 390.5 246 L 387.5 247 L 385 246.5 L 388.5 245 L 392.5 243 Z " /><path fill="rgb(153,191,101)" stroke="rgb(153,191,101)" stroke-width="0" opacity="1" d="M 375.5 245 L 380 246.5 L 376.5 246 L 375.5 245 Z " /><path fill="rgb(153,191,101)" stroke="rgb(153,191,101)" stroke-width="0" opacity="1" d="M 417.5 254 L 418 258.5 L 417 258.5 L 417.5 254 Z " /><path fill="rgb(153,191,101)" stroke="rgb(153,191,101)" stroke-width="0" opacity="1" d="M 346.5 258 L 347 263.5 L 346 263.5 L 346.5 258 Z " /><path fill="rgb(153,191,101)" stroke="rgb(153,191,101)" stroke-width="0" opacity="1" d="M 369.5 279 Q 375.6 277.9 378 280.5 L 376.5 281 L 369.5 280 L 369.5 279 Z " /><path fill="rgb(153,191,101)" stroke="rgb(153,191,101)" stroke-width="0" opacity="1" d="M 395.5 279 Q 403.7 277.9 407 280 L 406.5 282 Q 404.3 277.8 395.5 280 L 395.5 279 Z " /><path fill="rgb(153,191,101)" stroke="rgb(153,191,101)" stroke-width="0" opacity="1" d="M 382.5 285 L 383.5 287 L 381 286.5 L 382.5 285 Z " /><path fill="rgb(153,191,101)" stroke="rgb(153,191,101)" stroke-width="0" opacity="1" d="M 419.5 290 L 420 295.5 L 419 295.5 L 419.5 290 Z " /><path fill="rgb(153,191,101)" stroke="rgb(153,191,101)" stroke-width="0" opacity="1" d="M 344.5 294 L 345 299.5 L 344 299.5 L 344.5 294 Z " /><path fill="rgb(153,191,101)" stroke="rgb(153,191,101)" stroke-width="0" opacity="1" d="M 365.5 314 L 368 318.5 L 367 321 Q 370.3 319.7 369 324.5 L 370.5 324 Q 374.9 325.5 374 322.5 L 375.5 318 L 376.5 322 L 377.5 320 Q 376.8 329.2 382.5 332 L 386 329.5 L 387.5 320 L 389.5 326 L 396 323 L 397.5 318 L 399 318.5 L 398 315.5 L 400 314.5 L 399 316.5 L 400.5 316 L 402 317.5 L 400 321.5 L 401 324 L 420 323 L 421.5 318 Q 424.8 319.8 423 326.5 L 426.5 331 L 429.5 325 L 431 342.5 L 436 349.5 L 434.5 352 L 429 343 L 426.5 342 L 423 348.5 L 423 381.5 L 426.5 389 Q 437.5 391.5 440 385.5 L 441 373.5 L 439 370.5 L 438 360.5 L 439 360.5 L 443 381.5 Q 438.4 390.6 440 405 L 436 406 L 433.5 401 L 425.5 401 L 425 402.5 L 421.5 409 L 420.5 408 L 391 408 L 390.5 415 L 389.5 408 L 389 417.5 L 390 420.5 L 388 432.5 L 386 434.5 L 386 447 Q 383.3 448.1 384 445.5 L 383 445.5 L 380.5 449 Q 377.1 449.9 379 444.5 L 375 420 Q 378 421.3 377 417.5 L 378 417.5 L 379 429.5 L 381 433 Q 383.7 431.9 383 434.5 L 386 432.5 L 388 408 L 377.5 408 L 377 411 L 375 411 Q 376.1 408.3 373.5 409 L 372.5 408 L 343 408 L 342.5 412 L 338.5 400 L 336 401 L 334.5 407 L 334 401.5 L 335 400.5 L 335 389.5 L 334 388.5 L 334 379.5 L 335 379.5 Q 333.8 386.8 337.5 389 L 339 387.5 L 341 380.5 L 341 349.5 L 338.5 342 L 336 343 L 334.5 352 L 334 343.5 L 335 342.5 L 335 328.5 L 334 324.5 L 336 325.5 L 337 331 L 340 329.5 L 342.5 321 L 344.5 323 L 359.5 324 L 361.5 323 L 364 324 L 364.5 317 L 367 318.5 L 365.5 314 Z M 373 333 L 371 335 Q 369 344 373 348 L 374 346 L 375 349 L 376 343 L 375 334 L 373 333 Z M 393 333 L 391 336 L 394 348 L 395 334 L 393 333 Z M 367 342 L 365 344 L 365 357 L 368 356 Q 370 346 367 342 Z M 379 343 L 377 347 L 377 364 L 378 365 L 379 383 L 382 382 L 385 384 L 386 383 L 387 365 L 388 364 L 388 347 L 387 346 Q 388 342 385 343 L 384 369 L 382 378 L 380 372 L 380 346 L 379 343 Z M 398 348 L 397 362 L 398 362 L 398 348 Z M 382 354 L 382 360 L 382 357 Q 384 355 382 354 Z M 392 372 L 391 379 L 392 379 L 392 372 Z M 377 382 L 376 394 L 377 394 L 377 382 Z M 389 388 L 388 394 L 389 394 L 389 388 Z M 395 391 L 394 397 L 395 397 L 395 391 Z M 378 396 L 379 407 L 380 402 Q 382 395 378 396 Z M 385 396 L 386 407 L 387 407 L 387 397 L 385 396 Z " /><path fill="rgb(153,191,101)" stroke="rgb(153,191,101)" stroke-width="0" opacity="1" d="M 334.5 361 L 335 369.5 L 334 369.5 L 334.5 361 Z " /><path fill="rgb(153,191,101)" stroke="rgb(153,191,101)" stroke-width="0" opacity="1" d="M 341 421 L 343 421.5 L 343 437.5 L 342 437.5 L 341 421 Z " /><path fill="rgb(153,191,101)" stroke="rgb(153,191,101)" stroke-width="0" opacity="1" d="M 421.5 426 L 423 428.5 L 423 444.5 Q 419.7 446.2 420.5 452 L 420 446.5 L 421 445.5 L 421.5 426 Z " /><path fill="rgb(153,191,101)" stroke="rgb(153,191,101)" stroke-width="0" opacity="1" d="M 343.5 447 L 344 452 L 342 451.5 L 343.5 447 Z " /><path fill="rgb(153,191,101)" stroke="rgb(153,191,101)" stroke-width="0" opacity="1" d="M 344.5 459 L 345 464.5 L 344 464.5 L 344.5 459 Z " /><path fill="rgb(153,191,101)" stroke="rgb(153,191,101)" stroke-width="0" opacity="1" d="M 400.5 472 L 401 474 Q 398.3 472.9 399 475.5 L 398 475.5 L 400.5 472 Z " /><path fill="rgb(153,191,101)" stroke="rgb(153,191,101)" stroke-width="0" opacity="1" d="M 396.5 476 L 398 480.5 L 397 480.5 L 396.5 476 Z " /><path fill="rgb(153,191,101)" stroke="rgb(153,191,101)" stroke-width="0" opacity="1" d="M 345.5 480 L 346 487.5 L 345 487.5 L 345.5 480 Z " /><path fill="rgb(153,191,101)" stroke="rgb(153,191,101)" stroke-width="0" opacity="1" d="M 403.5 488 L 404.5 490 L 403.5 489 L 401 490.5 L 402.5 489 L 403.5 488 Z " /><path fill="rgb(153,191,101)" stroke="rgb(153,191,101)" stroke-width="0" opacity="1" d="M 405.5 494 L 406 502.5 L 405 502.5 L 405.5 494 Z " /><path fill="rgb(153,191,101)" stroke="rgb(153,191,101)" stroke-width="0" opacity="1" d="M 346.5 499 L 347 504.5 L 346 504.5 L 346.5 499 Z " /><path fill="rgb(153,191,101)" stroke="rgb(153,191,101)" stroke-width="0" opacity="1" d="M 417.5 508 L 418 513.5 L 417 513.5 L 417.5 508 Z " /><path fill="rgb(153,191,101)" stroke="rgb(153,191,101)" stroke-width="0" opacity="1" d="M 347.5 517 L 348 521.5 L 347 521.5 L 347.5 517 Z " /><path fill="rgb(153,191,101)" stroke="rgb(153,191,101)" stroke-width="0" opacity="1" d="M 371.5 520 L 372 521.5 L 371 524 Q 368 525 369 522 Q 371.8 523 371.5 520 Z " /><path fill="rgb(153,191,101)" stroke="rgb(153,191,101)" stroke-width="0" opacity="1" d="M 416.5 521 L 417 526.5 L 416 526.5 L 416.5 521 Z " /><path fill="rgb(153,191,101)" stroke="rgb(153,191,101)" stroke-width="0" opacity="1" d="M 387.5 543 L 388 553.5 L 387 553.5 Q 388.9 548.1 385.5 549 L 387 546.5 L 387.5 543 Z " /><path fill="rgb(153,191,101)" stroke="rgb(153,191,101)" stroke-width="0" opacity="1" d="M 394.5 550 L 396 554.5 L 395 554.5 L 394.5 550 Z " /><path fill="rgb(153,191,101)" stroke="rgb(153,191,101)" stroke-width="0" opacity="1" d="M 399.5 640 L 400 641.5 L 395.5 654 L 395 651.5 L 399.5 640 Z " /><path fill="rgb(153,191,101)" stroke="rgb(153,191,101)" stroke-width="0" opacity="1" d="M 366.5 646 L 369 652.5 L 368 652.5 L 366.5 646 Z " /><path fill="rgb(153,191,101)" stroke="rgb(153,191,101)" stroke-width="0" opacity="1" d="M 369.5 654 L 374.5 664 L 382.5 668 Q 389 666.5 392 661.5 L 394.5 655 L 395 656.5 L 390.5 666 L 384.5 669 L 379.5 669 L 373 664.5 L 369.5 654 Z " /><path fill="rgb(222,227,217)" stroke="rgb(222,227,217)" stroke-width="0" opacity="1" d="M 373 33 L 392 33 L 392 43.5 L 394.5 49 L 398 48 L 399 63 L 402 63.5 L 402 73.5 L 403 78 L 406 78.5 L 406 88.5 L 407 93 L 410 93.5 L 410 102.5 L 412 108.5 L 412 117.5 L 414 123.5 L 414 132.5 L 416 138.5 L 416 147.5 L 418 153.5 L 420 177.5 L 422 182.5 L 422 208.5 L 424 212.5 L 424 237.5 L 426 242.5 L 426 267.5 L 428 272.5 L 428 320.5 L 429 326.5 L 426.5 331 L 423 326.5 Q 424.7 320.3 422 318.5 L 418 233.5 L 417 232.5 L 415 201.5 L 414 200.5 L 411 168.5 L 409 161.5 L 409 154.5 L 399 108.5 L 396 103.5 L 393 92.5 L 388.5 88 L 380.5 86 L 372 91.5 L 361 124.5 L 353 169.5 L 353 177.5 L 351 185.5 L 351 194.5 L 348 213.5 L 348 223.5 L 347 224.5 L 347 236.5 L 346 237.5 L 342 322.5 L 338.5 331 L 337 329.5 L 335 324.5 L 335 302.5 L 337 297.5 L 337 257.5 L 339 252.5 L 339 227.5 L 341 222.5 L 341 197.5 Q 344.4 192.4 343 182.5 L 345 178.5 L 345 153.5 L 347 147.5 L 347 138.5 L 349 132.5 L 351 108.5 L 352.5 107 L 354 107.5 L 357 78 Q 361.5 79.8 360 74.5 L 361 73.5 L 361 63 Q 367.7 65.6 366 59.5 L 367 58.5 L 367 48 L 370.5 49 Q 374.7 43.5 373 33 Z " /><path fill="rgb(222,227,217)" stroke="rgb(222,227,217)" stroke-width="0" opacity="1" d="M 381 219 Q 384 218 383 221 L 385.5 221 L 392 222 Q 394.2 227.2 393 237.5 L 392 241 L 386.5 240 L 384 245.5 Q 386.1 255.1 382.5 259 L 381 256.5 L 380 241.5 L 378.5 240 L 373 241 L 372 238.5 L 372 224.5 L 373 222 Q 379.1 223.8 381 220.5 L 381 219 Z " /><path fill="rgb(222,227,217)" stroke="rgb(222,227,217)" stroke-width="0" opacity="1" d="M 382 265 Q 386 263.6 384 270.5 L 387 284 L 396.5 284 L 405 287 Q 405.3 294.3 410 298.5 L 411 306.5 L 410 315 L 399.5 314 L 396 323 L 389.5 326 L 388 320.5 L 387.5 299 Q 385 304.5 386 313.5 L 387 314.5 L 387 324.5 L 386 329.5 L 383.5 332 L 379 328.5 L 378 326.5 L 378 310.5 L 379 303.5 L 377.5 293 L 376 317.5 L 374 324 L 369.5 325 L 368 317.5 L 365.5 314 Q 360.9 315.4 363 309.5 L 361.5 301 L 360 312.5 L 358.5 314 L 355 313.5 L 355 298.5 L 361.5 286 L 363.5 287 Q 367.6 283 376 284 L 377.5 289 L 380 271.5 L 382 265 Z M 383 280 L 381 282 L 381 305 L 382 306 Q 381 309 384 308 L 384 296 L 385 295 L 384 282 L 383 280 Z " /><path fill="rgb(222,227,217)" stroke="rgb(222,227,217)" stroke-width="0" opacity="1" d="M 338.5 342 L 341 349.5 L 341 380.5 L 339 389 L 336 387.5 L 334 378.5 L 335 373.5 L 334 370.5 L 335 369.5 L 335 361.5 L 334 360.5 L 334 352.5 L 336 343 L 338.5 342 Z " /><path fill="rgb(222,227,217)" stroke="rgb(222,227,217)" stroke-width="0" opacity="1" d="M 366.5 342 Q 370.1 345.9 368 355.5 L 365 357 L 365 343.5 L 366.5 342 Z " /><path fill="rgb(222,227,217)" stroke="rgb(222,227,217)" stroke-width="0" opacity="1" d="M 426.5 342 L 429 343 L 438 359.5 L 439 370.5 L 441 373.5 L 441 382.5 L 436.5 389 L 426.5 389 L 425 387.5 L 423 381.5 L 423 348.5 L 426.5 342 Z " /><path fill="rgb(222,227,217)" stroke="rgb(222,227,217)" stroke-width="0" opacity="1" d="M 378.5 343 L 380 345.5 L 380 371.5 L 381.5 378 L 384 368.5 L 385 343 Q 388 341.8 387 345.5 L 388 346.5 L 388 363.5 L 387 364.5 L 386 382.5 L 384.5 384 L 381.5 382 L 379 383 L 378 364.5 L 377 363.5 L 377 346.5 L 378.5 343 Z " /><path fill="rgb(222,227,217)" stroke="rgb(222,227,217)" stroke-width="0" opacity="1" d="M 397.5 348 L 398 361.5 L 397 361.5 L 397.5 348 Z " /><path fill="rgb(222,227,217)" stroke="rgb(222,227,217)" stroke-width="0" opacity="1" d="M 391.5 372 L 392 378.5 L 391 378.5 L 391.5 372 Z " /><path fill="rgb(222,227,217)" stroke="rgb(222,227,217)" stroke-width="0" opacity="1" d="M 338.5 400 L 341 406.5 L 341 430.5 L 342 431.5 L 342 451.5 L 343 452.5 L 343 474.5 L 344 475.5 L 346 526.5 L 347 527.5 L 347 538.5 L 348 539.5 L 353 594.5 L 364 651.5 Q 368.6 656.9 369 666.5 L 374.5 674 L 376 675.5 L 380.5 680 L 382.5 680 L 389 676 Q 387.9 673.3 390.5 674 L 395 667.5 Q 395.4 657.9 400 652.5 L 401 643.5 L 404 636.5 L 404 631.5 L 407 621.5 L 407 614.5 L 412 589.5 L 415 553.5 L 416 552.5 L 416 542.5 L 417 541.5 L 417 531.5 L 418 530.5 L 418 517.5 L 419 516.5 L 421 458.5 L 423 444.5 L 423 406.5 L 425 401 L 433.5 401 L 435 402.5 L 437 406.5 Q 436.3 412.8 432 415.5 L 431 420.5 L 430 437.5 L 429 438.5 L 429 457.5 L 430 458.5 L 430 473.5 L 428 478.5 L 428 503.5 L 426 508.5 L 426 533.5 L 424 538.5 L 424 563.5 L 422 567.5 L 422 592.5 L 420 598.5 L 420 607.5 L 418 613.5 L 418 622.5 L 416 628.5 L 416 637.5 L 414 643.5 L 414 652.5 L 412 658.5 L 410 683 Q 405.5 681.3 407 686.5 L 406 687.5 L 406 697.5 L 404 702.5 L 404 713 L 398.5 712 Q 394.3 717.5 396 728 L 390.5 727 L 388 732.5 Q 389.7 740.7 386.5 744 Q 383.3 740.7 385 732.5 L 382.5 727 L 381.5 728 L 369 728 Q 370.7 717.5 366.5 712 L 363 713 L 362 698 L 359 697.5 L 359 688.5 L 357 682.5 Q 357.8 673.3 356 668 L 353 667.5 L 353 658.5 L 351 652.5 L 351 643.5 L 349 637.5 L 349 628.5 L 347 622.5 L 347 613.5 L 343 592.5 L 343 568.5 L 341 563.5 Q 342.4 553.6 339 548.5 L 339 523.5 L 337 518.5 L 337 459.5 L 336 458.5 L 336 413.5 L 335 412.5 L 335 403.5 L 336 401 L 338.5 400 Z " /><path fill="rgb(222,227,217)" stroke="rgb(222,227,217)" stroke-width="0" opacity="1" d="M 369 468 Q 372.3 466.7 371 471.5 L 373 479.5 L 374 505.5 L 371 513 Q 368 514.3 369 510.5 Q 365.9 505.1 367 495.5 L 368 494.5 L 369 468 Z " /><path fill="rgb(222,227,217)" stroke="rgb(222,227,217)" stroke-width="0" opacity="1" d="M 393.5 475 L 397.5 489 L 399.5 479 L 400 495.5 Q 397.2 497.2 399 503.5 L 401 502.5 L 403.5 494 L 404 504.5 Q 400.3 508.8 402 518.5 L 399 522.5 L 397.5 537 L 397 521.5 L 398 520.5 L 398 509.5 L 396 510.5 L 395.5 512 L 392 481.5 L 393.5 475 Z " /><path fill="rgb(222,227,217)" stroke="rgb(222,227,217)" stroke-width="0" opacity="1" d="M 381.5 540 L 383 564.5 L 385 567.5 L 385 579.5 L 383 592.5 L 381.5 594 Q 381.4 584.6 378 578.5 L 378 570.5 L 380 564.5 L 381.5 540 Z " /><path fill="rgb(222,227,217)" stroke="rgb(222,227,217)" stroke-width="0" opacity="1" d="M 385.5 555 L 386 563.5 L 385 563.5 L 385.5 555 Z " /></svg>