<svg width="2048" height="2048" viewBox="0 0 512 512" version="1.1" xmlns="http://www.w3.org/2000/svg"  style="background:transparent"><path fill="rgb(54,54,54)" stroke="rgb(54,54,54)" stroke-width="0" opacity="0.5372549019607843" d="M 0 0 L 512 0 L 512 512 L 0 512 L 0 0 Z M 226 34 L 201 40 L 186 47 L 173 50 Q 161 58 146 63 L 125 79 L 119 87 L 115 90 L 109 98 L 107 99 L 99 108 L 94 111 L 90 116 L 83 121 L 71 134 L 63 146 Q 59 160 51 170 Q 48 185 41 196 L 34 225 L 36 238 L 36 249 L 37 250 L 37 264 L 35 276 L 36 286 L 43 310 L 44 319 L 50 342 L 57 353 L 64 369 L 79 388 L 88 394 L 90 398 L 98 404 L 99 407 L 108 414 L 111 420 L 116 423 L 121 431 L 134 442 L 146 450 Q 160 454 170 462 Q 185 465 196 472 L 226 479 L 247 476 L 267 476 L 286 479 L 296 478 L 303 475 L 318 472 Q 329 465 344 462 Q 353 454 368 450 L 389 434 L 394 427 L 399 423 L 404 416 L 407 414 L 414 406 L 417 404 L 423 397 L 430 392 L 449 369 Q 454 354 462 344 Q 465 329 472 318 L 479 289 L 476 267 L 476 247 L 479 228 L 478 218 Q 473 208 472 196 Q 465 185 462 170 Q 454 160 450 146 L 442 134 L 424 115 L 422 111 L 403 91 L 399 89 L 380 71 L 368 63 Q 353 59 344 51 Q 330 49 321 42 L 288 34 L 276 36 L 265 36 L 264 37 L 250 37 L 249 36 L 238 36 L 226 34 Z " /><path fill="rgb(153,102,102)" stroke="rgb(153,102,102)" stroke-width="0" opacity="1" d="M 229.5 35 L 248.5 36 L 249.5 37 L 263.5 37 L 264.5 36 L 283.5 35 L 286 35.5 L 287.5 37 L 293.5 40 L 295.5 40 L 305.5 41 L 309.5 39 L 322 43.5 Q 320.5 47.9 323.5 47 Q 329.5 51 340.5 50 L 348 53 L 350.5 58 L 355.5 60 L 357.5 59 Q 365.8 60.2 370 65.5 L 372.5 69 L 380.5 72 L 422 110.5 L 424 114.5 L 442 133.5 L 442 137.5 L 444.5 142 L 446 141.5 L 447.5 143 L 452 149.5 L 454 154.5 L 454 159.5 L 456.5 163 L 460 165.5 L 463 172.5 L 464 181.5 L 464 185.5 L 466 191 L 471 192.5 L 474 203.5 Q 470.4 204.9 471 210.5 L 476 233 Q 479.3 231.7 478 236.5 Q 474.3 248.8 476 266.5 L 478 282 Q 475.3 280.9 476 283.5 L 473 291.5 L 472 300.5 L 472 302.5 Q 471.2 307.8 474 309.5 L 470 323 L 466 325 L 466 331.5 L 462 343.5 Q 453.7 354.2 449 368.5 L 429.5 392 L 423 396.5 L 416.5 404 L 414 405.5 L 406.5 414 L 404 415.5 L 398.5 423 L 394 426.5 L 388.5 434 L 380.5 441 L 371 445.5 L 367.5 450 L 358.5 454 L 353.5 454 L 350 456.5 L 347.5 460 L 340.5 463 Q 332.5 462 328.5 465 Q 327 462.5 325.5 466 Q 320.3 464.3 322 469.5 L 309.5 474 L 305.5 472 Q 293.2 471.7 285.5 476 L 283.5 476 L 281.5 478 L 276.5 478 Q 264.2 474.3 246.5 476 L 245.5 477 L 229 478 L 228.5 476 L 227.5 478 L 227 476 L 219.5 473 L 217.5 473 L 212.5 472 L 209.5 473 L 202.5 474 L 190 470 L 189 466 L 181.5 464 L 175.5 464 L 162 458 Q 163.1 455.3 160.5 456 Q 148.9 452.8 141 447 L 139.5 444 L 133.5 442 L 121 430.5 L 115.5 423 L 111 419.5 L 107.5 414 L 99 406.5 L 97.5 404 L 90 397.5 L 87.5 394 L 79 387.5 L 64 368.5 Q 58.6 361.2 57 351 Q 54.3 352.1 55 349.5 L 49 337.5 L 49 333.5 L 47 322 Q 44 323.3 45 319.5 L 39 296.5 L 40 292.5 L 38 289.5 L 35 275.5 L 37 263.5 L 37 249.5 L 34 227.5 L 35 225 Q 38 226.3 37 222.5 L 41 210.5 L 39 203.5 L 42 192.5 L 45 187 Q 49 188.4 47 181.5 L 51 169.5 L 57 160.5 Q 60 148.8 66 141 Q 68.7 142.1 68 139.5 L 71 133.5 L 82.5 121 L 90 115.5 L 93.5 111 L 99 108 L 106.5 99 L 109 97.5 L 114.5 90 L 119 86.5 L 124.5 79 L 132.5 72 Q 139.6 71.1 143 66.5 L 145.5 63 Q 160.7 58.2 172.5 50 L 185.5 47 L 200.5 40 L 209.5 39 L 211.5 40 L 224.5 38 L 229.5 35 Z M 240 118 L 233 119 L 223 127 L 213 129 L 209 136 Q 206 140 200 140 L 198 146 L 194 148 Q 188 151 187 159 L 180 166 L 177 181 L 168 193 Q 167 200 170 204 L 174 206 Q 182 207 187 203 L 199 204 L 206 207 L 227 201 L 239 201 L 251 204 L 258 204 L 264 209 L 261 223 L 260 271 L 259 272 L 259 289 L 261 302 L 260 307 L 257 308 L 255 304 L 255 302 L 253 293 L 242 286 L 244 281 L 243 271 Q 240 266 233 265 L 233 247 L 232 245 Q 229 240 222 240 L 221 238 L 222 225 Q 221 220 213 221 L 210 225 Q 209 233 212 239 Q 213 243 218 242 Q 222 247 220 258 L 216 259 L 213 257 L 212 250 L 202 247 L 201 234 L 194 230 L 190 223 Q 189 219 185 220 L 181 225 L 182 230 L 189 233 L 193 249 L 197 250 L 200 262 L 207 264 L 209 267 L 211 276 L 216 279 L 218 282 L 220 292 Q 222 296 228 296 L 231 310 L 237 313 L 240 322 L 246 325 Q 251 327 249 337 L 247 339 L 226 339 L 223 340 L 219 345 L 219 390 L 220 392 Q 225 396 234 396 L 243 404 L 250 405 L 274 405 L 275 404 L 287 404 L 292 402 L 295 397 L 297 388 L 297 366 L 294 353 Q 290 349 284 348 L 274 339 L 275 328 L 281 324 Q 285 322 285 316 L 290 312 L 293 309 L 294 299 Q 295 295 300 295 L 304 290 L 305 282 L 309 279 Q 314 276 314 267 Q 316 263 322 263 L 324 260 L 326 250 L 330 249 L 332 246 L 334 234 L 340 231 L 342 228 L 341 223 L 336 220 Q 331 222 331 229 L 325 231 L 321 236 L 321 247 L 311 250 L 310 257 L 308 259 L 303 258 Q 302 248 304 243 L 308 242 L 311 239 L 313 232 L 312 223 L 308 220 L 304 221 L 300 227 L 302 238 L 294 242 L 290 247 L 290 265 L 283 268 L 279 275 L 281 288 L 279 289 L 274 288 L 273 286 L 273 236 L 272 235 L 272 221 L 269 209 L 277 204 L 292 204 L 293 203 L 294 204 L 308 204 L 315 207 L 332 203 Q 340 202 344 206 L 351 206 L 355 200 L 354 190 L 346 180 L 344 168 L 341 164 L 340 162 Q 335 159 334 153 L 330 148 L 328 148 L 324 142 L 317 138 L 313 132 L 309 128 L 300 126 L 292 119 L 287 118 L 240 118 Z " /><path fill="rgb(153,153,102)" stroke="rgb(153,153,102)" stroke-width="0" opacity="1" d="M 225.5 34 L 229 35.5 L 220.5 39 L 210.5 40 L 208 38.5 L 217.5 35 Q 223.8 36.8 225.5 34 Z " /><path fill="rgb(153,153,102)" stroke="rgb(153,153,102)" stroke-width="0" opacity="1" d="M 285.5 34 L 295.5 35 L 309 39.5 L 305.5 41 Q 297.8 42.2 294.5 39 L 292.5 39 L 286 37 L 285.5 35 L 283 36.5 L 285.5 34 Z " /><path fill="rgb(153,153,102)" stroke="rgb(153,153,102)" stroke-width="0" opacity="1" d="M 322.5 43 L 338 49.5 L 332.5 50 L 322 47 L 322.5 43 Z " /><path fill="rgb(153,153,102)" stroke="rgb(153,153,102)" stroke-width="0" opacity="1" d="M 348.5 54 L 356 58 Q 357.1 60.7 354.5 60 L 349 56.5 L 348.5 54 Z " /><path fill="rgb(153,153,102)" stroke="rgb(153,153,102)" stroke-width="0" opacity="1" d="M 141.5 66 L 143 66.5 L 135.5 71 L 136.5 69 L 141.5 66 Z " /><path fill="rgb(153,153,102)" stroke="rgb(153,153,102)" stroke-width="0" opacity="1" d="M 370.5 66 L 378 70.5 L 376.5 71 Q 371.5 69.5 370.5 66 Z " /><path fill="rgb(153,153,102)" stroke="rgb(153,153,102)" stroke-width="0" opacity="1" d="M 239.5 118 L 286.5 118 L 291.5 119 L 299.5 126 L 308.5 128 L 313 131.5 L 316.5 138 L 324 141.5 L 327.5 148 L 329.5 148 L 334 152.5 Q 334.9 159.1 339.5 162 L 341 163.5 L 344 167.5 L 346 179.5 L 354 189.5 L 355 199.5 L 350.5 206 L 343.5 206 Q 339.8 202.2 331.5 203 L 314.5 207 L 307.5 204 L 293.5 204 L 292.5 203 L 291.5 204 L 276.5 204 L 269 208.5 L 272 220.5 L 272 234.5 L 273 235.5 L 273 285.5 L 274 288 L 278.5 289 L 281 288 L 279 274.5 L 282.5 268 L 290 265 L 290 246.5 L 293.5 242 L 302 237.5 L 300 226.5 L 303.5 221 L 307.5 220 L 312 222.5 L 313 231.5 L 311 238.5 L 307.5 242 L 304 243 Q 301.9 247.8 303 257.5 L 307.5 259 L 310 256.5 L 311 250 L 321 247 L 321 235.5 L 324.5 231 L 331 228.5 Q 331.1 222.1 335.5 220 L 341 222.5 L 342 227.5 L 339.5 231 L 334 233.5 L 332 245.5 L 330 249 L 326 250 L 324 259.5 L 321.5 263 Q 315.9 262.9 314 266.5 Q 314.2 275.7 308.5 279 L 305 281.5 L 304 289.5 L 299.5 295 Q 294.5 294.5 294 298.5 L 293 308.5 L 289.5 312 L 285 315.5 Q 284.9 321.9 280.5 324 L 275 327.5 L 274 338.5 L 283.5 348 Q 290.4 348.6 294 352.5 L 297 365.5 L 297 387.5 L 295 396.5 L 292 402 L 286.5 404 L 274.5 404 L 273.5 405 L 249.5 405 L 242.5 404 L 233.5 396 Q 224.7 395.8 220 391.5 L 219 389.5 L 219 344.5 L 222.5 340 L 225.5 339 L 246.5 339 L 249 336.5 Q 250.5 327.5 245.5 325 L 240 321.5 L 237 313 L 231 309.5 L 228 296 Q 222.4 295.9 220 291.5 L 218 281.5 L 215.5 279 L 211 275.5 L 209 266.5 L 206.5 264 L 200 261.5 L 197 250 L 193 249 L 189 233 L 182 229.5 L 181 224.5 L 184.5 220 Q 189.3 219.3 190 222.5 L 193.5 230 L 201 233.5 L 202 247 L 212 250 L 213 256.5 L 215.5 259 L 220 257.5 Q 221.6 246.5 218 242 Q 213.3 242.8 212 238.5 Q 209.2 233.3 210 224.5 L 212.5 221 Q 220.5 219.5 222 224.5 L 221 237.5 L 222 240 Q 228.7 240 232 244.5 L 233 246.5 L 233 265 Q 239.8 265.5 243 270.5 L 244 280.5 L 242 285.5 L 253 292.5 L 255 301.5 L 255 303.5 L 256.5 308 L 260 307 L 261 301.5 L 259 288.5 L 259 271.5 L 260 270.5 L 261 222.5 L 264 208.5 L 257.5 204 L 250.5 204 L 238.5 201 L 226.5 201 L 205.5 207 L 198.5 204 L 186.5 203 Q 182.4 206.9 173.5 206 L 170 203.5 Q 167.1 199.9 168 192.5 L 177 180.5 L 180 165.5 L 187 158.5 Q 188.1 151.1 193.5 148 L 198 145.5 L 200 140 Q 206.1 139.7 209 135.5 L 212.5 129 L 222.5 127 L 232.5 119 L 239.5 118 Z M 247 121 L 246 122 L 238 122 L 227 130 Q 219 129 215 132 L 211 138 L 202 143 L 199 150 L 196 151 Q 191 154 190 162 L 182 172 L 179 187 L 176 189 L 171 195 Q 170 201 175 202 Q 182 203 185 199 L 191 199 L 202 202 L 211 202 Q 221 200 227 194 L 240 194 Q 248 200 260 202 Q 276 204 286 199 Q 301 198 311 202 Q 323 203 331 199 L 339 199 Q 341 203 349 202 L 352 198 L 351 193 L 347 189 L 343 185 L 342 174 L 333 162 L 331 155 L 324 150 L 321 143 L 315 140 L 311 135 Q 307 129 297 130 L 286 122 Q 279 124 278 121 L 247 121 Z M 206 252 L 203 255 L 204 259 Q 203 262 209 260 L 210 256 L 206 252 Z M 317 252 L 313 257 L 314 259 Q 313 262 319 260 Q 321 259 320 255 L 317 252 Z M 216 264 Q 213 265 214 270 L 218 271 Q 221 270 220 266 L 216 264 Z M 305 264 L 303 269 L 308 271 Q 310 270 309 266 L 305 264 Z M 236 271 L 231 276 L 231 279 L 226 282 Q 222 283 223 289 Q 225 293 232 291 L 234 286 L 238 283 L 241 278 L 239 272 L 236 271 Z M 267 271 L 265 274 L 265 290 L 268 307 Q 265 314 256 314 L 250 306 L 251 301 L 250 296 Q 248 291 239 293 L 235 299 L 235 305 L 241 314 L 243 321 L 249 323 L 251 326 L 253 338 L 248 342 L 229 342 L 226 343 L 222 348 L 222 387 L 223 389 Q 227 393 237 393 Q 242 400 252 402 L 275 401 L 287 398 L 292 391 L 293 385 L 292 380 L 293 373 L 292 357 L 288 352 Q 280 352 277 348 L 270 339 L 272 327 L 278 322 L 281 319 L 284 310 L 288 306 L 287 296 L 284 293 Q 273 294 269 291 L 268 289 L 268 273 L 267 271 Z M 286 272 L 283 275 L 284 282 L 287 283 L 290 290 Q 291 293 298 291 Q 301 290 300 285 L 295 281 L 290 274 Q 291 270 286 272 Z " /><path fill="rgb(153,153,102)" stroke="rgb(153,153,102)" stroke-width="0" opacity="1" d="M 442.5 135 L 447 142.5 L 446 142.5 L 445.5 141 L 444 141.5 L 442.5 135 Z " /><path fill="rgb(153,153,102)" stroke="rgb(153,153,102)" stroke-width="0" opacity="1" d="M 454.5 157 L 458 162.5 L 456.5 163 Q 452.9 161.1 454.5 157 Z " /><path fill="rgb(153,153,102)" stroke="rgb(153,153,102)" stroke-width="0" opacity="1" d="M 463.5 175 L 470 190.5 L 466 191 L 464 185.5 L 464 181.5 L 463.5 175 Z " /><path fill="rgb(153,153,102)" stroke="rgb(153,153,102)" stroke-width="0" opacity="1" d="M 473.5 204 L 478 217.5 L 479 227.5 L 478 233 Q 475 234.3 476 230.5 L 473 221.5 L 471 207.5 L 473.5 204 Z " /><path fill="rgb(153,153,102)" stroke="rgb(153,153,102)" stroke-width="0" opacity="1" d="M 39.5 205 L 41 210.5 L 37 225 Q 34.3 223.9 35 226.5 L 34 226.5 Q 34.6 213.6 39.5 205 Z " /><path fill="rgb(153,153,102)" stroke="rgb(153,153,102)" stroke-width="0" opacity="1" d="M 36.5 282 L 40 295.5 L 39 295.5 L 36 285.5 L 36.5 282 Z " /><path fill="rgb(153,153,102)" stroke="rgb(153,153,102)" stroke-width="0" opacity="1" d="M 476 282 Q 479 280.8 478 284.5 L 479 288.5 L 473.5 309 L 472 302.5 L 472 300.5 L 473 291.5 L 476 282 Z " /><path fill="rgb(153,153,102)" stroke="rgb(153,153,102)" stroke-width="0" opacity="1" d="M 45.5 322 Q 48.5 321.1 47 325.5 L 46 325.5 L 45.5 322 Z " /><path fill="rgb(153,153,102)" stroke="rgb(153,153,102)" stroke-width="0" opacity="1" d="M 468.5 323 L 469 324.5 L 466.5 329 L 466 325 Q 468.8 326 468.5 323 Z " /><path fill="rgb(153,153,102)" stroke="rgb(153,153,102)" stroke-width="0" opacity="1" d="M 48.5 331 L 50 334.5 L 48 335 L 48.5 331 Z " /><path fill="rgb(153,153,102)" stroke="rgb(153,153,102)" stroke-width="0" opacity="1" d="M 376.5 442 L 378 442.5 L 371.5 447 L 371 445.5 L 376.5 442 Z " /><path fill="rgb(153,153,102)" stroke="rgb(153,153,102)" stroke-width="0" opacity="1" d="M 353.5 454 L 356 454.5 L 350.5 458 L 350 456.5 L 353.5 454 Z " /><path fill="rgb(153,153,102)" stroke="rgb(153,153,102)" stroke-width="0" opacity="1" d="M 333.5 463 L 338 463.5 L 322.5 470 L 322 466 Q 326.3 467 327.5 464 L 329.5 464 L 333.5 463 Z " /><path fill="rgb(153,153,102)" stroke="rgb(153,153,102)" stroke-width="0" opacity="1" d="M 178.5 464 L 189 466 L 190 468.5 L 188.5 469 L 178.5 465 L 178.5 464 Z " /><path fill="rgb(153,153,102)" stroke="rgb(153,153,102)" stroke-width="0" opacity="1" d="M 210.5 472 L 212.5 472 L 218.5 474 L 220.5 474 L 227 476 L 227.5 478 L 228.5 476 L 229 477.5 L 225.5 479 Q 223.8 476.3 217.5 478 L 205 473.5 L 210.5 472 Z " /><path fill="rgb(153,153,102)" stroke="rgb(153,153,102)" stroke-width="0" opacity="1" d="M 299.5 472 L 306.5 473 Q 307.8 470.8 309 473.5 L 295.5 478 L 285.5 479 L 282 478 Q 280.9 475.3 283.5 476 L 286.5 475 L 299.5 472 Z " /><path fill="rgb(218,217,216)" stroke="rgb(218,217,216)" stroke-width="0" opacity="1" d="M 246.5 121 L 277.5 121 Q 279.3 123.7 285.5 122 L 296.5 130 Q 307 129 311 134.5 L 314.5 140 L 321 143 L 324 150 L 331 154.5 L 333 161.5 L 342 173.5 L 343 184.5 L 346.5 189 L 351 192.5 L 352 197.5 L 348.5 202 Q 341.1 202.9 338.5 199 L 330.5 199 Q 323.4 203.4 310.5 202 Q 301 197.5 285.5 199 Q 275.8 203.8 259.5 202 Q 247.6 199.9 239.5 194 L 226.5 194 Q 220.5 200 210.5 202 L 201.5 202 L 190.5 199 L 184.5 199 Q 181.9 202.9 174.5 202 Q 170.3 200.7 171 194.5 L 175.5 189 L 179 186.5 L 182 171.5 L 190 161.5 Q 190.5 154 195.5 151 L 199 150 L 202 143 L 211 137.5 L 214.5 132 Q 218.8 129.3 226.5 130 L 237.5 122 L 245.5 122 L 246.5 121 Z " /><path fill="rgb(218,217,216)" stroke="rgb(218,217,216)" stroke-width="0" opacity="1" d="M 205.5 252 L 210 255.5 L 208.5 260 Q 203.1 261.9 204 258.5 L 203 254.5 L 205.5 252 Z " /><path fill="rgb(218,217,216)" stroke="rgb(218,217,216)" stroke-width="0" opacity="1" d="M 316.5 252 L 320 254.5 Q 321 259 318.5 260 Q 313.1 261.9 314 258.5 L 313 256.5 L 316.5 252 Z " /><path fill="rgb(218,217,216)" stroke="rgb(218,217,216)" stroke-width="0" opacity="1" d="M 215.5 264 L 220 265.5 Q 220.8 270.3 217.5 271 L 214 269.5 Q 213 265 215.5 264 Z " /><path fill="rgb(218,217,216)" stroke="rgb(218,217,216)" stroke-width="0" opacity="1" d="M 304.5 264 L 309 265.5 Q 310 270 307.5 271 L 303 268.5 L 304.5 264 Z " /><path fill="rgb(218,217,216)" stroke="rgb(218,217,216)" stroke-width="0" opacity="1" d="M 235.5 271 L 239 272 L 241 277.5 L 237.5 283 L 234 285.5 L 231.5 291 Q 224.5 292.5 223 288.5 Q 222 283 225.5 282 L 231 278.5 L 231 275.5 L 235.5 271 Z " /><path fill="rgb(218,217,216)" stroke="rgb(218,217,216)" stroke-width="0" opacity="1" d="M 266.5 271 L 268 272.5 L 268 288.5 L 269 291 Q 273.2 294.4 283.5 293 L 287 295.5 L 288 305.5 L 284 309.5 L 281 318.5 L 277.5 322 L 272 326.5 L 270 338.5 L 276.5 348 Q 280.3 351.7 287.5 352 L 292 356.5 L 293 372.5 L 292 379.5 L 293 384.5 L 292 390.5 L 286.5 398 L 274.5 401 L 251.5 402 Q 241.7 399.8 236.5 393 Q 227.3 393.3 223 388.5 L 222 386.5 L 222 347.5 L 225.5 343 L 228.5 342 L 247.5 342 L 253 337.5 L 251 325.5 L 248.5 323 L 243 321 L 241 313.5 L 235 304.5 L 235 298.5 L 238.5 293 Q 247.8 290.8 250 295.5 L 251 300.5 L 250 305.5 L 255.5 314 Q 265.3 313.8 268 306.5 L 265 289.5 L 265 273.5 L 266.5 271 Z " /><path fill="rgb(218,217,216)" stroke="rgb(218,217,216)" stroke-width="0" opacity="1" d="M 285.5 272 Q 290.9 270.1 290 273.5 L 294.5 281 L 300 284.5 Q 301 290 297.5 291 Q 291.5 292.5 290 289.5 L 286.5 283 L 284 281.5 L 283 274.5 L 285.5 272 Z " /></svg>