<svg width="2048" height="2048" viewBox="0 0 512 512" version="1.1" xmlns="http://www.w3.org/2000/svg"  style="background:transparent"><path fill="rgb(12,206,51)" stroke="rgb(12,206,51)" stroke-width="0" opacity="1" d="M 36.5 12 Q 42.8 10.2 44.5 13 L 477.5 13 L 478.5 12 L 486.5 12 L 491 15.5 L 494.5 21 L 500 24.5 L 501 32.5 L 500 33.5 L 500 145.5 L 499 148 L 492 152.5 L 490 158 L 487.5 159 L 34.5 159 L 29.5 151 L 23 147.5 L 22 139.5 L 23 138.5 L 23 32.5 L 22 27.5 L 25.5 20 L 30 16.5 L 31.5 15 L 36.5 12 Z M 422 56 L 418 59 L 419 61 L 426 61 L 426 57 L 422 56 Z M 199 57 L 198 60 L 203 61 L 204 59 L 199 57 Z M 212 111 L 212 114 L 215 113 L 212 111 Z M 162 118 L 161 123 L 162 123 L 162 118 Z " /><path fill="rgb(153,102,102)" stroke="rgb(153,102,102)" stroke-width="0" opacity="1" d="M 421.5 56 L 426 57 L 426 61 L 419 61 L 418 58.5 L 421.5 56 Z " /><path fill="rgb(153,102,102)" stroke="rgb(153,102,102)" stroke-width="0" opacity="1" d="M 199 57 L 204 58.5 L 202.5 61 L 198 59.5 L 199 57 Z " /><path fill="rgb(153,102,102)" stroke="rgb(153,102,102)" stroke-width="0" opacity="1" d="M 212 111 L 215 112.5 L 212 114 L 212 111 Z " /><path fill="rgb(153,102,102)" stroke="rgb(153,102,102)" stroke-width="0" opacity="1" d="M 161.5 118 L 162 122.5 L 161 122.5 L 161.5 118 Z " /><path fill="rgb(153,102,102)" stroke="rgb(153,102,102)" stroke-width="0" opacity="1" d="M 192.5 193 L 214.5 193 L 218 194 Q 218 199.8 221.5 203 Q 227.3 202.2 229 205.5 Q 230 210 227.5 211 L 222 213.5 L 218.5 219 Q 214 220 213 217.5 L 210.5 210 L 203 209 L 199.5 202 L 194.5 201 Q 190.2 201.8 191 207.5 L 199 213.5 L 200 220.5 L 201.5 222 L 209 224.5 Q 210.3 229.8 207.5 231 Q 201 232 200 227.5 L 197.5 223 Q 186.5 225.5 184 219.5 L 183 216.5 L 183 200.5 L 187.5 194 L 192.5 193 Z M 216 204 L 214 208 L 219 207 Q 220 202 216 204 Z " /><path fill="rgb(153,102,102)" stroke="rgb(153,102,102)" stroke-width="0" opacity="1" d="M 275.5 193 L 280 194 Q 280.9 199.9 285.5 203 L 293.5 204 Q 299 210.8 308 213 L 314.5 223 Q 319.5 222.5 320 226.5 L 323.5 232 L 329 234 L 330 241.5 L 325.5 248 L 318.5 250 L 314 247.5 L 310.5 241 L 304 237.5 L 299.5 230 Q 290.5 229 287 222.5 L 278.5 207 L 276 205.5 Q 272.1 202.9 273 195.5 L 275.5 193 Z " /><path fill="rgb(153,102,102)" stroke="rgb(153,102,102)" stroke-width="0" opacity="1" d="M 233.5 215 Q 238 214 239 216.5 L 240 223.5 L 238 230 L 231 235.5 L 228.5 239 L 221 242.5 L 217.5 249 L 215.5 250 L 210 246.5 Q 209.2 237.7 213.5 234 Q 223.7 233.2 228 226.5 L 233.5 215 Z " /><path fill="rgb(153,102,102)" stroke="rgb(153,102,102)" stroke-width="0" opacity="1" d="M 276.5 233 L 280 234 L 281 236.5 L 277.5 241 Q 270.8 243.3 273 236.5 L 274 234 L 276.5 233 Z " /><path fill="rgb(153,102,102)" stroke="rgb(153,102,102)" stroke-width="0" opacity="1" d="M 235.5 242 Q 244.6 240.9 248 245.5 L 246.5 249 L 238.5 250 L 234 246.5 L 235.5 242 Z " /><path fill="rgb(153,102,102)" stroke="rgb(153,102,102)" stroke-width="0" opacity="1" d="M 266.5 243 Q 273.3 240.8 271 247.5 L 266.5 251 L 264 250 Q 262.8 244.5 266.5 243 Z " /><path fill="rgb(153,102,102)" stroke="rgb(153,102,102)" stroke-width="0" opacity="1" d="M 257.5 253 L 261 255.5 L 260 260 L 254.5 261 L 253 256.5 L 257.5 253 Z " /><path fill="rgb(153,102,102)" stroke="rgb(153,102,102)" stroke-width="0" opacity="1" d="M 247.5 263 Q 253.6 261.2 251 268.5 L 248.5 272 L 244 274 L 239.5 281 L 232 284.5 Q 231.9 290.9 227.5 293 L 223 296.5 L 220 302.5 L 200.5 322 L 194 325.5 L 190.5 330 L 186.5 331 L 183 328.5 Q 181.1 323.1 184.5 324 L 192 319.5 L 195.5 313 L 202 309.5 L 205.5 304 L 212 299.5 L 216.5 293 L 222 289.5 L 224 284 L 232 282 L 234 274 L 242 271 L 244 264 L 247.5 263 Z " /><path fill="rgb(153,102,102)" stroke="rgb(153,102,102)" stroke-width="0" opacity="1" d="M 266.5 272 Q 276.6 270.9 280 276.5 L 283.5 282 L 290 286.5 L 292 291 L 301 296.5 L 306.5 303 Q 313.8 304.8 316.5 311 L 325.5 314 L 328 316.5 L 329 321.5 L 323.5 329 L 316.5 330 L 314 329 L 311 322 L 303 316.5 Q 303.5 311.5 299.5 311 L 294 307.5 L 288.5 300 L 284 297.5 L 278.5 290 L 273 285.5 L 269.5 281 L 264 277.5 Q 263.3 272.8 266.5 272 Z " /><path fill="rgb(153,102,153)" stroke="rgb(153,102,153)" stroke-width="0" opacity="1" d="M 188.5 190 L 216.5 190 L 222 194.5 Q 221.5 199.5 225.5 200 L 231 202 L 234 210 L 242 213.5 Q 244.8 217.7 243 226.5 L 238 236.5 L 251 243.5 L 253.5 250 Q 258.8 251.3 260 248.5 Q 260.5 243 264.5 241 L 270 237.5 L 273.5 231 L 284 230 L 281 216.5 L 276.5 211 L 272 207.5 L 269 199.5 L 269 194.5 L 271 191 L 279.5 190 L 282 191 L 285 198 L 299.5 202 L 311 211.5 L 314 219 L 322 223.5 L 326.5 230 L 332 233.5 L 333 243.5 Q 332.6 249.1 328.5 251 L 317.5 253 L 311 248.5 L 307.5 243 L 301 238.5 L 297.5 233 L 285 231 Q 285.4 241.1 278.5 245 L 275 247.5 L 273 252 L 265 256.5 L 261.5 265 Q 256 265.5 254 269.5 L 245.5 281 L 234 290.5 L 223 303.5 L 220 310 L 212 315.5 L 207.5 322 L 204.5 323 L 196.5 331 L 186.5 334 L 180 330.5 Q 178.2 322.7 182.5 321 L 189 317.5 L 192.5 311 L 199 307.5 L 203.5 301 L 209 299 L 213.5 291 L 220 286.5 Q 219.5 281.5 223.5 281 L 230 276.5 L 233.5 271 L 240 266.5 L 242.5 262 L 249 260 L 250 253.5 Q 248 250 240.5 252 L 236.5 253 L 232 249.5 L 228.5 243 L 223 244 L 220 252 L 213.5 253 Q 206.9 252.1 204 247.5 Q 202.8 240.8 206 238.5 L 205 236 L 197.5 236 L 183 226.5 L 180 219.5 L 180 196.5 L 184.5 191 L 188.5 190 Z M 193 193 L 188 194 L 183 201 L 183 217 L 184 220 Q 187 226 198 223 L 199 227 Q 200 232 208 231 L 210 228 L 209 225 Q 208 221 203 222 L 200 220 L 199 214 L 191 208 Q 190 202 195 201 L 200 202 L 203 209 L 211 210 L 213 218 Q 214 220 219 219 L 222 214 L 228 211 Q 230 210 229 206 Q 227 202 222 203 Q 218 200 218 194 L 215 193 L 193 193 Z M 276 193 L 273 194 Q 272 202 276 206 L 279 207 Q 284 211 285 221 Q 290 229 301 231 L 304 238 L 309 240 L 314 248 L 319 250 L 326 248 L 330 242 L 329 234 L 324 232 L 320 227 Q 320 222 315 223 L 309 215 L 301 210 L 298 206 L 295 204 L 285 202 L 280 194 L 276 193 Z M 206 214 L 204 218 Q 209 220 208 216 L 206 214 Z M 234 215 L 228 227 Q 224 233 214 234 Q 209 238 210 247 L 217 250 L 220 245 Q 224 239 231 238 L 232 235 L 238 230 L 240 225 L 239 217 Q 238 214 234 215 Z M 217 222 L 216 223 Q 211 222 213 229 Q 214 231 219 230 Q 222 229 222 225 L 217 222 Z M 277 233 L 274 234 L 273 237 Q 272 241 275 242 L 278 241 L 281 237 L 280 234 L 277 233 Z M 236 242 L 234 244 L 235 249 L 238 250 L 247 249 L 248 246 Q 245 241 236 242 Z M 267 243 L 263 248 L 266 251 L 269 250 L 272 245 Q 271 242 267 243 Z M 257 253 L 254 254 L 253 257 Q 252 261 255 262 L 259 261 L 261 256 L 257 253 Z M 247 263 L 245 264 L 242 270 L 236 273 Q 232 275 232 281 L 224 284 L 222 290 L 215 294 L 212 300 Q 212 304 207 303 L 202 310 L 196 313 L 191 321 L 185 324 Q 181 323 183 329 L 187 331 L 191 330 L 194 326 L 201 322 L 221 302 L 224 297 L 226 295 Q 231 293 232 286 L 239 282 Q 243 279 244 274 L 249 272 L 252 265 Q 251 262 247 263 Z " /><path fill="rgb(153,102,153)" stroke="rgb(153,102,153)" stroke-width="0" opacity="1" d="M 215.5 204 Q 220.3 202.3 219 206.5 L 214 208 L 215.5 204 Z " /><path fill="rgb(153,102,153)" stroke="rgb(153,102,153)" stroke-width="0" opacity="1" d="M 264.5 267 L 279.5 271 L 282 273.5 L 286.5 280 L 292 283.5 L 295.5 289 Q 302.7 290.8 306 296.5 L 307.5 298 L 320 306.5 L 321.5 308 L 332 314.5 Q 333.7 326.1 330 331 Q 325.1 333.9 315.5 333 L 310 328.5 L 307.5 324 L 302 320.5 L 298.5 314 L 291 308.5 L 287.5 303 L 281 298.5 L 277.5 293 L 271 288.5 L 267.5 283 L 261 278.5 Q 259 269 264.5 267 Z M 267 272 Q 263 273 264 278 L 270 281 L 274 288 L 279 290 L 284 298 L 289 300 L 294 308 L 300 311 Q 304 312 303 317 Q 306 321 311 322 L 314 329 L 317 330 L 324 329 L 329 322 L 328 317 L 326 314 L 317 311 Q 314 305 307 303 L 301 297 L 296 293 L 290 287 L 284 282 L 280 277 Q 277 271 267 272 Z " /><path fill="rgb(153,102,153)" stroke="rgb(153,102,153)" stroke-width="0" opacity="1" d="M 160.5 346 L 161.5 348 L 162.5 347 L 166 350.5 Q 167.1 353.8 164.5 353 Q 160.1 350.7 160.5 346 Z " /><path fill="rgb(211,206,206)" stroke="rgb(211,206,206)" stroke-width="0" opacity="1" d="M 166.5 170 L 346.5 170 L 352 173.5 L 353 175.5 L 353 347.5 L 349.5 352 L 347.5 353 L 166 353 Q 166.8 348.3 162.5 347 L 161 347.5 L 160 345.5 L 160 175.5 L 163.5 171 L 166.5 170 Z M 189 190 L 185 191 L 180 197 L 180 220 L 183 227 L 198 236 L 205 236 L 206 239 Q 203 241 204 248 Q 207 252 214 253 L 220 252 L 223 244 L 229 243 L 232 250 L 237 253 L 241 252 Q 248 250 250 254 L 249 260 L 243 262 L 240 267 L 234 271 L 230 277 L 224 281 Q 219 282 220 287 L 214 291 L 209 299 L 204 301 L 199 308 L 193 311 L 189 318 L 183 321 Q 178 323 180 331 L 187 334 L 197 331 L 205 323 L 208 322 L 212 316 L 220 310 L 223 304 L 234 291 L 246 281 L 254 270 Q 256 265 262 265 L 265 257 L 273 252 L 275 248 L 279 245 Q 285 241 285 231 L 298 233 L 301 239 L 308 243 L 311 249 L 318 253 L 329 251 Q 333 249 333 244 L 332 234 L 327 230 L 322 224 L 314 219 L 311 212 L 300 202 L 285 198 L 282 191 L 280 190 L 271 191 L 269 195 L 269 200 L 272 208 L 277 211 L 281 217 L 284 230 L 274 231 L 270 238 L 265 241 Q 260 243 260 249 Q 259 251 254 250 L 251 244 L 238 237 L 243 227 Q 245 218 242 214 L 234 210 L 231 202 L 226 200 Q 222 200 222 195 L 217 190 L 189 190 Z M 265 267 Q 259 269 261 279 L 268 283 L 271 289 L 278 293 L 281 299 L 288 303 L 291 309 L 299 314 L 302 321 L 308 324 L 310 329 L 316 333 Q 325 334 330 331 Q 334 326 332 315 L 322 308 L 320 307 L 308 298 L 306 297 Q 303 291 296 289 L 292 284 L 287 280 L 282 274 L 280 271 L 265 267 Z " /><path fill="rgb(211,206,206)" stroke="rgb(211,206,206)" stroke-width="0" opacity="1" d="M 205.5 214 L 208 215.5 Q 209.2 220.1 204 218 L 205.5 214 Z " /><path fill="rgb(211,206,206)" stroke="rgb(211,206,206)" stroke-width="0" opacity="1" d="M 216.5 222 L 222 224.5 Q 222.5 229.5 218.5 230 Q 214 231 213 228.5 Q 210.5 221.6 215.5 223 L 216.5 222 Z " /></svg>