<svg width="2048" height="2048" viewBox="0 0 512 512" version="1.1" xmlns="http://www.w3.org/2000/svg"  style="background:transparent"><path fill="rgb(0,102,255)" stroke="rgb(0,102,255)" stroke-width="0" opacity="1" d="M 247.5 70 L 266 70.5 L 259.5 72 L 254.5 71 L 249.5 72 L 247.5 71 L 245.5 72 L 245.5 71 L 247.5 70 Z " /><path fill="rgb(0,102,255)" stroke="rgb(0,102,255)" stroke-width="0" opacity="1" d="M 273.5 71 L 278 71.5 L 273.5 72 L 273.5 71 Z " /><path fill="rgb(0,153,255)" stroke="rgb(0,153,255)" stroke-width="0" opacity="1" d="M 235.5 71 L 246.5 72 L 248.5 72 L 250.5 71 L 254.5 71 L 259.5 72 L 260.5 71 L 270.5 71 L 273.5 72 Q 282.3 71.2 287.5 74 L 293.5 78 Q 302.3 78.7 307.5 83 L 311 86.5 L 312.5 88 L 322 94.5 L 324.5 99 L 331 103.5 L 335 112 L 340 115.5 L 344 127.5 L 351 140.5 L 353 153.5 L 353 369.5 L 350 385.5 L 344 395.5 L 340 407.5 L 336.5 411 L 335 412.5 L 328.5 422 L 324 424 L 319.5 431 L 311 435 L 307.5 440 L 279.5 452 L 272.5 453 L 240.5 453 L 227.5 450 L 219.5 445 L 208.5 442 L 202 436.5 L 200.5 435 L 191 428.5 L 189 424 L 182 419.5 L 178 411 L 173 407.5 L 169 395.5 L 163 385.5 L 160 369.5 L 160 153.5 L 162 140.5 L 169 127.5 L 173 115.5 L 176.5 112 L 178 110.5 L 184.5 101 L 190 97.5 L 193.5 92 L 202 88 L 205.5 83 L 235.5 71 Z M 255 99 L 231 103 Q 225 110 216 112 L 212 117 L 207 121 L 202 126 L 200 132 L 193 142 L 190 158 L 190 366 L 193 382 L 200 392 L 202 398 L 208 402 L 212 408 L 231 420 L 255 424 L 280 421 L 292 413 L 298 411 L 301 407 L 307 402 L 311 398 L 313 392 L 320 382 L 323 366 L 323 158 L 320 142 L 313 132 L 311 126 L 306 121 L 301 116 L 283 103 L 269 100 L 255 99 Z " /><path fill="rgb(0,153,255)" stroke="rgb(0,153,255)" stroke-width="0" opacity="1" d="M 253.5 159 Q 267.3 158.2 273 165.5 L 281 175.5 L 282 189.5 L 276.5 199 L 262.5 210 L 255.5 211 L 245.5 207 L 234 196.5 Q 229.4 190.7 231 178.5 L 233 173.5 L 243.5 162 L 253.5 159 Z " /><path fill="rgb(0,153,255)" stroke="rgb(0,153,255)" stroke-width="0" opacity="1" d="M 254.5 236 L 267.5 239 L 274 243.5 L 281 252.5 L 282 267.5 L 279 274 L 276 275.5 L 272.5 281 L 267.5 284 L 254.5 287 L 243.5 283 L 236 275.5 Q 228.7 270.3 231 255.5 Q 235.6 246.1 243.5 240 L 254.5 236 Z " /><path fill="rgb(0,153,255)" stroke="rgb(0,153,255)" stroke-width="0" opacity="1" d="M 255.5 312 L 267.5 316 L 279 326.5 Q 283.7 332.3 282 344.5 L 280 349.5 L 268.5 362 L 253.5 364 L 244.5 362 L 240 357.5 L 232 347.5 L 231 333.5 L 236.5 324 Q 243.1 315.1 255.5 312 Z " /><path fill="rgb(217,216,215)" stroke="rgb(217,216,215)" stroke-width="0" opacity="1" d="M 253.5 10 L 262.5 11 L 271 19.5 Q 272.1 26.9 277.5 30 L 281 32.5 Q 282.5 39 287.5 42 L 290 43.5 L 294 56.5 L 290.5 60 L 279.5 61 L 278.5 60 L 225.5 60 L 222 56.5 L 223 51.5 L 228 46.5 L 234 31 L 239 27.5 Q 242.3 16.3 251.5 11 L 253.5 10 Z " /></svg>