<svg width="2048" height="2048" viewBox="0 0 512 512" version="1.1" xmlns="http://www.w3.org/2000/svg"  style="background:transparent"><path fill="rgb(0,102,255)" stroke="rgb(0,102,255)" stroke-width="0" opacity="1" d="M 247.5 70 L 266 70.5 L 259.5 72 L 254.5 71 L 249.5 72 L 247.5 71 L 245.5 72 L 245.5 71 L 247.5 70 Z " /><path fill="rgb(0,102,255)" stroke="rgb(0,102,255)" stroke-width="0" opacity="1" d="M 273.5 71 L 278 71.5 L 273.5 72 L 273.5 71 Z " /><path fill="rgb(0,153,255)" stroke="rgb(0,153,255)" stroke-width="0" opacity="1" d="M 235.5 71 L 246.5 72 L 248.5 72 L 250.5 71 L 254.5 71 L 259.5 72 L 260.5 71 L 270.5 71 L 273.5 72 Q 282.3 71.2 287.5 74 L 293.5 78 Q 302.3 78.7 307.5 83 L 311 86.5 L 312.5 88 L 322 94.5 L 324.5 99 L 332 104.5 L 336 113.5 L 336 117.5 L 322.5 129 L 314.5 130 L 307.5 122 L 301 116.5 L 297.5 112 Q 287.7 109.7 282.5 103 L 275.5 101 L 254.5 99 L 230.5 103 L 212 115.5 L 207.5 121 L 202 125.5 L 200 131.5 L 193 141.5 L 191 149.5 Q 192.7 155.7 190 157.5 L 190 193.5 L 190 195.5 Q 190.2 205.7 184.5 210 L 173 216.5 L 170.5 220 L 164.5 221 L 162 220 L 160 214.5 L 160 153.5 L 162 140.5 L 169 127.5 L 173 115.5 L 176.5 112 L 178 110.5 L 184.5 101 L 190 97.5 L 193.5 92 L 202 88 L 205.5 83 L 235.5 71 Z " /><path fill="rgb(0,153,255)" stroke="rgb(0,153,255)" stroke-width="0" opacity="1" d="M 343.5 141 Q 349.3 140.2 351 143.5 L 353 149.5 L 353 373.5 L 349.5 381 L 343.5 382 Q 335.5 380 331.5 374 L 323.5 371 L 317.5 365 L 307.5 361 L 301.5 355 L 292.5 351 L 287.5 346 L 274.5 340 L 268.5 334 L 260.5 331 Q 254.2 323.3 243.5 320 L 237.5 314 L 227.5 310 L 219.5 303 L 211.5 300 L 206.5 295 L 194 289 Q 195.1 286.3 192.5 287 L 162 267.5 L 161 259.5 Q 161.5 254 165.5 252 L 175.5 248 L 180.5 243 L 189.5 239 Q 196 231.5 206.5 228 L 211.5 223 Q 222 220.5 227.5 213 L 237.5 209 L 243.5 203 Q 254.2 199.7 260.5 192 L 268.5 189 L 274.5 183 L 287.5 177 L 292.5 172 L 301.5 168 L 307.5 162 L 317.5 158 L 323.5 152 L 329.5 150 Q 334.6 143.6 343.5 141 Z M 319 186 L 305 194 L 297 201 L 287 205 Q 281 212 272 215 L 270 218 L 255 225 L 249 231 Q 238 233 233 241 L 225 244 L 219 250 L 207 255 L 204 259 L 205 267 L 217 272 L 225 279 L 233 282 L 241 289 L 249 292 L 255 298 L 267 303 L 287 318 L 297 322 L 306 330 L 319 337 L 321 336 L 327 328 L 326 321 L 326 203 L 327 202 Q 328 195 325 192 L 319 186 Z " /><path fill="rgb(0,153,255)" stroke="rgb(0,153,255)" stroke-width="0" opacity="1" d="M 278.5 236 Q 292.8 237.2 300 245.5 L 305 256.5 L 305 266.5 Q 302.9 275.9 296.5 281 Q 289.5 286.5 277.5 287 L 263 281 L 255 267.5 L 254 258.5 L 261 245.5 L 265.5 241 L 278.5 236 Z " /><path fill="rgb(0,153,255)" stroke="rgb(0,153,255)" stroke-width="0" opacity="1" d="M 164.5 302 Q 171.4 301.1 173 305.5 L 175.5 309 L 186 314 L 189 319.5 L 191 328.5 L 190 329.5 L 190 365.5 L 193 381.5 L 200 391.5 L 202 397.5 L 206.5 402 L 212 406.5 L 215.5 411 L 221.5 413 Q 225.7 418.8 233.5 421 L 258.5 424 L 282.5 420 L 301 407.5 L 305.5 402 L 311 397.5 L 313.5 394 L 320.5 393 L 336 405.5 L 336 409.5 L 332 418.5 L 328.5 422 L 324 424 L 319.5 431 L 311 435 L 307.5 440 L 279.5 452 L 272.5 453 L 240.5 453 L 227.5 450 L 219.5 445 L 208.5 442 L 202 436.5 L 200.5 435 L 191 428.5 L 189 424 L 182 419.5 L 178 411 L 173 407.5 L 169 395.5 L 163 385.5 L 161 377.5 Q 162.8 371.2 160 369.5 L 160 308.5 L 162 303 L 164.5 302 Z " /><path fill="rgb(217,216,215)" stroke="rgb(217,216,215)" stroke-width="0" opacity="1" d="M 253.5 10 L 262.5 11 L 271 19.5 Q 272.1 26.9 277.5 30 L 281 32.5 Q 282.5 39 287.5 42 L 290 43.5 L 294 56.5 L 290.5 60 L 279.5 61 L 278.5 60 L 225.5 60 L 222 56.5 L 223 51.5 L 228 46.5 L 234 31 L 239 27.5 Q 242.3 16.3 251.5 11 L 253.5 10 Z " /></svg>