<svg width="2048" height="2048" viewBox="0 0 512 512" version="1.1" xmlns="http://www.w3.org/2000/svg"  style="background:transparent"><path fill="rgb(0,102,255)" stroke="rgb(0,102,255)" stroke-width="0" opacity="1" d="M 235.5 70 L 289 70.5 L 235.5 71 L 235.5 70 Z " /><path fill="rgb(0,153,255)" stroke="rgb(0,153,255)" stroke-width="0" opacity="1" d="M 176.5 70 L 288.5 71 L 289.5 70 L 336.5 70 L 343 74.5 L 346.5 79 L 351 82.5 L 353 88.5 L 353 434.5 Q 352.1 441.1 347.5 444 L 343 447.5 L 339.5 452 L 336.5 453 L 176.5 453 L 170 448.5 L 166.5 444 L 162 440.5 L 160 434.5 L 160 88.5 Q 160.9 81.9 165.5 79 L 170 75.5 L 173.5 71 L 176.5 70 Z M 195 95 L 193 96 L 185 106 L 186 112 L 186 412 L 185 413 L 186 421 L 195 428 L 204 428 L 205 427 L 249 427 L 250 428 Q 259 430 263 426 L 268 420 L 268 104 L 267 102 L 259 95 L 250 95 L 249 96 L 205 96 L 204 95 L 195 95 Z M 307 95 L 297 97 L 293 103 L 293 421 L 295 425 L 299 427 Q 305 425 307 428 L 319 428 L 321 427 L 328 418 L 327 412 L 327 112 L 328 111 L 327 103 L 319 95 L 307 95 Z " /><path fill="rgb(217,216,215)" stroke="rgb(217,216,215)" stroke-width="0" opacity="1" d="M 253.5 10 L 262.5 11 L 271 19.5 Q 272.1 26.9 277.5 30 L 281 32.5 Q 282.5 39 287.5 42 L 290 43.5 L 294 56.5 L 289.5 60 L 226.5 60 L 222 56.5 L 223 51.5 L 228 46.5 L 234 31 L 239 27.5 Q 242.3 16.3 251.5 11 L 253.5 10 Z " /></svg>