<svg width="2048" height="2048" viewBox="0 0 512 512" version="1.1" xmlns="http://www.w3.org/2000/svg"  style="background:transparent"><path fill="rgb(0,102,255)" stroke="rgb(0,102,255)" stroke-width="0" opacity="1" d="M 257.5 70 L 289 70.5 L 280.5 72 L 279.5 71 L 257.5 71 L 252.5 72 L 252.5 71 L 257.5 70 Z " /><path fill="rgb(0,153,255)" stroke="rgb(0,153,255)" stroke-width="0" opacity="1" d="M 289.5 70 Q 305.1 67.4 311 74.5 L 314.5 80 L 321 84.5 L 324 90 Q 329.4 90.7 332 95.5 L 336.5 101 L 341 104.5 L 346.5 112 L 351 115.5 L 353 123.5 L 353 399.5 L 351 407.5 L 346.5 412 L 343 414.5 L 337.5 422 L 332 426.5 L 327.5 432 L 321 437.5 L 317.5 442 L 311 446.5 L 307.5 451 L 300.5 453 L 176.5 453 L 170 448.5 L 166.5 444 L 162 440.5 L 160 434.5 L 160 194.5 Q 160.9 186.9 165.5 183 L 172 177.5 L 176.5 172 L 181 168.5 L 183 164 L 191 158.5 L 197.5 151 L 202 147.5 L 207.5 141 L 212 137.5 L 215.5 132 L 220 128.5 Q 221.5 117.5 228 111.5 L 232 95.5 L 242 78.5 L 247.5 73 Q 260.7 69.2 279.5 71 L 281.5 71 Q 287.7 72.8 289.5 70 Z M 268 95 L 266 96 L 254 113 L 250 129 Q 244 135 241 146 L 234 151 L 231 157 L 226 161 L 220 168 L 214 172 L 210 178 L 207 180 L 200 188 L 194 192 L 185 208 L 186 211 L 186 412 L 185 413 L 186 421 L 195 428 L 204 428 L 205 427 L 279 427 L 280 428 L 288 428 L 299 423 L 302 419 L 310 412 L 311 410 L 320 402 Q 326 397 327 386 L 327 384 L 327 140 L 328 139 L 322 124 L 314 118 L 311 113 L 304 108 L 302 104 L 299 100 L 288 95 L 279 95 L 278 96 L 268 95 Z " /><path fill="rgb(0,153,255)" stroke="rgb(0,153,255)" stroke-width="0" opacity="1" d="M 254.5 177 Q 267.9 177.1 277.5 181 L 292 191.5 L 300 201.5 L 303 208.5 L 305 218.5 L 305 231.5 L 300 249.5 L 288.5 263 Q 281.2 264.8 278.5 271 L 265.5 274 L 247.5 274 L 235.5 271 L 220 258.5 L 211 246.5 L 208 232.5 L 208 219.5 L 211 205.5 L 222.5 190 L 234.5 181 L 254.5 177 Z M 252 203 L 247 205 L 244 209 L 236 215 L 233 224 L 234 233 L 236 236 Q 243 244 253 249 L 261 249 L 270 243 Q 278 238 280 228 Q 281 220 277 217 L 276 215 L 269 208 Q 264 201 252 203 Z " /><path fill="rgb(0,153,255)" stroke="rgb(0,153,255)" stroke-width="0" opacity="1" d="M 245.5 309 L 267.5 309 L 279.5 313 Q 284.1 319.7 292 322 L 296.5 330 L 300 333.5 L 303 339.5 L 305 349.5 L 305 364.5 L 300 380.5 L 288.5 394 L 279.5 401 L 271.5 404 L 246.5 405 L 233.5 401 L 220 389.5 L 211 377.5 L 208 364.5 L 208 348.5 L 212 334.5 Q 218.7 329.9 221 322 L 231 315.5 L 232.5 314 L 234.5 312 L 245.5 309 Z M 252 334 L 249 335 L 235 349 L 233 355 L 235 366 L 248 378 L 252 380 Q 261 382 266 378 L 278 366 L 280 360 L 278 349 L 265 335 L 252 334 Z " /><path fill="rgb(217,216,215)" stroke="rgb(217,216,215)" stroke-width="0" opacity="1" d="M 253.5 10 L 262.5 11 L 271 19.5 Q 272.1 26.9 277.5 30 L 281 32.5 Q 282.5 39 287.5 42 L 290 43.5 L 294 56.5 L 289.5 60 L 228.5 61 L 222 56.5 L 223 51.5 L 228 46.5 L 234 31 L 239 27.5 Q 242.3 16.3 251.5 11 L 253.5 10 Z " /></svg>