<svg width="2048" height="2048" viewBox="0 0 512 512" version="1.1" xmlns="http://www.w3.org/2000/svg"  style="background:transparent"><path fill="rgb(0,102,255)" stroke="rgb(0,102,255)" stroke-width="0" opacity="1" d="M 235.5 70 L 291 70.5 L 235.5 71 L 235.5 70 Z " /><path fill="rgb(0,153,255)" stroke="rgb(0,153,255)" stroke-width="0" opacity="1" d="M 176.5 70 L 290.5 71 L 291.5 70 L 336.5 70 L 343 74.5 L 346.5 79 L 351 82.5 L 353 88.5 L 353 434.5 Q 352.1 441.1 347.5 444 L 343 447.5 L 339.5 452 L 336.5 453 L 176.5 453 L 170 448.5 L 166.5 444 L 162 440.5 L 160 434.5 L 160 88.5 Q 160.9 81.9 165.5 79 L 170 75.5 L 173.5 71 L 176.5 70 Z M 248 94 L 247 95 L 233 95 L 232 96 L 205 96 L 204 95 L 193 96 L 185 106 L 186 112 L 186 412 L 185 413 Q 184 419 187 422 L 195 428 L 204 428 L 205 427 L 234 427 L 248 429 L 266 429 L 267 428 L 281 428 L 282 427 L 309 427 L 310 428 L 321 427 L 328 418 L 327 412 L 327 112 L 328 111 Q 329 104 326 102 L 319 95 L 310 95 L 309 96 L 280 96 L 266 94 L 248 94 Z " /><path fill="rgb(0,153,255)" stroke="rgb(0,153,255)" stroke-width="0" opacity="1" d="M 252.5 106 L 260.5 106 L 279.5 111 Q 288.5 115 294 122.5 L 303 136.5 L 305 147.5 L 305 159.5 L 300 178.5 L 288.5 192 L 273.5 201 L 245.5 202 L 235.5 199 L 221 188.5 L 220 185.5 L 212 177.5 L 210 171.5 L 208 160.5 L 208 147.5 L 213 130.5 L 226.5 115 L 232.5 111 L 252.5 106 Z M 251 132 L 246 134 L 239 142 L 238 143 L 234 148 L 233 153 Q 233 163 239 168 L 255 178 L 259 178 L 268 173 Q 277 168 280 157 L 278 146 L 270 137 Q 265 130 251 132 Z " /><path fill="rgb(0,153,255)" stroke="rgb(0,153,255)" stroke-width="0" opacity="1" d="M 248.5 212 L 268.5 213 L 286.5 222 L 291 226.5 L 296.5 234 L 298 235.5 L 303 244.5 L 305 254.5 L 305 268.5 L 300 285.5 L 286.5 301 L 268.5 310 L 248.5 311 L 226.5 301 L 222 296.5 L 217.5 290 L 215 288.5 L 210 278.5 L 208 268.5 L 208 254.5 L 213 237.5 L 226.5 222 L 241.5 214 L 248.5 212 Z M 253 240 L 245 242 L 234 255 L 233 259 L 234 269 L 241 278 L 245 281 L 253 283 Q 264 284 270 280 L 279 269 L 280 265 L 279 255 L 272 246 L 266 241 L 253 240 Z " /><path fill="rgb(0,153,255)" stroke="rgb(0,153,255)" stroke-width="0" opacity="1" d="M 247.5 321 L 272.5 322 L 292 334.5 L 293 337.5 L 301 345.5 L 303 351.5 L 305 362.5 L 305 375.5 L 300 392.5 L 286.5 408 L 277.5 413 L 260.5 417 L 252.5 417 L 233.5 412 Q 224.5 408 219 400.5 L 210 386.5 L 208 375.5 L 208 363.5 L 213 344.5 L 224.5 331 Q 232.3 328.8 236.5 323 L 247.5 321 Z M 256 345 L 246 350 Q 236 355 233 367 L 235 378 L 243 387 L 251 391 Q 262 393 268 389 L 274 382 L 276 380 L 279 376 L 280 371 Q 280 360 274 356 Q 268 347 256 345 Z " /><path fill="rgb(217,216,215)" stroke="rgb(217,216,215)" stroke-width="0" opacity="1" d="M 253.5 10 L 262.5 11 L 271 19.5 Q 272.1 26.9 277.5 30 L 281 32.5 Q 282.5 39 287.5 42 L 290 43.5 L 294 56.5 L 289.5 60 L 226.5 60 L 222 56.5 L 223 51.5 L 228 46.5 L 234 31 L 239 27.5 Q 242.3 16.3 251.5 11 L 253.5 10 Z " /></svg>