<?xml version="1.0" encoding="UTF-8"?>
<svg id="Layer_1" xmlns="http://www.w3.org/2000/svg" version="1.1" viewBox="0 0 160 160">
  <!-- Generator: Adobe Illustrator 29.8.4, SVG Export Plug-In . SVG Version: 2.1.1 Build 6)  -->
  <path d="M96.51,5v58.49h58.49v33.02h-58.49v58.49h-33.02v-58.49H5v-33.02h58.49V5h33.02M101.51,0h-43.02v58.49H0v43.02h58.49v58.49h43.02v-58.49h58.49v-43.02h-58.49V0h0Z"/>
  <polygon points="45.54 45.54 0 45.54 0 40.54 40.54 40.54 40.54 0 45.54 0 45.54 45.54"/>
  <polygon points="160 45.54 114.46 45.54 114.46 0 119.46 0 119.46 40.54 160 40.54 160 45.54"/>
  <polygon points="119.46 160 114.46 160 114.46 114.46 160 114.46 160 119.46 119.46 119.46 119.46 160"/>
  <polygon points="45.54 160 40.54 160 40.54 119.46 0 119.46 0 114.46 45.54 114.46 45.54 160"/>
</svg>