<?xml version="1.0" encoding="UTF-8"?>
<svg xmlns="http://www.w3.org/2000/svg" version="1.1" viewBox="0 0 160 160">
  <!-- Generator: Adobe Illustrator 29.8.4, SVG Export Plug-In . SVG Version: 2.1.1 Build 6)  -->
  <defs>
    <style>
      .st0 {
        display: none;
      }

      .st1 {
        fill: none;
        stroke: #000;
        stroke-miterlimit: 10;
        stroke-width: 5px;
      }
    </style>
  </defs>
  <g id="Layer_1" class="st0">
    <path d="M96.51,5v58.49h58.49v33.02h-58.49v58.49h-33.02v-58.49H5v-33.02h58.49V5h33.02M101.51,0h-43.02v58.49H0v43.02h58.49v58.49h43.02v-58.49h58.49v-43.02h-58.49V0h0Z"/>
    <polyline class="st1" points="43.04 0 43.04 43.04 0 43.04"/>
    <polyline class="st1" points="160 43.04 116.96 43.04 116.96 0"/>
    <polyline class="st1" points="116.96 160 116.96 116.96 160 116.96"/>
    <polyline class="st1" points="0 116.96 43.04 116.96 43.04 160"/>
  </g>
  <g id="Layer_2" class="st0">
    <path d="M80,21.83l11.65,35.64,1.35,4.13h41.96l-30.39,21.94-3.55,2.56,1.36,4.17,11.63,35.56-30.5-22.01-3.51-2.53-3.51,2.53-30.5,22.01,11.63-35.56,1.36-4.17-3.55-2.56-30.39-21.94h41.96l1.35-4.13,11.65-35.64M80,2.53l-17.36,53.07H6.47l45.44,32.8-17.36,53.07,45.44-32.8,45.44,32.8-17.36-53.07,45.44-32.8h-56.17L80,2.53h0Z"/>
    <g>
      <path d="M78.74.03C44.18.57,14.95,23.01,4.31,54.1h6.33C20.78,26.95,46.41,7.36,76.77,6.05L78.74.03h0Z"/>
      <path d="M3.44,56.75C1.21,64.11,0,71.91,0,80,0,106.05,12.45,129.18,31.73,143.79l1.98-6.04c-16.9-13.57-27.73-34.39-27.73-57.74,0-6.76.92-13.3,2.62-19.53l-5.15-3.72h0Z"/>
      <path d="M81.26.03l1.97,6.02c30.37,1.3,55.99,20.89,66.13,48.05h6.33C145.05,23.01,115.82.57,81.26.03h0Z"/>
      <path d="M121.02,141.62c-11.74,7.83-25.84,12.4-41.02,12.4s-29.28-4.57-41.02-12.4l-5.13,3.7c13.04,9.23,28.96,14.67,46.15,14.67s33.11-5.44,46.15-14.67l-5.13-3.7h0Z"/>
      <path d="M156.56,56.75l-5.15,3.72c1.7,6.22,2.62,12.77,2.62,19.53,0,23.36-10.83,44.18-27.73,57.74l1.98,6.04c19.27-14.61,31.73-37.74,31.73-63.79,0-8.09-1.21-15.89-3.44-23.25h0Z"/>
    </g>
  </g>
  <g id="Layer_3">
    <path d="M80,159.97C35.9,159.97.03,124.1.03,80S35.9.03,80,.03s79.97,35.88,79.97,79.97-35.88,79.97-79.97,79.97ZM80,5.03C38.66,5.03,5.03,38.66,5.03,80s33.63,74.97,74.97,74.97,74.97-33.63,74.97-74.97S121.34,5.03,80,5.03Z"/>
    <rect x="63.47" y="24.81" width="34.06" height="110.39" transform="translate(160.5 -.5) rotate(90)"/>
    <rect x="62.97" y="24.81" width="34.06" height="110.39" transform="translate(160 160) rotate(-180)"/>
  </g>
</svg>