<?xml version="1.0" encoding="UTF-8"?>
<svg xmlns="http://www.w3.org/2000/svg" version="1.1" viewBox="0 0 1920 1080">
  <!-- Generator: Adobe Illustrator 29.8.4, SVG Export Plug-In . SVG Version: 2.1.1 Build 6)  -->
  <defs>
    <style>
      .st0 {
        fill: #fff;
      }

      .st1 {
        fill: #f2f2f2;
      }

      .st2 {
        display: none;
      }
    </style>
  </defs>
  <g id="HELL_LET_LOOSE" class="st2">
    <g>
      <path class="st1" d="M551.6,388.5v120.2h-24.4v-50h-55.2v50h-24.2v-120.2h24.2v50.4h55.2v-50.4h24.4Z"/>
      <path class="st1" d="M655.4,437.9v19.6h-52.4v29.8h62.2v21.2h-86.4v-120h86.4v21.2h-62.2v28.2h52.4Z"/>
      <path class="st1" d="M766.8,508.5h-80.6v-120h24.2v98.8h56.4v21.2Z"/>
      <path class="st1" d="M866.4,508.5h-80.6v-120h24.2v98.8h56.4v21.2Z"/>
      <path class="st1" d="M1003.19,508.5h-80.6v-120h24.2v98.8h56.4v21.2Z"/>
      <path class="st1" d="M1098.79,437.9v19.6h-52.4v29.8h62.2v21.2h-86.4v-120h86.4v21.2h-62.2v28.2h52.4Z"/>
      <path class="st1" d="M1120.79,409.7v-21.2h95.6v21.2h-35.8v98.8h-24.2v-98.8h-35.6Z"/>
      <path class="st1" d="M1351.99,508.5h-80.6v-120h24.2v98.8h56.4v21.2Z"/>
      <path class="st1" d="M1419.39,511.3c-17.73,0-32.3-6.07-43.7-18.2-11.4-12.13-17.1-27-17.1-44.6s5.67-32.43,17-44.5c11.33-12.07,25.93-18.1,43.8-18.1s32.67,6.03,44,18.1c11.33,12.07,17,26.9,17,44.5s-5.67,32.47-17,44.6c-11.33,12.13-26,18.2-44,18.2ZM1419.39,487.9c10.53,0,19.17-3.7,25.9-11.1,6.73-7.4,10.1-16.83,10.1-28.3s-3.37-20.9-10.1-28.3c-6.73-7.4-15.37-11.1-25.9-11.1s-18.77,3.73-25.5,11.2c-6.73,7.47-10.1,16.87-10.1,28.2s3.37,20.73,10.1,28.2c6.73,7.47,15.23,11.2,25.5,11.2Z"/>
      <path class="st1" d="M1554.18,511.3c-17.73,0-32.3-6.07-43.7-18.2-11.4-12.13-17.1-27-17.1-44.6s5.67-32.43,17-44.5c11.33-12.07,25.93-18.1,43.8-18.1s32.67,6.03,44,18.1c11.33,12.07,17,26.9,17,44.5s-5.67,32.47-17,44.6c-11.33,12.13-26,18.2-44,18.2ZM1554.18,487.9c10.53,0,19.17-3.7,25.9-11.1,6.73-7.4,10.1-16.83,10.1-28.3s-3.37-20.9-10.1-28.3c-6.73-7.4-15.37-11.1-25.9-11.1s-18.77,3.73-25.5,11.2c-6.73,7.47-10.1,16.87-10.1,28.2s3.37,20.73,10.1,28.2c6.73,7.47,15.23,11.2,25.5,11.2Z"/>
      <path class="st1" d="M1627.78,495.7l13.2-18.4c1.2.8,2.8,1.87,4.8,3.2,2,1.33,5.97,3.07,11.9,5.2,5.93,2.13,11.57,3.2,16.9,3.2,12.27,0,18.4-4.47,18.4-13.4,0-4-1.63-7.23-4.9-9.7-3.27-2.47-9.63-5.1-19.1-7.9-13.6-4-23.6-8.77-30-14.3-6.4-5.53-9.6-12.9-9.6-22.1,0-10.8,3.87-19.43,11.6-25.9,7.73-6.47,18.87-9.7,33.4-9.7,9.2,0,17.43,1.03,24.7,3.1,7.27,2.07,12.17,4.17,14.7,6.3l4,3-13,19.8c-.93-.8-2.23-1.73-3.9-2.8-1.67-1.07-5.13-2.53-10.4-4.4-5.27-1.87-10.63-2.8-16.1-2.8-11.87,0-17.8,4-17.8,12,0,3.47,1.63,6.27,4.9,8.4,3.27,2.13,9.3,4.53,18.1,7.2,14.27,4,24.7,8.9,31.3,14.7,6.6,5.8,9.9,13.43,9.9,22.9,0,11.07-3.87,20.13-11.6,27.2-7.73,7.07-19,10.6-33.8,10.6-9.47,0-18.17-1.3-26.1-3.9-7.93-2.6-13.5-5.17-16.7-7.7l-4.8-3.8Z"/>
      <path class="st1" d="M1816.98,437.9v19.6h-52.4v29.8h62.2v21.2h-86.4v-120h86.4v21.2h-62.2v28.2h52.4Z"/>
    </g>
  </g>
  <g id="TACTIKA" class="st2">
    <rect class="st1" x="480.37" y="555.51" width="5.29" height="118.11" rx="2.65" ry="2.65"/>
    <rect class="st1" x="480.47" y="511.99" width="5.29" height="90.83" rx="2.65" ry="2.65" transform="translate(1040.52 74.28) rotate(90)"/>
    <rect class="st1" x="784.63" y="555.51" width="5.29" height="118.11" rx="2.65" ry="2.65"/>
    <rect class="st1" x="854.96" y="555.51" width="5.29" height="118.11" rx="2.65" ry="2.65"/>
    <rect class="st1" x="928.64" y="544.07" width="5.29" height="82.28" rx="2.65" ry="2.65" transform="translate(686.58 -487.11) rotate(45)"/>
    <rect class="st1" x="928.64" y="600.63" width="5.29" height="82.28" rx="2.65" ry="2.65" transform="translate(-181.03 846.49) rotate(-45)"/>
    <rect class="st1" x="897.96" y="555.51" width="5.29" height="118.11" rx="2.65" ry="2.65"/>
    <rect class="st1" x="784.73" y="511.99" width="5.29" height="90.83" rx="2.65" ry="2.65" transform="translate(1344.78 -229.98) rotate(90)"/>
    <rect class="st1" x="550.57" y="549.97" width="5.29" height="129.4" rx="2.65" ry="2.65" transform="translate(275.94 -164.42) rotate(22.4)"/>
    <rect class="st1" x="597.9" y="549.97" width="5.29" height="129.4" rx="2.65" ry="2.65" transform="translate(1389.99 954.14) rotate(157.6)"/>
    <rect class="st1" x="999.01" y="549.97" width="5.29" height="129.4" rx="2.65" ry="2.65" transform="translate(309.77 -335.29) rotate(22.4)"/>
    <rect class="st1" x="1046.34" y="549.97" width="5.29" height="129.4" rx="2.65" ry="2.65" transform="translate(2253.04 783.27) rotate(157.6)"/>
    <g>
      <path class="st0" d="M636.56,617.17c-1.46,0-2.65-1.19-2.65-2.65,0-32.96,26.81-59.77,59.77-59.77,1.46,0,2.65,1.19,2.65,2.65s-1.19,2.65-2.65,2.65c-30.03,0-54.47,24.43-54.47,54.47,0,1.46-1.19,2.65-2.65,2.65Z"/>
      <path class="st0" d="M693.68,674.29c-32.96,0-59.77-26.81-59.77-59.77,0-1.46,1.19-2.65,2.65-2.65s2.65,1.19,2.65,2.65c0,30.03,24.43,54.47,54.47,54.47,1.46,0,2.65,1.19,2.65,2.65s-1.19,2.65-2.65,2.65Z"/>
      <path class="st0" d="M693.68,674.25c-15.31,0-30.61-5.83-42.26-17.48-1.03-1.04-1.03-2.71,0-3.75,1.04-1.04,2.71-1.04,3.75,0,21.24,21.24,55.79,21.24,77.03,0,1.04-1.04,2.71-1.04,3.75,0,1.03,1.04,1.03,2.71,0,3.75-11.65,11.65-26.96,17.48-42.26,17.48Z"/>
      <path class="st0" d="M734.07,576.8c-.68,0-1.36-.26-1.87-.78-21.24-21.24-55.79-21.24-77.03,0-1.04,1.04-2.71,1.04-3.75,0-1.03-1.04-1.03-2.71,0-3.75,23.3-23.3,61.22-23.3,84.53,0,1.03,1.04,1.03,2.71,0,3.75-.52.52-1.2.78-1.87.78Z"/>
    </g>
  </g>
  <g id="LOGO">
    <rect class="st1" x="949" y="398.63" width="22" height="286.44" rx="11" ry="11"/>
    <rect class="st1" x="1018.2" y="369.23" width="22" height="204.14" rx="11" ry="11" transform="translate(634.71 -589.71) rotate(45)"/>
    <rect class="st1" x="1018.86" y="509.22" width="22" height="202.26" rx="11" ry="11" transform="translate(2189.66 313.7) rotate(135)"/>
    <rect class="st1" x="949" y="262.32" width="22" height="289.18" rx="11" ry="11" transform="translate(1366.91 -553.09) rotate(90)"/>
    <rect class="st1" x="880.68" y="383.03" width="22" height="317.27" rx="11" ry="11" transform="translate(1451.99 1421.76) rotate(-153.76)"/>
  </g>
</svg>