<?xml version="1.0" encoding="UTF-8"?>
<svg xmlns="http://www.w3.org/2000/svg" version="1.1" viewBox="0 0 1920 1080">
  <!-- Generator: Adobe Illustrator 29.8.4, SVG Export Plug-In . SVG Version: 2.1.1 Build 6)  -->
  <defs>
    <style>
      .st0 {
        font-family: TextaAlt-Heavy, 'Texta Alt';
        font-size: 200px;
        font-weight: 800;
      }

      .st0, .st1 {
        fill: #f2f2f2;
      }

      .st2 {
        fill: none;
        stroke: #fff;
        stroke-linecap: round;
        stroke-miterlimit: 10;
        stroke-width: 5.3px;
      }

      .st3 {
        display: none;
      }
    </style>
  </defs>
  <g id="HELL_LET_LOOSE" class="st3">
    <text class="st0" transform="translate(434.2 508.5)"><tspan x="0" y="0">HELL LET LOOSE</tspan></text>
  </g>
  <g id="TACTIKA" class="st3">
    <rect class="st1" x="480.37" y="555.51" width="5.29" height="118.11" rx="2.65" ry="2.65"/>
    <rect class="st1" x="480.47" y="511.99" width="5.29" height="90.83" rx="2.65" ry="2.65" transform="translate(1040.52 74.28) rotate(90)"/>
    <rect class="st1" x="784.63" y="555.51" width="5.29" height="118.11" rx="2.65" ry="2.65"/>
    <rect class="st1" x="854.96" y="555.51" width="5.29" height="118.11" rx="2.65" ry="2.65"/>
    <rect class="st1" x="928.64" y="544.07" width="5.29" height="82.28" rx="2.65" ry="2.65" transform="translate(686.58 -487.11) rotate(45)"/>
    <rect class="st1" x="928.64" y="600.63" width="5.29" height="82.28" rx="2.65" ry="2.65" transform="translate(-181.03 846.49) rotate(-45)"/>
    <rect class="st1" x="897.96" y="555.51" width="5.29" height="118.11" rx="2.65" ry="2.65"/>
    <rect class="st1" x="784.73" y="511.99" width="5.29" height="90.83" rx="2.65" ry="2.65" transform="translate(1344.78 -229.98) rotate(90)"/>
    <rect class="st1" x="550.57" y="549.97" width="5.29" height="129.4" rx="2.65" ry="2.65" transform="translate(275.94 -164.42) rotate(22.4)"/>
    <rect class="st1" x="597.9" y="549.97" width="5.29" height="129.4" rx="2.65" ry="2.65" transform="translate(1389.99 954.14) rotate(157.6)"/>
    <rect class="st1" x="999.01" y="549.97" width="5.29" height="129.4" rx="2.65" ry="2.65" transform="translate(309.77 -335.29) rotate(22.4)"/>
    <rect class="st1" x="1046.34" y="549.97" width="5.29" height="129.4" rx="2.65" ry="2.65" transform="translate(2253.04 783.27) rotate(157.6)"/>
    <g>
      <path class="st2" d="M636.56,614.52c0-31.57,25.55-57.12,57.12-57.12"/>
      <path class="st2" d="M636.56,614.52c0,31.57,25.55,57.12,57.12,57.12"/>
      <path class="st2" d="M653.29,654.9c22.32,22.32,58.45,22.32,80.78,0"/>
      <path class="st2" d="M653.29,574.15c22.32-22.32,58.45-22.32,80.78,0"/>
    </g>
  </g>
  <g id="LOGO" class="st3">
    <rect class="st1" x="207.09" y="390.22" width="9.56" height="286.44" rx="4.78" ry="4.78"/>
    <rect class="st1" x="276.48" y="361.85" width="9.56" height="203.32" rx="4.78" ry="4.78" transform="translate(410.13 -63.12) rotate(45)"/>
    <rect class="st1" x="280.37" y="500.51" width="9.56" height="203.32" rx="4.78" ry="4.78" transform="translate(912.59 826.34) rotate(135)"/>
    <rect class="st1" x="207.26" y="252.72" width="9.56" height="284.56" rx="4.78" ry="4.78" transform="translate(607.03 182.97) rotate(90)"/>
    <rect class="st1" x="136" y="372.92" width="9.56" height="317.79" rx="4.78" ry="4.78" transform="translate(20.92 1068.74) rotate(-152.59)"/>
  </g>
  <g id="Layer_4">
    <rect class="st1" x="1029.13" y="500.51" width="9.56" height="203.32" rx="4.78" ry="4.78" transform="translate(2190.8 296.89) rotate(135)"/>
    <rect class="st1" x="884.75" y="372.92" width="9.56" height="317.79" rx="4.78" ry="4.78" transform="translate(1434.38 1413.42) rotate(-152.59)"/>
    <rect class="st1" x="956.01" y="252.72" width="9.56" height="284.56" rx="4.78" ry="4.78" transform="translate(1355.79 -565.79) rotate(90)"/>
    <rect class="st1" x="1025.24" y="361.85" width="9.56" height="203.32" rx="4.78" ry="4.78" transform="translate(629.43 -592.57) rotate(45)"/>
    <rect class="st1" x="955.85" y="390.22" width="9.56" height="286.44" rx="4.78" ry="4.78"/>
  </g>
</svg>